# vtk DataFile Version 2.0
polydata
ASCII
DATASET POLYDATA
POINTS 1021 double
4.75711048782032 2.39964044710364 4.71947337171672 
5.04457998247825 1.81632211287225 3.93838207343541 
4.80223749689255 2.94729699935203 4.55466658836197 
5.1367441996443 2.1341358390243 4.772754197639 
5.66024746483387 2.88879745814187 3.68220656852218 
5.61812281223311 2.44108321611348 4.73891209498961 
5.00846639639674 1.81535423290533 4.46670622088253 
5.24024032116499 1.74367057563645 4.0976698985953 
5.20242997549367 2.21210147056214 3.55188693612083 
5.5544108419136 2.26532601279915 3.592841301627 
3.04252374369283 3.54652450592597 5.09653840819898 
3.34881316607533 3.68328431435473 4.91273004004342 
3.38022711354672 4.02777208488679 0.221389231337264 
0.715127915307008 4.83261436807641 5.48458221064373 
1.92603286980734 1.1289931906278 2.85000485396229 
0.811438419069505 0.532456515061707 2.84193845085773 
1.38600414880982 1.61933998798174 2.35856861419289 
1.59913605945557 0.531276608997924 2.57984311896016 
0.54488176342232 1.30953749888892 2.59505093012841 
0.684437247445577 0.885449545432802 2.44865930633963 
1.87633799144736 0.768386439430149 2.9390493425192 
1.5279346221225 1.45809480913204 3.2427441051373 
1.5251315412686 0.735420294844698 3.40524676679646 
1.35912125783897 1.14192514544933 3.50053029100025 
1.78511438655695 1.22284865508898 2.41506616585908 
2.98584595284803 4.60467260124944 3.12235946610049 
2.86573036707634 4.89390527108995 2.80668169539772 
3.92773709200776 5.34530487146071 3.64481248380512 
3.17675089169584 4.65228755206097 3.56189346733255 
3.18415304565794 4.76750138109867 2.86659563058133 
2.73659867515833 4.7493402107892 3.02658936315955 
3.44181780711549 5.468485622488 4.04828968027291 
2.51206814412612 5.04267038899976 3.3191796713193 
4.01033418785929 5.70657676411254 1.21725408487502 
4.0477061892285 5.30965551974338 2.37787355044007 
4.09839052695542 5.22871419321569 1.69761537110051 
0.829334335452612 1.33984727594887 4.20707607298907 
0.672693370235295 1.00668849613537 4.54601327934007 
0.898275112593582 0.913635967258885 4.75300448758693 
1.49325517059095 0.390102929694843 4.51454368200988 
1.18918831254899 0.329656056546915 4.59602351853003 
0.580418623811106 0.432706430733622 3.99325211992051 
0.599898910359382 0.696986636458198 4.48954049385534 
0.869407624977107 0.646376279349997 4.73010736544047 
1.13026498427533 1.6771578700141 4.33078439694332 
3.15916031192526 1.53646336148364 3.65645706909987 
3.32857116269856 1.34861612340292 3.35143204199361 
2.92114569641623 2.13597714194873 3.51049009176622 
0.84136620948632 0.481984063451525 5.16558570352853 
0.875012523932843 0.966197190802273 5.36297686913179 
5.62576057861622 1.13502139456201 5.5148981212566 
0.0946523783930132 1.55662425617516 5.06965490314811 
5.60941030973466 1.34803097635593 5.14689674919774 
0.22039133640464 1.35884127080589 4.65187786030119 
5.39993260286219 4.6938736325135 4.60652800748837 
0.0717197450749226 4.01717140499057 4.07810518926037 
0.105241247453768 4.12490538121299 3.71859067903594 
5.83527078138731 3.9314017192494 4.17881109091726 
4.84888069105267 5.06673182242187 0.670340116024653 
4.27814722253945 4.92822552081016 0.637385702713907 
1.58449155935658 2.56209954908168 2.56710783625889 
0.614141700020156 2.81248164010463 2.27293619078226 
0.769356890635486 2.78016451535886 1.91457844415292 
0.92386621205934 2.85806676290602 2.58077093165948 
1.2970220124143 2.79572622374127 1.9137596069579 
1.6215760382714 1.98099095227362 2.08183537892623 
0.778024539713808 2.34487552524351 1.61898845392904 
3.11809364475138 2.50083198576532 1.56549830282222 
3.62169669853258 3.3785203241442 1.53901068437884 
4.4705471813767 2.92135080904578 1.50132497718274 
3.30595687860368 2.33197435796373 2.14979709327325 
4.51899332028997 2.56782062528484 1.72179878926704 
4.40546606363859 2.84206900698569 1.34318777014086 
3.3170720628733 3.2028697593783 1.94824064475015 
3.06327306206134 2.71354151471046 1.88135831445687 
3.35294170072537 2.14934927051603 1.84984101030827 
5.13437784405367 3.35062948286089 3.3203030617415 
5.02045737362499 3.72214374147083 3.45966659169693 
0.249069082351953 3.81699644251947 4.08240012138972 
5.18449620961516 4.01195115057024 3.23176423875681 
0.783889328301506 3.24658006271355 0.813285853786063 
0.658255473128652 3.34444811572117 0.581819802920802 
1.68496659922358 4.29907111410438 1.11731256258546 
2.23563588547661 4.6939313554676 1.19471558136847 
2.03338315544101 5.39747281199854 0.481565119919597 
2.14334274293924 4.4482944020477 1.25980949319254 
2.25237482228289 4.98158430677847 1.99166443871075 
1.57369083980531 4.33697817008106 1.81438793134849 
1.93750212986426 4.45239834902046 2.07975461788638 
1.97162290767346 5.17811227925768 2.12026937775939 
2.34199846737177 5.1001615378616 1.60077473025601 
1.71835772290122 4.90128861834402 2.2134329149508 
1.22783495577875 4.86866875196665 1.9433982218147 
2.0977833534692 4.47309148013629 2.00362847869707 
1.55777706695516 4.25670291576147 1.23784328427485 
1.2747384284428 4.51229712989049 1.02805416638897 
1.81449051931921 5.54655404449467 1.77926487378664 
3.01022636837272 2.41854060564844 3.77917682171762 
2.20555074567076 1.38379484433604 4.28610850375744 
2.37644367309272 1.71571190136921 4.73089339923585 
2.18473779362827 2.16587700958734 4.68678812550521 
2.52126926400959 2.49188018026441 4.57843753753772 
5.1855202866883 5.48015872940892 1.3858472576033 
4.76049153011249 0.883609367290024 1.61151162750271 
3.94870691214113 2.18469548534557 5.10690743546999 
5.00052086190677 1.48724471680484 4.73313583436773 
3.82628866978314 1.84587429998376 5.23561677300722 
3.89434504182723 1.40775656112648 5.00790306413278 
3.2993001149442 0.328851650927255 3.60785496190413 
0.811647271726753 4.17104918498532 0.257546876925869 
0.600352622029902 4.11533434576913 0.528722059878419 
0.822573608347196 4.3052341454677 0.951790203187403 
3.52076665400009 3.55401988182957 1.09021816561272 
3.25395836395923 3.71280555100547 1.03105431381156 
3.99074543870385 3.2278503786174 0.52163972339787 
3.61374833175814 4.60881485490944 4.69854543334864 
2.26247462413369 1.07117395726145 1.69536551669144 
2.79650128095467 5.70104816326662 1.41040227509977 
2.76738897727499 5.21178322851576 1.58169926532487 
2.14015149952841 5.87675184076133 0.693168701242043 
3.33062638886542 0.474216674907317 1.23787704007518 
3.52571086541754 0.552588150906748 1.26613552439244 
1.0370461872196 3.36146081161101 2.84564272963561 
0.911200823931952 3.3167908148919 3.27515859380939 
4.9688826035684 2.77031367692478 5.93301295983329 
4.4883188622343 2.98810862142548 5.2200466607007 
4.71709745577715 3.10342252649956 4.66090476346564 
4.80588650712392 3.24304709538916 5.45682509187823 
5.24793699539115 2.68934213512397 5.95961265575349 
5.52217531413225 3.20512755960306 1.15103206923305 
5.10379540461672 4.72626885301742 1.47901717947179 
5.90941141283897 3.66832356466062 1.69841122409927 
5.09177349959446 4.71730189714832 1.08197296143779 
5.21826631095991 4.83484207537329 1.33098984799724 
4.98215166583839 3.26946186973922 1.17414359037795 
5.99125040525483 3.82778853796704 1.52426603030595 
5.64187735047888 3.25879888309617 1.55953506914516 
4.90000816032005 3.68330999970587 0.852560326915257 
5.17847190476887 3.68140057862383 1.91706976913682 
4.79128611639641 3.65048117977897 1.55941402664673 
5.46008661425293 3.9887324519898 1.96925185155016 
5.4256168759774 4.51240781760148 1.78355341578355 
2.16938501575285 1.88569881428616 1.71676006094419 
1.94567925229068 1.65460798351186 1.26119316427881 
2.02729893112276 1.91453389498589 2.03878212596835 
1.92717106696305 1.90010140573725 1.40548089356353 
5.08717541788579 0.672299544499541 4.08162390922023 
5.48629138250004 1.1162230828737 4.26647732900192 
4.81822227651197 1.4922595295155 3.55900728189572 
5.21767624877045 1.15468691475142 4.64202490888425 
4.80287081947707 0.777849054428668 4.60093671573147 
5.443523602795 0.900730041438973 4.05633150044884 
5.22889410948045 5.17951104500564 4.29845329942796 
5.18601846476894 5.06434747248607 4.91776980777495 
2.18744980788121 2.55697127289181 1.0354143167703 
2.50393106567301 2.76723593474028 1.21340450524445 
2.64250077325339 2.56880208962645 1.56856655500352 
3.00075219486467 2.44532538480639 1.48622614150214 
1.83086033239043 4.19491360889833 3.83465494567532 
2.16910918638494 0.796811286983282 5.59153855268326 
2.14893673668336 0.440549468389024 5.09464314279665 
4.34400723417493 0.582683739602899 2.88910299652263 
4.20175319874292 1.85772542421965 3.13118530311961 
4.8934811930768 1.71568193735431 3.14910251367511 
4.59509892037379 1.89765864030726 2.97915536432357 
4.15332811773187 3.73582563535878 3.74683207249048 
4.28643268846409 3.68502951444512 3.4652348071461 
3.59608250630969 3.59398338841752 1.46018439964287 
2.32003898299328 3.24911268628101 1.38219498872576 
4.31466347245496 0.72373699458203 5.42215196784617 
4.65551866504929 1.28655812785107 5.95796946247069 
5.38096888590053 1.22906933365091 5.86870538139563 
4.51028628667311 0.57447702204288 4.8591767989984 
4.73651234303865 0.516858771264091 4.83284881875058 
1.29273954187002 1.85272540228504 5.3245796443069 
1.17367945062255 2.04318850020837 4.95184828698235 
1.4105075085685 1.93890542766021 5.39348423113554 
0.43426194982843 2.23619910198188 4.97485743840663 
0.813042118085119 1.79236495669984 5.6881315737644 
1.40158559546424 2.31452838039153 4.90885123789847 
4.65468566388117 2.38334313684531 2.31437913059074 
3.36555123492434 3.77288698937047 3.6993239388337 
3.66437660703052 2.60186866698347 3.14957492092639 
3.98451568544892 3.88178948720858 3.65652135670867 
3.48533819023128 3.81174739706542 3.80900118019566 
3.09619295035224 1.63332429341518 4.9305501538311 
2.69053102636716 1.50273478284627 5.296779750324 
1.68194822621364 5.60912063310135 3.61837197289404 
2.94401558799284 2.82869695880029 5.01937091362192 
3.0025625658748 2.66297052614938 5.64067672879379 
2.97900930337326 3.24238796508401 4.87309226309647 
3.71354698032906 2.38744315202816 5.12152885592579 
2.31874554929469 3.22086984430211 2.97099471197734 
5.17163998183123 1.82653191812866 0.577609027871796 
2.28863427723733 4.06738062902331 4.26775551889148 
0.556378421031288 1.15053167518251 1.28889788822944 
0.210841254180102 2.12435084628806 4.99685249637943 
1.40019586744974 1.45277123511856 5.27108503445667 
1.77082905311035 1.69911901702914 5.4851873977206 
2.28839292235656 1.58341925651643 5.12026584898172 
2.09007056380893 1.29209616479856 5.1312518528946 
5.12576731998561 2.10091100537361 3.2073549131589 
0.660396545370457 3.80630390452809 4.40002749457873 
1.11296676178305 4.3540279735629 4.6081065321492 
0.800112345648233 4.26111281691588 4.70338606435505 
4.61015610992012 3.72354991220027 5.76430689410527 
4.70172232139914 3.90134989846801 5.6884134522511 
5.06234196387443 3.75063651528621 5.14767153536476 
4.64764747307059 3.55942593087282 0.482156026609345 
5.12411620803147 2.33394284221339 0.858922521791085 
5.10969029988837 2.26945276946613 0.657054723702833 
5.6760709535138 2.78210196897979 0.999038598269055 
0.492968377192978 4.5804261822694 2.52460461153973 
4.22245919256153 3.26361323385396 2.5613643595661 
4.03739623599623 4.19083782273082 1.84549276207456 
4.11458552230013 3.89389789609358 1.62934514854837 
5.18076776781981 3.9849168630227 2.48148184704442 
5.82374235297907 3.00358272720697 1.66716352783698 
5.43488136794593 4.12609862221487 2.29756016415662 
5.67123285206075 2.69533170109997 2.36835435101978 
5.39705505290728 4.5905055912455 2.12777933205257 
2.51860697949343 3.56421358910852 2.62400939420537 
1.74589898656617 2.77721820725092 1.06377853482674 
1.74546819877208 3.2618885417388 1.89799907414727 
0.374696537055441 3.86387667365517 1.56120273074952 
0.499695885961749 3.69088398919335 1.74370576914002 
0.655817496807854 3.80207675078948 1.11007037302925 
0.495862587084932 3.74508636119868 0.691821571298083 
4.17244808636864 4.75720154563361 0.802896860185025 
1.07427702128563 3.7857590668638 0.0443374989778876 
1.00492154261592 0.323156441161791 5.20279916534916 
1.23638705690888 0.211484106740691 4.75272655246632 
5.21166773455261 1.9988907719117 1.1696067508396 
5.87790461872394 2.66054547289627 1.27289710431228 
3.51388982484566 4.66502097058507 1.70803677713261 
0.732819399139796 3.50173295138945 1.57060829968321 
0.809017729037057 3.60355674363264 1.18746300706111 
0.520199619369264 3.07698737931284 1.69529302109077 
1.13916136177115 5.01739200122841 4.21622098411111 
1.40979684585917 4.59422657742193 5.0063886377562 
1.59625675476555 4.44397065551352 5.03578362158288 
1.58028547451217 0.259798608030952 4.69159724625418 
5.59898003938507 2.07546753412161 3.0020698334964 
5.81403175703436 2.45761345278241 2.50384623413404 
5.79209421633248 1.89792651619125 2.11109291500251 
3.05395569247687 4.12708931770647 3.65700407821909 
2.93616126203101 4.25774541078648 3.13158883283943 
2.78777541702309 3.37751827510574 2.54127806110303 
2.57006647595408 2.79017051318002 4.8720451000942 
4.951412863077 0.684985317804859 5.92006884738145 
3.89543663132472 3.67639292888131 2.93328552875197 
0.522407673975657 2.47842416043489 1.14529050711256 
0.439863831545353 2.63093624305113 1.13006913650777 
5.18592221230669 1.470056601689 5.87438956105679 
4.75477103794071 1.91086787769234 4.31670280500825 
4.32000988526344 1.77988406822222 4.3561972076466 
0.310967510425531 2.15967478048223 4.85375017703421 
3.27183033509288 4.24081371127469 4.7729901528876 
4.86535414624094 5.5878894616943 1.68315999771438 
5.08250074057241 1.41456886486392 2.90871827601839 
5.58085279791561 1.54930383051308 2.77800785574884 
0.925428042649843 5.67948614264309 5.10326417532288 
4.99203176636794 5.55032449697083 3.03787725417301 
2.99780863416686 5.80892473128224 0.670247753423179 
3.1101157666934 5.75786538458757 0.930631418593177 
3.52612058094493 4.46812856325862 4.9281087809027 
4.72613351047958 4.92871669833879 1.85498602084515 
4.87088465570353 4.80642886259741 2.24727667337298 
0.483978795339465 3.42298447213971 4.58587959988232 
3.83991164805367 5.29524237495878 2.00237292831509 
3.72707775881026 2.43846729247311 2.42581201040354 
3.64899160224943 2.27267488583425 2.8738626661941 
3.10518118814127 3.94208728400284 1.34899315956899 
2.1168727100795 1.8461497623722 5.31346041636524 
5.83781059462318 3.47911649334368 4.99633496340834 
2.82484783771831 0.474406906298217 3.86538722776713 
0.539794994278054 1.19574275925905 0.857423741827356 
1.53996822571904 2.30939841984426 5.0948697968594 
3.41876684015734 4.36393007710833 0.185326451805477 
2.15079174173813 4.15529085007184 4.26496905476558 
5.31314345631213 3.28033921758494 1.72593371038756 
4.920065805865 3.29865711320363 1.42405916079378 
2.60915634633368 3.36300250932785 3.98121520117373 
0.893000139618617 1.88671075512146 0.470697968881977 
4.40071871268001 2.46493792822408 1.42359792642322 
0.676166756637129 1.64568385532943 4.22837675062178 
0.476064385667159 1.81290839841401 4.02446539328748 
0.984865665063759 3.69275167223299 5.47417448846468 
4.9204925103199 1.96925190048051 1.42400763962239 
4.61848938077729 1.37402163572952 1.3906065228616 
2.97041053421644 1.7326054933023 4.67559352471426 
4.1167232834005 3.32126086249386 1.78043592067523 
4.30229639961221 3.65560867481941 1.7918696233572 
1.68610263171543 2.47616045805399 2.30701493827229 
2.14503214011258 2.34153413561356 2.23428329448262 
0.761804221679129 3.97910894344386 2.12764097926842 
3.41572587636947 1.22357929815708 4.83637612668235 
3.43395116730276 1.12298985602117 4.47680527694744 
2.65605987235835 3.02616591226678 2.85421528833656 
4.70370161930277 0.245152853927145 2.08226834080313 
4.25863074492055 0.227033542557322 4.75727160456578 
1.75762203905467 3.51415838534649 0.378804104488283 
1.50291999095877 3.90397362050664 0.0847871179815915 
2.87254631532735 0.751535694863329 2.14979278533984 
2.80821031079796 0.493021742679222 2.50018616348732 
4.02510947245646 3.29829453832077 2.82930563775118 
3.79178455281377 3.15475104327346 2.78160586660213 
2.04151201428316 5.52381025145027 1.47388342828281 
2.28964528695557 5.84020630742362 1.3762437709211 
5.08122718813486 2.05418638050108 1.81977547402115 
5.53526908378381 2.16247966426241 1.82786948433856 
1.40303725008902 3.17882837493897 4.33759509114158 
1.93431020375278 5.42725539722793 3.20944117383588 
4.89520262085024 5.50324178837729 0.728181143450783 
5.308928192127 3.05440728200437 3.68517748708262 
4.94541230415218 2.65936705278772 3.63236965519765 
1.34826030435109 4.54350821678104 0.944245693991127 
4.06370482585567 4.73467111012155 3.40783943491795 
3.92782901665611 4.23876805466781 3.78741258876772 
5.22164237662258 4.94057362078198 4.95737281802128 
4.73878285275005 0.729963794261303 5.93413678226415 
0.816938754149696 1.21471309267011 5.70332158645638 
4.61503644618997 5.10439387653695 5.05805185910492 
4.12645234598159 3.83227294616349 3.35545602051177 
0.585362431807529 1.93481800806941 1.78507474260805 
4.62908359541718 5.21172196658925 1.9024148223773 
0.468003781783384 1.88010910737224 5.58141259676032 
0.319446978936917 2.18871800283072 5.10504824020034 
2.79849021916481 2.79524714056936 1.97643923864649 
2.36592442760379 2.66350482283268 4.1215777160147 
4.01902801155608 1.28739565147646 1.77032811634452 
4.60882693457508 1.16651864884825 1.66587981252637 
4.60183656311124 2.64305188097531 4.13276647846118 
1.53797355460883 0.579742926505659 0.892804261621035 
2.9331047889441 5.20041099153566 1.89544425078035 
3.40801848005864 4.84760807131188 1.94490276454621 
3.97811536892458 2.51116076246084 3.43140643954975 
1.03966544901386 1.09637014314124 5.53218622401113 
1.3909896529788 0.846955245579315 5.80173858221477 
1.73202666457002 1.43916345523786 5.40498942352234 
1.76897883645802 1.07003763439941 5.76610864943398 
4.22957506175674 5.6592435611739 3.56882766156636 
4.46254190553206 5.81531488637342 3.28549029086127 
4.40230155066265 3.74436167433497 2.24257442501072 
5.04013572243905 3.71111525700368 2.32229322933677 
5.47780692467173 4.78028395381946 1.34057097608608 
5.60950167346238 4.5786982808917 1.64522088948095 
5.27748395690967 3.99605017965603 3.83892657640472 
4.21962231513695 5.2786469349559 3.7235258140569 
4.36352562270628 5.00224717303594 3.64056185245666 
1.6229011711651 0.264441808185075 3.87872462726805 
1.76804687761689 0.561485968121115 3.74299640999322 
1.94763820059739 3.98866289776602 3.49982674293354 
1.56399743510572 4.98177772662182 2.72892392865101 
1.49167198207849 1.37566977661454 4.02985295381743 
1.08158402303284 5.71995499360071 4.80676705715047 
3.46733546654633 4.15714590058117 3.92222568727575 
3.16288349337294 4.3274436312524 3.78350562331529 
4.18641675071926 0.466503722334532 0.613071448124655 
2.82674662962781 1.85634191690771 5.77885214125002 
4.0086020118037 2.65098555347347 5.40490375042318 
2.74248071017661 3.76113280725086 5.09380206432075 
4.29077118619293 5.78193078422429 0.794667890912286 
3.21931148405376 4.49889553443939 0.119199293832718 
2.23877443025894 3.85574524695381 3.48973681952283 
2.48274082239211 3.85683412037335 3.84663944476166 
5.28350353286012 4.37152290372081 4.53852033705604 
4.84928982798932 4.09648205275685 4.7915674762252 
2.82129128159468 4.21423978424169 4.92144802199644 
2.4875077539145 4.33741408311272 4.40987553997573 
3.87208787059845 0.24214048153994 1.38017862882199 
3.33791950903087 2.47114399952144 4.87583470124784 
0.266383075188926 3.51534343787924 1.89608755107469 
0.269861843562319 3.19656821900275 1.87708992675586 
3.18983175906054 2.6946843282712 3.62011999111413 
0.309490437282414 5.22113748595011 5.22606852355648 
1.79767972459847 5.52427610530798 1.10364215856839 
2.0593978514334 5.90636168095159 0.853572177322513 
3.48585475310505 3.3914524604106 2.86625132058599 
3.55975570068899 3.63741900094896 2.95320265642222 
0.388820244658241 5.50410158155499 5.06056851241305 
0.302860421881635 1.84718911447514 4.18759095020348 
0.398464573527479 1.73494137313389 4.39154903603346 
5.1760288888506 3.79104755378922 0.691150418840421 
1.68383237663579 0.217822880418931 2.41234962469479 
4.30111685528368 1.41361213209154 2.49371751960079 
1.17049912829769 1.4426950548434 4.29891607694369 
1.29829334806335 1.19353233972803 4.6366211298528 
5.03516937319738 3.3650066956761 5.12049510464052 
5.57752822674168 3.16958263841775 5.05045854330474 
5.66098448091098 2.13766845081476 1.49033656635685 
0.432446044777121 2.42937611019192 1.10660125373127 
3.08415778053282 1.45432754595949 1.04936685381245 
3.55667594144436 1.17767237897885 1.09146857616318 
1.68589180154694 5.20942190785223 3.90916898985577 
1.85605832203398 0.120862661758275 2.1544674208243 
1.83593943475268 1.81540170493409 0.101701501251484 
2.29696914865003 2.06691006798218 0.205884719759907 
3.40992672796266 2.65568420818984 1.20206754165233 
4.35191643010965 5.23430517121297 4.77872957615231 
4.56104649084871 5.32596353643204 4.22157912694606 
3.75720525401885 1.3065642634335 1.62426101462555 
5.73577923913159 2.96130597788926 5.39853648939825 
2.22468750301002 0.448909870859017 3.5470703990022 
2.64364642632832 0.682830707375349 3.75132697674706 
4.5134863880222 2.28881389420821 1.27089236920996 
3.27221306424262 3.87994685856132 1.62981996669952 
5.03564173759197 3.00209294519154 5.87563455770701 
5.30624618451306 2.93134564023375 5.89568191383702 
2.36934115681771 4.43472168590452 4.41220257001683 
2.22224780942884 4.69713576504762 4.84645377904077 
0.663823920631621 4.85327454879178 1.24538132315133 
0.392689198759275 4.79072131850179 1.73563928258894 
3.94418184257895 5.58517499465782 3.53629562121736 
1.20013688672028 5.01816569249212 4.0161473786846 
0.456347181796945 2.05500948716089 0.675980230266106 
5.54824061673132 1.10123674701625 4.92022903440848 
2.2564897255608 3.70409675035736 2.16366984446175 
3.2938149155064 2.21041167311776 4.12096232289061 
3.06777185964598 2.21476777880445 4.56185261071836 
3.4577927301498 2.0166687797718 5.25944227723636 
3.49461574030461 2.31980470336378 5.18879316447823 
5.53766007631217 0.763944110452723 5.31836966489513 
5.21584389825111 0.514290309197826 5.41557025305339 
1.25013911689797 4.36051334327675 4.88266408487039 
3.22411445912743 2.67655250660608 3.3413819743379 
3.12267083663041 2.93148620171863 3.29151598182339 
2.3351640874878 3.23988027114727 1.66487648081802 
2.58493421256515 2.7412634082664 1.81495459423414 
0.733546825950575 1.58921317306079 2.44578216557048 
0.431074464604552 1.93486715221656 2.12271983448288 
0.882895744377582 3.2076392818813 5.42025058618192 
2.25297787086599 2.52897725036764 0.370729870606821 
3.32691948733294 4.38140226201758 4.45541836079048 
2.98073619011919 4.51865675549986 4.15968364671477 
2.58284700457171 2.46210222243954 2.64056013354298 
1.62702186907334 1.65572439535673 3.40260944042376 
1.69257802246054 0.21313624920632 2.17574031017294 
3.15867940893997 5.59155382210293 4.83671233019415 
1.5121906514245 2.74474076677367 5.30264670179159 
1.9643774890254 2.92395819864324 5.35711548385986 
1.511405027053 2.79870041254383 2.18770196119697 
1.4380539944786 2.82807382237385 2.4580399693106 
4.32676925395187 1.78229266149452 2.65244203596753 
4.52532194157597 1.82234710193306 2.67594552235319 
4.16539988756578 1.36256564972996 4.64208383879101 
1.37093604990417 5.08152789709704 0.833900092550113 
1.80750716877683 5.2475540517079 0.896440576340997 
2.62871260203216 0.816772783104611 2.83949076765596 
2.96251048832304 0.857512874980847 3.3157337016837 
2.72959887423582 0.869253166209723 3.4961394790581 
1.01950903755248 5.06654718974756 2.68935145698443 
3.74108397115287 2.79155325371825 0.135402799914446 
3.5481241279711 2.68903139405826 0.208401243107437 
4.04408377452317 5.00190082274225 4.58080207585894 
3.55211214753481 0.848198643619364 2.06300400751452 
3.72427151194155 0.78367229903786 1.72737586180557 
5.06923462860061 5.67501685809227 1.085846287485 
4.00116970162476 5.50213209105972 0.740765373430539 
3.88052196460879 5.4751918489865 0.900806123167165 
4.5896482812191 2.23324030175636 4.41533121228838 
4.24636737420778 2.08084652847591 4.43770029022767 
3.28285015263682 0.628603474922533 1.00791638003525 
3.48771952446942 0.714265343224 1.03121736426179 
0.318640990552057 3.54788278420672 2.28192616605179 
0.299965336201458 3.12082728398287 2.18179337890322 
4.48132835130792 0.432529036541177 1.63972694207153 
3.99537294930897 0.426274247682728 1.70522660034728 
5.55374986513236 2.70046859028684 2.0655402902746 
4.44193739745184 4.92563095509926 3.87640347647797 
4.34944933277863 5.1482896409827 4.02794174914806 
3.35019970088858 1.59642188298257 3.96996589651023 
3.16380922174837 1.39239795319106 4.26525512373517 
1.75443691764996 5.44634021293634 2.92865825775621 
2.17406901530499 4.29361758996882 2.19654071683794 
2.22721760724026 4.3461802506545 2.1223899074276 
4.27651341328025 5.85800366590616 2.65956758700419 
5.49742357058384 1.28036858778059 4.08348458204984 
0.91182445980295 4.93102851968161 2.09691388079075 
0.634390366687449 4.66212027049773 2.14265382373607 
2.14509078168602 1.19076198470563 2.86956512099856 
2.09274454834707 1.72414814754564 3.35807826008875 
4.07384104926146 3.06779779146238 2.33154415794741 
3.81809063063663 3.00895314973118 2.42422320705655 
3.55440431688952 0.672579264072938 5.57049359215332 
4.63524889219335 5.26311032943954 2.25275700657901 
4.80753558987413 5.00549405604462 2.41411761465316 
4.64531605002058 4.75043534390516 5.18977617300122 
5.05526456211218 5.47320647254202 2.59129010525515 
4.25141789449905 0.169329552965012 2.52778753608691 
5.24353832953558 1.66670168256677 0.955650718367222 
1.89387086796984 0.0995676865332287 2.40905540480392 
2.01708403558315 5.63391774924034 2.64557780487068 
1.31517573205869 2.97379852149537 5.11466534913505 
4.88257002423109 2.40425820790622 1.97532760555848 
5.38010665495491 2.77189939026533 2.0991661834533 
4.77499652435792 5.53518127430312 2.36058843143354 
2.0267057583176 0.45235413731423 0.91669406281117 
5.67422721248867 2.00583183408111 3.98167397702984 
4.09994056439256 1.81097844226366 2.98040710147044 
3.24259351243177 5.5581965478797 0.78988159373284 
3.12525520894273 5.62598700640901 0.56363786526818 
5.31129720129428 3.22167369649234 3.9780087621776 
2.31941026230175 1.36387993772184 1.53373295776603 
5.28768351681893 5.08361025511033 4.23360699526063 
4.9730559999281 4.78814842983977 3.88863028931881 
0.234369671926405 1.56205361000419 0.885258207474478 
2.38903543945176 2.47324081723345 0.662481294826155 
4.07574932813405 2.2328424316752 2.24734177603614 
4.36039154202715 2.49757329871858 2.16735970248742 
3.93519973439506 1.41105596436843 1.64420465978366 
4.79115275060035 3.15903719288084 4.65502541793167 
1.25255281271293 5.37451121062074 5.27809897518005 
1.15088877804695 4.93781603574824 5.43337551192946 
2.35822506395327 2.04646031914778 3.52843301938821 
2.28774894212183 2.62515985000378 4.09575794319379 
5.74763028709469 2.3075578608391 5.03548407277569 
1.838363462175 4.32391686616036 5.53593088112697 
2.84526463789505 0.641578435810036 4.18000051385063 
3.79665671025784 0.731500790398009 0.603879951496251 
3.07147656892585 2.97043323431364 3.60089196084744 
3.18854284611101 3.38950887721592 3.88462098139805 
5.51863634289029 4.55383852303891 0.917486715481348 
5.31522320764005 4.54553750885021 0.838613867032965 
3.97865342454286 4.59684581127843 4.61572096878775 
4.20051056922442 4.39469104323485 4.10842182519637 
0.450374798677424 4.8583547596493 1.88038822060414 
0.839225133210524 5.05967373691984 1.95382638004411 
5.05537478797206 4.26394540163311 4.11859096387779 
2.55084384081969 4.13838828315785 3.02619727176357 
5.11497350876748 3.76747962442472 3.81054680693859 
4.90730492813416 3.02891616996695 4.54825980716552 
1.88581241015736 4.48152027036725 3.1071902954407 
2.4009218934417 4.40920704657069 2.91327806332424 
5.8198662581022 2.52360612582015 5.36667763762735 
5.43473527324044 2.35766501679196 5.75885969383502 
3.53173509317665 4.28320550128657 1.86930300892291 
3.88876941770895 4.95558968508627 1.04147590266957 
3.99932342878994 4.87795462836925 1.51829284686265 
4.97755547885918 0.525594512753591 2.19372702859287 
4.78013296063796 0.802175290658099 2.71117056991631 
1.34430295172541 2.1673276561849 0.19995804722631 
1.19121136154982 2.83591203244931 4.88213315907889 
1.25972401877494 3.0145600838257 4.42311113848064 
3.31195613337697 0.728943715130527 4.43589949545136 
3.20424806772772 2.0515577975017 5.72824233543479 
3.25705110916079 2.4563438463241 5.66612168280172 
2.7400983146892 4.44074948128309 5.20361064143022 
2.42961603310382 4.68401972011594 5.15229577395426 
5.5005505554251 2.92933403974061 4.68351147382605 
1.40699193321245 3.915028233506 1.96313751896383 
5.64887987493424 1.57445919667435 2.27342499984674 
3.24366074083215 2.83234991527497 0.815413938844314 
4.14205313116323 3.06872066797425 5.25306146659018 
3.96922918022175 3.55603563907118 5.65307638740378 
3.59917469388139 1.06003590502892 2.09159003996449 
3.80515649779734 1.15182572862107 1.76168596908677 
5.1085657681132 5.2526657892727 2.62414444998747 
4.1500657323307 4.35017004946908 4.85647440156407 
4.08543908953201 5.6431839059218 5.16683269745105 
4.51425967936139 4.59952243482161 5.57299257209737 
1.53101755850062 5.21038751783175 4.73123511537098 
1.47261022447488 5.41208364359256 4.87924137842096 
5.4479701311407 1.01947006943756 3.89879773198024 
2.76562387582611 2.7262396245177 0.910956273669943 
3.67720481294713 5.01015805451769 2.95491504544376 
3.79313936281826 4.9230652533107 3.35691787087925 
5.64772855475549 3.51139626596222 0.853877438946663 
5.86433702643555 3.77975651688918 0.973301834458557 
4.53606210933255 1.39393424808491 0.21349822831635 
4.27140565206638 1.57876327227497 0.128357636477874 
4.47878149700153 4.43295589387257 5.11076927516239 
4.40018429766118 4.35786666141696 5.41336276638328 
5.74422691763364 3.12823873962198 4.22168911109204 
5.98145698208652 3.45492440717636 4.33369497040942 
0.151680667571926 4.88071082495978 4.2321482507132 
0.225456697154546 4.72286990772885 3.67540106941782 
2.6530624317193 5.06344611674271 2.21531901725822 
2.75126969758548 4.79893589324024 2.35798370985108 
3.09012860630694 1.79993802440459 0.642915537467642 
3.8259347538065 4.88645591756396 2.72774804784567 
1.12153065426112 5.25941356756918 1.06112936665764 
2.57183267878789 2.51676347352955 5.72216469738847 
2.50981262055758 2.07352991650149 5.80266500112917 
0.702420651200755 3.88057167898645 5.30074934464184 
0.838393540037045 4.24887797560651 4.987021073055 
1.50436975636764 1.56271430201775 1.18822641924418 
1.27744588231666 1.19248968577983 1.22350075558182 
0.565326575566742 4.47430443334353 5.25150050179942 
1.30644532752838 5.52696001442676 1.60499305178199 
1.29937627969921 5.55008264168933 1.25035903729773 
1.64838399187406 3.96029311772509 4.50164015173265 
1.46952696479268 4.2342516765329 4.9312296195825 
4.22576320139094 1.16163263031809 5.37648127949682 
0.747597885533557 2.8872471954577 4.89456673417674 
0.689471103493796 3.04584922356444 4.56086176117427 
3.34226671551797 3.84935515965969 2.74750760463319 
3.20207366738504 3.53007280206959 2.57997467217033 
4.17263160192768 2.77509650022156 3.88987505209876 
1.04870080668981 1.47980754947342 2.17813876494505 
2.2555508495549 4.46563380520239 5.53771374094182 
1.31826719782163 4.59417161841326 3.77598424433302 
2.28052480227674 0.653667759567516 5.00916485609833 
3.86088978974841 2.02346915294733 1.77465422646899 
4.07586799722989 2.23447745835685 1.36686501851992 
0.167631459855859 1.60106396737297 1.32194711675383 
5.01889582253809 0.872970664809773 1.9238902106595 
0.986186145751712 1.64159288742068 1.80635553617055 
0.963445019980824 1.17752766382043 1.48855050262463 
2.13465436455364 3.30252849475646 0.0702085055395317 
0.614897011253328 3.15240168977234 5.26464530025844 
0.451284266469549 3.45040277740051 5.1466138303529 
2.2534970639409 1.72892469598621 3.59509743064555 
4.27332335769879 4.64837829734267 1.57598660735116 
1.00100519631857 4.95873632056864 1.26815324351943 
1.07996226224655 5.06553906698224 1.74877477803877 
4.00728313058747 1.19240445094774 2.67969790206602 
1.23177115651279 4.43309778276488 0.367927148935026 
1.56389646688719 4.21722674959437 0.237205330320772 
5.62279806422669 3.86910506952862 5.07307740194481 
2.02866508144681 2.2278309955441 5.04141503776654 
2.2581103796175 2.63733899481054 5.22488367270226 
1.09070557347546 1.95847196864794 0.549576501582688 
1.09070311334052 2.36081574024623 0.95775084159348 
4.29381546220654 5.58713790731248 5.06790803803289 
4.51911347505166 5.46300958945131 5.29014912999219 
3.51869423991063 2.53950221392589 4.795884419074 
2.30378348201098 2.89344794596744 4.08641948362946 
0.987185365853838 3.3262406548394 0.257600438679652 
1.95179019228032 5.34777383159941 4.37057344620247 
1.60956961267094 3.26747610013869 1.73639500141142 
1.35210403095815 3.61713114280833 1.65113406360192 
0.442004345199474 2.50796430451214 2.45884560698577 
0.111559688712675 3.4368600332229 4.28244194629614 
3.27042805004588 0.288514024806503 5.03644434008136 
3.60656000878668 0.0745811721561592 4.82211106779971 
3.97681025187478 0.0705840507074219 5.04343930318905 
1.57580677773992 3.20282137725772 2.6253110591206 
1.77094992448013 3.52382796771508 2.14454163042925 
2.07729184888948 3.01481631144278 0.0232990257028981 
2.39315193192127 2.77909984293537 0.13172032858118 
1.32505044668075 3.43372869366206 2.81818999958335 
1.38115916699062 2.12679234321553 3.24575198456777 
1.05141989162804 2.31886767756977 3.69982241288569 
0.639248946663206 2.89470179925961 3.41230049734667 
0.827624135300075 2.6476432157708 3.75211136419086 
1.44750264115813 0.508113097747066 5.68141355725503 
0.334259069090534 3.88156354659046 3.66339234813793 
0.32830958437346 3.66852975697657 3.40622367893316 
0.860106014892754 2.33481887214683 3.67389430638814 
0.186289833783185 1.82255131359366 1.45172919048006 
3.0603630723321 2.52968056754225 0.998462505163784 
3.24854653566802 2.61364029944895 0.946711109182011 
1.39409671165799 3.71184078323249 1.3202724920713 
2.70539105581006 1.07571990343755 5.40873957847576 
2.30957789546603 0.930085479914026 5.30941361949383 
0.654988466050889 5.42127418811559 3.16576922615564 
2.72751142429649 0.431822074212546 4.79203893458759 
2.39726284991652 0.818079732247445 2.99800869213229 
2.20351363041571 0.620659625586177 3.01429825018934 
2.23440208078347 4.95327800379758 4.80381065730486 
1.76588474169342 5.28862953249724 4.71451128332743 
1.21776587368094 0.5131981245843 3.33997783176222 
1.17988774830935 0.370206041618325 2.87935366005036 
2.07520481630369 0.515150931766907 5.51703907455295 
1.66318958977708 4.6070147949949 2.99885354283581 
0.219894167452236 3.14433410766834 3.53300328843018 
2.20137001917806 3.33188401303909 3.3733644319924 
2.53224228794457 3.17037838373733 3.83184182728579 
0.7150879271787 3.91105489758062 2.79439812157386 
0.560626178559785 3.94433226993275 2.61342726578133 
2.38685199536271 5.14034271765359 0.31794559042748 
2.91806441693133 5.26386140400113 0.329847857395972 
5.60101237111989 4.26533981440322 4.60954852725287 
2.51930967950359 0.785440540446322 0.573761893316004 
4.08434497636006 1.20645260240394 5.39378114037368 
4.0686099036689 1.50182284632513 5.64341710623166 
3.14256080432518 0.540764042697635 4.9042006253814 
3.20204011923553 0.812822533050326 5.12597262635454 
4.51156145213261 3.97039180406772 4.21690772528923 
4.67350231833081 3.95869164079654 4.22052277725821 
3.94311095123953 1.17593692504561 4.30462615410463 
4.45633016729535 1.43808748525949 5.66840579971843 
4.27908606832915 1.57619495200502 5.74161299725995 
0.854371418089989 3.76528539362681 2.67903223724701 
0.643370198840599 3.83322444652488 2.48519177030986 
1.21980992593284 2.28131072127542 1.58023891890958 
1.33373829506152 2.27398992766383 1.34481270796027 
0.575241483321305 3.71890418237052 3.33349263002393 
0.61990158525126 3.92529008504466 3.55948281631112 
0.313007243095895 1.45820897549636 5.52245453715971 
0.66030990976563 1.14483754807408 5.61549466621102 
3.85147294390528 1.43440569499691 3.0032488220928 
3.79963567378737 1.21670052039558 3.33204655575737 
1.84285809545976 3.23623460714792 1.29594391787206 
1.69514316039505 3.47246142756565 1.08325275967309 
2.46227466671877 4.50203003270719 0.3306254824154 
1.58382447399128 2.8549161835079 0.293305591951146 
2.72603536475541 1.23907554900613 0.995897062833073 
2.73549143589583 0.931182274972235 0.98756068717846 
4.68301231025038 4.36965772496748 2.52225830712311 
4.26755625686511 4.07954065063767 2.32651232572856 
4.04119695689026 4.11997324279342 2.60299311677458 
1.34442542712233 1.98800218701849 1.66741298724038 
1.48087103041612 1.95235456414046 1.43798988580726 
2.39863023995045 1.49570794909812 1.70276696525941 
2.98367719293856 1.73517728330479 1.57047183369111 
4.24481976089067 3.36740021249354 4.4978886928591 
3.92143941654022 3.32233675045362 4.82097123818342 
0.680940799089458 1.04054849203025 3.59024028279648 
0.604741021008563 0.707756140124447 3.59974058109197 
2.01794961849971 2.18695130445061 4.4575466627659 
2.10254857520019 3.62661266933695 5.53063085507095 
3.63322162485239 3.09546275304313 1.20097884711199 
3.57622099117116 3.18435400965227 1.02391735199677 
3.36640611129117 5.37502129662195 4.36902019480411 
3.65912145022468 5.08648973539796 4.67027753271909 
2.84762553239998 3.29261689459268 2.08749139238091 
1.4909118151611 2.82579809759105 0.711411412144255 
1.60874095091391 2.73164800668382 0.394200478585164 
4.01126671615428 3.23053158322069 4.1242534105809 
0.847299845937047 1.02201180530007 3.40951805500092 
0.846028118955499 0.726844523086294 3.35022989046852 
1.43666876047902 3.15910191329884 0.473029465503341 
1.40150321722658 3.11971730012554 0.661715045271361 
3.58013752263212 0.5064166723912 5.5738626114308 
3.96524458575827 0.380245782393313 5.50550054529352 
5.96056841380975 4.70040567112157 2.60432190688249 
5.88805343753482 4.96624539460938 2.87201208944162 
2.65497937309593 3.80833580392802 1.70940144156164 
2.52595549890101 3.52430023873601 1.85192051854852 
3.06296355210837 1.41930138650038 2.19055791142537 
3.20064576479572 1.69729574119734 1.79089719158173 
2.39484099752976 4.60333184993501 1.08325427084667 
1.49276289557084 3.84233389157533 5.25198086248388 
1.74079182434595 3.94740807891113 5.56039851543349 
1.55478457459904 0.832910503584226 2.24874735953138 
3.12813602627911 3.83507882338943 1.81073308317411 
3.12168316117587 3.41015908482039 2.05572107236062 
3.32450370426798 0.537350018603024 3.31716778937174 
1.3088494009205 1.83636031374023 4.17883132175659 
1.56754523752191 2.27921047340501 4.51359900431933 
1.73392303056897 4.48122338088822 2.9408343620131 
1.96178320500642 4.34366945750634 2.20152126968754 
3.56507612418321 4.35916783003836 0.53108033404496 
4.0842202036856 4.53937824071455 0.588954257136775 
1.56904117738401 1.55187275890037 3.98759054671139 
2.00648295898302 1.63616091886101 4.09738978182374 
2.54503930403913 4.76537154331631 0.49688747289897 
2.94347600071941 4.87149899764321 0.483018768963367 
3.52581034123123 4.01728096306524 0.55921681923685 
0.198730715785385 4.73888727457037 5.00176299766612 
4.73438239319855 1.28322199884618 2.47963530213074 
4.88562665739559 1.23531444583593 2.10458364178845 
3.3733309708746 5.56962658529415 4.76148228048385 
3.57499214606467 5.32939109546054 4.93827867529021 
3.39882167758846 3.41700862260305 4.10021852354318 
3.34595082492617 3.3668722486064 4.63896898652946 
2.85587745616422 4.26566419049968 0.0599908967962312 
1.05963049294418 1.03876640786461 2.12596220419846 
0.997169482675971 0.901224251541229 1.69362715894467 
3.68343573234857 3.15009456775164 4.21449021647574 
3.61107513399996 3.15985134163747 4.61128890626565 
3.86548488590398 0.826482293050185 3.29830912433265 
4.04098417568454 0.756849125077718 2.87705027677955 
4.82112763062051 1.41885688263231 2.52980293684747 
5.03512441008136 1.46829527595358 2.2010065177283 
2.27137037192139 0.175467154192021 2.64097547299081 
2.67138185794477 0.265103493141782 2.41240147731031 
2.92084652968882 4.97852920920817 3.86186054046742 
4.35778346572206 4.85496672556743 5.8182646908952 
1.28841793155194 3.78424226180459 2.65275485444103 
1.56913876623039 3.8513293162488 2.1549464838287 
2.58092968726677 3.85364399521833 5.48641039195006 
2.59153700552082 4.25102908068392 5.52447483276843 
2.61017433772962 0.33762874583107 1.84414500898538 
1.95594093877693 0.803990612450254 1.66549648486349 
1.6328557198177 0.661963462531488 1.96421543001534 
2.29634930708381 0.306279028063258 1.73540679708911 
2.21526764049657 0.612798117670054 1.55970550689812 
3.96914444846593 5.69846656885305 2.60359444672733 
3.73717208050326 5.55828791300102 2.96601607930077 
4.50831236172193 3.90093768362076 4.38778685216349 
4.61829834933461 3.88857990490731 4.40215803256683 
5.76508046278117 4.88355919798759 2.32495600094963 
5.67996897814109 5.12295962642581 2.49175928014422 
4.42411375025643 1.19775268100034 4.79850681712291 
4.50653662439482 0.842952462435381 4.65371091032605 
2.27808008638207 4.35625974630464 1.16584096098605 
4.14464414762691 5.58996736821631 5.51899353488032 
4.43544663843624 5.45649394208469 5.52049593848366 
3.09736039531672 5.36066802755535 4.04770387854538 
3.80925111527835 3.72105310006487 5.55580687521551 
3.70044052553827 3.73206069064727 5.08627046578766 
2.69806340993235 0.548558563737819 1.78662116670567 
2.40076966558978 0.754549779538517 1.57186598612112 
0.650860292004572 4.84579995668865 3.50371488459221 
3.92390932697111 0.198146424592784 2.38437166273989 
2.65002695279771 1.29132871661526 2.43763409301688 
2.37285455153312 1.30481175386792 1.93863838335465 
2.71967304591843 1.22100746936319 2.21892516828278 
3.30714161479712 0.282429575664533 2.74509310276116 
3.7384621054672 0.462122466662526 2.5229433625509 
0.118988750803819 4.64381745540482 4.43317382791868 
0.273199322709803 4.70489183020325 4.55273617717148 
3.66591973943569 4.60503414664235 5.79094653824546 
0.957189733245735 4.55013951679873 3.07334207316937 
0.876860809065427 4.55358363295993 3.41173906172528 
2.52480428022196 3.60341131032819 1.15847619840757 
2.6565549804413 3.86269686805199 1.40174766805283 
2.42181849461199 2.37047849836694 2.65295232919046 
1.26368702615743 0.702039141963741 1.60520910705873 
1.44797166511484 0.825723369213472 1.36391349786758 
3.84649891508363 4.22878304230041 5.08170467173514 
3.93233810550309 4.24343376929375 5.4022789349536 
0.779046268298437 4.82677162599922 2.88238060873206 
0.56514824391355 5.05882120556632 3.16329072019533 
2.63313353709024 0.873826529254004 4.02693842446178 
2.4698523984796 4.98892438606226 5.13534525187295 
2.37043569778006 1.42198406074491 2.47371960017255 
2.18379627650715 1.42798441126117 2.23327034424653 
4.05788985676261 0.930588139161065 4.22671147401021 
2.7398486781332 1.24836523175464 3.73410809917413 
2.6974259521582 1.16433434206554 4.00158029033393 
2.48784250030387 2.2462612528987 2.72169871585219 
2.19930713019772 2.06147757043223 3.28753591884071 
3.825264275079 5.30395161712786 5.80052197264042 
4.05917074740366 4.8823941559376 5.93728033214749 
4.79065434631546 2.4703100506393 0.881859508816386 
3.05059104911089 5.32782979816052 5.2047751475055 
3.32294360603031 4.73011880641964 5.28368688584033 
3.35089974607799 5.14766866452327 5.26519099912183 
4.48353647100949 3.10293027456329 0.595179281990465 
4.66541186068382 2.92639190379609 1.01397438178177 
3.4819711036475 4.72681354070653 5.72717552081241 
3.49420322940599 5.15740581864871 5.68650049015883 
3.82596241525533 0.286266862625776 4.36090077916051 
3.73748668783208 0.517487093196866 4.22768094124297 
3.73147333066882 0.364236552952552 3.86943095818473 
4.55477283903554 4.62059009696973 2.86261261295097 
4.2734373173725 4.58014671253437 2.93244004712915 
2.87590992973806 4.92072819815128 4.05656110215948 
1.16854522207051 1.78888494294968 2.85210211114538 
4.30913808154308 4.38856283880029 2.89431522384012 
4.57190883078196 4.45352003745607 2.83213986360163 
2.88941640043366 2.94056392194072 0.783585425066316 
2.8044010820573 3.47461545189224 0.894498837859119 
2.8382671527429 5.46816095689487 4.40769543603626 
3.06659482399219 5.3131726106247 4.19287350320924 
0.897617357055784 1.26429181519876 0.630871109485134 
3.88746068042408 2.25231796133181 4.09385148665412 
3.62438862487633 2.39215201009296 4.16672692853683 
3.89107533177525 2.53383202007069 3.88310333017871 
3.66030831423847 2.61954021099198 3.9881637723114 
1.18439464621021 2.08539232625384 2.950278532769 
0.933400569952695 5.52552825628565 2.87791760983836 
2.33548918679316 5.08737331407056 4.45016168594278 
2.40542668144198 4.83761984159393 4.21171827510699 
2.71653242260804 3.0208459576284 0.261394462955929 
1.38276906807446 1.50703146733049 0.768448221432582 
3.33628190032101 4.73472329989238 0.970917081294184 
3.20549453257005 4.64150598488963 1.20269723355359 
4.00905232771827 3.5342302276683 0.404636301442183 
4.425275730469 3.7079621644942 0.40726460532673 
1.25536412684255 5.72044843408647 3.01051435529736 
3.14739725616099 4.88580282507688 0.91860352249835 
3.00947753959177 4.7928659869031 1.15359692696093 
5.75101490103155 4.90798810132128 3.19426714236395 
1.22588419384606 1.23570537181617 0.787000376915439 
1.39226703574832 0.938423222555828 0.579850609042357 
2.65550425480702 3.60407775545902 0.545809148134584 
2.60404762110643 3.36508744319416 0.23467379221383 
4.19772784662426 0.987659898643975 3.75830400940239 
4.05499846995927 0.717722285836528 3.52356258563499 
3.96481521759169 1.16206718181781 0.596548189944656 
3.8290434132497 3.80424698423236 0.657415236899823 
4.18360687670066 4.02563762632535 0.700426848798672 
5.32705405340071 4.17827969486123 3.39578094243807 
5.65054550615774 4.21546865881583 3.2983638803972 
2.95304528033491 3.908791678515 0.161360077551035 
3.89420575569095 1.43741044884383 0.326022425446529 
1.94101846671518 4.02848261225545 0.818452937414546 
1.96885508049112 3.7668177830589 0.822213285223065 
4.52300183014025 0.229240852933008 1.27531340694537 
4.62842381318271 5.90343892902437 1.26740671954462 
2.16180909260326 4.078345262119 0.84064933595298 
2.24322863126311 3.80689483787323 0.850785296707273 
0.883280477013619 1.75769134712244 2.8243234065312 
4.2844530133812 5.90268713131684 1.09311717914139 
4.25332975825949 0.155280905075624 1.12297478909133 
4.43613041315969 0.489117670177512 3.30001658014432 
4.16945558549948 2.10375343650066 1.23953855071844 
4.14913541043886 1.52061413070966 1.32316215162493 
0.635571978048515 1.42014501512778 2.99795505544226 
3.84832880569883 1.33264971343524 0.823870000660055 
4.78059841990576 1.21530455815376 1.12936452648777 
5.08941938991685 2.01523514955131 5.3803571333395 
5.23540416279575 1.97485461093882 5.1093170200156 
5.20108522403389 1.7052084798774 5.13474595423742 
5.04966108188442 1.74319577677227 5.42200197192188 
3.7682212469658 1.63403666210335 0.523105989945344 
3.90304929333861 2.008064187231 0.593812720379177 
4.28598577803432 2.45252620106771 0.139238779416415 
4.28436755635495 2.1357135257853 0.349985041449935 
3.39786730475396 1.82984317680761 0.426284617847894 
3.54629510014824 2.20193710309903 0.508254818911614 
4.49182322414591 0.734462196980021 0.572549616029703 
4.40233459609044 1.07050793658765 0.588222088654633 
4.62498126725082 2.66404171084336 0.330807545013931 
4.74945986672644 2.39955049102674 0.6098476774834 
0.863279642535946 0.159057573674511 4.03169658761521 
5.04592306449932 1.00478110755138 3.55909654649488 
4.87917187622901 0.818355214550334 3.64027898032425 
4.84322093050947 0.587909507098663 3.41027601005365 
1.26778832972947 0.174113977721928 3.67676738411782 
1.28052772517028 5.77348935750604 3.50832695552363 
3.01069065960619 1.54916677957089 2.47453173864198 
3.39184871197506 1.5880891481279 2.97857711344524 
0.974994564194685 5.13676131080234 3.93992525709811 
5.17191496712511 0.936846048636862 3.20845800706632 
5.06999993285836 0.736127106281441 3.12417581201862 
4.07886582017968 1.31984142561123 3.70689563415499 
3.95359157763719 1.44558120075873 3.95284494809728 
0.938349166367326 5.58047844704901 3.66090276879958 
4.19864602140275 1.48436393358922 3.67152761813642 
4.06964453320019 1.62004499874593 3.96119933378304 
2.66394247414111 2.33110983856748 2.71842121074148 
3.0577888483065 2.32754633944047 3.1557915591409 
0.330679863153539 4.9628972196708 4.35740694541416 
0.380018623700712 5.46506288949391 4.49387451450237 
3.33653650187814 2.12357851964393 2.90196870366481 
3.08541066629348 2.10562282741537 2.55461564663212 
4.53055688457748 2.408755404389 5.47369797712003 
4.44975198125075 2.48238850825768 5.33815442931636 
4.29739275136313 2.42727042485468 5.39278172393162 
4.39582943911987 2.35078064232273 5.53420119363821 
0.738612423799914 5.55612098686665 4.35225885807858 
0.903844320029334 5.1414010890529 4.14486962097283 
5.41166108374043 5.0541211296727 3.31374592098777 
5.11408607374542 4.80151575999262 3.43339564312113 
4.86023284010513 4.92501989250557 3.24636771209068 
5.07972992579223 5.2235022805184 3.05416306645876 
1.37806343107796 4.07005794929513 4.0450518928513 
1.21835619364322 3.84381320810797 3.99562383568489 
1.20265594450975 3.8132804568934 4.15963254425973 
1.3411447521594 4.00975981427267 4.24406648358242 
4.85562919773634 0.654974321394134 1.04187914340889 
4.91925741750757 0.902255642597104 1.2333873329725 
5.87006201588259 2.98690488719905 4.10638574657263 
0.0973492307591353 3.08828095680455 4.08049774904534 
0.411908740165639 2.81073914252862 4.23478514608968 
5.89236105295254 2.41355112774051 4.3730912257143 
0.161472147150866 2.34253239684038 4.42034368437557 
0.222735543582125 1.74178288393049 3.40750135366 
0.219096876220711 1.64978726889403 3.62375743814292 
0.238340429764983 1.42988004676696 3.46791811256203 
0.240451626978839 1.52196968687999 3.31290212245174 
1.81883162145516 4.6149389703399 3.18254592758167 
2.03575870418593 4.97374047951958 3.359179992634 
1.72974412665926 4.60379401034498 3.63273435344138 
1.91521157085502 4.88899996809553 3.70885977498566 
0.668954551270986 2.22605935250267 3.21926624303453 
0.863504655717928 2.13240049473225 2.9570156769917 
0.681502098475229 2.48192952506224 2.80425281139211 
0.544859754439211 2.49901520255961 3.08364598095351 
1.0941125764658 2.68534911533892 3.82062986280959 
1.35411159295354 2.89166929456221 4.26109058580304 
2.17349164698299 2.8358856102465 4.04452367939062 
1.46538839870897 3.01838054088039 4.19666105240606 
2.00048548495923 3.33260887996484 5.15900150562493 
1.74944204751509 3.49325417149151 4.62488300337579 
1.6927304220138 3.41999119066745 5.00835262224049 
1.989440911879 1.01769985188545 4.62314232173503 
2.06807538892952 1.0976127757096 4.34844369669615 
1.72333565199597 0.966992289880176 4.47370217301847 
1.8009572930932 1.03060730056117 4.26690595953654 
5.40231169345094 3.84633710669814 2.92924113801668 
5.38308087712636 3.44589699437922 2.97023579681264 
2.45788690340011 0.992352203120246 0.406563401866486 
1.86178195398689 1.49312547831208 0.392059866374385 
1.86075096115161 1.18607980132595 0.290195187210374 
2.41744863573267 1.9474151290844 0.432522297101954 
2.78141593803091 1.68458419453573 0.42340685737342 
2.23431015987701 1.62044087228757 0.60164191319252 
2.55216923732371 1.38972256220896 0.591031720360656 
5.37557903092933 2.80357281103259 2.38946031893238 
5.16278042033267 3.2618153157189 2.66022562358059 
4.84625152416472 2.32419504658965 3.0486623431997 
4.77668415170194 3.01826773200288 2.81329689908176 
4.89638487723632 2.62192342670834 2.66357530249614 
4.33778438363888 3.15340409909286 3.22998135847791 
4.27962605344029 2.77969861918353 3.47010738528919 
4.70059662056407 2.71172162584224 3.33200789153808 
4.71529841412458 3.03326328947171 3.14561544036813 
5.7888643190211 4.08553988442318 2.65376619819336 
5.68305521355672 3.94602515913178 2.93636803809094 
4.89915169956609 4.54438756148197 1.24495529894543 
4.45855413163839 4.50699601726516 1.22173976570452 
4.72201128504789 4.00871324022987 1.19799756723578 
4.42602898507168 4.11990870543503 1.18586721809745 
3.4101935952521 4.28568436958426 2.08687160816587 
3.31707637076849 4.6100299416914 2.20509993187931 
3.55302385170455 4.25758578607738 2.45418954248209 
3.46176985185234 4.59420923801698 2.51835384765704 
2.25004818485177 3.45928551264189 4.5520937514593 
2.37637716519652 3.39189609439555 4.79313187615641 
2.40741769366983 3.24840014982898 4.38214450068606 
2.53900566383339 3.19845055939875 4.71069164772384 
1.61177551925883 3.41721708060618 3.34738497874284 
1.35650281737593 3.34282588344239 3.57238271502508 
1.42545077144972 3.03076728308471 3.75204861405571 
1.94274588100036 3.05726517461315 2.99064347757143 
1.90547661091087 2.61857514033921 2.89940676770282 
1.82370621442143 2.45738952410242 3.18418459687599 
1.8879467800611 3.17420262334701 3.3298573464152 
1.81774647197401 2.93558723874909 3.53955043852874 
2.54941106530274 5.5343059283387 3.15696707715399 
2.30698464210014 5.73874827283058 2.80210941446575 
2.30892304880432 5.66434536055969 3.11891787927387 
2.74382479457319 5.51529479872437 2.86013030060839 
2.65555591547687 5.58337879156569 2.6988244465368 
POLYGONS 954 5837
5 0 3 6 254 460 
6 0 2 531 549 5 3 
4 0 2 332 460 
5 1 7 498 9 8 
4 6 7 1 254 
6 8 1 254 460 332 315 
6 314 315 332 2 531 502 
5 4 314 502 573 948 
5 5 549 573 948 951 
5 4 9 498 951 948 
6 5 3 6 7 498 951 
5 9 8 315 314 4 
5 10 11 257 368 361 
5 361 368 547 774 773 
5 12 278 363 758 879 
5 257 265 830 547 368 
5 11 257 265 813 793 
4 13 375 751 588 
5 14 20 22 23 21 
5 14 24 736 17 20 
5 21 14 24 16 842 
6 15 19 18 893 721 722 
6 15 19 759 736 17 663 
4 662 663 15 722 
5 16 24 736 759 599 
5 16 599 429 887 842 
6 23 21 842 887 893 721 
5 20 22 662 663 17 
5 22 23 721 722 662 
4 18 429 887 893 
5 19 18 429 599 759 
5 27 413 781 565 566 
5 25 30 32 769 28 
4 25 29 26 30 
5 28 25 29 565 566 
5 30 32 1016 1019 26 
6 27 31 791 769 28 566 
6 33 35 325 258 884 888 
5 35 269 34 485 325 
5 34 485 496 476 780 
6 36 37 42 41 710 709 
6 23 354 386 36 709 721 
4 37 38 43 42 
5 36 37 38 387 386 
5 350 351 22 662 914 
5 40 39 350 914 910 
6 40 39 974 387 38 43 
5 350 351 975 974 39 
6 41 710 722 662 914 910 
5 22 23 354 975 351 
5 42 41 910 40 43 
5 44 386 354 746 740 
4 36 285 44 386 
5 642 643 740 746 436 
5 23 21 436 746 354 
5 21 436 642 854 842 
6 285 286 649 643 740 44 
5 709 721 893 956 955 
6 285 286 954 955 709 36 
5 286 649 961 953 954 
4 514 612 481 825 
6 47 514 825 824 926 927 
6 46 45 47 927 930 917 
5 45 47 514 612 822 
5 46 45 822 450 449 
5 448 658 480 819 798 
6 448 449 46 917 916 798 
6 480 481 612 822 450 658 
4 48 49 38 43 
4 52 50 422 416 
7 51 53 37 38 49 691 690 
5 347 528 505 939 877 
5 54 366 528 505 504 
5 56 55 803 575 576 
5 57 347 528 366 673 
5 59 58 313 362 458 
4 61 63 963 632 
4 60 293 441 442 
6 65 16 842 854 60 293 
6 65 293 441 64 686 703 
6 66 62 61 632 430 324 
6 62 61 63 442 441 64 
5 65 16 599 607 703 
6 63 442 60 854 962 963 
4 66 62 64 686 
5 66 324 607 703 686 
6 68 73 74 67 398 713 
5 72 284 604 398 713 
5 75 70 270 508 603 
5 67 75 603 604 398 
5 69 71 509 482 291 
5 68 73 483 482 291 
4 74 67 75 70 
5 72 69 291 68 713 
4 72 69 71 284 
5 74 70 270 483 73 
6 71 284 604 603 508 509 
5 482 483 270 508 509 
5 77 79 877 347 530 
5 877 878 995 976 79 
4 78 55 56 647 
6 57 347 530 502 573 574 
5 76 77 530 502 314 
5 77 79 976 977 76 
6 78 633 949 666 648 647 
6 251 252 80 724 718 623 
5 81 80 724 723 628 
6 251 391 415 283 622 623 
5 696 748 733 788 885 
5 82 316 617 618 881 
5 82 85 788 885 881 
6 83 85 82 316 446 447 
6 83 447 84 671 748 733 
4 83 85 788 733 
5 86 93 88 91 89 
5 86 90 83 85 93 
5 89 86 90 307 96 
6 82 85 93 88 87 94 
5 90 83 447 376 307 
5 95 316 446 581 614 
5 446 447 376 590 581 
6 92 87 94 95 614 615 
6 89 96 589 615 92 91 
4 94 95 316 82 
4 92 87 88 91 
5 96 307 376 590 589 
5 97 47 45 471 418 
5 97 47 514 515 329 
5 101 329 97 418 419 
5 101 100 711 515 329 
5 99 100 101 419 290 
5 98 99 290 472 823 
5 471 472 823 822 45 
5 612 747 98 823 822 
5 99 100 711 747 98 
4 102 258 884 457 
5 103 466 883 946 947 
5 103 466 299 539 606 
5 3 6 105 898 897 
6 593 682 899 898 105 786 
6 6 105 786 445 255 254 
4 107 106 676 675 
5 107 445 786 593 675 
6 106 104 934 935 683 676 
6 0 3 897 896 932 933 
6 682 683 935 932 896 899 
6 106 104 461 255 445 107 
6 460 461 104 934 933 0 
4 31 715 848 791 
5 715 754 438 847 848 
6 108 275 518 544 837 838 
6 634 635 836 837 544 677 
4 95 111 411 614 
6 111 110 109 617 316 95 
5 114 714 112 875 862 
4 112 113 750 875 
6 12 750 113 846 870 879 
6 112 113 846 845 552 714 
5 114 452 453 552 714 
6 115 265 830 831 755 716 
6 559 755 831 835 826 789 
6 322 487 560 770 790 625 
6 399 454 716 755 559 624 
7 322 399 454 524 558 571 487 
5 115 265 813 558 524 
4 115 524 454 716 
6 560 572 814 805 827 770 
6 395 491 767 768 775 778 
6 395 437 777 776 779 778 
5 303 304 768 775 794 
4 116 776 779 795 
7 24 736 777 776 116 799 820 
5 14 20 659 658 480 
6 17 20 659 767 491 384 
6 794 795 116 799 800 303 
5 14 24 820 819 480 
5 17 384 437 777 736 
6 304 448 658 659 767 768 
5 303 304 448 798 800 
5 90 83 733 866 118 
5 500 501 672 749 865 
5 117 118 90 307 308 
6 117 118 866 865 500 264 
6 263 264 117 308 377 119 
5 84 119 377 376 447 
6 84 119 263 501 672 671 
6 121 370 889 358 519 463 
4 120 121 463 462 
5 458 459 33 888 362 
7 61 63 122 684 685 464 465 
5 122 123 688 669 684 
6 63 122 123 644 964 963 
5 123 644 666 648 688 
4 128 124 407 408 
6 125 127 407 124 932 933 
5 128 124 932 896 535 
5 128 408 402 534 535 
5 2 126 125 933 0 
4 2 126 511 531 
6 389 402 534 516 5 549 
4 5 3 897 516 
5 125 127 388 511 126 
6 388 389 402 408 407 127 
4 132 133 130 996 
6 137 383 523 132 996 998 
5 133 130 141 346 345 
7 141 130 996 998 139 138 140 
5 131 140 141 346 135 
5 131 136 280 138 140 
6 135 131 136 129 567 568 
5 132 133 345 522 523 
5 137 134 129 567 383 
5 345 346 135 568 522 
5 137 134 281 139 998 
5 129 136 280 281 134 
4 138 139 281 280 
5 144 142 705 799 820 
7 116 503 143 586 587 812 776 
4 116 503 705 799 
5 16 24 820 144 65 
6 144 142 145 704 703 65 
5 145 142 705 503 143 
5 587 608 760 811 812 
4 145 143 586 704 
5 436 481 825 1013 642 
5 60 854 642 1013 1012 
4 65 144 294 293 
6 144 294 810 824 819 820 
5 293 294 810 1012 60 
5 21 14 480 481 436 
4 151 147 477 563 
5 146 151 563 911 912 
6 150 146 912 872 821 787 
5 150 146 151 147 149 
6 149 147 477 7 6 105 
6 148 1 254 255 925 924 
6 1 7 477 563 911 148 
6 148 911 912 872 921 924 
5 445 681 821 787 786 
5 149 105 786 787 150 
5 255 445 681 922 925 
5 152 153 319 54 504 
4 803 804 928 575 
5 90 118 334 577 86 
6 89 86 577 1020 1017 492 
4 155 154 507 564 
5 157 156 155 564 651 
5 392 579 982 984 698 
6 154 145 143 983 981 507 
5 155 154 145 142 156 
5 143 503 698 984 983 
5 503 698 392 706 705 
5 392 579 651 157 706 
5 157 156 142 705 706 
5 158 352 532 957 959 
6 158 352 1008 1009 943 942 
4 122 641 771 684 
5 122 123 1009 1008 641 
4 665 742 532 957 
6 669 684 771 742 665 806 
6 352 532 742 771 641 1008 
5 688 689 943 1009 123 
5 688 689 807 806 669 
4 158 942 601 959 
5 601 807 689 943 942 
5 677 678 484 725 634 
5 160 602 655 159 664 
5 565 580 34 780 781 
5 262 342 476 496 488 
4 341 348 27 413 
7 341 342 262 941 940 349 348 
5 565 566 317 840 580 
5 486 557 941 940 839 
5 317 349 940 839 840 
6 341 342 476 780 781 413 
6 485 486 839 840 580 34 
5 348 349 317 566 27 
5 163 164 444 765 259 
5 443 444 765 752 385 
5 148 163 259 919 911 
5 763 764 161 890 873 
6 161 540 752 385 616 764 
5 161 540 920 913 890 
6 540 752 765 259 919 920 
5 162 164 163 148 924 
5 693 763 873 872 921 
6 162 499 692 693 921 924 
5 162 164 444 443 499 
5 315 332 598 991 992 
5 314 315 992 993 76 
5 76 77 166 990 993 
6 2 126 707 720 598 332 
5 165 679 782 707 720 
5 126 511 783 782 707 
6 165 166 77 530 680 679 
6 165 166 990 991 598 720 
6 13 375 380 261 512 513 
5 157 67 398 652 651 
5 68 167 112 714 713 
5 167 112 113 272 406 
6 168 427 730 729 809 808 
5 73 74 328 717 738 
5 272 406 737 729 809 
6 68 167 406 737 738 73 
6 74 67 157 156 428 328 
6 168 155 564 845 846 808 
5 113 272 809 808 846 
5 156 155 168 427 428 
4 170 253 899 682 
6 173 172 169 320 249 423 
6 150 149 416 422 423 173 
5 169 320 170 682 593 
5 172 169 593 786 787 
5 171 249 320 170 253 
6 50 171 253 899 898 52 
5 50 171 249 423 422 
5 149 105 898 52 416 
4 173 172 787 150 
6 174 175 177 327 326 178 
5 174 176 277 179 175 
5 179 175 177 594 542 
5 179 277 439 493 542 
6 288 289 331 753 766 309 
6 180 444 765 766 309 494 
6 330 385 443 508 603 510 
5 443 444 180 509 508 
4 180 494 71 509 
5 330 331 753 752 385 
5 330 331 289 892 510 
4 284 405 891 604 
6 71 284 405 288 309 494 
6 305 306 182 336 991 990 
4 336 852 598 991 
4 181 184 756 521 
6 182 336 852 853 374 425 
6 183 184 181 379 250 323 
6 378 379 181 521 520 426 
5 182 306 378 426 425 
6 183 184 756 761 720 165 
4 183 165 166 323 
5 250 305 990 166 323 
5 305 306 378 379 250 
6 839 844 79 877 939 940 
6 469 505 528 680 679 525 
5 349 469 505 939 940 
6 77 166 323 843 844 79 
5 183 165 679 525 318 
5 317 318 525 469 349 
6 317 318 183 323 843 840 
6 152 400 470 469 505 504 
5 186 185 420 545 359 
5 107 106 420 185 296 
5 186 185 296 678 654 
5 107 296 678 484 675 
5 312 958 32 1016 1018 
5 187 312 958 960 394 
6 32 769 841 857 960 958 
5 394 629 856 857 960 
5 11 757 762 708 793 
5 553 554 792 793 708 
6 191 360 553 708 762 626 
4 371 421 191 626 
5 188 189 546 421 371 
6 188 190 757 762 626 371 
4 10 11 757 190 
5 172 169 726 636 300 
6 555 616 692 917 916 731 
5 303 304 801 802 455 
5 455 555 616 764 802 
5 448 449 739 801 304 
4 692 693 46 917 
5 303 455 555 731 800 
5 46 449 739 763 693 
4 731 800 798 916 
5 97 47 927 425 374 
6 192 298 426 520 668 667 
6 514 515 967 1015 1013 825 
6 97 329 627 668 520 374 
4 329 515 967 627 
6 192 298 435 810 1012 1011 
4 192 667 1014 1011 
6 286 381 952 950 645 649 
5 193 490 895 907 569 
5 158 279 591 945 942 
6 943 944 311 968 1010 1009 
5 944 945 591 970 311 
5 194 279 591 970 1004 
5 352 364 667 1014 1008 
5 194 365 282 1006 1004 
4 282 668 627 1006 
7 627 967 968 311 970 1004 1006 
6 158 279 194 365 364 352 
6 195 276 849 868 587 608 
5 587 812 333 869 868 
6 44 175 177 256 382 285 
5 36 37 53 382 285 
5 49 38 387 197 337 
4 177 256 196 327 
5 196 51 53 382 256 
5 196 51 690 326 327 
4 49 337 321 691 
6 197 174 175 44 386 387 
5 178 174 197 337 321 
5 178 321 691 690 326 
6 746 747 98 973 975 354 
5 99 100 620 273 199 
6 179 277 620 100 711 741 
6 98 99 199 200 972 973 
6 197 339 200 972 974 387 
5 179 175 44 740 741 
5 198 176 277 620 273 
5 198 176 174 197 339 
5 200 199 273 198 339 
6 162 164 987 992 991 336 
4 163 164 987 201 
5 163 201 8 1 148 
5 8 201 987 992 315 
4 255 461 850 925 
6 162 336 852 850 925 924 
5 20 22 351 403 659 
5 187 312 473 864 915 
5 312 473 492 1017 1018 
5 287 431 610 611 584 
6 202 268 595 543 311 944 
4 204 203 424 585 
6 202 204 585 584 611 268 
5 203 424 592 591 945 
5 204 203 945 944 202 
6 584 585 424 592 734 287 
5 127 205 206 207 388 
5 125 127 205 554 553 
5 126 125 553 708 707 
6 205 206 572 814 792 554 
5 206 207 367 571 572 
5 367 571 558 782 783 
5 207 367 783 511 388 
6 707 708 793 813 558 782 
6 211 129 134 833 828 209 
5 208 137 134 833 832 
4 209 210 909 828 
5 337 338 340 339 197 
5 396 541 622 859 979 
5 283 622 859 868 849 
4 399 400 470 454 
4 635 636 300 836 
7 27 31 715 716 454 470 348 
5 497 674 699 795 779 
5 120 462 699 795 794 
6 88 91 353 665 742 743 
5 91 92 478 451 353 
5 353 451 815 806 665 
5 669 670 212 815 806 
6 92 87 550 295 479 478 
5 212 479 295 685 670 
5 478 479 212 815 451 
5 87 88 743 772 550 
5 125 553 360 934 933 
5 114 832 208 863 862 
5 114 452 902 908 832 
5 305 306 483 482 213 
6 306 378 597 738 73 483 
5 291 292 343 213 482 
6 214 536 1000 1002 702 701 
5 214 215 292 343 701 
6 250 305 213 343 701 702 
5 250 379 596 1002 702 
6 596 597 738 737 1000 1002 
5 167 215 214 536 406 
5 68 167 215 292 291 
5 216 344 986 977 976 
4 219 468 495 985 
6 138 280 495 985 986 344 
5 217 136 280 495 468 
5 216 218 994 995 976 
5 140 138 344 216 218 
5 333 497 779 776 812 
6 133 102 258 325 266 130 
6 220 267 486 557 785 784 
5 141 220 267 266 130 
5 401 510 603 75 732 
6 75 70 931 916 731 732 
5 330 385 616 555 556 
4 401 510 330 556 
5 270 271 930 931 70 
5 271 499 692 917 930 
5 270 271 499 443 508 
5 343 344 986 988 213 
5 216 700 844 79 976 
5 76 977 986 988 993 
5 213 305 990 993 988 
5 343 344 216 700 701 
6 191 104 461 850 851 626 
4 191 104 934 360 
5 417 474 743 772 638 
5 637 641 1008 1014 1011 
6 192 221 417 638 637 1011 
5 221 417 474 533 529 
5 192 221 529 364 667 
5 532 533 474 743 742 
5 301 609 639 697 723 
6 432 507 564 845 858 640 
5 639 640 432 719 697 
5 694 695 724 718 222 
5 723 724 695 882 301 
4 808 846 870 886 
6 222 154 507 432 719 718 
6 694 695 882 886 808 168 
5 168 155 154 222 694 
6 301 609 871 870 886 882 
5 268 595 950 949 633 
6 177 256 952 950 595 594 
6 34 269 335 1001 1003 580 
5 29 26 578 1001 1003 
4 29 565 580 1003 
5 577 578 26 1019 1020 
5 334 335 1001 578 577 
5 154 145 704 687 222 
6 64 630 694 222 687 686 
4 64 441 223 630 
5 156 142 144 294 428 
5 168 427 223 630 694 
6 293 294 428 427 223 441 
5 152 153 322 399 400 
5 754 755 831 829 438 
6 517 600 774 773 712 735 
5 301 302 618 881 882 
4 141 140 218 220 
6 225 224 412 526 479 295 
5 225 295 685 464 372 
5 220 218 994 727 784 
6 54 319 487 571 367 366 
4 153 319 487 322 
5 524 525 679 782 558 
4 121 370 467 456 
6 120 121 456 455 303 794 
5 455 456 467 797 802 
5 111 226 224 412 411 
4 111 110 227 226 
4 643 649 645 965 
5 63 122 641 637 442 
5 60 442 637 1011 1012 
6 642 643 965 1010 1015 1013 
6 644 645 965 1010 1009 123 
5 35 325 266 613 538 
6 58 132 133 102 457 313 
5 130 266 613 997 996 
5 228 59 458 459 537 
5 33 35 538 537 459 
5 537 538 613 997 228 
6 58 132 996 997 228 59 
5 313 362 888 884 457 
6 543 595 950 645 965 966 
6 202 78 647 689 943 944 
4 202 78 633 268 
4 311 543 966 968 
5 439 440 969 971 493 
5 301 302 229 628 723 
5 228 537 860 744 745 
6 278 363 749 865 860 744 
7 11 257 433 356 184 756 757 
4 183 184 356 318 
6 318 356 433 115 524 525 
4 257 265 115 433 
5 40 231 230 48 43 
4 12 278 744 750 
5 72 69 281 134 833 
6 69 71 494 495 280 281 
5 232 288 309 310 390 
5 232 209 828 405 288 
5 233 211 209 232 390 
5 233 211 129 136 217 
5 233 217 468 310 390 
5 72 284 405 828 833 
5 234 536 214 613 538 
6 266 267 700 701 214 613 
5 267 486 839 844 700 
5 234 335 1001 1000 536 
5 35 269 335 234 538 
4 623 687 222 718 
5 80 236 235 237 252 
5 80 236 653 695 724 
4 236 235 631 653 
6 62 64 630 631 235 237 
5 66 251 623 687 686 
5 62 237 252 251 66 
5 108 739 763 873 838 
6 108 275 404 450 449 739 
6 297 472 823 817 518 544 
4 275 404 817 518 
5 404 450 822 823 817 
5 297 544 837 821 681 
5 471 472 297 681 922 
6 46 45 471 922 921 693 
5 57 574 274 619 673 
6 78 55 803 804 204 202 
5 204 585 588 751 804 
5 366 367 207 619 673 
6 239 424 585 588 13 513 
6 204 203 238 937 928 804 
6 561 562 355 936 937 238 
4 261 355 562 512 
5 203 238 561 239 424 
5 512 513 239 561 562 
5 86 93 475 578 577 
6 733 788 809 272 861 866 
5 272 406 536 234 861 
6 475 578 1001 1000 737 729 
6 85 93 475 729 809 788 
6 334 335 234 861 866 118 
5 542 543 966 741 179 
5 740 741 966 965 643 
5 358 889 883 946 906 
4 239 240 592 424 
6 238 414 394 629 661 561 
6 239 240 410 660 661 561 
6 409 410 240 592 591 279 
6 203 238 414 601 942 945 
6 158 279 409 857 960 959 
6 518 657 602 972 973 817 
6 403 404 817 973 975 351 
6 39 241 160 602 972 974 
6 195 605 650 324 607 608 
5 236 235 225 224 226 
5 226 236 80 81 227 
5 235 237 373 372 225 
5 396 397 432 719 541 
6 169 593 675 484 725 726 
6 172 300 836 837 821 787 
5 296 297 681 445 107 
6 227 81 628 229 109 110 
6 418 471 922 925 850 851 
5 182 271 930 927 425 
5 182 271 499 162 336 
5 97 374 853 851 418 
5 339 340 159 655 200 
6 48 49 337 338 646 230 
5 338 340 159 664 646 
6 241 160 664 646 230 231 
4 40 231 241 39 
4 200 655 602 972 
5 283 415 506 276 849 
5 391 415 506 605 650 
5 66 251 391 650 324 
4 195 276 506 605 
5 244 243 242 260 551 
5 62 61 465 373 237 
5 235 225 295 550 631 
6 630 631 550 772 638 223 
5 441 442 637 638 223 
6 26 30 533 474 475 578 
5 91 89 492 473 353 
5 93 88 743 474 475 
6 30 32 958 957 532 533 
5 240 410 548 600 517 
4 547 548 600 774 
4 194 279 409 369 
5 712 773 361 1005 969 
6 368 369 194 1004 1005 361 
5 240 517 735 734 592 
5 388 389 274 619 207 
5 216 218 220 267 700 
5 214 215 999 997 613 
5 139 292 215 999 998 
5 138 139 292 343 344 
5 161 489 797 802 764 
7 433 434 841 848 715 716 115 
5 369 409 857 841 434 
6 660 818 829 438 847 856 
4 410 548 818 660 
6 213 482 509 180 989 988 
5 164 444 180 989 987 
5 270 271 182 306 483 
5 181 245 365 282 521 
7 282 521 756 757 190 1007 1006 
6 245 357 434 369 194 365 
5 190 10 361 1005 1007 
5 181 184 356 357 245 
5 94 87 550 631 653 
6 82 94 653 695 882 881 
5 223 427 730 417 638 
6 575 576 796 918 937 928 
5 656 816 796 918 923 
5 392 393 401 732 706 
6 398 604 891 901 905 652 
5 393 401 510 892 894 
6 392 393 894 900 904 579 
5 157 67 75 732 706 
6 56 576 796 807 689 647 
6 727 728 867 878 995 994 
6 185 290 419 371 421 420 
5 185 290 472 297 296 
5 191 104 106 420 421 
5 143 586 859 979 983 
4 397 432 507 981 
5 246 245 181 379 596 
6 25 29 1003 1002 596 246 
6 317 318 356 357 28 566 
5 25 246 245 357 28 
6 187 394 414 918 923 915 
5 537 538 234 861 860 
6 393 401 556 456 121 463 
5 116 503 698 699 795 
6 210 193 569 570 903 909 
6 247 221 529 246 596 597 
5 25 30 533 529 246 
4 247 597 738 717 
5 247 221 417 730 717 
5 188 248 621 582 189 
4 188 190 1007 248 
6 440 621 248 1007 1005 969 
5 139 281 69 291 292 
5 494 495 985 989 180 
5 28 357 434 841 769 
5 393 463 519 874 894 
5 201 242 260 259 163 
4 92 478 527 615 
5 288 289 895 490 232 
4 103 331 753 606 
5 103 331 289 895 947 
5 309 310 244 551 766 
4 520 521 282 668 
6 248 101 329 627 1006 1007 
5 248 101 419 371 188 
5 101 100 620 621 248 
5 99 199 186 185 290 
5 199 186 359 583 273 
6 545 546 189 582 583 359 
4 238 414 918 937 
5 200 199 186 654 655 
4 817 823 98 973 
5 210 193 490 232 209 
5 246 245 365 364 529 
5 569 570 880 874 907 
6 74 70 931 926 435 328 
5 328 428 294 810 435 
5 219 243 244 310 468 
7 330 331 103 466 467 456 556 
5 161 489 299 539 540 
5 436 481 612 747 746 
5 247 298 435 328 717 
5 247 298 426 378 597 
5 748 749 363 758 696 
6 289 892 894 874 907 895 
6 515 711 741 966 968 967 
6 167 215 999 876 875 112 
6 113 272 861 860 744 750 
5 228 745 876 999 997 
7 219 243 242 201 987 989 985 
5 109 229 302 618 617 
6 208 137 998 999 876 863 
6 452 453 905 901 903 902 
6 713 714 114 832 833 72 
6 405 828 909 903 901 891 
4 453 552 652 905 
5 570 880 900 901 903 
6 226 236 653 94 95 111 
4 247 221 192 298 
5 429 430 324 607 599 
5 364 365 282 668 667 
4 250 323 843 702 
5 396 397 981 983 979 
4 254 255 461 460 
4 381 382 256 952 
5 368 369 434 433 257 
5 644 645 649 961 964 
6 502 530 680 783 511 531 
5 259 260 551 766 765 
5 261 355 936 929 380 
4 262 488 557 941 
5 431 493 542 594 610 
4 263 264 500 501 
5 414 601 807 796 918 
6 813 814 805 834 830 265 
5 266 267 486 485 325 
5 594 595 268 611 610 
4 425 426 520 374 
6 368 369 409 410 548 547 
5 656 855 864 915 923 
5 358 519 874 907 906 
6 520 521 756 761 853 374 
5 582 583 273 620 621 
5 274 389 549 573 574 
5 815 816 656 855 451 
5 409 410 660 856 857 
5 439 440 621 620 277 
4 285 286 381 382 
5 287 431 493 971 734 
5 288 289 892 891 405 
5 418 419 290 472 471 
6 295 550 772 771 684 685 
5 296 297 544 677 678 
6 425 426 298 435 926 927 
5 466 467 797 489 299 
4 307 308 377 376 
5 309 310 468 495 494 
6 542 543 311 970 971 493 
6 312 473 353 665 957 958 
6 392 393 463 462 699 698 
4 322 399 624 625 
4 395 437 384 491 
5 394 414 601 959 960 
5 427 428 328 717 730 
6 460 461 850 852 598 332 
6 333 497 674 978 980 869 
6 429 430 632 963 962 887 
6 622 623 687 704 586 859 
4 347 528 680 530 
5 352 364 529 533 532 
4 348 349 469 470 
5 386 387 974 975 354 
5 485 486 557 488 496 
5 353 451 855 864 473 
4 356 357 434 433 
5 552 652 398 713 714 
5 366 367 783 680 528 
5 466 467 370 889 883 
6 411 412 526 527 615 614 
5 418 419 371 626 851 
5 651 652 552 845 564 
4 372 373 465 464 
6 375 380 929 928 804 751 
5 385 443 499 692 616 
4 378 379 596 597 
5 522 523 383 567 568 
4 448 449 450 658 
5 388 389 549 531 511 
5 555 556 401 732 731 
5 403 404 450 658 659 
4 406 536 1000 737 
5 474 475 729 730 417 
4 420 421 546 545 
4 435 810 824 926 
4 487 560 572 571 
6 798 819 824 926 931 916 
5 469 470 454 524 525 
4 455 456 556 555 
6 586 587 608 607 703 704 
4 478 479 526 527 
5 480 481 825 824 819 
4 502 531 549 573 
6 507 564 651 579 982 981 
5 603 604 891 892 510 
6 580 840 843 702 1002 1003 
5 514 515 711 747 612 
5 534 535 896 897 516 
4 518 544 677 657 
5 539 540 752 753 606 
5 622 623 718 719 541 
4 542 543 595 594 
6 547 548 818 829 831 830 
6 557 785 728 867 938 941 
5 571 572 814 813 558 
5 624 625 790 789 559 
5 651 652 905 904 579 
5 589 590 581 614 615 
4 586 587 868 859 
6 806 807 601 959 957 665 
5 591 592 734 971 970 
5 675 676 683 682 593 
5 598 720 761 853 852 
5 607 608 760 759 599 
6 654 655 602 657 677 678 
5 639 640 858 871 609 
4 660 661 629 856 
5 692 693 763 764 616 
5 761 762 626 851 853 
6 667 668 627 967 1015 1014 
5 630 631 653 695 694 
5 635 636 726 725 634 
5 637 638 772 771 641 
5 681 821 872 921 922 
6 642 643 649 961 962 854 
5 644 645 950 949 666 
4 647 648 688 689 
4 669 670 685 684 
4 671 672 749 748 
5 698 699 674 978 984 
5 734 735 712 969 971 
4 679 680 783 782 
4 686 687 704 703 
6 696 758 879 870 886 885 
5 718 719 697 723 724 
5 701 702 843 844 700 
6 705 706 732 731 800 799 
5 707 708 762 761 720 
4 709 710 722 721 
5 740 741 711 747 746 
4 715 716 755 754 
5 729 730 717 738 737 
4 727 728 785 784 
5 748 749 865 866 733 
5 759 760 811 777 736 
5 763 764 802 801 739 
4 742 743 772 771 
5 744 745 876 875 750 
4 752 753 766 765 
4 756 757 762 761 
4 769 791 848 841 
5 789 790 770 827 826 
5 778 779 795 794 775 
4 776 777 811 812 
5 808 809 788 885 886 
4 792 793 813 814 
5 806 807 796 816 815 
5 799 800 798 819 820 
5 826 827 805 834 835 
5 824 825 1013 1012 810 
5 837 838 873 872 821 
5 832 833 828 909 908 
4 830 831 835 834 
4 839 840 843 844 
5 847 848 841 857 856 
4 842 854 962 887 
5 845 846 870 871 858 
4 850 851 853 852 
5 868 869 980 979 859 
4 860 861 866 865 
4 862 863 876 875 
5 877 878 867 938 939 
5 872 873 890 913 912 
4 874 880 900 894 
4 881 882 886 885 
6 887 893 956 953 961 962 
5 891 892 894 900 901 
5 906 907 895 947 946 
4 896 897 898 899 
4 900 901 905 904 
4 902 903 909 908 
5 912 913 920 919 911 
4 916 917 930 931 
4 921 922 925 924 
4 926 927 930 931 
4 928 929 936 937 
4 932 933 934 935 
4 938 939 940 941 
4 942 943 944 945 
4 953 954 955 956 
4 957 958 960 959 
4 961 962 963 964 
4 965 966 968 1010 
4 967 968 1010 1015 
5 970 971 969 1005 1004 
4 972 973 975 974 
5 979 980 978 984 983 
4 981 982 984 983 
4 985 986 988 989 
5 988 989 987 992 993 
4 990 991 992 993 
4 996 997 999 998 
4 1000 1001 1003 1002 
4 1004 1005 1007 1006 
5 1008 1009 1010 1015 1014 
5 1012 1013 1015 1014 1011 
5 1017 1018 1016 1019 1020 
