# vtk DataFile Version 2.0
polydata
ASCII
DATASET POLYDATA
POINTS 438 double
4.75711048782032 2.39964044710364 4.71947337171672 
5.04457998247825 1.81632211287225 3.93838207343541 
4.80223749689255 2.94729699935203 4.55466658836197 
5.20242997549367 2.21210147056214 3.55188693612083 
3.04252374369283 3.54652450592597 5.09653840819898 
3.34881316607533 3.68328431435473 4.91273004004342 
1.92603286980734 1.1289931906278 2.85000485396229 
1.38600414880982 1.61933998798174 2.35856861419289 
1.5279346221225 1.45809480913204 3.2427441051373 
1.78511438655695 1.22284865508898 2.41506616585908 
2.98584595284803 4.60467260124944 3.12235946610049 
2.86573036707634 4.89390527108995 2.80668169539772 
3.17675089169584 4.65228755206097 3.56189346733255 
3.18415304565794 4.76750138109867 2.86659563058133 
2.73659867515833 4.7493402107892 3.02658936315955 
2.51206814412612 5.04267038899976 3.3191796713193 
4.0477061892285 5.30965551974338 2.37787355044007 
4.09839052695542 5.22871419321569 1.69761537110051 
3.15916031192526 1.53646336148364 3.65645706909987 
3.32857116269856 1.34861612340292 3.35143204199361 
2.92114569641623 2.13597714194873 3.51049009176622 
1.58449155935658 2.56209954908168 2.56710783625889 
0.92386621205934 2.85806676290602 2.58077093165948 
1.2970220124143 2.79572622374127 1.9137596069579 
1.6215760382714 1.98099095227362 2.08183537892623 
3.11809364475138 2.50083198576532 1.56549830282222 
3.62169669853258 3.3785203241442 1.53901068437884 
4.4705471813767 2.92135080904578 1.50132497718274 
3.30595687860368 2.33197435796373 2.14979709327325 
4.51899332028997 2.56782062528484 1.72179878926704 
4.40546606363859 2.84206900698569 1.34318777014086 
3.3170720628733 3.2028697593783 1.94824064475015 
3.06327306206134 2.71354151471046 1.88135831445687 
3.35294170072537 2.14934927051603 1.84984101030827 
5.13437784405367 3.35062948286089 3.3203030617415 
5.02045737362499 3.72214374147083 3.45966659169693 
5.18449620961516 4.01195115057024 3.23176423875681 
1.68496659922358 4.29907111410438 1.11731256258546 
2.23563588547661 4.6939313554676 1.19471558136847 
2.14334274293924 4.4482944020477 1.25980949319254 
2.25237482228289 4.98158430677847 1.99166443871075 
1.57369083980531 4.33697817008106 1.81438793134849 
1.93750212986426 4.45239834902046 2.07975461788638 
1.97162290767346 5.17811227925768 2.12026937775939 
2.34199846737177 5.1001615378616 1.60077473025601 
1.71835772290122 4.90128861834402 2.2134329149508 
2.0977833534692 4.47309148013629 2.00362847869707 
1.55777706695516 4.25670291576147 1.23784328427485 
3.01022636837272 2.41854060564844 3.77917682171762 
2.20555074567076 1.38379484433604 4.28610850375744 
2.37644367309272 1.71571190136921 4.73089339923585 
2.18473779362827 2.16587700958734 4.68678812550521 
2.52126926400959 2.49188018026441 4.57843753753772 
3.94870691214113 2.18469548534557 5.10690743546999 
3.52076665400009 3.55401988182957 1.09021816561272 
3.25395836395923 3.71280555100547 1.03105431381156 
3.61374833175814 4.60881485490944 4.69854543334864 
2.76738897727499 5.21178322851576 1.58169926532487 
1.0370461872196 3.36146081161101 2.84564272963561 
0.911200823931952 3.3167908148919 3.27515859380939 
4.4883188622343 2.98810862142548 5.2200466607007 
4.71709745577715 3.10342252649956 4.66090476346564 
5.17847190476887 3.68140057862383 1.91706976913682 
4.79128611639641 3.65048117977897 1.55941402664673 
2.16938501575285 1.88569881428616 1.71676006094419 
2.02729893112276 1.91453389498589 2.03878212596835 
1.92717106696305 1.90010140573725 1.40548089356353 
4.81822227651197 1.4922595295155 3.55900728189572 
2.18744980788121 2.55697127289181 1.0354143167703 
2.50393106567301 2.76723593474028 1.21340450524445 
2.64250077325339 2.56880208962645 1.56856655500352 
3.00075219486467 2.44532538480639 1.48622614150214 
1.83086033239043 4.19491360889833 3.83465494567532 
4.20175319874292 1.85772542421965 3.13118530311961 
4.8934811930768 1.71568193735431 3.14910251367511 
4.59509892037379 1.89765864030726 2.97915536432357 
4.15332811773187 3.73582563535878 3.74683207249048 
4.28643268846409 3.68502951444512 3.4652348071461 
3.59608250630969 3.59398338841752 1.46018439964287 
2.32003898299328 3.24911268628101 1.38219498872576 
4.65468566388117 2.38334313684531 2.31437913059074 
3.36555123492434 3.77288698937047 3.6993239388337 
3.66437660703052 2.60186866698347 3.14957492092639 
3.98451568544892 3.88178948720858 3.65652135670867 
3.48533819023128 3.81174739706542 3.80900118019566 
2.94401558799284 2.82869695880029 5.01937091362192 
2.97900930337326 3.24238796508401 4.87309226309647 
3.71354698032906 2.38744315202816 5.12152885592579 
2.31874554929469 3.22086984430211 2.97099471197734 
2.28863427723733 4.06738062902331 4.26775551889148 
5.12576731998561 2.10091100537361 3.2073549131589 
4.22245919256153 3.26361323385396 2.5613643595661 
4.03739623599623 4.19083782273082 1.84549276207456 
4.11458552230013 3.89389789609358 1.62934514854837 
5.18076776781981 3.9849168630227 2.48148184704442 
2.51860697949343 3.56421358910852 2.62400939420537 
1.74589898656617 2.77721820725092 1.06377853482674 
1.74546819877208 3.2618885417388 1.89799907414727 
3.51388982484566 4.66502097058507 1.70803677713261 
3.05395569247687 4.12708931770647 3.65700407821909 
2.93616126203101 4.25774541078648 3.13158883283943 
2.78777541702309 3.37751827510574 2.54127806110303 
2.57006647595408 2.79017051318002 4.8720451000942 
3.89543663132472 3.67639292888131 2.93328552875197 
4.75477103794071 1.91086787769234 4.31670280500825 
4.32000988526344 1.77988406822222 4.3561972076466 
3.27183033509288 4.24081371127469 4.7729901528876 
3.52612058094493 4.46812856325862 4.9281087809027 
4.72613351047958 4.92871669833879 1.85498602084515 
4.87088465570353 4.80642886259741 2.24727667337298 
3.83991164805367 5.29524237495878 2.00237292831509 
3.72707775881026 2.43846729247311 2.42581201040354 
3.64899160224943 2.27267488583425 2.8738626661941 
3.10518118814127 3.94208728400284 1.34899315956899 
2.15079174173813 4.15529085007184 4.26496905476558 
5.31314345631213 3.28033921758494 1.72593371038756 
4.920065805865 3.29865711320363 1.42405916079378 
2.60915634633368 3.36300250932785 3.98121520117373 
4.40071871268001 2.46493792822408 1.42359792642322 
4.9204925103199 1.96925190048051 1.42400763962239 
4.61848938077729 1.37402163572952 1.3906065228616 
2.97041053421644 1.7326054933023 4.67559352471426 
4.1167232834005 3.32126086249386 1.78043592067523 
4.30229639961221 3.65560867481941 1.7918696233572 
1.68610263171543 2.47616045805399 2.30701493827229 
2.14503214011258 2.34153413561356 2.23428329448262 
2.65605987235835 3.02616591226678 2.85421528833656 
2.87254631532735 0.751535694863329 2.14979278533984 
2.80821031079796 0.493021742679222 2.50018616348732 
4.02510947245646 3.29829453832077 2.82930563775118 
3.79178455281377 3.15475104327346 2.78160586660213 
5.08122718813486 2.05418638050108 1.81977547402115 
1.40303725008902 3.17882837493897 4.33759509114158 
1.93431020375278 5.42725539722793 3.20944117383588 
5.308928192127 3.05440728200437 3.68517748708262 
4.94541230415218 2.65936705278772 3.63236965519765 
4.06370482585567 4.73467111012155 3.40783943491795 
3.92782901665611 4.23876805466781 3.78741258876772 
4.12645234598159 3.83227294616349 3.35545602051177 
4.62908359541718 5.21172196658925 1.9024148223773 
2.79849021916481 2.79524714056936 1.97643923864649 
2.36592442760379 2.66350482283268 4.1215777160147 
4.01902801155608 1.28739565147646 1.77032811634452 
4.60882693457508 1.16651864884825 1.66587981252637 
4.60183656311124 2.64305188097531 4.13276647846118 
2.9331047889441 5.20041099153566 1.89544425078035 
3.40801848005864 4.84760807131188 1.94490276454621 
3.97811536892458 2.51116076246084 3.43140643954975 
4.40230155066265 3.74436167433497 2.24257442501072 
5.04013572243905 3.71111525700368 2.32229322933677 
5.27748395690967 3.99605017965603 3.83892657640472 
4.36352562270628 5.00224717303594 3.64056185245666 
1.94763820059739 3.98866289776602 3.49982674293354 
1.56399743510572 4.98177772662182 2.72892392865101 
3.46733546654633 4.15714590058117 3.92222568727575 
3.16288349337294 4.3274436312524 3.78350562331529 
4.0086020118037 2.65098555347347 5.40490375042318 
2.74248071017661 3.76113280725086 5.09380206432075 
2.23877443025894 3.85574524695381 3.48973681952283 
2.48274082239211 3.85683412037335 3.84663944476166 
2.82129128159468 4.21423978424169 4.92144802199644 
2.4875077539145 4.33741408311272 4.40987553997573 
3.33791950903087 2.47114399952144 4.87583470124784 
3.18983175906054 2.6946843282712 3.62011999111413 
3.48585475310505 3.3914524604106 2.86625132058599 
3.55975570068899 3.63741900094896 2.95320265642222 
4.30111685528368 1.41361213209154 2.49371751960079 
3.08415778053282 1.45432754595949 1.04936685381245 
3.55667594144436 1.17767237897885 1.09146857616318 
3.40992672796266 2.65568420818984 1.20206754165233 
3.75720525401885 1.3065642634335 1.62426101462555 
4.5134863880222 2.28881389420821 1.27089236920996 
3.27221306424262 3.87994685856132 1.62981996669952 
2.36934115681771 4.43472168590452 4.41220257001683 
2.2564897255608 3.70409675035736 2.16366984446175 
3.2938149155064 2.21041167311776 4.12096232289061 
3.06777185964598 2.21476777880445 4.56185261071836 
3.22411445912743 2.67655250660608 3.3413819743379 
3.12267083663041 2.93148620171863 3.29151598182339 
2.3351640874878 3.23988027114727 1.66487648081802 
2.58493421256515 2.7412634082664 1.81495459423414 
3.32691948733294 4.38140226201758 4.45541836079048 
2.98073619011919 4.51865675549986 4.15968364671477 
2.58284700457171 2.46210222243954 2.64056013354298 
1.62702186907334 1.65572439535673 3.40260944042376 
1.511405027053 2.79870041254383 2.18770196119697 
1.4380539944786 2.82807382237385 2.4580399693106 
4.32676925395187 1.78229266149452 2.65244203596753 
4.52532194157597 1.82234710193306 2.67594552235319 
2.62871260203216 0.816772783104611 2.83949076765596 
2.96251048832304 0.857512874980847 3.3157337016837 
2.72959887423582 0.869253166209723 3.4961394790581 
3.55211214753481 0.848198643619364 2.06300400751452 
4.5896482812191 2.23324030175636 4.41533121228838 
4.24636737420778 2.08084652847591 4.43770029022767 
4.44193739745184 4.92563095509926 3.87640347647797 
3.35019970088858 1.59642188298257 3.96996589651023 
3.16380922174837 1.39239795319106 4.26525512373517 
1.75443691764996 5.44634021293634 2.92865825775621 
2.17406901530499 4.29361758996882 2.19654071683794 
2.22721760724026 4.3461802506545 2.1223899074276 
2.14509078168602 1.19076198470563 2.86956512099856 
2.09274454834707 1.72414814754564 3.35807826008875 
4.07384104926146 3.06779779146238 2.33154415794741 
3.81809063063663 3.00895314973118 2.42422320705655 
4.63524889219335 5.26311032943954 2.25275700657901 
4.80753558987413 5.00549405604462 2.41411761465316 
2.01708403558315 5.63391774924034 2.64557780487068 
4.88257002423109 2.40425820790622 1.97532760555848 
5.38010665495491 2.77189939026533 2.0991661834533 
4.09994056439256 1.81097844226366 2.98040710147044 
5.31129720129428 3.22167369649234 3.9780087621776 
4.9730559999281 4.78814842983977 3.88863028931881 
4.07574932813405 2.2328424316752 2.24734177603614 
4.36039154202715 2.49757329871858 2.16735970248742 
3.93519973439506 1.41105596436843 1.64420465978366 
4.79115275060035 3.15903719288084 4.65502541793167 
2.35822506395327 2.04646031914778 3.52843301938821 
2.28774894212183 2.62515985000378 4.09575794319379 
3.07147656892585 2.97043323431364 3.60089196084744 
3.18854284611101 3.38950887721592 3.88462098139805 
3.97865342454286 4.59684581127843 4.61572096878775 
4.20051056922442 4.39469104323485 4.10842182519637 
5.05537478797206 4.26394540163311 4.11859096387779 
2.55084384081969 4.13838828315785 3.02619727176357 
5.11497350876748 3.76747962442472 3.81054680693859 
4.90730492813416 3.02891616996695 4.54825980716552 
1.88581241015736 4.48152027036725 3.1071902954407 
2.4009218934417 4.40920704657069 2.91327806332424 
3.53173509317665 4.28320550128657 1.86930300892291 
3.99932342878994 4.87795462836925 1.51829284686265 
1.40699193321245 3.915028233506 1.96313751896383 
3.24366074083215 2.83234991527497 0.815413938844314 
4.14205313116323 3.06872066797425 5.25306146659018 
3.59917469388139 1.06003590502892 2.09159003996449 
3.80515649779734 1.15182572862107 1.76168596908677 
4.1500657323307 4.35017004946908 4.85647440156407 
2.76562387582611 2.7262396245177 0.910956273669943 
3.67720481294713 5.01015805451769 2.95491504544376 
3.79313936281826 4.9230652533107 3.35691787087925 
2.6530624317193 5.06344611674271 2.21531901725822 
2.75126969758548 4.79893589324024 2.35798370985108 
3.09012860630694 1.79993802440459 0.642915537467642 
3.8259347538065 4.88645591756396 2.72774804784567 
1.64838399187406 3.96029311772509 4.50164015173265 
3.34226671551797 3.84935515965969 2.74750760463319 
3.20207366738504 3.53007280206959 2.57997467217033 
4.17263160192768 2.77509650022156 3.88987505209876 
1.31826719782163 4.59417161841326 3.77598424433302 
3.86088978974841 2.02346915294733 1.77465422646899 
4.07586799722989 2.23447745835685 1.36686501851992 
2.2534970639409 1.72892469598621 3.59509743064555 
4.27332335769879 4.64837829734267 1.57598660735116 
4.00728313058747 1.19240445094774 2.67969790206602 
3.51869423991063 2.53950221392589 4.795884419074 
2.30378348201098 2.89344794596744 4.08641948362946 
1.60956961267094 3.26747610013869 1.73639500141142 
1.35210403095815 3.61713114280833 1.65113406360192 
1.57580677773992 3.20282137725772 2.6253110591206 
1.77094992448013 3.52382796771508 2.14454163042925 
1.32505044668075 3.43372869366206 2.81818999958335 
1.38115916699062 2.12679234321553 3.24575198456777 
1.05141989162804 2.31886767756977 3.69982241288569 
0.639248946663206 2.89470179925961 3.41230049734667 
0.827624135300075 2.6476432157708 3.75211136419086 
0.860106014892754 2.33481887214683 3.67389430638814 
3.0603630723321 2.52968056754225 0.998462505163784 
3.24854653566802 2.61364029944895 0.946711109182011 
1.39409671165799 3.71184078323249 1.3202724920713 
2.39726284991652 0.818079732247445 2.99800869213229 
1.66318958977708 4.6070147949949 2.99885354283581 
2.20137001917806 3.33188401303909 3.3733644319924 
2.53224228794457 3.17037838373733 3.83184182728579 
0.7150879271787 3.91105489758062 2.79439812157386 
4.51156145213261 3.97039180406772 4.21690772528923 
4.67350231833081 3.95869164079654 4.22052277725821 
0.854371418089989 3.76528539362681 2.67903223724701 
1.21980992593284 2.28131072127542 1.58023891890958 
1.33373829506152 2.27398992766383 1.34481270796027 
0.575241483321305 3.71890418237052 3.33349263002393 
0.61990158525126 3.92529008504466 3.55948281631112 
3.85147294390528 1.43440569499691 3.0032488220928 
3.79963567378737 1.21670052039558 3.33204655575737 
1.84285809545976 3.23623460714792 1.29594391787206 
1.69514316039505 3.47246142756565 1.08325275967309 
4.68301231025038 4.36965772496748 2.52225830712311 
4.26755625686511 4.07954065063767 2.32651232572856 
4.04119695689026 4.11997324279342 2.60299311677458 
1.34442542712233 1.98800218701849 1.66741298724038 
1.48087103041612 1.95235456414046 1.43798988580726 
2.39863023995045 1.49570794909812 1.70276696525941 
2.98367719293856 1.73517728330479 1.57047183369111 
4.24481976089067 3.36740021249354 4.4978886928591 
3.92143941654022 3.32233675045362 4.82097123818342 
2.01794961849971 2.18695130445061 4.4575466627659 
3.63322162485239 3.09546275304313 1.20097884711199 
3.57622099117116 3.18435400965227 1.02391735199677 
2.84762553239998 3.29261689459268 2.08749139238091 
4.01126671615428 3.23053158322069 4.1242534105809 
2.65497937309593 3.80833580392802 1.70940144156164 
2.52595549890101 3.52430023873601 1.85192051854852 
3.06296355210837 1.41930138650038 2.19055791142537 
3.20064576479572 1.69729574119734 1.79089719158173 
2.39484099752976 4.60333184993501 1.08325427084667 
3.12813602627911 3.83507882338943 1.81073308317411 
3.12168316117587 3.41015908482039 2.05572107236062 
3.32450370426798 0.537350018603024 3.31716778937174 
1.3088494009205 1.83636031374023 4.17883132175659 
1.56754523752191 2.27921047340501 4.51359900431933 
1.73392303056897 4.48122338088822 2.9408343620131 
1.96178320500642 4.34366945750634 2.20152126968754 
1.56904117738401 1.55187275890037 3.98759054671139 
2.00648295898302 1.63616091886101 4.09738978182374 
4.73438239319855 1.28322199884618 2.47963530213074 
4.88562665739559 1.23531444583593 2.10458364178845 
3.39882167758846 3.41700862260305 4.10021852354318 
3.34595082492617 3.3668722486064 4.63896898652946 
3.68343573234857 3.15009456775164 4.21449021647574 
3.61107513399996 3.15985134163747 4.61128890626565 
3.86548488590398 0.826482293050185 3.29830912433265 
4.04098417568454 0.756849125077718 2.87705027677955 
4.82112763062051 1.41885688263231 2.52980293684747 
5.03512441008136 1.46829527595358 2.2010065177283 
2.92084652968882 4.97852920920817 3.86186054046742 
1.28841793155194 3.78424226180459 2.65275485444103 
1.56913876623039 3.8513293162488 2.1549464838287 
4.50831236172193 3.90093768362076 4.38778685216349 
4.61829834933461 3.88857990490731 4.40215803256683 
2.27808008638207 4.35625974630464 1.16584096098605 
3.70044052553827 3.73206069064727 5.08627046578766 
2.65002695279771 1.29132871661526 2.43763409301688 
2.37285455153312 1.30481175386792 1.93863838335465 
2.71967304591843 1.22100746936319 2.21892516828278 
3.30714161479712 0.282429575664533 2.74509310276116 
3.7384621054672 0.462122466662526 2.5229433625509 
0.957189733245735 4.55013951679873 3.07334207316937 
0.876860809065427 4.55358363295993 3.41173906172528 
2.52480428022196 3.60341131032819 1.15847619840757 
2.6565549804413 3.86269686805199 1.40174766805283 
2.42181849461199 2.37047849836694 2.65295232919046 
3.84649891508363 4.22878304230041 5.08170467173514 
2.37043569778006 1.42198406074491 2.47371960017255 
2.18379627650715 1.42798441126117 2.23327034424653 
2.7398486781332 1.24836523175464 3.73410809917413 
2.6974259521582 1.16433434206554 4.00158029033393 
2.48784250030387 2.2462612528987 2.72169871585219 
2.19930713019772 2.06147757043223 3.28753591884071 
4.55477283903554 4.62059009696973 2.86261261295097 
4.2734373173725 4.58014671253437 2.93244004712915 
2.87590992973806 4.92072819815128 4.05656110215948 
1.16854522207051 1.78888494294968 2.85210211114538 
4.30913808154308 4.38856283880029 2.89431522384012 
4.57190883078196 4.45352003745607 2.83213986360163 
2.88941640043366 2.94056392194072 0.783585425066316 
2.8044010820573 3.47461545189224 0.894498837859119 
3.88746068042408 2.25231796133181 4.09385148665412 
3.62438862487633 2.39215201009296 4.16672692853683 
3.89107533177525 2.53383202007069 3.88310333017871 
3.66030831423847 2.61954021099198 3.9881637723114 
1.18439464621021 2.08539232625384 2.950278532769 
2.40542668144198 4.83761984159393 4.21171827510699 
3.20549453257005 4.64150598488963 1.20269723355359 
3.00947753959177 4.7928659869031 1.15359692696093 
5.32705405340071 4.17827969486123 3.39578094243807 
1.94101846671518 4.02848261225545 0.818452937414546 
1.96885508049112 3.7668177830589 0.822213285223065 
2.16180909260326 4.078345262119 0.84064933595298 
2.24322863126311 3.80689483787323 0.850785296707273 
4.16945558549948 2.10375343650066 1.23953855071844 
4.14913541043886 1.52061413070966 1.32316215162493 
3.84832880569883 1.33264971343524 0.823870000660055 
3.7682212469658 1.63403666210335 0.523105989945344 
3.90304929333861 2.008064187231 0.593812720379177 
3.39786730475396 1.82984317680761 0.426284617847894 
3.54629510014824 2.20193710309903 0.508254818911614 
3.01069065960619 1.54916677957089 2.47453173864198 
3.39184871197506 1.5880891481279 2.97857711344524 
4.07886582017968 1.31984142561123 3.70689563415499 
3.95359157763719 1.44558120075873 3.95284494809728 
4.19864602140275 1.48436393358922 3.67152761813642 
4.06964453320019 1.62004499874593 3.96119933378304 
2.66394247414111 2.33110983856748 2.71842121074148 
3.0577888483065 2.32754633944047 3.1557915591409 
3.33653650187814 2.12357851964393 2.90196870366481 
3.08541066629348 2.10562282741537 2.55461564663212 
4.44975198125075 2.48238850825768 5.33815442931636 
4.29739275136313 2.42727042485468 5.39278172393162 
5.11408607374542 4.80151575999262 3.43339564312113 
4.86023284010513 4.92501989250557 3.24636771209068 
1.37806343107796 4.07005794929513 4.0450518928513 
1.21835619364322 3.84381320810797 3.99562383568489 
1.20265594450975 3.8132804568934 4.15963254425973 
1.3411447521594 4.00975981427267 4.24406648358242 
1.81883162145516 4.6149389703399 3.18254592758167 
2.03575870418593 4.97374047951958 3.359179992634 
1.72974412665926 4.60379401034498 3.63273435344138 
1.91521157085502 4.88899996809553 3.70885977498566 
0.668954551270986 2.22605935250267 3.21926624303453 
0.863504655717928 2.13240049473225 2.9570156769917 
0.681502098475229 2.48192952506224 2.80425281139211 
0.544859754439211 2.49901520255961 3.08364598095351 
1.0941125764658 2.68534911533892 3.82062986280959 
1.35411159295354 2.89166929456221 4.26109058580304 
2.17349164698299 2.8358856102465 4.04452367939062 
1.46538839870897 3.01838054088039 4.19666105240606 
1.74944204751509 3.49325417149151 4.62488300337579 
5.40231169345094 3.84633710669814 2.92924113801668 
5.38308087712636 3.44589699437922 2.97023579681264 
5.37557903092933 2.80357281103259 2.38946031893238 
5.16278042033267 3.2618153157189 2.66022562358059 
4.84625152416472 2.32419504658965 3.0486623431997 
4.77668415170194 3.01826773200288 2.81329689908176 
4.89638487723632 2.62192342670834 2.66357530249614 
4.33778438363888 3.15340409909286 3.22998135847791 
4.27962605344029 2.77969861918353 3.47010738528919 
4.70059662056407 2.71172162584224 3.33200789153808 
4.71529841412458 3.03326328947171 3.14561544036813 
3.4101935952521 4.28568436958426 2.08687160816587 
3.31707637076849 4.6100299416914 2.20509993187931 
3.55302385170455 4.25758578607738 2.45418954248209 
3.46176985185234 4.59420923801698 2.51835384765704 
2.25004818485177 3.45928551264189 4.5520937514593 
2.37637716519652 3.39189609439555 4.79313187615641 
2.40741769366983 3.24840014982898 4.38214450068606 
2.53900566383339 3.19845055939875 4.71069164772384 
1.61177551925883 3.41721708060618 3.34738497874284 
1.35650281737593 3.34282588344239 3.57238271502508 
1.42545077144972 3.03076728308471 3.75204861405571 
1.94274588100036 3.05726517461315 2.99064347757143 
1.90547661091087 2.61857514033921 2.89940676770282 
1.82370621442143 2.45738952410242 3.18418459687599 
1.8879467800611 3.17420262334701 3.3298573464152 
1.81774647197401 2.93558723874909 3.53955043852874 
2.54941106530274 5.5343059283387 3.15696707715399 
2.30698464210014 5.73874827283058 2.80210941446575 
2.30892304880432 5.66434536055969 3.11891787927387 
2.74382479457319 5.51529479872437 2.86013030060839 
2.65555591547687 5.58337879156569 2.6988244465368 
POLYGONS 389 2380
4 0 2 144 193 
6 3 1 104 193 144 135 
6 134 135 144 2 226 211 
5 4 5 106 160 157 
5 5 106 107 340 329 
5 8 6 9 7 350 
5 10 14 15 323 12 
4 10 13 11 14 
5 12 10 13 238 239 
5 14 15 433 436 11 
5 17 110 16 205 139 
5 261 262 307 311 184 
5 8 184 261 359 350 
4 217 251 202 346 
6 20 217 346 345 381 382 
6 19 18 20 382 383 376 
5 18 20 217 251 343 
5 19 18 343 191 190 
5 189 269 201 341 330 
6 189 190 19 376 375 330 
6 201 202 251 343 191 269 
5 150 223 212 387 363 
4 21 124 185 186 
6 24 7 350 359 21 124 
6 24 124 185 23 277 288 
6 22 186 21 359 398 399 
6 26 31 32 25 169 295 
5 30 118 250 169 295 
5 33 28 111 213 249 
5 25 33 249 250 169 
5 27 29 214 203 122 
5 26 31 204 203 122 
4 32 25 33 28 
5 30 27 122 26 295 
4 30 27 29 118 
5 32 28 111 204 31 
6 29 118 250 249 213 214 
5 203 204 111 213 214 
5 35 36 363 150 225 
5 34 35 225 211 134 
5 35 36 406 407 34 
5 37 39 328 366 364 
4 38 39 328 303 
5 40 46 42 45 43 
5 40 44 38 39 46 
6 37 39 46 42 41 47 
5 48 20 18 196 175 
5 48 20 217 218 141 
5 52 141 48 175 176 
5 52 51 294 218 141 
5 50 51 52 176 121 
5 49 50 121 197 344 
5 196 197 344 343 18 
5 251 312 49 344 343 
5 50 51 294 312 49 
6 193 194 53 386 385 0 
6 54 55 354 353 232 296 
5 56 107 340 236 221 
5 6 9 342 341 201 
5 127 128 189 330 332 
5 44 38 303 362 57 
5 58 59 279 273 276 
6 22 58 59 263 400 399 
5 2 61 60 385 0 
4 2 61 216 226 
4 62 63 116 115 
5 65 64 290 331 342 
5 7 9 342 65 24 
6 65 64 66 289 288 24 
5 184 202 346 430 261 
5 21 359 261 430 429 
4 24 65 125 124 
6 65 125 339 345 341 342 
5 124 125 339 429 21 
5 8 6 201 202 184 
6 67 1 104 105 380 379 
5 44 57 145 240 40 
6 43 40 240 437 434 207 
5 71 70 69 237 266 
5 69 68 66 64 70 
5 167 242 266 71 291 
5 71 70 64 290 291 
5 72 152 227 393 395 
6 72 152 425 426 390 389 
4 58 260 324 276 
5 58 59 426 425 260 
4 270 309 227 393 
6 273 276 324 309 270 335 
6 152 227 309 324 260 425 
5 279 280 390 426 59 
5 279 280 336 335 273 
4 72 389 248 395 
5 248 336 280 390 389 
5 238 239 136 348 243 
5 136 151 388 347 348 
6 205 206 347 348 243 16 
5 187 188 321 313 166 
5 73 75 74 67 379 
6 73 210 281 282 377 379 
5 73 75 188 187 210 
5 135 144 247 414 415 
5 134 135 415 416 34 
5 34 35 77 413 416 
6 2 61 292 298 247 144 
5 76 274 326 292 298 
5 61 216 327 326 292 
6 76 77 35 225 275 274 
6 76 77 413 414 247 298 
5 71 25 169 267 266 
5 26 78 54 296 295 
5 78 54 55 113 172 
6 79 179 300 299 338 337 
5 31 32 140 297 305 
5 113 172 304 299 338 
6 26 78 172 304 305 31 
6 32 25 71 70 180 140 
6 79 69 237 353 354 337 
5 55 113 338 337 354 
5 70 69 79 179 180 
6 119 120 143 314 322 131 
6 80 188 321 322 131 208 
6 142 166 187 213 249 215 
5 187 188 80 214 213 
4 80 208 29 214 
5 142 143 314 313 166 
5 142 143 120 369 215 
4 118 171 368 250 
6 29 118 171 119 131 208 
6 129 130 82 147 414 413 
4 147 357 247 414 
4 81 84 315 220 
6 82 147 357 358 163 177 
6 83 84 81 165 103 138 
6 164 165 81 220 219 178 
5 82 130 164 178 177 
6 83 84 315 317 298 76 
4 83 76 77 138 
5 103 129 413 77 138 
5 129 130 164 165 103 
6 347 352 36 363 387 388 
6 195 212 223 275 274 222 
5 151 195 212 387 388 
6 35 77 138 351 352 36 
5 83 76 274 222 137 
5 136 137 222 195 151 
6 136 137 83 138 351 348 
5 133 394 15 433 435 
6 15 323 349 360 396 394 
5 5 316 318 293 329 
6 87 156 233 293 318 254 
6 85 86 316 318 254 162 
4 4 5 316 86 
6 234 253 281 376 375 301 
5 127 128 333 334 192 
5 192 234 253 320 334 
5 189 190 306 333 128 
4 281 282 19 376 
5 127 192 234 301 332 
5 19 190 306 319 282 
4 301 332 330 375 
5 48 20 382 177 163 
6 88 126 178 219 272 271 
6 217 218 403 432 430 346 
6 48 141 255 272 219 163 
4 141 218 403 255 
6 88 126 183 339 429 428 
4 88 271 431 428 
5 72 114 244 392 389 
6 390 391 132 404 427 426 
5 391 392 244 405 132 
5 89 114 244 405 421 
5 152 158 271 431 425 
5 89 159 117 423 421 
4 117 272 255 423 
7 255 403 404 132 405 421 423 
6 72 114 89 159 158 152 
6 73 75 410 415 414 147 
4 74 75 410 90 
5 74 90 3 1 67 
5 3 90 410 415 135 
4 105 194 355 380 
6 73 147 357 355 380 379 
5 133 198 207 434 435 
5 61 60 233 293 292 
6 292 293 329 340 236 326 
6 42 45 153 270 309 310 
5 41 42 310 325 231 
5 60 233 156 386 385 
5 129 130 204 203 91 
6 130 164 246 305 31 204 
5 122 123 148 91 203 
6 92 229 417 419 287 286 
5 92 93 123 148 286 
6 103 129 91 148 286 287 
5 103 165 245 419 287 
6 245 246 305 304 417 419 
5 78 93 92 229 172 
5 26 78 93 123 122 
5 94 149 409 407 406 
6 62 115 209 408 409 149 
5 170 215 249 33 302 
6 33 28 384 375 301 302 
5 142 166 253 234 235 
4 170 215 142 235 
5 111 112 383 384 28 
5 112 210 281 376 383 
5 111 112 210 187 213 
5 148 149 409 411 91 
5 94 285 352 36 406 
5 34 407 409 411 416 
5 91 129 413 416 411 
5 148 149 94 285 286 
6 87 53 194 355 356 254 
4 87 53 386 156 
5 174 199 310 325 259 
5 258 260 425 431 428 
6 88 95 174 259 258 428 
5 95 174 199 228 224 
5 88 95 224 158 271 
5 227 228 199 310 309 
6 283 284 365 367 337 79 
5 79 69 68 96 283 
6 16 110 146 418 420 243 
5 13 11 241 418 420 
4 13 238 243 420 
5 240 241 11 436 437 
5 145 146 418 241 240 
5 68 66 289 278 96 
6 23 256 283 96 278 277 
4 23 185 97 256 
5 70 64 65 125 180 
5 79 179 97 256 283 
6 124 125 180 179 97 185 
5 221 222 274 326 236 
4 262 265 264 401 
5 22 58 260 258 186 
5 21 186 258 428 429 
6 261 262 401 427 432 430 
6 263 264 401 427 426 59 
5 17 139 108 252 230 
7 5 106 181 154 84 315 316 
4 83 84 154 137 
6 137 154 181 56 221 222 
4 106 107 56 181 
6 27 29 208 209 115 116 
5 98 229 92 252 230 
6 108 109 285 286 92 252 
5 109 206 347 352 285 
5 98 146 418 417 229 
5 17 110 146 98 230 
6 19 18 196 378 377 282 
5 40 46 200 241 240 
6 303 328 338 113 361 362 
5 113 172 229 98 361 
6 200 241 418 417 304 299 
6 39 46 200 299 338 328 
6 145 146 98 361 362 57 
5 307 308 402 401 262 
6 72 114 173 360 396 395 
6 175 196 378 380 355 356 
5 82 112 383 382 177 
5 82 112 210 73 147 
5 48 163 358 356 175 
6 256 257 231 325 259 97 
5 185 186 258 259 97 
6 11 14 228 199 200 241 
5 45 43 207 198 153 
5 46 42 310 199 200 
6 14 15 394 393 227 228 
4 89 114 173 161 
6 160 161 89 421 422 157 
5 62 63 123 148 149 
5 161 173 360 349 182 
6 91 203 214 80 412 411 
5 75 188 80 412 410 
5 111 112 82 130 204 
5 81 99 159 117 220 
7 117 220 315 316 86 424 423 
6 99 155 182 161 89 159 
5 86 4 157 422 424 
5 81 84 154 155 99 
5 47 41 231 257 268 
6 37 47 268 284 365 364 
5 97 179 300 174 259 
5 167 168 170 302 291 
6 169 250 368 372 374 267 
5 168 170 215 369 370 
6 167 168 370 371 373 242 
5 71 25 33 302 291 
5 100 99 81 165 245 
6 10 13 420 419 245 100 
6 136 137 154 155 12 239 
5 10 100 99 155 12 
6 101 95 224 100 245 246 
5 10 14 228 224 100 
4 101 246 305 297 
5 101 95 174 300 297 
4 85 86 424 102 
5 63 116 27 122 123 
5 208 209 408 412 80 
5 12 155 182 349 323 
4 219 220 117 272 
6 102 52 141 255 423 424 
5 102 52 176 162 85 
5 100 99 159 158 224 
6 32 28 384 381 183 140 
5 140 180 125 339 183 
5 184 202 251 312 311 
5 101 126 183 140 297 
5 101 126 178 164 246 
6 218 294 308 402 404 403 
4 101 95 88 126 
5 158 159 117 272 271 
4 103 138 351 287 
4 104 105 194 193 
5 160 161 182 181 106 
5 263 264 265 397 400 
6 211 225 275 327 216 226 
5 108 109 206 205 139 
4 177 178 219 163 
6 219 220 315 317 358 163 
5 119 120 369 368 171 
5 175 176 121 197 196 
6 177 178 126 183 381 382 
6 133 198 153 270 393 394 
5 179 180 140 297 300 
6 193 194 355 357 247 144 
4 150 223 275 225 
5 152 158 224 228 227 
4 154 155 182 181 
5 232 267 169 295 296 
5 175 176 162 254 356 
5 266 267 232 353 237 
5 166 187 210 281 253 
4 164 165 245 246 
4 189 190 191 269 
5 234 235 170 302 301 
4 172 229 417 304 
5 199 200 299 300 174 
4 183 339 345 381 
6 330 341 345 381 384 375 
5 201 202 346 345 341 
5 249 250 368 369 215 
6 243 348 351 287 419 420 
5 217 218 294 312 251 
5 266 267 374 373 242 
6 335 336 248 395 393 270 
5 247 298 317 358 357 
5 281 282 319 320 253 
5 317 318 254 356 358 
6 271 272 255 403 432 431 
5 256 257 268 284 283 
5 258 259 325 324 260 
6 261 262 265 397 398 359 
4 274 275 327 326 
4 277 278 289 288 
5 286 287 351 352 285 
6 290 291 302 301 332 331 
5 292 293 318 317 298 
5 307 308 294 312 311 
5 299 300 297 305 304 
5 319 320 334 333 306 
4 309 310 325 324 
4 313 314 322 321 
4 315 316 318 317 
5 337 338 328 366 367 
5 331 332 330 341 342 
5 345 346 430 429 339 
4 347 348 351 352 
4 355 356 358 357 
4 364 365 367 366 
5 368 369 370 371 372 
4 371 372 374 373 
4 375 376 383 384 
4 377 378 380 379 
4 381 382 383 384 
4 389 390 391 392 
4 393 394 396 395 
4 397 398 399 400 
4 401 402 404 427 
4 403 404 427 432 
4 408 409 411 412 
5 411 412 410 415 416 
4 413 414 415 416 
4 417 418 420 419 
4 421 422 424 423 
5 425 426 427 432 431 
5 429 430 432 431 428 
5 434 435 433 436 437 
