# vtk DataFile Version 2.0
polydata
ASCII
DATASET POLYDATA
POINTS 22 double
3.30595687860368 2.33197435796373 2.14979709327325 
3.3170720628733 3.2028697593783 1.94824064475015 
3.06327306206134 2.71354151471046 1.88135831445687 
3.66437660703052 2.60186866698347 3.14957492092639 
2.78777541702309 3.37751827510574 2.54127806110303 
3.72707775881026 2.43846729247311 2.42581201040354 
3.64899160224943 2.27267488583425 2.8738626661941 
2.65605987235835 3.02616591226678 2.85421528833656 
3.79178455281377 3.15475104327346 2.78160586660213 
2.79849021916481 2.79524714056936 1.97643923864649 
3.48585475310505 3.3914524604106 2.86625132058599 
3.22411445912743 2.67655250660608 3.3413819743379 
3.12267083663041 2.93148620171863 3.29151598182339 
2.58284700457171 2.46210222243954 2.64056013354298 
3.81809063063663 3.00895314973118 2.42422320705655 
3.20207366738504 3.53007280206959 2.57997467217033 
2.84762553239998 3.29261689459268 2.08749139238091 
3.12168316117587 3.41015908482039 2.05572107236062 
2.66394247414111 2.33110983856748 2.71842121074148 
3.0577888483065 2.32754633944047 3.1557915591409 
3.33653650187814 2.12357851964393 2.90196870366481 
3.08541066629348 2.10562282741537 2.55461564663212 
POLYGONS 13 79
5 2 0 5 14 1 
5 1 2 9 16 17 
5 3 8 10 12 11 
6 8 10 15 17 1 14 
5 5 6 20 21 0 
5 3 6 20 19 11 
5 5 6 3 8 14 
4 4 15 17 16 
6 2 0 21 18 13 9 
5 4 7 13 9 16 
5 4 7 12 10 15 
6 11 12 7 13 18 19 
4 18 19 20 21 
