# vtk DataFile Version 2.0
polydata
ASCII
DATASET POLYDATA
POINTS 120 double
3.34526997323794 5.47717453668836 1.13113470298045 
4.82124744328168 3.48079455618503 1.54237861727208 
1.67639470330099 6.3030285054449 3.68090866435942 
3.72459763243242 5.40028219717897 1.60051723351603 
3.70799291947576 5.11169661522586 1.88144011075807 
2.87670305025373 4.6921753262252 1.53697606790918 
3.3708329943666 4.73424909829827 1.92662613068247 
2.14450783643769 6.16292708525613 3.15870365478196 
2.51042129463934 1.16444000076918 2.17722048169697 
3.90464198152935 4.77138614425588 0.691283027237018 
5.61147504798232 1.19610057838314 3.88885708259255 
4.01075724599397 5.28645690939555 1.49549569097957 
4.70658944994905 2.00322749619386 4.07389114827659 
4.75264604136661 1.56130172675916 3.93721870725062 
2.4708812101925 2.34937604214271 2.08370839642503 
1.84350440058737 2.34152433715061 1.76994447026497 
2.37033575396924 2.30236623551624 1.77265018272134 
2.56357387901907 1.95769767930929 1.71375662220309 
2.70461087163217 1.97360327266788 2.15239616824907 
5.10151260418663 2.13596532768417 4.37381536344649 
3.61861444416458 4.36431033573461 1.83028660678537 
3.72698437071197 4.19446559064012 1.04922753644462 
3.44338592160175 4.18475780498785 1.54285944720718 
2.90147953576135 4.46918809962271 1.40964418072968 
5.25748836541908 1.37076863244726 4.20347360757825 
5.41576163857864 1.66000558337686 4.40401553033431 
1.41191820829909 1.75741328007308 1.59029017479451 
4.00331893677281 4.38494801885409 1.07065482397638 
5.92207191835043 1.71910783705934 4.21434919970505 
5.97214575631247 2.20866955598458 3.98388860610504 
4.30532024517242 3.45730057135701 2.64402581909295 
2.37807320308802 1.52835662689697 1.59457943915041 
3.5326801681554 5.42110956467851 0.846644483416878 
3.90827770421441 5.26677904164378 0.915129288893084 
1.76005596397241 2.39361874219935 2.03925153500345 
2.87863541494318 5.44436986633432 3.8214848184913 
4.80148852192951 2.49075880246106 1.81835310786537 
1.89601092027327 0.983137520036572 2.02621715278436 
2.29808057649787 1.03829540754867 2.28139039462252 
2.02421854327212 6.4025211444917 3.53603594354293 
1.49364144061987 1.50130912962109 1.52654697796756 
5.11097089437667 2.52307385299422 2.47275373853727 
2.85029867254722 5.05776031410358 1.14794525638371 
2.31737083717023 1.18548052649123 2.52210346606038 
1.86886294107165 1.33841712289825 1.5110537790685 
2.19838429330075 5.52783935747466 3.15444867275607 
1.97553286628857 5.97517686688568 3.14267208862967 
2.44102766481064 6.27445520818269 4.11268650449599 
2.41057094452097 6.3648705459973 3.74215272192782 
1.78985624327185 1.55367008950684 2.70493557611101 
2.79535123079729 5.58426570947493 3.46556670034489 
2.66081828862138 6.04193239971197 3.2828711857611 
5.14643470655212 3.04177562063698 1.54625980643467 
5.35561314555956 2.97226264201322 1.81823621795099 
4.82311622130228 3.67341548339727 1.80426671365814 
2.66014464377916 5.96702449629179 4.2541455904626 
2.56503741110043 6.01312397205498 3.15410937597804 
2.52364850209256 5.61247521192272 3.13991901391633 
1.6935829564572 5.5338985374502 4.23573213192032 
1.58938181710928 5.50751001834797 3.87512668866199 
2.51322401184822 5.82168196436003 4.42528758583761 
4.41616793253673 2.45428459722452 2.22809168467604 
4.12728178609946 3.35609491698657 1.92323081455904 
4.25473656909364 3.6089123650024 2.10310531279717 
4.47743308450866 2.81456416121578 2.8738987840295 
4.60793282823387 2.44132094514637 2.56721300883044 
5.1831450922603 2.53576169076202 2.02446519010816 
4.04182583257122 2.92453170944451 2.27553027717084 
4.13705028146513 3.09602493102212 2.68874417651253 
2.04643407012875 5.27368984986729 3.51121869949068 
2.55662249441803 5.41279925122464 4.31169543087422 
2.83816096706063 5.35603411084553 3.87422707576789 
5.53758706668697 1.21270017266761 3.54928256105608 
3.37937194814797 4.63560986939124 0.442004310142526 
1.43966215565574 5.84776916954905 3.83917193446349 
1.58504406132935 6.10918578443133 3.54949101038316 
2.43395130607996 5.14635054701404 3.84065579914545 
2.33059052432984 5.27600688105622 4.24282694361166 
2.91854459484599 4.61863664757684 0.676750482235395 
3.30408918207556 4.49356998670177 0.519122566910032 
1.47000661997562 5.98138994131375 4.14747230595364 
3.18422244497597 4.8810228020014 0.477418887223442 
2.89851799191821 4.76885866333625 0.647986960452085 
1.61665303488802 5.81256837942024 4.34125903885873 
1.91761845344413 6.04843549271191 4.47069154837931 
2.14307889619755 2.38221985190896 2.32363364140934 
2.18665115252301 2.04296639861376 2.62201433101196 
1.90781198009732 6.16085446423659 4.40543165443563 
1.58329723527804 6.17440704716916 4.14087753496388 
1.59665627147221 1.0858148227478 2.13495988706657 
1.5919866334203 1.50438464516621 2.60019257110012 
5.68622982434448 2.19007854030231 3.27431165996543 
4.04551870653324 4.96334476647148 1.73757257287499 
1.3368009195453 1.40531663573569 1.75221305748143 
4.7410854411219 2.24163116251531 3.76821994024724 
4.05525204522854 4.60478505654433 1.66088720334576 
5.21092601571753 2.39606987817479 4.25846682216422 
5.68392533802057 2.46054504708741 4.00652945914355 
6.00281582801788 1.46263164373427 3.95445250730002 
5.44720227272762 2.52603294750561 3.63269148724347 
5.00414934087748 2.49004923277372 3.84090079519499 
5.19687528114885 2.82734537039433 2.64207628002465 
4.72862597150754 3.4136293347336 2.78268541156727 
4.80113528720632 3.02844421090208 2.91758329199458 
4.7479079226845 1.53307394382489 3.61599300226263 
4.758136324317 1.88968019429844 3.43500435145076 
5.09550702589419 1.37832909436214 3.38485199961151 
6.07475865185403 2.04054891236806 3.59908409387977 
5.55094179187727 1.90234874605067 3.13277869192028 
5.11232790802948 1.74876415917311 3.17959842964206 
4.52653218890656 3.26747953528448 1.51467184946832 
4.8154860904698 2.82303891368281 1.51448730514254 
6.0911042573847 1.60398242266729 3.61960735137534 
5.86504410256165 1.47740235297807 3.37628900703811 
1.32617301009652 1.84600426180507 2.18935169239624 
1.25102739559077 1.657146282951 1.81778743429461 
5.19221788679769 3.5391931649 2.17877612364707 
5.37992625105342 3.27148311122397 2.15473915144883 
2.56508589096098 1.33701729856721 2.41041738580872 
2.63608810635054 1.7559899326884 2.42483638711922 
POLYGONS 70 430
5 35 55 60 70 71 
5 0 32 81 82 42 
6 36 61 67 62 110 111 
5 30 68 64 103 102 
5 30 63 54 116 102 
6 52 53 117 116 54 1 
5 53 66 41 101 117 
5 64 65 41 101 103 
5 1 54 63 62 110 
4 1 52 111 110 
5 36 61 65 41 66 
5 52 53 66 36 111 
6 47 48 51 50 35 55 
6 2 39 48 47 87 88 
6 0 3 4 6 5 42 
5 7 39 48 51 56 
5 7 46 45 57 56 
4 8 38 43 118 
5 32 33 9 73 81 
5 10 72 113 112 98 
5 8 31 44 37 38 
5 58 59 74 80 83 
5 0 3 11 33 32 
5 24 25 28 98 10 
5 12 13 104 105 94 
5 91 107 112 113 108 
6 9 27 95 92 11 33 
5 14 16 15 34 85 
5 40 44 37 89 93 
5 47 55 60 84 87 
6 18 17 31 8 118 119 
6 10 24 13 104 106 72 
6 19 25 28 29 97 96 
5 15 26 115 114 34 
7 16 15 26 40 44 31 17 
5 43 49 86 119 118 
5 14 18 119 86 85 
4 3 11 92 4 
5 74 75 2 88 80 
7 35 50 57 45 69 76 71 
6 85 86 49 90 114 34 
5 29 97 99 91 107 
5 23 22 21 79 78 
5 5 23 78 82 42 
5 9 27 21 79 73 
5 22 21 27 95 20 
5 23 22 20 6 5 
5 6 20 95 92 4 
4 14 16 17 18 
4 26 40 93 115 
6 37 38 43 49 90 89 
5 19 12 13 24 25 
5 2 39 7 46 75 
6 60 70 77 58 83 84 
5 72 106 109 108 113 
5 19 12 94 100 96 
5 28 29 107 112 98 
5 62 63 30 68 67 
6 45 46 75 74 59 69 
4 50 51 56 57 
5 58 59 69 76 77 
5 64 65 61 67 68 
4 70 71 76 77 
5 78 79 73 81 82 
5 83 84 87 88 80 
5 89 90 114 115 93 
7 99 100 94 105 109 108 91 
4 96 97 99 100 
5 102 103 101 117 116 
4 104 105 109 106 
