# vtk DataFile Version 2.0
polydata
ASCII
DATASET POLYDATA
POINTS 122 double
3.40072820798082 5.46126792368286 1.075603795839 
4.82449219447746 3.54941944413989 1.45101645327671 
1.65326489925234 6.25942673181284 3.65484549830807 
3.78496039488227 5.44327771848731 1.62019896681784 
3.75362079870045 5.14267876468577 1.93085127753046 
2.88704533089161 4.67892913441733 1.4714208454773 
3.39712781407545 4.74177598448453 1.94230612065206 
2.14733541556373 6.16323483995333 3.1263656999653 
2.55700317440613 1.1489507689364 2.18396268937743 
3.8420741638869 4.78061142103455 0.697638731457545 
5.63938156575629 1.20921495996452 3.85281798235952 
4.07097859553901 5.33450135365655 1.52668825473438 
4.64204567442855 2.05046143740129 4.08954782077454 
4.7226453773293 1.57723391251183 3.91809631748603 
2.5512408761504 2.42525785816666 2.08169276412519 
1.84169038955089 2.38775001590862 1.79522974032057 
2.43544184439086 2.35106519320423 1.80109080953197 
2.59036860863991 2.0179172675423 1.75677845069495 
2.79242364533948 1.99935348301073 2.16261783696508 
5.09084649486766 2.18062145886773 4.373679273124 
3.64658488819672 4.37589523971669 1.87409892343361 
3.7317358883209 4.2671768064123 1.0366235837834 
3.46162363483368 4.25390469894404 1.53832870835759 
2.88918359923871 4.53492609310271 1.39591496570366 
5.28376380265491 1.44321220680074 4.14077354600232 
5.41903267887285 1.68746723797793 4.29772458460556 
1.35763469983117 1.77369681142303 1.55813142003792 
3.94085363529577 4.42837154760199 1.05982584003268 
5.93662516583056 1.73680922938638 4.1552287550376 
6.01704155283286 2.23647830992508 3.95590130656928 
4.29361585739968 3.47386367066198 2.68407162006454 
2.35352976451689 1.5691633685102 1.63859259611315 
3.53813776148199 5.43173530033758 0.847402362295912 
3.86014996323117 5.28833330763753 0.92442692700064 
1.7929973241461 2.41494504428226 1.95139687616585 
4.86583889368491 2.54299935387132 1.8597531463602 
1.89274545324931 0.978439243696982 2.0102129927195 
2.33817128277373 0.993651172331703 2.29553217059955 
2.03533880973635 6.33603774125635 3.49651054546474 
1.45514036860711 1.49914158055255 1.49915304683602 
5.14615991543291 2.49908520066864 2.53853524699708 
2.85947556526931 5.01613173673566 1.09040483588072 
2.35764649291703 1.15920818362105 2.55396475292658 
1.84529728217178 1.36639282452933 1.5302561851568 
2.26406159436419 5.59634711876534 3.15844982174473 
2.03259441575976 6.02280953977585 3.130158355292 
2.39482425359299 6.15789323201118 4.14372782481577 
2.36408427093726 6.25798142552342 3.6749755702852 
1.8488570988653 1.55529705864677 2.62297291010368 
2.6652439431267 6.02841599515656 3.26317843244719 
5.20455528866763 3.03889893622001 1.47410257332267 
5.37437516851682 2.96993192014132 1.80023707551259 
4.80987962120851 3.68059921860012 1.76325111937375 
2.6271493793933 5.9369333885937 4.28125502479381 
2.57888300937018 6.01159237521254 3.12816727998294 
2.53945057962234 5.60191983951081 3.0855593860766 
1.71637470158675 5.57777426053894 4.2626684436563 
1.63225577895516 5.58397810507988 3.92675104854787 
2.50640215483519 5.81206575926451 4.45098733640244 
4.49814956960864 2.52672060743696 2.27240817282032 
4.16232500778235 3.43314120424372 1.94713919385903 
4.23810283864796 3.65537744141231 2.09307946411708 
4.49185108801963 2.76246135611837 3.00278603864437 
4.65632812907282 2.41950224518202 2.63601013171724 
5.21732639661189 2.53799466821358 2.01710827973391 
4.11480061077109 2.98528781780479 2.32022360570064 
4.11154796595752 3.13072034921051 2.74656905407658 
2.12075425494565 5.35204292262667 3.53436351648953 
2.56877216877318 5.43487107911424 4.3660949609512 
5.56979237849899 1.19652486712445 3.54786563196085 
3.35360068779264 4.62042949546758 0.348638723379386 
1.45383904255102 5.9028370373983 3.88274648421988 
1.60627615900146 6.1655263351836 3.58625634524803 
2.45881425536798 5.151605196421 3.79326071073374 
2.34055215901977 5.31640719204042 4.27814392944554 
2.84436951055473 4.63394116859019 0.588478958636903 
3.28448313577359 4.4997943336073 0.424081680238094 
1.4336517614549 6.01817600458375 4.16575389030039 
3.14290195880574 4.89096306044186 0.364997573161766 
2.82206897209248 4.76104922792981 0.559141835212075 
1.62299574158478 5.82260919571062 4.38034366310677 
1.90536439574836 6.0322596308893 4.50160331116885 
2.19741376220254 2.40684523736613 2.27281135879612 
2.22966122584156 2.03651051252859 2.55808826093509 
1.89847367899699 6.11437261105446 4.43334707932101 
1.53872294681097 6.15061262169128 4.15235076144095 
1.60232339986143 1.07111136809741 2.10878121164962 
1.62676616570436 1.49548214236942 2.4939128366406 
5.72480518511129 2.13730466340845 3.37766280271047 
4.12343476693257 4.97378746119309 1.79715228107301 
1.27244774918013 1.35875298695661 1.70631366879262 
4.70545359052115 2.26164541548685 3.81670342826678 
4.10823346096357 4.64286971126964 1.71103041174052 
5.1992351700754 2.45518280249427 4.32432497532082 
5.7378525656545 2.5312750435555 4.0183701567218 
6.10059137069682 1.43439914745431 3.95060929008582 
5.48295089240673 2.52337991409512 3.69903517617345 
4.99179369924706 2.53374082837327 3.903038119713 
5.20258213448888 2.77779334896589 2.68247072447084 
4.70701293959894 3.38576779029671 2.78440333326261 
4.80298917688914 2.97344582285815 2.9831823880943 
4.69055069066807 1.51563914436885 3.59960381780777 
4.72608753613441 1.86253798371423 3.44612133189488 
5.08455913398947 1.34751262991245 3.36671509519793 
6.15962302759053 2.06876623631922 3.58280537410373 
5.59872590678666 1.85137039982504 3.24599160452724 
5.11114869901648 1.69727866375997 3.24366149853867 
4.55029399234528 3.34338601237993 1.45764698627436 
4.86787277345817 2.85721069278044 1.48705498678462 
6.25263131839353 1.55904728933847 3.60167759731983 
5.91525312232019 1.44598076584115 3.36810274366051 
1.32256670905758 1.83123785574421 2.12352645548722 
1.17008895428804 1.6613680860448 1.79194938175844 
5.1558376341413 3.47539564591907 2.14889006901301 
5.33786069564519 3.24507082596009 2.13080152446046 
2.65099642631558 1.33596023825179 2.43518333514383 
2.70363364136853 1.76320039717314 2.42493618489475 
3.08580370307638 5.47294579847333 3.85839983680804 
3.06436787340868 5.31471219481589 3.91631100655123 
2.97047649228874 5.19005079805949 3.67643907326419 
3.06536019690446 5.48386029783722 3.55908521927053 
3.01230889632639 5.32475720891591 3.48856404655702 
POLYGONS 71 437
5 53 58 68 118 117 
5 0 32 78 79 41 
6 35 59 65 60 107 108 
5 30 66 62 100 99 
5 30 61 52 113 99 
6 50 51 114 113 52 1 
5 51 64 40 98 114 
5 62 63 40 98 100 
5 1 52 61 60 107 
4 1 50 108 107 
5 35 59 63 40 64 
5 50 51 64 35 108 
6 46 47 49 120 117 53 
6 2 38 47 46 84 85 
6 0 3 4 6 5 41 
5 7 38 47 49 54 
5 7 45 44 55 54 
4 8 37 42 115 
5 32 33 9 70 78 
5 10 69 110 109 95 
5 8 31 43 36 37 
5 56 57 71 77 80 
5 0 3 11 33 32 
5 24 25 28 95 10 
5 12 13 101 102 91 
5 88 104 109 110 105 
6 9 27 92 89 11 33 
5 14 16 15 34 82 
5 39 43 36 86 90 
5 46 53 58 81 84 
6 18 17 31 8 115 116 
6 10 24 13 101 103 69 
6 19 25 28 29 94 93 
5 15 26 112 111 34 
7 16 15 26 39 43 31 17 
5 42 48 83 116 115 
5 14 18 116 83 82 
4 3 11 89 4 
5 71 72 2 85 77 
6 44 55 121 119 73 67 
6 82 83 48 87 111 34 
5 29 94 96 88 104 
5 23 22 21 76 75 
5 5 23 75 79 41 
5 9 27 21 76 70 
5 22 21 27 92 20 
5 23 22 20 6 5 
5 6 20 92 89 4 
4 14 16 17 18 
4 26 39 90 112 
6 36 37 42 48 87 86 
5 19 12 13 24 25 
5 2 38 7 45 72 
6 58 68 74 56 80 81 
5 69 103 106 105 110 
5 19 12 91 97 93 
5 28 29 104 109 95 
5 60 61 30 66 65 
6 44 45 72 71 57 67 
5 54 55 121 120 49 
5 56 57 67 73 74 
5 62 63 59 65 66 
5 73 74 68 118 119 
5 75 76 70 78 79 
5 80 81 84 85 77 
5 86 87 111 112 90 
7 96 97 91 102 106 105 88 
4 93 94 96 97 
5 99 100 98 114 113 
4 101 102 106 103 
5 118 119 121 120 117 
