# vtk DataFile Version 2.0
polydata
ASCII
DATASET POLYDATA
POINTS 122 double
3.35024732564017 5.49740753153981 1.12184714535216 
4.83095232985916 3.50450353074842 1.53596016934716 
1.70541630019102 6.26466983858883 3.68871932178194 
3.73798832164552 5.41612789229267 1.60298985706346 
3.72013553943336 5.13171113220747 1.8770675944278 
2.87060455154077 4.72130568418478 1.51467883529891 
3.38490286856527 4.7619159547295 1.91848846274254 
2.1648598703736 6.15532883005582 3.18974459660311 
2.52361246297179 1.18015575531224 2.1686027367044 
3.91052991818167 4.79101141331537 0.687198168915619 
5.61974451930718 1.21649541348835 3.88491376502454 
4.01676634198359 5.30335537663251 1.49993541114475 
4.71754954500395 2.02681647265282 4.07079017602137 
4.76339705692154 1.58140570639054 3.93360539615892 
2.48168148158895 2.36554265822438 2.07202957668904 
1.85114723094004 2.35681554831131 1.76007943052644 
2.38117581178815 2.31939268109943 1.76146252721663 
2.57510481854148 1.97562305324401 1.70098498552457 
2.71616956441298 1.99105483252475 2.13909622053673 
5.11167173158913 2.15885714144371 4.36914855309157 
3.63451452320077 4.39150572387048 1.82020176466172 
3.7258096307848 4.21337328894761 1.04250644742848 
3.45182307754045 4.20433402398831 1.52241096351942 
2.89602134445566 4.49618519251156 1.38748346317641 
5.26650863082301 1.3915991658759 4.19895383498003 
5.42572048031962 1.68194445035407 4.39965930136943 
1.42232269751472 1.77801721021344 1.57984733111709 
4.00725499548716 4.40689856773342 1.06458219026491 
5.92818549434674 1.73958796287336 4.21094088629884 
5.97909353029205 2.22922304228277 3.97986184666206 
4.31870102463442 3.48008838176 2.63787547675892 
2.38984610831631 1.54674457614069 1.58096677839549 
3.53831795716952 5.43980334301662 0.839246818184582 
3.91420040722058 5.28435183957703 0.90945855863365 
1.76969723894166 2.4062710459445 2.0252317799831 
4.80903042487663 2.51190048658281 1.81310824910674 
1.90655017371814 0.997727525640412 2.0184569064605 
2.30890847229656 1.05309706691085 2.27393781827663 
2.06116402498029 6.37013327195887 3.53467939623954 
1.50442673934909 1.52031419516838 1.51428523581308 
5.1168318758236 2.5436808485734 2.46699528858161 
2.84718864435102 5.07680392242443 1.13786441469726 
2.32841548698215 1.2010265941722 2.51496443084286 
1.87928070503651 1.35692720201726 1.49761024217068 
2.22182662230017 5.55712423453805 3.16565832426319 
2.0191550433197 5.99429030583698 3.17915828662451 
2.4373060513565 6.25054821272613 4.1371556756659 
2.41001641283295 6.34612628459769 3.72316066655707 
1.8128340544877 1.56507111826885 2.69339883389573 
2.67085420625361 6.06469710746423 3.32065121484854 
5.1557482482232 3.06508365866111 1.53969473746927 
5.36373211579324 2.99514317045506 1.81099363874969 
4.83260938488694 3.6972814699648 1.79927166618563 
2.65757897885299 5.98617304644975 4.27108315541051 
2.55438094943165 6.02245449683868 3.17698921132403 
2.50846406568239 5.59984069790827 3.13905095415074 
1.73867340995247 5.55902035878495 4.24607456270635 
1.63311054600471 5.54803537488729 3.90756527134428 
2.50295976920551 5.82397688764084 4.44561262013142 
4.42699444230832 2.4758416656661 2.21885817823428 
4.14028835534793 3.37868072215331 1.9118834212833 
4.26875951809686 3.63326990771972 2.09427070661236 
4.488369559784 2.83840327063387 2.8678759434087 
4.61977924156133 2.4631186566148 2.56027074844669 
5.18915372613872 2.55624148227227 2.0180017966353 
4.05433468668174 2.9434805443261 2.26632792100139 
4.15014075263821 3.1170111749626 2.68331781568209 
2.07239535622918 5.29551109616002 3.51402116158284 
2.55664826649923 5.43964523515933 4.34838502519428 
5.54535591334855 1.23261491551145 3.54475692238351 
3.37668618377739 4.65315906895567 0.433204159552827 
1.5002070717444 5.8759308206627 3.87788832411114 
1.64051762449295 6.12810417508191 3.59696848307743 
2.43011897172365 5.12900637079315 3.78756093009623 
2.31999078614749 5.29832309693588 4.26629897804128 
2.91472342165345 4.64240320086021 0.666249876786454 
3.30271847379249 4.51506384175015 0.508511138489874 
1.52673999634325 5.99262458839714 4.14259649915755 
3.1862153650882 4.89485892854706 0.466703418044031 
2.89687001921334 4.7842689502934 0.638522385144941 
1.67210925280497 5.81826417149583 4.34418676209056 
1.93849038406485 6.02655204325515 4.46403227137613 
2.15693556866405 2.39529495412774 2.31037588025678 
2.20330582992489 2.05303592137202 2.61063218106347 
1.92955443862643 6.13873662845046 4.39539140966214 
1.61898423832615 6.14832507279692 4.13373005631712 
1.6084471754752 1.10057539504232 2.12713039448944 
1.60367396365961 1.51326382061596 2.58276628940403 
5.69177514051332 2.21131701069225 3.27004662349838 
4.04873181978666 4.98760032501903 1.73422336721964 
1.34637711493102 1.4231263194254 1.74232571586805 
4.75211103721301 2.26608664210315 3.76382139766413 
4.05818211056261 4.62539518643395 1.65482057664086 
5.22177888267685 2.42027810154106 4.2527478365707 
5.69077569324353 2.48277749375788 4.0024967712339 
6.00879456780303 1.48092364337826 3.94947276318142 
5.45419286856325 2.54855354948988 3.62872098976527 
5.01474414594751 2.51398752465074 3.83604406472914 
5.20462458074371 2.85198005300087 2.63823066728794 
4.74112691623766 3.43654833599527 2.77630246426635 
4.81311965479387 3.05282017843053 2.91128937246177 
4.75821012113397 1.55239351557709 3.61032896008344 
4.76877222630685 1.91041288230429 3.42770123100446 
5.10321458230721 1.39790988348398 3.38034720948313 
6.08103555794337 2.06053157908553 3.59501428194835 
5.55451868869493 1.92062684398258 3.1272239954644 
5.12050086971045 1.76919428254397 3.1735275802775 
4.53523114081847 3.29084303115719 1.50754204628793 
4.82345878782486 2.84624177436025 1.50752204682967 
6.09662626155741 1.6213447838185 3.61590711230053 
5.86986950917274 1.49462062229136 3.37235880781078 
1.33620574116869 1.85802176066437 2.17306787705516 
1.26054445287245 1.67559769275294 1.80911399025708 
5.20159031441038 3.56226883785082 2.17412101284142 
5.38886463320825 3.29452083346394 2.14955290636097 
2.57826546252289 1.35337502221244 2.40193498615832 
2.64785767840286 1.77002994929063 2.41531748710736 
3.03121202601614 5.52148206676692 3.84281333656099 
2.9880619208288 5.37522138032288 3.88521409010504 
2.91139857913913 5.26283501028768 3.68945723989216 
3.01758680026421 5.53741622708731 3.61235743315967 
2.94611581997401 5.37242627245486 3.54590768884063 
POLYGONS 71 437
5 53 58 68 118 117 
5 0 32 78 79 41 
6 35 59 65 60 107 108 
5 30 66 62 100 99 
5 30 61 52 113 99 
6 50 51 114 113 52 1 
5 51 64 40 98 114 
5 62 63 40 98 100 
5 1 52 61 60 107 
4 1 50 108 107 
5 35 59 63 40 64 
5 50 51 64 35 108 
6 46 47 49 120 117 53 
6 2 38 47 46 84 85 
6 0 3 4 6 5 41 
5 7 38 47 49 54 
5 7 45 44 55 54 
4 8 37 42 115 
5 32 33 9 70 78 
5 10 69 110 109 95 
5 8 31 43 36 37 
5 56 57 71 77 80 
5 0 3 11 33 32 
5 24 25 28 95 10 
5 12 13 101 102 91 
5 88 104 109 110 105 
6 9 27 92 89 11 33 
5 14 16 15 34 82 
5 39 43 36 86 90 
5 46 53 58 81 84 
6 18 17 31 8 115 116 
6 10 24 13 101 103 69 
6 19 25 28 29 94 93 
5 15 26 112 111 34 
7 16 15 26 39 43 31 17 
5 42 48 83 116 115 
5 14 18 116 83 82 
4 3 11 89 4 
5 71 72 2 85 77 
6 44 55 121 119 73 67 
6 82 83 48 87 111 34 
5 29 94 96 88 104 
5 23 22 21 76 75 
5 5 23 75 79 41 
5 9 27 21 76 70 
5 22 21 27 92 20 
5 23 22 20 6 5 
5 6 20 92 89 4 
4 14 16 17 18 
4 26 39 90 112 
6 36 37 42 48 87 86 
5 19 12 13 24 25 
5 2 38 7 45 72 
6 58 68 74 56 80 81 
5 69 103 106 105 110 
5 19 12 91 97 93 
5 28 29 104 109 95 
5 60 61 30 66 65 
6 44 45 72 71 57 67 
5 54 55 121 120 49 
5 56 57 67 73 74 
5 62 63 59 65 66 
5 73 74 68 118 119 
5 75 76 70 78 79 
5 80 81 84 85 77 
5 86 87 111 112 90 
7 96 97 91 102 106 105 88 
4 93 94 96 97 
5 99 100 98 114 113 
4 101 102 106 103 
5 118 119 121 120 117 
