# vtk DataFile Version 2.0
polydata
ASCII
DATASET POLYDATA
POINTS 122 double
3.34742839469439 5.48894497889013 1.13414562379374 
4.82812958593141 3.49604244409649 1.54825555504968 
1.70260134589525 6.25621601569191 3.70102325806731 
3.73517101652413 5.40766207352357 1.61528892540328 
3.71731786774778 5.12324913403828 1.88936190098051 
2.86778099846659 4.71284474473948 1.52697349555233 
3.38208169000031 4.75345281223903 1.93078358396876 
2.1620448264714 6.14687103648781 3.20204579013858 
2.52079701784849 1.17169499199777 2.18090357702325 
3.90770856482532 4.78254864615327 0.699494112230025 
5.6169319264517 1.20803676804006 3.8972139453028 
4.01394432235669 5.29489078819616 1.51223556772973 
4.71473335479313 2.01835554148306 4.08308594444397 
4.76058207580838 1.57294539715573 3.94590286261179 
2.47886168814609 2.35708277651955 2.08432329196533 
1.84832518453488 2.34835351300438 1.77237236817515 
2.37835628566955 2.31093174261405 1.77375625220545 
2.57228801128044 1.96715904113311 1.7132792995632 
2.71335257375919 1.98259271506851 2.15139189477571 
5.10885485622367 2.15039868360066 4.38144380012431 
3.63169184345757 4.38304286460107 1.83249663762855 
3.72298530560511 4.20490977927229 1.05479936284031 
3.44899831849215 4.19587008343861 1.53470313069013 
2.89319758157076 4.48772211410919 1.39977636748488 
5.2636961685967 1.38314036420539 4.2112529580758 
5.42290630592012 1.67348516748903 4.41195626399908 
1.41950665919378 1.76955904287257 1.5921420360475 
4.00443240522657 4.39843571978937 1.07687621390994 
5.92537061916092 1.7311300801223 4.22323807142636 
5.97627647970567 2.22076590814296 3.99215734337206 
4.31587800136767 3.47162570773685 2.65016792401678 
2.38703143786263 1.53828310288761 1.59326309880403 
3.53549887945574 5.43134075590447 0.851544686803172 
3.91137922880065 5.27588860092813 0.92175582830187 
1.76687571767067 2.3978093430735 2.03752284876169 
4.80620932483647 2.50343669300956 1.82540413026925 
1.90373788081873 0.989267246986749 2.03075684210234 
2.30609606404078 1.0446382494367 2.28623762890581 
2.05834857999983 6.36167804191664 3.54698330631918 
1.5016129868083 1.51185351260062 1.52658020868757 
5.11401206544757 2.53521867819032 2.47929006608285 
2.8443661322985 5.06834160344169 1.15016245257125 
2.32560241779455 1.19256572488521 2.52725926822902 
1.87646779924925 1.34846662442415 1.50990644888036 
2.2190098186243 5.5486669682245 3.17795942923526 
2.0163394521274 5.98583237310946 3.19145955919021 
2.4344906762961 6.24209304347426 4.14945695172367 
2.40720125899049 6.33767032732367 3.73546446668808 
1.81001620216273 1.55661236436398 2.70569489114805 
2.66803921194024 6.05623867675357 3.33295279456856 
5.15292628226273 3.05662172413262 1.55198968986292 
5.36091099244338 2.98668105651835 1.82328923724211 
4.82978647753155 3.68881922047059 1.81156623164575 
2.65476244171176 5.97771747654893 4.28338372036048 
2.55156522493923 6.01399608492189 3.18929030811556 
2.50564744846124 5.59138274729446 3.151352020475 
1.7358545375356 5.55056649371704 4.25837397004817 
1.63029213478979 5.53958232686172 3.91986692485674 
2.50014281280356 5.815521761948 4.45791293560685 
4.42417518018116 2.46737766356589 2.23115183846357 
4.13746633507016 3.37021785704663 1.92417665488921 
4.26593731146948 3.62480712012123 2.10656423725206 
4.48554979870353 2.82994071983369 2.88017001078216 
4.61696032182446 2.4546556230502 2.57256551106744 
5.1863334177037 2.5477787916959 2.03029780223985 
4.05151290530192 2.93501862735109 2.27862085507117 
4.1473185358661 3.10854986810688 2.69561034547537 
2.06957903334675 5.28705535632462 3.5263202050042 
2.5538299745221 5.43118954559142 4.36068450017921 
5.54254313546804 1.22415480374093 3.55705665734183 
3.37386361191106 4.64469715752143 0.445498455939256 
1.49739041073573 5.86747576510562 3.8901899360179 
1.63770113628686 6.11964767868954 3.60927084414247 
2.42729893055575 5.12055066934712 3.79985753975479 
2.31717075506237 5.28986755154756 4.27859777061942 
2.91190000985124 4.63394195754668 0.678544076939028 
3.2998957828876 4.50660213036017 0.52080482952924 
1.52392393279803 5.9841708541434 4.15490113077989 
3.1833935455825 4.88639702405918 0.478998352929259 
2.89404703986321 4.77580691861081 0.650817245917382 
1.66929070012239 5.80981255842725 4.35648766116723 
1.93567327467189 6.01809953599694 4.47633373724943 
2.15411614171594 2.38683495974722 2.32266880073851 
2.20048684847604 2.04457618315826 2.62292686238222 
1.92673780862623 6.13028265741196 4.40769406594401 
1.61616904000758 6.13987180879507 4.14603460152307 
1.60563281146277 1.09211583257698 2.13943049858906 
1.60085905920416 1.50480502700389 2.59506409254473 
5.68895793918445 2.20285667269462 3.2823418126468 
4.04590813163613 4.97914022596065 1.74651973292488 
1.34356142098322 1.41466554203806 1.75462301224672 
4.74929424716494 2.25762537522026 3.77611615640862 
4.05535845815133 4.61693136954209 1.66711592382527 
5.21896078895642 2.41181884159264 4.26504276004109 
5.68795779911387 2.47431915509163 4.01479152228421 
6.00598048001507 1.47246627549528 3.96177205941776 
5.45137443922904 2.5400934768677 3.64101522634707 
5.01192599061416 2.50552672804093 3.84833824043308 
5.20180429648555 2.84351826009611 2.65052462815111 
4.73830611592992 3.42808564412702 2.78859592971836 
4.81029933699824 3.04435819160101 2.92358308887169 
4.75539541692969 1.54393198884063 3.62262749534746 
4.76595675798101 1.90195170206527 3.43999776885446 
5.10040126937563 1.38944779678828 3.39264607130483 
6.07821935124136 2.05207365025167 3.60731058725904 
5.55170289296301 1.91216623699956 3.13952043900278 
5.11768670298289 1.76073298778861 3.18582429371483 
4.53240760462454 3.28238103449973 1.51983711091862 
4.82063690232942 2.83777912065427 1.51981691844226 
6.09381188665745 1.61288683979042 3.62820513636724 
5.86705591016529 1.48616098428745 3.38465750100913 
1.33338772083612 1.84956297189757 2.18536025428524 
1.25772735293843 1.66713913262324 1.82141079032159 
5.19876721546558 3.55380674716022 2.18641551636412 
5.38604312292283 3.28605720637658 2.1618471566499 
2.57544816186512 1.34491159980827 2.4142311114618 
2.64504063851085 1.76156958409396 2.42761262186782 
3.0283951418888 5.51302400595908 3.85511190396566 
2.98524504260596 5.36676466268412 3.89751199609639 
2.90858120489446 5.25437834840273 3.70175379605945 
3.0147699657066 5.52895817850349 3.62465755494226 
2.94329805532411 5.36396738380466 3.55820730302019 
POLYGONS 71 437
5 53 58 68 118 117 
5 0 32 78 79 41 
6 35 59 65 60 107 108 
5 30 66 62 100 99 
5 30 61 52 113 99 
6 50 51 114 113 52 1 
5 51 64 40 98 114 
5 62 63 40 98 100 
5 1 52 61 60 107 
4 1 50 108 107 
5 35 59 63 40 64 
5 50 51 64 35 108 
6 46 47 49 120 117 53 
6 2 38 47 46 84 85 
6 0 3 4 6 5 41 
5 7 38 47 49 54 
5 7 45 44 55 54 
4 8 37 42 115 
5 32 33 9 70 78 
5 10 69 110 109 95 
5 8 31 43 36 37 
5 56 57 71 77 80 
5 0 3 11 33 32 
5 24 25 28 95 10 
5 12 13 101 102 91 
5 88 104 109 110 105 
6 9 27 92 89 11 33 
5 14 16 15 34 82 
5 39 43 36 86 90 
5 46 53 58 81 84 
6 18 17 31 8 115 116 
6 10 24 13 101 103 69 
6 19 25 28 29 94 93 
5 15 26 112 111 34 
7 16 15 26 39 43 31 17 
5 42 48 83 116 115 
5 14 18 116 83 82 
4 3 11 89 4 
5 71 72 2 85 77 
6 44 55 121 119 73 67 
6 82 83 48 87 111 34 
5 29 94 96 88 104 
5 23 22 21 76 75 
5 5 23 75 79 41 
5 9 27 21 76 70 
5 22 21 27 92 20 
5 23 22 20 6 5 
5 6 20 92 89 4 
4 14 16 17 18 
4 26 39 90 112 
6 36 37 42 48 87 86 
5 19 12 13 24 25 
5 2 38 7 45 72 
6 58 68 74 56 80 81 
5 69 103 106 105 110 
5 19 12 91 97 93 
5 28 29 104 109 95 
5 60 61 30 66 65 
6 44 45 72 71 57 67 
5 54 55 121 120 49 
5 56 57 67 73 74 
5 62 63 59 65 66 
5 73 74 68 118 119 
5 75 76 70 78 79 
5 80 81 84 85 77 
5 86 87 111 112 90 
7 96 97 91 102 106 105 88 
4 93 94 96 97 
5 99 100 98 114 113 
4 101 102 106 103 
5 118 119 121 120 117 
