# vtk DataFile Version 2.0
polydata
ASCII
DATASET POLYDATA
POINTS 122 double
3.39858681239591 5.45883632079454 1.08770901622949 
4.82236262144022 3.54698809951296 1.46311875023283 
1.65113472777599 6.25700327758998 3.66695565226556 
3.78282491368278 5.44084478901377 1.63230800192351 
3.75148729575577 5.14024964402194 1.94295564914558 
2.8849081140174 4.67650053554134 1.48352464957852 
3.39499644207964 4.73934851415492 1.95441183612545 
2.14520690679245 6.160809087134 3.1384741914108 
2.55487959897805 1.14652291946637 2.19606961879988 
3.83993562551724 4.77817728004867 0.709741765489969 
5.63726061134127 1.20678891648571 3.86492523030238 
4.06884008719161 5.33206801099942 1.53879655676905 
4.63992993835153 2.0480329981487 4.10165048395436 
4.72052754248939 1.57480619295849 3.93020096190142 
2.54911918838779 2.42283185809073 2.09379830895254 
1.83956697984122 2.38532338654066 1.80733408453723 
2.43331818680663 2.34863811518976 1.81319351251555 
2.58824504905901 2.01548877471911 1.76888131246147 
2.79030323110751 1.99692520211614 2.17472442602244 
5.08872890528978 2.17819252375803 4.38578083615887 
3.64445574607557 4.37346641446607 1.88620102237872 
3.72960036329472 4.26474492075619 1.04872467937009 
3.45949136560933 4.25147316210522 1.5504283261073 
2.88704679968457 4.53249577186983 1.40801744592615 
5.28164459778946 1.44078477252329 4.15287840345148 
5.41691385553748 1.68504077943015 4.30982951584032 
1.35550974016942 1.77127024305781 1.57023865673642 
3.93871518691834 4.42593779587704 1.07192713810378 
5.93450921920821 1.73438316459513 4.16733523691048 
6.01492671599647 2.23405689336416 3.96800714791056 
4.29149276047358 3.47143289102155 2.69617205604414 
2.35140523649104 1.56673578355303 1.6506973661586 
3.53599596408669 5.42930308785314 0.859507488730535 
3.85801061790628 5.28589972366868 0.936531570751502 
1.79087475771982 2.41251877546174 1.96350140616127 
4.86371412295499 2.54056943638035 1.87185644870856 
1.89062002889735 0.976014575178379 2.02232060709826 
2.33604916571232 0.991225724795313 2.30763956203468 
2.0332118042792 6.33361288324556 3.50861884119832 
1.45301417200012 1.49671674048494 1.51126107611757 
5.14404173277714 2.49665559350674 2.55063956178129 
2.85733623246058 5.01370208679648 1.10251042954742 
2.35552575589344 1.1567824608045 2.56607115153423 
1.84317221978147 1.36396658025679 1.54236333507884 
2.26193096247482 5.59392103378248 3.17055760980966 
2.03046506174728 6.02038382426033 3.14226694489617 
2.39269482247422 6.15546824812259 4.15583547472195 
2.36195585826582 6.25555628285777 3.68708303153659 
1.8467382571651 1.55287311611387 2.63508031160371 
2.66311500164654 6.02598970196214 3.27528571237244 
5.20242891512804 3.03646734950525 1.48620433314132 
5.37225156526437 2.96750033799944 1.8123420004866 
4.80775073920774 3.67816758953164 1.77535421364899 
2.62501736787271 5.93450902777064 4.29336154066918 
2.5767533910369 6.00916599952482 3.14027449545652 
2.53732046120883 5.59949357340433 3.09766672331974 
1.71424347730351 5.57535116326985 4.27477559009456 
1.63012513255249 5.58155531959029 3.93885952993145 
2.50426771527964 5.80963944821142 4.46309587502564 
4.49602869207516 2.52429244692152 2.28450880368302 
4.16020017772372 3.43070968870351 1.95923998948081 
4.23597909961355 3.65294623215056 2.10518128213301 
4.48973432693451 2.76003092960127 3.01488900115111 
4.65421029178423 2.41707385192962 2.64811518094607 
5.21520587260304 2.53556512276404 2.02921283855578 
4.11267838145361 2.98285926195762 2.3323236317803 
4.10942681914169 3.12829276632564 2.75866955319375 
2.11862482279127 5.34961820402813 3.54646896004233 
2.56663725622996 5.43244493407088 4.37820311877902 
5.56767146978455 1.19409861627853 3.55997183562794 
3.35146155056024 4.61799500278779 0.360741354097887 
1.45170875549579 5.90041594123747 3.89485533385107 
1.60414585639785 6.16310306771964 3.59836682002902 
2.45668437692249 5.14918012069293 3.80536542092064 
2.33842093005733 5.31398315512921 4.29025285884173 
2.84222986353885 4.63151029295468 0.600581436497446 
3.28234583593338 4.49736243447444 0.436182240292241 
1.43152171641889 6.01575547770178 4.17786409512663 
3.14075956205029 4.88853257574209 0.37710179696062 
2.81992855429173 4.75861945704304 0.571244181102023 
1.62086354773211 5.82018945542501 4.39245258114992 
1.90322941461423 6.02983596010113 4.5137121062169 
2.19529471460579 2.40441955332166 2.28491674906732 
2.22754271493506 2.03408529495251 2.57019433256168 
1.89633917885121 6.11194950328644 4.44545571903092 
1.53659245179147 6.14819048368493 4.16446092012686 
1.60020148830219 1.06868681325379 2.12088917753402 
1.62464676568941 1.49305852212423 2.50602070466301 
5.72269063388158 2.13488006491076 3.38976937800342 
4.12129398351257 4.9713618459585 1.80925627534741 
1.27032395393408 1.35633049383286 1.71842089705015 
4.70333816212002 2.25921616886557 3.82880638715307 
4.10609237839564 4.64043491640606 1.72313201671109 
5.19711848681043 2.45275591569715 4.33642596146374 
5.73573957098887 2.5288509845921 4.03047477147447 
6.09847423873594 1.43197580556013 3.96271788170902 
5.48083721577654 2.52095374194246 3.71113866315554 
4.98967940840977 2.53131264367974 3.91514151162172 
5.20046397660812 2.77536511651889 2.69457543117225 
4.70489405883433 3.38333664004401 2.7965050517346 
4.80087219684501 2.97101584519502 2.99528580135246 
4.68843309020132 1.51321128435136 3.61170816194585 
4.72397140361036 1.86010945320303 3.45822564749071 
5.08243977520359 1.34508497153457 3.37882107916863 
6.15750883236437 2.06634312158015 3.59491048429435 
5.59660984208596 1.84894331164414 3.25809818937592 
5.10902959246273 1.69485111779295 3.25576732408512 
4.54816557319064 3.34095487646373 1.4697486589527 
4.86574651024848 2.85477854113368 1.4991572426768 
6.25051533196048 1.55662408829153 3.61378446847957 
5.91313411116395 1.44355620279487 3.38020848584445 
1.32044632879471 1.82881454452256 2.13563337537088 
1.16796690698652 1.65894332475013 1.80405545828316 
5.15371398632039 3.47296313984259 2.16099502100365 
5.33573744119634 3.24264003151954 2.14290667648476 
2.64887427415137 1.33353228600459 2.44728924027493 
2.70151372410501 1.76077477831471 2.43704146542098 
3.08367387881218 5.47051869899797 3.87050366822269 
3.062237941721 5.31228625683069 3.92841389858426 
2.96834775562844 5.18762625699032 3.68854345213859 
3.06323072890185 5.48143327057589 3.57119170648807 
3.01017952559344 5.32233100297675 3.50067087692806 
POLYGONS 71 437
5 53 58 68 118 117 
5 0 32 78 79 41 
6 35 59 65 60 107 108 
5 30 66 62 100 99 
5 30 61 52 113 99 
6 50 51 114 113 52 1 
5 51 64 40 98 114 
5 62 63 40 98 100 
5 1 52 61 60 107 
4 1 50 108 107 
5 35 59 63 40 64 
5 50 51 64 35 108 
6 46 47 49 120 117 53 
6 2 38 47 46 84 85 
6 0 3 4 6 5 41 
5 7 38 47 49 54 
5 7 45 44 55 54 
4 8 37 42 115 
5 32 33 9 70 78 
5 10 69 110 109 95 
5 8 31 43 36 37 
5 56 57 71 77 80 
5 0 3 11 33 32 
5 24 25 28 95 10 
5 12 13 101 102 91 
5 88 104 109 110 105 
6 9 27 92 89 11 33 
5 14 16 15 34 82 
5 39 43 36 86 90 
5 46 53 58 81 84 
6 18 17 31 8 115 116 
6 10 24 13 101 103 69 
6 19 25 28 29 94 93 
5 15 26 112 111 34 
7 16 15 26 39 43 31 17 
5 42 48 83 116 115 
5 14 18 116 83 82 
4 3 11 89 4 
5 71 72 2 85 77 
6 44 55 121 119 73 67 
6 82 83 48 87 111 34 
5 29 94 96 88 104 
5 23 22 21 76 75 
5 5 23 75 79 41 
5 9 27 21 76 70 
5 22 21 27 92 20 
5 23 22 20 6 5 
5 6 20 92 89 4 
4 14 16 17 18 
4 26 39 90 112 
6 36 37 42 48 87 86 
5 19 12 13 24 25 
5 2 38 7 45 72 
6 58 68 74 56 80 81 
5 69 103 106 105 110 
5 19 12 91 97 93 
5 28 29 104 109 95 
5 60 61 30 66 65 
6 44 45 72 71 57 67 
5 54 55 121 120 49 
5 56 57 67 73 74 
5 62 63 59 65 66 
5 73 74 68 118 119 
5 75 76 70 78 79 
5 80 81 84 85 77 
5 86 87 111 112 90 
7 96 97 91 102 106 105 88 
4 93 94 96 97 
5 99 100 98 114 113 
4 101 102 106 103 
5 118 119 121 120 117 
