# vtk DataFile Version 2.0
polydata
ASCII
DATASET POLYDATA
POINTS 1049 double
4.67299826397633 2.38943452491112 4.78425791377943 
4.96722328462206 1.79679577259974 4.01504504378032 
4.72197925935958 2.92670829892442 4.61476365303976 
5.05685898583529 2.11858528148329 4.83652429013643 
5.58129066787032 2.88176026295969 3.74380252189431 
5.54397834814419 2.4251508119307 4.79980763234049 
4.92213759180986 1.79901822040495 4.52957360565596 
5.14716842530835 1.72612961599279 4.16348122039863 
5.13552453869076 2.19730289294105 3.62355554288334 
5.47099653452509 2.24763190504624 3.65933193733861 
2.97907008137391 3.53760109108386 5.12983276016809 
3.30994290879863 3.68009889523775 4.95529130341706 
3.28422411056211 3.99748843402534 0.27738735610346 
0.64533498262911 4.81315003668857 5.54531102641411 
1.85042697517706 1.10816998325083 2.9166458663173 
0.73445536285713 0.49676809656491 2.89613680147003 
1.31730460663814 1.56722099967014 2.41179162644159 
1.53798422437117 0.49821511308542 2.64481239486458 
0.467466406656 1.27777282498302 2.65261402081896 
0.61161035399077 0.84022322587288 2.50378787039192 
1.80979578955332 0.74949092106624 3.00950794345831 
1.45149952571223 1.43171573728143 3.29120162495021 
1.46073810582509 0.71518973422218 3.4689016154254 
1.2881199115444 1.11669729771484 3.55889988167633 
1.71318201899744 1.19099238059605 2.47715833004533 
2.86304155054598 4.53292562374061 3.11889968335671 
2.7583927660174 4.73623942929328 2.81924167165619 
3.77489297557335 5.35474596842815 3.6742766778702 
3.07262054060163 4.64828413857318 3.58623075090667 
2.63422052768371 5.20269542704276 2.71556736131564 
2.99726923181836 4.63352049944452 2.91352993559081 
2.64354704113516 4.63005290745689 3.0238926084596 
3.39939338909125 5.48617694216766 3.99127277868403 
2.38745957858087 4.98708662056253 3.30938063400328 
3.92973415656708 5.65257139951504 1.27551995903679 
3.96757470903781 5.28558547626076 2.44994927914325 
4.03622565068007 5.1953347955821 1.743903759674 
3.65219434223192 5.92305723336555 1.47834314835072 
0.75207183067508 1.31593567622406 4.26591007387717 
0.60189623004006 0.98379337490835 4.60850175274055 
0.83019571432633 0.89165964431111 4.81638868386841 
1.43164642120448 0.36547779287495 4.57614729720689 
1.121465405155 0.30350757462523 4.65768940395948 
0.50896080369442 0.41056912426101 4.05960420120888 
0.5315043532175 0.68329575760217 4.55653255762688 
0.80053616726342 0.63153160920998 4.79385808480482 
1.04890194543678 1.66480746765689 4.38897734620484 
3.07120100539689 1.53461908404996 3.72567048828169 
3.28872467254299 1.34212030776448 3.39067061842001 
2.88618034809947 2.0292236578861 3.58635444085323 
0.76700546892643 0.47170879867315 5.22250287270525 
0.80313680909802 0.93988033064969 5.41918805101253 
0.01933773313982 1.54132031979473 5.12855003569371 
0.1428904694042 1.34144954123445 4.71594071882192 
5.33277526093822 4.68124598980844 4.66557983852619 
0.01226549090413 4.00007407753158 4.14144736592657 
0.04468492344112 4.10492744921508 3.78745560994839 
5.76828874576338 3.91548496581474 4.24582094426417 
4.7767185525794 5.04860084692601 0.70529571600287 
4.21113490076139 4.91330749483041 0.67169422455872 
1.47052014797017 2.46790561025637 2.62328529720064 
0.51542877269751 2.76637791137523 2.33380697870765 
0.68531969571081 2.73981717820414 1.9471003372434 
0.73775074608671 2.79285000952141 2.56669572117634 
1.23341346390109 2.75766499695603 1.95984013276124 
1.56892463029579 1.94562672086791 2.1336233215198 
0.69129565907396 2.31074982410486 1.6464641241703 
3.0445296503672 2.4797436315766 1.6354025080514 
3.55146692498446 3.36014546765535 1.63283795198374 
4.40516261537404 2.91217796717961 1.55914836205948 
3.2283488668954 2.28590063933372 2.22077357900057 
4.45990733578935 2.52653806760137 1.79458446569431 
4.33815927177085 2.82581882515383 1.3893855377175 
3.26041263201947 3.18663988287835 2.03143551033949 
2.99299491917589 2.67967334620219 1.95281382561167 
3.27674164340198 2.10794153794754 1.91248022354185 
5.85641457122536 3.00072432653407 3.41517163147877 
5.05954979046613 3.33595387614364 3.38972968626518 
4.94210974478944 3.71626567808768 3.53175666477475 
0.21792966189173 3.76419396410131 4.14857903482411 
5.09627387807557 3.98791071113185 3.31164471344724 
0.716450736125 3.21719578272519 0.87677143416364 
0.59035731683102 3.31768749552128 0.63940556925214 
1.62657768939991 4.2548826625566 1.19806941618153 
2.184994788865 4.65562304473064 1.28566945014373 
1.97890113708974 5.35783046992835 0.56847288378361 
2.08941042888694 4.40401140387533 1.35574672747018 
2.215066501131 4.95073826271908 2.02885811803021 
1.47597940858275 4.27694685654664 1.86660844186537 
1.77764342177554 4.37416714140113 2.09687816166602 
1.9162589688775 5.14669327832526 2.17747839852429 
2.29444541309274 5.07156654500481 1.72224646145729 
1.5854264636164 4.82388270035721 2.25467235088459 
1.14575049103973 4.81842047643309 2.00669506189936 
2.04657783248114 4.41678754092912 1.98195051012537 
1.47246823196071 4.2061909806778 1.32997921093622 
1.18817234698872 4.47685231776639 1.10247503836953 
1.80866957069458 5.4885682984702 1.88632133510254 
3.00681467767117 2.34569170900932 3.90398904877704 
2.13249851289283 1.36965486293313 4.34893385039446 
2.29789727861318 1.69601936961948 4.7900427273528 
2.11554777341236 2.11648768743464 4.74320433496859 
2.44691094536679 2.45492792423938 4.63554092996416 
5.43460856592324 0.80865702386946 1.79922274551823 
5.29311660001561 0.28059127465124 2.24606978442934 
5.55180938711342 0.64546732610273 1.84872568843736 
5.09238007159142 5.45553180932872 1.43226523044794 
4.68051811953115 0.85924382711688 1.66533250142979 
3.88222868196092 2.18617234039688 5.17063444976984 
4.91586322285293 1.47158524727822 4.79440566986397 
3.75385562166019 1.82857666825226 5.30800711415973 
3.81916640038492 1.39427054588583 5.08054803508352 
3.26035864466016 0.31710845195782 3.67733656529774 
0.74740331228668 4.14110871829449 0.3195533187324 
0.53005602965435 4.07627406299692 0.58903248141941 
0.73604638390842 4.26112338128491 1.0124209221154 
3.43411989290445 3.54398265328194 1.15591845985916 
3.19656177234002 3.69029923246347 1.09933167217194 
3.91395724821314 3.19990188328311 0.58211708233058 
3.54584228330915 4.60721206652834 4.72399125922341 
2.19612813076806 1.02411832453594 1.76813227158962 
2.70017308890669 5.6407550017205 1.5595255606039 
2.68502337788652 5.17916143538255 1.69941026712553 
2.08159423176382 5.83081816850436 0.78083950834287 
3.24379376783061 0.4194100161474 1.32257414856729 
3.45980644981417 0.50745599959753 1.34828903239078 
0.93416057486266 3.36946125429703 2.8989724342165 
0.82049222672886 3.3256475903988 3.31797594071237 
5.80530879030766 2.78008217054704 2.5261980663444 
4.40772916043944 2.96653871774142 5.26467561930331 
4.63654390619094 3.08731636715672 4.72043441162001 
4.73371264857177 3.23085751335711 5.51898850686238 
5.4095059674698 3.23542704837923 1.21546905786963 
4.53889948153982 4.36150543212085 1.25011104517423 
4.99312359889044 4.695384624023 1.59085310352206 
5.77082189002433 3.66434630777195 1.71700391372615 
4.98818340446224 4.70166506715783 1.05476863366486 
5.13895642667122 4.83921529595266 1.3863841367532 
4.90283494986891 3.28153760727291 1.22987650457505 
5.85550687809984 3.82245196509129 1.55256895325017 
5.51551765264588 3.28335086128684 1.58549942485201 
4.8086720168176 3.66848065699763 0.89633105487768 
4.49508938331443 4.11557455740154 1.21330551613738 
5.10265837744233 3.60486826945237 1.91561910575633 
4.7167723503992 3.61218447436861 1.62545227651685 
5.410395888693 3.92446027054641 1.96937764561629 
5.36107133452098 4.49759103258168 1.82131794310055 
4.49105138029976 4.1056462031954 1.30036798225761 
2.09424501926237 1.85718117095929 1.78520822220091 
1.87920691379963 1.61305045770272 1.32023973512284 
1.95391443683323 1.88357488235476 2.10340141646224 
1.85723317902014 1.87430145619191 1.47593763213233 
1.72239500292189 2.54088093231135 3.08051482737888 
5.00073834371659 0.66173036846084 4.14855610143325 
5.39836270171563 1.098427953216 4.31433103054316 
4.73657873833603 1.48310315283884 3.63205395299734 
5.13178448557768 1.1390345966695 4.69918566947681 
4.71927780668713 0.75819791332725 4.6579604939531 
5.35910525063764 0.89973596358889 4.12413816658094 
5.15109559505911 5.17735674502766 4.362682037663 
5.10889557803245 5.06119766995753 4.96136286929592 
2.11147707850955 2.53348560685017 1.10848009881728 
2.42397768140406 2.75262720947343 1.28313943111781 
2.56844297688156 2.55144285482917 1.63746113641744 
2.91734187128121 2.43011372601004 1.54773684823855 
1.30012018573571 3.28816616276728 3.46689582138166 
1.4263578219363 3.37788205388646 3.62262127594484 
1.77435386730699 4.17766663116074 3.89987594994331 
2.79425845911137 1.00844844604457 0.01585558169346 
2.09592714871776 0.76424612531384 5.66480950650984 
2.08268099328953 0.41263241869393 5.1551305055223 
4.27082964628065 0.55455021791691 2.94418766966758 
4.1429518695205 1.84924873375321 3.22636204061887 
4.81619286128433 1.70589890027831 3.21698109877182 
4.53403672291597 1.87641513196627 3.05668004392851 
4.09141322121984 3.72066463804491 3.80975721911573 
4.21713762016713 3.66816483698466 3.54168416176293 
3.51532872438539 3.58578096903753 1.54121032804662 
2.23950870172619 3.21491315971218 1.45006300262062 
4.24270653330722 0.70094498394304 5.47890451708562 
4.43502629432612 0.55570181339602 4.91119550991738 
1.21174223667103 1.81247055474853 5.37516855071004 
1.09180349234854 2.01219340281683 4.98718332048586 
1.34476483767721 1.9086973143262 5.44997387055429 
0.36990663053009 2.22173332733542 5.01207040997822 
0.74402824274988 1.76366358748087 5.73604050380111 
1.30547537445287 2.26292334446651 4.94894190497882 
4.57740000517931 2.35036688545504 2.37082068881548 
3.31300681286265 3.75021962581496 3.72385189855444 
3.602910121549 2.57476807888966 3.21777938628003 
3.90828370396125 3.87578766000479 3.71058127012756 
3.46366430130605 3.80824105348106 3.85075540219955 
3.01991548610599 1.61353991269482 5.0021767132394 
2.61782769523716 1.48313627949177 5.3633921871659 
1.61934164735317 5.57719128932554 3.66696649037174 
5.75728771884007 0.77698914360984 1.91306800947886 
2.87433149702821 2.8107504390315 5.07869178292483 
2.91254131426732 2.6611185290812 5.70733676189824 
2.93098395771641 3.27279042348454 4.91084184480785 
3.65662559748799 2.3796705800498 5.18421167655931 
2.25612150803877 3.1079943848781 3.08182667458508 
1.87515309268788 2.82115083778106 3.20081770420578 
5.71673240992338 2.13506252934304 3.2891910154498 
5.08794983506701 1.80493693341509 0.63580109592114 
2.42978706664814 3.31148146460431 4.65729241390014 
2.3355049226502 3.20916061974193 4.67542350726079 
2.3397719865178 3.44654949752546 4.73096176684873 
2.26144436780272 4.10922778617895 4.33690234529322 
0.47886874153085 1.11850166428096 1.33634651683012 
0.13423974696099 2.11164570581718 5.04787911447376 
1.31743839091275 1.42194033602989 5.32681182346665 
1.69450146470404 1.67675086922692 5.54044247354808 
2.20755396644171 1.56323940319821 5.18239495400028 
2.01036774167334 1.27040854962206 5.1941430175473 
5.0459132434522 2.07697545592843 3.26351636088477 
0.59215591052716 3.7595073981446 4.44054153631164 
1.05507311620341 4.33552017015534 4.66702182538276 
0.73893931785929 4.241614658892 4.75987044554441 
4.53333401044271 3.70809675368369 5.8252230103724 
4.61962723592683 3.88396087171083 5.75474658532199 
4.99211704914578 3.75325675884975 5.21095998777628 
4.55216130760945 3.51192049990538 0.53629179105638 
5.04328735596724 2.32248145827513 0.90898998312443 
5.02767100587142 2.25783098549171 0.71321192488835 
5.58663769184958 2.76596308030547 1.04815146389655 
0.40638850784302 4.54734503501781 2.57565713336517 
4.1180172506415 3.24945826352214 2.61586190325911 
3.32740545866766 4.32058440933887 2.51264007358887 
3.97672972498763 4.1623409126709 1.91604243891542 
4.03028354493588 3.85602620037421 1.7114267637941 
5.12560294415792 3.9352527648466 2.60122429882511 
5.73193042683822 2.97890978678844 1.7091707734652 
5.40076416754436 4.08741633133511 2.40187376988782 
5.59352456044102 2.67193656888375 2.42337427026601 
5.35006327956612 4.58014465178668 2.21614450790035 
1.73116665356362 2.81778534815321 3.15825756997623 
2.3680895957599 3.45265156527544 2.76517470587498 
1.68367551712242 2.73889837599838 1.13405605448682 
1.68250912550531 3.21295015652346 2.00141802273662 
0.27918672446235 3.84339961820124 1.59515656221133 
0.40596634320401 3.65363573689324 1.78470885941115 
0.57037903996812 3.77540772911941 1.15254561742977 
0.42937111492149 3.72034123791642 0.74137412004331 
4.10300355634485 4.71694509771368 0.85184324141917 
1.01200123399621 3.76298875009981 0.10689223637069 
0.94319026471278 0.29310690521872 5.26301167674927 
1.16880220061835 0.18049651044538 4.82066625218073 
5.12917969185278 1.98103623571161 1.22494589734425 
5.78517262141543 2.64385168606084 1.31961933585752 
3.4817128323526 4.61036294854842 1.79310218997512 
0.64564407625294 3.45818038096962 1.61114408345463 
0.7306169040907 3.56199205835992 1.24149012451496 
0.44059513565407 3.03844535907823 1.72604686732862 
1.07392455044749 4.99588353032963 4.27590760471242 
1.35137944487406 4.58166093712537 5.07291705816829 
1.53012430450547 4.44016273753178 5.10316307482882 
1.52312818828445 0.23162803226624 4.75818189706295 
5.66500203595827 0.97459282693754 1.87026187800556 
5.71751277948789 1.44902375571091 2.25002220539372 
5.86047665167787 1.7541011007677 2.0888979253992 
5.51253877071442 2.05309647740621 3.05734998844875 
5.73003838799707 2.44374920904863 2.55308523555294 
5.72508503900019 1.29720152039462 2.93835184330961 
5.70861008537382 1.86880273841152 2.16454327185981 
2.97143497606026 4.09332331791054 3.67509256805424 
2.84510444861569 4.16722009383259 3.19846839347086 
2.66931155885012 3.28433562281111 2.65164619109884 
2.47356559160108 2.75521353729946 4.9184060405013 
3.8049400091786 3.65678402940379 2.99332218997554 
0.45870212367303 2.44893557528031 1.19640370987759 
0.37339981536543 2.61388197984584 1.18119731247661 
4.67864985536486 1.89579682677236 4.38715127635173 
4.24600956049279 1.78017727002154 4.4256162170808 
0.24127075356366 2.14461788599061 4.88915521325421 
3.24165494731425 4.2638161910455 4.82063967728286 
4.78383110081225 5.55893428218424 1.71658831563276 
5.00902130758265 1.39314964288756 2.96840121293596 
5.49796611706744 1.5285644221898 2.83679944213223 
0.86094561977522 5.65735116905137 5.1638004890878 
4.92198007945367 5.5204119510635 3.0867754668959 
2.91626896297408 5.77253678779736 0.76311152372257 
3.03255688476581 5.71468888670042 1.02695496834622 
3.45042797347027 4.45204736932404 4.95897385751315 
4.67902141995277 4.87020091686343 1.89169957170988 
4.83599366783107 4.76985877229815 2.32716106740026 
0.42891353762269 3.4113474464377 4.60503409992172 
3.77210187134058 5.25233033308194 2.06683860794761 
3.65797846759836 2.39297648174008 2.49647678496393 
3.58486371349876 2.22169865040202 2.9362051315446 
3.05803862748158 3.9000335342637 1.4043054316654 
2.03455683199082 1.82227384489613 5.37153664822055 
5.77377398880948 3.46851743406145 5.05004643583289 
2.76416588174862 0.47673206870088 3.95471603679981 
0.46768641080165 1.16189807984071 0.90440015183157 
1.46784426637474 2.25633642143942 5.16691418988256 
3.32952907574431 4.34473096904769 0.24281860647459 
2.14349360556241 4.1787498193315 4.33508477034178 
5.19873094614756 3.2997488339959 1.75179260936287 
4.84236569754688 3.31026178345434 1.48899319970643 
2.6047031094119 3.35786907229916 4.08977140153857 
0.82352828289437 1.86411616478098 0.51449865465138 
4.33404518902174 2.42082903772799 1.47647736035721 
0.59314604631778 1.63093929398138 4.28464577207204 
0.40102467508011 1.79115927004333 4.08704443550483 
0.92665884120541 3.67568620494593 5.53648165887072 
4.8400874713473 1.94809111049254 1.47451371072468 
4.53798481517906 1.36423111234104 1.43691253157317 
2.89144475552335 1.71493114437751 4.74053305973108 
4.02103552038471 3.32174159414496 1.85584976486022 
4.19450990823722 3.61282097761134 1.8736148466767 
1.60605058719655 2.39627040569065 2.36119117468781 
2.06168094884696 2.28505989575817 2.30706091493663 
0.6639474171196 3.92566459131485 2.16294772796975 
3.33609102304261 1.21163182596526 4.90906749472281 
3.35397269256541 1.11279297829988 4.54551576301916 
2.59609516409271 2.95854924556086 2.92301397878385 
4.6281423114765 0.21226200484 2.13358270372804 
4.17845224922774 0.20329260597322 4.81106107631094 
1.69256836669943 3.50187061202341 0.43591899679036 
1.4431592769289 3.88317954144575 0.15095425791447 
2.81512991156425 0.70674461497486 2.21079301996993 
2.76130191721756 0.47545423043482 2.56110788926454 
3.93026275913499 3.28292338133783 2.87761720997134 
3.71541297318211 3.14785934615333 2.83450091913155 
2.01898891545604 5.46713510809002 1.62334682456143 
2.25700726920252 5.77029777954357 1.53990988447237 
5.00404834235374 2.03346247643125 1.87278766018993 
5.44286412572243 2.14058592455372 1.87373999267443 
1.36551546510817 3.20526431726665 4.40243891676375 
1.86925804221032 5.36100407216571 3.18154561412893 
4.81342163470471 5.47750907616825 0.78061786045084 
5.24018902440053 3.04229985069193 3.75087937474127 
4.88024858233251 2.65488102728125 3.70622659843851 
1.27983546137206 4.51417432862654 1.00344259356867 
3.96850767319171 4.70718600965114 3.47357351908606 
3.84513178334834 4.25474931768126 3.83891883930971 
5.15459407036346 4.91765591880177 5.00563768383879 
3.217063724238 5.96997701622174 3.59450895099821 
3.52457554040461 5.77441326353087 3.79706377794852 
0.74468923196965 1.18441134515859 5.75849712998507 
4.53465552488241 5.08580583875263 5.10450416256109 
4.04276228984748 3.82226685793702 3.42050708978441 
0.48884219859595 1.89098241832259 1.81500545514024 
4.56213324137218 5.1973214937898 1.93496883119552 
5.94240290584639 1.20704250295591 2.54664728334267 
0.39317913959686 1.85956966675803 5.62781107195115 
0.24545562868524 2.1747384849817 5.15387048092008 
2.698859856137 2.77379547487582 2.05434796223673 
2.32131792226619 2.61775057761629 4.20743835424889 
3.94579920505521 1.27247566162938 1.83670117415181 
4.52745611840195 1.14977178281324 1.72355861215295 
4.53459982866699 2.63895660974924 4.201846175459 
1.49223473309018 0.53244453185847 0.97529380945782 
2.84768026948017 5.14142244974812 1.97332556565747 
3.40076041121797 4.73638578283436 1.97682050799705 
3.92885864711258 2.50227752786718 3.49999199155305 
0.96556633468164 1.06724092211599 5.58879267371603 
1.33172118102192 0.81178127160032 5.86881587141016 
1.65602775048033 1.4108186766481 5.46233317429522 
1.69717068263284 1.03033655087348 5.83695663744969 
4.15539371201755 5.64052835979477 3.61923915365829 
4.38585893982178 5.79053151676234 3.33784414848039 
4.29577877992588 3.68509115639716 2.33174160144647 
4.9629374484236 3.62770036328786 2.41815430271854 
5.38964125613725 4.77336219236249 1.40064957179702 
5.50919481381009 4.55579728470381 1.70135245303447 
5.19216601392157 3.98800776738272 3.89685361346766 
4.14834861948623 5.2500542894295 3.78276407828177 
4.28186143227989 4.98991490076717 3.70736557744448 
1.56011192396161 0.24328015385885 3.93680160037572 
1.70372269066774 0.54682240916497 3.79985568218177 
1.88346354309929 3.91860562429533 3.56253159338938 
1.44402845300027 4.9015911434481 2.76614406469564 
1.42176962535648 1.35754795141284 4.08988415147694 
1.0156796888716 5.69726185979336 4.87328664766932 
3.43721182508424 4.17075846157441 3.96114945485262 
3.08341101085082 4.343044808253 3.81019419339735 
4.09950521441375 0.43974483229918 0.67818963986957 
2.74993584220074 1.84611528116816 5.85334982800945 
3.92914699836397 2.62102232161367 5.43991518792895 
2.68663619306456 3.74899693582326 5.12789177734803 
4.20938991086903 5.74116422514948 0.8500202206674 
3.13974271317177 4.47440363764911 0.18261889604885 
2.15853840953874 3.78754113614057 3.55601240493741 
2.45354289041636 3.83875824490171 3.91066132825514 
5.21886331305764 4.36583274620077 4.60101299190329 
4.78159015819759 4.08950905689715 4.85897559631527 
2.7641636375758 4.22883865322108 4.97218948787679 
2.40612031167042 4.34026753782107 4.43634412738491 
5.4542086027369 0.21475083793527 2.55817134031999 
3.78897916208477 0.21742526310544 1.4485112835708 
3.25467819858428 2.46089038353359 4.9397516558701 
0.17411020024428 3.48435674562858 1.93302573839689 
0.17434676220749 3.16613862006653 1.91465518530325 
3.21373388826823 2.63246137114526 3.74555694032105 
2.86794817850842 1.61193957903087 0.20830282869257 
0.24088462965195 5.19481776127379 5.28551395503359 
1.73783535526727 5.4764979547245 1.1841562383344 
1.99865919861118 5.8605489962747 0.94391519010577 
3.22166952482221 5.98217889407735 1.353194995578 
2.84079981116441 5.79924271744853 1.71479330953638 
3.42138878568857 3.36081603563885 2.9214202216325 
3.48532136413946 3.60984643297414 3.01175411674647 
0.32177205099121 5.48099532432263 5.11633270042587 
0.2296969086005 1.82618956152969 4.25336411561339 
0.32060267489263 1.72068198179272 4.44650220995398 
5.10440690017737 3.7730759882013 0.74767741986522 
1.63157579634814 0.17285469489832 2.47827161676444 
4.22143247616839 1.39033902777953 2.54177629927186 
1.09220569080839 1.42339526865611 4.35903971997163 
1.22218418377922 1.16863015294893 4.70785403108413 
4.96603823227592 3.35445815562739 5.18097760600896 
5.50719793004228 3.15642472469642 5.10896936398463 
5.5663402556369 2.11617621681398 1.53534426484579 
0.3575131226304 2.39516990585791 1.15086246126847 
3.00259138275661 1.43541526436597 1.12693744297072 
3.47412559274055 1.17419092926011 1.16582466603435 
1.63522175187546 5.19227724542317 3.95481969173696 
1.84074324725311 0.04932462553653 2.23746403730678 
1.76304636088973 1.7918501564634 0.1646800662873 
2.23146387326438 2.04405576881922 0.26718518873947 
3.32645894736509 2.6427941354028 1.28734187849401 
4.27150188154936 5.21573326461388 4.82448159740561 
4.48588849118808 5.31525303743853 4.27804100650586 
3.67026998037375 1.30235311443329 1.6818300260802 
3.55401839813518 5.61864687492503 2.05579724956433 
3.01758963989367 5.57695902134869 2.05443972304261 
2.13266979361877 0.45372122037094 3.6155126748857 
2.56958055731522 0.70718356717883 3.83944739191167 
4.43251323749613 2.26198653105937 1.33212812587934 
3.21460701472189 3.84288011954831 1.67341981443937 
2.31357445432498 4.40988162665857 4.43885301874506 
2.16030305439297 4.70223301436134 4.90823958092039 
0.57144713737551 4.81231311028081 1.30784317678187 
0.30730493829224 4.76722560036553 1.78833370625661 
3.79286444847829 5.54115908393698 3.58334511930649 
1.13441820692168 4.99563139569509 4.07870374881563 
0.38418402664833 2.0329709563427 0.72014528006274 
2.08458263416166 3.61286389557541 2.3166627295535 
3.21839851544153 2.18232582709955 4.18528587867697 
2.98539831405547 2.19553138229041 4.62574237567905 
3.37829317245661 2.00137722499033 5.33155958502838 
3.41486821050148 2.30434685240843 5.26034914150328 
1.19499230538349 4.34569417926258 4.9500208719228 
3.2534059711498 2.6154683581594 3.37921449472839 
3.11136273476822 2.91110949802939 3.32494596805849 
2.26674215629027 3.20212329721234 1.79285808911193 
2.51032049508202 2.73049813326876 1.91088978498026 
0.64577726702877 1.53879308277444 2.50665492109954 
0.33030844662026 1.8943046783045 2.16884843582422 
0.82242049866717 3.18314230280372 5.47650078809156 
3.23110709404702 1.7281143503709 0.24361494588773 
2.18434611084705 2.50289143764966 0.43703807554485 
3.29391394741478 4.40299220598188 4.51321267194806 
2.88920283944531 4.5362333703123 4.17871998193365 
2.53770561797155 2.42402399613875 2.69231238898919 
1.5780724444319 1.69981526238559 3.48932111635923 
1.64190248881054 0.1663754910323 2.25499324062013 
3.07370090515878 5.58333682104609 4.89050191876983 
1.43768697109606 2.71675881298955 5.38064042491732 
1.90102556280573 2.89914654536518 5.4186300177892 
2.6623954060039 0.51870336113437 0.39666751598717 
2.54308493569555 0.82206272115688 0.198972415338 
1.42447004356077 2.74939436924093 2.23739417900216 
1.32478948729334 2.76359181881808 2.48790515530807 
4.24869305830511 1.74773948441028 2.6989487435292 
4.45726722457237 1.78897330770825 2.72634072224265 
4.08470716911775 1.3500114637686 4.71816181376006 
1.3082997004556 5.03546957895665 0.90188845725822 
1.7522346061487 5.20466094842084 0.97579204440848 
2.59792952758614 0.84884266985001 2.88381949801425 
2.93366121335814 0.89834652321317 3.35009184267453 
2.65255937344581 0.92356406542387 3.56489983099267 
0.94749575818434 5.01323265973579 2.73694287618713 
3.66872237764089 2.7698464078083 0.20560158195224 
3.46639409723038 2.66382790135535 0.2826693909038 
2.93820333050266 0.39848071470208 0.43823312933941 
3.95936789957096 4.97964993507934 4.61536949642019 
3.48465800659348 0.79665120320725 2.11068398232508 
3.64861600066953 0.73375017256459 1.78622865307625 
4.97509394077039 5.64690406813193 1.137303429309 
3.93721561414068 5.46914429210088 0.7942804931015 
3.80520574712281 5.43314067773509 0.9731385313221 
4.51486693356157 2.21912653846522 4.48691759767949 
4.17677092120128 2.06598147395861 4.50431742437766 
3.1846914258152 0.58552731935416 1.07254146087374 
3.4108008974357 0.68254655978765 1.09576501281744 
0.22435368707737 3.5142423831297 2.31188011620897 
0.20257291887026 3.09032303527048 2.22486714765705 
4.4003882066913 0.40185795078148 1.69352926097176 
3.91187095602903 0.39180277438659 1.7616822769817 
5.46640313200933 2.67801793515166 2.10774819682183 
4.35362372660403 4.92015769412264 3.93287161307345 
4.26727286298513 5.12627601844563 4.06887297263271 
3.26806324612925 1.59120538113425 4.04981166824243 
3.08334005640949 1.38442381058826 4.33767812508988 
1.72172646226397 5.37671115777092 2.97658975790202 
2.01930988589291 4.07415203580174 2.35741124696342 
2.20643319400644 4.25149703595291 2.12941583075149 
4.20646733202827 5.82296550792449 2.71400645766774 
5.40858245564374 1.2415431947005 4.15200145217684 
0.83374712588726 4.89245787928378 2.15959169942999 
0.54689041488008 4.6317515399247 2.19612177073334 
2.08637482194823 1.1831267634142 2.94628275105098 
2.0463362712873 1.76276497414844 3.44650787028217 
3.97833406513894 3.07036173061405 2.40993652349008 
3.74384981762823 3.01250388362377 2.49598487586868 
3.47053996015901 0.66386284574325 5.62909453170121 
4.57411179084261 5.26545962861243 2.33424663777138 
4.75839620351244 5.00148525778099 2.50849589870313 
4.56829358099656 4.73114409686432 5.23882973589403 
4.98381803091231 5.44561908738403 2.6624734123465 
4.17943353390036 0.13296957102716 2.58179483611009 
5.15840387930857 1.6463138815157 1.00834517857501 
1.85729202908336 0.0409811474699 2.48592497290298 
1.93686609894535 5.49586102726584 2.7824202960332 
1.23175520389417 2.96010499332506 5.18319562108701 
4.80335389444585 2.37785955539593 2.03084198572475 
5.28500660028871 2.75071608400191 2.1461061284283 
4.69427773668465 5.50634681993266 2.42343787036786 
1.9633585922861 0.40774579235443 1.00021792070173 
5.59095747246508 1.9900361726165 4.04506001076872 
4.00521652647567 1.78564620984395 3.04028756489098 
3.17229379431771 5.50957859741623 0.87266220133957 
3.052654727831 5.58148613781337 0.64664381312442 
5.245990878989 3.21561163348705 4.05042708104086 
2.25182182647065 1.32408953032622 1.59816841825687 
5.21707603234277 5.06959788981012 4.29096221954073 
4.90061400238747 4.77112410035694 3.94872066639457 
0.15711579388555 1.53940093393443 0.92805090292598 
5.4648012801542 1.43439209174798 1.04783063412711 
2.31939845900129 2.4507915303316 0.74034598719958 
4.00604016315642 2.1940727538901 2.31040264743894 
4.29350075756206 2.45736402930034 2.23370825680092 
3.85353335053465 1.4112027528435 1.69986686777864 
4.72631951746472 3.15320226989492 4.71470755339788 
1.18727337669554 5.35436935762919 5.34116190405172 
1.08929997406792 4.92321898135524 5.49429767791008 
3.48250686523879 4.38351429607956 2.47993776493061 
2.25686743034922 1.98692007870165 3.56876722920126 
2.18809003952597 2.56044333154148 4.14098254626802 
1.77735289497773 4.32061254446799 5.6124550791393 
2.78223865711558 0.62198097018151 4.24747185110984 
3.34360801502062 0.54089862809457 0.21818654954721 
3.7082751470208 0.70252150237119 0.67269484223052 
3.0477226522289 2.96278007273792 3.72174443541992 
3.14195754650075 3.35180909969744 3.96096829723181 
5.44370940109591 4.53410964485967 0.97118162317382 
5.22695273037206 4.53102757902049 0.86391206185472 
3.90040334248348 4.6045984609307 4.6435402536327 
4.11361914737869 4.41405205861323 4.15532550353204 
0.36822134275171 4.83553878468468 1.93877017859773 
0.76707172927753 5.02680714341037 2.02000263756176 
4.97950825581243 4.25386886159733 4.17046738575034 
2.37997872915208 3.98505489752519 3.11343200667755 
5.03858447874389 3.77043098240201 3.87467932354324 
4.84620458438279 3.02232487437395 4.60890392581621 
1.87170581366913 4.27957260790892 3.1539838446522 
2.22949999142957 4.21264624626772 2.98315695089559 
3.50482988075415 4.32585871374026 1.93088500342672 
3.82345964725253 4.90949123769845 1.10466301824319 
3.9433333522881 4.83405062405757 1.57157581888832 
4.90368440935208 0.49636579955144 2.24577159827482 
4.70217301354176 0.77247558691389 2.76666014360178 
1.28100343352236 2.13799005421966 0.26788822884148 
1.09101955461582 2.81434118091343 4.92502815894149 
1.16257059725573 2.99171074007998 4.49483943071577 
3.22724392459182 0.69817184951033 4.49722384283862 
3.12476499191165 2.04043900664907 5.80191789276027 
3.17752894752377 2.44302977564981 5.73674739511237 
2.68341224836051 4.44677963844818 5.24934329735799 
2.36259732574734 4.69437162261865 5.20000088391075 
5.42863756716574 2.91978466462475 4.74751030390417 
1.30798409168696 3.85270774782953 2.00582515443386 
5.56787840028433 1.55252922354508 2.325122142579 
3.15437087624193 2.82753394836286 0.89917797155984 
4.06324309677556 3.04768470828153 5.2987596583778 
3.89804405919182 3.52189223271531 5.699497363338 
3.53664032743577 1.04009157955805 2.14247812271317 
3.72795417810587 1.13274189842851 1.82816684317241 
5.03521777792523 5.23913684785735 2.69765900057138 
4.08908825443072 4.33255977213185 4.90753250095597 
4.00524179170897 5.62107230077588 5.21509917583614 
3.32357455012027 0.7814773957107 0.03923082258149 
3.65054010216404 1.37615041802952 0.18848469297754 
4.42856413531014 4.58468295142232 5.64507277211845 
1.46527111805882 5.19449842072769 4.79494659191536 
1.40582541905143 5.39354858201231 4.94221207278537 
5.36449474301137 1.00525658078501 3.98441751778471 
2.68134269289313 2.71310848346778 0.99506897554446 
3.56978187493257 4.96380208963567 3.03831396388211 
3.64896553811364 4.91673345411126 3.39636119482431 
5.53283061066127 3.51758839507145 0.93810708818234 
5.74837622077586 3.78327127769 1.05917572938365 
4.45247096241191 1.37166320566317 0.28074417872997 
4.18422098210258 1.55520608705428 0.19256876633407 
5.50463295016814 0.87433924141827 3.23095789530194 
4.40571737772941 4.41769215295296 5.16270911796413 
4.31554662288876 4.33928921946227 5.47630734931966 
5.67300870284416 3.1225199628837 4.28986934501222 
5.91040795968251 3.44725782417883 4.40325181769859 
0.0977286577807 4.8536265395108 4.30692047937915 
0.1682412750842 4.69525878592032 3.74902694801418 
2.59451080663042 4.97359885429524 2.27410209469442 
2.68937226462974 4.65925662576059 2.40476047729072 
3.00902740873171 1.78132695724708 0.72727145760322 
3.7710596740874 4.81946231539193 2.80456835503599 
1.06057686538412 5.21435478644199 1.12373415597194 
2.50297535983921 2.5247681881954 5.7852409917286 
2.43788024487382 2.05611311971731 5.8744309411308 
0.63969824528545 3.86873251664604 5.35988797848208 
0.77548351937978 4.23054381065624 5.05389988762126 
1.43914136913095 1.5220580832275 1.23825571020759 
1.21743593109019 1.16122202916313 1.2697791088644 
0.49915689911253 4.45907688653501 5.31740198069948 
1.24777871424508 5.48166539568611 1.67818393964681 
1.24649586076977 5.50824916023351 1.32315157261618 
1.59568752594274 3.95808908518924 4.59278348673894 
1.40602016557794 4.22607473212032 4.99875659385135 
4.14995979909499 1.14154452800549 5.44106043302159 
0.69316030234926 2.86155040348499 4.93371263688834 
0.64108000555415 3.02772207932547 4.58985559911034 
3.24712834924283 3.80780063241175 2.82230823941803 
3.13745031384454 3.49122389918545 2.66576887081022 
4.11805687629626 2.77254226043507 3.95479434969535 
0.97613374346609 1.41697581407103 2.22584016118866 
2.18001812323013 4.45813255542565 5.61409503690953 
1.25958208810536 4.56099160638429 3.83940840873764 
2.21163548178781 0.62591788430235 5.07133595734726 
3.78885685154509 1.9933762505781 1.83484717843271 
4.011361260965 2.21014963113687 1.42602778586073 
0.08344551748511 1.5809602820697 1.37287501032333 
5.91908668850927 1.56518749795516 1.44342561403531 
4.9436928210341 0.84883933653086 1.97560451987707 
0.91291018878046 1.57849005742012 1.83952337022214 
0.89404120431639 1.14521937309696 1.54277044867785 
5.9978226384883 2.53858612383677 3.10010792584059 
5.89767673590974 2.57633393777587 2.61927177325541 
2.0896745129218 3.28048643931282 0.10767478250476 
0.55271159037624 3.12879379683674 5.31739509045494 
0.38593827593 3.43628190963855 5.19752338022806 
2.15395248170948 1.76952162590558 3.61663570759861 
5.37179229527214 0.35674608889511 3.02994091046537 
4.53784730218196 4.35670327912346 1.30799647540238 
4.25618132206602 4.57970457026437 1.64184036809155 
0.93004959253067 4.91558789003344 1.32947412327677 
1.00783738043923 5.02193271594675 1.81634002827522 
3.9451122901982 1.17841876473261 2.71726572097266 
1.1764802721246 4.41009297209214 0.43897531460928 
1.50481989863552 4.19856889170124 0.30880666999159 
5.55304323706791 3.8760167380224 5.13148391437109 
3.38784662069208 4.41575685149556 2.21313296362392 
3.24277413827408 4.34517876812105 2.2991726113799 
1.94864709372303 2.18056097405246 5.11407112252986 
2.18346371280337 2.61990207768172 5.29154141218788 
1.03807142840799 1.9385906639455 0.60058606957597 
1.0346379082686 2.32943666476468 1.00910458043012 
4.2129927767243 5.56141448699534 5.11650920366188 
4.43604060369364 5.43842420865929 5.33540880950107 
3.44902007288829 2.53620057647518 4.8505483956646 
2.25562176314433 2.85312262673398 4.17954369162924 
0.92407716925205 3.30232907381558 0.31681042437369 
1.89926755806647 5.33408315580494 4.39218788570698 
1.53431004089095 3.22408192538124 1.80453148361483 
1.27042112591791 3.58131790566696 1.71343859867931 
0.35853272426451 2.49147421454137 2.50222733325326 
0.09615865567903 3.42292634966937 4.33051560701334 
3.18601838823154 0.26412511030724 5.08401971975507 
3.53009572720132 0.04982515620262 4.87178960115367 
3.90034194076942 0.04812015455798 5.09577465520441 
1.45637072546752 3.1151216251188 2.69707258093611 
1.70016261333227 3.46756601724831 2.27404044955865 
2.03403250817207 3.00157653366234 0.06488166805946 
2.33688698797233 2.77961777429019 0.16789378141517 
1.18614101614077 3.39419007975791 2.89507412384362 
1.32994215115113 2.07121458687368 3.32638728016217 
1.04166893427097 2.25568035369186 3.76168796938187 
0.50494502167822 2.92542303532919 3.48504389499751 
0.71882284741205 2.65128380547791 3.82348254556884 
1.389644329266 0.48007723669328 5.75137133718787 
0.29926129032868 3.83490395722765 3.72068175327496 
0.286099224371 3.65277515316451 3.49514381827005 
0.73988766307132 2.26259088846133 3.73901150519587 
0.10135432781755 1.78521764501741 1.49376920224291 
5.93548227038947 1.75726001002426 1.55719828532238 
2.97113834284798 2.52122493787797 1.09351800589463 
3.16090962159009 2.60604454332571 1.0408509367508 
1.31745862891278 3.68165765338757 1.39348251080411 
2.63616919643721 1.05439957427607 5.47506961744344 
2.23872058161816 0.90374849814311 5.37551960550275 
0.58648266765231 5.39196499265799 3.22806941290684 
2.6638599185762 0.40514597297117 4.84849377276243 
2.32517573105391 0.86572324380152 3.06902540339938 
2.11339834402818 0.62400364426832 3.08762101617774 
2.16710352612336 4.93873851321287 4.86725253702636 
1.69245282392414 5.27171049368751 4.77679888449526 
2.83340056798382 5.79459818938925 3.72259897370465 
1.14735404443918 0.48380859236762 3.40581514194011 
1.11010715709924 0.33408321214342 2.94123769575252 
2.00621112750555 0.48852426746968 5.59234335135397 
1.4994416796551 4.55824212112441 3.01914698583321 
0.17719621667936 3.14628467682396 3.60913177488052 
2.16532108724348 3.22572029868602 3.54626249252127 
2.50380444175474 3.12306367504396 3.93875642059014 
0.65240714300407 3.88734606365232 2.89811188072669 
0.44891574537267 3.93201489626164 2.66428055647755 
2.33111758875997 5.1066977810749 0.4047306416458 
2.84144192952236 5.22268043624457 0.41222143916723 
5.53596211671061 4.25773729349102 4.6718029227893 
2.45688720870366 0.73533270328629 0.66708202481002 
4.00134644051938 1.19124866646883 5.46027676534294 
3.9875668178349 1.48455711442552 5.71294275686179 
3.06083834105174 0.50868735763471 4.95556707203067 
3.12438732351021 0.80222625322402 5.19656654722555 
4.44623040410213 3.96165538978494 4.2686202778876 
4.61053151424122 3.95171517095586 4.27113951439135 
3.85194717401353 1.16541575034714 4.37442622204872 
4.37396081473325 1.41181180863239 5.73355178136643 
4.19124991381758 1.55285409418874 5.80984674046964 
0.82811387943153 3.69222866744158 2.75867606507925 
0.54921084427824 3.78534948575238 2.49779550875022 
1.17576033873496 2.23486453902329 1.60702558266351 
1.27458181578096 2.23122941065062 1.41371810769586 
0.52419685669936 3.70005461986228 3.41348106674799 
0.56748349090182 3.88409337809986 3.62256441364355 
0.23652009897173 1.44602868020314 5.57345800058922 
0.59013568820729 1.11836103700233 5.67165765246679 
3.76913109029943 1.44936377302763 3.07261459468544 
3.7230011450451 1.2453443526698 3.39953772759466 
1.77561958129498 3.20225311579405 1.37007410343586 
1.6275125383526 3.44825865147475 1.15614552464034 
2.40135614610717 4.47714580567964 0.40057877563294 
1.51815069017308 2.83417252899002 0.35205415477927 
2.65311282399446 1.2119133097135 1.07393155279239 
2.66588716820143 0.87579519821751 1.06377405447952 
4.63158985001892 4.31636643293083 2.62957594321671 
4.1842728071232 4.03313106198397 2.41779085631733 
3.96694652383332 4.09465273537126 2.68389188241531 
1.29613516020566 1.95788755832553 1.6898766278415 
1.40962680936481 1.93048397366532 1.50417494882961 
2.32762786339922 1.45713615837961 1.76921008044192 
2.90675622970001 1.70346962080128 1.63112089285564 
4.17963304862825 3.35590736129704 4.55568291300603 
3.84725665526536 3.31319522379008 4.87316220835954 
0.60504479600812 1.01031392068961 3.65260338841071 
0.5327925246345 0.68686091402763 3.66147932963968 
1.89178053391361 2.1517542982813 4.41189046493726 
2.04640374390199 3.60539765266244 5.59097597583816 
3.55129973716431 3.06971667255575 1.28406716868154 
3.4854715612914 3.16515239989963 1.09501594456131 
3.30168434355149 5.36573493519606 4.41298602693274 
3.58698345538882 5.06380333501122 4.70122178815131 
2.7246022433765 3.23498356583276 2.16787993745867 
1.42915905434276 2.78729509394773 0.77885577911674 
1.54523243103298 2.69675569294662 0.46347902592644 
3.95556155887088 3.22533008344241 4.18821760166994 
0.771288717281 0.99042383482536 3.4719315741475 
0.76823147791191 0.70313179136609 3.41795729189214 
1.37119346996066 3.13817595219501 0.53130895725234 
1.33579780365681 3.09594343967734 0.72932312546835 
3.50081745682329 0.48386388863619 5.63124138379407 
3.89159140785613 0.35488438141809 5.56114724489783 
5.89530352145716 4.66722415923825 2.66192831112924 
5.82428254347713 4.95058085410577 2.95127459820541 
2.58197696063901 3.77151725613804 1.78183823086317 
2.42184526172849 3.43330567705336 1.958682317285 
2.9973988477248 1.38393353916871 2.25055616783869 
3.12994427601361 1.6673069431915 1.85036289599659 
2.34717866287671 4.56716628608801 1.16754838152458 
1.43017390414364 3.82707105618563 5.32094263101333 
1.67788176511288 3.93070943042495 5.63289324695623 
1.49234798672246 0.79311500253949 2.31245225132323 
3.02662237217654 3.7795562604096 1.90478248662328 
3.05010004049512 3.38706285738051 2.13667418370206 
3.29470700176635 0.53949022294202 3.37350609658348 
1.29658626639156 1.88699632351611 4.17878990943087 
1.50917518263629 2.229468898683 4.45306748159828 
1.63887274670648 4.26170966328303 2.90541295542238 
1.82465628916867 4.1243480569097 2.35047574388701 
3.49621036385643 4.33633537545431 0.62024170208995 
4.00148504036358 4.49613154137456 0.64197305467739 
1.53888706243249 1.63676048874062 4.01284425940489 
1.8817144263741 1.70351195285522 4.10140247223026 
2.48674939237228 4.74219987770802 0.57242708485449 
2.86781771795475 4.84424277442483 0.55502941205366 
3.45204903558923 3.97878878456827 0.6540872710334 
0.13197027414857 4.7264870904277 5.06695197426951 
4.6564686239766 1.26133913551921 2.53057855979985 
4.80783622219948 1.21785357241474 2.16024855580047 
3.30296103597297 5.55645585037123 4.81108352415176 
3.49641935969121 5.31825877323182 4.98406105010799 
3.36665604205828 3.38839542759127 4.18133758676842 
3.30573448199221 3.36488583487756 4.68356426462178 
2.78842289511145 4.24993762118765 0.12642579401354 
0.98872221751894 0.99370576149851 2.18135499997183 
0.93007631051667 0.85546888111399 1.75813622198272 
3.61700397667259 3.14656064170452 4.28432997427726 
3.54441842146082 3.16213658360576 4.66407499854837 
3.80355057794644 0.79612533765661 3.36305586499988 
3.98671039406298 0.7185552342932 2.93081458586594 
4.74543419965415 1.3989318883318 2.58474878028194 
4.95766159257405 1.4484615169528 2.25566983068922 
2.22392625861358 0.14064863617428 2.73238239607008 
2.60883489632322 0.21108811404025 2.49503734689406 
2.81765509950542 4.9765073720297 3.84378553365135 
4.28725560654934 4.82173000888713 5.87391625954697 
1.21339124253445 3.70282270938787 2.74044942985711 
1.52532066497916 3.75588102603386 2.28360753377545 
2.51287569185911 3.82581136771018 5.54706231484435 
2.5236581468549 4.23938325065315 5.59589195972132 
2.53094157417093 0.23135067862856 1.96346163023222 
2.84849584424988 5.65662331467604 2.79100461312883 
2.92209033657195 5.81794248259285 2.61573232275602 
1.89882833375014 0.75458635749485 1.74005477412557 
1.57710392022193 0.61875208825227 2.03148131819496 
2.24932270659059 0.19590678332334 1.86751189075476 
2.14762918318589 0.57028243714858 1.64744087702387 
3.86913565288874 5.63937190116236 2.65241625172775 
3.61796725438893 5.50122600555522 3.01089544003047 
3.20791366207056 5.79517079904792 2.92419607925891 
4.44378807455372 3.88730274938615 4.44967831863622 
4.55222841548087 3.87597458340022 4.46325176070228 
5.69747511045818 4.8523782189628 2.39116681603811 
5.61147361218048 5.10565507862822 2.56581284943548 
4.340833274739 1.18504694318118 4.86607525602007 
4.42847400716756 0.81895992003991 4.71132514471056 
2.22579876612927 4.30173134007806 1.2575713381369 
4.06666408828044 5.56493355214774 5.57457723270151 
4.3552615940766 5.4335831917245 5.57155191368495 
2.99620232675204 5.36720344121492 4.00414823846253 
3.72871090886887 3.70038571148471 5.59496783556992 
3.63092401182177 3.71678273521699 5.12576213247827 
2.6423315941531 0.50725826051768 1.87639424297376 
2.3337824904907 0.71219352504298 1.65839726637413 
0.58843980805648 4.81647641559247 3.57826247323125 
3.85217191843488 0.1591483385246 2.44091426726762 
2.61769468786692 1.25254304385932 2.48629143011456 
2.30333907796014 1.26846164601967 2.00347236375643 
2.66705008219981 1.18855733779596 2.28359394824149 
3.25231668846095 0.26247857761072 2.80143683939249 
3.67399822210468 0.41712309984433 2.57427521037102 
0.06724154124582 4.63781508314557 4.49158577591782 
0.20633789090419 4.69335901893325 4.59888375833788 
3.58484197581805 4.58018452814844 5.85000008487988 
0.89513818610901 4.50669789092992 3.12556404638015 
0.8174341182079 4.51455996008798 3.48383355893087 
2.43770596683231 3.57242287581051 1.22948978857425 
2.58475181098613 3.82486721002257 1.46860387693432 
5.94889155142552 0.71912001570553 2.34440836265629 
3.68179965198586 5.83112181772536 2.49657980267691 
3.22296439193744 5.91023332798858 2.77034210673679 
2.33733403551917 2.30093708660943 2.71833488118928 
1.88947639884713 2.51852086221465 3.1148289262382 
1.21260150471387 0.64773906415147 1.66990658658406 
1.40183227774559 0.77008902183033 1.42594376055566 
3.77517768242366 4.20575478859701 5.12884043149575 
3.85510626697774 4.21927084346218 5.45693997007925 
0.71212607619634 4.79037394422992 2.93006038112926 
0.49680184370094 5.035984040501 3.22535618482608 
2.55863663148208 0.86967696266891 4.08957720657775 
2.39881019059087 4.97459359140605 5.18677286735713 
2.29420546306885 1.40263652268105 2.54112639296804 
2.11083333567405 1.39868098737545 2.2981870395445 
3.97477073747174 0.90511906743332 4.28666023396436 
2.65260742517103 1.24852462249426 3.78703508938037 
2.61586829658966 1.1559120345432 4.06914331130819 
2.42292259271948 2.13031249923413 2.80175523064065 
2.15033598856145 2.00617212586918 3.36878247566121 
3.75070762316375 5.28016648950386 5.86097666897252 
3.99157778155532 4.85120408030953 5.99542662321471 
2.35575406785949 5.42471765774297 3.02272090761742 
2.17269170033738 5.50572550865579 3.01281784774647 
4.71109840175342 2.4548136609721 0.93163776385188 
2.43698968932003 5.60240633921728 3.06906036122755 
2.96700794615402 5.31254969506259 5.2580223520598 
3.23857490568663 4.7173270272236 5.32692873090275 
3.26904089372915 5.13205420835206 5.31420985572378 
4.39576369035472 3.07982617789902 0.65060366489227 
4.58091435775883 2.90946328910285 1.06464999642147 
3.40346239832497 4.70509577495282 5.78629963506967 
3.41933288453459 5.13526968982706 5.74933444208201 
3.74656681786656 0.25686799830368 4.4206965802232 
3.65563665316941 0.48916599145178 4.28580975433125 
3.65176412292883 0.33843040414242 3.91653082656746 
4.50054982224617 4.62242214137223 2.95805582660806 
4.16943088259453 4.56472734350675 3.03081133585534 
2.76670068582879 4.91848691695749 4.0726435323527 
1.0747605535846 1.74970462042198 2.90344090722886 
4.21422773126007 4.32891059943523 2.98546603424683 
4.52514476954287 4.39928150178075 2.92005331045242 
2.81393081848189 2.93237047249171 0.85421964240911 
2.72894060848215 3.44606002425185 0.94972104569803 
2.73003374813347 5.45464057686288 4.42468258253999 
2.95173512408646 5.30409621875969 4.20776269538204 
0.82530193426373 1.22755264248134 0.68041540795225 
3.82689170119375 2.23171608508139 4.15548033088239 
3.55473500487202 2.37226246744785 4.22645614025927 
3.83658555399015 2.52262707799669 3.94150913585123 
3.5919306002243 2.59221799007648 4.04483633907606 
1.075829233042 1.96265877296664 2.96469423826438 
0.87142321918206 5.49959186554504 2.93437914891002 
2.26790110100794 5.09202191594758 4.46522568164561 
2.33324348781781 4.84069311167095 4.22792352646764 
2.63014336733331 3.00287140427196 0.28416606814733 
1.32673701628128 1.47460411917903 0.82441050533704 
3.28964030101633 4.68800364079362 1.03865244827217 
3.15944962466818 4.58845120244 1.27361553048513 
3.92940832667784 3.4952172547183 0.46923181333371 
4.32011477740506 3.66749888942858 0.46016409929952 
1.18070675708887 5.68367183635464 3.06074462304849 
3.07816439631313 4.85521957569609 0.98494370406148 
2.93977971119432 4.75613313729491 1.22519008859929 
5.69347353663885 4.89597569475788 3.26438828052701 
1.16590972524276 1.20108540876834 0.84403764006369 
1.33316717834474 0.90880542623796 0.64292171754549 
2.58008373079459 3.58299706343179 0.60496705708486 
2.52465606940263 3.32993919204391 0.25945857265091 
4.11687202493699 0.96711124529379 3.81477771646389 
3.97732930609525 0.6958399163214 3.57504894403486 
3.87469630362236 1.14613720154076 0.66152434188603 
3.74101713143258 3.77544670278088 0.73852025133607 
4.11213746619077 3.99179183146411 0.75697061359695 
5.24246978569883 4.15828078680418 3.47853881639624 
5.5892751330511 4.19530425704162 3.37300053321963 
2.88553583520109 3.89488260880362 0.22146733249085 
3.80076992199794 1.41647293104845 0.38973130805531 
1.89488224950614 3.97921468252684 0.9150552713716 
1.91450580624847 3.7643821501211 0.91121413857136 
4.44031372219469 0.20463557367946 1.33024993600134 
4.55527392031392 5.85715777970805 1.31953011378994 
2.08371479719559 4.01507865201463 0.93592349178409 
2.14276825536707 3.79477003316122 0.93685359974784 
0.81218356030855 1.71973708834238 2.88099351405417 
4.2027781157651 5.85513478811636 1.14585927462057 
4.16780015382528 0.13140660023095 1.1812569526355 
5.55660440702384 0.42730049897193 3.04920210170093 
4.36112004161868 0.46849632102294 3.35332036995062 
5.71989393121084 0.34204563197291 2.65598715966011 
4.09716008677679 2.08457319594498 1.30057141029317 
4.06453771151764 1.51693705359297 1.37533248703317 
0.55948945742446 1.38880082905659 3.05286743834504 
3.75459619454457 1.32913342342421 0.90181927585452 
4.69426066099471 1.20426727743464 1.17997276864134 
5.01155239846874 2.00153898023192 5.44490896649773 
5.15723044764975 1.96004867428724 5.17129000909672 
5.12188216625002 1.68840685903403 5.19753461927155 
4.97091898867327 1.72539899207312 5.48613063981472 
3.67027779636653 1.6288537679945 0.60421672686747 
3.81320281269758 1.99380014300569 0.66960461965146 
4.20458457460676 2.43088861960245 0.20630007289892 
4.20331813717369 2.12100264807979 0.41517506320744 
3.32319358786375 1.81576484553688 0.51570703705732 
3.47025946458405 2.17593639660743 0.59181319045111 
4.41421192202759 0.71196939863262 0.63689417705139 
4.3233988510337 1.05708166807971 0.6514569680932 
4.53988890717821 2.6412926343876 0.38987126776336 
4.66883601580974 2.38449275721259 0.66777532394278 
0.79621214513762 0.13415733223424 4.09808604966814 
4.95872472738371 0.99136707209473 3.63355716663554 
4.7946426224646 0.80810839152676 3.70854303071681 
4.75931252216583 0.56676975275055 3.46490628954464 
1.19979909890637 0.15006534067503 3.73707128832156 
1.21151544316403 5.74019816863711 3.56539732229774 
2.95405755582491 1.50167891365638 2.52452786902356 
3.34685751616435 1.56184308219175 3.04300446475065 
0.91263909486272 5.11044571356628 4.00461899022509 
5.09384979461128 0.92124112489806 3.26600971625681 
4.987677448731 0.71186127246149 3.17893271564727 
3.97995862358898 1.33523920648422 3.7574757971674 
3.85186976244454 1.452509769749 4.01771740178959 
0.87153385485694 5.54948780058445 3.72284932126716 
4.12462994580697 1.51036866048314 3.72690379619643 
3.99043733120478 1.64637955678636 4.02798580875337 
2.6685658717855 2.22241397106873 2.79352648937278 
3.03287248514082 2.20445603328692 3.17244449271273 
0.25905923323696 4.92755956075899 4.41969433672799 
0.31443762144952 5.44063737275669 4.55569412167847 
3.22630126253516 2.03957986087797 2.97092850161899 
2.99463775771903 2.03174164959451 2.6524922189097 
4.47477117379432 2.38983379939255 5.53743178896801 
4.3754847667446 2.48345162868346 5.36203469642953 
4.18498498703973 2.41517927558031 5.4244544031879 
4.30977950844744 2.31930196244867 5.6099069292061 
0.67203035010085 5.53153331007879 4.41495644484245 
0.84370943662628 5.11446470351658 4.20535582778802 
5.35678905816604 5.04355283431242 3.38322150570833 
5.03677965162467 4.77687260932301 3.51170232846551 
4.76967060697631 4.90480399400846 3.31278667189419 
5.00408269861076 5.22085931039379 3.10342877540588 
1.33449553193477 4.04911810432839 4.10968019333251 
1.1889424105825 3.81951567719643 4.06430100623641 
1.16955648233106 3.78764946244864 4.2193455825455 
1.296507741377 3.98992796877623 4.31065666370461 
5.16477142376317 0.86302822861858 1.25899363399293 
4.76725381576696 0.62845559783942 1.09323063048206 
4.83453884920685 0.87880187851794 1.28786625084469 
5.79975226736607 2.97876690579161 4.17130281460127 
0.07475925305131 3.0937088735339 4.13746385667306 
0.37632698337044 2.81433239907443 4.28121862887791 
5.81403668805838 2.39570169313706 4.43732774336748 
0.10209436806463 2.31278606580018 4.48512017165919 
0.14141085581471 1.72281816163438 3.46671072541248 
0.13854124788241 1.62761623561755 3.69137149530488 
0.15694617973662 1.39906789515586 3.53045146323398 
0.15877926041158 1.49427679754269 3.36868515571601 
1.75743820699079 4.57824755163153 3.29724048018807 
1.9672502351654 4.92465522048574 3.3941233531302 
1.67463315517897 4.5744564891489 3.69382081588035 
1.85948744372891 4.86955801618621 3.76062429554264 
0.52798716346836 2.12800012296184 3.31296414292961 
0.80170749924485 1.98185174794104 2.96164359793091 
0.52613260089342 2.48422531037393 2.73080334945201 
0.34979637319591 2.50393467059789 3.12555185547055 
1.06297418196672 2.67119757287765 3.85711089384702 
1.30992497688493 2.82203915231578 4.24832096644263 
1.41203598739312 3.09662130295287 3.56846977814341 
2.09921851818971 2.80411338728667 4.10004133067093 
1.93636362590845 3.03660169049094 3.59840074857872 
1.49261111060464 3.16425398397476 3.66242763751309 
1.47036994760585 2.99842773496261 4.18721606046793 
2.19373090302154 3.34638294849969 4.7737748527409 
1.91859171921823 3.31055762311874 5.1954458234803 
1.6953360663831 3.45667298873638 4.74561649172622 
1.63345470555775 3.39698245548468 5.06880689953096 
1.91140871761301 0.9988187273226 4.68385949345319 
1.99110215833555 1.08168757240099 4.41147662387397 
1.65626814239145 0.94821657646192 4.54266805282853 
1.73406410529703 1.01654677403701 4.33283792222764 
5.65815681313463 3.31696123218225 3.03258154015385 
5.32170701232834 3.81288363449327 2.99753414949977 
5.30490290422669 3.43208302556684 3.03580295612037 
2.38580377983848 0.96689065844409 0.47742595231902 
1.79089557238362 1.45823247507776 0.46052936886944 
1.78916952981241 1.15081367030446 0.36004143184182 
2.35593475817398 1.91130133064885 0.50301904587314 
2.70055372187763 1.6621238005349 0.49715846142631 
2.17013554494137 1.58511446538996 0.66683125438152 
2.47552494327429 1.36454033233464 0.65708018346933 
5.28472282841368 2.78206301206446 2.44733914980092 
5.07516090616057 3.23655818718003 2.71483697770873 
4.7739778765739 2.29221715392105 3.10954797765991 
4.69835681101215 2.99527130404986 2.86931830348843 
4.81910578008329 2.59431076071219 2.71859481765594 
4.27693257799058 3.1276698983781 3.30919812815978 
4.22673336702637 2.77929245699434 3.53323889074941 
4.6233699769369 2.71216919745667 3.40263517950611 
4.63667842548155 3.01444862319595 3.22549525396238 
5.71940828058636 4.05201343759653 2.71711805310404 
5.61834876899645 3.91562810211054 2.99999887537418 
POLYGONS 989 6053
5 0 3 6 271 483 
6 0 2 556 572 5 3 
4 0 2 351 483 
5 1 7 521 9 8 
4 6 7 1 271 
6 8 1 271 483 351 332 
6 331 332 351 2 556 525 
5 4 331 525 599 996 
5 5 572 599 996 999 
5 4 9 521 999 996 
6 5 3 6 7 521 999 
5 9 8 332 331 4 
5 10 11 274 387 380 
5 380 387 570 809 808 
5 12 295 382 793 924 
5 274 282 875 570 387 
5 11 274 282 855 831 
4 13 396 786 614 
5 14 20 22 23 21 
5 14 24 771 17 20 
5 21 14 24 16 887 
6 15 19 18 940 756 757 
6 15 19 794 771 17 698 
4 697 698 15 757 
5 16 24 771 794 625 
5 16 625 448 932 887 
6 23 21 887 932 940 756 
5 20 22 697 698 17 
5 22 23 756 757 697 
4 18 448 932 940 
5 19 18 448 625 794 
4 27 32 338 435 
5 27 435 818 590 591 
5 25 31 33 804 28 
4 25 30 26 31 
5 28 25 30 590 591 
5 26 29 870 33 31 
7 30 26 29 811 819 818 590 
6 33 804 829 696 873 870 
5 337 696 873 811 819 
6 27 32 829 804 28 591 
5 337 338 32 829 696 
4 29 811 873 870 
6 34 36 343 275 929 933 
5 34 36 286 425 37 
5 36 286 35 508 343 
5 35 508 519 499 817 
5 35 286 425 849 817 
6 38 39 44 43 745 744 
6 23 373 409 38 744 756 
4 39 40 45 44 
5 38 39 40 410 409 
5 369 370 22 697 961 
5 42 41 369 961 957 
6 42 41 1026 410 40 45 
5 369 370 1027 1026 41 
6 43 745 757 697 961 957 
5 22 23 373 1027 370 
5 44 43 957 42 45 
5 46 409 373 781 775 
4 38 302 46 409 
5 675 676 775 781 456 
5 23 21 456 781 373 
5 21 456 675 899 887 
6 302 303 682 676 775 46 
5 744 756 940 1004 1003 
6 302 303 1002 1003 744 38 
5 303 682 1009 1001 1002 
4 539 641 504 867 
6 49 539 867 866 973 974 
6 48 47 49 974 977 964 
5 47 49 539 641 864 
5 48 47 864 472 471 
5 470 692 503 861 836 
6 470 471 48 964 963 836 
6 503 504 641 864 472 692 
4 50 51 40 45 
7 52 53 39 40 51 726 725 
5 366 553 528 986 922 
5 54 385 553 528 527 
5 56 55 841 601 602 
5 57 366 553 385 708 
5 59 58 330 381 481 
4 61 63 1011 665 
4 60 310 463 464 
6 65 16 887 899 60 310 
6 65 310 463 64 721 738 
6 66 62 61 665 449 342 
6 62 61 63 464 463 64 
5 65 16 625 634 738 
6 63 464 60 899 1010 1011 
4 66 62 64 721 
5 66 342 634 738 721 
6 68 73 74 67 421 748 
5 72 301 630 421 748 
5 75 70 287 532 629 
5 67 75 629 630 421 
5 69 71 533 505 308 
5 68 73 506 505 308 
4 74 67 75 70 
5 72 69 308 68 748 
4 72 69 71 301 
5 74 70 287 506 73 
6 71 301 630 629 532 533 
5 505 506 287 532 533 
5 78 80 922 366 555 
5 922 923 1048 1029 80 
6 4 76 1028 1030 77 331 
4 79 55 56 680 
6 57 366 555 525 599 600 
5 77 78 555 525 331 
5 78 80 1029 1030 77 
6 79 666 997 701 681 680 
6 269 270 81 759 753 656 
5 82 81 759 758 661 
6 269 414 437 300 655 656 
5 731 783 768 826 930 
5 83 333 648 649 926 
5 83 86 826 930 926 
6 84 86 83 333 468 469 
6 84 469 85 706 783 768 
4 84 86 826 768 
5 87 94 89 92 90 
5 87 91 84 86 94 
5 90 87 91 324 97 
6 83 86 94 89 88 95 
5 91 84 469 397 324 
5 96 333 468 607 645 
5 468 469 397 616 607 
6 93 88 95 96 645 646 
6 90 97 615 646 93 92 
4 95 96 333 83 
4 93 88 89 92 
5 97 324 397 616 615 
5 98 49 47 494 439 
5 98 49 539 540 348 
5 102 348 98 439 440 
5 102 101 746 540 348 
5 100 101 102 440 307 
5 99 100 307 495 865 
5 494 495 865 864 47 
5 641 782 99 865 864 
5 100 101 746 782 99 
4 106 275 929 480 
5 103 633 107 995 993 
5 105 103 633 562 104 
5 107 489 928 994 995 
5 107 489 316 562 633 
5 3 6 109 945 944 
6 619 717 946 945 109 824 
6 6 109 824 467 272 271 
4 111 110 711 710 
5 111 467 824 619 710 
6 110 108 981 982 718 711 
6 0 3 944 943 979 980 
6 717 718 982 979 943 946 
6 110 108 484 272 467 111 
6 483 484 108 981 980 0 
4 32 750 893 829 
5 750 789 458 892 893 
6 112 292 542 567 882 883 
6 667 668 881 882 567 712 
4 96 115 433 645 
6 115 114 113 648 333 96 
5 118 749 116 920 907 
4 116 117 785 920 
6 12 785 117 891 915 924 
6 116 117 891 890 575 749 
5 118 474 475 575 749 
6 119 282 875 876 790 751 
6 582 790 876 880 868 827 
6 340 510 585 805 828 658 
6 422 477 751 790 582 657 
7 340 422 477 549 581 597 510 
5 119 282 855 581 549 
4 119 549 477 751 
6 585 598 856 843 869 805 
6 418 514 802 803 810 815 
6 418 457 814 813 816 815 
5 320 321 803 810 832 
4 120 813 816 833 
7 24 771 814 813 120 837 862 
5 14 20 693 692 503 
6 17 20 693 802 514 407 
6 832 833 120 837 838 320 
5 14 24 862 861 503 
5 17 407 457 814 771 
6 321 470 692 693 802 803 
5 320 321 470 836 838 
5 91 84 768 911 122 
5 523 524 707 784 910 
5 121 122 91 324 325 
6 121 122 911 910 523 281 
6 280 281 121 325 398 123 
5 85 123 398 397 469 
6 85 123 280 524 707 706 
6 125 390 934 377 544 486 
6 37 34 482 523 281 399 
4 124 125 486 485 
5 481 482 34 933 381 
7 61 63 126 719 720 487 488 
5 126 127 723 704 719 
6 63 126 127 677 1012 1011 
5 127 677 701 681 723 
5 636 637 128 1028 76 
5 2 130 129 980 0 
4 2 130 535 556 
5 129 131 411 535 130 
4 147 142 133 643 
5 133 136 137 134 643 
6 142 133 136 548 406 141 
5 137 134 146 365 364 
7 146 134 643 147 144 143 145 
5 135 145 146 365 139 
5 135 140 297 143 145 
6 139 135 140 132 592 593 
5 136 137 364 547 548 
5 141 138 132 592 406 
5 364 365 139 593 547 
6 141 138 298 144 147 142 
5 132 140 297 298 138 
4 143 144 298 297 
5 150 148 740 837 862 
7 120 526 149 612 613 854 813 
4 120 526 740 837 
5 16 24 862 150 65 
6 150 148 151 739 738 65 
5 151 148 740 526 149 
5 613 635 795 853 854 
4 151 149 612 739 
6 456 504 867 852 152 675 
4 60 152 675 899 
4 65 150 311 310 
6 150 311 851 866 861 862 
6 60 152 852 851 311 310 
5 21 14 503 504 456 
4 158 154 500 588 
5 153 158 588 958 959 
6 157 153 959 917 863 825 
5 157 153 158 154 156 
6 156 154 500 7 6 109 
6 155 1 271 272 972 971 
6 1 7 500 588 958 155 
6 155 958 959 917 968 971 
5 467 716 863 825 824 
5 156 109 824 825 157 
5 272 467 716 969 972 
5 159 160 336 54 527 
4 841 842 975 601 
5 121 122 353 426 400 
5 91 122 353 603 87 
6 353 426 812 811 29 603 
7 90 87 603 29 870 871 515 
4 162 161 531 589 
5 164 163 162 589 685 
5 415 605 1035 1037 733 
6 161 151 149 1036 1034 531 
5 162 161 151 148 163 
5 149 526 733 1037 1036 
5 526 733 415 741 740 
5 415 605 685 164 741 
5 164 163 148 740 741 
5 167 371 557 1005 1007 
5 166 371 167 989 990 
4 126 674 806 719 
4 126 127 165 674 
4 700 777 557 1005 
6 704 719 806 777 700 844 
7 165 166 371 557 777 806 674 
6 127 165 166 990 724 723 
5 723 724 845 844 704 
4 167 989 627 1007 
5 627 845 724 990 989 
5 712 713 507 760 667 
5 170 628 689 169 699 
6 461 462 168 583 543 476 
5 590 606 35 817 818 
5 279 361 499 519 511 
4 360 367 27 435 
7 360 361 279 988 987 368 367 
5 590 591 334 885 606 
5 509 580 988 987 884 
5 334 368 987 884 885 
6 360 361 499 817 818 435 
6 508 509 884 885 606 35 
5 367 368 334 591 27 
5 173 174 466 800 276 
5 465 466 800 787 408 
5 155 173 276 966 958 
5 798 799 171 936 918 
6 171 563 787 408 647 799 
5 171 563 967 960 936 
6 563 787 800 276 966 967 
5 172 174 173 155 971 
5 728 798 918 917 968 
6 172 522 727 728 968 971 
5 172 174 466 465 522 
5 332 351 624 1044 1045 
5 331 332 1045 1046 77 
5 77 78 176 1043 1046 
6 2 130 742 755 624 351 
5 175 714 820 742 755 
5 130 535 821 820 742 
6 175 176 78 555 715 714 
6 175 176 1043 1044 624 755 
6 13 396 403 278 536 537 
5 164 67 421 686 685 
5 68 177 116 749 748 
5 177 116 117 289 430 
6 178 446 765 764 847 846 
5 73 74 347 752 773 
5 289 430 772 764 847 
6 68 177 430 772 773 73 
6 74 67 164 163 447 347 
6 178 162 589 890 891 846 
5 117 289 847 846 891 
5 163 162 178 446 447 
5 180 179 619 824 825 
6 181 182 184 346 345 185 
5 181 183 294 186 182 
5 186 182 184 620 565 
5 186 294 459 516 565 
6 305 306 350 788 801 326 
6 187 466 800 801 326 517 
6 349 408 465 532 629 534 
5 465 466 187 533 532 
4 187 517 71 533 
5 349 350 788 787 408 
5 349 350 306 939 534 
4 301 429 938 630 
6 71 301 429 305 326 517 
6 322 323 189 355 1044 1043 
4 355 897 624 1044 
4 188 191 791 546 
6 189 355 897 898 394 444 
6 190 191 188 402 268 341 
6 401 402 188 546 545 445 
5 189 323 401 445 444 
6 190 191 791 796 755 175 
4 190 175 176 341 
5 268 322 1043 176 341 
5 322 323 401 402 268 
6 884 889 80 922 986 987 
6 492 528 553 715 714 550 
5 368 492 528 986 987 
6 78 176 341 888 889 80 
5 190 175 714 550 335 
5 334 335 550 492 368 
6 334 335 190 341 888 885 
6 159 423 493 492 528 527 
5 193 192 441 568 378 
5 111 110 441 192 313 
5 193 192 313 713 688 
5 111 313 713 507 710 
5 168 395 451 584 583 
5 870 871 329 1006 33 
5 194 329 1006 1008 417 
6 33 804 886 902 1008 1006 
5 417 662 901 902 1008 
6 105 104 389 937 848 195 
5 11 792 797 743 831 
5 576 577 830 831 743 
6 199 379 576 743 797 659 
4 391 442 199 659 
5 196 197 569 442 391 
6 196 198 792 797 659 391 
4 10 11 792 198 
5 180 179 761 669 317 
6 578 647 727 964 963 766 
5 320 321 839 840 478 
5 478 578 647 799 840 
5 470 471 774 839 321 
4 727 728 48 964 
5 320 478 578 766 838 
5 48 471 774 798 728 
4 766 838 836 963 
5 98 49 974 444 394 
6 200 315 445 545 703 702 
7 539 540 1016 1017 201 852 867 
6 98 348 660 703 545 394 
4 348 540 1016 660 
6 200 201 852 851 455 315 
4 200 201 1017 702 
6 303 404 1000 998 678 682 
5 4 76 636 202 9 
5 203 513 942 954 594 
5 167 296 617 992 989 
4 206 204 205 1020 
6 166 990 991 328 1019 1018 
5 991 992 617 1022 328 
6 207 206 1020 1022 617 296 
6 166 371 383 702 1017 1018 
5 206 204 299 384 207 
5 204 205 660 703 299 
7 205 660 1016 1019 328 1022 1020 
6 167 296 207 384 383 371 
6 208 293 894 913 613 635 
5 613 854 352 914 913 
6 46 182 184 273 405 302 
5 38 39 53 405 302 
5 51 40 410 210 356 
4 184 273 209 346 
5 209 52 53 405 273 
5 209 52 725 345 346 
4 51 356 339 726 
6 210 181 182 46 409 410 
5 185 181 210 356 339 
5 185 339 726 725 345 
6 781 782 99 1025 1027 373 
5 100 101 653 290 212 
6 186 294 653 101 746 776 
6 99 100 212 213 1024 1025 
6 210 358 213 1024 1026 410 
5 186 182 46 775 776 
5 211 183 294 653 290 
5 211 183 181 210 358 
5 213 212 290 211 358 
6 172 174 1040 1045 1044 355 
4 173 174 1040 214 
5 173 214 8 1 155 
5 8 214 1040 1045 332 
4 272 484 895 972 
6 172 355 897 895 972 971 
5 20 22 370 427 693 
5 194 329 496 909 962 
4 329 496 515 871 
5 304 450 639 640 610 
6 215 285 621 566 328 991 
4 217 216 443 611 
6 215 217 611 610 640 285 
5 216 443 618 617 992 
5 217 216 992 991 215 
6 610 611 443 618 769 304 
5 131 218 219 220 411 
5 129 131 218 577 576 
5 130 129 576 743 742 
6 218 219 598 856 830 577 
5 219 220 386 597 598 
5 386 597 581 820 821 
5 220 386 821 535 411 
6 742 743 831 855 581 820 
6 224 132 138 878 872 222 
5 221 141 138 878 877 
4 222 223 956 872 
5 356 357 359 358 210 
5 419 564 655 904 1032 
5 300 655 904 913 894 
4 422 423 493 477 
4 668 669 317 881 
7 27 32 750 751 477 493 367 
4 121 281 399 400 
5 520 709 734 833 816 
5 461 476 485 734 709 
5 124 485 734 833 832 
6 89 92 372 700 777 778 
5 92 93 501 473 372 
5 372 473 857 844 700 
5 704 705 225 857 844 
6 93 88 573 312 502 501 
5 225 502 312 720 705 
5 501 502 225 857 473 
5 88 89 778 807 573 
5 129 576 379 981 980 
5 118 877 221 908 907 
5 118 474 949 955 877 
5 322 323 506 505 226 
6 323 401 623 773 73 506 
5 308 309 362 226 505 
6 228 559 651 538 737 736 
4 227 538 651 652 
5 228 229 309 362 736 
6 268 322 226 362 736 737 
6 268 402 622 227 538 737 
6 622 623 773 772 652 227 
5 177 229 228 559 430 
5 68 177 229 309 308 
6 128 233 1038 1039 1030 1028 
5 230 363 1039 1030 1029 
4 233 491 518 1038 
6 143 297 518 1038 1039 363 
5 231 140 297 518 491 
5 230 232 1047 1048 1029 
5 145 143 363 230 232 
5 352 520 816 813 854 
6 137 106 275 343 283 134 
6 234 284 509 580 823 822 
5 146 234 284 283 134 
5 424 534 629 75 767 
6 75 70 978 963 766 767 
5 349 408 647 578 579 
4 424 534 349 579 
5 287 288 977 978 70 
5 288 522 727 964 977 
5 287 288 522 465 532 
5 362 363 1039 1041 226 
5 230 735 889 80 1029 
5 77 1030 1039 1041 1046 
5 226 322 1043 1046 1041 
5 362 363 230 735 736 
6 199 108 484 895 896 659 
4 199 108 981 379 
5 438 497 778 807 671 
5 235 670 674 165 1015 
7 200 201 235 670 671 438 236 
5 235 201 1017 1018 1015 
4 165 166 1018 1015 
5 236 438 497 558 554 
5 200 236 554 383 702 
5 557 558 497 778 777 
5 318 638 672 732 758 
6 452 531 589 890 903 673 
5 672 673 452 754 732 
5 729 730 759 753 237 
5 758 759 730 927 318 
4 846 891 915 931 
6 237 161 531 452 754 753 
6 729 730 927 931 846 178 
5 178 162 161 237 729 
6 318 638 916 915 931 927 
5 285 621 998 997 666 
6 184 273 1000 998 621 620 
6 35 286 354 651 538 606 
5 30 227 652 604 26 
5 30 227 538 606 590 
4 26 29 603 604 
6 353 354 651 652 604 603 
5 425 426 812 850 849 
4 811 812 850 819 
5 161 151 739 722 237 
6 64 663 729 237 722 721 
4 64 463 238 663 
5 163 148 150 311 447 
5 178 446 238 663 729 
6 310 311 447 446 238 463 
5 159 160 340 422 423 
5 789 790 876 874 458 
6 541 626 809 808 747 770 
5 318 319 649 926 927 
4 146 145 232 234 
6 240 239 434 551 502 312 
5 240 312 720 487 392 
5 234 232 1047 762 822 
6 54 336 510 597 386 385 
4 160 336 510 340 
5 549 550 714 820 581 
4 125 390 490 479 
5 399 400 426 425 37 
6 124 125 479 478 320 832 
5 478 479 490 835 840 
5 115 241 239 434 433 
4 115 114 242 241 
4 676 682 678 1013 
5 63 126 674 670 464 
5 60 152 235 670 464 
6 152 235 1015 1013 676 675 
6 127 165 1015 1013 678 677 
5 36 343 283 644 561 
6 58 136 137 106 480 330 
4 134 283 644 643 
5 243 59 481 482 560 
5 34 36 561 560 482 
6 133 243 560 561 644 643 
5 133 136 58 59 243 
5 330 381 933 929 480 
6 566 621 998 678 1013 1014 
6 215 79 680 724 990 991 
4 215 79 666 285 
4 328 566 1014 1019 
5 459 460 1021 1023 516 
5 318 319 244 661 758 
5 482 523 910 905 560 
5 243 560 905 779 780 
6 295 382 784 910 905 779 
7 11 274 453 375 191 791 792 
4 190 191 375 335 
6 335 375 453 119 549 550 
4 274 282 119 453 
5 42 246 245 50 45 
4 12 295 779 785 
5 72 69 298 138 878 
6 69 71 517 518 297 298 
5 247 305 326 327 413 
5 247 222 872 429 305 
5 248 224 222 247 413 
5 248 224 132 140 231 
5 248 231 491 327 413 
5 72 301 429 872 878 
5 249 559 228 644 561 
6 283 284 735 736 228 644 
5 284 509 884 889 735 
4 249 354 651 559 
5 36 286 354 249 561 
4 656 722 237 753 
5 81 251 250 252 270 
5 81 251 687 730 759 
4 251 250 664 687 
6 62 64 663 664 250 252 
5 66 269 656 722 721 
5 62 252 270 269 66 
5 112 774 798 918 883 
6 112 292 428 472 471 774 
6 314 495 865 859 542 567 
4 292 428 859 542 
5 428 472 864 865 859 
5 314 567 882 863 716 
5 494 495 314 716 969 
6 48 47 494 969 968 728 
5 57 600 291 650 708 
6 79 55 841 842 217 215 
5 217 611 614 786 842 
5 385 386 220 650 708 
6 254 443 611 614 13 537 
6 217 216 253 984 975 842 
6 586 587 374 983 984 253 
4 278 374 587 536 
5 216 253 586 254 443 
5 536 537 254 586 587 
5 87 94 498 604 603 
6 768 826 847 289 906 911 
5 289 430 559 249 906 
5 498 604 652 772 764 
6 86 94 498 764 847 826 
6 353 354 249 906 911 122 
5 565 566 1014 776 186 
5 775 776 1014 1013 676 
5 377 934 928 994 953 
4 254 255 618 443 
6 253 436 417 662 695 586 
6 254 255 432 694 695 586 
6 431 432 255 618 617 296 
6 216 253 436 627 989 992 
6 167 296 431 902 1008 1007 
6 542 691 628 1024 1025 859 
6 427 428 859 1025 1027 370 
6 41 256 170 628 1024 1026 
5 195 257 258 344 848 
5 259 258 257 632 684 
6 208 631 683 342 634 635 
5 251 250 240 239 241 
5 241 251 81 82 242 
5 250 252 393 392 240 
5 419 420 452 754 564 
6 179 619 710 507 760 761 
6 180 317 881 882 863 825 
5 313 314 716 467 111 
6 242 82 661 244 113 114 
6 439 494 969 972 895 896 
5 189 288 977 974 444 
5 189 288 522 172 355 
5 98 394 898 896 439 
5 358 359 169 689 213 
6 50 51 356 357 679 245 
5 357 359 169 699 679 
6 256 170 699 679 245 246 
4 42 246 256 41 
4 213 689 628 1024 
5 300 437 529 293 894 
5 414 437 529 631 683 
5 66 269 414 683 342 
4 208 293 529 631 
5 263 261 260 277 574 
5 261 260 202 636 637 
5 262 277 574 258 344 
4 259 258 574 263 
5 62 61 488 393 252 
5 250 240 312 573 664 
6 663 664 573 807 671 238 
5 463 464 670 671 238 
6 26 31 558 497 498 604 
5 92 90 515 496 372 
5 94 89 778 497 498 
6 31 33 1006 1005 557 558 
5 255 432 571 626 541 
4 570 571 626 809 
4 207 296 431 388 
6 206 380 808 747 1021 1020 
5 207 206 380 387 388 
5 255 541 770 769 618 
5 411 412 291 650 220 
5 230 232 234 284 735 
5 228 229 147 643 644 
4 229 147 144 309 
5 143 144 309 362 363 
5 171 512 835 840 799 
7 453 454 886 893 750 751 119 
5 388 431 902 886 454 
6 694 860 874 458 892 901 
4 432 571 860 694 
6 226 505 533 187 1042 1041 
5 174 466 187 1042 1040 
5 287 288 189 323 506 
5 188 264 384 299 546 
6 204 198 792 791 546 299 
6 264 376 454 388 207 384 
5 204 198 10 380 206 
5 188 191 375 376 264 
5 95 88 573 664 687 
6 83 95 687 730 927 926 
5 238 446 765 438 671 
6 601 602 834 965 984 975 
5 690 858 834 965 970 
7 103 257 258 574 801 788 633 
6 104 389 642 967 563 562 
6 262 344 848 937 935 596 
5 276 277 262 596 966 
4 103 257 195 105 
5 415 416 424 767 741 
6 421 630 938 948 952 686 
5 416 424 534 939 941 
6 415 416 941 947 951 605 
5 164 67 75 767 741 
6 56 602 834 845 724 680 
6 762 763 912 923 1048 1047 
6 192 307 440 391 442 441 
5 192 307 495 314 313 
5 199 108 110 441 442 
5 149 612 904 1032 1036 
4 420 452 531 1034 
5 265 264 188 402 622 
5 30 227 622 265 25 
6 334 335 375 376 28 591 
5 25 265 264 376 28 
6 194 417 436 965 970 962 
5 560 561 249 906 905 
5 103 257 632 530 993 
6 416 424 579 479 125 486 
5 120 526 733 734 833 
6 223 203 594 595 950 956 
6 266 236 554 265 622 623 
5 25 31 558 554 265 
4 266 623 773 752 
5 266 236 438 765 752 
5 196 267 654 608 197 
5 196 198 204 205 267 
6 205 267 654 460 1021 1020 
5 144 298 69 308 309 
5 517 518 1038 1042 187 
5 28 376 454 886 804 
5 416 486 544 919 941 
4 461 462 1031 709 
5 395 451 951 605 1035 
6 168 395 1035 1037 1031 462 
5 451 584 925 947 951 
5 260 202 9 8 214 
5 214 260 277 276 173 
4 93 501 552 646 
6 247 413 684 632 530 513 
5 305 306 942 513 247 
4 107 350 788 633 
5 107 350 306 942 995 
5 326 327 263 574 801 
5 259 263 327 413 684 
4 545 546 299 703 
5 205 267 102 348 660 
5 267 102 440 391 196 
5 102 101 653 654 267 
5 100 212 193 192 307 
5 212 193 378 609 290 
6 568 569 197 608 609 378 
4 253 436 965 984 
5 213 212 193 688 689 
4 859 865 99 1025 
5 223 203 513 247 222 
5 265 264 384 383 554 
5 594 595 925 919 954 
6 74 70 978 973 455 347 
5 347 447 311 851 455 
5 233 261 263 327 491 
4 128 233 261 637 
7 349 350 107 489 490 479 579 
5 171 512 316 562 563 
5 456 504 641 782 781 
5 266 315 455 347 752 
5 266 315 445 401 623 
5 783 784 382 793 731 
6 306 939 941 919 954 942 
6 540 746 776 1014 1019 1016 
7 177 229 147 142 921 920 116 
6 117 289 906 905 779 785 
5 142 133 243 780 921 
7 233 261 260 214 1040 1042 1038 
5 113 244 319 649 648 
5 142 141 221 908 921 
6 474 475 952 948 950 949 
6 748 749 118 877 878 72 
6 429 872 956 950 948 938 
4 475 575 686 952 
5 595 925 947 948 950 
6 241 251 687 95 96 115 
4 266 236 200 315 
4 235 201 852 152 
5 448 449 342 634 625 
5 383 384 299 703 702 
4 268 341 888 737 
5 419 420 1034 1036 1032 
4 271 272 484 483 
4 404 405 273 1000 
5 387 388 454 453 274 
5 677 678 682 1009 1012 
6 525 555 715 821 535 556 
5 276 277 574 801 800 
5 278 374 983 976 403 
4 279 511 580 988 
5 450 516 565 620 639 
4 280 281 523 524 
5 436 627 845 834 965 
6 855 856 843 879 875 282 
5 283 284 509 508 343 
5 620 621 285 640 639 
4 444 445 545 394 
5 353 354 286 425 426 
6 387 388 431 432 571 570 
5 690 900 909 962 970 
5 377 544 919 954 953 
6 545 546 791 796 898 394 
5 608 609 290 653 654 
5 291 412 572 599 600 
5 857 858 690 900 473 
5 431 432 694 901 902 
5 459 460 654 653 294 
4 302 303 404 405 
5 304 450 516 1023 769 
5 305 306 939 938 429 
5 439 440 307 495 494 
6 312 573 807 806 719 720 
5 313 314 567 712 713 
6 444 445 315 455 973 974 
5 489 490 835 512 316 
4 324 325 398 397 
5 326 327 491 518 517 
6 565 566 328 1022 1023 516 
6 329 496 372 700 1005 1006 
6 415 416 486 485 734 733 
5 337 338 435 818 819 
4 340 422 657 658 
4 418 457 407 514 
5 417 436 627 1007 1008 
5 446 447 347 752 765 
6 483 484 895 897 624 351 
6 352 520 709 1031 1033 914 
6 448 449 665 1011 1010 932 
6 655 656 722 739 612 904 
4 366 553 715 555 
5 371 383 554 558 557 
4 367 368 492 493 
5 409 410 1026 1027 373 
5 508 509 580 511 519 
5 372 473 900 909 496 
4 375 376 454 453 
5 575 686 421 748 749 
5 385 386 821 715 553 
5 489 490 390 934 928 
4 389 642 935 937 
6 433 434 551 552 646 645 
5 439 440 391 659 896 
5 685 686 575 890 589 
4 392 393 488 487 
6 396 403 976 975 842 786 
5 408 465 522 727 647 
4 401 402 622 623 
5 547 548 406 592 593 
4 470 471 472 692 
5 411 412 572 556 535 
5 578 579 424 767 766 
5 427 428 472 692 693 
5 430 559 651 652 772 
5 497 498 764 765 438 
4 441 442 569 568 
4 455 851 866 973 
4 510 585 598 597 
6 836 861 866 973 978 963 
5 485 486 544 543 476 
5 492 493 477 549 550 
4 478 479 579 578 
6 543 544 919 925 584 583 
6 612 613 635 634 738 739 
5 596 935 642 967 966 
4 501 502 551 552 
5 503 504 867 866 861 
5 513 530 993 995 942 
4 525 556 572 599 
6 531 589 685 605 1035 1034 
5 629 630 938 939 534 
5 538 606 885 888 737 
5 539 540 746 782 641 
4 542 567 712 691 
5 562 563 787 788 633 
5 655 656 753 754 564 
4 565 566 621 620 
6 570 571 860 874 876 875 
6 580 823 763 912 985 988 
5 597 598 856 855 581 
5 657 658 828 827 582 
5 685 686 952 951 605 
5 615 616 607 645 646 
4 612 613 913 904 
6 844 845 627 1007 1005 700 
5 617 618 769 1023 1022 
5 710 711 718 717 619 
5 624 755 796 898 897 
5 634 635 795 794 625 
6 688 689 628 691 712 713 
5 672 673 903 916 638 
4 694 695 662 901 
5 727 728 798 799 647 
5 796 797 659 896 898 
5 702 703 660 1016 1017 
5 663 664 687 730 729 
5 668 669 761 760 667 
5 670 671 807 806 674 
5 716 863 917 968 969 
6 675 676 682 1009 1010 899 
5 677 678 998 997 701 
4 680 681 723 724 
4 704 705 720 719 
4 706 707 784 783 
5 733 734 709 1031 1037 
5 769 770 747 1021 1023 
4 714 715 821 820 
4 721 722 739 738 
6 731 793 924 915 931 930 
5 753 754 732 758 759 
5 736 737 888 889 735 
6 740 741 767 766 838 837 
5 742 743 797 796 755 
4 744 745 757 756 
5 775 776 746 782 781 
4 750 751 790 789 
5 764 765 752 773 772 
4 762 763 823 822 
5 783 784 910 911 768 
5 794 795 853 814 771 
5 798 799 840 839 774 
4 777 778 807 806 
5 779 780 921 920 785 
4 787 788 801 800 
4 791 792 797 796 
4 804 829 893 886 
5 827 828 805 869 868 
5 815 816 833 832 810 
4 813 814 853 854 
5 818 819 850 849 817 
5 846 847 826 930 931 
4 830 831 855 856 
5 844 845 834 858 857 
5 837 838 836 861 862 
5 868 869 843 879 880 
4 851 852 867 866 
5 882 883 918 917 863 
5 877 878 872 956 955 
4 875 876 880 879 
4 884 885 888 889 
5 892 893 886 902 901 
4 887 899 1010 932 
5 890 891 915 916 903 
4 895 896 898 897 
5 913 914 1033 1032 904 
4 905 906 911 910 
4 907 908 921 920 
5 922 923 912 985 986 
5 917 918 936 960 959 
4 919 925 947 941 
4 926 927 931 930 
6 932 940 1004 1001 1009 1010 
5 938 939 941 947 948 
5 953 954 942 995 994 
4 943 944 945 946 
4 947 948 952 951 
4 949 950 956 955 
5 959 960 967 966 958 
4 963 964 977 978 
4 968 969 972 971 
4 973 974 977 978 
4 975 976 983 984 
4 979 980 981 982 
4 985 986 987 988 
4 989 990 991 992 
4 1001 1002 1003 1004 
4 1005 1006 1008 1007 
4 1009 1010 1011 1012 
5 1013 1014 1019 1018 1015 
4 1016 1017 1018 1019 
4 1020 1021 1023 1022 
4 1024 1025 1027 1026 
5 1032 1033 1031 1037 1036 
4 1034 1035 1037 1036 
4 1038 1039 1041 1042 
5 1041 1042 1040 1045 1046 
4 1043 1044 1045 1046 
CELL_DATA 989
SCALARS scalar_1 double
LOOKUP_TABLE default
    0.000000
    0.000000
    0.000000
    0.000000
    0.000000
    0.000000
    0.000000
    0.000000
    0.000000
    0.000000
    0.000000
    0.000000
    0.000000
    0.000000
    0.000000
    0.000000
    0.000000
    0.000000
    0.000000
    0.000000
    0.000000
    0.000000
    0.000000
    0.000000
    0.000000
    0.000000
    0.000000
    0.000000
    0.000000
    0.000000
    0.000000
    0.000000
    0.000000
    0.000000
    0.000000
    0.000000
    0.000000
    0.000000
    0.000000
    0.000000
    0.000000
    0.000000
    0.000000
    0.000000
    0.000000
    0.000000
    0.000000
    0.000000
    0.000000
    0.000000
    0.000000
    0.000000
    0.000000
    0.000000
    0.000000
    0.000000
    0.000000
    0.000000
    0.000000
    1.000000
    0.000000
    0.000000
    0.000000
    0.000000
    0.000000
    0.000000
    0.000000
    0.000000
    0.000000
    0.000000
    0.000000
    0.000000
    0.000000
    0.000000
    0.000000
    0.000000
    0.000000
    0.000000
    0.000000
    0.000000
    0.000000
    0.000000
    0.000000
    0.000000
    0.000000
    0.000000
    0.000000
    0.000000
    0.000000
    0.000000
    0.000000
    0.000000
    0.000000
    0.000000
    0.000000
    0.000000
    0.000000
    0.000000
    0.000000
    1.000000
    0.000000
    0.000000
    0.000000
    0.000000
    0.000000
    0.000000
    0.000000
    0.000000
    0.000000
    0.000000
    0.000000
    0.000000
    0.000000
    0.000000
    1.000000
    0.000000
    0.000000
    1.000000
    0.000000
    0.000000
    0.000000
    0.000000
    0.000000
    0.000000
    0.000000
    0.000000
    0.000000
    0.000000
    0.000000
    0.000000
    0.000000
    1.000000
    0.000000
    0.000000
    0.000000
    0.000000
    0.000000
    0.000000
    0.000000
    0.000000
    0.000000
    0.000000
    1.000000
    0.000000
    0.000000
    1.000000
    0.000000
    0.000000
    0.000000
    0.000000
    0.000000
    0.000000
    0.000000
    0.000000
    0.000000
    0.000000
    0.000000
    0.000000
    0.000000
    0.000000
    0.000000
    0.000000
    0.000000
    1.000000
    0.000000
    0.000000
    0.000000
    0.000000
    0.000000
    0.000000
    0.000000
    0.000000
    0.000000
    0.000000
    0.000000
    0.000000
    0.000000
    0.000000
    0.000000
    0.000000
    0.000000
    0.000000
    0.000000
    0.000000
    0.000000
    0.000000
    0.000000
    0.000000
    0.000000
    0.000000
    0.000000
    0.000000
    0.000000
    0.000000
    0.000000
    0.000000
    0.000000
    0.000000
    0.000000
    0.000000
    0.000000
    0.000000
    0.000000
    0.000000
    0.000000
    0.000000
    0.000000
    0.000000
    0.000000
    0.000000
    0.000000
    0.000000
    0.000000
    0.000000
    0.000000
    0.000000
    0.000000
    0.000000
    0.000000
    0.000000
    0.000000
    0.000000
    1.000000
    0.000000
    0.000000
    0.000000
    0.000000
    0.000000
    0.000000
    0.000000
    0.000000
    0.000000
    0.000000
    1.000000
    0.000000
    0.000000
    0.000000
    0.000000
    0.000000
    0.000000
    0.000000
    0.000000
    0.000000
    0.000000
    0.000000
    0.000000
    0.000000
    0.000000
    0.000000
    0.000000
    0.000000
    0.000000
    0.000000
    0.000000
    0.000000
    0.000000
    0.000000
    0.000000
    0.000000
    0.000000
    0.000000
    1.000000
    0.000000
    0.000000
    0.000000
    0.000000
    0.000000
    0.000000
    0.000000
    0.000000
    0.000000
    0.000000
    0.000000
    0.000000
    0.000000
    0.000000
    0.000000
    0.000000
    0.000000
    0.000000
    0.000000
    0.000000
    0.000000
    0.000000
    0.000000
    0.000000
    0.000000
    0.000000
    0.000000
    0.000000
    0.000000
    0.000000
    1.000000
    0.000000
    0.000000
    0.000000
    0.000000
    0.000000
    0.000000
    0.000000
    0.000000
    0.000000
    0.000000
    0.000000
    0.000000
    0.000000
    0.000000
    0.000000
    0.000000
    0.000000
    0.000000
    0.000000
    0.000000
    1.000000
    0.000000
    0.000000
    0.000000
    0.000000
    0.000000
    1.000000
    0.000000
    0.000000
    0.000000
    0.000000
    0.000000
    0.000000
    0.000000
    0.000000
    0.000000
    0.000000
    0.000000
    0.000000
    0.000000
    0.000000
    0.000000
    0.000000
    0.000000
    0.000000
    0.000000
    0.000000
    0.000000
    0.000000
    0.000000
    0.000000
    0.000000
    0.000000
    0.000000
    0.000000
    0.000000
    0.000000
    0.000000
    0.000000
    0.000000
    0.000000
    0.000000
    0.000000
    0.000000
    0.000000
    0.000000
    1.000000
    0.000000
    0.000000
    0.000000
    0.000000
    0.000000
    0.000000
    0.000000
    0.000000
    0.000000
    0.000000
    0.000000
    0.000000
    0.000000
    0.000000
    0.000000
    1.000000
    0.000000
    0.000000
    0.000000
    0.000000
    0.000000
    0.000000
    0.000000
    0.000000
    0.000000
    0.000000
    0.000000
    0.000000
    0.000000
    0.000000
    0.000000
    0.000000
    0.000000
    0.000000
    0.000000
    0.000000
    0.000000
    0.000000
    0.000000
    0.000000
    0.000000
    0.000000
    0.000000
    0.000000
    0.000000
    1.000000
    0.000000
    0.000000
    1.000000
    1.000000
    1.000000
    1.000000
    1.000000
    1.000000
    1.000000
    1.000000
    1.000000
    0.000000
    0.000000
    0.000000
    0.000000
    0.000000
    0.000000
    0.000000
    0.000000
    0.000000
    0.000000
    0.000000
    0.000000
    0.000000
    0.000000
    0.000000
    0.000000
    0.000000
    0.000000
    0.000000
    0.000000
    0.000000
    0.000000
    0.000000
    0.000000
    0.000000
    0.000000
    0.000000
    0.000000
    0.000000
    0.000000
    0.000000
    0.000000
    0.000000
    0.000000
    0.000000
    0.000000
    0.000000
    0.000000
    0.000000
    0.000000
    0.000000
    0.000000
    0.000000
    0.000000
    0.000000
    0.000000
    0.000000
    0.000000
    0.000000
    0.000000
    0.000000
    0.000000
    0.000000
    0.000000
    0.000000
    0.000000
    0.000000
    0.000000
    0.000000
    0.000000
    0.000000
    0.000000
    0.000000
    0.000000
    0.000000
    0.000000
    0.000000
    0.000000
    0.000000
    0.000000
    0.000000
    1.000000
    0.000000
    0.000000
    0.000000
    0.000000
    0.000000
    0.000000
    0.000000
    0.000000
    0.000000
    0.000000
    0.000000
    0.000000
    0.000000
    0.000000
    0.000000
    0.000000
    0.000000
    0.000000
    0.000000
    0.000000
    0.000000
    0.000000
    0.000000
    0.000000
    1.000000
    0.000000
    0.000000
    0.000000
    0.000000
    0.000000
    0.000000
    0.000000
    0.000000
    0.000000
    0.000000
    0.000000
    0.000000
    0.000000
    0.000000
    0.000000
    0.000000
    0.000000
    1.000000
    0.000000
    0.000000
    0.000000
    0.000000
    0.000000
    1.000000
    0.000000
    0.000000
    0.000000
    0.000000
    0.000000
    0.000000
    0.000000
    0.000000
    0.000000
    0.000000
    0.000000
    0.000000
    1.000000
    0.000000
    0.000000
    0.000000
    0.000000
    0.000000
    0.000000
    0.000000
    0.000000
    0.000000
    0.000000
    0.000000
    0.000000
    0.000000
    0.000000
    0.000000
    0.000000
    0.000000
    0.000000
    1.000000
    0.000000
    0.000000
    0.000000
    0.000000
    0.000000
    0.000000
    0.000000
    0.000000
    0.000000
    0.000000
    0.000000
    0.000000
    0.000000
    0.000000
    0.000000
    0.000000
    0.000000
    0.000000
    0.000000
    0.000000
    0.000000
    0.000000
    0.000000
    0.000000
    1.000000
    0.000000
    0.000000
    0.000000
    0.000000
    0.000000
    0.000000
    0.000000
    0.000000
    0.000000
    0.000000
    0.000000
    0.000000
    0.000000
    0.000000
    0.000000
    0.000000
    0.000000
    0.000000
    0.000000
    0.000000
    0.000000
    0.000000
    0.000000
    0.000000
    0.000000
    0.000000
    0.000000
    0.000000
    0.000000
    0.000000
    0.000000
    0.000000
    0.000000
    0.000000
    0.000000
    0.000000
    0.000000
    0.000000
    0.000000
    0.000000
    1.000000
    0.000000
    0.000000
    0.000000
    1.000000
    0.000000
    0.000000
    0.000000
    0.000000
    0.000000
    1.000000
    0.000000
    0.000000
    0.000000
    0.000000
    0.000000
    0.000000
    0.000000
    0.000000
    0.000000
    0.000000
    0.000000
    0.000000
    0.000000
    0.000000
    0.000000
    0.000000
    1.000000
    0.000000
    0.000000
    0.000000
    0.000000
    0.000000
    0.000000
    0.000000
    0.000000
    0.000000
    0.000000
    0.000000
    0.000000
    0.000000
    0.000000
    0.000000
    0.000000
    0.000000
    0.000000
    0.000000
    0.000000
    0.000000
    0.000000
    0.000000
    0.000000
    0.000000
    0.000000
    0.000000
    0.000000
    0.000000
    0.000000
    0.000000
    0.000000
    0.000000
    0.000000
    1.000000
    0.000000
    0.000000
    0.000000
    1.000000
    1.000000
    1.000000
    1.000000
    1.000000
    0.000000
    0.000000
    0.000000
    0.000000
    1.000000
    0.000000
    0.000000
    0.000000
    0.000000
    0.000000
    0.000000
    0.000000
    0.000000
    0.000000
    0.000000
    0.000000
    0.000000
    0.000000
    0.000000
    0.000000
    0.000000
    0.000000
    0.000000
    0.000000
    0.000000
    0.000000
    0.000000
    0.000000
    0.000000
    0.000000
    0.000000
    0.000000
    0.000000
    0.000000
    0.000000
    0.000000
    0.000000
    0.000000
    0.000000
    0.000000
    0.000000
    0.000000
    0.000000
    0.000000
    0.000000
    0.000000
    0.000000
    0.000000
    0.000000
    0.000000
    0.000000
    0.000000
    0.000000
    0.000000
    0.000000
    0.000000
    0.000000
    0.000000
    0.000000
    1.000000
    1.000000
    0.000000
    0.000000
    0.000000
    0.000000
    0.000000
    0.000000
    0.000000
    0.000000
    0.000000
    0.000000
    0.000000
    0.000000
    0.000000
    0.000000
    1.000000
    0.000000
    0.000000
    0.000000
    0.000000
    0.000000
    0.000000
    1.000000
    0.000000
    0.000000
    0.000000
    0.000000
    0.000000
    0.000000
    0.000000
    0.000000
    0.000000
    0.000000
    0.000000
    1.000000
    0.000000
    0.000000
    0.000000
    0.000000
    0.000000
    0.000000
    0.000000
    0.000000
    0.000000
    0.000000
    0.000000
    0.000000
    0.000000
    0.000000
    0.000000
    0.000000
    0.000000
    0.000000
    0.000000
    0.000000
    0.000000
    0.000000
    0.000000
    0.000000
    0.000000
    0.000000
    0.000000
    0.000000
    0.000000
    0.000000
    0.000000
    0.000000
    0.000000
    0.000000
    0.000000
    0.000000
    0.000000
    0.000000
    0.000000
    0.000000
    0.000000
    0.000000
    0.000000
    0.000000
    1.000000
    0.000000
    0.000000
    0.000000
    0.000000
    0.000000
    0.000000
    1.000000
    0.000000
    0.000000
    0.000000
    0.000000
    0.000000
    0.000000
    0.000000
    0.000000
    0.000000
    0.000000
    0.000000
    0.000000
    0.000000
    0.000000
    0.000000
    1.000000
    0.000000
    1.000000
    0.000000
    0.000000
    0.000000
    0.000000
    0.000000
    1.000000
    0.000000
    0.000000
    0.000000
    0.000000
    0.000000
    0.000000
    0.000000
    0.000000
    0.000000
    1.000000
    0.000000
    0.000000
    0.000000
    0.000000
    0.000000
    0.000000
    0.000000
    0.000000
    0.000000
    0.000000
    0.000000
    0.000000
    0.000000
    0.000000
    0.000000
    0.000000
    0.000000
    0.000000
    0.000000
    0.000000
    0.000000
    0.000000
    0.000000
    0.000000
    0.000000
    0.000000
    0.000000
    0.000000
    0.000000
    0.000000
    0.000000
    0.000000
    0.000000
    0.000000
    0.000000
    0.000000
    1.000000
    0.000000
    0.000000
    1.000000
    0.000000
    0.000000
    0.000000
    0.000000
    0.000000
    0.000000
    0.000000
    0.000000
    1.000000
    0.000000
    0.000000
    0.000000
    0.000000
    0.000000
    0.000000
    0.000000
    0.000000
    0.000000
    1.000000
    0.000000
    0.000000
    0.000000
    0.000000
    0.000000
    0.000000
    0.000000
    0.000000
    0.000000
    0.000000
    0.000000
    0.000000
    0.000000
    0.000000
    0.000000
    0.000000
    0.000000
    0.000000
    0.000000
    0.000000
    0.000000
    0.000000
    0.000000
    0.000000
    0.000000
    0.000000
    0.000000
    0.000000
    0.000000
    0.000000
    0.000000
    0.000000
    0.000000
    0.000000
    0.000000
    0.000000
    0.000000
    1.000000
    0.000000
    0.000000
    0.000000
    0.000000
    0.000000
