# vtk DataFile Version 2.0
polydata
ASCII
DATASET POLYDATA
POINTS 104 double
1.04890194543678 1.66480746765689 4.38897734620484 
3.0445296503672 2.4797436315766 1.6354025080514 
3.2283488668954 2.28590063933372 2.22077357900057 
2.99299491917589 2.67967334620219 1.95281382561167 
3.27674164340198 2.10794153794754 1.91248022354185 
0.716450736125 3.21719578272519 0.87677143416364 
0.59035731683102 3.31768749552128 0.63940556925214 
1.62657768939991 4.2548826625566 1.19806941618153 
1.47246823196071 4.2061909806778 1.32997921093622 
1.18817234698872 4.47685231776639 1.10247503836953 
2.13249851289283 1.36965486293313 4.34893385039446 
2.29789727861318 1.69601936961948 4.7900427273528 
2.11554777341236 2.11648768743464 4.74320433496859 
5.43460856592324 0.80865702386946 1.79922274551823 
5.29311660001561 0.28059127465124 2.24606978442934 
5.55180938711342 0.64546732610273 1.84872568843736 
0.74740331228668 4.14110871829449 0.3195533187324 
0.53005602965435 4.07627406299692 0.58903248141941 
0.73604638390842 4.26112338128491 1.0124209221154 
2.09424501926237 1.85718117095929 1.78520822220091 
1.95391443683323 1.88357488235476 2.10340141646224 
2.56844297688156 2.55144285482917 1.63746113641744 
2.91734187128121 2.43011372601004 1.54773684823855 
1.21174223667103 1.81247055474853 5.37516855071004 
1.09180349234854 2.01219340281683 4.98718332048586 
1.34476483767721 1.9086973143262 5.44997387055429 
1.30547537445287 2.26292334446651 4.94894190497882 
5.75728771884007 0.77698914360984 1.91306800947886 
1.31743839091275 1.42194033602989 5.32681182346665 
1.69450146470404 1.67675086922692 5.54044247354808 
2.20755396644171 1.56323940319821 5.18239495400028 
2.01036774167334 1.27040854962206 5.1941430175473 
0.57037903996812 3.77540772911941 1.15254561742977 
0.42937111492149 3.72034123791642 0.74137412004331 
1.01200123399621 3.76298875009981 0.10689223637069 
0.7306169040907 3.56199205835992 1.24149012451496 
5.66500203595827 0.97459282693754 1.87026187800556 
5.71751277948789 1.44902375571091 2.25002220539372 
5.72508503900019 1.29720152039462 2.93835184330961 
5.00902130758265 1.39314964288756 2.96840121293596 
5.49796611706744 1.5285644221898 2.83679944213223 
2.03455683199082 1.82227384489613 5.37153664822055 
1.46784426637474 2.25633642143942 5.16691418988256 
2.06168094884696 2.28505989575817 2.30706091493663 
1.69256836669943 3.50187061202341 0.43591899679036 
1.4431592769289 3.88317954144575 0.15095425791447 
1.27983546137206 4.51417432862654 1.00344259356867 
5.94240290584639 1.20704250295591 2.54664728334267 
2.698859856137 2.77379547487582 2.05434796223673 
1.65602775048033 1.4108186766481 5.46233317429522 
1.42176962535648 1.35754795141284 4.08988415147694 
5.4542086027369 0.21475083793527 2.55817134031999 
1.09220569080839 1.42339526865611 4.35903971997163 
1.22218418377922 1.16863015294893 4.70785403108413 
2.51032049508202 2.73049813326876 1.91088978498026 
2.53770561797155 2.42402399613875 2.69231238898919 
4.90368440935208 0.49636579955144 2.24577159827482 
4.70217301354176 0.77247558691389 2.76666014360178 
5.56787840028433 1.55252922354508 2.325122142579 
5.50463295016814 0.87433924141827 3.23095789530194 
4.9436928210341 0.84883933653086 1.97560451987707 
5.37179229527214 0.35674608889511 3.02994091046537 
1.1764802721246 4.41009297209214 0.43897531460928 
1.50481989863552 4.19856889170124 0.30880666999159 
1.94864709372303 2.18056097405246 5.11407112252986 
0.92407716925205 3.30232907381558 0.31681042437369 
1.31745862891278 3.68165765338757 1.39348251080411 
1.6275125383526 3.44825865147475 1.15614552464034 
2.32762786339922 1.45713615837961 1.76921008044192 
2.90675622970001 1.70346962080128 1.63112089285564 
1.89178053391361 2.1517542982813 4.41189046493726 
1.37119346996066 3.13817595219501 0.53130895725234 
1.33579780365681 3.09594343967734 0.72932312546835 
2.9973988477248 1.38393353916871 2.25055616783869 
3.12994427601361 1.6673069431915 1.85036289599659 
1.29658626639156 1.88699632351611 4.17878990943087 
1.50917518263629 2.229468898683 4.45306748159828 
1.53888706243249 1.63676048874062 4.01284425940489 
1.8817144263741 1.70351195285522 4.10140247223026 
4.6564686239766 1.26133913551921 2.53057855979985 
4.80783622219948 1.21785357241474 2.16024855580047 
4.74543419965415 1.3989318883318 2.58474878028194 
4.95766159257405 1.4484615169528 2.25566983068922 
2.61769468786692 1.25254304385932 2.48629143011456 
2.30333907796014 1.26846164601967 2.00347236375643 
2.66705008219981 1.18855733779596 2.28359394824149 
5.94889155142552 0.71912001570553 2.34440836265629 
2.33733403551917 2.30093708660943 2.71833488118928 
2.29420546306885 1.40263652268105 2.54112639296804 
2.11083333567405 1.39868098737545 2.2981870395445 
2.42292259271948 2.13031249923413 2.80175523064065 
1.89488224950614 3.97921468252684 0.9150552713716 
1.91450580624847 3.7643821501211 0.91121413857136 
5.55660440702384 0.42730049897193 3.04920210170093 
5.71989393121084 0.34204563197291 2.65598715966011 
2.95405755582491 1.50167891365638 2.52452786902356 
5.09384979461128 0.92124112489806 3.26600971625681 
4.987677448731 0.71186127246149 3.17893271564727 
2.6685658717855 2.22241397106873 2.79352648937278 
2.99463775771903 2.03174164959451 2.6524922189097 
1.91140871761301 0.9988187273226 4.68385949345319 
1.99110215833555 1.08168757240099 4.41147662387397 
1.65626814239145 0.94821657646192 4.54266805282853 
1.73406410529703 1.01654677403701 4.33283792222764 
POLYGONS 60 372
5 0 52 50 77 75 
4 3 1 4 2 
5 6 5 72 71 65 
5 7 46 62 63 91 
4 8 9 46 7 
5 11 12 70 78 10 
5 15 13 60 56 14 
6 18 17 16 62 46 9 
5 20 19 68 84 89 
6 20 43 87 90 88 89 
5 22 21 19 68 69 
6 57 79 81 39 96 97 
6 3 1 22 21 54 48 
5 23 25 42 26 24 
6 15 14 51 94 86 27 
4 73 85 83 95 
6 28 23 24 0 52 53 
6 77 78 10 101 103 50 
5 11 12 64 41 30 
6 26 42 64 12 70 76 
6 10 11 30 31 100 101 
6 28 49 31 100 102 53 
5 26 24 0 75 76 
5 29 25 42 64 41 
5 29 25 23 28 49 
5 31 30 41 29 49 
6 4 2 99 95 73 74 
5 71 72 67 92 44 
5 21 19 20 43 54 
5 44 45 63 91 92 
4 18 17 33 32 
5 44 45 34 65 71 
5 5 35 66 67 72 
5 27 36 37 47 86 
5 32 35 5 6 33 
6 33 6 65 34 16 17 
5 38 40 58 37 47 
6 7 8 66 67 92 91 
7 13 36 37 58 82 80 60 
6 14 51 61 97 57 56 
6 38 47 86 94 93 59 
5 39 40 38 59 96 
4 13 36 27 15 
5 22 1 4 74 69 
6 3 2 99 98 55 48 
5 48 54 43 87 55 
5 16 34 45 63 62 
6 32 35 66 8 9 18 
5 39 40 58 82 81 
5 52 53 102 103 50 
4 51 61 93 94 
4 55 87 90 98 
6 83 88 90 98 99 95 
5 59 93 61 97 96 
5 56 57 79 80 60 
6 68 69 74 73 85 84 
5 75 76 70 78 77 
4 79 80 82 81 
5 84 85 83 88 89 
4 100 101 103 102 
