# vtk DataFile Version 2.0
polydata
ASCII
DATASET POLYDATA
POINTS 66 double
4.76390226907873 3.45474996955426 1.57589938570032 
6.34601990591378 5.39745347027411 6.03106332194123 
6.63797710256615 5.93217667747929 5.83464734104687 
6.56730292328204 5.10880452345238 5.85754921964527 
1.75775703316481 3.89081205081204 2.11041010480775 
5.75398861296715 5.1200522190582 5.65662947146979 
6.13242155412325 5.20514225876192 4.70547908034101 
5.52046820814221 5.42477407111358 5.51353884692368 
5.53617825984621 5.60184517273085 5.22945482900723 
6.20624828078593 4.83814786626316 5.44573641635912 
6.37658025985455 4.87520597058862 5.08138628768138 
6.21656818566414 6.19974290592687 5.49153332008596 
0.60400980827922 4.38857931984726 2.09868396741344 
0.69026448267168 4.12714764977531 1.6225407606803 
1.93512107817788 4.8597868972554 1.57797733109078 
6.29736541070531 5.46205602244309 4.60823760116796 
5.69340012200637 5.89035463913313 5.53836119815846 
5.91084830992201 5.37700103220977 5.94822836924177 
0.74363967300606 4.73676987495046 1.95286871409714 
1.36823877923582 4.92884481960768 2.18429048179305 
5.62786038332615 5.65298058022686 5.73070162302296 
4.29422023525431 3.41990687312845 2.67050632491503 
1.49770312814442 3.80357068212572 1.62860875185132 
0.98153892424044 3.78665160980723 1.77018064732811 
5.99699493661496 5.78029235421802 4.73450361826944 
4.77444756956552 2.46699899415748 1.83920551728154 
6.36561113618373 6.21024166491614 5.14932628483197 
5.72024707885445 5.55111550681026 4.8750651918004 
6.75221500673867 5.60103772227956 4.83880492582459 
5.12727474173295 2.49940310234975 2.46797266000839 
1.5071844398443 4.55330374291078 2.54373290494485 
0.845600319297 4.39862732824192 1.36925571068426 
0.85272077953374 4.72920627695046 1.51920719968566 
6.92544489611635 5.33176067808268 5.59881533901546 
6.88799870496749 5.19679062519044 5.18190954681436 
1.72092520825957 5.01475640895306 1.69608103735283 
1.99736254637521 4.31777259139732 2.09096303120016 
2.06584499143087 4.51250343808022 1.68319006934013 
6.83398968093024 5.89402767487575 5.68742178072934 
6.6921823414403 6.08615238768161 5.14025908853072 
5.09166157779005 3.03435100212447 1.55863405115741 
5.33687412624682 2.95911812658193 1.83934245398613 
4.78078995913426 3.64283406850629 1.83410373476894 
4.37455445793565 2.41342456457695 2.28109600126489 
4.10859751162731 3.2932475402625 1.95370150789462 
4.247702221984 3.56735842683216 2.14865802676569 
1.60053195196693 4.99058738082095 1.45253843454291 
4.44453705940213 2.74753503878051 2.89768959725199 
4.56399803112895 2.39590873861382 2.59405464169348 
5.18163891473336 2.51650995175472 2.04727776974323 
4.02418865952983 2.84615770481927 2.32729828945253 
4.10980748066617 3.01293565376701 2.72119657375048 
1.75573158952385 4.8729050585934 1.34780294963018 
5.21906391934947 2.83822174864588 2.65261578413977 
4.74583919112237 3.37896748764553 2.8172733875541 
4.82453634195362 3.02626928245185 2.94194198042882 
1.60230497681344 4.39821489694094 1.1649383199801 
1.74323352887532 4.23612059173462 1.25692954766541 
1.40225148682369 3.92911041685725 2.47207795795107 
0.97578730951808 3.84735443040765 2.29896555995995 
1.33453760228015 4.3550153531221 2.62503678741274 
0.75784930430756 4.22751162664217 2.36558066447318 
4.47215253179104 3.23430179304815 1.55868364914482 
4.77151975060411 2.81313565701491 1.53830544396914 
5.18736413139095 3.51137492663378 2.1957648607812 
5.37125660356634 3.25891252519083 2.1694596698789 
POLYGONS 39 237
6 25 43 50 44 62 63 
5 21 51 47 55 54 
5 21 45 42 64 54 
6 40 41 65 64 42 0 
5 41 49 29 53 65 
5 47 48 29 53 55 
5 0 42 45 44 62 
4 0 40 63 62 
5 25 43 48 29 49 
5 40 41 49 25 63 
5 2 1 3 33 38 
5 4 22 57 37 36 
7 5 7 8 27 6 10 9 
5 2 11 26 39 38 
6 18 19 30 60 61 12 
6 22 23 13 31 56 57 
6 19 30 36 37 14 35 
5 15 24 26 39 28 
5 13 12 18 32 31 
6 17 1 2 11 16 20 
6 11 16 8 27 24 26 
4 17 5 7 20 
5 9 3 33 34 10 
5 5 9 3 1 17 
4 7 8 16 20 
4 6 15 24 27 
5 6 15 28 34 10 
5 4 36 30 60 58 
4 14 35 46 52 
5 14 37 57 56 52 
5 13 12 61 59 23 
5 4 22 23 59 58 
5 18 19 35 46 32 
5 31 32 46 52 56 
5 44 45 21 51 50 
5 33 34 28 39 38 
5 47 48 43 50 51 
5 54 55 53 65 64 
4 58 59 61 60 
CELL_DATA 39
SCALARS scalar_1 double
LOOKUP_TABLE default
0.14686203571269268
0.14686203571269268
0.14686203571269268
0.14686203571269268
0.14686203571269268
0.14686203571269268
0.14686203571269268
0.14686203571269268
0.14686203571269268
0.14686203571269268
0.1502255541692685
0.14051422405260933
0.1502255541692685
0.1502255541692685
0.14051422405260933
0.14051422405260933
0.14051422405260933
0.1502255541692685
0.14051422405260933
0.1502255541692685
0.1502255541692685
0.1502255541692685
0.1502255541692685
0.1502255541692685
0.1502255541692685
0.1502255541692685
0.1502255541692685
0.14051422405260933
0.14051422405260933
0.14051422405260933
0.14051422405260933
0.14051422405260933
0.14051422405260933
0.14051422405260933
0.14686203571269268
0.1502255541692685
0.14686203571269268
0.14686203571269268
0.14051422405260933
