# vtk DataFile Version 2.0
polydata
ASCII
DATASET POLYDATA
POINTS 66 double
4.76696639067248 3.45413416662043 1.57710898679234 
6.34779679291449 5.39450700618155 6.03552725202402 
6.6406651822742 5.93037756941387 5.83848614117507 
6.56975571294623 5.10524701065179 5.86127461816286 
1.76143351645076 3.88746062746611 2.11323137576105 
5.75593198706032 5.11485582954218 5.65903035101972 
6.13436962819237 5.20108345454144 4.70718043882197 
5.52091179108499 5.42081663478269 5.51500353928875 
5.53638681088042 5.59969923089216 5.2275509944431 
6.20806107771337 4.83393828003782 5.44828948824513 
6.3787304259486 4.87122511094358 5.08361341140211 
6.21775445135449 6.19915271731809 5.49436998111308 
0.60443601919892 4.38619037263277 2.10279708875331 
0.69149197610837 4.12410688829832 1.62433892720668 
1.9408450480662 4.85682541739676 1.58154408306683 
6.30024321350218 5.45944913667766 4.60945774360207 
5.69602975310068 5.89190713904238 5.54104450391969 
5.91458293833886 5.37422371494186 5.95369690367478 
0.74459784782595 4.73518094521204 1.95606836200527 
1.37070241370611 4.9280869085655 2.1878660022668 
5.62992850694405 5.6522275603548 5.73520928306821 
4.29582963481139 3.41835334503183 2.67381697391302 
1.50040251997948 3.80021446568708 1.63026088341401 
0.9833908866576 3.78318195364729 1.77208560218468 
5.9980536193076 5.77979460323951 4.73629099884274 
4.77729813213933 2.46277118720251 1.84065188387162 
6.36735929462036 6.20952520081699 5.1516288121444 
5.71841406913431 5.54942302289182 4.8778632973254 
6.75507563917796 5.59867352596653 4.84045224603251 
5.13115684513077 2.49545249629173 2.47073009995603 
1.50935637490266 4.55111418170085 2.54930730956702 
0.84706406041612 4.3959963922737 1.37074059040261 
0.85412504327369 4.72757877516285 1.52108990757176 
6.92866831020371 5.3288779380743 5.60195735587329 
6.8911569975479 5.19364095539881 5.1845082873429 
1.72311530705405 5.01419476164695 1.70134047208974 
2.00200971825107 4.31564203157723 2.09359126531696 
2.07079606028597 4.51028950180741 1.68625471875975 
6.83699389977481 5.89218014962834 5.69100136496151 
6.69479002826997 6.0850069335014 5.14257009890847 
5.09655042119281 3.0314770043436 1.55978830323366 
5.34145621000579 2.95658182217783 1.84045757258578 
4.78406801650167 3.64182185908433 1.83502212278431 
4.37653577564599 2.40917602063477 2.28362446663373 
4.10955187275951 3.2912129983109 1.95559361095913 
4.24918838276715 3.56612572249222 2.15114269806955 
1.60135281329901 4.98956778126796 1.45416435698344 
4.44654652316833 2.74419089074646 2.90164241094224 
4.56626783179461 2.39158358808797 2.59707031162181 
5.18570906846768 2.51252572597998 2.04936731781898 
4.02508575161559 2.84327542852931 2.32987214991345 
4.11083179533994 3.01047219745284 2.72459126507685 
1.75860374777721 4.87022589267748 1.34793316922925 
5.22302037998695 2.835268681766 2.65600939569485 
4.74869545864256 3.3770706214039 2.82107792415445 
4.82746625746625 3.02364851589698 2.9460007055169 
1.60516554559409 4.39569011888864 1.1657844040286 
1.74642920886797 4.23317734239588 1.25801496084385 
1.40643987150526 3.92565171843205 2.47524523424246 
0.97736126261307 3.84348328642209 2.30110815481385 
1.33875447992011 4.35527987482762 2.6298583974594 
0.75686086137224 4.2265946682662 2.36787838708109 
4.47333384030776 3.2323121756193 1.55993079348979 
4.77432001538713 2.80890577332316 1.53943701447884 
5.19212414484245 3.50966970573838 2.19734868853855 
5.37571311316518 3.25757296101014 2.17118054324449 
POLYGONS 39 237
6 25 43 50 44 62 63 
5 21 51 47 55 54 
5 21 45 42 64 54 
6 40 41 65 64 42 0 
5 41 49 29 53 65 
5 47 48 29 53 55 
5 0 42 45 44 62 
4 0 40 63 62 
5 25 43 48 29 49 
5 40 41 49 25 63 
5 2 1 3 33 38 
5 4 22 57 37 36 
7 5 7 8 27 6 10 9 
5 2 11 26 39 38 
6 18 19 30 60 61 12 
6 22 23 13 31 56 57 
6 19 30 36 37 14 35 
5 15 24 26 39 28 
5 13 12 18 32 31 
6 17 1 2 11 16 20 
6 11 16 8 27 24 26 
4 17 5 7 20 
5 9 3 33 34 10 
5 5 9 3 1 17 
4 7 8 16 20 
4 6 15 24 27 
5 6 15 28 34 10 
5 4 36 30 60 58 
4 14 35 46 52 
5 14 37 57 56 52 
5 13 12 61 59 23 
5 4 22 23 59 58 
5 18 19 35 46 32 
5 31 32 46 52 56 
5 44 45 21 51 50 
5 33 34 28 39 38 
5 47 48 43 50 51 
5 54 55 53 65 64 
4 58 59 61 60 
CELL_DATA 39
SCALARS scalar_1 double
LOOKUP_TABLE default
0.09292272930383569
0.09292272930383569
0.09292272930383569
0.09292272930383569
0.09292272930383569
0.09292272930383569
0.09292272930383569
0.09292272930383569
0.09292272930383569
0.09292272930383569
0.09725562327907088
0.08819018898455669
0.09725562327907088
0.09725562327907088
0.08819018898455669
0.08819018898455669
0.08819018898455669
0.09725562327907088
0.08819018898455669
0.09725562327907088
0.09725562327907088
0.09725562327907088
0.09725562327907088
0.09725562327907088
0.09725562327907088
0.09725562327907088
0.09725562327907088
0.08819018898455669
0.08819018898455669
0.08819018898455669
0.08819018898455669
0.08819018898455669
0.08819018898455669
0.08819018898455669
0.09292272930383569
0.09725562327907088
0.09292272930383569
0.09292272930383569
0.08819018898455669
