# vtk DataFile Version 2.0
polydata
ASCII
DATASET POLYDATA
POINTS 66 double
4.77272865717784 3.45490506355143 1.57665291323126 
6.35239655402514 5.39342604187462 6.03775982987263 
6.64601960368697 5.93025055655937 5.84016168159861 
6.57493189346667 5.10366388529907 5.86284760628685 
1.76772396489201 3.885997349582 2.11409308470356 
5.76086141755 5.11167175656683 5.65939972243278 
6.13909263522024 5.19891470571308 4.70726813297279 
5.5244958981625 5.41869841769236 5.51450184122164 
5.53969079878995 5.59927536325052 5.22383177934021 
6.21267640538444 4.83177532747671 5.44889804466307 
6.38357516239538 4.86926019640887 5.08401531467318 
6.22177838414189 6.20009856509956 5.49521158469205 
0.60801661974451 4.38554689630109 2.10480907113614 
0.69575808430371 4.12288378059156 1.62432806023454 
1.94872571390563 4.8557181025003 1.58303055530417 
6.30584166600291 5.4586644709698 4.60909712829032 
5.70163773221081 5.89497414617213 5.54171359415183 
5.92115535199781 5.37328914101506 5.95688782747562 
0.74863242568065 4.73521215202385 1.95729411657707 
1.37594757500975 4.92878512825739 2.18938921433192 
5.63502041927862 5.65310735487668 5.73755549409229 
4.30041259160452 3.41842259986352 2.67507422959589 
1.50587376806252 3.79873930187154 1.63013363932239 
0.98816060632295 3.78161439292698 1.77216239858976 
6.00199602165687 5.78095493140644 4.7364376689709 
4.78281511246191 2.46060144625549 1.84035998106334 
6.37182525111986 6.21033416515523 5.15213739155873 
5.7195578619054 5.5494808208722 4.87897182771126 
6.76051432788842 5.59801130781984 4.84040207056011 
5.1375823759006 2.49351182806804 2.47154814354555 
1.51433674367845 4.55062029098757 2.55253920938405 
0.85152108709046 4.39510232203516 1.37049043524898 
0.8585368147003 4.72756005460657 1.52119214175604 
6.93437338744192 5.32781391764697 5.60309712091825 
6.89681732121741 5.1923767286774 5.18521562250437 
1.72816365025103 5.01501604999847 1.70417303609543 
2.0091024383113 4.31520003912496 2.09429070332942 
2.07809798793252 4.50975120284054 1.68735923742312 
6.84251949166108 5.89202212243336 5.69250862771748 
6.70001464435598 6.08542020388965 5.14311141911835 
5.10378389052347 3.03042720507525 1.55929070998257 
5.34845084317951 2.95579831360995 1.83993766377348 
4.78999439181355 3.64231971612371 1.8343911323229 
4.38137782396302 2.40699819637786 2.28417451146902 
4.11355877342963 3.29078789161493 1.95565542541463 
4.25366989974384 3.56645045108167 2.15175679219504 
1.60531107544012 4.99001380508323 1.45407786339147 
4.45145367465186 2.74275356123883 2.90343075209796 
4.57138856951505 2.38934288895622 2.59809638039461 
5.19228694628541 2.51055770532082 2.0496365047381 
4.0290606921126 2.84218497509498 2.3304578000743 
4.11492465326667 3.00975897308816 2.72592041915497 
1.76419275488869 4.86934469050472 1.34666001064376 
5.229516037778 2.83415896665431 2.65735737567324 
4.75429619746138 3.3768627658189 2.82273748271474 
4.8331374915551 3.02281016206588 2.94788108273761 
1.61072639061636 4.39487673611042 1.16504239382057 
1.7522722851166 4.23201784016896 1.25746364570446 
1.41317165887495 3.92410666129337 2.47637051420059 
0.98190242562506 3.84159668507729 2.30137680475209 
1.34552049268234 4.35692066932764 2.63240995651907 
0.75921181027168 4.22723134111497 2.3682787612155 
4.47752580305955 3.23192659960349 1.55949133319649 
4.77980301907469 2.80672771879255 1.53890777094702 
5.1992272029487 3.50962119774998 2.19724918979246 
5.38261063356782 3.25777357852828 2.17117965332729 
POLYGONS 39 237
6 25 43 50 44 62 63 
5 21 51 47 55 54 
5 21 45 42 64 54 
6 40 41 65 64 42 0 
5 41 49 29 53 65 
5 47 48 29 53 55 
5 0 42 45 44 62 
4 0 40 63 62 
5 25 43 48 29 49 
5 40 41 49 25 63 
5 2 1 3 33 38 
5 4 22 57 37 36 
7 5 7 8 27 6 10 9 
5 2 11 26 39 38 
6 18 19 30 60 61 12 
6 22 23 13 31 56 57 
6 19 30 36 37 14 35 
5 15 24 26 39 28 
5 13 12 18 32 31 
6 17 1 2 11 16 20 
6 11 16 8 27 24 26 
4 17 5 7 20 
5 9 3 33 34 10 
5 5 9 3 1 17 
4 7 8 16 20 
4 6 15 24 27 
5 6 15 28 34 10 
5 4 36 30 60 58 
4 14 35 46 52 
5 14 37 57 56 52 
5 13 12 61 59 23 
5 4 22 23 59 58 
5 18 19 35 46 32 
5 31 32 46 52 56 
5 44 45 21 51 50 
5 33 34 28 39 38 
5 47 48 43 50 51 
5 54 55 53 65 64 
4 58 59 61 60 
CELL_DATA 39
SCALARS scalar_1 double
LOOKUP_TABLE default
0.04889819180861889
0.04889819180861889
0.04889819180861889
0.04889819180861889
0.04889819180861889
0.04889819180861889
0.04889819180861889
0.04889819180861889
0.04889819180861889
0.04889819180861889
0.05432493145323649
0.04558282903908954
0.05432493145323649
0.05432493145323649
0.04558282903908954
0.04558282903908954
0.04558282903908954
0.05432493145323649
0.04558282903908954
0.05432493145323649
0.05432493145323649
0.05432493145323649
0.05432493145323649
0.05432493145323649
0.05432493145323649
0.05432493145323649
0.05432493145323649
0.04558282903908954
0.04558282903908954
0.04558282903908954
0.04558282903908954
0.04558282903908954
0.04558282903908954
0.04558282903908954
0.04889819180861889
0.05432493145323649
0.04889819180861889
0.04889819180861889
0.04558282903908954
