# vtk DataFile Version 2.0
polydata
ASCII
DATASET POLYDATA
POINTS 66 double
4.77190182197848 3.45654418672868 1.58066857663212 
6.35085287190309 5.39400792069809 6.04335634254454 
6.64492427980098 5.93140469101075 5.84541083194976 
6.57373271486369 5.10395585241794 5.86803562381744 
1.76721380680166 3.8863244127576 2.11887496330033 
5.75959580681777 5.11090464954287 5.66382541225242 
6.13760627792587 5.19877426545881 4.71167616102529 
5.52238499159478 5.41858146316528 5.51836821725824 
5.53737153260719 5.60024712650841 5.22559846972418 
6.21113071951899 4.83170409908419 5.45351706810298 
6.38213786014557 4.86930832543896 5.08855024839405 
6.21985785135184 6.20192035966553 5.49996584506937 
0.6059076270187 4.38637035548378 2.11029317337075 
0.69405920466127 4.12335093841146 1.62858356009629 
1.94908122389821 4.85630752305312 1.58816324522972 
6.3049252472188 5.45943136214651 4.61321547519732 
5.70081831402619 5.89819891885633 5.54634436852015 
5.9209310347311 5.37396011009554 5.96310509937837 
0.74679797561875 4.7364450520842 1.9623043834313 
1.37480217370991 4.93039465230439 2.19456808219458 
5.63387315696291 5.65491471103863 5.7432504978538 
4.29890204206186 3.41967461380689 2.68009269361783 
1.50487854677296 3.79905695607445 1.63432621212259 
0.98675744879036 3.78187718825221 1.77647089737911 
6.00002761456935 5.78297036614169 4.74087564238631 
4.7818246067421 2.46052840933998 1.84445866782042 
6.3701472580453 6.21206102747585 5.1567626571786 
5.71573403848934 5.55078929953338 4.88404026652816 
6.75943324064916 5.5988097797082 4.84468315764087 
5.13714758201056 2.49357448528791 2.47631156443362 
1.51303055759147 4.5515201029872 2.5587490064049 
0.84993553600541 4.39576279717445 1.37461009623622 
0.85692694590469 4.72875840054849 1.52553152081397 
6.93343218186108 5.32839197840404 5.60805646525869 
6.8958543407572 5.1928465269904 5.18992874510155 
1.72693399446647 5.01668604117103 1.71005223930147 
2.00906045224247 4.31612972488266 2.09897705846967 
2.07815800226767 4.51061543924437 1.69229645701713 
6.84147252424835 5.89316467197432 5.6976886800375 
6.69880433904749 6.08689576142783 5.14776929065699 
5.10381063862667 3.03101210280841 1.56328288310212 
5.34834419192968 2.95653486003214 1.84392168751607 
4.7892590701303 3.64381984790637 1.83833064558737 
4.38000489303097 2.40692225197495 2.28875073283673 
4.11169666722994 3.29171536019249 1.95995941244003 
4.25209930334816 3.56785058834501 2.15640896918418 
1.60347360693008 4.99147146267517 1.45831645033645 
4.45013557069553 2.74311132920537 2.90876084322086 
4.57019602824698 2.38923052636728 2.60298126208878 
5.19194039744794 2.51060484606025 2.05407669103992 
4.02718641048823 2.84273342340853 2.33505474159634 
4.11312537996101 3.01054194936254 2.73098149210196 
1.76326110948867 4.87006201440179 1.35024001610437 
5.22912429340873 2.83471132773526 2.66243317904804 
4.75337948071724 3.37795534749583 2.82798969036845 
4.8322671457199 3.02352033546005 2.95326633047861 
1.60976269890732 4.39558229345962 1.16889285075537 
1.7514805553977 4.23251521779086 1.26142603047457 
1.41291438955076 3.92438841415365 2.48131168162271 
0.98036692474001 3.84167941674589 2.30581966261487 
1.34528727258503 4.35909936115978 2.63820402979249 
0.75637354989419 4.22881358396076 2.37279925204053 
4.47577313457316 3.23287917504073 1.56351100495886 
4.77879448246698 2.8066468513682 1.54287623595261 
5.19916597275474 3.51081054980941 2.20149388255229 
5.38244849151521 3.25908687810325 2.17547618931379 
POLYGONS 39 237
6 25 43 50 44 62 63 
5 21 51 47 55 54 
5 21 45 42 64 54 
6 40 41 65 64 42 0 
5 41 49 29 53 65 
5 47 48 29 53 55 
5 0 42 45 44 62 
4 0 40 63 62 
5 25 43 48 29 49 
5 40 41 49 25 63 
5 2 1 3 33 38 
5 4 22 57 37 36 
7 5 7 8 27 6 10 9 
5 2 11 26 39 38 
6 18 19 30 60 61 12 
6 22 23 13 31 56 57 
6 19 30 36 37 14 35 
5 15 24 26 39 28 
5 13 12 18 32 31 
6 17 1 2 11 16 20 
6 11 16 8 27 24 26 
4 17 5 7 20 
5 9 3 33 34 10 
5 5 9 3 1 17 
4 7 8 16 20 
4 6 15 24 27 
5 6 15 28 34 10 
5 4 36 30 60 58 
4 14 35 46 52 
5 14 37 57 56 52 
5 13 12 61 59 23 
5 4 22 23 59 58 
5 18 19 35 46 32 
5 31 32 46 52 56 
5 44 45 21 51 50 
5 33 34 28 39 38 
5 47 48 43 50 51 
5 54 55 53 65 64 
4 58 59 61 60 
CELL_DATA 39
SCALARS scalar_1 double
LOOKUP_TABLE default
0.023209867075452088
0.023209867075452088
0.023209867075452088
0.023209867075452088
0.023209867075452088
0.023209867075452088
0.023209867075452088
0.023209867075452088
0.023209867075452088
0.023209867075452088
0.029447775813279894
0.020762510394776747
0.029447775813279894
0.029447775813279894
0.020762510394776747
0.020762510394776747
0.020762510394776747
0.029447775813279894
0.020762510394776747
0.029447775813279894
0.029447775813279894
0.029447775813279894
0.029447775813279894
0.029447775813279894
0.029447775813279894
0.029447775813279894
0.029447775813279894
0.020762510394776747
0.020762510394776747
0.020762510394776747
0.020762510394776747
0.020762510394776747
0.020762510394776747
0.020762510394776747
0.023209867075452088
0.029447775813279894
0.023209867075452088
0.023209867075452088
0.020762510394776747
