# vtk DataFile Version 2.0
polydata
ASCII
DATASET POLYDATA
POINTS 66 double
4.76981283713205 3.45940969238186 1.57891423913805 
6.34839739156875 5.3963551370011 6.04238244924779 
6.64269116482477 5.93403818123671 5.8442607746433 
6.57144896605725 5.10616166310298 5.86685411056039 
1.76528370761094 3.88853527670229 2.11749880825832 
5.75730045158495 5.11255278283177 5.66224995746246 
6.13517273412759 5.20074137807334 4.71013520713479 
5.51965312164598 5.4205611744958 5.51650090601069 
5.53452326794173 5.60279081422171 5.22263410895894 
6.20867065452859 4.83372316093886 5.45205266166379 
6.37972311135272 4.87138711628339 5.08705748856641 
6.21720074838609 6.20489716347478 5.49856672632334 
0.6031878330681 4.38883060125507 2.10926662061843 
0.69154211593231 4.12563113038647 1.62694334935438 
1.94755989477994 4.85866729219163 1.58695263038805 
6.30278932251453 5.46187406900913 4.61152402164038 
5.69875292517982 5.90191246039713 5.54487735993364 
5.91917158253076 5.37635218508332 5.96245333394229 
0.74421540864373 4.73911266765971 1.96104100251876 
1.37255351286991 4.9332452407141 2.19338602293041 
5.63163929264385 5.65789122828377 5.74233072591939 
4.29647652171934 3.42235708211625 2.67883385517485 
1.50270728678531 3.80126133359234 1.6326568920997 
0.98438735801324 3.78405483110572 1.77485814475516 
5.99734604392404 5.7860632771777 4.73934922601256 
4.77964782698873 2.46255155312591 1.84274269801867 
6.36760359540577 6.21498705905914 5.15532257806358 
5.71207298844371 5.55351559244048 4.88284418387621 
6.75719509083416 5.6012564304873 4.84306723127514 
5.13525176734078 2.4956653477367 2.47492858570394 
1.51070357301665 4.55401748365404 2.55808194551721 
0.84747467768838 4.39813860151937 1.37290239629585 
0.85445478006666 4.73140796705181 1.52393597159676 
6.93125837649484 5.33073259638341 5.60677164121883 
6.89367154793426 5.19513658033022 5.18852409785083 
1.72465150925597 5.01956456151976 1.70919762089406 
2.00736199942753 4.31864104868754 2.09755255269159 
2.07650443056987 4.51309156707519 1.69099876569694 
6.83924571360799 5.89579517331745 5.69651519985991 
6.69650035383204 6.08969156921627 5.14634929023324 
5.10214068333716 3.03335911665774 1.56151778654866 
5.34661032034718 2.95895544168289 1.84215479096403 
4.78721431727421 3.64662253314279 1.83654545568194 
4.37764136939686 2.40894555469764 2.28726759168286 
4.10909348166108 3.29422716537411 1.95834406311285 
4.24964412369479 3.57060514177913 2.15497187387807 
1.60089944198601 4.99424696701715 1.45667197138438 
4.44780359305686 2.74534880366638 2.90765646732651 
4.56792570774205 2.39123595569369 2.60165810061131 
5.19008844624813 2.51268757387695 2.05253356260128 
4.02457837935859 2.84506122807469 2.33358117612116 
4.11055595104083 3.01298930911773 2.72974424693871 
1.76111967518591 4.8724830426372 1.34828086383484 
5.22725054537149 2.83704465107804 2.66120464189581 
4.75124662061562 3.38055941953201 2.82684607585299 
4.83015779496788 3.02593246479001 2.95218970188406 
1.60760061556292 4.39797990196045 1.16705599953823 
1.74940626284276 4.23480795479457 1.25964514265839 
1.41110427008281 3.92657853568716 2.48001791740738 
0.97793280832336 3.84377192437722 2.30428340761556 
1.34348934391146 4.36222586301704 2.63733104893764 
0.75329732771991 4.23164515342299 2.37130058846605 
4.47322453528758 3.23540303282779 1.56175736339373 
4.77660993053767 2.80866408695405 1.54109827997531 
5.19745009313332 3.51346194958958 2.19985854325488 
5.38068782266602 3.26179293158427 2.17386544303724 
POLYGONS 39 237
6 25 43 50 44 62 63 
5 21 51 47 55 54 
5 21 45 42 64 54 
6 40 41 65 64 42 0 
5 41 49 29 53 65 
5 47 48 29 53 55 
5 0 42 45 44 62 
4 0 40 63 62 
5 25 43 48 29 49 
5 40 41 49 25 63 
5 2 1 3 33 38 
5 4 22 57 37 36 
7 5 7 8 27 6 10 9 
5 2 11 26 39 38 
6 18 19 30 60 61 12 
6 22 23 13 31 56 57 
6 19 30 36 37 14 35 
5 15 24 26 39 28 
5 13 12 18 32 31 
6 17 1 2 11 16 20 
6 11 16 8 27 24 26 
4 17 5 7 20 
5 9 3 33 34 10 
5 5 9 3 1 17 
4 7 8 16 20 
4 6 15 24 27 
5 6 15 28 34 10 
5 4 36 30 60 58 
4 14 35 46 52 
5 14 37 57 56 52 
5 13 12 61 59 23 
5 4 22 23 59 58 
5 18 19 35 46 32 
5 31 32 46 52 56 
5 44 45 21 51 50 
5 33 34 28 39 38 
5 47 48 43 50 51 
5 54 55 53 65 64 
4 58 59 61 60 
CELL_DATA 39
SCALARS scalar_1 double
LOOKUP_TABLE default
0.010544868260573865
0.010544868260573865
0.010544868260573865
0.010544868260573865
0.010544868260573865
0.010544868260573865
0.010544868260573865
0.010544868260573865
0.010544868260573865
0.010544868260573865
0.017230115312706053
0.008529185604857497
0.017230115312706053
0.017230115312706053
0.008529185604857497
0.008529185604857497
0.008529185604857497
0.017230115312706053
0.008529185604857497
0.017230115312706053
0.017230115312706053
0.017230115312706053
0.017230115312706053
0.017230115312706053
0.017230115312706053
0.017230115312706053
0.017230115312706053
0.008529185604857497
0.008529185604857497
0.008529185604857497
0.008529185604857497
0.008529185604857497
0.008529185604857497
0.008529185604857497
0.010544868260573865
0.017230115312706053
0.010544868260573865
0.010544868260573865
0.008529185604857497
