# vtk DataFile Version 2.0
polydata
ASCII
DATASET POLYDATA
POINTS 66 double
4.77284094598654 3.46101382376711 1.57915828388071 
6.35123439130085 5.39770750519244 6.04302315600993 
6.6456428533071 5.93554078836554 5.84480646402229 
6.57437362043815 5.10744481494001 5.86738457847668 
1.76839245101417 3.8898049296674 2.11792502675928 
5.76024045240582 5.11352175594042 5.66256674764346 
6.13801696942696 5.2018825977128 4.71050510951076 
5.52235649192312 5.42170597445657 5.51665754379411 
5.53715770367333 5.60424624745263 5.22218194120185 
6.21150172620822 4.8349068061112 5.45243923397026 
6.38257098354223 4.87260203736061 5.08743852710656 
6.21992644465156 6.20658272459504 5.49898508812082 
0.60590509149814 4.3902308272642 2.10985984375031 
0.69435694787245 4.12694107363146 1.62723501104641 
1.95086283923064 4.86003831597273 1.58745398120086 
6.3057970194283 5.4632771665291 4.61181142335893 
5.70182118344835 5.90401247242349 5.54525636406303 
5.92240347321686 5.3777284257101 5.96327395182745 
0.74700161081605 4.74062334175726 1.96151810888322 
1.37550612633903 4.93484558935825 2.19390388074069 
5.63461536687009 5.65958338474043 5.74300849958418 
4.29933887972004 3.42387531391354 2.67933045585556 
1.50569565412653 3.80252732397095 1.63293625379882 
0.98727913748683 3.78530832406326 1.77516524989694 
6.00005663494 5.78782312012115 4.73972630436971 
4.78263007061804 2.46373239701273 1.84300692418542 
6.3703813217954 6.21664382611355 5.15573959820984 
5.7142380273247 5.55507674093759 4.88340383067762 
6.76013281234807 5.60265112617063 4.84338772322574 
5.13838105054007 2.49688081719931 2.47536425099315 
1.51362185216341 4.55543884563672 2.5588522506725 
0.85031946788197 4.3994993295703 1.37315665766255 
0.85729464279178 4.73291199933843 1.52424986514684 
6.93422564022163 5.33207972935945 5.607256049941 
6.89663438030832 5.19645966937042 5.18894811831579 
1.72759232168909 5.02118179490588 1.70986669983687 
2.01058993327219 4.32006451279294 2.09795447725361 
2.07975318515225 4.51449654196493 1.69146559000427 
6.84218571487834 5.89729886448756 5.69705803700588 
6.69940346073363 6.091279234636 5.14677961720129 
5.1053776003885 3.0347053623743 1.56175645385505 
5.34982014004523 2.96033666686294 1.84239763797269 
4.79026410483487 3.64820090693908 1.83678201010758 
4.38053145367365 2.41012632314695 2.28764636903557 
4.11186347009721 3.29565236597117 1.95865559836038 
4.25249166935685 3.57215991133251 2.1553786981233 
1.60370059276385 4.99581556969556 1.45696128520752 
4.45071266157491 2.74663730440067 2.9082323140474 
4.57086617165554 2.39240760862207 2.60212388152756 
5.19323988264288 2.51389909175239 2.05288781302769 
4.02734634672407 2.84639294670337 2.33396400642906 
4.11334382547707 3.01438444916638 2.73025224812759 
1.76412488735973 4.87388426634772 1.34842114580791 
5.23039074679117 2.83838280865233 2.66171800842042 
4.75425477338413 3.38203861672412 2.82739996525201 
4.83317954424269 3.02731018336186 2.95277939404422 
1.61058967689127 4.39935119575698 1.1672471740707 
1.75244420572722 4.23612130436195 1.25986718726199 
1.41425744389072 3.92784002152975 2.4804973250729 
0.98079479213042 3.84498688086189 2.30465008501435 
1.34664698950458 4.36393194689388 2.63800898131175 
0.75585471302391 4.23321159574919 2.37168506554288 
4.47602211945201 3.23683510520439 1.56200094020769 
4.77958821673281 2.80984512217772 1.5413298521268 
5.20066148201869 3.51496616117711 2.20016875481402 
5.38388383164241 3.26331622517234 2.17418672789871 
POLYGONS 39 237
6 25 43 50 44 62 63 
5 21 51 47 55 54 
5 21 45 42 64 54 
6 40 41 65 64 42 0 
5 41 49 29 53 65 
5 47 48 29 53 55 
5 0 42 45 44 62 
4 0 40 63 62 
5 25 43 48 29 49 
5 40 41 49 25 63 
5 2 1 3 33 38 
5 4 22 57 37 36 
7 5 7 8 27 6 10 9 
5 2 11 26 39 38 
6 18 19 30 60 61 12 
6 22 23 13 31 56 57 
6 19 30 36 37 14 35 
5 15 24 26 39 28 
5 13 12 18 32 31 
6 17 1 2 11 16 20 
6 11 16 8 27 24 26 
4 17 5 7 20 
5 9 3 33 34 10 
5 5 9 3 1 17 
4 7 8 16 20 
4 6 15 24 27 
5 6 15 28 34 10 
5 4 36 30 60 58 
4 14 35 46 52 
5 14 37 57 56 52 
5 13 12 61 59 23 
5 4 22 23 59 58 
5 18 19 35 46 32 
5 31 32 46 52 56 
5 44 45 21 51 50 
5 33 34 28 39 38 
5 47 48 43 50 51 
5 54 55 53 65 64 
4 58 59 61 60 
CELL_DATA 39
SCALARS scalar_1 double
LOOKUP_TABLE default
0.0041377298376992135
0.0041377298376992135
0.0041377298376992135
0.0041377298376992135
0.0041377298376992135
0.0041377298376992135
0.0041377298376992135
0.0041377298376992135
0.0041377298376992135
0.0041377298376992135
0.01110448578190864
0.0023078081336366583
0.01110448578190864
0.01110448578190864
0.0023078081336366583
0.0023078081336366583
0.0023078081336366583
0.01110448578190864
0.0023078081336366583
0.01110448578190864
0.01110448578190864
0.01110448578190864
0.01110448578190864
0.01110448578190864
0.01110448578190864
0.01110448578190864
0.01110448578190864
0.0023078081336366583
0.0023078081336366583
0.0023078081336366583
0.0023078081336366583
0.0023078081336366583
0.0023078081336366583
0.0023078081336366583
0.0041377298376992135
0.01110448578190864
0.0041377298376992135
0.0041377298376992135
0.0023078081336366583
