# vtk DataFile Version 2.0
polydata
ASCII
DATASET POLYDATA
POINTS 122 double
3.40148170117177 5.45156437697963 1.07916839892062 
4.82525549421958 3.53971463590699 1.45457905231292 
1.65402254853964 6.24973214351902 3.65840997625671 
3.78571829404782 5.43357517757652 1.62376717760377 
3.75438061872097 5.13297864666124 1.93441736125864 
2.8878055091231 4.6692290566634 1.47498626385137 
3.39789146049895 4.73207814128308 1.94587300350113 
2.14809361681991 6.15354055914769 3.12993147417189 
2.55776047781068 1.13925271056861 2.18752745495542 
3.84283194923685 4.77090496517192 0.701204199307715 
5.64013938434818 1.19951536935828 3.8563807041873 
4.07173751181004 5.32479746230564 1.53025515266189 
4.64281073139337 2.04076193691323 4.09311320359701 
4.72340740168412 1.56753342536281 3.92166095343316 
2.5520060344865 2.41555996092189 2.0852618094659 
1.84245527160429 2.37805302531862 1.79879675082435 
2.43620411417647 2.3413660430106 1.80465603826148 
2.59112888528974 2.00821895512058 1.76034354433898 
2.79318763886535 1.98965426966265 2.16618758063847 
5.09160925612916 2.17091779775625 4.37724144970597 
3.64735124370989 4.36619495877533 1.87766335212126 
3.73249748010912 4.25747347613679 1.04018836259497 
3.46238805236322 4.2442029122956 1.54189216460767 
2.88994428231962 4.52522532781004 1.39948002584191 
5.28452197325822 1.43351148920505 4.14433616731796 
5.41979186805865 1.67776769152879 4.30128822655965 
1.35839238788185 1.76399545799225 1.56169938780624 
3.94161213185771 4.41866599544402 1.06339024878392 
5.93738753435607 1.72710992266609 4.15879283799145 
6.01780722030093 2.22678414980768 3.95946639143121 
4.29438431463318 3.4641637376131 2.68763689185122 
2.35428724443277 1.559464037831 1.64215829221982 
3.53889083880142 5.42203131803474 0.850967625319183 
3.86090709147968 5.27862787535867 0.927992797131934 
1.79376262749704 2.40524869864522 1.95496439032155 
4.86660188906305 2.53329762554494 1.86331649931185 
1.89350102174705 0.968743127718738 2.01377769320102 
2.3389298030246 0.983955011569165 2.29909705255532 
2.03609689917354 6.32634368821559 3.50007515865958 
1.45589539513459 1.48944374291734 1.50272169514452 
5.14692484525556 2.48938414496462 2.54209971796112 
2.86023361609442 5.00643071458565 1.09397010585696 
2.3584065589509 1.14951395560555 2.55753244359348 
1.84605358287724 1.35669367295771 1.53382344322128 
2.26482247548238 5.58665018994768 3.16201536621303 
2.03335329507274 6.01311591895513 3.13372401823859 
2.39558190230426 6.14819823922997 4.14729027794105 
2.36484278975791 6.24828744808542 3.67854051277407 
1.84962158839819 1.54560309394797 2.62654109463201 
2.66600327972949 6.01872163455517 3.26674102695261 
5.20531967503875 3.02919358672394 1.4776651771639 
5.37513878980609 2.96022742168936 1.80380007041221 
4.81064362445843 3.67089533619962 1.76681653045177 
2.62790813770355 5.9272362827151 4.28481805716803 
2.5796438077065 6.00189814161097 3.13173297784041 
2.54021084842062 5.59222311245438 3.08912527064156 
1.71713756555464 5.56807756180663 4.2662337881748 
1.63301878431112 5.57428157880979 3.93031505988756 
2.50715911445241 5.80236623549796 4.45455254718859 
4.49891406625178 2.51702185448484 2.27597222073637 
4.16309145626499 3.42343785889978 1.95070340036083 
4.23887072209039 3.64567585633964 2.09664466896506 
4.49261866595683 2.75276118348131 3.00635267670561 
4.65709408572413 2.40980287617241 2.63957587153266 
5.21809040986419 2.52829263406877 2.02067173475683 
4.11556809816856 2.97558721604914 2.32378764051493 
4.11231605700382 3.1210211487659 2.75013502311801 
2.12151666777636 5.34234713319427 3.53792689774884 
2.56953027381944 5.42517126931711 4.36966038190962 
5.57055044126048 1.18682556319561 3.55142806791564 
3.35435909710759 4.61072262610872 0.352204285545664 
1.45459916808728 5.89314423080252 3.88631042171656 
1.60703467363702 6.15583259134346 3.58982171693448 
2.45957985571465 5.14190781293302 3.79682634562579 
2.34131644599974 5.30671007771546 4.28171150454265 
2.84512819137965 4.62423791747625 0.592043510810182 
3.28524323740941 4.49009002410732 0.427645579415731 
1.43441189066294 6.00848264392437 4.16931731681764 
3.14365686992915 4.88126010072068 0.368563586587273 
2.82282671758595 4.75134728784646 0.562705740932232 
1.62375724585806 5.81291412158603 4.38390969567169 
1.90611925771875 6.02256009208253 4.50516798720545 
2.19818131823622 2.39714864140895 2.276380212347 
2.23042775167273 2.02681606177089 2.56165656316537 
1.89922833885267 6.10467621405344 4.43690973841664 
1.5394803987303 6.14091679889765 4.15591462295705 
1.60308319886666 1.06141448022592 2.11234581788149 
1.62752845985658 1.48578820414884 2.49747994182289 
5.72557189178067 2.12760784537853 3.38122879205481 
4.1241932196423 4.96408846360636 1.80071722696618 
1.27320709510111 1.34905810009316 1.70987888570714 
4.70622026260248 2.25194641908866 3.82026877204774 
4.10899155488898 4.63316456354502 1.71459414440415 
5.20000127700639 2.44548399869181 4.32788656928188 
5.73862315160773 2.52157751736681 4.02193448579773 
6.1013514503419 1.42470239157484 3.95417289799392 
5.48372056129545 2.51368132991124 3.7025990700064 
4.99256189492319 2.5240411532091 3.90660352280826 
5.20334835742252 2.76809436070559 2.68603627413999 
4.70778243938518 3.37606723143677 2.78796841511258 
4.80375880422766 2.96374634340647 2.9867482057448 
4.69131250503506 1.50593929856967 3.60316739246784 
4.72685200902835 1.85283818620375 3.44968584567774 
5.08531966825928 1.33781275454328 3.37027856062504 
6.16038835761233 2.0590694970208 3.58636860775191 
5.59948971102996 1.84167043076604 3.24955647981413 
5.11190981987253 1.68757898075956 3.24722598168747 
4.55105732608765 3.33368139217148 1.46120999864877 
4.86863556289885 2.84750526242838 1.490618336896 
6.25339245874429 1.54935079411132 3.60524148611578 
5.9160130846395 1.43628363804047 3.37166546622894 
1.3233318853334 1.82154275106203 2.12709608155694 
1.17085093324646 1.65166957718606 1.79551326520773 
5.15660380752174 3.46569189240896 2.15245591393778 
5.33862470621921 3.23536970128444 2.1343674988068 
2.6517573329989 1.32626481874823 2.43875088805746 
2.70439767463308 1.75350448916816 2.42850393968817 
3.08656432716491 5.46324873818616 3.86196128365682 
3.06512855802937 5.30501436964834 3.91987256661278 
2.97123931035488 5.18035554204466 3.68000558971306 
3.06612168131296 5.47416325023875 3.56265127955518 
3.01307088350303 5.31506150733215 3.49213116240163 
POLYGONS 71 437
5 53 58 68 118 117 
5 0 32 78 79 41 
6 35 59 65 60 107 108 
5 30 66 62 100 99 
5 30 61 52 113 99 
6 50 51 114 113 52 1 
5 51 64 40 98 114 
5 62 63 40 98 100 
5 1 52 61 60 107 
4 1 50 108 107 
5 35 59 63 40 64 
5 50 51 64 35 108 
6 46 47 49 120 117 53 
6 2 38 47 46 84 85 
6 0 3 4 6 5 41 
5 7 38 47 49 54 
5 7 45 44 55 54 
4 8 37 42 115 
5 32 33 9 70 78 
5 10 69 110 109 95 
5 8 31 43 36 37 
5 56 57 71 77 80 
5 0 3 11 33 32 
5 24 25 28 95 10 
5 12 13 101 102 91 
5 88 104 109 110 105 
6 9 27 92 89 11 33 
5 14 16 15 34 82 
5 39 43 36 86 90 
5 46 53 58 81 84 
6 18 17 31 8 115 116 
6 10 24 13 101 103 69 
6 19 25 28 29 94 93 
5 15 26 112 111 34 
7 16 15 26 39 43 31 17 
5 42 48 83 116 115 
5 14 18 116 83 82 
4 3 11 89 4 
5 71 72 2 85 77 
6 44 55 121 119 73 67 
6 82 83 48 87 111 34 
5 29 94 96 88 104 
5 23 22 21 76 75 
5 5 23 75 79 41 
5 9 27 21 76 70 
5 22 21 27 92 20 
5 23 22 20 6 5 
5 6 20 92 89 4 
4 14 16 17 18 
4 26 39 90 112 
6 36 37 42 48 87 86 
5 19 12 13 24 25 
5 2 38 7 45 72 
6 58 68 74 56 80 81 
5 69 103 106 105 110 
5 19 12 91 97 93 
5 28 29 104 109 95 
5 60 61 30 66 65 
6 44 45 72 71 57 67 
5 54 55 121 120 49 
5 56 57 67 73 74 
5 62 63 59 65 66 
5 73 74 68 118 119 
5 75 76 70 78 79 
5 80 81 84 85 77 
5 86 87 111 112 90 
7 96 97 91 102 106 105 88 
4 93 94 96 97 
5 99 100 98 114 113 
4 101 102 106 103 
5 118 119 121 120 117 
