# vtk DataFile Version 2.0
polydata
ASCII
DATASET POLYDATA
POINTS 122 double
3.35505860297999 5.48425605340435 1.12448791102697 
4.83576493353455 3.49135327035899 1.5385955580884 
1.71022614584735 6.2515252169807 3.69136167564699 
3.74279880917199 5.40297613535016 1.60562992319113 
3.72494573434965 5.11855928940872 1.87970732578027 
2.87541530059908 4.70815450795697 1.51731806090883 
3.38971225394491 4.74876366417784 1.92112746859583 
2.16966989500555 6.14218104714462 3.19238647013213 
2.52842740394969 1.16700524967625 2.17124139366102 
3.91534079360962 4.77786085557524 0.689837198425432 
5.62455784337741 1.20334890979822 3.88754920413999 
4.02157740536278 5.29020328021771 1.502575225208 
4.72236264180421 2.01366949486771 4.07342432270809 
4.76821049350358 1.56825827577868 3.93624058763093 
2.48649508118323 2.35239233512224 2.07466413716331 
1.85595954749105 2.34366444078447 1.76271321843311 
2.38599028301189 2.30624192989661 1.7640978025577 
2.57992050423865 1.96247069651341 1.70362074622048 
2.72098433063695 1.97790324564299 2.14173217755721 
5.11648473376323 2.14571150182489 4.3717819678369 
3.63932448186225 4.37835268335851 1.82284010354991 
3.73062104116155 4.20022253228413 1.04514409750483 
3.45663380051243 4.19118198722842 1.52504909422392 
2.90083220303433 4.48303348740673 1.39012170866686 
5.27132234697918 1.37845309134888 4.20158893083098 
5.43053429832315 1.66879959740259 4.40229370040674 
1.42713895583197 1.76486911939676 1.582480836238 
4.01206591042267 4.39374765376828 1.06722017104118 
5.93299892307093 1.72644359794776 4.21357475349985 
5.98390562794678 2.21607794392282 3.98249473276807 
4.32351145909452 3.46693566868128 2.64051049065094 
2.39466259459993 1.53359371597526 1.5836030871801 
3.54312986384969 5.42665176868002 0.841886605898131 
3.91901130853817 5.27120030072345 0.912098017165619 
1.77450949717466 2.39311998298928 2.02786400650266 
4.81384450125923 2.49874896482534 1.81574279602498 
1.91136674648535 0.984577374768927 2.02109513584012 
2.3137236662402 1.03994719585349 2.27657611820414 
2.06597370069604 6.35698727235472 3.53732211109404 
1.50924440050732 1.50716449274786 1.51691890423635 
5.1216457109174 2.53053013447299 2.4696285442841 
2.85199993260446 5.06365311944319 1.1405044457447 
2.3332302422892 1.1878761233729 2.51760047340793 
1.88409792529422 1.34377754138128 1.50024538976494 
2.22663502957006 5.54397560066231 3.1683009374836 
2.02396425621166 5.98114222154029 3.18180019578829 
2.44211554666847 6.23740268763653 4.13979710255195 
2.41482620034155 6.33297982789346 3.72580367023591 
1.81764731564242 1.55192242341398 2.69603391708009 
2.67566435679584 6.05154833179516 3.32329303386107 
5.16056203123586 3.05193322491795 1.54232954045869 
5.36854505471943 2.98199308144428 1.81362715162298 
4.83742147105884 3.68413089456963 1.80190725854027 
2.6623879150885 5.97302716247696 4.27372459542628 
2.55919138088815 6.00930583221153 3.17963151323775 
2.5132737846481 5.58669170800771 3.14169356744749 
1.74348129001863 5.54587583231458 4.24871526133979 
1.6379183858977 5.53489109159767 3.91020604714488 
2.50776890470608 5.81083199789522 4.44825362328868 
4.43180831648879 2.46268962332393 2.2214931093608 
4.14509976694202 3.36552864772585 1.91451921152881 
4.27357008382155 3.62011748960069 2.09690650632574 
4.49318142885306 2.82525316134516 2.87051040174306 
4.62459221381183 2.44996704388284 2.56290417495576 
5.19396720442158 2.54309053874363 2.02063577417642 
4.05914695747715 2.9303292745837 2.26896270289787 
4.15495276960111 3.10386010999667 2.68595259849616 
2.07720455446993 5.28236513762792 3.51666075138412 
2.56145663821777 5.4264995737761 4.35102588616268 
5.55016909282278 1.21946718579324 3.54739248562854 
3.38149733777748 4.64000906512027 0.435842993227463 
1.50501564619593 5.86278630868616 3.8805286806324 
1.64532640649237 6.11495778048734 3.5996098633263 
2.43492677947341 5.11586028045059 3.79020004724381 
2.32479838603057 5.28517751809685 4.26893956229696 
2.91953459585168 4.6292534027961 0.668888621894163 
3.30752991625188 4.50191425083398 0.511149379500834 
1.53154877806964 5.97948098792094 4.14523840094858 
3.19102691689371 4.88170882351488 0.469342700245772 
2.90168133789857 4.7711187842164 0.641161527920628 
1.67691740930261 5.8051207723033 4.34682803202858 
1.94329986627617 6.0134086184263 4.4666738019497 
2.16174879123654 2.38214471830658 2.31300990447218 
2.2081186665404 2.03988631651879 2.61326697863466 
1.93436419381941 6.12559261578686 4.39803328536995 
1.62379359319934 6.13518149682048 4.1363718846671 
1.61326217336166 1.08742629209323 2.12976810672999 
1.60848801328538 1.50011499877143 2.58540143335345 
5.69658802564317 2.19816882680889 3.27267946758982 
4.05354283874194 4.97444798664315 1.73686279561334 
1.35119252756551 1.40997664161369 1.74496096069881 
4.75692366463116 2.2529388251873 3.76645544226959 
4.06299309892145 4.61224347144139 1.65745954543962 
5.22659104870822 2.40713198004642 4.25538072306862 
5.69558713380808 2.46963182249205 4.00512933055443 
6.01360838990552 1.46777868902901 3.95210727757074 
5.45900456996652 2.53540651565828 3.6313543440457 
5.01955614836019 2.50084004499801 3.83867747338326 
5.20943800151034 2.83883021602997 2.64086392310314 
4.7459378850988 3.42339655510091 2.77893757687914 
4.81793109413474 3.03967071845298 2.91392373625597 
4.76302344515283 1.53924510889366 3.6129646404431 
4.7735851771807 1.89726408365901 3.43033585704215 
5.10802877693764 1.38476062469394 3.38298278131783 
6.08584811950068 2.04738527344209 3.59764642608304 
5.55933184400735 1.90747795138328 3.12985750421849 
5.12531470223199 1.75604495594294 3.17616171798124 
4.54004356126454 3.27769198833492 1.51017711793668 
4.82827230645094 2.83309061712701 1.51015659386584 
6.10143978351823 1.60819921147162 3.61854043791885 
5.87468337977184 1.48147389435381 3.37499289167278 
1.34101946254709 1.84487292457469 2.17569993826066 
1.2653592589522 1.66244923532148 1.81174865180004 
5.20640069888213 3.54911947339914 2.17675496701826 
5.39367689009563 3.28137030156889 2.15218642944705 
2.58307941341308 1.34022346229182 2.4045714699421 
2.65267200437426 1.75687933062777 2.41795320982669 
3.0360208999661 5.50833385755878 3.84545398813597 
2.99287110412393 5.36207494032353 3.88785419299478 
2.916207585515 5.24968830532282 3.69209643285709 
3.02239581563623 5.52426769554543 3.61499953005929 
2.95092439846079 5.35927729901498 3.54854966579079 
POLYGONS 71 437
5 53 58 68 118 117 
5 0 32 78 79 41 
6 35 59 65 60 107 108 
5 30 66 62 100 99 
5 30 61 52 113 99 
6 50 51 114 113 52 1 
5 51 64 40 98 114 
5 62 63 40 98 100 
5 1 52 61 60 107 
4 1 50 108 107 
5 35 59 63 40 64 
5 50 51 64 35 108 
6 46 47 49 120 117 53 
6 2 38 47 46 84 85 
6 0 3 4 6 5 41 
5 7 38 47 49 54 
5 7 45 44 55 54 
4 8 37 42 115 
5 32 33 9 70 78 
5 10 69 110 109 95 
5 8 31 43 36 37 
5 56 57 71 77 80 
5 0 3 11 33 32 
5 24 25 28 95 10 
5 12 13 101 102 91 
5 88 104 109 110 105 
6 9 27 92 89 11 33 
5 14 16 15 34 82 
5 39 43 36 86 90 
5 46 53 58 81 84 
6 18 17 31 8 115 116 
6 10 24 13 101 103 69 
6 19 25 28 29 94 93 
5 15 26 112 111 34 
7 16 15 26 39 43 31 17 
5 42 48 83 116 115 
5 14 18 116 83 82 
4 3 11 89 4 
5 71 72 2 85 77 
6 44 55 121 119 73 67 
6 82 83 48 87 111 34 
5 29 94 96 88 104 
5 23 22 21 76 75 
5 5 23 75 79 41 
5 9 27 21 76 70 
5 22 21 27 92 20 
5 23 22 20 6 5 
5 6 20 92 89 4 
4 14 16 17 18 
4 26 39 90 112 
6 36 37 42 48 87 86 
5 19 12 13 24 25 
5 2 38 7 45 72 
6 58 68 74 56 80 81 
5 69 103 106 105 110 
5 19 12 91 97 93 
5 28 29 104 109 95 
5 60 61 30 66 65 
6 44 45 72 71 57 67 
5 54 55 121 120 49 
5 56 57 67 73 74 
5 62 63 59 65 66 
5 73 74 68 118 119 
5 75 76 70 78 79 
5 80 81 84 85 77 
5 86 87 111 112 90 
7 96 97 91 102 106 105 88 
4 93 94 96 97 
5 99 100 98 114 113 
4 101 102 106 103 
5 118 119 121 120 117 
