# vtk DataFile Version 2.0
polydata
ASCII
DATASET POLYDATA
POINTS 122 double
3.40605984395714 5.45553662141243 1.07311121688155 
4.82983184211786 3.54368845618192 1.44852193344183 
1.65860159606775 6.25369974423525 3.65235243698361 
3.79029461380249 5.43754734837913 1.61770772020241 
3.75895629840593 5.13695009459059 1.92835897577672 
2.89238028900851 4.67319967545818 1.46892872097041 
3.40246544024248 4.73604834159859 1.93981492454051 
2.15267311669021 6.15750796630892 3.12387315880546 
2.56234346238528 1.14322260905464 2.18146914182644 
3.84740821609368 4.77487874957373 0.695145631733668 
5.6447235959135 1.20348895014628 3.85032289028002 
4.07631274579894 5.32877031699078 1.5241963165857 
4.64739194983256 2.04473509491502 4.08705340548846 
4.72799018274675 1.57150851490104 3.91560181017191 
2.55658440596802 2.41953061397499 2.07920240422588 
1.84703401454648 2.38202194925202 1.79273765419942 
2.44078351427091 2.34533677737815 1.79859785279313 
2.59570990540888 2.01218886670027 1.75428540926451 
2.7977678064615 1.99362483240421 2.16012845832636 
5.09619212856956 2.17489372435811 4.37118455368223 
3.65192438738308 4.37016649706454 1.87160618360302 
3.73707310749838 4.26144644557401 1.03413050461653 
3.46696215423141 4.24817483092291 1.53583553372817 
2.8945189898457 4.52919627504817 1.39342262850969 
5.28910707934295 1.43748568327203 4.13827822891911 
5.42437665280535 1.6817405744926 4.29522994751022 
1.36297507284865 1.76796617165448 1.55563991143378 
3.94618807065446 4.42263943835063 1.05733233096098 
5.94197077261464 1.73108218209773 4.15273449875526 
6.02238869367138 2.23075358135533 3.95340794847569 
4.29895884196648 3.4681358231049 2.6815786254535 
2.35886973049895 1.56343392147595 1.63609993637785 
3.54346970935883 5.42600353549616 0.844909202853355 
3.86548341704773 5.28260114423217 0.921933904225958 
1.79834115460945 2.40921735600681 1.94890536284828 
4.87118137739675 2.53727157391232 1.85725783760402 
1.89808456493875 0.972712137759437 2.00771972213721 
2.34351232648809 0.987924091297961 2.29303888051462 
2.04067737433539 6.33031057562661 3.49401672413944 
1.46047925875831 1.49341309229886 1.49666204244454 
5.15150450482727 2.49335831433781 2.53604124316932 
2.86480928010318 5.01040133134093 1.08791285201855 
2.36298860847701 1.15348243902689 2.55147323476316 
1.85063692419167 1.36066352965209 1.52776451250902 
2.26939826478604 5.5906197469699 3.15595753576684 
2.03793142466793 6.01708233707761 3.12766594911469 
2.40016162391773 6.15216526007254 4.14123421891054 
2.36942214959973 6.25225412321188 3.67248136640947 
1.85420219284748 1.54957127775333 2.62048165487084 
2.67058103147428 6.0226892269675 3.26068565935328 
5.20989730271731 3.03316779968633 1.47160758699887 
5.37971761954232 2.96420146434676 1.79774276013548 
4.81521962514072 3.67486931304214 1.76075849341607 
2.63248635139686 5.93120544278944 4.2787612368685 
2.58421962522728 6.00586542438155 3.1256743138124 
2.54478733261817 5.59619269133967 3.08306703621449 
1.72171215494082 5.57204659987393 4.26017634810203 
1.63759343885653 5.5782506378988 3.9242581909272 
2.5117377287169 5.80633622983842 4.44849521879287 
4.50349294358803 2.52099475906034 2.26991361416303 
4.16766679286936 3.42741145153437 1.94464590288689 
4.24344527759409 3.64964848956903 2.09058680313081 
4.49719693914753 2.75673471464919 3.00029318822661 
4.66167315629402 2.41377675510546 2.63351685094797 
5.22267036306235 2.53226709705553 2.01461358882617 
4.12014416378685 2.9795610297178 2.31772918439049 
4.11689218938692 3.12499447797717 2.74407616648178 
2.1260914780518 5.34631591269656 3.5318706642794 
2.57410804998473 5.42914243708129 4.3636032629001 
5.57513412001863 1.19079921850563 3.54536973084334 
3.35893592298184 4.61469657623169 0.346146211226318 
1.45917582075813 5.89711124359152 3.88025356577787 
1.6116131102649 6.15980006995414 3.58376381377879 
2.46415313927688 5.14587753374502 3.79076887770755 
2.34589037729223 5.31067948353335 4.27565292675093 
2.84970388971557 4.628209830654 0.585986593867634 
3.28981923718445 4.49406256601412 0.421588460297265 
1.43898855632445 6.01244971209318 4.16326023502088 
3.148235141512 4.88523235353365 0.362505419344641 
2.82740273797706 4.75531853208476 0.556649125782575 
1.62833290920348 5.8168817125244 4.37785151967677 
1.91069956721481 6.02653034320315 4.499110663804 
2.20275935074867 2.4011181781617 2.27032067084125 
2.23500695120349 2.03078470369963 2.55559726123813 
1.90380890260526 6.10864468119437 4.43085340450599 
1.54405942638375 6.14488547598133 4.14985718601297 
1.6076652241003 1.06538385841973 2.10628791466498 
1.63210968411509 1.48975627500038 2.49142082428409 
5.73015174840809 2.13157916405362 3.3751693115613 
4.12876848105427 4.96805980172115 1.79465920899668 
1.27778926076142 1.3530266509083 1.70382047189336 
4.71080007542301 2.25591907359441 3.81420964384014 
4.11356720137448 4.63713836915354 1.70853684802146 
5.20458163612553 2.44945591312423 4.32183040997368 
5.74320132810564 2.52554927066199 4.01587684268935 
6.10593554799254 1.42867357242519 3.94811497797589 
5.48829868411974 2.51765361737234 3.69654120851104 
4.99714096593459 2.52801394005499 3.90054468518306 
5.207927177957 2.77206710757322 2.67997724253071 
4.71235815785342 3.38003979748168 2.7819106137319 
4.80833505070138 2.96771917417752 2.98068974360613 
4.69589515637173 1.5099142242943 3.59710873911837 
4.73143260954497 1.85681199438909 3.44362704207558 
5.08990207536642 1.34178735879422 3.36421992073177 
6.16496987781698 2.06304048295 3.58031086689814 
5.60407088442311 1.84564385867568 3.24349717986805 
5.11649203975787 1.69155266856846 3.24116686418319 
4.55563487320839 3.33765567457659 1.45515221804901 
4.87321458862676 2.85147937149379 1.48456042790211 
6.25797604640678 1.553321923818 3.5991830828512 
5.92059576357576 1.44025524596558 3.36560693375369 
1.32791171927336 1.82551138300162 2.12103579974423 
1.17543221523111 1.65563933677533 1.78945511122384 
5.16118021559966 3.46966624943663 2.14639760577958 
5.34320296391451 3.23934280909566 2.12830902534404 
2.65633920031007 1.33023398083515 2.43269160371814 
2.70897828379043 1.75747457660303 2.42244464409581 
3.09114132281632 5.46721828528614 3.85590555410729 
3.06970554444112 5.30898428104134 3.91381677885122 
2.97581502656784 5.18432428017455 3.67394731767823 
3.07069795421338 5.47813289951669 3.55659261182796 
3.01764700251267 5.31903085061737 3.48607215785038 
POLYGONS 71 437
5 53 58 68 118 117 
5 0 32 78 79 41 
6 35 59 65 60 107 108 
5 30 66 62 100 99 
5 30 61 52 113 99 
6 50 51 114 113 52 1 
5 51 64 40 98 114 
5 62 63 40 98 100 
5 1 52 61 60 107 
4 1 50 108 107 
5 35 59 63 40 64 
5 50 51 64 35 108 
6 46 47 49 120 117 53 
6 2 38 47 46 84 85 
6 0 3 4 6 5 41 
5 7 38 47 49 54 
5 7 45 44 55 54 
4 8 37 42 115 
5 32 33 9 70 78 
5 10 69 110 109 95 
5 8 31 43 36 37 
5 56 57 71 77 80 
5 0 3 11 33 32 
5 24 25 28 95 10 
5 12 13 101 102 91 
5 88 104 109 110 105 
6 9 27 92 89 11 33 
5 14 16 15 34 82 
5 39 43 36 86 90 
5 46 53 58 81 84 
6 18 17 31 8 115 116 
6 10 24 13 101 103 69 
6 19 25 28 29 94 93 
5 15 26 112 111 34 
7 16 15 26 39 43 31 17 
5 42 48 83 116 115 
5 14 18 116 83 82 
4 3 11 89 4 
5 71 72 2 85 77 
6 44 55 121 119 73 67 
6 82 83 48 87 111 34 
5 29 94 96 88 104 
5 23 22 21 76 75 
5 5 23 75 79 41 
5 9 27 21 76 70 
5 22 21 27 92 20 
5 23 22 20 6 5 
5 6 20 92 89 4 
4 14 16 17 18 
4 26 39 90 112 
6 36 37 42 48 87 86 
5 19 12 13 24 25 
5 2 38 7 45 72 
6 58 68 74 56 80 81 
5 69 103 106 105 110 
5 19 12 91 97 93 
5 28 29 104 109 95 
5 60 61 30 66 65 
6 44 45 72 71 57 67 
5 54 55 121 120 49 
5 56 57 67 73 74 
5 62 63 59 65 66 
5 73 74 68 118 119 
5 75 76 70 78 79 
5 80 81 84 85 77 
5 86 87 111 112 90 
7 96 97 91 102 106 105 88 
4 93 94 96 97 
5 99 100 98 114 113 
4 101 102 106 103 
5 118 119 121 120 117 
