# vtk DataFile Version 2.0
polydata
ASCII
DATASET POLYDATA
POINTS 122 double
3.35192136935562 5.48903350808964 1.12056121407737 
4.83262608777055 3.49612966543501 1.53467062637978 
1.70709604778434 6.25629854243792 3.68743951061204 
3.73966400808552 5.40775144030806 1.60170403599522 
3.72181151228607 5.12333677405036 1.87577851152216 
2.87227725300246 4.71293207342472 1.51339054822821 
3.38657744923836 4.7535409696579 1.91719978398265 
2.16653986233181 6.14695581500377 3.18846212065035 
2.52529073833394 1.17178249382237 2.16731765252431 
3.91220303234162 4.78263762537991 0.68590926006493 
5.6214270542432 1.20812143245894 3.88362883988862 
4.01843932851444 5.29497975155179 1.49864990646213 
4.7192302868087 2.01844185509752 4.06949967761054 
4.76507824771516 1.57303146093696 3.93231642209637 
2.4833574032562 2.35716925692794 2.07073903373902 
1.85282099789129 2.34844134046273 1.7587904016529 
2.38285167201017 2.31101903032702 1.76017313591762 
2.57678151667579 1.96724849382282 1.69969561579464 
2.71784628914736 1.98268130729939 2.13780561335813 
5.11335273968131 2.15048448787819 4.36785879300924 
3.6361883498803 4.38313117769597 1.81891212830555 
3.72748154924037 4.20499919471041 1.04121494952497 
3.45349520017172 4.19595899337714 1.52111952080705 
2.8976938718108 4.48781045009008 1.38619378584197 
5.26819206029243 1.38322533447902 4.19766702087528 
5.4274030748751 1.67357076326625 4.39837131499238 
1.42400008388908 1.76964611546921 1.5785596508914 
4.00892730078457 4.398524384661 1.06329143248964 
5.92986681961001 1.73121434832064 4.20965398515149 
5.98077419179977 2.22084856148334 3.97857404860594 
4.32037613837986 3.47171291659773 2.63658343238218 
2.39152367836776 1.53837121745123 1.57967856430652 
3.53999214358468 5.43142963597085 0.837959916954243 
3.91587367319829 5.27597763023102 0.908171073507895 
1.77137173639944 2.39789686902548 2.0239423277341 
4.8107048505696 2.50352437104219 1.81181860585494 
1.90822977340612 0.989354031684298 2.0171726315265 
2.31058827253927 1.0447246331045 2.27265267518204 
2.06284474127244 6.36176145409207 3.53339803224096 
1.50610564577481 1.51194068186334 1.51299722329904 
5.11850838316389 2.5353050332119 2.46570513674938 
2.84886124517719 5.06843013038543 1.13657827656445 
2.3300953545243 1.19265244559374 2.51367540953421 
1.88095898935253 1.34855423608888 1.4963225336612 
2.2235047473665 5.54875136696822 3.16437584083382 
2.02083411299939 5.98591650152063 3.17787615416023 
2.43898655134181 6.24217707972013 4.13587286892123 
2.41169659108951 6.33775441793786 3.72187813392841 
1.81451249837913 1.55669799536011 2.69211151606748 
2.67253387501829 6.05632395780304 3.31936753209114 
5.15742251910516 3.05670930431023 1.53840461223996 
5.36540796323836 2.98676795395851 1.80970527338956 
4.83428308409551 3.68890646611642 1.7979817262848 
2.65925794763295 5.97780311871471 4.26979935645848 
2.55606036623957 6.01408143494984 3.17570589145111 
2.51014296030195 5.59146764421011 3.13776777675273 
1.74035121486568 5.55065026249115 4.24479163368966 
1.63478840624459 5.5396656745588 3.90628473930355 
2.50463811725648 5.81560681014204 4.44432951960242 
4.42867137336204 2.46746549696644 2.21756579020076 
4.1419639507867 3.37030607937552 1.91059186775909 
4.27043520177157 3.62489487113263 2.09297960510018 
4.49004738925124 2.8300267784506 2.86658498160371 
4.62145718470055 2.45474271271209 2.55898037567825 
5.19082998742251 2.54786578447604 2.01671302445029 
4.05601017693821 2.93510616906222 2.26503570242894 
4.15181620122463 3.10863673567829 2.6820255350347 
2.07407451362189 5.28713917663305 3.51273768529767 
2.55832575480106 5.43127457908011 4.34710155088153 
5.54703824133111 1.22423991808326 3.54347080083705 
3.37835897046413 4.64478634657024 0.431914545841405 
1.5018862775893 5.86755933550707 3.87660786962073 
1.64219649813805 6.11973157619684 3.5956881832552 
2.4317952272978 5.12063501395619 3.78627461682391 
2.32166728804381 5.28995243034564 4.26501539339628 
2.91639515239341 4.63403052602637 0.664960876479542 
3.30439119914631 4.50669104190524 0.507221076174381 
1.52841999910368 5.98425427018587 4.14131789508109 
3.18788828579801 4.88648646070873 0.465414639640571 
2.89854188801996 4.77589587318217 0.637233968804805 
1.67378715670577 5.80989629866501 4.34290486862033 
1.94016894550715 6.01818344487107 4.46275015608921 
2.15861146884396 2.38692148798784 2.30908624121205 
2.20498283715956 2.04466225820596 2.60934333293909 
1.93123330764396 6.13036640083192 4.39411028166938 
1.6206646060473 6.13995481034198 4.13245100063487 
1.61012589811793 1.09220220373786 2.12584668931669 
1.60535289984096 1.5048903897154 2.58147995366974 
5.69345478666371 2.2029419094862 3.26875763022346 
4.05040387200437 4.9792274998747 1.73293515853732 
1.34805414478501 1.414752104077 1.74104088704262 
4.75379170184353 2.25771098240132 3.76253066989543 
4.05985410220627 4.61701961389968 1.65353124750263 
5.22345898897085 2.41190392231123 4.25145838743056 
5.6924551090041 2.47440344181022 4.00120826221563 
6.01047640790825 1.47254983598186 3.9481873729603 
5.45587186620038 2.54017887748735 3.62743121259758 
5.01642472319688 2.50561278971974 3.83475332185948 
5.20630093402079 2.84360460677827 2.63694060944841 
4.74280402771668 3.4281723544835 2.77501142604641 
4.81479691533605 3.04444373683063 2.90999846082421 
4.75989156446988 1.54401829484029 3.60904029981033 
4.7704535215179 1.90203691759762 3.42641155217159 
5.10489538343261 1.38953460300732 3.37905992641755 
6.08271681754758 2.05215700064324 3.59372753378985 
5.55619885313313 1.91225127149139 3.12593557094822 
5.12218153680734 1.76081859985167 3.17223916547569 
4.53690512512137 3.28246920340442 1.50625202661858 
4.82513311096241 2.83786741244932 1.5062315603514 
6.09830814259273 1.61296996690022 3.61462155046687 
5.87155072942357 1.48624445068176 3.37107249896677 
1.33788193061735 1.84964838229036 2.17177966094635 
1.26222045706325 1.6672254226585 1.80782947389644 
5.20326581440887 3.55389266897643 2.17283237848837 
5.39054031969565 3.28614458915389 2.14826407185656 
2.57994262926188 1.3449993285155 2.40064613797224 
2.64953484493213 1.76165625283193 2.41402791235047 
3.03289112503514 5.5131097152779 3.84152757741652 
2.98974110342264 5.36684991748757 3.88392798528258 
2.91307718107431 5.25446327873722 3.68816993895333 
3.01926572668812 5.52904376088448 3.61107240942655 
2.94779404254045 5.36405304607089 3.5446223460583 
POLYGONS 71 437
5 53 58 68 118 117 
5 0 32 78 79 41 
6 35 59 65 60 107 108 
5 30 66 62 100 99 
5 30 61 52 113 99 
6 50 51 114 113 52 1 
5 51 64 40 98 114 
5 62 63 40 98 100 
5 1 52 61 60 107 
4 1 50 108 107 
5 35 59 63 40 64 
5 50 51 64 35 108 
6 46 47 49 120 117 53 
6 2 38 47 46 84 85 
6 0 3 4 6 5 41 
5 7 38 47 49 54 
5 7 45 44 55 54 
4 8 37 42 115 
5 32 33 9 70 78 
5 10 69 110 109 95 
5 8 31 43 36 37 
5 56 57 71 77 80 
5 0 3 11 33 32 
5 24 25 28 95 10 
5 12 13 101 102 91 
5 88 104 109 110 105 
6 9 27 92 89 11 33 
5 14 16 15 34 82 
5 39 43 36 86 90 
5 46 53 58 81 84 
6 18 17 31 8 115 116 
6 10 24 13 101 103 69 
6 19 25 28 29 94 93 
5 15 26 112 111 34 
7 16 15 26 39 43 31 17 
5 42 48 83 116 115 
5 14 18 116 83 82 
4 3 11 89 4 
5 71 72 2 85 77 
6 44 55 121 119 73 67 
6 82 83 48 87 111 34 
5 29 94 96 88 104 
5 23 22 21 76 75 
5 5 23 75 79 41 
5 9 27 21 76 70 
5 22 21 27 92 20 
5 23 22 20 6 5 
5 6 20 92 89 4 
4 14 16 17 18 
4 26 39 90 112 
6 36 37 42 48 87 86 
5 19 12 13 24 25 
5 2 38 7 45 72 
6 58 68 74 56 80 81 
5 69 103 106 105 110 
5 19 12 91 97 93 
5 28 29 104 109 95 
5 60 61 30 66 65 
6 44 45 72 71 57 67 
5 54 55 121 120 49 
5 56 57 67 73 74 
5 62 63 59 65 66 
5 73 74 68 118 119 
5 75 76 70 78 79 
5 80 81 84 85 77 
5 86 87 111 112 90 
7 96 97 91 102 106 105 88 
4 93 94 96 97 
5 99 100 98 114 113 
4 101 102 106 103 
5 118 119 121 120 117 
