# vtk DataFile Version 2.0
polydata
ASCII
DATASET POLYDATA
POINTS 122 double
3.39942696174614 5.46341518263862 1.08227657792351 
4.82319918408055 3.55156896691425 1.45768913147501 
1.65196911422941 6.26158124658842 3.66151985375847 
3.7836623070572 5.4454248859805 1.62687431119809 
3.75232408161889 5.14482795095981 1.93752452726525 
2.88574770994265 4.68107840982783 1.47809342712084 
3.39583334052053 4.74392651366297 1.94898011955572 
2.14603874638193 6.16538722875025 3.13304023822955 
2.55570949307174 1.15110034812585 2.19063680707328 
3.84077587177029 4.78275742091399 0.704311704984842 
5.63808909307378 1.21136924147793 3.85949312440808 
4.06967957538963 5.33664841559879 1.53336310013023 
4.64075879605847 2.05261234754074 4.09622115835456 
4.72135630759928 1.57938462121982 3.92477053706775 
2.54995087187833 2.4274090527323 2.08836722868221 
1.84039977291051 2.38990183262475 1.80190294181442 
2.4341504098168 2.35321576753458 1.80776315392711 
2.58907657832697 2.02006703720329 1.76345093614678 
2.79113354002761 2.0015030325983 2.1692929768363 
5.08955919450836 2.18277140119868 4.38035128018977 
3.64529233114164 4.37804447592062 1.88077122798979 
3.7304398061664 4.26932431490156 1.04329558157368 
3.46032935740132 4.25605261226676 1.54499957717032 
2.88788627614444 4.53707492518153 1.40258714267404 
5.28247319250785 1.44536426363145 4.14744679437288 
5.41774305879932 1.68962171203644 4.30439892427531 
1.35634148602565 1.77584910350716 1.56480605464366 
3.93955593993361 4.43051817060182 1.06649791296239 
5.9353383760227 1.73896432431587 4.16190398128698 
6.015756479152 2.23863794182745 3.96257683026393 
4.29232683384338 3.47601332487236 2.69074402779785 
2.35223629899094 1.57131340847446 1.64526580856467 
3.53683612128721 5.43388232757819 0.854075833964416 
3.85885050567644 5.29047961592301 0.931100494454266 
1.79170720690037 2.41709723947068 1.95807026178358 
4.86454698431399 2.54515071710643 1.86642712739786 
1.8914506758283 0.980591870884855 2.01688694789288 
2.33687883633328 0.995802711852461 2.30220621455805 
2.03404278807001 6.33819128145447 3.50318493791307 
1.45384588002269 1.50129458462059 1.50582804282758 
5.14487155233748 2.5012367771825 2.54521025033371 
2.85817664867844 5.01828054038359 1.09707772967688 
2.35635523296354 1.16135981502351 2.5606386854952 
1.84400334933425 1.3685442813539 1.53693059638701 
2.26276576269249 5.59849827776343 3.16512366710954 
2.03129830231562 6.02496346571408 3.13683273514263 
2.39352855622566 6.16004596501826 4.15039985775378 
2.36278917337758 6.26013418535184 3.68165046391692 
1.84756724960795 1.55745063874539 2.62964777964897 
2.66394879227248 6.03056708618409 3.26985164475169 
5.2032638163634 3.04104878624115 1.4807754692816 
5.37308392042933 2.9720823825946 1.8069113218266 
4.8085868085653 3.68274834241733 1.76992463816595 
2.62585422574479 5.93908395971158 4.28792751214605 
2.57758780360858 6.01374340615172 3.13484139985634 
2.53815500991731 5.6040709268618 3.09223338551932 
1.71508123296323 5.57992747880146 4.26934254763643 
1.63096206139786 5.58613170978185 3.93342426995062 
2.50510545098856 5.8142148725611 4.45766134866708 
4.49685925860638 2.5288730869644 2.27908123427635 
4.16103456014742 3.43528954648922 1.95381122878575 
4.23681315687541 3.65752650201687 2.09975221445122 
4.49056316406984 2.76461035351408 3.00946107031467 
4.65503950640255 2.42165383821956 2.64268619865539 
5.2160364480135 2.54014631321798 2.02378279981698 
4.11351148336449 2.98743719257126 2.32689604838962 
4.11025884532477 3.13287040470344 2.75324215823894 
2.1194598768058 5.35419576851322 3.54103468837346 
2.56747546553625 5.43702074799604 4.37276915465557 
5.56849972792274 1.19867910506901 3.55454028680685 
3.35230279470912 4.62257491568107 0.355311348589815 
1.4525443165441 5.90499336239869 3.88942007378568 
1.60498051070757 6.16768133841054 3.59293116199002 
2.45752235180437 5.15375627211779 3.79993320833843 
2.33925951239844 5.31855904258935 4.28481939303113 
2.84307102366099 4.63608877429809 0.595150814455515 
3.2831863368341 4.50194126212044 0.430753082694287 
1.43235774300711 6.02033239434596 4.17242824975224 
3.14160144830567 4.89311124027392 0.371670712891202 
2.82076987460403 4.76319785626971 0.56581332205415 
1.62170169630119 5.82476458808645 4.38701882966443 
1.90406593722642 6.03441063940919 4.50827739638299 
2.1961257997913 2.40899722899778 2.27948538580832 
2.22837284952168 2.03866277439062 2.56476254266208 
1.89717530260391 6.11652559997874 4.4400200096832 
1.53742705345729 6.15276665561039 4.15902536447904 
1.60103099559261 1.07326450262979 2.11545532936989 
1.62547632462838 1.49763652500269 2.50058806146322 
5.72351912204049 2.13946149894289 3.38433952355202 
4.12213548236465 4.9759384289167 1.80382524508064 
1.2711549805234 1.36090803032074 1.71298754887439 
4.70416711088087 2.26379539670451 3.82337731931849 
4.10693453400039 4.64501623122906 1.71770236459546 
5.19794952086 2.45733638562233 4.33099641591804 
5.73657019327109 2.53343180250645 4.02504499529584 
6.09930263125044 1.43655690289469 3.95728520216265 
5.48166687961438 2.52553444157274 3.70570904476868 
4.99050992711377 2.53589288175301 3.90971265378846 
5.20129406361938 2.7799460988413 2.68914610774232 
4.70572577989126 3.38791779479787 2.79107628166646 
4.80170336120407 2.97559688684624 2.98985661791142 
4.68926143370603 1.51778991139378 3.60627706556957 
4.72479986545586 1.86468867795052 3.45279528172877 
5.08326750497221 1.34966516489705 3.37338993178938 
6.15833714308232 2.07092386197314 3.5894799180516 
5.59743771823734 1.85352425517781 3.25266779767085 
5.10985692284051 1.69943138430254 3.25033697250151 
4.54900073937578 3.34553481449881 1.46431955032907 
4.8665802140541 2.85935980384417 1.49372832543331 
6.25134230989583 1.56120538555599 3.60835321910285 
5.91396171620027 1.44813773237764 3.37477753277986 
1.32127718978095 1.83339309407449 2.13020107610969 
1.16879781589265 1.66352216741436 1.79862254582154 
5.15454765328442 3.47754469798793 2.15556500830739 
5.33656970168991 3.24722244517402 2.13747673845065 
2.64970390612747 1.33810978529975 2.44185722172065 
2.70234332029753 1.76535207793417 2.4316099744613 
3.08450906120366 5.47509537128604 3.86507126035927 
3.06307346489733 5.31686282950866 3.92298179592474 
2.96918312122316 5.19220262848655 3.68311178872897 
3.06406574046577 5.48600999067102 3.56575898501071 
3.01101476520097 5.32690802207928 3.4952384171569 
POLYGONS 71 437
5 53 58 68 118 117 
5 0 32 78 79 41 
6 35 59 65 60 107 108 
5 30 66 62 100 99 
5 30 61 52 113 99 
6 50 51 114 113 52 1 
5 51 64 40 98 114 
5 62 63 40 98 100 
5 1 52 61 60 107 
4 1 50 108 107 
5 35 59 63 40 64 
5 50 51 64 35 108 
6 46 47 49 120 117 53 
6 2 38 47 46 84 85 
6 0 3 4 6 5 41 
5 7 38 47 49 54 
5 7 45 44 55 54 
4 8 37 42 115 
5 32 33 9 70 78 
5 10 69 110 109 95 
5 8 31 43 36 37 
5 56 57 71 77 80 
5 0 3 11 33 32 
5 24 25 28 95 10 
5 12 13 101 102 91 
5 88 104 109 110 105 
6 9 27 92 89 11 33 
5 14 16 15 34 82 
5 39 43 36 86 90 
5 46 53 58 81 84 
6 18 17 31 8 115 116 
6 10 24 13 101 103 69 
6 19 25 28 29 94 93 
5 15 26 112 111 34 
7 16 15 26 39 43 31 17 
5 42 48 83 116 115 
5 14 18 116 83 82 
4 3 11 89 4 
5 71 72 2 85 77 
6 44 55 121 119 73 67 
6 82 83 48 87 111 34 
5 29 94 96 88 104 
5 23 22 21 76 75 
5 5 23 75 79 41 
5 9 27 21 76 70 
5 22 21 27 92 20 
5 23 22 20 6 5 
5 6 20 92 89 4 
4 14 16 17 18 
4 26 39 90 112 
6 36 37 42 48 87 86 
5 19 12 13 24 25 
5 2 38 7 45 72 
6 58 68 74 56 80 81 
5 69 103 106 105 110 
5 19 12 91 97 93 
5 28 29 104 109 95 
5 60 61 30 66 65 
6 44 45 72 71 57 67 
5 54 55 121 120 49 
5 56 57 67 73 74 
5 62 63 59 65 66 
5 73 74 68 118 119 
5 75 76 70 78 79 
5 80 81 84 85 77 
5 86 87 111 112 90 
7 96 97 91 102 106 105 88 
4 93 94 96 97 
5 99 100 98 114 113 
4 101 102 106 103 
5 118 119 121 120 117 
