# vtk DataFile Version 2.0
polydata
ASCII
DATASET POLYDATA
POINTS 26 double
2.80237515792865 4.56124463599088 3.64476309922256 
3.53669947486044 4.84505727309651 3.96278554890346 
3.31491018245237 4.46279440794256 4.19240496768231 
3.51781433543773 3.70239927082564 3.10539134108433 
3.54254260171598 4.2207499004947 4.21015679508233 
3.69243447209889 3.89145188616232 2.98774780636915 
2.92589803771254 4.32608492804141 3.97170939458241 
3.00560008080825 3.89867799324138 3.83248570589881 
2.84426440326071 3.92260801252822 3.28551728911677 
2.73145457437218 4.27994424280097 3.22022968063117 
2.94906065524677 4.40516544304722 2.83528539972157 
3.62690020734216 3.70017322257064 3.69003997952947 
3.37948474583092 3.78904410696967 3.93968969453651 
3.13147857444513 3.805187951503 2.96409677557491 
3.17171391011173 4.05432414411747 2.73474958513679 
3.11256279891126 4.93316488376097 3.48223115708748 
3.37136592713891 5.0028501009188 3.59455244785077 
3.10368139163008 4.61641096647617 2.84773850482566 
3.73298899380194 4.83895364730055 3.29404849271719 
3.43979996928242 4.13770969638701 2.72438160494903 
3.41180547403651 4.54116554554897 2.79680018182971 
3.91115569545913 4.32597211733718 4.03364839645657 
4.00052177062625 4.63534899650596 3.51774858986049 
3.92517215868472 4.66019195392359 3.890634524998 
4.03581990215147 4.1235771598977 3.42503811297527 
3.99072750806312 3.9920556943921 3.70372020411543 
POLYGONS 15 93
6 2 1 16 15 0 6 
6 5 19 20 18 22 24 
5 11 12 4 21 25 
5 3 5 24 25 11 
5 10 14 19 20 17 
5 3 5 19 14 13 
5 6 7 8 9 0 
5 2 4 12 7 6 
5 9 10 17 15 0 
5 2 4 21 23 1 
5 1 16 18 22 23 
6 7 8 13 3 11 12 
5 9 10 14 13 8 
5 15 16 18 20 17 
5 22 23 21 25 24 
CELL_DATA 15
SCALARS scalar_1 double
LOOKUP_TABLE default
0.3138465532495332
0.3138465532495332
0.3138465532495332
0.3138465532495332
0.3138465532495332
0.3138465532495332
0.3138465532495332
0.3138465532495332
0.3138465532495332
0.3138465532495332
0.3138465532495332
0.3138465532495332
0.3138465532495332
0.3138465532495332
0.3138465532495332
