# vtk DataFile Version 2.0
polydata
ASCII
DATASET POLYDATA
POINTS 26 double
2.80621519667289 4.56016089500469 3.6436627333315 
3.54090649969875 4.84448985794939 3.96153649519177 
3.31905162698435 4.46176144518464 4.19133304183554 
3.52237812648334 3.70035094993999 3.10314030773725 
3.54703502942255 4.2194067977266 4.20907371993076 
3.69740778849051 3.88984674302056 2.98514622343025 
2.92961708390011 4.32499376694831 3.97034430644945 
3.00948212953024 3.89693081488085 3.83084692448412 
2.84805519806896 3.92089393995285 3.2835876184057 
2.73518457592464 4.27850701667956 3.21826713016791 
2.95311860993546 4.4039266668736 2.83266081438166 
3.63149874286785 3.69818110950583 3.68824091868109 
3.38382446619313 3.78715072083878 3.93815857296646 
3.13563297980794 3.80326144252903 2.96167725911057 
3.1759278413094 4.05253384445509 2.73204627680568 
3.11730523413658 4.93316885775177 3.4809240687717 
3.37520118248853 5.00260468869955 3.59280933563035 
3.10804821211083 4.6154749307497 2.84507343812973 
3.73799863917453 4.8381356219927 3.29155587947518 
3.44469500717908 4.13607366317876 2.72163867658848 
3.41667709108385 4.54006153042681 2.79406468135962 
3.91626164933316 4.32485543516794 4.03229884806085 
4.00578278019003 4.63431648220254 3.51552703376074 
3.93029155341896 4.65922128639609 3.88921784744422 
4.04107465272039 4.12219642084175 3.42279628921753 
3.99592286909082 3.99049314555915 3.70190458552367 
POLYGONS 15 93
6 2 1 16 15 0 6 
6 5 19 20 18 22 24 
5 11 12 4 21 25 
5 3 5 24 25 11 
5 10 14 19 20 17 
5 3 5 19 14 13 
5 6 7 8 9 0 
5 2 4 12 7 6 
5 9 10 17 15 0 
5 2 4 21 23 1 
5 1 16 18 22 23 
6 7 8 13 3 11 12 
5 9 10 14 13 8 
5 15 16 18 20 17 
5 22 23 21 25 24 
CELL_DATA 15
SCALARS scalar_1 double
LOOKUP_TABLE default
0.2954045550647079
0.2954045550647079
0.2954045550647079
0.2954045550647079
0.2954045550647079
0.2954045550647079
0.2954045550647079
0.2954045550647079
0.2954045550647079
0.2954045550647079
0.2954045550647079
0.2954045550647079
0.2954045550647079
0.2954045550647079
0.2954045550647079
