# vtk DataFile Version 2.0
polydata
ASCII
DATASET POLYDATA
POINTS 26 double
2.81464372294362 4.54654570711922 3.64956136017105 
3.548280367517 4.83152733357358 3.95929098802048 
3.32707382918636 4.4472548904281 4.19166554942402 
3.53366652585696 3.67081207300404 3.11257952347666 
3.55658691542806 4.20286476136041 4.20924903345621 
3.71360605323157 3.86273866627726 2.97462095133986 
2.93804879171266 4.31153814905179 3.97360741736107 
3.01589928888309 3.88421185511219 3.83560661333068 
2.85183928052855 3.90274464609327 3.28733682322959 
2.73952516477438 4.26347594871633 3.22046116341422 
2.95770182316203 4.38916054169605 2.82630402040043 
3.64813626519495 3.67871332446099 3.68497250031237 
3.39303762860495 3.77429506797341 3.94381314140569 
3.12926640814782 3.78032883463959 2.97131858401851 
3.17353177779797 4.03346779807411 2.72695671898272 
3.13843111648889 4.93366225815991 3.48235353772927 
3.3752694613363 4.99696436641899 3.58248944370986 
3.11843171108055 4.60539005136885 2.83586206697501 
3.77413263596032 4.8091313360662 3.24907473421629 
3.45316049582331 4.11106111555556 2.70907490650657 
3.43864491631045 4.522485316674 2.77538521436022 
3.92541210555923 4.30685613587636 4.03113720094944 
4.02583097060162 4.61355501849495 3.45852635037103 
3.94049558794791 4.64329174242415 3.88534864949664 
4.05662942425826 4.10520681822755 3.37888439581331 
4.00554023719352 3.96281282309545 3.69581083343313 
POLYGONS 15 93
6 2 1 16 15 0 6 
6 5 19 20 18 22 24 
5 11 12 4 21 25 
5 3 5 24 25 11 
5 10 14 19 20 17 
5 3 5 19 14 13 
5 6 7 8 9 0 
5 2 4 12 7 6 
5 9 10 17 15 0 
5 2 4 21 23 1 
5 1 16 18 22 23 
6 7 8 13 3 11 12 
5 9 10 14 13 8 
5 15 16 18 20 17 
5 22 23 21 25 24 
CELL_DATA 15
SCALARS scalar_1 double
LOOKUP_TABLE default
0.19083516555832858
0.19083516555832858
0.19083516555832858
0.19083516555832858
0.19083516555832858
0.19083516555832858
0.19083516555832858
0.19083516555832858
0.19083516555832858
0.19083516555832858
0.19083516555832858
0.19083516555832858
0.19083516555832858
0.19083516555832858
0.19083516555832858
