# vtk DataFile Version 2.0
polydata
ASCII
DATASET POLYDATA
POINTS 26 double
2.81754730914453 4.5469103162533 3.64826402286443 
3.5512703832719 4.83233128444662 3.9576655410804 
3.33011229998771 4.44766346227966 4.19016199652699 
3.53724378895202 3.67010289811372 3.10987669479853 
3.56008854759911 4.20285776712321 4.20769756059087 
3.717553266157 3.86241271328489 2.97159321745905 
2.94079005345883 4.31193365915106 3.97192149294481 
3.01888495172206 3.88369350891414 3.83355180522637 
2.85475265687788 3.90229547231576 3.28496003026708 
2.74234529438788 4.26338863491234 3.2180527194149 
2.96088816935603 4.38930849897544 2.8232501867138 
3.65173240865804 3.67801779765347 3.68266343549038 
3.39635293720539 3.77368697388363 3.94180110103286 
3.13253863230517 3.77973037190988 2.96850334964568 
3.17687689324388 4.03313231545373 2.72382169334131 
3.14243914139408 4.93538106559841 3.48088285578457 
3.37771184836274 4.99824949413591 3.58029197340707 
3.12191217519554 4.60583934575622 2.83276531476955 
3.77807281679278 4.8096339393288 3.24597805610757 
3.45701061302177 4.11082566486128 2.70590056871826 
3.44251751921158 4.52278677461265 2.77222346442391 
3.92944328932247 4.30703788585049 4.02930877105272 
4.0300318924145 4.6137846156415 3.45574286859962 
3.94454740767001 4.64360397957751 3.88345100718593 
4.0608027251724 4.10504565672596 3.3761053820481 
4.00964696132931 3.96247841305362 3.69347632508785 
POLYGONS 15 93
6 2 1 16 15 0 6 
6 5 19 20 18 22 24 
5 11 12 4 21 25 
5 3 5 24 25 11 
5 10 14 19 20 17 
5 3 5 19 14 13 
5 6 7 8 9 0 
5 2 4 12 7 6 
5 9 10 17 15 0 
5 2 4 21 23 1 
5 1 16 18 22 23 
6 7 8 13 3 11 12 
5 9 10 14 13 8 
5 15 16 18 20 17 
5 22 23 21 25 24 
CELL_DATA 15
SCALARS scalar_1 double
LOOKUP_TABLE default
0.17447815392379185
0.17447815392379185
0.17447815392379185
0.17447815392379185
0.17447815392379185
0.17447815392379185
0.17447815392379185
0.17447815392379185
0.17447815392379185
0.17447815392379185
0.17447815392379185
0.17447815392379185
0.17447815392379185
0.17447815392379185
0.17447815392379185
