# vtk DataFile Version 2.0
polydata
ASCII
DATASET POLYDATA
POINTS 26 double
2.81631399307193 4.54855920942366 3.64896585404527 
3.55009339525329 4.83442002226855 3.95801373035752 
3.3289904892198 4.44935660275269 4.19062820383236 
3.53667544515606 3.67067341718383 3.10915203120471 
3.5594394251167 4.20412684020826 4.20811286388975 
3.71736353065206 3.86337475898146 2.97053636901292 
2.93938793143374 4.31362037762884 3.97221694911283 
3.01773267854796 3.88444948930848 3.83347065593903 
2.85353262140182 3.903121592219 3.28456389792684 
2.74103109867126 4.26458021888549 3.21762491107922 
2.95994343945708 4.3907370053545 2.82217538314434 
3.65118153962916 3.67860142543982 3.68231970892144 
3.39551801036095 3.77435836224192 3.94175773305225 
3.13167629214652 3.7804101291472 2.96767242617463 
3.17608898442321 4.03408161347476 2.72266682640352 
3.1423400729712 4.9384219589992 3.48141304588372 
3.37597049610251 5.00083561472871 3.58006075854662 
3.12126428981232 4.60757377487291 2.83164552539194 
3.77787022995513 4.81141398782017 3.24483114378483 
3.4567291705443 4.11187461016056 2.70470455394512 
3.44225960582883 4.52437376654625 2.771036848938 
3.92932490581457 4.30849632883199 4.02944562944679 
4.03008856674856 4.61528897588797 3.45491301699346 
3.94445019598884 4.6451915984718 3.88352024807634 
4.06082968602195 4.10616566288447 3.37528298771171 
4.00960461839124 3.96342151886515 3.69310777618875 
POLYGONS 15 93
6 2 1 16 15 0 6 
6 5 19 20 18 22 24 
5 11 12 4 21 25 
5 3 5 24 25 11 
5 10 14 19 20 17 
5 3 5 19 14 13 
5 6 7 8 9 0 
5 2 4 12 7 6 
5 9 10 17 15 0 
5 2 4 21 23 1 
5 1 16 18 22 23 
6 7 8 13 3 11 12 
5 9 10 14 13 8 
5 15 16 18 20 17 
5 22 23 21 25 24 
CELL_DATA 15
SCALARS scalar_1 double
LOOKUP_TABLE default
0.158271703477954
0.158271703477954
0.158271703477954
0.158271703477954
0.158271703477954
0.158271703477954
0.158271703477954
0.158271703477954
0.158271703477954
0.158271703477954
0.158271703477954
0.158271703477954
0.158271703477954
0.158271703477954
0.158271703477954
