# vtk DataFile Version 2.0
polydata
ASCII
DATASET POLYDATA
POINTS 26 double
2.81513922818998 4.54768023692451 3.6487054957697 
3.5489482547136 4.83398138462242 3.95737665213462 
3.32790769426967 4.44852747218024 4.19010242296323 
3.53615337576927 3.66871046374191 3.10743962196314 
3.55883657484584 4.20286669509106 4.20753395684653 
3.71722750518183 3.86180997297848 2.96848546459474 
2.93803622639293 4.31279026238181 3.9715289849285 
3.01663678474033 3.8826675590998 3.83239867332631 
2.85237247149729 3.90141006321467 3.2831827110535 
2.73977699490521 4.26323435586435 3.21621203378151 
2.95905980263315 4.38962724296799 2.82011813621051 
3.65067532001262 3.67665201920734 3.68098021525033 
3.39472771571987 3.77249650253895 3.94071855724911 
3.13087317854806 3.77855402510948 2.96585963921214 
3.17536094290934 4.0324952865758 2.72053078637968 
3.14232377440691 4.93896624501454 3.48098274261672 
3.37424717511176 5.00090764511601 3.57883996994515 
3.12068232499635 4.60677743505983 2.82954170253923 
3.77772289241012 4.8106589818064 3.24267932517191 
3.45651195692395 4.1103882716155 2.70252567301914 
3.44206642937291 4.52343057487358 2.76886506504643 
3.92925356087712 4.30742610481399 4.02858726792445 
4.03019644928061 4.61425854922057 3.45307907223147 
3.94439976107154 4.64424438984163 3.88259835543847 
4.06090617202666 4.10475644118803 3.37345921189772 
4.00961018260003 3.96183418867117 3.69174299354871 
POLYGONS 15 93
6 2 1 16 15 0 6 
6 5 19 20 18 22 24 
5 11 12 4 21 25 
5 3 5 24 25 11 
5 10 14 19 20 17 
5 3 5 19 14 13 
5 6 7 8 9 0 
5 2 4 12 7 6 
5 9 10 17 15 0 
5 2 4 21 23 1 
5 1 16 18 22 23 
6 7 8 13 3 11 12 
5 9 10 14 13 8 
5 15 16 18 20 17 
5 22 23 21 25 24 
CELL_DATA 15
SCALARS scalar_1 double
LOOKUP_TABLE default
0.14220124767554593
0.14220124767554593
0.14220124767554593
0.14220124767554593
0.14220124767554593
0.14220124767554593
0.14220124767554593
0.14220124767554593
0.14220124767554593
0.14220124767554593
0.14220124767554593
0.14220124767554593
0.14220124767554593
0.14220124767554593
0.14220124767554593
