# vtk DataFile Version 2.0
polydata
ASCII
DATASET POLYDATA
POINTS 26 double
2.81233367067727 4.54349509504526 3.64986864936596 
3.54614094558118 4.83023927000597 3.95813571479832 
3.32516975485079 4.4443933889483 4.19096938379578 
3.53399019872344 3.66343851698693 3.10712705101378 
3.55658692083723 4.19829453428305 4.20834467301062 
3.7154597606845 3.85694515019111 2.96782647465251 
2.93504620027465 4.3086618231491 3.97224472239448 
3.01390823298976 3.87757092493437 3.83272242815885 
2.84958476936182 3.89638492615306 3.28320418551917 
2.73689508540223 4.25857662550976 3.21620218966989 
2.95655188452889 4.38520748006379 2.81946187453246 
3.64852630537535 3.67139308417588 3.68102795826022 
3.39229114262245 3.7673254738883 3.94107012662354 
3.12844146190056 3.77338712707242 2.96545322139737 
3.17300581999655 4.02760446827254 2.71979703477041 
3.14071128483515 4.9362481986135 3.4819778612424 
3.37084258436904 4.99769406223926 3.57900639740434 
3.11847998248013 4.60267706115205 2.82883668870366 
3.77593903953217 4.80659251266531 3.24189822072746 
3.45466977451741 4.10559716827025 2.70174719747919 
3.44024964128787 4.51918381525914 2.76809037253584 
3.9275383826563 4.30304514368444 4.02911625658658 
4.0286659144301 4.60991432831179 3.45261994041454 
3.94270587029414 4.639984305148 3.88306569078684 
4.05934201222033 4.10004081541199 3.37301370866598 
4.00797238275906 3.95693679463314 3.69176604790961 
POLYGONS 15 93
6 2 1 16 15 0 6 
6 5 19 20 18 22 24 
5 11 12 4 21 25 
5 3 5 24 25 11 
5 10 14 19 20 17 
5 3 5 19 14 13 
5 6 7 8 9 0 
5 2 4 12 7 6 
5 9 10 17 15 0 
5 2 4 21 23 1 
5 1 16 18 22 23 
6 7 8 13 3 11 12 
5 9 10 14 13 8 
5 15 16 18 20 17 
5 22 23 21 25 24 
CELL_DATA 15
SCALARS scalar_1 double
LOOKUP_TABLE default
0.12628967036132954
0.12628967036132954
0.12628967036132954
0.12628967036132954
0.12628967036132954
0.12628967036132954
0.12628967036132954
0.12628967036132954
0.12628967036132954
0.12628967036132954
0.12628967036132954
0.12628967036132954
0.12628967036132954
0.12628967036132954
0.12628967036132954
