# vtk DataFile Version 2.0
polydata
ASCII
DATASET POLYDATA
POINTS 26 double
2.80948209546629 4.53949076721064 3.65283700566328 
3.54325792442853 4.82667943314199 3.96067481538307 
3.32236375034076 4.44044514727958 4.1936096567111 
3.53176887711054 3.65834313606486 3.10859066238962 
3.5542767504322 4.19390106875795 4.21092595978071 
3.71364100694978 3.85226314230151 2.96893781846938 
2.93200128844789 4.30472541391058 3.97474269001007 
3.01113140747959 3.87264541245833 3.83482015068575 
2.84675287169612 3.89153164699804 3.28500508622831 
2.7339692508049 4.25409017301898 3.21797231831688 
2.95400163380219 4.38095909470023 2.82058718007905 
3.64631704139377 3.66631077583757 3.68284343856895 
3.38979286096883 3.76233095165374 3.94319065537927 
3.12596548832037 3.76839407812267 2.96682892054948 
3.17060706043241 4.02288795727141 2.72084603993667 
3.13908248828929 4.93374943863499 3.48478041336715 
3.36734540916338 4.99467905891465 3.58094628501124 
3.11624070560201 4.59875603605458 2.82991156367674 
3.77410496961987 4.80270049024915 3.24287485249242 
3.4527873900434 4.10098050749304 2.70275004012668 
3.43839348855627 4.51511697986098 2.7690946391727 
3.9257638129696 4.29884367861678 4.03141481309552 
4.02708094875749 4.60574420652517 3.45392022353295 
3.94095258508258 4.63589833783926 3.88530664814571 
4.0577214291895 4.09550485900348 3.37433039085466 
4.00627611155371 3.95221737578133 3.69355703914079 
POLYGONS 15 93
6 2 1 16 15 0 6 
6 5 19 20 18 22 24 
5 11 12 4 21 25 
5 3 5 24 25 11 
5 10 14 19 20 17 
5 3 5 19 14 13 
5 6 7 8 9 0 
5 2 4 12 7 6 
5 9 10 17 15 0 
5 2 4 21 23 1 
5 1 16 18 22 23 
6 7 8 13 3 11 12 
5 9 10 14 13 8 
5 15 16 18 20 17 
5 22 23 21 25 24 
CELL_DATA 15
SCALARS scalar_1 double
LOOKUP_TABLE default
0.11051990403615009
0.11051990403615009
0.11051990403615009
0.11051990403615009
0.11051990403615009
0.11051990403615009
0.11051990403615009
0.11051990403615009
0.11051990403615009
0.11051990403615009
0.11051990403615009
0.11051990403615009
0.11051990403615009
0.11051990403615009
0.11051990403615009
