# vtk DataFile Version 2.0
polydata
ASCII
DATASET POLYDATA
POINTS 26 double
2.8049886679537 4.53986844469986 3.65206477251845 
3.53869973425858 4.82750055569521 3.95944728486351 
3.31789118860089 4.44087957042508 4.19247742938914 
3.52789475558798 3.65762421503106 3.10628877015826 
3.55031029646135 4.1938808000135 4.20973148813622 
3.710177588715 3.85196504787379 2.96627641717962 
2.92730716192834 4.30517881837137 3.97347981181666 
3.00671088011276 3.87209159082025 3.83314836931691 
2.84228151587868 3.89105103257035 3.28304374414789 
2.7294034795326 4.25397961455259 3.21598033413817 
2.94981382515324 4.38108762720982 2.81794900573555 
3.64245413954101 3.66560459927069 3.68088126595157 
3.38563839544324 3.76171299782578 3.94153670761759 
3.12184854575048 3.76777592616289 2.96444557131931 
3.16656862920934 4.02255137615637 2.71813243647407 
3.13584570155367 4.93567571649786 3.48384607066235 
3.36215212123703 4.99606472532195 3.5791097956582 
3.11236725806972 4.59921658184297 2.82722066184781 
3.77062184133776 4.80318181325932 3.24005763993234 
3.44926695266179 4.10074311844481 2.69998831417417 
3.43490091217047 4.51543167290271 2.76633118836348 
3.9223346024157 4.29901616414789 4.02993591804094 
4.02384621329492 4.6059438869521 3.45143143904407 
3.93754500379329 4.63618276065436 3.88377305117776 
4.05444843320968 4.09534677195574 3.37186133381489 
4.00292511118584 3.9518726506175 3.69157074522899 
POLYGONS 15 93
6 2 1 16 15 0 6 
6 5 19 20 18 22 24 
5 11 12 4 21 25 
5 3 5 24 25 11 
5 10 14 19 20 17 
5 3 5 19 14 13 
5 6 7 8 9 0 
5 2 4 12 7 6 
5 9 10 17 15 0 
5 2 4 21 23 1 
5 1 16 18 22 23 
6 7 8 13 3 11 12 
5 9 10 14 13 8 
5 15 16 18 20 17 
5 22 23 21 25 24 
CELL_DATA 15
SCALARS scalar_1 double
LOOKUP_TABLE default
0.09490218350504921
0.09490218350504921
0.09490218350504921
0.09490218350504921
0.09490218350504921
0.09490218350504921
0.09490218350504921
0.09490218350504921
0.09490218350504921
0.09490218350504921
0.09490218350504921
0.09490218350504921
0.09490218350504921
0.09490218350504921
0.09490218350504921
