# vtk DataFile Version 2.0
polydata
ASCII
DATASET POLYDATA
POINTS 26 double
2.80661156025744 4.54086506404984 3.65106782045682 
3.54023745220147 4.82888047356794 3.95803445284193 
3.31951060736373 4.44192958769191 4.19114034110262 
3.53003867017655 3.6576748421115 3.10394325994051 
3.55237240959666 4.19453283046105 4.20833821403742 
3.71267859703517 3.85238025507849 2.96361789340605 
2.92874823964767 4.30625107674992 3.97203805320384 
3.00839260138484 3.87228099347395 3.83134766172266 
2.84392304655369 3.89130366726029 3.28099532364465 
2.73096600432815 4.25454504257269 3.2139065915333 
2.95170516419277 4.38185897879009 2.81531651538387 
3.64460753376795 3.66566660352963 3.67882468205316 
3.38753825795708 3.76185164210282 3.93974807545576 
3.12379601944241 3.76791073492527 2.96203525552962 
3.16858438099133 4.02292881220155 2.71543774417715 
3.13858399413534 4.93804816465344 3.48271118669868 
3.36312352702321 4.99794912899208 3.5771616865851 
3.11453534108927 4.60028189423612 2.82454073282334 
3.7731071229965 4.80426339434517 3.23725197414519 
3.45172695640849 4.1012045390081 2.69725104358548 
3.43738651198256 4.51637316099141 2.76358961810886 
3.924861596875 4.2998351586952 4.02829624537726 
4.02654488486768 4.60678010216006 3.44891357154303 
3.94009052404372 4.63709242810207 3.88209023441372 
4.0571118240846 4.09588161271392 3.3693638255865 
4.00551968901007 3.95224578509267 3.68949351611403 
POLYGONS 15 93
6 2 1 16 15 0 6 
6 5 19 20 18 22 24 
5 11 12 4 21 25 
5 3 5 24 25 11 
5 10 14 19 20 17 
5 3 5 19 14 13 
5 6 7 8 9 0 
5 2 4 12 7 6 
5 9 10 17 15 0 
5 2 4 21 23 1 
5 1 16 18 22 23 
6 7 8 13 3 11 12 
5 9 10 14 13 8 
5 15 16 18 20 17 
5 22 23 21 25 24 
CELL_DATA 15
SCALARS scalar_1 double
LOOKUP_TABLE default
0.08155972052322874
0.08155972052322874
0.08155972052322874
0.08155972052322874
0.08155972052322874
0.08155972052322874
0.08155972052322874
0.08155972052322874
0.08155972052322874
0.08155972052322874
0.08155972052322874
0.08155972052322874
0.08155972052322874
0.08155972052322874
0.08155972052322874
