# vtk DataFile Version 2.0
polydata
ASCII
DATASET POLYDATA
POINTS 26 double
2.80438824563456 4.53441362955367 3.64725036042164 
3.53791556603127 4.82276060310153 3.95383820529884 
3.31726670231251 4.4355271179672 4.18700459292914 
3.52825778858926 3.65040887408968 3.09893909951843 
3.55051665214653 4.18778172796211 4.20415155928734 
3.71120794005603 3.84543075406957 2.95834170768372 
2.92636229580801 4.29987227900037 3.96781979943024 
3.00621852262062 3.86513018255091 3.82681419448119 
2.84171713082845 3.88420828556938 3.2762518161953 
2.72869249284961 4.24771657018376 3.2091428874448 
2.94971802960893 4.37521067158451 2.81006720942171 
3.64283454329774 3.65840972878996 3.67406337493054 
3.38554298149534 3.7546613020999 3.93522183385315 
3.12185460775918 3.76071543050963 2.95697985063577 
3.16670209093664 4.01594611093776 2.71013552907303 
3.13734971492279 4.93281918513029 3.47877631725051 
3.36029571059362 4.99228017766598 3.5724942022272 
3.1127892655201 4.59389093157909 2.81924905654697 
3.7716183419238 4.79788302646582 3.23183432160551 
3.45022420207728 4.09429302438537 2.69191128369814 
3.43590688118969 4.50987709542712 2.7582444638809 
3.92340783337967 4.29322871506295 4.02389586102965 
4.02524216173959 4.60018393485588 3.4437498200577 
3.93865268821751 4.6305600935431 3.87765536870904 
4.05577712856959 4.08903201544766 3.3642198372118 
4.00412439028861 3.94525526151527 3.68471532321942 
POLYGONS 15 93
6 2 1 16 15 0 6 
6 5 19 20 18 22 24 
5 11 12 4 21 25 
5 3 5 24 25 11 
5 10 14 19 20 17 
5 3 5 19 14 13 
5 6 7 8 9 0 
5 2 4 12 7 6 
5 9 10 17 15 0 
5 2 4 21 23 1 
5 1 16 18 22 23 
6 7 8 13 3 11 12 
5 9 10 14 13 8 
5 15 16 18 20 17 
5 22 23 21 25 24 
CELL_DATA 15
SCALARS scalar_1 double
LOOKUP_TABLE default
0.07015528460133595
0.07015528460133595
0.07015528460133595
0.07015528460133595
0.07015528460133595
0.07015528460133595
0.07015528460133595
0.07015528460133595
0.07015528460133595
0.07015528460133595
0.07015528460133595
0.07015528460133595
0.07015528460133595
0.07015528460133595
0.07015528460133595
