# vtk DataFile Version 2.0
polydata
ASCII
DATASET POLYDATA
POINTS 26 double
2.79990723779522 4.53407189742751 3.6466248055219 
3.53333068039485 4.82270481552692 3.95287287492955 
3.31275418550368 4.43522928004733 4.18608718598698 
3.52415190115866 3.6493629992718 3.09727148949713 
3.54634386291843 4.18717862428066 4.20318870566251 
3.70737125614183 3.84465863787062 2.95643785427646 
2.92173584648043 4.29959857220934 3.96683602065911 
3.00177787788536 3.86418166092266 3.82555419178563 
2.83725126666676 3.88330783220639 3.2748111478087 
2.72416954067702 4.24704336975629 3.20768528487308 
2.94544395328995 4.37469270449294 2.80818967733389 
3.63873525529301 3.65737183004002 3.67260341925084 
3.38125010412228 3.75368123518681 3.93396637706785 
3.11761757454638 3.75972902899111 2.95527090525246 
3.16251642867999 4.01514278673448 2.70821393561091 
3.13374229505287 4.93355812745443 3.47805150456431 
3.35526182323477 4.99262539979233 3.57111474598815 
3.10872660911296 4.59359951565668 2.81733376139145 
3.76776589799611 4.79759944305953 3.22979998072746 
3.44636453778638 4.09355020546795 2.68995674904836 
3.43206809649297 4.50949596233806 2.756283627522 
3.91958339157498 4.29275114571296 4.02274799283127 
4.02155071142765 4.59971174002554 3.44193842595743 
3.93484199501819 4.63014319225385 3.87648019603162 
4.05205670912619 4.08834552366488 3.36242751982029 
4.00035058939053 3.94444650812143 3.68324122760989 
POLYGONS 15 93
6 2 1 16 15 0 6 
6 5 19 20 18 22 24 
5 11 12 4 21 25 
5 3 5 24 25 11 
5 10 14 19 20 17 
5 3 5 19 14 13 
5 6 7 8 9 0 
5 2 4 12 7 6 
5 9 10 17 15 0 
5 2 4 21 23 1 
5 1 16 18 22 23 
6 7 8 13 3 11 12 
5 9 10 14 13 8 
5 15 16 18 20 17 
5 22 23 21 25 24 
CELL_DATA 15
SCALARS scalar_1 double
LOOKUP_TABLE default
0.060373504599288204
0.060373504599288204
0.060373504599288204
0.060373504599288204
0.060373504599288204
0.060373504599288204
0.060373504599288204
0.060373504599288204
0.060373504599288204
0.060373504599288204
0.060373504599288204
0.060373504599288204
0.060373504599288204
0.060373504599288204
0.060373504599288204
