# vtk DataFile Version 2.0
polydata
ASCII
DATASET POLYDATA
POINTS 26 double
2.80586007681451 4.55522414185025 3.65068360751832 
3.54048629912059 4.83890696254957 3.96823314539786 
3.31881789698112 4.45653928373231 4.19828182539557 
3.52526974923584 3.69343820003595 3.10881241352927 
3.54787629032841 4.21274730767621 4.21610347842608 
3.69850141856557 3.88157853738762 2.99215882729026 
2.92892547313956 4.32002660764387 3.97715393896125 
3.00947435715822 3.88991589751983 3.8372871398884 
2.84844913577809 3.9138931152885 3.28986409563132 
2.73496188125743 4.27339165073452 3.22421549354501 
2.95470122441397 4.39982805560311 2.83645720672636 
3.63400564918516 3.69096189972526 3.69338805538744 
3.38430871775356 3.78027607698972 3.94498462867892 
3.13757636398744 3.7962496961965 2.96675394314747 
3.17826911755523 4.04733124381365 2.73586167624373 
3.11942739931733 4.93071511566213 3.48685796067175 
3.3731667475553 4.9985946335376 3.59673825389179 
3.10960356904126 4.61113164746339 2.84907266152311 
3.73535287492774 4.83385765926167 3.29676237206613 
3.4434858688416 4.12978018452082 2.72612416647045 
3.41503643123911 4.53637291505153 2.79912685674962 
3.91396309454057 4.31682713124358 4.04072034159965 
4.00439161173555 4.62823457741291 3.52256856567811 
3.92861156360701 4.65378619740211 3.89603938163106 
4.04009420849501 4.1126621932807 3.4290249792227 
3.99436418783391 3.98032252771006 3.7079727916268 
POLYGONS 15 93
6 2 1 16 15 0 6 
6 5 19 20 18 22 24 
5 11 12 4 21 25 
5 3 5 24 25 11 
5 10 14 19 20 17 
5 3 5 19 14 13 
5 6 7 8 9 0 
5 2 4 12 7 6 
5 9 10 17 15 0 
5 2 4 21 23 1 
5 1 16 18 22 23 
6 7 8 13 3 11 12 
5 9 10 14 13 8 
5 15 16 18 20 17 
5 22 23 21 25 24 
CELL_DATA 15
SCALARS scalar_1 double
LOOKUP_TABLE default
0.27183389889514903
0.27183389889514903
0.27183389889514903
0.27183389889514903
0.27183389889514903
0.27183389889514903
0.27183389889514903
0.27183389889514903
0.27183389889514903
0.27183389889514903
0.27183389889514903
0.27183389889514903
0.27183389889514903
0.27183389889514903
0.27183389889514903
