# vtk DataFile Version 2.0
polydata
ASCII
DATASET POLYDATA
POINTS 26 double
2.80173364057306 4.52918498457595 3.64538441149338 
3.53505348846476 4.81806357362843 3.95132863454034 
3.31454407667307 4.43038112345817 4.18458134506764 
3.52629559557087 3.64386958838048 3.09512011951391 
3.54843011866256 4.1820642081099 4.20164202510003 
3.70974789537344 3.83940181756124 2.95408150955677 
2.92343367015829 4.29477396988913 3.96527743488039 
3.00363750349609 3.85877032181849 3.82375440760165 
2.83909035242015 3.8779382046106 3.27285734519513 
2.72596031405391 4.24186752302406 3.20571757147794 
2.94745044047447 4.36965111899525 2.8058583679583 
3.64088541554929 3.65188516554639 3.67062824863052 
3.38323299898584 3.74824444442834 3.93216874981049 
3.11965337030396 3.754285882245 2.95308673716831 
3.1645967827412 4.00985867608005 2.70584558767351 
3.13633757025452 4.92962297173903 3.47672695827056 
3.3565866740118 4.98833947946828 3.56920758084419 
3.11091702115863 4.58875525426934 2.81496883453347 
3.77012777156847 4.79276019455894 3.22732276869432 
3.44872348855303 4.08831712600622 2.68755940891624 
3.43444601197319 4.50457521690994 2.75387948442185 
3.9219696829448 4.28774515401355 4.0210410159484 
4.02405243542638 4.59470769201179 3.43965635618574 
3.93723984705187 4.62518706131921 3.8747513617538 
4.05453228943262 4.08316113049912 3.36016351048159 
4.00277988692771 3.93915611125803 3.68125358149353 
POLYGONS 15 93
6 2 1 16 15 0 6 
6 5 19 20 18 22 24 
5 11 12 4 21 25 
5 3 5 24 25 11 
5 10 14 19 20 17 
5 3 5 19 14 13 
5 6 7 8 9 0 
5 2 4 12 7 6 
5 9 10 17 15 0 
5 2 4 21 23 1 
5 1 16 18 22 23 
6 7 8 13 3 11 12 
5 9 10 14 13 8 
5 15 16 18 20 17 
5 22 23 21 25 24 
CELL_DATA 15
SCALARS scalar_1 double
LOOKUP_TABLE default
0.0520040128197932
0.0520040128197932
0.0520040128197932
0.0520040128197932
0.0520040128197932
0.0520040128197932
0.0520040128197932
0.0520040128197932
0.0520040128197932
0.0520040128197932
0.0520040128197932
0.0520040128197932
0.0520040128197932
0.0520040128197932
0.0520040128197932
