# vtk DataFile Version 2.0
polydata
ASCII
DATASET POLYDATA
POINTS 26 double
2.79820328185295 4.53211887089492 3.64959520565402 
3.53142271565379 4.82121115359895 3.95526850357672 
3.31097396885358 4.43335057716363 4.18855229860028 
3.52303606628148 3.64628028441124 3.09853437351381 
3.5451180151873 4.18480189689442 4.2055770161395 
3.70669105264358 3.84201789836856 2.95731759702432 
2.91978901205303 4.29776565437962 3.9692054758275 
3.00013465599686 3.8612506173712 3.82747215778489 
2.83557151611013 3.88045447502217 3.276442845744 
2.72240045303524 4.2445486678461 3.20929157030443 
2.94407834285046 4.37244877145128 2.80911714944978 
3.63763065134154 3.65430189538296 3.67419218232012 
3.37983187706915 3.75070476553742 3.9358874350235 
3.11630477070411 3.75673908424426 2.95647410345917 
3.16128697282997 4.01244992597611 2.70907341742548 
3.13348434963936 4.93339604446494 3.48086566060316 
3.35260458486108 4.99180109385421 3.57282929446977 
3.10770608859179 4.59172671779131 2.81819800435048 
3.76705663123421 4.79573526801548 3.23044851274539 
3.44565370154582 4.09095214986807 2.6907619945327 
3.43139296527974 4.50748157021518 2.75707529192465 
3.91891802650169 4.2905768105042 4.02483714665224 
4.0211023782287 4.59753893663119 3.44295321512314 
3.93419832417605 4.62805990874888 3.87852979066298 
4.0515589902906 4.08583878332678 3.36347707139076 
3.99976573477998 3.94174189061855 3.68480724025916 
POLYGONS 15 93
6 2 1 16 15 0 6 
6 5 19 20 18 22 24 
5 11 12 4 21 25 
5 3 5 24 25 11 
5 10 14 19 20 17 
5 3 5 19 14 13 
5 6 7 8 9 0 
5 2 4 12 7 6 
5 9 10 17 15 0 
5 2 4 21 23 1 
5 1 16 18 22 23 
6 7 8 13 3 11 12 
5 9 10 14 13 8 
5 15 16 18 20 17 
5 22 23 21 25 24 
CELL_DATA 15
SCALARS scalar_1 double
LOOKUP_TABLE default
0.0448174713343355
0.0448174713343355
0.0448174713343355
0.0448174713343355
0.0448174713343355
0.0448174713343355
0.0448174713343355
0.0448174713343355
0.0448174713343355
0.0448174713343355
0.0448174713343355
0.0448174713343355
0.0448174713343355
0.0448174713343355
0.0448174713343355
