# vtk DataFile Version 2.0
polydata
ASCII
DATASET POLYDATA
POINTS 26 double
2.79414803989042 4.53350508523715 3.653411617064 
3.52727223266025 4.8227815483973 3.95884408529074 
3.30687873974281 4.43476784940784 4.1921529472143 
3.51921146869365 3.64721433239675 3.10165274590439 
3.5412481212096 4.1860167476942 4.20914546707534 
3.70304140984874 3.84312912384964 2.96028173749453 
2.91563326332395 4.29920390108545 3.97277186912931 
2.99610265998359 3.86224342868149 3.83085466081837 
2.83152592932666 3.88147872937851 3.27971158904623 
2.7183197598153 4.24571423081514 3.2125509316709 
2.94016021697135 4.37371527781971 2.8121032376384 
3.6338108833505 3.65524095684787 3.67743926270676 
3.37588503548847 3.75168151986788 3.93926948198819 
3.11240646072115 3.75770905428453 2.95957112715822 
3.15742193823204 4.01353900907106 2.7120329013077 
3.13002375986458 4.93551992733185 3.48462053316545 
3.34814368621296 4.99364893234038 3.57612622357958 
3.10392846016508 4.59314489921133 2.82115779730443 
3.76339449392037 4.79715562952589 3.23331314574284 
3.44199451386597 4.09207842278027 2.69369923120793 
3.42774879569101 4.50884389965102 2.76000610633355 
3.91527315356919 4.2918730960603 4.02828508058843 
4.01754578546138 4.59883343758738 3.44596763442822 
3.93056208166591 4.62939048318107 3.88196349248682 
4.04798156245695 4.08700288680281 3.36650677248087 
3.99615290356834 3.94282619463012 3.68804543297784 
POLYGONS 15 93
6 2 1 16 15 0 6 
6 5 19 20 18 22 24 
5 11 12 4 21 25 
5 3 5 24 25 11 
5 10 14 19 20 17 
5 3 5 19 14 13 
5 6 7 8 9 0 
5 2 4 12 7 6 
5 9 10 17 15 0 
5 2 4 21 23 1 
5 1 16 18 22 23 
6 7 8 13 3 11 12 
5 9 10 14 13 8 
5 15 16 18 20 17 
5 22 23 21 25 24 
CELL_DATA 15
SCALARS scalar_1 double
LOOKUP_TABLE default
0.03863358861374897
0.03863358861374897
0.03863358861374897
0.03863358861374897
0.03863358861374897
0.03863358861374897
0.03863358861374897
0.03863358861374897
0.03863358861374897
0.03863358861374897
0.03863358861374897
0.03863358861374897
0.03863358861374897
0.03863358861374897
0.03863358861374897
