# vtk DataFile Version 2.0
polydata
ASCII
DATASET POLYDATA
POINTS 26 double
2.79583358892244 4.5248656195703 3.65094010228018 
3.52886916399013 4.81430014980623 3.95616104140438 
3.3085253526154 4.42615596779593 4.18948947203507 
3.5210939425708 3.63818312763703 3.09857278071922 
3.54309116697229 4.17722807945252 4.20645381828931 
3.70507514956757 3.83425053405286 2.95706851808439 
2.91723000381842 4.29061142753301 3.97008006085155 
2.99780733607406 3.85326267041637 3.82800262009721 
2.83321964992307 3.87252506236429 3.27676119182299 
2.7199836949643 4.23688158677667 3.20959242933832 
2.94196503387814 4.36496929383619 2.80890887582727 
3.6356971977757 3.64621429052547 3.6744702702815 
3.37766160782379 3.74268747104037 3.93641680805397 
3.11422735746488 3.74870849298045 2.95647318292805 
3.1592718118154 4.00464078254736 2.7088163988389 
3.13222993087256 4.92752615609326 3.4820967973855 
3.34946788324179 4.9854117044181 3.57319919388822 
3.10585599282049 4.5845314857863 2.81794031639806 
3.76541747806245 4.78854376216748 3.2300108083863 
3.4440214982462 4.08321189938707 2.69046350593538 
3.42978918098874 4.50018246909474 2.75676411676356 
3.91731025272079 4.28315457653857 4.02548965091106 
4.01966022471438 4.59011172329072 3.44279643748282 
3.93260675712284 4.62070012381361 3.87915670057067 
4.05007737667456 4.0781699196041 3.36334964544637 
3.998217703522 3.93392445423549 3.68506883329952 
POLYGONS 15 93
6 2 1 16 15 0 6 
6 5 19 20 18 22 24 
5 11 12 4 21 25 
5 3 5 24 25 11 
5 10 14 19 20 17 
5 3 5 19 14 13 
5 6 7 8 9 0 
5 2 4 12 7 6 
5 9 10 17 15 0 
5 2 4 21 23 1 
5 1 16 18 22 23 
6 7 8 13 3 11 12 
5 9 10 14 13 8 
5 15 16 18 20 17 
5 22 23 21 25 24 
CELL_DATA 15
SCALARS scalar_1 double
LOOKUP_TABLE default
0.033307094229534484
0.033307094229534484
0.033307094229534484
0.033307094229534484
0.033307094229534484
0.033307094229534484
0.033307094229534484
0.033307094229534484
0.033307094229534484
0.033307094229534484
0.033307094229534484
0.033307094229534484
0.033307094229534484
0.033307094229534484
0.033307094229534484
