# vtk DataFile Version 2.0
polydata
ASCII
DATASET POLYDATA
POINTS 26 double
2.79147725578242 4.52344146839888 3.65701960973268 
3.52443127820608 4.8130129826096 3.96205489928053 
3.30413169293686 4.42475600520865 4.19539915377038 
3.51690612370362 3.63642229114294 3.10412353671916 
3.53886778558902 4.17567512955931 4.21233876944615 
3.70101880760587 3.83262230772997 2.96250371864919 
2.91279581433715 4.28922900050934 3.97596635429888 
2.99346706265965 3.85154411187736 3.83374960686212 
2.82887086742891 3.87083029552194 3.28242376938302 
2.71560954209513 4.23529010511842 3.21524848508689 
2.93771321935808 4.36345320076305 2.81436089515686 
3.63151222823985 3.64445700113428 3.68011550090356 
3.37338130984743 3.74095822002456 3.94216281596053 
3.109988298892 3.74697379968689 2.96200910391027 
3.15505800441666 4.00299527935911 2.71424966269528 
3.1283287382103 4.92666720564173 3.48813206362309 
3.3447909968853 4.98433876281486 3.57888021683524 
3.10171084033393 4.583131060214 2.82337230261296 
3.76135047490567 4.78714411636886 3.23536662132253 
3.43996018588757 4.08159366804062 2.69588018461783 
3.42573949740098 4.49874119819444 2.76217517492317 
3.91325506476197 4.28166257978945 4.03128492838261 
4.01567254455555 4.58861644145835 3.44826670544172 
3.92855806890442 4.61923171898491 3.88494284842715 
4.04607349299203 4.0765802464341 3.36883227437092 
3.99418663565751 3.93227493199816 3.69070796150058 
POLYGONS 15 93
6 2 1 16 15 0 6 
6 5 19 20 18 22 24 
5 11 12 4 21 25 
5 3 5 24 25 11 
5 10 14 19 20 17 
5 3 5 19 14 13 
5 6 7 8 9 0 
5 2 4 12 7 6 
5 9 10 17 15 0 
5 2 4 21 23 1 
5 1 16 18 22 23 
6 7 8 13 3 11 12 
5 9 10 14 13 8 
5 15 16 18 20 17 
5 22 23 21 25 24 
CELL_DATA 15
SCALARS scalar_1 double
LOOKUP_TABLE default
0.02873436420734802
0.02873436420734802
0.02873436420734802
0.02873436420734802
0.02873436420734802
0.02873436420734802
0.02873436420734802
0.02873436420734802
0.02873436420734802
0.02873436420734802
0.02873436420734802
0.02873436420734802
0.02873436420734802
0.02873436420734802
0.02873436420734802
