# vtk DataFile Version 2.0
polydata
ASCII
DATASET POLYDATA
POINTS 26 double
2.79110672972445 4.52069916443184 3.66458321039721 
3.52398605533683 4.81038893894203 3.96945403588644 
3.30372585182121 4.42203403293395 4.20281181698507 
3.51667986469491 3.63338947764442 3.11122689345974 
3.53861014083817 4.17282012004022 4.21972940987165 
3.70090608065069 3.8297040939129 2.96950673386917 
2.9123577400921 4.28652313835104 3.9833609957348 
2.99311035380567 3.84854749783753 3.84102317310176 
2.82850683772466 3.86785415879835 3.28962547692979 
2.71522349603838 4.23240324692573 3.22244474099982 
2.93743299927358 4.36063185514971 2.82137953124303 
3.6312891719623 3.64142735485889 3.68729872685856 
3.37307481652108 3.73795318608153 3.94943475344274 
3.10971891038335 3.74396321995593 2.96910088069762 
3.15481021606158 4.00006246855734 2.72125201781684 
3.12835646040119 4.92441979087255 3.49565768588817 
3.34413569767666 4.98190283229598 3.58609379901676 
3.10152287384123 4.58040963670271 2.83037303593102 
3.7612275621695 4.78442229855379 3.2422972904793 
3.43984301562837 4.07868401338995 2.70286772797102 
3.4256327508354 4.4959845549176 2.76915736572997 
3.91314309228746 4.27886035955349 4.0385974450062 
4.01561898650209 4.58581092247985 3.45529735401492 
3.92845174732004 4.61644964011477 3.89224764007964 
4.04600544402398 4.07369460597589 3.37587414396898 
3.99409508518331 3.92933723178144 3.69788589850619 
POLYGONS 15 93
6 2 1 16 15 0 6 
6 5 19 20 18 22 24 
5 11 12 4 21 25 
5 3 5 24 25 11 
5 10 14 19 20 17 
5 3 5 19 14 13 
5 6 7 8 9 0 
5 2 4 12 7 6 
5 9 10 17 15 0 
5 2 4 21 23 1 
5 1 16 18 22 23 
6 7 8 13 3 11 12 
5 9 10 14 13 8 
5 15 16 18 20 17 
5 22 23 21 25 24 
CELL_DATA 15
SCALARS scalar_1 double
LOOKUP_TABLE default
0.024804331656205627
0.024804331656205627
0.024804331656205627
0.024804331656205627
0.024804331656205627
0.024804331656205627
0.024804331656205627
0.024804331656205627
0.024804331656205627
0.024804331656205627
0.024804331656205627
0.024804331656205627
0.024804331656205627
0.024804331656205627
0.024804331656205627
