# vtk DataFile Version 2.0
polydata
ASCII
DATASET POLYDATA
POINTS 26 double
2.78940255335155 4.5236174283101 3.66147578967479 
3.52221377322145 4.81341081258555 3.96620170030459 
3.30198916025959 4.42497169984078 4.19957017433831 
3.51509994939198 3.63605636555204 3.10771666371783 
3.53700244332967 4.1756423040541 4.21646848029566 
3.69942541561082 3.8324711656602 2.96590913613151 
2.9105938003392 4.28947483490998 3.98010398147507 
2.9914180389257 3.85124481344686 3.83766032508641 
2.82680868551317 3.8705694930547 3.2862002421647 
2.71350650647778 4.23519474779089 3.21901521595842 
2.93580849334585 4.36348089435971 2.8177955993622 
3.62971139036558 3.64409685479433 3.68385715094201 
3.37142453654621 3.74064386295557 3.94607006068323 
3.10810298897609 3.74664909099418 2.96558084575364 
3.15321329383499 4.00281640732078 2.71765425251106 
3.12700102742956 4.92777237604569 3.49251764193038 
3.34217887846135 4.98508972367586 3.58267932015596 
3.09997875554888 4.58334627356447 2.82677370392124 
3.75973735988415 4.78735917306592 3.23863637404625 
3.43835931552964 4.08145806115857 2.69925733691982 
3.42415792685536 4.49889126999074 2.76554230328747 
3.91166173460867 4.28172861475994 4.03526869550133 
4.01418853280025 4.58867545110749 3.45172338056715 
3.92697495204021 4.61933431145812 3.88891281514755 
4.04456271018831 4.07648964376098 3.3723099288425 
3.99263188374205 3.93208716349559 3.69443973177525 
POLYGONS 15 93
6 2 1 16 15 0 6 
6 5 19 20 18 22 24 
5 11 12 4 21 25 
5 3 5 24 25 11 
5 10 14 19 20 17 
5 3 5 19 14 13 
5 6 7 8 9 0 
5 2 4 12 7 6 
5 9 10 17 15 0 
5 2 4 21 23 1 
5 1 16 18 22 23 
6 7 8 13 3 11 12 
5 9 10 14 13 8 
5 15 16 18 20 17 
5 22 23 21 25 24 
CELL_DATA 15
SCALARS scalar_1 double
LOOKUP_TABLE default
0.021404237641040522
0.021404237641040522
0.021404237641040522
0.021404237641040522
0.021404237641040522
0.021404237641040522
0.021404237641040522
0.021404237641040522
0.021404237641040522
0.021404237641040522
0.021404237641040522
0.021404237641040522
0.021404237641040522
0.021404237641040522
0.021404237641040522
