# vtk DataFile Version 2.0
polydata
ASCII
DATASET POLYDATA
POINTS 26 double
2.79029601774165 4.52600470907586 3.65807103894969 
3.52304748050607 4.81588656988879 3.96267106361498 
3.30285373701314 4.42737515019078 4.19604857375063 
3.51609911073466 3.63822628010366 3.10396249711972 
3.5379788800358 4.17794516354417 4.21293005304297 
3.70050923366863 3.83472617774469 2.962080197949 
2.91143537503011 4.29189108672797 3.97656955498308 
2.99232131163054 3.85344115920703 3.83403438585048 
2.82770666208108 3.87278129949849 3.28251985913199 
2.71438856732519 4.23747168591704 3.21533102987511 
2.93676982652232 4.36580649039993 2.81397887066154 
3.6307129653693 3.64626907588422 3.68016373938116 
3.37236418765666 3.7428343210983 3.94244257613209 
3.10907178570041 3.74883521169997 2.96181855967397 
3.15419820025512 4.00505979788665 2.71382587286549 
3.12819755460815 4.93053650193481 3.48908457484344 
3.34285181832664 4.98770938284198 3.57900728605647 
3.10101052564791 4.58574848100517 2.8229433119786 
3.76081411952532 4.78976137492839 3.2347517365894 
3.43944125053897 4.08371846626205 2.69541786322059 
3.42524794480149 4.50126755792495 2.76169848807043 
3.91274669719205 4.28407081552727 4.03167190792561 
4.01531758106758 4.59101429966373 3.44791478736227 
3.9280641363627 4.62169091971696 3.88531069146886 
4.04568047960468 4.07876934232334 3.36851033794225 
3.99373194747535 3.93432801063446 3.69074222020486 
POLYGONS 15 93
6 2 1 16 15 0 6 
6 5 19 20 18 22 24 
5 11 12 4 21 25 
5 3 5 24 25 11 
5 10 14 19 20 17 
5 3 5 19 14 13 
5 6 7 8 9 0 
5 2 4 12 7 6 
5 9 10 17 15 0 
5 2 4 21 23 1 
5 1 16 18 22 23 
6 7 8 13 3 11 12 
5 9 10 14 13 8 
5 15 16 18 20 17 
5 22 23 21 25 24 
CELL_DATA 15
SCALARS scalar_1 double
LOOKUP_TABLE default
0.018472339669639515
0.018472339669639515
0.018472339669639515
0.018472339669639515
0.018472339669639515
0.018472339669639515
0.018472339669639515
0.018472339669639515
0.018472339669639515
0.018472339669639515
0.018472339669639515
0.018472339669639515
0.018472339669639515
0.018472339669639515
0.018472339669639515
