# vtk DataFile Version 2.0
polydata
ASCII
DATASET POLYDATA
POINTS 26 double
2.79077931419672 4.52558800412459 3.66252559949884 
3.52347649842947 4.81554706976498 3.96701487253857 
3.30331029825225 4.42697261392483 4.20039977609271 
3.51667361044094 3.63762136040286 3.108112297936 
3.53853278487656 4.17745550850928 4.21726639725943 
3.70115790120371 3.83419604872366 2.9661644549433 
2.9118731596497 4.29149988222546 3.98091018268954 
2.99281302002597 3.85285850889802 3.83829493908209 
2.82819425214787 3.87221220634828 3.28673386017227 
2.71486229546669 4.23695925614665 3.21954186488448 
2.93731275492811 4.36533679273619 2.81807413998518 
3.63128935968081 3.64566613271054 3.68436514374843 
3.37288650616388 3.74224705064541 3.94670145609121 
3.10962075417375 3.74824410078205 2.96596174064061 
3.15476131421699 4.004519273714 2.71791104341739 
3.12894618758194 4.93045007277457 3.49351541724617 
3.3431399303393 4.98749597744012 3.58322813127558 
3.10161426533194 4.58534490659618 2.82702665709488 
3.76145618370074 4.78935779677008 3.23878713621378 
3.4400885133316 4.08319272553451 2.69949339261897 
3.42590216591467 4.50084158552836 2.76577007248881 
3.91339522012852 4.28361582105358 4.03595738640709 
4.01600447733387 4.59055609664006 3.45201602200348 
3.92871604308161 4.62124788103825 3.8895919893346 
4.04635784337762 4.07826038305823 3.37261941094124 
3.99439390194957 3.9337851188636 3.69494018101409 
POLYGONS 15 93
6 2 1 16 15 0 6 
6 5 19 20 18 22 24 
5 11 12 4 21 25 
5 3 5 24 25 11 
5 10 14 19 20 17 
5 3 5 19 14 13 
5 6 7 8 9 0 
5 2 4 12 7 6 
5 9 10 17 15 0 
5 2 4 21 23 1 
5 1 16 18 22 23 
6 7 8 13 3 11 12 
5 9 10 14 13 8 
5 15 16 18 20 17 
5 22 23 21 25 24 
CELL_DATA 15
SCALARS scalar_1 double
LOOKUP_TABLE default
0.015938249797652952
0.015938249797652952
0.015938249797652952
0.015938249797652952
0.015938249797652952
0.015938249797652952
0.015938249797652952
0.015938249797652952
0.015938249797652952
0.015938249797652952
0.015938249797652952
0.015938249797652952
0.015938249797652952
0.015938249797652952
0.015938249797652952
