# vtk DataFile Version 2.0
polydata
ASCII
DATASET POLYDATA
POINTS 26 double
2.79220247455703 4.52715434894635 3.6653574282869 
3.52485140132678 4.81717992075551 3.96974968652824 
3.30470936974048 4.42855097268216 4.20314126766617 
3.5181762280675 3.63902396143264 3.11068053996154 
3.54001721696365 4.17895718383045 4.21999507422892 
3.70272479566432 3.83566325208797 2.96867585370677 
2.91325711532425 4.29308832384066 3.983643486861 
2.99424372947175 3.85428091887231 3.84095906965722 
2.82962127686093 3.8736461727473 3.28935790958708 
2.71627711230893 4.23844278527631 3.22216302418209 
2.93878762614981 4.36685738807139 2.82059447247088 
3.63279381023873 3.64707052004464 3.68697726734459 
3.37434354410728 3.74366550972148 3.94936409077206 
3.11110080726364 3.74965892710502 2.9685243282099 
3.15625362415618 4.00597858895309 2.72042267355324 
3.13060078286554 4.93230453586355 3.4963261753371 
3.3443912176229 4.98923922189777 3.58585487141266 
3.10314187309473 4.58692290763688 2.82953640028146 
3.76301562765098 4.79093485443902 3.24125275694873 
3.44165326854887 4.08466466068843 2.70199646954634 
3.42747316669398 4.50240017393753 2.76826945985303 
3.91496163308946 4.28514702794722 4.03864184977747 
4.01760439167397 4.5920843452842 3.45454034687293 
3.93028575148946 4.6227898504507 3.89227224797811 
4.04794905357573 4.0797451642905 3.37515096915172 
3.99597155870759 3.93524035834798 3.69754934200076 
POLYGONS 15 93
6 2 1 16 15 0 6 
6 5 19 20 18 22 24 
5 11 12 4 21 25 
5 3 5 24 25 11 
5 10 14 19 20 17 
5 3 5 19 14 13 
5 6 7 8 9 0 
5 2 4 12 7 6 
5 9 10 17 15 0 
5 2 4 21 23 1 
5 1 16 18 22 23 
6 7 8 13 3 11 12 
5 9 10 14 13 8 
5 15 16 18 20 17 
5 22 23 21 25 24 
CELL_DATA 15
SCALARS scalar_1 double
LOOKUP_TABLE default
0.013745445641291737
0.013745445641291737
0.013745445641291737
0.013745445641291737
0.013745445641291737
0.013745445641291737
0.013745445641291737
0.013745445641291737
0.013745445641291737
0.013745445641291737
0.013745445641291737
0.013745445641291737
0.013745445641291737
0.013745445641291737
0.013745445641291737
