# vtk DataFile Version 2.0
polydata
ASCII
DATASET POLYDATA
POINTS 26 double
2.81679421017044 4.55909675636373 3.64420663808281 
3.54911565540679 4.84102554705507 3.95557181897136 
3.32772892573935 4.45957693870124 4.18695713452794 
3.53082199496829 3.69075511463241 3.11641412240246 
3.55419945604641 4.21791197069057 4.20480138822618 
3.70840393962979 3.88021229625103 2.98054993410869 
2.94113035236992 4.32411588219684 3.9704380470395 
3.01741852137982 3.90266681758921 3.8348120333179 
2.85398801409699 3.9207506702302 3.28898550193277 
2.74232544445156 4.27899422844577 3.222336469992 
2.95800911298518 4.40304629939266 2.8327438698794 
3.64510397858984 3.69853976995217 3.68577232581616 
3.39192827180012 3.79350319545108 3.94257090601839 
3.12890984473131 3.79945043366442 2.97611402160591 
3.17269806550797 4.05082474719554 2.73398908839217 
3.13352545325465 4.93757679635207 3.47824547210868 
3.37960320202399 5.00344157839734 3.58268990858237 
3.11677852745539 4.61733409102069 2.84255989289683 
3.76897703938162 4.82052697316856 3.25511559623088 
3.44889331332463 4.12772030354663 2.71633227920329 
3.43423848625413 4.53547415409029 2.78248718252655 
3.91935939716009 4.32060275015646 4.02858974415513 
4.01873451459204 4.62685434415938 3.46240023257977 
3.93430537151819 4.65601129001325 3.88337482432742 
4.0496730784292 4.12139948992803 3.38279660425699 
3.99898666082648 3.98015412413719 3.6967953472977 
POLYGONS 15 93
6 2 1 16 15 0 6 
6 5 19 20 18 22 24 
5 11 12 4 21 25 
5 3 5 24 25 11 
5 10 14 19 20 17 
5 3 5 19 14 13 
5 6 7 8 9 0 
5 2 4 12 7 6 
5 9 10 17 15 0 
5 2 4 21 23 1 
5 1 16 18 22 23 
6 7 8 13 3 11 12 
5 9 10 14 13 8 
5 15 16 18 20 17 
5 22 23 21 25 24 
CELL_DATA 15
SCALARS scalar_1 double
LOOKUP_TABLE default
0.3092551249270705
0.3092551249270705
0.3092551249270705
0.3092551249270705
0.3092551249270705
0.3092551249270705
0.3092551249270705
0.3092551249270705
0.3092551249270705
0.3092551249270705
0.3092551249270705
0.3092551249270705
0.3092551249270705
0.3092551249270705
0.3092551249270705
