# vtk DataFile Version 2.0
polydata
ASCII
DATASET POLYDATA
POINTS 26 double
2.793622046792 4.52541085072549 3.66951875131531 
3.52622912835115 4.81549302003115 3.97382785734898 
3.30610821892228 4.42681820441775 4.20722380633461 
3.51966238504937 3.63714006038369 3.1146125118229 
3.54148868126405 4.17715902911976 4.2240663120046 
3.70426639289627 3.83383484071192 2.97255911872908 
2.91464183285405 4.29136456635182 3.98771803771732 
2.99566860170074 3.85241362711475 3.84497340996057 
2.83104342827712 3.871789268399 3.29333756170288 
2.71768953609102 4.23662727094051 3.2261405510581 
2.94025185317368 4.36507355196734 2.82448628986317 
3.63428119308253 3.64518786544065 3.69094794397423 
3.37579108199843 3.74179448798166 3.95337716217937 
3.11256880649475 3.74778547752012 2.97245141513046 
3.15773241921203 4.00414226469759 2.72430714028087 
3.13222031430041 4.93080945805166 3.50047032822599 
3.34566256836846 4.98764795205822 3.58984042990843 
3.10465216309254 4.58518901514966 2.83341941908902 
3.76455317943869 4.78920032764415 3.24509958749447 
3.44319494064689 4.08283912247289 2.70587387150529 
3.42902034941776 4.50064955507158 2.77214396720886 
3.916503647702 4.28337451856172 4.04267528875339 
4.01917537237393 4.59030855017845 3.45843672433121 
3.9318304261966 4.6210252033217 3.89630334615731 
4.0495124417133 4.07793241141475 3.37905324990463 
3.99752332969618 3.93340247381439 3.7015175075941 
POLYGONS 15 93
6 2 1 16 15 0 6 
6 5 19 20 18 22 24 
5 11 12 4 21 25 
5 3 5 24 25 11 
5 10 14 19 20 17 
5 3 5 19 14 13 
5 6 7 8 9 0 
5 2 4 12 7 6 
5 9 10 17 15 0 
5 2 4 21 23 1 
5 1 16 18 22 23 
6 7 8 13 3 11 12 
5 9 10 14 13 8 
5 15 16 18 20 17 
5 22 23 21 25 24 
CELL_DATA 15
SCALARS scalar_1 double
LOOKUP_TABLE default
0.011862326591248123
0.011862326591248123
0.011862326591248123
0.011862326591248123
0.011862326591248123
0.011862326591248123
0.011862326591248123
0.011862326591248123
0.011862326591248123
0.011862326591248123
0.011862326591248123
0.011862326591248123
0.011862326591248123
0.011862326591248123
0.011862326591248123
