# vtk DataFile Version 2.0
polydata
ASCII
DATASET POLYDATA
POINTS 26 double
2.79774451892476 4.51992937754292 3.66996643649197 
3.53031228463573 4.81006170447326 3.97420104009523 
3.31021017399972 4.4213461221774 4.20760166043415 
3.52384407781762 3.63153746495263 3.11486175706349 
3.54565447919045 4.17163003470623 4.22443440804577 
3.70849572000681 3.82828025457433 2.97276606140473 
2.91873480077785 4.285900218554 3.98809106892423 
2.999796935818 3.84682534351179 3.8452945960528 
2.83516942621234 3.8662095017758 3.29362963940755 
2.72180629403954 4.23108405711556 3.22643063567334 
2.94441365447321 4.35955850746923 2.8247005188913 
3.63846403232449 3.63958678319113 3.69122806415539 
3.37993683247553 3.73620435497234 3.95369663965367 
3.11673490082198 3.74219147984513 2.97269707189826 
3.16190746713408 3.99858162664193 2.72451477194007 
3.13651693684757 4.92554562141772 3.50090281636502 
3.34965245527913 4.98229975737691 3.59013308862755 
3.10885258929771 4.579716167147 2.83362558831877 
3.76877611153088 4.7837267368992 3.24527107249237 
3.44742287981923 4.07728770821376 2.70607506824289 
3.43325285070767 4.49516250853313 2.77234225936506 
3.92073089454697 4.27786794336475 4.04301019590631 
4.02342774831979 4.58479915606136 3.45865159314241 
3.93605988164702 4.6155259344111 3.89663551787003 
4.05375859829669 4.07239046394706 3.37927364558659 
4.00175940819071 3.92783865182761 3.70179562310329 
POLYGONS 15 93
6 2 1 16 15 0 6 
6 5 19 20 18 22 24 
5 11 12 4 21 25 
5 3 5 24 25 11 
5 10 14 19 20 17 
5 3 5 19 14 13 
5 6 7 8 9 0 
5 2 4 12 7 6 
5 9 10 17 15 0 
5 2 4 21 23 1 
5 1 16 18 22 23 
6 7 8 13 3 11 12 
5 9 10 14 13 8 
5 15 16 18 20 17 
5 22 23 21 25 24 
CELL_DATA 15
SCALARS scalar_1 double
LOOKUP_TABLE default
0.010246773464514329
0.010246773464514329
0.010246773464514329
0.010246773464514329
0.010246773464514329
0.010246773464514329
0.010246773464514329
0.010246773464514329
0.010246773464514329
0.010246773464514329
0.010246773464514329
0.010246773464514329
0.010246773464514329
0.010246773464514329
0.010246773464514329
