# vtk DataFile Version 2.0
polydata
ASCII
DATASET POLYDATA
POINTS 26 double
2.79580123643875 4.52230785586575 3.67200830348435 
3.52833731517293 4.81248238849639 3.97618079224093 
3.30825084656535 4.4237325428957 4.20958465046023 
3.52195009451744 3.6338125022275 3.11673366780775 
3.54374908091847 4.17396792180467 4.22640897486225 
3.70664256821999 3.83059624809544 2.97460191051268 
2.9167656435744 4.28829347736882 3.99006842927 
2.99785771186769 3.84911256924566 3.8472275023956 
2.83322822878196 3.86850416537403 3.29553653783242 
2.71985787912665 4.23340891007231 3.22833593290543 
2.94250354527231 4.36190665185548 2.82654237892131 
3.63657108064187 3.64186294226532 3.69312848326091 
3.37801406249671 3.73848917216591 3.95562868733069 
3.1148274645636 3.74447401699316 2.97456538506624 
3.16000791921965 4.00089151684831 2.72635149310918 
3.13472295210264 4.92810982213424 3.50293179688384 
3.34759802430372 4.98479203293969 3.59204353985599 
3.10697722536591 4.5821022158971 2.83546081490412 
3.76691940855321 4.7861124888501 3.24707910683534 
3.44556971275501 4.07960564374036 2.70790651023081 
3.43140367135578 4.49753644707704 2.7741714082111 
3.91887742005254 4.28022480181953 4.04495696270718 
4.02159588143396 4.58715416579502 3.46049656604925 
3.93420839869783 4.6178891544906 3.89858040160627 
4.05192113880794 4.0747180064147 3.38112305301792 
3.99991322673658 3.93014740971318 3.7036942598497 
POLYGONS 15 93
6 2 1 16 15 0 6 
6 5 19 20 18 22 24 
5 11 12 4 21 25 
5 3 5 24 25 11 
5 10 14 19 20 17 
5 3 5 19 14 13 
5 6 7 8 9 0 
5 2 4 12 7 6 
5 9 10 17 15 0 
5 2 4 21 23 1 
5 1 16 18 22 23 
6 7 8 13 3 11 12 
5 9 10 14 13 8 
5 15 16 18 20 17 
5 22 23 21 25 24 
CELL_DATA 15
SCALARS scalar_1 double
LOOKUP_TABLE default
0.008857393621399666
0.008857393621399666
0.008857393621399666
0.008857393621399666
0.008857393621399666
0.008857393621399666
0.008857393621399666
0.008857393621399666
0.008857393621399666
0.008857393621399666
0.008857393621399666
0.008857393621399666
0.008857393621399666
0.008857393621399666
0.008857393621399666
