# vtk DataFile Version 2.0
polydata
ASCII
DATASET POLYDATA
POINTS 26 double
2.79250821998986 4.52467573939961 3.66545485190347 
3.52501460643584 4.81488685695703 3.96957187060409 
3.30494267080415 4.42610757364827 4.20297833333748 
3.51870053418049 3.63608998966599 3.11003017506897 
3.54048891202239 4.17629995409587 4.21979517739761 
3.703427783048 3.83290875964051 2.96786752645456 
2.91345019449073 4.29067452031462 3.9834582100175 
2.99456877670074 3.85140029137194 3.84057807282385 
2.82993744572865 3.87079851616409 3.28886507017788 
2.71656041300903 4.23573003779673 3.22166316740068 
2.93923922667015 4.36424853204248 2.81981397256596 
3.63332261042938 3.64414123388724 3.6864491572973 
3.37473874810313 3.74077521309954 3.94897802996225 
3.11156659926767 3.74675783993262 2.96785930546228 
3.15675356627998 4.00319930337975 2.7196180388042 
3.13155996685798 4.93064013385592 3.49636745599431 
3.34420520388183 4.98725904256471 3.58537440760316 
3.1037418351536 4.58447566234184 2.8287264484171 
3.76370082604066 4.78848561986944 3.24031933333641 
3.44235435280498 4.08192019369032 2.70116831484448 
3.42819180114574 4.49989933169565 2.76743119733578 
3.91566262082845 4.2825734943639 4.03831860420685 
4.01839957008728 4.5895002808202 3.4537693062508 
3.93099518777658 4.62024268011095 3.89194053967557 
4.04872001413309 4.07704043190009 3.37439983676656 
3.99670480729474 3.93245368617949 3.69701340420877 
POLYGONS 15 93
6 2 1 16 15 0 6 
6 5 19 20 18 22 24 
5 11 12 4 21 25 
5 3 5 24 25 11 
5 10 14 19 20 17 
5 3 5 19 14 13 
5 6 7 8 9 0 
5 2 4 12 7 6 
5 9 10 17 15 0 
5 2 4 21 23 1 
5 1 16 18 22 23 
6 7 8 13 3 11 12 
5 9 10 14 13 8 
5 15 16 18 20 17 
5 22 23 21 25 24 
CELL_DATA 15
SCALARS scalar_1 double
LOOKUP_TABLE default
0.0076495280118568845
0.0076495280118568845
0.0076495280118568845
0.0076495280118568845
0.0076495280118568845
0.0076495280118568845
0.0076495280118568845
0.0076495280118568845
0.0076495280118568845
0.0076495280118568845
0.0076495280118568845
0.0076495280118568845
0.0076495280118568845
0.0076495280118568845
0.0076495280118568845
