# vtk DataFile Version 2.0
polydata
ASCII
DATASET POLYDATA
POINTS 26 double
2.79568031927403 4.52367313639469 3.66867521350875 
3.52816266855549 4.81391649150468 3.97274527631192 
3.3081026168249 4.42511140052693 4.20615425536044 
3.52190967256109 3.63500880925998 3.11312252967324 
3.54368946942754 4.17526728536499 4.22296492912091 
3.70666842076515 3.83185911758446 2.97093209902725 
2.91660251152143 4.28968336641596 3.9866296566561 
2.99774383893089 3.85032854911914 3.84371604014716 
2.83311121424833 3.86973214333099 3.29198333495279 
2.71972876868551 4.23468649982574 3.22477998149504 
2.9424366527225 4.36322229265045 2.82288292656633 
3.63653233938293 3.64306115378315 3.68956312036542 
3.37792614391461 3.73970170441147 3.95211548356711 
3.11476569340025 3.74568228114429 2.97094888708397 
3.15995872075053 4.00214460116919 2.72268340621805 
3.13484596149768 4.92977906551899 3.49957790259164 
3.34729267045012 4.98634319047941 3.58849460313003 
3.10696621929312 4.58347903835 2.8317903366825 
3.76693852307928 4.78748880469675 3.24336225676989 
3.4455952390534 4.08087175087898 2.70422964064652 
3.43143566129994 4.49889363665758 2.77049065484507 
3.91890279090794 4.28155517751812 4.04146725610627 
4.02165627904618 4.58848006157311 3.45684062201352 
3.9342368512621 4.61922887480858 3.8950877030286 
4.05197251519136 4.07599974489675 3.37747479280656 
3.99995059156864 3.93139881483569 3.70012592039623 
POLYGONS 15 93
6 2 1 16 15 0 6 
6 5 19 20 18 22 24 
5 11 12 4 21 25 
5 3 5 24 25 11 
5 10 14 19 20 17 
5 3 5 19 14 13 
5 6 7 8 9 0 
5 2 4 12 7 6 
5 9 10 17 15 0 
5 2 4 21 23 1 
5 1 16 18 22 23 
6 7 8 13 3 11 12 
5 9 10 14 13 8 
5 15 16 18 20 17 
5 22 23 21 25 24 
CELL_DATA 15
SCALARS scalar_1 double
LOOKUP_TABLE default
0.006598043035384374
0.006598043035384374
0.006598043035384374
0.006598043035384374
0.006598043035384374
0.006598043035384374
0.006598043035384374
0.006598043035384374
0.006598043035384374
0.006598043035384374
0.006598043035384374
0.006598043035384374
0.006598043035384374
0.006598043035384374
0.006598043035384374
