# vtk DataFile Version 2.0
polydata
ASCII
DATASET POLYDATA
POINTS 26 double
2.79993270023572 4.52217594867846 3.66963212486191 
3.53239190268277 4.81244711248856 3.97365913413649 
3.31234302301498 4.42361900357446 4.20707097439427 
3.52619352029936 3.63344465961166 3.11396757191202 
3.54796546436493 4.17374326350227 4.22387583408191 
3.71097898891439 3.8303217604655 2.97175343231512 
2.92083841617546 4.28819559153198 3.98754433779444 
3.00199924111112 3.84877195653909 3.8446014309446 
2.83736518794234 3.86818061236894 3.29285274971438 
2.72397781661253 4.23315505427377 3.22564852907512 
2.94671093612625 4.36170680277062 2.82370865978218 
3.64081708852967 3.6414976002554 3.6904254423717 
3.38219087340376 3.73814405236329 3.95299948587325 
3.11904172558367 3.74412291313253 2.97179247428572 
3.16423983273181 4.00060428471979 2.72350548785665 
3.13919776346313 4.92840596372401 3.50052636659048 
3.35146795999336 4.98492146313387 3.58936246855319 
3.11126187825589 4.58198669242344 2.83261135726092 
3.77124558464721 4.78599568563055 3.24416231730939 
3.44990522359246 4.07933623044996 2.70504804435718 
3.43574853320653 4.49739333722425 2.77130713751147 
3.92321307517461 4.28004358683729 4.04235924838593 
4.02598038861719 4.58696639810845 3.45766574041416 
3.93854837453233 4.61772118042684 3.89597810669967 
4.05629280278156 4.07446925586136 3.37830345494613 
4.00426530832947 3.92985605879014 3.70098694948175 
POLYGONS 15 93
6 2 1 16 15 0 6 
6 5 19 20 18 22 24 
5 11 12 4 21 25 
5 3 5 24 25 11 
5 10 14 19 20 17 
5 3 5 19 14 13 
5 6 7 8 9 0 
5 2 4 12 7 6 
5 9 10 17 15 0 
5 2 4 21 23 1 
5 1 16 18 22 23 
6 7 8 13 3 11 12 
5 9 10 14 13 8 
5 15 16 18 20 17 
5 22 23 21 25 24 
CELL_DATA 15
SCALARS scalar_1 double
LOOKUP_TABLE default
0.005706568971827668
0.005706568971827668
0.005706568971827668
0.005706568971827668
0.005706568971827668
0.005706568971827668
0.005706568971827668
0.005706568971827668
0.005706568971827668
0.005706568971827668
0.005706568971827668
0.005706568971827668
0.005706568971827668
0.005706568971827668
0.005706568971827668
