# vtk DataFile Version 2.0
polydata
ASCII
DATASET POLYDATA
POINTS 26 double
2.80253067514664 4.5241985480016 3.67147654521585 
3.53497101351288 4.81449316362692 3.97546851294343 
3.31493120659652 4.42564579805871 4.20888201471311 
3.52881917932521 3.6354102465155 3.11571735609379 
3.55058419518882 4.1757427174721 4.22568210356737 
3.71362730896948 3.83231025452921 2.97348323475458 
2.92342214465147 4.29022629621041 3.98935277262794 
3.00459988702308 3.85074369070002 3.84638492425065 
2.83996476656736 3.87015663721915 3.29462186111152 
2.7265731319743 4.23514807626024 3.22741689968548 
2.9493275357165 4.36371313883372 2.82544156314377 
3.64344333218422 3.64346359121103 3.69219058418639 
3.38480030252395 3.74011472605074 3.95478240607268 
3.12165981138866 3.74609262034228 2.97354038780998 
3.16686225401919 4.00258990876483 2.72523544891843 
3.14187960895693 4.93053339560749 3.50236380174289 
3.35400195487626 4.98700812380963 3.59113265514342 
3.11389760811857 4.58401407881082 2.83434055705032 
3.77389055284943 4.78802271016606 3.24587545312713 
3.45255290055572 4.08132633313368 2.70677506129234 
3.43839833400996 4.49941424048167 2.77303289894889 
3.92586046063397 4.28205360842595 4.0441501996327 
4.0286398777679 4.5889757141904 3.45940009407304 
3.94119689050465 4.61973504958038 3.89776789449478 
4.05894925950684 4.0764636915067 3.38004021868588 
4.00691681608282 3.93183974474224 3.70275134029859 
POLYGONS 15 93
6 2 1 16 15 0 6 
6 5 19 20 18 22 24 
5 11 12 4 21 25 
5 3 5 24 25 11 
5 10 14 19 20 17 
5 3 5 19 14 13 
5 6 7 8 9 0 
5 2 4 12 7 6 
5 9 10 17 15 0 
5 2 4 21 23 1 
5 1 16 18 22 23 
6 7 8 13 3 11 12 
5 9 10 14 13 8 
5 15 16 18 20 17 
5 22 23 21 25 24 
CELL_DATA 15
SCALARS scalar_1 double
LOOKUP_TABLE default
0.0049389590119215685
0.0049389590119215685
0.0049389590119215685
0.0049389590119215685
0.0049389590119215685
0.0049389590119215685
0.0049389590119215685
0.0049389590119215685
0.0049389590119215685
0.0049389590119215685
0.0049389590119215685
0.0049389590119215685
0.0049389590119215685
0.0049389590119215685
0.0049389590119215685
