# vtk DataFile Version 2.0
polydata
ASCII
DATASET POLYDATA
POINTS 26 double
2.80399011394743 4.52300250540702 3.6672354819259 
3.5364151611921 4.81331653744381 3.97119850556753 
3.31638299464371 4.42445413550095 4.20461255362187 
3.53030161633702 3.63416377266011 3.1113942137637 
3.55206206911153 4.17452727640723 4.2214087818924 
3.71512911504765 3.83108303986577 2.96914303326654 
2.92486857243511 4.28903799531177 3.98508004716278 
3.00606078086954 3.84950331599109 3.84209073731316 
2.84142484009401 3.8689197375456 3.29031486277919 
2.72803004674192 4.23392529067695 3.22310897173076 
2.95080253944046 4.36250077215936 2.82110432693077 
3.64492619109586 3.64221773336322 3.68788202947785 
3.38626960967718 3.73887286017551 3.95048809532914 
3.12313598302183 3.74484975472092 2.96921531674318 
3.1683422401428 4.00135916038078 2.72089598568863 
3.14341003068082 4.92942533740079 3.49811698475048 
3.35540836807721 4.98586578139902 3.58682956674348 
3.11538976538882 4.58282044207628 2.83000024762024 
3.77539179954691 4.78682931644441 3.24152329551231 
3.45405543887555 4.08009946859942 2.70243315329412 
3.43990279300853 4.49821480823094 2.76868996755668 
3.92736298033785 4.28084714687074 4.0398639128646 
4.03015278343295 4.58776772693294 3.45506543429388 
3.94270032492751 4.61853082293263 3.89348124288794 
4.06045942702947 4.07524262061597 3.37570763935958 
4.00842287731203 3.9306099884952 3.6984418222529 
POLYGONS 15 93
6 2 1 16 15 0 6 
6 5 19 20 18 22 24 
5 11 12 4 21 25 
5 3 5 24 25 11 
5 10 14 19 20 17 
5 3 5 19 14 13 
5 6 7 8 9 0 
5 2 4 12 7 6 
5 9 10 17 15 0 
5 2 4 21 23 1 
5 1 16 18 22 23 
6 7 8 13 3 11 12 
5 9 10 14 13 8 
5 15 16 18 20 17 
5 22 23 21 25 24 
CELL_DATA 15
SCALARS scalar_1 double
LOOKUP_TABLE default
0.004268827984862523
0.004268827984862523
0.004268827984862523
0.004268827984862523
0.004268827984862523
0.004268827984862523
0.004268827984862523
0.004268827984862523
0.004268827984862523
0.004268827984862523
0.004268827984862523
0.004268827984862523
0.004268827984862523
0.004268827984862523
0.004268827984862523
