# vtk DataFile Version 2.0
polydata
ASCII
DATASET POLYDATA
POINTS 26 double
2.80939778111452 4.52086205205628 3.66733556569446 
3.54180732387633 4.81119456063899 3.97126935031874 
3.32178254864192 4.42231691738408 4.20468558208413 
3.5357297443423 3.63197933728086 3.11142052668057 
3.55748504064403 4.17236927150423 4.22147795305851 
3.72057480063068 3.82891631249742 2.9691535405752 
2.93026558378183 4.28690384392382 3.98515229451217 
3.01147056574966 3.84732396495459 3.84214384250775 
2.84683346224597 3.86674359364897 3.29035787114188 
2.73343532479019 4.23176252816033 3.22315142256095 
2.95622427712428 4.36034858698426 2.82111819811457 
3.65035519872943 3.6400338032895 3.68791913488897 
3.39168509927423 3.73669303537615 3.95054001777831 
3.12855897032823 3.74266842276489 2.96924103934462 
3.173768418807 3.99919063943125 2.72090728341346 
3.14888343168146 4.92736701281228 3.49821122171614 
3.36076473272962 4.98377521588181 3.58687021322609 
3.12082548778701 4.58068338258809 2.83001086410231 
3.78083496515423 4.78469149728564 3.24151906891962 
3.45950044872628 4.07793405756455 2.70244182071341 
3.44534977869927 4.4960725069128 2.76869733175214 
3.93280860166342 4.27869726115513 4.03992037821421 
4.03560733842537 4.58561631213892 3.45507769650265 
3.9481467593697 4.6163834759479 3.89353652049211 
4.06591140485854 4.07308023991436 3.3757223370679 
4.01387128634149 3.9284395151086 3.69847796498862 
POLYGONS 15 93
6 2 1 16 15 0 6 
6 5 19 20 18 22 24 
5 11 12 4 21 25 
5 3 5 24 25 11 
5 10 14 19 20 17 
5 3 5 19 14 13 
5 6 7 8 9 0 
5 2 4 12 7 6 
5 9 10 17 15 0 
5 2 4 21 23 1 
5 1 16 18 22 23 
6 7 8 13 3 11 12 
5 9 10 14 13 8 
5 15 16 18 20 17 
5 22 23 21 25 24 
CELL_DATA 15
SCALARS scalar_1 double
LOOKUP_TABLE default
0.0036870239171034
0.0036870239171034
0.0036870239171034
0.0036870239171034
0.0036870239171034
0.0036870239171034
0.0036870239171034
0.0036870239171034
0.0036870239171034
0.0036870239171034
0.0036870239171034
0.0036870239171034
0.0036870239171034
0.0036870239171034
0.0036870239171034
