# vtk DataFile Version 2.0
polydata
ASCII
DATASET POLYDATA
POINTS 26 double
2.80466808648387 4.52475101959825 3.66232004456514 
3.53706501751693 4.81509927246598 3.96623117717896 
3.31704635341466 4.42620955563452 4.19964771860332 
3.531018494359 3.63583044044082 3.10634085954182 
3.55276899869636 4.1762438872358 4.21643700646902 
3.71587834027513 3.83278227165972 2.96406099327353 
2.92552591681172 4.29079896389354 3.98011205873266 
3.00674255324084 3.8511789837168 3.83708685910598 
2.84210493527389 3.87060143809668 3.2852908715012 
2.7287041201191 4.23563084241665 3.21808394597888 
2.95150712622324 4.36422544863892 2.81602805876031 
3.64564385949737 3.64388527653883 3.68285055526523 
3.386962802636 3.74054742947939 3.94548274097317 
3.1238433477501 3.74652193743664 2.96415984452976 
3.16905557699589 4.00305335113479 2.71581535203227 
3.14420842937923 4.93132469418288 3.49319136314079 
3.35599325499222 4.98770643422589 3.581806693597 
3.11612133505915 4.58457478728373 2.82491846231542 
3.77613742179919 4.78858344042525 3.2364175725626 
3.45480483164015 4.08179994403975 2.69734816173311 
3.44065530068849 4.49995972301661 2.76360299247364 
3.92811146403996 4.28257910344083 4.03486958541895 
4.03091836618579 4.5894973882703 3.44998943763313 
3.94345019009637 4.62026723681222 3.88848554047189 
4.06122066461207 4.07695085755822 3.37063550221721 
4.00917728113804 3.93230332330598 3.69340890163739 
POLYGONS 15 93
6 2 1 16 15 0 6 
6 5 19 20 18 22 24 
5 11 12 4 21 25 
5 3 5 24 25 11 
5 10 14 19 20 17 
5 3 5 19 14 13 
5 6 7 8 9 0 
5 2 4 12 7 6 
5 9 10 17 15 0 
5 2 4 21 23 1 
5 1 16 18 22 23 
6 7 8 13 3 11 12 
5 9 10 14 13 8 
5 15 16 18 20 17 
5 22 23 21 25 24 
CELL_DATA 15
SCALARS scalar_1 double
LOOKUP_TABLE default
0.0031739270974069545
0.0031739270974069545
0.0031739270974069545
0.0031739270974069545
0.0031739270974069545
0.0031739270974069545
0.0031739270974069545
0.0031739270974069545
0.0031739270974069545
0.0031739270974069545
0.0031739270974069545
0.0031739270974069545
0.0031739270974069545
0.0031739270974069545
0.0031739270974069545
