# vtk DataFile Version 2.0
polydata
ASCII
DATASET POLYDATA
POINTS 26 double
2.82096434347912 4.55511105365337 3.64720770738322 
3.55354584582704 4.8374745756025 3.95840806976105 
3.33216968423819 4.45561724283049 4.18994804304808 
3.53573179307802 3.68572764247045 3.11816611394072 
3.55905281758598 4.2135832049131 4.20776291005193 
3.71362549481258 3.87551460729917 2.98202137157635 
2.94518807155761 4.32010239728701 3.9731803108171 
3.02168407708775 3.89786854481586 3.83723636241132 
2.85814979489354 3.91601232764841 3.29104004364466 
2.74639468309368 4.27460448104802 3.22435877990212 
2.96242585180145 4.39888840819521 2.83410752466259 
3.65004700146034 3.69353206545875 3.68798858411032 
3.39660141818465 3.78858474731989 3.94507527318852 
3.13342777349347 3.79454434560236 2.97771027207979 
3.17728006580533 4.04616129745271 2.73526530839327 
3.13863692936294 4.93474271091353 3.48106578402702 
3.38356478904117 5.00028828451618 3.58497190662718 
3.12146661525845 4.61343686774397 2.84389111903579 
3.77419362738992 4.81672729114864 3.25661206308214 
3.45395561293829 4.12315636733926 2.71758195597223 
3.43931932003575 4.53142636084483 2.78376663843673 
3.92473297537561 4.31645813797617 4.03128346286421 
4.02424081631876 4.62278359322971 3.46420389634026 
3.93969741012045 4.65202366603446 3.88597814331237 
4.05516482944099 4.11689978875642 3.38458754624881 
4.00442818968652 3.97549744758869 3.69898432067113 
POLYGONS 15 93
6 2 1 16 15 0 6 
6 5 19 20 18 22 24 
5 11 12 4 21 25 
5 3 5 24 25 11 
5 10 14 19 20 17 
5 3 5 19 14 13 
5 6 7 8 9 0 
5 2 4 12 7 6 
5 9 10 17 15 0 
5 2 4 21 23 1 
5 1 16 18 22 23 
6 7 8 13 3 11 12 
5 9 10 14 13 8 
5 15 16 18 20 17 
5 22 23 21 25 24 
CELL_DATA 15
SCALARS scalar_1 double
LOOKUP_TABLE default
0.2919275682295141
0.2919275682295141
0.2919275682295141
0.2919275682295141
0.2919275682295141
0.2919275682295141
0.2919275682295141
0.2919275682295141
0.2919275682295141
0.2919275682295141
0.2919275682295141
0.2919275682295141
0.2919275682295141
0.2919275682295141
0.2919275682295141
