# vtk DataFile Version 2.0
polydata
ASCII
DATASET POLYDATA
POINTS 26 double
2.80268213810627 4.52578295283155 3.66169657147131 
3.53506839513808 4.8161448756706 3.96558722973417 
3.31505481978383 4.42724410635484 4.19900489397812 
3.52904760649411 3.63683036768965 3.10566339459761 
3.55079419290554 4.17726349207038 4.21579146045069 
3.71392067240421 3.83379547152879 2.96337190444846 
2.92353155956933 4.2918357712549 3.97946761642446 
3.00475765182442 3.85218248514494 3.83642829848295 
2.84011971575244 3.87160734531351 3.28462467536867 
2.72671669364003 4.23664615510655 3.21741733865213 
2.94953195884131 4.36524832069285 2.81534117376449 
3.64367314486657 3.6448854988499 3.68218164037599 
3.38498261081526 3.74155034205068 3.9448237952068 
3.12186875589638 3.7475241318025 2.96348152682593 
3.16708350974119 4.00406458051497 2.71512682518372 
3.1422711336401 4.93241702064892 3.49256391571021 
3.3539708186359 4.98877522366209 3.58114051100548 
3.11415717441423 4.5856096424035 2.82422941634877 
3.77417852539895 4.78961787626531 3.23571902838929 
3.45284734765508 4.08281368377147 2.69665792400578 
3.43869919322107 4.50099074025704 2.76291192778138 
3.92615341680966 4.28360476291495 4.03421508868002 
4.02896730049031 4.59052200949441 3.44930281723639 
3.94149279869356 4.62129457366306 3.8878305186819 
4.05926774329665 4.07796754782766 3.36995048159735 
4.00722152122741 3.9333140269638 3.69273950771035 
POLYGONS 15 93
6 2 1 16 15 0 6 
6 5 19 20 18 22 24 
5 11 12 4 21 25 
5 3 5 24 25 11 
5 10 14 19 20 17 
5 3 5 19 14 13 
5 6 7 8 9 0 
5 2 4 12 7 6 
5 9 10 17 15 0 
5 2 4 21 23 1 
5 1 16 18 22 23 
6 7 8 13 3 11 12 
5 9 10 14 13 8 
5 15 16 18 20 17 
5 22 23 21 25 24 
CELL_DATA 15
SCALARS scalar_1 double
LOOKUP_TABLE default
0.0027440599900009927
0.0027440599900009927
0.0027440599900009927
0.0027440599900009927
0.0027440599900009927
0.0027440599900009927
0.0027440599900009927
0.0027440599900009927
0.0027440599900009927
0.0027440599900009927
0.0027440599900009927
0.0027440599900009927
0.0027440599900009927
0.0027440599900009927
0.0027440599900009927
