# vtk DataFile Version 2.0
polydata
ASCII
DATASET POLYDATA
POINTS 26 double
2.80500527139194 4.52642670191976 3.66442262666986 
3.53738151446339 4.81679919457284 3.96829590095948 
3.3173730611664 4.4278895529246 4.2017142937117 
3.53138456749938 3.63744459001718 3.10834335340474 
3.55312866590121 4.1778942655669 4.21849845460758 
3.71626895187251 3.83442094237344 2.96604178629189 
2.92584794662293 4.29248321028837 3.98217634155298 
3.00708218969657 3.85280042652969 3.83912462050296 
2.84244356999551 3.87222727451937 3.28731427084466 
2.72903831880087 4.23727530771542 3.22010625549764 
2.95186430729604 4.36588398131204 2.81801202903998 
3.6460106831188 3.64550005573223 3.68486900203409 
3.38731236625912 3.74216732958241 3.94751979248106 
3.12420174961576 3.74814064288139 2.96616054316626 
3.16941885214242 4.00468941605827 2.7177963150914 
3.14463562143439 4.93311234863969 3.49528663160388 
3.35626079729123 4.98944999905195 3.58382923569785 
3.11649827831039 4.58625471777891 2.82689828745183 
3.77652440017494 4.79026233700197 3.23837878072676 
3.45519478745355 4.08344044622937 2.6993259077651 
3.44104782003789 4.50163242654549 2.76557897929881 
3.92850160148617 4.28424047009826 4.03691436729996 
4.03132116686868 4.59115715870434 3.45197373790153 
3.94384153172922 4.62193226860031 3.89052895070418 
4.06161992400621 4.07859567336376 3.37262295288707 
4.00957133959966 3.93393686479241 3.69542609334728 
POLYGONS 15 93
6 2 1 16 15 0 6 
6 5 19 20 18 22 24 
5 11 12 4 21 25 
5 3 5 24 25 11 
5 10 14 19 20 17 
5 3 5 19 14 13 
5 6 7 8 9 0 
5 2 4 12 7 6 
5 9 10 17 15 0 
5 2 4 21 23 1 
5 1 16 18 22 23 
6 7 8 13 3 11 12 
5 9 10 14 13 8 
5 15 16 18 20 17 
5 22 23 21 25 24 
CELL_DATA 15
SCALARS scalar_1 double
LOOKUP_TABLE default
0.002362184081384396
0.002362184081384396
0.002362184081384396
0.002362184081384396
0.002362184081384396
0.002362184081384396
0.002362184081384396
0.002362184081384396
0.002362184081384396
0.002362184081384396
0.002362184081384396
0.002362184081384396
0.002362184081384396
0.002362184081384396
0.002362184081384396
