# vtk DataFile Version 2.0
polydata
ASCII
DATASET POLYDATA
POINTS 26 double
2.81776142368817 4.55184419638962 3.64517170616289 
3.55057917258877 4.83464202479653 3.95618604578331 
3.32921835696996 4.45237761178698 4.18787608289046 
3.5332624524043 3.68141405942896 3.11486176228417 
3.55652300552897 4.20996632069418 4.20565897362364 
3.71147522823379 3.87153735369728 2.9784314295443 
2.94186642567753 4.31681472714629 3.97086943301516 
3.01857556205599 3.89377825514368 3.8346005239791 
2.85494250882239 3.91198360937144 3.28804088409041 
2.74309433584502 4.27092710999405 3.22132705217442 
2.95947594892745 4.39544306240305 2.83042061115887 
3.64760857618952 3.68923667868523 3.6851386168183 
3.39389134462617 3.78437804990529 3.94251449869971 
3.13057794873315 3.79035104426136 2.97425586140696 
3.17449563204044 4.04221334776638 2.73149201596708 
3.13639531549187 4.9326522394444 3.47885029283414 
3.38012028349273 4.99786408813424 3.58219423374448 
3.11879013093101 4.61025729183162 2.84017038597984 
3.77203654202286 4.81363877036482 3.25303232092061 
3.45165378828598 4.11930790533169 2.71378033271892 
3.43703617452364 4.52809686280121 2.77999216297366 
3.92272363281339 4.31302580196351 4.02891114762678 
4.02236997534673 4.61942310685234 3.46093259936117 
3.93770712547473 4.64874613552086 3.8835178115696 
4.05327766013236 4.113114983573 3.38130583033545 
4.00248817071803 3.97155310831551 3.69610760353038 
POLYGONS 15 93
6 2 1 16 15 0 6 
6 5 19 20 18 22 24 
5 11 12 4 21 25 
5 3 5 24 25 11 
5 10 14 19 20 17 
5 3 5 19 14 13 
5 6 7 8 9 0 
5 2 4 12 7 6 
5 9 10 17 15 0 
5 2 4 21 23 1 
5 1 16 18 22 23 
6 7 8 13 3 11 12 
5 9 10 14 13 8 
5 15 16 18 20 17 
5 22 23 21 25 24 
CELL_DATA 15
SCALARS scalar_1 double
LOOKUP_TABLE default
0.27473153756195257
0.27473153756195257
0.27473153756195257
0.27473153756195257
0.27473153756195257
0.27473153756195257
0.27473153756195257
0.27473153756195257
0.27473153756195257
0.27473153756195257
0.27473153756195257
0.27473153756195257
0.27473153756195257
0.27473153756195257
0.27473153756195257
