# vtk DataFile Version 2.0
polydata
ASCII
DATASET POLYDATA
POINTS 26 double
2.81379283692122 4.55841689497521 3.64502777497422 
3.5468243031967 4.84165039570306 3.95583072616146 
3.32548302469273 4.45898036037698 4.18766738247482 
3.53001625891822 3.68693537435028 3.1134268948313 
3.55321396470342 4.21618708285123 4.20541566160832 
3.70855824369555 3.87740429666217 2.97670347884584 
2.93777132980809 4.32337542671867 3.97043118828973 
3.01469795119168 3.89951781252597 3.83383041813765 
2.85097108741946 3.91778638363948 3.2869158855842 
2.73903044927419 4.27708348349818 3.22016973997592 
2.95576623703632 4.40183245335772 2.82860907779327 
3.64439092606314 3.69477508075062 3.68414669417495 
3.39039989991277 3.79000540478117 3.94181350592525 
3.12696455212173 3.79599169621156 2.9726779792171 
3.17094948037305 4.04810387610545 2.72959459526944 
3.13341293937962 4.94043022378671 3.47852679500272 
3.37587736335926 5.00529197441426 3.5812819790704 
3.11535734208144 4.61691807499924 2.83832354679537 
3.7691143200283 4.82038307942166 3.25130177459045 
3.44859477075327 4.12529779256452 2.71185249375366 
3.43399698289346 4.53460763049896 2.77808909844225 
3.91993801747147 4.31943149088717 4.0283971730523 
4.01972876476287 4.62589560851263 3.45951075224544 
3.93494122413069 4.65530177040649 3.88291890286269 
4.05061782777449 4.11916916327652 3.37987616872588 
3.99977291760967 3.97744558383671 3.6950892924795 
POLYGONS 15 93
6 2 1 16 15 0 6 
6 5 19 20 18 22 24 
5 11 12 4 21 25 
5 3 5 24 25 11 
5 10 14 19 20 17 
5 3 5 19 14 13 
5 6 7 8 9 0 
5 2 4 12 7 6 
5 9 10 17 15 0 
5 2 4 21 23 1 
5 1 16 18 22 23 
6 7 8 13 3 11 12 
5 9 10 14 13 8 
5 15 16 18 20 17 
5 22 23 21 25 24 
CELL_DATA 15
SCALARS scalar_1 double
LOOKUP_TABLE default
0.2576784350729378
0.2576784350729378
0.2576784350729378
0.2576784350729378
0.2576784350729378
0.2576784350729378
0.2576784350729378
0.2576784350729378
0.2576784350729378
0.2576784350729378
0.2576784350729378
0.2576784350729378
0.2576784350729378
0.2576784350729378
0.2576784350729378
