# vtk DataFile Version 2.0
polydata
ASCII
DATASET POLYDATA
POINTS 26 double
2.8160062006716 4.54977608843719 3.65258883254592 
3.54922700092469 4.83344522727247 3.96315977907087 
3.32791086042984 4.45037207906754 4.19513747065814 
3.53294374452135 3.67723811338587 3.11967584808769 
3.55607651423022 4.20718944199282 4.21284853314339 
3.71182188600712 3.86805906464058 2.98265392138993 
2.93985181364964 4.31473048812305 3.97768099038509 
3.01700167340458 3.89003296258263 3.84074108380554 
2.85318492110634 3.90836568097402 3.29347657229438 
2.74115131456949 4.26801784990648 3.2266977498517 
2.95824306809087 4.39299914495568 2.83448681387441 
3.64734515327387 3.68509440132634 3.69083045391287 
3.39307997989504 3.78041269984327 3.94878818689045 
3.12953674863061 3.78641169906536 2.9787894492437 
3.17358979245442 4.03877445425169 2.73538809460808 
3.1366314444367 4.93301945770366 3.48590990591943 
3.37778247225763 4.99751696189978 3.58805273710837 
3.11811427914148 4.60836257054389 2.84416452332785 
3.77237284992053 4.81190692692845 3.25723839576255 
3.45172567806867 4.1160681323832 2.7176138875718 
3.43714743641843 4.52590302631038 2.78387259733984 
3.92332341898075 4.31061966842365 4.03555911397696 
4.02326344896595 4.617148403684 3.46575584620417 
3.93834620531017 4.64663698890298 3.88999905515721 
4.05413270229873 4.11000757809193 3.38611557630603 
4.0032302455268 3.96812015681205 3.70174657630233 
POLYGONS 15 93
6 2 1 16 15 0 6 
6 5 19 20 18 22 24 
5 11 12 4 21 25 
5 3 5 24 25 11 
5 10 14 19 20 17 
5 3 5 19 14 13 
5 6 7 8 9 0 
5 2 4 12 7 6 
5 9 10 17 15 0 
5 2 4 21 23 1 
5 1 16 18 22 23 
6 7 8 13 3 11 12 
5 9 10 14 13 8 
5 15 16 18 20 17 
5 22 23 21 25 24 
CELL_DATA 15
SCALARS scalar_1 double
LOOKUP_TABLE default
0.24075386373909047
0.24075386373909047
0.24075386373909047
0.24075386373909047
0.24075386373909047
0.24075386373909047
0.24075386373909047
0.24075386373909047
0.24075386373909047
0.24075386373909047
0.24075386373909047
0.24075386373909047
0.24075386373909047
0.24075386373909047
0.24075386373909047
