# vtk DataFile Version 2.0
polydata
ASCII
DATASET POLYDATA
POINTS 26 double
2.8110591821635 4.54764125271334 3.65668879791004 
3.54444468350337 4.83174625722016 3.96700307860323 
3.32315933187117 4.44827194235137 4.19911752332412 
3.52870119737041 3.67404222429388 3.1224417509515 
3.55176677054892 4.20469331848282 4.21678858185019 
3.70792468991549 3.8652237976115 2.98511428092564 
2.93476528250813 4.31259961453665 3.98145108087008 
3.01214303962065 3.88704423310163 3.84416478768999 
2.84824045105921 3.90544277039469 3.2965586201322 
2.73611361594747 4.26545306985015 3.22974758803143 
2.95356429313618 4.39066824289743 2.83688650661631 
3.64312756557735 3.68191392577285 3.6940193630966 
3.38858640933257 3.7773202658538 3.95227005344584 
3.12495057053082 3.78333218664584 2.98142446939752 
3.16907318372498 4.03595047895397 2.73770368449724 
3.13271370668384 4.93214439228696 3.48983248677294 
3.37249038758461 4.99626059636728 3.59133483920744 
3.1137182204771 4.60631409812284 2.8465259186388 
3.76846882671816 4.80992977155053 3.25966953759184 
3.44770329904369 4.1133438109354 2.71989531126356 
3.43314552901218 4.5237055392101 2.78617389654174 
3.91953823852817 4.30830972335596 4.0392263540085 
4.01963265708031 4.61489882374251 3.46849710046283 
3.93458108841699 4.64446997859434 3.89358738583335 
4.05047991370554 4.10735000977855 3.38885356699074 
3.99951760007621 3.96529616470602 3.70490926188257 
POLYGONS 15 93
6 2 1 16 15 0 6 
6 5 19 20 18 22 24 
5 11 12 4 21 25 
5 3 5 24 25 11 
5 10 14 19 20 17 
5 3 5 19 14 13 
5 6 7 8 9 0 
5 2 4 12 7 6 
5 9 10 17 15 0 
5 2 4 21 23 1 
5 1 16 18 22 23 
6 7 8 13 3 11 12 
5 9 10 14 13 8 
5 15 16 18 20 17 
5 22 23 21 25 24 
CELL_DATA 15
SCALARS scalar_1 double
LOOKUP_TABLE default
0.22397242319696473
0.22397242319696473
0.22397242319696473
0.22397242319696473
0.22397242319696473
0.22397242319696473
0.22397242319696473
0.22397242319696473
0.22397242319696473
0.22397242319696473
0.22397242319696473
0.22397242319696473
0.22397242319696473
0.22397242319696473
0.22397242319696473
