# vtk DataFile Version 2.0
polydata
ASCII
DATASET POLYDATA
POINTS 26 double
2.81466033251707 4.54944033987382 3.65248296397707 
3.5481846647198 4.83398407326438 3.96251586874562 
3.3269358437484 4.45010877150441 4.19476329083276 
3.5329973056828 3.6747774209067 3.11687885274735 
3.55599189505503 4.2061285440811 4.21239159299568 
3.71257499658709 3.86632818408756 2.97923886677208 
2.93821946404599 4.31441126710967 3.97689606419285 
3.01583082123261 3.88798025313421 3.83925589870106 
2.8518474999497 3.906445752748 3.29131499439019 
2.73962718737946 4.26681539430949 3.22447191041169 
2.95743973565752 4.39226548290116 2.83096192980986 
3.64744640953467 3.68266378762883 3.68886926193822 
3.39262750948034 3.77815758143577 3.94741418159551 
3.12891624095542 3.7841815652679 2.97573711662182 
3.17310957985471 4.03705907620392 2.73169611225379 
3.13737030729018 4.93523631233271 3.48545019144631 
3.37570778881559 4.99895363453972 3.58628272906703 
3.11787997234026 4.60820032982542 2.84056144964724 
3.7731109495859 4.81188165084313 3.25375050098543 
3.45223740212646 4.114552417838 2.7138518147956 
3.43770048068718 4.5254434904294 2.78014761108227 
3.92429019264554 4.30993242625888 4.03455473210173 
4.02454411409569 4.61657815542755 3.46288958501496 
3.93935315323011 4.64623212947358 3.88883952995572 
4.0553678570757 4.10862766856543 3.38324559114947 
4.00434333645328 3.96640471113421 3.69973329769916 
POLYGONS 15 93
6 2 1 16 15 0 6 
6 5 19 20 18 22 24 
5 11 12 4 21 25 
5 3 5 24 25 11 
5 10 14 19 20 17 
5 3 5 19 14 13 
5 6 7 8 9 0 
5 2 4 12 7 6 
5 9 10 17 15 0 
5 2 4 21 23 1 
5 1 16 18 22 23 
6 7 8 13 3 11 12 
5 9 10 14 13 8 
5 15 16 18 20 17 
5 22 23 21 25 24 
CELL_DATA 15
SCALARS scalar_1 double
LOOKUP_TABLE default
0.20733592243257545
0.20733592243257545
0.20733592243257545
0.20733592243257545
0.20733592243257545
0.20733592243257545
0.20733592243257545
0.20733592243257545
0.20733592243257545
0.20733592243257545
0.20733592243257545
0.20733592243257545
0.20733592243257545
0.20733592243257545
0.20733592243257545
