# vtk DataFile Version 2.0
polydata
ASCII
DATASET POLYDATA
POINTS 116 double
3.21176906629653 1.69662947443293 5.01143319193414 
2.71119543316722 1.05683233449895 4.75246659454295 
3.13015245931875 1.17666948162702 4.79778820091206 
3.63554786879604 2.18781394648331 2.02684278173925 
3.82573027298538 2.14026128199208 2.13175760096964 
3.50890282302193 1.00090914187416 2.73724201683809 
3.451033413622 2.36904153506059 2.44082374666409 
2.26006978830546 1.72562315186702 4.13445902063149 
2.79575960458807 1.60925128593387 3.83054637847573 
2.60778751929259 0.96173559812989 4.37430099480533 
2.93635250603218 1.30195365966336 3.86808672655063 
2.17878536914163 1.55010167699765 4.30983990121604 
2.73315258128808 0.93539992796041 4.25197231523002 
0.82747916684196 1.90821227268208 3.70523364285625 
0.37790981798641 2.089619000871 3.64188776218832 
0.19015309518207 2.43923488121023 3.8841280597879 
5.86092196987728 5.54514266785938 5.62500746159051 
6.04927384536897 5.47014053528318 5.98772884987777 
5.92603472958117 4.84010088736804 6.0789463703771 
6.08934087666326 5.13648858276728 6.18350077817533 
5.50682383966404 4.85247950007901 5.50411155403658 
5.51690158077372 5.14612456298638 5.33009509011829 
5.23762155869413 5.26634749126848 5.29001404140236 
5.16713609987102 5.84937814063788 5.54366004444474 
0.16274495314292 2.73614394278493 3.66827693042093 
4.57373367771135 2.40451333281642 1.82189851412571 
4.50887465145991 0.70385364110083 2.67592226845199 
4.70059385198041 1.15190663807374 3.55747677242052 
4.53293198501492 3.03174276062349 1.53159809263967 
4.47349523884875 2.49731366075909 1.53176582296823 
4.01376926117626 3.27743996817509 1.39254345043605 
3.62713715810242 2.88730230788188 1.34002121183461 
3.73222371947329 2.53414125718398 1.4366373462596 
3.42940134244821 0.78946712841838 3.06489414887605 
3.37202321946936 1.10358067257117 3.22398148345278 
2.3108523098053 2.23269494203793 4.84747025597202 
4.95335200740729 5.89081535929222 6.04500941251191 
4.86344711991487 5.81604942436165 5.80218739828046 
4.90900870159699 5.55130297227624 6.36939251331119 
4.74762474794378 5.1886192450014 6.12814922649373 
5.43203091979759 5.32051681944176 6.75269275875906 
1.2030808190845 2.94410825996167 3.23315588224566 
0.74942801419116 3.20799748150792 3.70494762218675 
0.8208312824228 3.07981587629489 3.27638033313709 
3.32332172077889 3.08282428870395 2.07306856421097 
3.75688599130092 3.49344018877807 2.10046873034826 
3.34002962732808 2.77826831591949 2.44511856374457 
3.82935511056964 3.41475253958079 1.53894898817644 
3.48015058019592 3.0888317211441 1.49748555282349 
0.90213948834864 2.13750160554541 3.2137501261446 
1.2339829867063 2.39157145062559 3.19243877174349 
3.42560578762384 1.30324079052227 2.96525466667861 
5.78075321662406 5.78146667383407 6.23934260727534 
2.3945543335561 2.30159530921879 4.5132557198415 
1.13427319838771 1.99067326566549 4.00680077462222 
1.61657299454674 2.34825519267082 3.76338181817906 
4.72372289980855 5.34061508221083 5.78213997156768 
5.03428858134196 5.08685003269138 5.40783953447776 
3.60107943576601 2.33012374325443 2.53558948973755 
4.42714709975703 1.79159917826591 3.11715144653317 
0.34086825419162 2.57604459442569 4.10331921216955 
0.31426358119228 2.92217675427104 3.85459249456259 
2.89364893471147 2.41324385576141 4.42669088491867 
5.66565738650458 4.7183254153944 6.56607887557003 
5.45351191213621 4.73643170204222 6.5786886791916 
4.69256745729906 1.56632507627354 3.45175691321672 
4.83139281530932 1.32684436714443 3.31527365629798 
0.46860845513915 2.2543240207121 3.24138412149352 
5.04937754335835 4.78620105934445 6.15111395118242 
5.21236608102129 4.80058557309787 5.56450882905621 
4.19196109991759 1.41117583987595 2.48405965432347 
5.46366601966883 5.97269538935342 5.70244863714847 
5.42293120674052 6.02008168642094 5.94376481269867 
5.91017727352204 5.13012860382223 6.64765558227642 
5.69784707991155 5.42285523307173 6.698364431156 
4.57659462427886 1.43970775343821 3.64806213143446 
3.93728927625471 3.41905801544582 2.30107060829666 
0.35551037254327 2.68084965310131 3.27323812192065 
4.78156102136561 1.24251930592888 2.87049474705842 
4.58758620775379 2.74761688019894 2.31008080708328 
4.59090551397667 3.12323891412262 2.18150667161112 
5.52688795644214 4.87590082290916 6.74708243937548 
5.69846083326592 4.83350450333408 6.71286980600916 
4.73472659936651 2.64055100684293 2.02823283036038 
4.73627246819234 3.02198663015601 1.92292889067188 
4.57868239382033 1.50937796648829 2.70763445905708 
3.11361639916108 2.35975099799668 4.71435059353918 
3.16042882070533 2.06739302522597 4.04966520913592 
3.28138877239893 1.097377731973 4.31875535963149 
3.34880229604847 1.29076447129015 4.14430052380601 
4.06030262406522 1.50226862368692 3.68816044174237 
3.73919044243637 1.1260286134039 3.6924417537313 
2.35472649366286 1.76568874253193 5.08428430472365 
2.18341374939404 1.90428329163612 4.90530876820224 
2.75087470229088 2.00730392166093 5.20210052542923 
2.74075717257411 2.21997230260308 5.11122127300757 
1.56750701902451 3.04100958892543 3.79991311148795 
3.44236809772606 2.00990278536787 4.62163226131629 
3.46708002675273 1.87644478797524 4.28396580323431 
1.5123548292012 2.70843539653421 4.35760576774621 
1.71156770680928 2.66208788555106 3.95679440673618 
0.9377918490115 2.46342402006747 4.4429783922806 
1.09537145321646 2.31644732140595 4.42148341640016 
1.38047963384269 2.87315006583207 4.36839908145672 
1.35429350044481 3.13956638235919 4.05440698434904 
3.78660993767857 2.59599542498254 2.68233458454542 
3.63615397374286 2.88273005203957 2.66526907767859 
4.18104980244196 0.4198617328684 2.88775447198592 
3.7720435642792 1.69861482242388 2.94762952243323 
3.96315410405118 1.80653717754506 3.19613840268296 
4.37586598384213 0.6980906383318 3.51487565123667 
4.31017002126806 0.43448636916573 2.9494549619759 
3.63515155366936 0.58683564208071 3.20586033045476 
3.84129608951562 0.79014382555228 3.65427977440029 
4.05366104289097 0.97128470944626 2.42042100695388 
4.24951435735224 0.70863690013777 2.51310414038693 
POLYGONS 68 416
5 1 2 0 94 92 
5 5 51 108 70 114 
4 3 4 58 6 
6 7 8 10 12 9 11 
7 15 14 13 54 102 101 60 
6 17 16 21 20 18 19 
5 16 21 22 23 71 
4 24 15 60 61 
4 13 14 67 49 
6 4 25 83 79 105 58 
5 70 85 59 109 108 
5 59 65 75 90 109 
6 27 66 78 26 111 110 
5 25 29 28 84 83 
5 32 29 28 30 31 
6 26 78 85 70 114 115 
6 27 75 90 91 113 110 
5 33 34 91 113 112 
6 5 33 112 107 115 114 
4 65 66 27 75 
4 107 111 26 115 
4 33 34 51 5 
6 34 51 108 109 90 91 
5 65 66 78 85 59 
6 20 18 63 64 68 69 
5 62 86 97 98 87 
5 35 53 62 86 95 
5 9 11 93 92 1 
5 1 9 12 88 2 
4 10 12 88 89 
5 8 10 89 98 87 
5 94 95 86 97 0 
5 7 8 87 62 53 
5 7 11 93 35 53 
6 0 2 88 89 98 97 
5 92 93 35 95 94 
5 39 38 36 37 56 
5 24 15 14 67 77 
6 40 38 39 68 64 81 
5 17 16 71 72 52 
6 40 38 36 72 52 74 
5 37 36 72 71 23 
5 18 19 73 82 63 
5 56 57 69 68 39 
5 17 19 73 74 52 
5 37 23 22 57 56 
5 20 21 22 57 69 
5 40 74 73 82 81 
5 41 50 55 100 96 
5 43 41 96 104 42 
5 44 45 76 106 46 
6 60 61 42 104 103 101 
4 45 47 48 44 
5 25 29 32 3 4 
5 49 50 55 54 13 
7 6 3 32 31 48 44 46 
7 30 28 84 80 76 45 47 
5 6 46 106 105 58 
4 48 47 30 31 
5 42 43 77 24 61 
6 43 41 50 49 67 77 
4 101 102 99 103 
5 54 55 100 99 102 
5 79 80 76 106 105 
4 63 64 81 82 
4 79 80 84 83 
5 99 100 96 104 103 
5 110 111 107 112 113 
