# vtk DataFile Version 2.0
polydata
ASCII
DATASET POLYDATA
POINTS 1037 double
4.65547944230617 2.28690698578732 4.58851354801069 
4.92470771299586 1.69470993722584 3.80811009716924 
5.01976322583342 2.00170687918089 4.62275760743976 
5.53665412728095 2.77963880023869 3.53188529034672 
5.52269282346507 2.31222434814316 4.58276014245294 
4.88490028872583 1.6937974149811 4.31209274527792 
5.10483476922918 1.6236604718484 3.95365607624884 
5.08529684321552 2.09582158007194 3.4125755535576 
5.42288859542683 2.14383154303188 3.4453897146245 
2.94110826514626 3.44564610586418 4.93764683684939 
3.26800837738736 3.58751983218111 4.76536797152845 
0.600832853975844 4.69673829947797 5.33975355549321 
5.38377136856165 4.45943139134909 5.70675932189809 
1.77648294516619 0.945576016750069 2.71228474547561 
0.662092105883623 0.366253068962958 2.69452401629755 
1.19900109689418 1.41044011815494 2.16667395064183 
1.46568423837261 0.358630803325593 2.41037615063664 
0.398843626564427 1.1593724167577 2.43809881908538 
0.535889145237781 0.703872319637317 2.2903489802591 
1.75632498653202 0.640044213176204 2.79611123147145 
1.3726699915502 1.27708739344576 3.09399787427983 
1.40890822447936 0.603507149882845 3.26512543335467 
1.23514186230258 1.000207600037 3.34943556057899 
1.61996930820467 1.01336563691325 2.23941827875794 
2.86950158112574 4.53618214963891 3.03599887981135 
2.73251359157755 4.79090800930292 2.65252629425326 
3.76437870304065 5.26045363769307 3.48628856556617 
3.04161944295312 4.58309064051206 3.40079680176078 
2.56532781932924 5.18000256651963 2.56405114442845 
3.15606986225074 4.71845072299207 2.76649707060531 
2.58405335472945 4.6661292603283 2.92784395928087 
3.33481633826376 5.38702756111101 3.84807295334777 
2.36007704404773 4.91905282593982 3.13122940177628 
3.87111788073302 5.56809983206704 1.07627538874673 
3.94691534397224 5.18465924055799 2.23626490135966 
3.96718185095524 5.09569327597564 1.55449653797822 
3.5997438023572 5.83685536739469 1.27000735557407 
0.697767285634278 1.20487488250326 4.05483027151799 
0.548118095929223 0.886095717532458 4.39577592147457 
0.784716966256819 0.794609585890588 4.61241539066339 
1.37682230614448 0.261773277283674 4.3762935182627 
1.07233042868804 0.198541944342111 4.45933540548304 
0.462532128654678 0.304228733706555 3.87213098597277 
0.473798339812711 0.558285495130239 4.34138913754954 
0.755418296011835 0.508845428829549 4.59144180763766 
1.01567973339861 1.57190694472276 4.17381667972622 
2.97853570578387 1.4342739769558 3.4747380681836 
3.14205836404495 1.27058472626264 3.18951323483478 
2.82489953044018 1.96019009493485 3.3965630905934 
0.727275612614231 0.349727002220486 5.02219524809525 
0.760553646755538 0.856974260561971 5.23415861249521 
5.50447737572535 0.998617941408211 5.35294004807319 
5.48890089532507 1.21032097426783 4.99410473269849 
5.27841731882846 4.56510084089375 4.45475380384719 
5.69141673895231 3.78356033383546 4.04654888049058 
4.72739993831689 4.93715628110186 0.526236694404657 
4.14685719172125 4.79165869492449 0.494325733842224 
1.41390237186428 2.33898741492345 2.40226468732073 
0.46561140774843 2.66390252524036 2.12677475112846 
0.631946911099301 2.63598866659061 1.74384382498697 
0.690055761738345 2.67845754187001 2.36451976408399 
1.17826855339201 2.63119849864395 1.75330123932738 
1.47303906303246 1.8052246848844 1.87691880100416 
0.632997488199809 2.19943420701985 1.4267153003014 
2.98227158371961 2.32921072809256 1.42976486555612 
3.46755567116869 3.23592076995408 1.35534239058184 
4.35370613129731 2.79093895869032 1.33987701893043 
3.1626492321051 2.16868668949911 1.99647214697593 
4.40174121014567 2.430220816527 1.56918787921271 
4.29079851736005 2.71305397622255 1.18630997103413 
3.15624547023359 3.04788398678338 1.80164013464913 
2.92029582292344 2.52421569845286 1.74817515520474 
3.22060406441877 1.99076434509023 1.69751720986122 
5.80869169976886 2.899971867566 3.20904051486674 
5.01623547511663 3.25580552767823 3.13906952367177 
4.90021883926272 3.63067760661303 3.27970305322815 
0.16317290610631 3.64830423863834 3.94078799518582 
5.05557203348104 3.89204364659332 3.07095353357911 
0.675421041907668 3.10874579162499 0.661970986277881 
0.500184345950461 2.77929824833626 5.76358179008886 
1.08030692228743 2.07213329940212 5.81274141737308 
1.59974912063454 4.12588993026054 1.00417673576774 
2.13415774383941 4.51800120176143 1.08832062587258 
1.92591218069243 5.24873473811877 0.360533997757289 
2.07212792057398 4.98723770934498 5.89281836960111 
1.74560838906502 5.20519829264132 5.99750609640039 
2.04161577346244 4.26715400768135 1.15279657408891 
2.16177346446713 4.8503843763223 1.85390229905404 
1.46691608884169 4.14361013323538 1.67873029022873 
1.77594667692529 4.2357220189486 1.91631342680904 
1.87001369777794 5.03253524016692 1.99120736423932 
2.24114605678473 4.96275228631087 1.53426851182621 
1.55990571390508 4.71167115673173 2.07295967279893 
1.11657508331269 4.69306183039561 1.81313050078519 
1.98308232925397 4.26604403180973 1.82727232475485 
1.46248633164089 4.07981934405249 1.12531042834798 
1.16623968958962 4.3623929889314 0.898699185121971 
1.74455686523162 5.37918939742962 1.68315231855443 
2.99864622704912 2.24815819383754 3.76409316778508 
2.08634830968435 1.2607127796547 4.13616955763568 
2.25101665913253 1.59305644412965 4.58804263487358 
2.07419558166773 2.01143284725863 4.53837189403787 
2.4213793120973 2.35212882709032 4.43702112971431 
5.39244665960801 0.692985424074335 1.59555658063376 
5.19465128599526 5.755665832568 1.95790263407971 
5.2317051954683 0.174196449394761 2.04364846105657 
5.49428185155908 0.544899305946937 1.63847322216367 
5.05724585651721 5.34517263335632 1.2383171230782 
4.62421293358513 0.755675203983523 1.46416916743305 
3.8544764799621 2.10577429445624 4.96045199599952 
4.87379495449482 1.36066449320731 4.58144928504117 
3.71343859607774 1.72294949213828 5.09742120482953 
3.77695383280737 1.2899355613302 4.86305226910511 
3.20014299971523 0.243703072233079 3.47526731787392 
0.716822580668023 4.15842648165619 0.811811577140921 
3.36851009569416 3.40440710027084 0.950484682384222 
3.10832644356122 3.56005557860011 0.891768202862022 
3.85902643383001 3.09338991189673 0.370443488304617 
3.50426669520947 4.49790247434306 4.54071454355953 
2.13705147788533 0.89734818501979 1.54836234741039 
2.63193283670419 5.54361191933429 1.35320998061496 
2.62301633086707 5.07692568396236 1.5096146503711 
2.03320081742673 5.71543522608575 0.572337448167682 
5.89781538324844 5.2766595068149 1.74261447199292 
3.18911855313588 0.316981972610191 1.11038636548968 
3.40728067984022 0.407151313099426 1.13978334031634 
0.902199935276587 3.25188582735982 2.704731508385 
0.785524406951439 3.21249148645624 3.11064320502998 
5.76132117338472 2.67673803292505 2.32493170459732 
4.82756900489113 2.62527607144377 5.80318413775023 
4.40065093217126 2.87953846436143 5.08170278695319 
4.69480075002721 3.11996418568963 5.32544057945594 
5.15455901962099 2.52595855564641 5.83835943551133 
5.40397928560442 3.0697356077993 0.994262901554586 
4.9840382282046 4.59588411588498 1.3198072625252 
5.78932101352137 3.52796975689879 1.54551242347645 
4.97128499738169 4.58737500159941 0.941485407270544 
5.09190849172497 4.69975658441901 1.18165278295516 
4.8574720071304 3.13569239158631 1.01628157477618 
5.87356577648227 3.6862099720422 1.37362799438116 
5.52104724670252 3.12228873961386 1.40304527404122 
4.7788775928311 3.54853612855142 0.699220328048055 
5.04661973731783 3.54038345918431 1.75703996965298 
4.66766084987198 3.51125670964713 1.40291722430159 
5.3404566675996 3.85795639837377 1.81391515954571 
5.31011761977524 4.37726001802706 1.63197519025078 
2.03296699168959 1.724342330149 1.54652391485067 
1.81199237400337 1.50163726208221 1.10021718443049 
1.89911266660816 1.73862287860989 1.84637520965483 
1.7946009875352 1.74562659548216 1.24751135538335 
1.63146396770544 2.32174538823863 2.83450477130304 
4.96151666213632 0.554893910275814 3.93317014211124 
5.35181319624104 0.987636822472053 4.11390757931115 
4.684127236623 1.37762797985853 3.41303314143022 
5.0880071467356 1.0264697210988 4.48752046010578 
4.68333991622753 0.657272392674745 4.44385421541545 
5.30803742256686 0.776586036363481 3.90819704994379 
5.10944515292692 5.05234609712596 4.14757075465232 
5.06506658373673 4.93641359969345 4.76940489219286 
2.05250882913768 2.41762750357233 0.891936590158181 
2.35225624297987 2.61417378733025 1.06743211526343 
2.49316297768968 2.39080472292838 1.4244714412006 
2.85628265065228 2.27364972296243 1.33341850614939 
1.25519986376526 3.16476320427975 3.26383472077536 
1.3866069879961 3.26033692154323 3.43074425951216 
1.72754458820517 4.08092256275368 3.69540625888183 
2.04687194323463 0.664900995335389 5.45010170012009 
2.02718425595051 0.313876919762578 4.94896844460191 
4.22560042773729 0.473505559668486 2.74706800824271 
4.08426457973073 1.75961938679833 3.014584574715 
4.76071642034831 1.60604211629393 3.01018960086073 
4.47616100273617 1.7909221738526 2.84926539911206 
4.02650216138708 3.66996461356779 3.57567597672034 
4.15607021194203 3.61588127575423 3.28822648810121 
1.3723100450923 5.3835684113693 5.74403305470524 
3.42763353102146 3.43323995976556 1.26583090661593 
2.17854994446893 3.07436643854594 1.24879025569568 
4.18795484055995 0.593570498358713 5.27470428721493 
4.52679510673743 1.14802123589162 5.80622112650951 
5.25455572899966 1.09275524394319 5.71601277838218 
4.38310596256106 0.444725501985691 4.70933856717511 
4.61349218537278 0.385988294675594 4.68258621811313 
1.18217829935466 1.71953422189836 5.15792532728694 
1.06266564495728 1.92144922934096 4.76726446995958 
1.29982668156618 1.80460442245955 5.22721272961895 
0.351037015480916 2.12280170265321 4.79241895617989 
0.268066511827719 2.85491154093996 5.33954291417957 
0.698245883510833 1.66116091711456 5.5230635906656 
1.27566861138759 2.16726140529431 4.72931425345652 
4.52762549976458 2.25567745866875 2.16885433953784 
3.24356114854513 3.69842824445451 3.5272951060262 
3.54881977483007 2.4643449208509 3.01993742377911 
3.87272979127094 3.81678581909179 3.49544498470772 
3.39890974571356 3.75523105386203 3.6599185928759 
2.98666684528942 1.51315324512467 4.78524579840869 
2.57338325011332 1.37886271161086 5.15458932410471 
1.56059840943365 5.47747686511482 3.46392425438981 
5.68811774939393 0.664599307084679 1.69951725939691 
2.84721433208584 2.70349905630099 4.90688059824368 
2.87058425578957 2.56057777879673 5.49547375143714 
2.90385345496067 3.19663087689937 4.73112866131846 
3.64624752911843 2.28960442137644 4.97725137402777 
2.25929215019691 3.02023412604919 2.8654714786175 
1.90916021266697 2.73217072705215 3.05014194176568 
5.66299864465415 2.03040736956945 3.07967102544813 
2.39677397699047 3.21796218660118 4.45691208848753 
2.29719494845759 3.10275919621027 4.47166339907329 
2.29689263189135 3.35964593704247 4.53398240929751 
2.20780106953938 4.01634848199192 4.14066732527064 
0.434723378271999 0.99090305868192 1.13134190722928 
1.28331112272203 1.33335224269812 5.10772796088072 
1.65279949057408 1.56838160885407 5.32016089686941 
2.15907245229296 1.46241096570582 4.97071932175341 
1.96469454286602 1.1759887937748 4.98052918156498 
4.9961847695847 1.98086935857173 3.0642907125093 
0.538716366418847 3.64125693450476 4.23589076379211 
1.00322408967671 4.22374324879367 4.46285906254294 
0.681334134851964 4.12499265349055 4.55966414713794 
4.50057909411441 3.6074724908256 5.64339037862446 
4.59471208050268 3.78790845378259 5.56670443596705 
4.95653823265342 3.61922387481085 4.9966041565375 
4.5314058978249 3.42979041923738 0.333141756767496 
4.99794472601872 2.19557728617918 0.699191963309264 
5.55810828759447 2.64423865579303 0.840899144978157 
0.37504825419707 4.42525536286974 2.3805839951822 
4.09347209086279 3.11726707168368 2.41122454056441 
3.92250125042472 4.06431544202746 1.68695508534601 
3.99462955515256 3.76817860112478 1.46052476233872 
5.05262486972857 3.86443779541097 2.33398759979857 
5.69684467622535 2.87235754189352 1.51007233043746 
5.31293516975873 4.00187380714228 2.15196189878011 
5.54765730846264 2.56641200255377 2.22170143791834 
5.27988904524796 4.45696764666388 1.98205405584276 
1.67051757870888 2.71483460718951 2.96535793624311 
2.3083267817042 3.29967815098727 2.4338649753273 
1.63517893259096 2.62863185964477 0.923282124338351 
1.68828916860672 3.06099230330325 1.85469422481171 
0.256573847573046 3.71768309459081 1.41338830974752 
0.383287398268154 3.53195481005831 1.60336426123394 
0.546201912774835 3.65736754493525 0.958195780404004 
4.04187909298639 4.62112814598011 0.659799502178833 
0.890979512923981 0.192007644619433 5.05875153555277 
1.11995934963177 0.0829045184622742 4.6134138647994 
5.08564540769404 1.8583730653877 1.01283862070209 
5.75283910624802 2.52381311797765 1.107400139433 
3.38302374067616 4.52502198442277 1.58412254039028 
0.613664902196532 3.34308771736293 1.42972232196776 
0.698516668908934 3.45478506487739 1.035149852262 
0.402223910657528 2.93161803685644 1.54020986039138 
5.0266726236284 4.32499040185122 5.88494182794777 
1.01583598907247 4.88434669499616 4.0650135040603 
1.2972078684936 4.46833196365975 4.86615403349405 
1.47483266345987 4.32940101929208 4.89470599827463 
1.46517370409013 0.133467664376846 4.55163015293987 
5.60635829553991 0.842609740265402 1.66101816339466 
5.66379396538308 1.32961415549592 2.04525673460171 
5.81291394534903 1.64184866791335 1.87681051229701 
5.4665206090476 1.95339960992098 2.85732600526704 
5.68416951358689 2.34065514090192 2.35201487737395 
5.66215234367321 1.19138268914614 2.72986271767229 
5.65757304753266 1.76185833579595 1.95618999139457 
1.67069328990463 5.45053064489581 5.8033955614811 
2.93054029402103 4.02599917784991 3.47155247450445 
2.7894465201598 4.2008821502373 2.95704050319766 
2.57495684446541 3.10632888487261 2.3594403340337 
2.42992741536881 2.64509402438796 4.7201181807646 
4.82989451078183 0.55243961627423 5.76232138810962 
3.77281623728009 3.57884230989849 2.77273577289967 
0.405107250071491 2.33448528269177 0.983910322293943 
0.32280789778493 2.49205053792509 0.969100453779551 
5.0649765511498 1.33076862395537 5.72334100718039 
4.65086808142339 1.78904929233757 4.17234337215347 
4.20413898565665 1.67086410768713 4.21252925069818 
0.206923555668686 2.03474551025149 4.65352880637413 
3.21208310904585 4.17403142062403 4.63182716684116 
4.73257612376402 5.4537847087752 1.53817133792659 
2.00646530581701 5.47130804752965 5.38120224449136 
4.94798270223754 1.2939213500607 2.76263440153684 
5.44373289575116 1.41979550236275 2.63207563293116 
0.812880174713878 5.54292503223641 4.96054521649781 
4.89608131162416 5.41611360324449 2.87365482110521 
2.87080005359884 5.65433097967325 0.561089252936331 
2.97398313927242 5.60598324330001 0.791100282082756 
3.42025313980368 4.35430647865827 4.7636048118157 
4.6034695967453 4.7903510335816 1.70166301905023 
4.75461972131141 4.66530664806869 2.09791815637918 
0.379629168116384 3.29215918412152 4.39523398977683 
3.72878966615543 5.15869029542946 1.84134211784859 
3.61239273731271 2.29658808807105 2.29085554264495 
3.53651418006279 2.1232528283842 2.73654512565463 
2.95348987616417 3.7735104673173 1.22038750278234 
1.99412264761843 1.71223575184454 5.1530576266477 
5.71139884481304 3.33890354954154 4.82927575864411 
2.70678992397946 0.397428792022233 3.74753342700512 
0.423101424514887 1.03753782791405 0.69180170185769 
1.42775666989366 2.16124028366202 4.93555859838965 
2.086769344787 4.08551467161537 4.13890078375159 
5.18042260771356 3.14404659906998 1.57024743590176 
4.79315220248201 3.16399807166605 1.2681729824387 
2.586584692868 3.25892775928164 3.86659066444375 
0.776792109161785 1.74829735600567 0.307092500447557 
4.28301231996326 2.32652494731104 1.27440878887004 
0.523347694375674 1.54196380955045 4.068136171466 
0.351885149897232 1.6836449693383 3.88772608540972 
0.876992341608644 3.56182644546117 5.32352543502627 
4.79542167118621 1.83063898593931 1.26814018101102 
4.48734707429076 1.24508283877254 1.24291583371632 
2.86609219991563 1.61061333504614 4.53927403261668 
3.98990846083783 3.19780167608771 1.61492919820623 
4.17761759758547 3.5265102308376 1.63023188094978 
1.53487310755649 2.27987467134841 2.15365221863581 
2.00660963481449 2.11610369660778 2.0796011041456 
0.637414218317859 3.79810559472317 1.976847724098 
3.30052524762566 1.11143247832674 4.68986568672669 
3.31696898238566 1.01590046268112 4.3287251911501 
2.54958842273007 2.87944474724796 2.73671667887516 
4.5714269724999 0.120611995728814 1.94026951957462 
2.74675613213567 0.628138572250097 2.01837809437873 
2.69053278938247 0.404151225372289 2.36127174070302 
0.747976258958376 1.90961361048261 5.86952900299768 
0.403612862389238 2.12671933764162 5.87065010288845 
3.89910905699598 3.15790858994134 2.69082701565514 
3.67272543422922 3.01295814721597 2.6464613475931 
1.9521857058476 5.35994343670407 1.42201289203424 
2.18873751100872 5.66912659628175 1.33107452055947 
4.96171200327512 1.9192818052159 1.66786214393479 
5.40238343764088 2.02331363332769 1.67342488559921 
1.32262508311654 3.09316402823977 4.18803325220871 
1.81916935171208 5.26194518798954 2.99531840932408 
4.77090255556934 5.36644070814237 0.580815776896281 
5.19869042041067 2.94052777031044 3.53261531092634 
4.83284467553015 2.54075406648241 3.48625602965784 
1.24135409624345 4.39419434979672 0.816288383538334 
3.94067739692192 4.62957256429653 3.26708180161937 
3.81480468910557 4.16064522281754 3.63000257312869 
5.47977546912382 4.77736760222682 5.13744494585701 
5.10104023818521 4.81150671764483 4.80889600921372 
4.60530204508351 0.600180424546897 5.77786985017295 
3.16596804688169 5.93770546056464 3.40428466010986 
3.48734629474037 5.73507333876726 3.61651406238795 
4.50160304992332 4.97552186261479 4.90784423178403 
4.01817077122847 3.76342190505417 3.17939388959796 
0.417768783212275 1.76855671327618 1.59587938540588 
4.49936494421161 5.08242855216012 1.75465514204063 
5.8792029839992 1.09550154145768 2.33469806264653 
0.359373955438628 1.75012306745845 5.42041778705394 
0.208484415871557 2.06318015738913 4.95701590039815 
2.59329295781279 2.61721471321077 1.87531364882933 
2.35840432161733 2.49246784996685 4.07728359597622 
3.88827930384579 1.17317164185825 1.63181991105275 
4.47492947628353 1.04393405146782 1.51865008410578 
4.49888515674522 2.55342097811806 3.97537127075427 
1.42980476949724 0.403248732594231 0.761278778998456 
2.77361891647161 5.06219455429956 1.76511832473398 
3.29724529148542 4.6878018692147 1.79437048487438 
3.87246682193797 2.37858074576588 3.3012940021949 
0.902261769988077 0.967340255424535 5.37698543168179 
1.27728330783092 0.705521939330009 5.65772027904016 
1.61562286732821 1.31967713790365 5.24417524366324 
1.65325638108047 0.930591835404408 5.62373143653855 
4.12451625022263 5.56453394264963 3.4214413730996 
4.33932223484471 5.70408505510349 3.1550849528321 
4.26774850352452 3.61050256824417 2.07469668118065 
4.90432960301493 3.57256688519695 2.1635828580792 
5.36498294410642 4.64410486240323 1.19326962518175 
5.49382955312794 4.44309102196579 1.49522682692227 
5.13775800135324 3.86169534833601 3.70467845012284 
4.11000281735641 5.16927203574564 3.58203376664997 
4.24696901085474 4.8971691571646 3.49694729414809 
3.49889962545746 3.51633742197072 5.67575626511829 
3.67490607817892 3.36240437051714 5.74541649424406 
1.50593043956547 0.136278557258452 3.73119405938202 
1.65096710088534 0.448143826756278 3.58800626772458 
1.86677989776528 3.81944079550745 3.35645616702407 
5.95178434156214 4.86346362835869 1.73203405136322 
1.41156327448365 4.78911028879133 2.57799519355318 
1.37641911723296 1.2496392310957 3.87697688224987 
0.96656398281821 5.58421800416019 4.66808955105626 
3.39238288537598 4.07910895689594 3.76139050863914 
3.04414325278531 4.26496775401902 3.61533840805439 
4.05249552846768 0.331511380339379 0.470676315820477 
2.70764245150907 1.73130552420193 5.63872997792092 
3.90560388819127 2.51908585619463 5.23250534122153 
2.64187850688883 3.65865325952953 4.93851523678688 
4.15684983572493 5.64904322877585 0.648641440844124 
2.12707114679656 3.70886896536484 3.35280886506844 
2.40753298177164 3.75371113608213 3.69270600376533 
5.1497011754798 4.20462574187488 4.38043537181611 
4.74831832768866 3.9611955078423 4.62964449872779 
2.71884869454596 4.1382250220576 4.79127442080307 
2.36035794445652 4.26012643226349 4.25184296500213 
5.39946344787624 0.106584841498328 2.34277237860017 
5.68200919913819 5.40578301486025 2.13009335981393 
0.0685647338447766 2.32163111682244 5.25134465508144 
0.211763884141454 2.01213439163652 5.66375656603783 
3.73215645651646 0.116905311354216 1.24297480425728 
3.24414352643014 2.35120104390803 4.76892052185891 
5.60764080080683 4.0218042678289 5.55797707793184 
0.147719285406739 3.35970636073563 1.75083246850659 
0.144338966743377 3.06160029765697 1.72956143188902 
3.20138817578657 2.50701926055744 3.62732863762428 
0.192324669126796 5.08741954513338 5.08037617891211 
1.67726310076371 5.36163395372042 0.993085298235355 
1.93853172275188 5.74709484088133 0.759073251712197 
3.17302912031719 5.89838514295475 1.1402111029588 
2.77449315889516 5.71156251607529 1.51058382132831 
3.40551509662018 3.22075813042224 2.70274639866772 
3.49664799575086 3.54080386001302 2.80048214731346 
0.269907996427163 5.36423547026493 4.91826409977068 
0.196145498931309 1.71826660534114 4.04150982105328 
0.280370480994175 1.62386088097446 4.21456766608667 
5.05910696825265 3.65866619938764 0.536797267332836 
1.3556865871808 5.07798033831005 5.94600765541946 
4.1727809561883 1.30003633621493 2.33786864647684 
1.05905303074969 1.31913866929672 4.14728850713905 
1.18677030192177 1.07504003763503 4.49111247710372 
4.91126259289634 3.22383121980019 4.99337645181346 
5.47559947187751 3.04009618756122 4.89712877927956 
5.52997070501084 1.99500087540589 1.32721374022948 
0.311714405886083 2.28489127117014 0.94255037652248 
2.95985129263877 1.31008712902305 0.900206650000083 
3.42436107947032 1.05240533316809 0.944777300680189 
1.58085034054231 5.09009003565339 3.75538015272362 
3.27776006017205 2.51418210380799 1.06272720189917 
4.23063109196966 5.1120453914714 4.61807847829809 
4.44054922495765 5.20412039679741 4.06663621861753 
3.62146236425969 1.19466520965652 1.484881035624 
3.50369668870991 5.56221474744174 1.81389177146186 
2.93307236438471 5.51879820242089 1.81934707379166 
5.65262500070853 2.84088761652285 5.24758961192682 
2.07361773735801 0.359412489773658 3.4075605915881 
2.51410113510527 0.617495850222916 3.63260419337925 
4.38887276872862 2.15097974345573 1.121543479956 
3.06413412689136 3.72602802870483 1.4207434752644 
4.90836578183811 2.90235569478647 5.73517949507189 
5.22262157187275 2.8208778599976 5.75952914128846 
2.26317164457218 4.3323485749425 4.2545026835246 
2.11088989257976 4.60151800996334 4.70258011893805 
0.561790694860386 4.69717674905647 1.10442509338767 
0.286118582726173 4.63473141930009 1.58877321187162 
3.78371481106721 5.47587850526621 3.38660761601108 
1.07298331123306 4.8843966411796 3.87634974975291 
0.336891624376098 1.91820647027611 0.51236035478857 
5.42892064575816 0.971633005989094 4.77532890801748 
2.02005406709695 3.3686548457029 2.08579773499847 
5.92163602682215 4.80044856982898 1.61202582315792 
5.76010204696203 5.01806398972679 1.27625685160484 
3.18906706787634 2.0800845205854 3.99074532271783 
2.96232033732542 2.08195188651297 4.43496107351632 
3.3460850649211 1.89375465839191 5.12091276665754 
3.38643912824039 2.20920712547423 5.05383594127373 
5.420624266031 0.645073043828725 5.16183223179916 
5.0878304192154 0.38385264916151 5.26265733276471 
1.14130408101393 4.2329049635576 4.74186966087136 
3.21565867647221 2.50092223074442 3.17648925099471 
3.05542808381208 2.91536283175332 3.07772952400892 
2.21720277134655 3.02360281798056 1.67582437392324 
2.42479621885111 2.57836996306281 1.75170327233102 
0.575074169874428 1.41111789953345 2.29375218677424 
0.258039508829475 1.77173900083324 1.95273284531929 
5.30362546187076 5.67251776339558 2.1601256290174 
0.774983016203345 3.07720789808708 5.26394503332824 
3.26122499499116 4.30918312868543 4.33959746493841 
2.85283576288443 4.45953135196744 3.99673390362399 
1.59433698602228 5.35313927978466 4.71445819614319 
1.51582923315315 1.5742850434283 3.28188567600614 
3.03403799630001 5.49097687138177 4.68933469125463 
1.39987583255394 2.61291608915694 5.14561462661504 
1.8542075126771 2.79306703012204 5.18729345670131 
1.40089190151783 2.60144970914819 2.07277362886876 
1.31191122793748 2.61611134147251 2.28736162828433 
4.19698205655256 1.67244922343428 2.49123910446642 
4.39889677949462 1.71130555702884 2.51696809263546 
4.04165321350716 1.24794632630958 4.49938655572976 
1.26739677614454 4.93052098867954 0.715425966009341 
1.69017978486015 5.0906483230906 0.783640865783061 
2.50155117673219 0.824675498750641 2.72670926144101 
2.80130160271723 0.873038165009934 3.14472295106345 
2.60523811646482 0.885623539784769 3.29241872594522 
0.900806945309407 4.890373209634 2.54205433436191 
3.56482445527154 2.7094881380484 5.84092053965497 
3.34178999121638 2.61706700956909 5.85868833475731 
3.932147345791 4.89165206046375 4.4256149482658 
3.42082615392914 0.716335253422404 1.92575008557893 
3.59648225046651 0.643198395112415 1.58401891031735 
4.94086867779339 5.53980489097352 0.934080815469498 
3.86994854626282 5.3712599462774 0.596968473020961 
3.74260609010221 5.34210168465761 0.767778984605758 
4.48218366720248 2.13456169782513 4.28192743575851 
4.13515323308577 1.99739577844555 4.30520634816588 
3.12944868798378 0.481862666302082 0.855656099727251 
3.36299040132479 0.581974628429246 0.880934839774186 
0.18900321904408 3.38392567829388 2.09324860112362 
0.166753772436257 2.99112232122457 2.01537123406983 
4.34405749920802 0.307587993779339 1.49614886774142 
3.85853632665445 0.300930482377367 1.56431788911937 
5.4237538156439 2.56926275742508 1.90721833710941 
4.32506366485866 4.81849904771947 3.73368897662126 
4.23649247417565 5.03693778138473 3.880812575746 
3.22465734817649 1.48833330150451 3.85070732010362 
3.05020679820508 1.28567850448714 4.1316008598863 
1.25001235477929 4.78041053308911 5.82341255519642 
1.67004872182153 5.27154083925253 2.78403200494437 
2.05446598262608 3.96743604055844 2.12506811241793 
2.1669577745086 4.05770358803812 2.01617018190829 
4.15237795543753 5.74158196437013 2.51597128996449 
5.36278965140697 1.147121064696 3.93594185050373 
0.795953897676037 4.76102968864884 1.9613663128919 
0.521308758690148 4.5058206614066 1.99835105580394 
2.08781888764455 1.07716037783311 2.74814934998672 
1.94303834369687 1.62884266198744 3.18849975876801 
3.94775294813421 2.93060028475116 2.19957290358133 
3.69760943290035 2.86877264341592 2.29710528885462 
4.50797320414144 5.13978135913086 2.11560416204296 
4.68392301640918 4.88201542583003 2.27823981863341 
4.53088278695572 4.61966143488007 5.04131492536283 
4.94855956596669 5.34560277593573 2.45856992240834 
4.12851494125154 0.0495144692834973 2.3822227823892 
5.11484823978198 1.52806082379646 0.801027495564127 
1.88323678384913 5.39678887086827 2.58116350332842 
1.20207354838212 2.84687736105031 4.95673196472269 
4.76084721662455 2.27512492110152 1.82263182417731 
5.24315715815442 2.64334196745749 1.94007865435446 
4.81140263321557 5.66087591707794 1.91088651963387 
4.64963205270411 5.41038152474158 2.21747277324404 
1.89223442997135 0.284190316560729 0.789015323710728 
5.54577438529154 1.88195517625744 3.83426766042309 
3.95443381171298 1.70332053726573 2.83519119917444 
3.096370705702 5.42542501333808 0.661990357840949 
2.98937855428142 5.48624549656181 0.460830205348195 
5.19251401923136 3.10889293379224 3.82669835498167 
2.19477682546418 1.20758726901617 1.37390988029233 
5.17081126076539 4.9513734791704 4.08064001252225 
4.86310632895914 4.66796976911941 3.74510340202661 
0.108106698494374 1.41734187723708 0.720061546252606 
5.41887550280898 1.31604662557715 0.84130205554532 
2.26108459139119 2.33922610091089 0.507306505162472 
3.9551871681217 2.10290481453871 2.10740244233273 
4.23545430474183 2.36352228724264 2.02746640094096 
5.71877294224729 5.33278169493875 1.34221747854776 
3.80258460712225 1.30281597194112 1.50199510419945 
1.13648267353138 5.24417470352832 5.13242045363403 
1.03654674592639 4.80462930261654 5.2882062779657 
2.26701770093925 1.99649595818749 3.40198495571894 
2.11258021178666 2.3869296295955 3.9340059253772 
5.66560250639188 2.16975714929247 4.88440764454733 
1.64813294043201 4.38215153037643 5.76715921168056 
1.72502510962862 4.20663956086007 5.40787650691922 
2.72364852484296 0.537363240947565 4.02489292719045 
3.66525923021426 0.59479054171092 0.461166579809178 
2.96896945024604 3.04676216911399 3.62863952593684 
3.03544001350069 3.26568301428978 3.77373639251839 
5.40609811698939 4.42163383656896 0.771025599986933 
5.19867460748842 4.41393163122443 0.690306024855444 
3.86698727523178 4.49801624241121 4.45536536432351 
4.08462117497536 4.30756282402124 3.94478831436337 
0.345240961316276 4.70320763060505 1.73850598876273 
0.725857519804033 4.89500931687364 1.81484336534584 
4.9338430621291 4.10742407732967 3.96889732602482 
2.33110195187732 4.01666131526214 2.84871220219478 
5.00073627412789 3.67874504306033 3.67395849244322 
1.85743882632597 4.17585907730262 2.95680068855237 
2.22467376711725 4.13268807363393 2.80040102973941 
5.74433969853595 2.38354633540218 5.21292217936575 
5.33132458847555 2.20925246801907 5.64275564370535 
3.39251137338248 4.20892625131138 1.71864727135316 
3.75294505024585 4.82138826968473 0.906540112585781 
3.86816087164264 4.74237518480789 1.37422248965522 
4.84263170288964 0.396169554414224 2.04712436220234 
4.64358627505609 0.681085309233734 2.57476041933944 
1.06598869273831 2.70410728761012 4.70578566250993 
1.1323793711932 2.88624779682776 4.2719972480249 
3.19297245779435 0.617780202849514 4.28085505857312 
3.08392281992824 1.92522337737025 5.5926184872839 
3.13941915257338 2.34216240888741 5.5291092024331 
2.64345379763946 4.33987495469608 5.05365757418341 
2.31629074566067 4.59152800871202 5.00320741039084 
5.39426780545192 2.79651300013088 4.54604574656632 
1.29548913902041 3.72199139738027 1.81836961204456 
5.51021065482319 1.44012929896082 2.12259630190039 
3.11197014318099 2.70849361638644 0.6716237764144 
4.03761629145513 2.95198107231763 5.10528611944075 
3.85221762912121 3.43506138462568 5.52443591689907 
5.45385929081457 5.49936748884424 1.33201551873117 
3.47031529927258 0.942183245819519 1.95288206235199 
3.67513774847486 1.03818728901907 1.6233599248616 
4.9990894315813 5.14535986593141 2.48985835081164 
4.0438224537464 4.24279260254756 4.70826987134025 
3.95939343186167 5.52338285387986 5.01521184433625 
4.61846118515496 4.33731607986573 5.7704613749282 
4.39968708174724 4.46869826767183 5.42144598234268 
1.41334144327584 5.0874102965011 4.59289327338183 
1.35430312361474 5.28371740831822 4.73831305059707 
0.758981060089443 2.87458163604214 5.72699767358252 
1.14109199414345 2.55843674111472 5.73243191265613 
5.3124481689131 0.893065188949962 3.75432075824296 
2.6210244712414 2.58449097056056 0.764052240050018 
3.54522940645179 4.90524765302625 2.84282224684521 
3.63225076991507 4.84310847137246 3.20469693603499 
5.53193301755503 3.37581541206352 0.700123916807207 
5.74931356601649 3.64257581590959 0.822390438747076 
5.43876450527566 0.767083710462281 3.0262309208591 
4.37662377887204 4.32842220830669 4.96813804385522 
4.29616459753018 4.25409105774601 5.28297524691926 
5.62446593301032 3.01284737625973 4.08058971307618 
5.8407463083928 3.32351806977764 4.19462629415767 
2.53307133562597 4.90421519495063 2.08993911397872 
2.66819595008235 4.58809170799699 2.26651384534233 
2.97240939895062 1.66654791981167 0.489226013795003 
3.72903616923846 4.75791323605307 2.59140338891912 
1.02724155209773 5.09862317425411 0.930342026166671 
2.45713467121135 2.42002599709352 5.56867845207955 
2.39132915565749 1.94685717924079 5.65828311196458 
0.589991549286001 3.75281706693451 5.14932180489259 
0.719232564740108 4.11353143723065 4.84726637842272 
1.38185676589424 1.4125584498571 1.02719620823722 
1.15234973371981 1.03511188048559 1.0602420898272 
0.451068828622049 4.33286161608547 5.10447806922801 
1.20068137570288 5.3592705317818 1.47780205385764 
1.20145480609327 5.3847974398326 1.12375551859982 
5.01470567759556 3.94415283350299 5.85392892721141 
1.54065326510028 3.85570876682007 4.39180639234782 
1.35174364151073 4.11432174080259 4.78893247238389 
4.09898392488367 1.04151814435037 5.23074226660879 
0.645566345347259 2.75228732474928 4.718158508235 
0.587680181843712 2.92104656198406 4.37546576817065 
3.17997121771978 3.88410977271546 2.48832911068953 
3.02641112376061 3.34239013191565 2.2966178537621 
4.05775689090849 2.65332161616031 3.77720687462344 
0.906820267659602 1.28495462298413 2.0099980256454 
2.02101194274601 4.51902168931819 5.79933191578888 
2.13189433390798 4.34890799255189 5.41339816930889 
1.20508932862148 4.44998820540735 3.63299957437008 
2.16101362109661 0.532214746083776 4.86337579392353 
3.73534031819142 1.88915782884501 1.62414847943897 
3.95324128162015 2.10320990593509 1.22087065361498 
0.0361100257705254 1.45620583890506 1.16368399489288 
5.86819060042731 1.44031396691651 1.23436580059492 
4.88478809272053 0.743751825212668 1.77669168867837 
0.845950854725435 1.4468985459196 1.6225505308487 
0.826631075275756 1.01763657599936 1.32957812211747 
5.95024412741063 2.43483224266136 2.88931519484935 
5.85296132345267 2.4739648651637 2.41812161863181 
0.504479029620448 3.02235251416851 5.10654560902856 
0.340041862044309 3.3164781889576 4.99166994956527 
2.10922219706912 1.65353865931888 3.4329896317957 
5.33052726015992 0.247428719428767 2.82104255462682 
4.14752076645651 4.50913959773003 1.42249123852611 
0.900996801773111 4.79899406862642 1.13249928933032 
0.971636416202589 4.90012285843769 1.61213062112732 
3.87737529790756 1.0790871213678 2.53049579730472 
4.66932375049485 3.86842425826235 5.7628669052691 
5.74525342338585 3.97294025639207 5.28238142000825 
5.49741135684755 3.7250757748553 4.90357180217808 
1.91119948639239 2.07964759607013 4.88616328183301 
2.14143969523698 2.51472384122724 5.06412956225087 
0.969606124499477 1.81731120128216 0.386237263189877 
0.967753017783899 2.21510820959208 0.799775001775257 
4.17303671340275 5.4663977668772 4.91342737723737 
4.40463830859128 5.33591252881954 5.14291715034584 
3.46446597474007 2.43750681382362 4.67204823010334 
2.27001926134437 2.84075212038072 4.04958928194227 
1.84694337765025 5.23498131846822 4.20324736419334 
1.49771235498127 3.09478352587983 1.60464060262203 
1.24983809875954 3.45298472545367 1.52427403255135 
0.299471306944301 2.38755206214535 2.30018877641735 
0.0409132700348914 3.3014289992328 4.11693762657615 
1.44376195854608 2.96668136146397 2.50310488650553 
1.70574667887281 3.27106131889106 2.07015193283563 
1.16416772376082 3.26450497836842 2.70001695989951 
1.26755592327757 1.94321581364474 3.11965336054608 
1.02275327216633 2.13006735756685 3.54493530940515 
0.460027645096556 2.81478495294625 3.27668688779804 
0.664682240665925 2.55114034728975 3.60875048861155 
1.33407194133345 0.378021373025799 5.5390899538416 
0.243814228119153 3.72217349758442 3.51611885114446 
0.230208892139889 3.54240950351408 3.29105924194303 
0.68617601063819 2.14302040041237 3.52365881391462 
0.0545420129149011 1.67234813687848 1.29047777840376 
5.88566508238221 1.64440587431722 1.35391450676522 
2.92455090431359 2.38141099460659 0.859893717733267 
3.1199497254209 2.47390243877627 0.811706979339209 
1.30132998227609 3.5601146403029 1.18477676038201 
2.58758206808196 0.948724778696439 5.26459445953131 
2.1895753861419 0.803224441799335 5.16289640394808 
0.539724506805175 5.27168783908506 3.02878310467443 
2.60813038288893 0.311658473861687 4.64261115923938 
2.31070373910534 0.832270649301683 2.85303061039879 
2.0516546436047 0.526858257730757 2.87014745313375 
2.11825370865792 4.84006636167128 4.6638738519362 
1.64760798945593 5.16854810367057 4.57610656013888 
2.75713384497605 5.74748002670608 3.54233640760641 
1.106962203689 0.371624233683833 3.21287046528018 
1.05575910307915 0.199302053945129 2.72299874555671 
1.95429724136063 0.387647323114243 5.37561126076115 
1.4692434160714 4.45759353744946 2.8237912318416 
0.122428406486214 3.04191517216287 3.40191123751346 
2.1790615494716 3.22750628979443 3.36742464601865 
2.55534691723681 3.1654544122228 3.79374473370024 
0.616961320527045 3.78116475897026 2.70389296394195 
0.416656219175843 3.82496555100822 2.4703204292132 
2.27164767114985 5.00056504838827 0.201160155201918 
2.7796098129882 5.11715544106878 0.215968694471361 
5.47594967012281 4.0930764923912 4.45437627650132 
2.4014830643721 0.622314164961661 0.44982565151657 
3.96562100949484 1.0842947409987 5.24730699906357 
3.95006941580918 1.37792406877963 5.49833746273486 
3.02190385562399 0.418178227609843 4.75464813045771 
3.08256936075383 0.689492943965884 4.98101525949024 
4.39989559864582 3.86194321459301 4.0325749978422 
4.59469566398143 3.84215971608735 4.03640083652512 
3.80877546258132 1.06588733127718 4.15738883150573 
4.32528280476525 1.30547327491241 5.51531765911105 
4.14722425858494 1.44610507177097 5.59070919751715 
0.803860812127723 3.57404693652723 2.56052939775312 
0.526233096955055 3.6658728688637 2.29173926347388 
1.1110888960029 2.12200248677788 1.3923060905645 
1.21186641136399 2.11790612923888 1.19414825098155 
0.485520639963792 3.5930587772923 3.20710781831943 
0.525261481808983 3.77259535573225 3.41532344094471 
3.71143203698887 1.34654732647633 2.86409944593914 
3.66264794357811 1.13879549220283 3.19208304074297 
1.73573614462695 3.07603574270067 1.17082157419973 
1.59002421137602 3.33482373801516 0.958737750440446 
2.59762963634678 1.08379700955882 0.845006109393827 
2.60796795025512 0.767133853076356 0.839561862454101 
4.57605480082345 4.23889151698399 2.36389247209103 
4.1382551048006 3.93338561446942 2.15126885693706 
3.90420846859725 3.98914878860697 2.45016277699363 
1.23452277553512 1.82510123005652 1.478976400543 
1.35577962732763 1.79924823204448 1.28066179800279 
2.2704350569309 1.3332125057395 1.52765897676116 
2.85476664589683 1.57597865944664 1.39350440873443 
4.18405547793884 3.29179700280229 4.33201480909987 
3.8212396937583 3.21633966493905 4.67849859741855 
0.554904883186926 0.889813155860552 3.44130306938457 
0.489905241021396 0.590019591225665 3.45365987731295 
3.01158541666534 3.33156460735011 5.57399905803589 
2.9587217343448 2.81558142690744 5.74210911496159 
1.84355676807219 2.04607017392872 4.17935625299555 
1.99585798790122 3.49235132300007 5.37639082377949 
3.48758002994128 2.96596710421281 1.05467888758137 
3.42866608815566 3.05101247784099 0.881667288959411 
3.25089344524039 5.27776331150953 4.21837521984646 
3.54851985063428 4.97696107565361 4.51735827771208 
2.60145489887681 2.86892031687193 1.92566653922329 
1.37626779144413 2.68737175504609 0.559631998647653 
3.89619639931784 3.11596364820069 3.98676307244724 
0.707863413560959 0.869946346540398 3.27219619909896 
0.704037590213877 0.602067355542717 3.22769935128101 
1.28857962111775 2.98173991378985 0.514066442701819 
5.84295738380831 4.55211503671536 2.46030312920655 
5.77004722732617 4.85206752546467 2.76094466848066 
2.54639592399242 3.61429729394289 1.56423504572111 
2.26511843686166 3.08037078682463 1.71838843477306 
2.96205863072885 1.28268157720672 2.02572938986998 
3.09390274099844 1.54055601545756 1.63540298488274 
2.27333470817615 4.44347615290806 0.986611458118515 
1.37862533867404 3.71470432904179 5.10843829970468 
1.62631947174605 3.81644873955704 5.42272834100695 
1.41760301836574 0.631745306904745 2.09551946624359 
2.92013422874349 3.66081404961969 1.61354093650923 
3.03342635745504 3.15536808136401 1.85630937140588 
3.23080667805829 0.464537768527709 3.17009342051997 
1.26731525544881 1.78640875597814 3.94963865643047 
1.48545157575004 2.12623833904003 4.2151195689492 
1.62656125503401 4.15463764789289 2.70486460042853 
1.81500993535557 4.0348048669393 2.12120137155031 
3.42697466319039 4.22545826597199 0.392198579635153 
3.95918107357235 4.41575370104746 0.455587333789933 
1.49622700341965 1.53586654372134 3.79192353855156 
1.83570316824779 1.59945256529914 3.88011372965898 
2.42824294044231 4.63172524916187 0.37136172540436 
2.80791592968237 4.734831832056 0.359845681717227 
3.38927581091085 3.88805556005637 0.41610581580634 
0.0812191688077992 4.59880460047429 4.85318233341784 
4.59802192347234 1.17361414630328 2.32805624878026 
4.75095569093808 1.11776451808952 1.95582530142252 
3.25467301622549 5.46913833314473 4.61130965511769 
3.46436015505158 5.21978816098124 4.79124033664429 
3.30265344301662 3.31538123254619 4.00045543416757 
3.26118065693877 3.29376876175659 4.51683787156819 
0.915488029646376 0.839500394089649 1.96433355952931 
0.860457486354653 0.706465140479905 1.56230234055988 
5.77340272178903 4.48993086838756 4.90894882785638 
5.60917835478424 4.41056395744791 4.52293114985623 
3.6184899849562 3.03216881164574 4.09512399108784 
3.55125183585574 3.06257087651836 4.48961581104931 
3.73500029553182 0.727519864713912 3.15486771829117 
3.91318398411178 0.654240333849382 2.73161316640215 
4.68501231591977 1.3051938104754 2.37663411075313 
4.9035174894617 1.34717154729181 2.04908785442307 
2.78366125952979 4.91004446671313 3.6918229860429 
4.23920925450753 4.72797203039045 5.66967990202154 
1.19343630496353 3.57918926984259 2.53919414088814 
1.49014153657803 3.63548076071782 2.06235471112749 
2.47447420799364 3.72291499951371 5.33762347369796 
2.48341301696763 4.12933682950688 5.39332864775803 
2.72503469410043 5.57195184765505 2.62479796905509 
2.81843848823209 5.78436290666794 2.39276254385468 
1.85127019627004 0.63571629599853 1.52666777196875 
1.49222467237271 0.479653373193592 1.85768096494393 
2.08298808156525 0.461201282376965 1.43673280292213 
3.86002628752524 5.58809471575019 2.46369446667557 
3.60632666414304 5.4454456799799 2.83864625368875 
3.16462020986185 5.75694841275837 2.77047279576222 
4.40222457130481 3.76700861006898 4.2394771116092 
4.50946779345232 3.74992825432614 4.25284471493073 
5.64281387579504 4.74349359517723 2.17052765778151 
5.55548236708271 5.01043918955779 2.34885209936244 
4.29793776311063 1.08058478861224 4.6492873797816 
4.37856936876019 0.72385736711389 4.49921933670121 
2.15640458356423 4.18722607223739 1.0697959353757 
4.01949137836976 5.46569240510168 5.37676610908535 
4.31816130619342 5.32793507343087 5.3781244378675 
2.94317424179814 5.26465929607559 3.85848848408597 
3.68750971436708 3.60756512490642 5.42293636277757 
3.58665567404867 3.62443187480618 4.93213059971033 
2.56588906845866 0.407411545026125 1.66176115170065 
2.26597174789067 0.60269833418128 1.44358787368479 
0.534567354865207 4.70098794624457 3.36935879256555 
3.79785572163937 0.077750302100841 2.23867957344351 
2.5244762343552 1.18870084494577 2.33760305628582 
2.24778415923321 1.14678668825541 1.77878650886297 
2.60421942148766 1.08100997128464 2.06308264887653 
3.19506611021737 0.195304055417795 2.60380150736455 
3.60604268549703 0.353084052882283 2.38043366317951 
0.155736879118928 4.56451082158112 4.40382483596727 
3.54988565274935 4.49031723265314 5.64986464375908 
0.846793798882772 4.3955442550921 2.92548583161779 
0.767591529884965 4.40279364464033 3.27715032691028 
2.38503220200891 3.44970186431301 1.02987421089657 
2.53404463813242 3.69310265247668 1.27643352759918 
5.88018652194458 0.596721434646584 2.13055249039508 
3.65210592965212 5.80549850275076 2.28737525224333 
3.17854818923781 5.89890563737508 2.57477603657382 
1.12219372357704 0.50970522099744 1.48164747014492 
1.33373426655536 0.64692170444408 1.21247469672023 
3.7326164765141 4.12115601274545 4.92738469482947 
3.81543773955664 4.13907204019338 5.27100483030081 
0.667887183678571 4.66747905224514 2.73159503827563 
0.447560911268245 4.91331512224692 3.02463832254424 
2.50404164447659 0.777542174000861 3.87770584117727 
2.35204979169609 4.87490558249038 4.99204136543509 
2.26297584279692 5.22355252532098 5.42568391907816 
2.27828130788603 1.29569098653324 2.35681757373492 
2.06467531092709 1.26714016429243 2.03898500737199 
3.92483907149314 0.813960555252149 4.07282771850932 
2.59922810131044 1.18488339563716 3.52408487479996 
2.55935157154999 1.0589629575632 3.86025388795334 
3.69379209515991 5.17216392528629 5.66158265472594 
3.92179932206945 4.7577374223032 5.79417708142699 
2.31006957711077 5.36072453203393 2.83943642128535 
2.14061701176331 5.4238015530357 2.8261131570244 
4.66700797018392 2.3336810214364 0.723281571837583 
2.37414407001433 5.52239515370455 2.87876264823734 
2.92244631338024 5.21221616806271 5.0686071609521 
3.20675628728289 4.62266286106601 5.14045165324318 
3.23250041136535 5.02603738047345 5.12977145724064 
4.36349411136774 2.96509328644838 0.446560621344739 
4.54295887917106 2.79422556898629 0.85706149189688 
3.36219745395991 4.61425155493527 5.58418216820277 
3.37325493717114 5.03113468101377 5.54948357978255 
3.61203378262909 0.41202518485925 4.07097302935251 
3.60573682139035 0.26802175583975 3.71992389181053 
4.4463424515661 4.51813388132147 2.711925758765 
4.14157701521352 4.47481557686073 2.79136707706697 
2.73827951046794 4.85304927152079 3.89214227252519 
0.954962992357597 1.61434509002999 2.68074901607799 
4.17904334557697 4.25623222360808 2.74690861732277 
4.46581872202281 4.32533446161448 2.67731762627429 
2.75616923801772 2.81551889549354 0.630161917352274 
2.67309052010834 3.32775307813003 0.74488787152367 
2.69393612686719 5.36219368570378 4.23205664513061 
2.91096833572214 5.21149125279556 4.01859929393597 
0.780695140290267 1.10565070107262 0.46879041682701 
3.75367108215236 2.19965338131774 3.95352792405679 
3.58535697379342 2.28831886632359 4.00934654348219 
3.76368193209667 2.3720402103446 3.822653357361 
3.60847730982005 2.43134738553063 3.89029734423266 
0.966374404811367 1.83336405709449 2.74365463482276 
0.818756353681997 5.37272612968761 2.73863285403798 
2.22037260317021 4.99183518439086 4.27398949441534 
2.28312376638507 4.75999395985478 4.050142674209 
1.26402670461039 1.35872130618532 0.607360863957891 
3.19572775361471 4.59897934866817 0.839810933244494 
3.0626018831008 4.50093760767347 1.07771242970516 
3.8777322338889 3.40161603860631 0.25378150974553 
4.30687279179054 3.58102549088575 0.258427697988147 
1.14133965209224 5.56580422118782 2.86667284343494 
3.01407270128582 4.7432907640584 0.793098086366723 
2.87762882834025 4.64221841419504 1.03705901846382 
5.64177087552452 4.80573656891347 3.05524531827948 
1.10352611245203 1.07844619948168 0.624371842526637 
1.2697044597923 0.789927526417714 0.423528665142429 
4.06175716885646 0.874073299388241 3.60333519241345 
3.92540766402128 0.618587615061631 3.3797001892136 
3.83288907738305 1.02514930577236 0.452071483198281 
3.69140510995971 3.67403262397927 0.513976474549444 
4.05884465915204 3.90451230283514 0.562473135555258 
5.20624918345623 4.05970994078388 3.24235019363137 
5.5228209399558 4.08841507934411 3.1505133489094 
1.8634485493745 3.85638014583586 0.711657910276123 
1.88318379558244 3.65404893969439 0.709573690528635 
4.38418424200017 0.0980319946963183 1.12294903848959 
4.48989885990518 5.772911502479 1.11637737491997 
2.0187123586404 3.88876922525427 0.727521533571167 
2.0768740775835 3.68175776499498 0.7295786332134 
0.748400232959669 1.5964366684237 2.66634751107748 
4.15191025808631 5.77088325380407 0.946410964174687 
4.12059273782657 0.0260660442533758 0.975682467112361 
5.4964715742227 0.313484975665964 2.83845431363752 
4.31397846958635 0.383317432807431 3.14902271648979 
5.66826275562609 0.235648366670282 2.4240105951165 
4.04511514523443 1.97122959923442 1.09162844607229 
4.01529545320915 1.40148752235559 1.17711998089626 
0.495890359724619 1.27367707138323 2.84218851541611 
3.71016493673489 1.20645829810549 0.689302140435279 
4.64824924451263 1.07887787287461 0.978708273811548 
4.97281942594043 1.86226985819605 5.23747873480031 
5.11706495297754 1.82302656780926 4.96827904779277 
5.08033509602068 1.57556372099883 4.98852657711303 
4.93250966497438 1.61188061030275 5.26996119438248 
3.62956132646072 1.5132697523697 0.387407185072809 
3.76845979142087 1.88114107135075 0.456737973204435 
3.27031473518278 1.7015352412667 0.292796057916735 
3.42037994325136 2.06779665258303 0.375698748060612 
4.35779907979184 0.597778590315207 0.428877480734842 
4.27022182409309 0.93306374265301 0.443331918495305 
0.754866414900031 0.0274294557688911 3.91133610758309 
4.9072925912552 0.881174704666082 3.40963588012838 
4.74983656352057 0.705495429906638 3.48487594410828 
4.71474657396616 0.479338237961534 3.25748944182616 
1.16489373314077 0.0456252039956114 3.54267316347384 
1.1782091886149 5.62441220663211 3.36748276221934 
2.89283295921456 1.45692101034026 2.36235993785176 
3.22196508499287 1.50390918087917 2.82457130246253 
0.857865169674623 4.99390162043715 3.80390795343452 
5.03063898889365 0.813813311509376 3.06389194072289 
4.93037805340546 0.619051586686835 2.98276493776261 
3.92843332173076 1.23039994377848 3.54949569966404 
3.8081241403499 1.34663125733731 3.80476686309687 
0.821494923492128 5.42286202724123 3.53143567372469 
4.06595766245972 1.3995830412955 3.51823894428165 
3.93908267025751 1.53022390971437 3.81031096469514 
2.96069461973575 2.15314594011399 3.02576809661689 
0.211642025727975 4.815899011419 4.21167505574257 
0.26189955125132 5.32525337287133 4.34762685442012 
3.15720025035955 1.93788410453441 2.76960508994722 
2.92470645186294 1.9293412780503 2.41854808618603 
4.42241811437361 2.28049178534443 5.33565740338867 
4.3377761666901 2.37602646551223 5.16863196331234 
4.15611808692472 2.3164520288054 5.21939926097068 
4.27313125015347 2.2191427206786 5.39738252871062 
0.619664379512373 5.41687637466911 4.20619688769112 
0.791485935302807 4.99839355213045 3.99625365765886 
5.34032188770755 4.94148450962929 3.16237805741065 
5.01200816434294 4.67901403404402 3.28600225034967 
4.74544233497932 4.81283453885325 3.08918801789069 
4.97618035128958 5.12661242825575 2.88335024557657 
1.28303199952754 3.94813667728032 3.89887520961269 
1.1344169510047 3.70815483960411 3.8562993193219 
1.11412801243287 3.67563614328024 4.01492691372527 
1.24311776140526 3.88651379649625 4.11125232744893 
5.11627716923487 0.751592740943115 1.0523395087933 
4.71446184961003 0.519118785296163 0.88824992861017 
4.78176016433369 0.771552725279299 1.08206472403894 
5.75357530970923 2.87101605529238 3.95972656174009 
0.0214634885598974 2.98618217082813 3.92670904240599 
0.325514439876413 2.70887775667937 4.06765414094563 
5.77569528221534 2.28562138388419 4.22701279478671 
0.0648801832205835 2.2034050153896 4.27083387847025 
0.0864084137276727 1.61338765028145 3.25656357203665 
0.0837774471015543 1.51776303698746 3.48097377732931 
0.0995040999232446 1.29020000690082 3.31943250085758 
0.101375425313635 1.38483797246847 3.15840952580112 
1.7161847528005 4.47935716173476 3.10191875979511 
1.92270086188003 4.83927296454587 3.2045317566465 
1.62302283030228 4.47005788929723 3.49231156527825 
1.80862393388138 4.78078897455102 3.56934645467369 
0.474212224993652 2.01247513115546 3.10288937487286 
0.743960701961658 1.85578530582423 2.74533584827138 
0.469970919033017 2.37587327930968 2.5263231681454 
0.29956886022277 2.39635822203466 2.91454667776568 
1.05685516013402 2.57419491299323 3.6444682098587 
1.28978352364901 2.70945065198617 4.00642010376314 
1.36755134360776 2.95288473682362 3.38152688546768 
1.96938960389205 2.74163594548713 3.86892841606758 
1.878037211278 2.9309349305037 3.44710847997512 
1.45796967124621 3.02949645572519 3.48749752470403 
1.44172212434724 2.87887883778503 3.94746933104751 
2.13406434242912 3.24506962735708 4.57807042620018 
1.87041370412071 3.19983543717813 4.97230766511974 
1.65186394501986 3.34359390492805 4.54434220967486 
1.59220742521825 3.28195996556217 4.84842718955417 
1.86974732220399 0.902824341051355 4.47907952866938 
1.95433871818055 0.987562199561013 4.19430206122733 
1.60469424761464 0.851302543345815 4.33132004307426 
1.68391232293807 0.918540986567864 4.1121555368618 
5.61307283677714 3.21592765515709 2.82662347385477 
5.26496262516604 3.72691802653921 2.7826008463394 
5.24272566756332 3.33885862445361 2.82448094903662 
2.33265460347644 0.855256211774735 0.260076377753222 
1.73865164760969 1.34801120927848 0.240080044483221 
1.73992136589316 1.04228869733061 0.137724649761727 
2.29203574249788 1.8242368625227 0.269072957089394 
2.67268701471952 1.55151327524399 0.260993953883487 
2.09498536799125 1.47081253236302 0.44623701969261 
2.42395983668604 1.23143758364304 0.437203620787148 
5.23386510580274 2.68042654676165 2.24076252873906 
5.01783441568688 3.14021925301738 2.49922890697676 
4.71994284960969 2.19891610828366 2.90868890598111 
4.6394936314421 2.90176280109064 2.650729618001 
4.76597820736257 2.50008426927291 2.50645645915897 
4.18172651036397 3.05046118185704 3.05284268479899 
4.13495196465491 2.64135870230247 3.32952175643761 
4.57841628900316 2.580526154616 3.17768154072854 
4.5858648475865 2.92382923800713 2.96469539322185 
5.66075053459193 3.95646355890624 2.5104688504962 
5.55181315932069 3.82199628745351 2.7909017432113 
4.7904340203342 4.42322524962328 1.09438642621262 
4.32359992363982 4.37752685309597 1.07013404718726 
4.6041376963993 3.86872122242656 1.04238614182417 
4.29183972176818 3.98881588196625 1.03049906858087 
3.46045684756723 4.16860503356582 2.29119348428016 
3.44110328085987 4.51121289297153 2.39915546040136 
3.30941995060796 4.21489883413021 1.93006784657382 
3.24020528798436 4.46034713723443 2.06141601197104 
2.2437056398989 2.01623080696947 2.44848393652117 
2.52171675715892 2.3294197027292 2.73673842352273 
2.52672031301432 2.18752860556417 2.4631969330013 
2.02999243522045 2.13374379741831 2.8819786883475 
2.12653862464003 2.22938278215095 2.96333848215038 
4.65666717148447 3.01720977627513 4.68877285278135 
4.52009975030628 3.1839526542944 4.39867547965289 
4.79137583090357 2.81675691382964 4.49329210149915 
4.71126329969707 2.90836311293373 4.27017638532206 
POLYGONS 966 5913
5 0 2 5 271 488 
5 4 2 0 1035 577 
5 0 488 351 1036 1035 
5 1 6 526 8 7 
4 5 6 1 271 
6 7 1 271 488 351 331 
5 330 331 351 1036 530 
5 3 330 530 604 967 
5 4 577 604 967 970 
5 3 8 526 970 967 
6 4 2 5 6 526 970 
5 8 7 331 330 3 
5 9 10 274 389 383 
6 9 10 817 816 369 737 
5 383 389 575 797 796 
5 274 283 857 575 389 
5 10 274 283 838 817 
5 12 335 784 652 397 
4 11 401 775 617 
5 13 19 21 22 20 
5 13 23 760 16 19 
5 20 13 23 15 868 
6 14 18 17 916 748 749 
6 14 18 782 760 16 693 
4 692 693 14 749 
5 15 23 760 782 629 
5 15 629 458 908 868 
6 22 20 868 908 916 748 
5 19 21 692 693 16 
5 21 22 748 749 692 
4 17 458 908 916 
5 18 17 458 629 782 
4 26 31 339 440 
5 26 440 804 597 598 
5 24 30 32 792 27 
4 24 29 25 30 
5 27 24 29 597 598 
5 25 28 852 32 30 
7 29 25 28 798 805 804 597 
6 32 792 815 691 855 852 
5 338 691 855 798 805 
6 26 31 815 792 27 598 
5 338 339 31 815 691 
4 28 798 855 852 
6 33 35 343 275 905 909 
5 33 35 287 427 36 
5 35 287 34 513 343 
5 34 513 524 505 803 
5 34 287 427 834 803 
6 37 38 43 42 736 735 
6 22 376 414 37 735 748 
4 38 39 44 43 
5 37 38 39 415 414 
5 371 372 21 692 933 
5 41 40 371 933 929 
6 41 40 997 415 39 44 
5 371 372 998 997 40 
6 42 736 749 692 933 929 
5 21 22 376 998 372 
5 43 42 929 41 44 
5 45 414 376 770 764 
4 37 302 45 414 
5 670 671 764 770 465 
5 22 20 465 770 376 
5 20 465 670 880 868 
6 302 303 677 671 764 45 
5 735 748 916 975 974 
6 302 303 973 974 735 37 
5 303 677 980 972 973 
5 543 645 510 1031 1032 
5 48 543 1032 1029 945 
6 47 46 48 945 948 936 
5 46 48 543 645 848 
5 47 46 848 478 477 
5 476 687 509 845 822 
6 476 477 47 936 935 822 
6 509 510 645 848 478 687 
4 49 50 39 44 
4 52 51 451 443 
5 366 558 533 957 900 
5 53 387 558 533 532 
4 53 387 703 785 
5 54 366 558 387 703 
5 56 55 329 384 486 
4 58 60 982 665 
4 57 310 469 470 
6 62 15 868 880 57 310 
6 62 310 469 61 716 729 
6 63 59 58 665 459 342 
6 59 58 60 470 469 61 
5 62 15 629 639 729 
6 60 470 57 880 981 982 
4 63 59 61 716 
5 63 342 639 729 716 
6 65 70 71 64 423 741 
5 69 301 635 423 741 
5 72 67 288 537 634 
5 64 72 634 635 423 
5 66 68 538 511 308 
5 65 70 512 511 308 
4 71 64 72 67 
5 69 66 308 65 741 
4 69 66 68 301 
5 71 67 288 512 70 
6 68 301 635 634 537 538 
5 511 512 288 537 538 
5 75 77 900 366 560 
5 900 901 1019 1000 77 
6 3 73 999 1001 74 330 
6 54 366 560 530 604 605 
5 74 75 560 530 330 
5 75 77 1000 1001 74 
6 76 666 968 696 676 675 
6 268 269 78 750 746 657 
6 268 419 442 300 656 657 
6 319 320 79 593 594 80 
5 81 86 812 906 902 
6 82 86 81 332 474 475 
6 84 85 412 501 546 630 
6 82 475 83 701 772 757 
4 82 86 812 757 
5 87 94 89 92 90 
5 87 91 82 86 94 
5 90 87 91 323 97 
6 81 86 94 89 88 95 
5 91 82 475 402 323 
5 96 332 474 610 648 
5 474 475 402 619 610 
6 93 88 95 96 648 649 
6 90 97 618 649 93 92 
4 95 96 332 81 
4 93 88 89 92 
5 97 323 402 619 618 
5 98 48 46 499 447 
5 98 48 543 544 348 
5 102 348 98 447 448 
5 102 101 739 544 348 
5 100 101 102 448 307 
5 99 100 307 500 849 
5 499 500 849 848 46 
5 645 771 99 849 848 
5 100 101 739 771 99 
4 107 275 905 485 
5 107 275 523 104 583 
5 103 638 108 966 964 
5 106 103 638 568 105 
5 108 494 904 965 966 
5 108 494 316 568 638 
5 2 5 110 921 920 
6 623 712 922 921 110 810 
6 5 110 810 473 272 271 
4 112 111 706 705 
5 112 473 810 623 705 
6 111 109 952 953 713 706 
6 0 2 920 919 950 951 
6 712 713 953 950 919 922 
6 111 109 489 272 473 112 
6 488 489 109 952 951 0 
4 31 743 874 815 
5 743 778 466 873 874 
6 113 293 548 572 863 864 
4 96 114 438 648 
5 117 742 115 898 887 
4 115 116 774 898 
6 115 116 872 871 580 742 
6 369 370 480 481 738 737 
6 118 283 857 858 779 744 
6 588 779 858 862 850 813 
6 340 515 590 793 814 659 
6 424 482 744 779 588 658 
7 340 424 482 554 587 602 515 
5 118 283 838 587 554 
4 118 554 482 744 
6 590 603 839 828 851 793 
4 119 800 802 819 
7 23 760 801 800 119 823 846 
5 13 19 688 687 509 
6 818 819 119 823 824 317 
5 13 23 846 845 509 
5 317 318 476 822 824 
5 91 82 757 891 121 
5 528 529 702 773 890 
5 120 121 91 323 324 
6 120 121 891 890 528 282 
6 281 282 120 324 403 122 
5 83 122 403 402 475 
6 83 122 281 529 702 701 
5 123 374 445 446 539 
6 125 395 910 380 549 491 
6 36 33 487 528 282 404 
4 124 125 491 490 
5 486 487 33 909 384 
7 58 60 126 714 715 492 493 
5 126 127 718 699 714 
6 60 126 127 672 983 982 
5 127 672 696 676 718 
5 641 642 128 999 73 
4 132 129 434 435 
6 130 131 434 129 950 951 
5 132 129 950 919 564 
5 132 435 429 563 564 
5 0 951 130 1033 1035 
6 417 429 563 545 4 577 
4 4 2 920 545 
4 130 131 416 1033 
6 416 417 429 435 434 131 
4 136 137 134 1020 
6 141 411 553 136 1020 1022 
5 137 134 145 365 364 
7 145 134 1020 1022 143 142 144 
5 135 144 145 365 139 
5 135 140 297 142 144 
6 139 135 140 133 599 600 
5 136 137 364 552 553 
5 141 138 133 599 411 
5 364 365 139 600 552 
5 141 138 298 143 1022 
5 133 140 297 298 138 
4 142 143 298 297 
5 148 146 731 823 846 
7 119 531 147 615 616 837 800 
4 119 531 731 823 
5 15 23 846 148 62 
6 148 146 149 730 729 62 
5 149 146 731 531 147 
5 616 640 783 836 837 
4 149 147 615 730 
5 465 510 1031 150 670 
4 57 150 670 880 
4 62 148 311 310 
5 148 311 1028 845 846 
6 57 150 1031 1028 311 310 
5 20 13 509 510 465 
4 156 152 506 595 
5 151 156 595 930 931 
6 155 151 931 895 847 811 
5 155 151 156 152 154 
6 154 152 506 6 5 110 
6 153 1 271 272 944 943 
6 1 6 506 595 930 153 
6 153 930 931 895 940 943 
5 473 711 847 811 810 
5 154 110 810 811 155 
5 272 473 711 941 944 
5 157 158 336 53 532 
5 335 336 53 785 784 
5 120 121 353 428 405 
5 91 121 353 606 87 
6 353 428 799 798 28 606 
7 90 87 606 28 852 853 519 
4 160 159 536 596 
5 162 161 160 596 680 
5 420 608 1006 1008 724 
6 159 149 147 1007 1005 536 
5 160 159 149 146 161 
5 147 531 724 1008 1007 
5 531 724 420 732 731 
5 420 608 680 162 732 
5 162 161 146 731 732 
5 165 373 561 976 978 
5 164 373 165 960 961 
4 126 669 794 714 
4 126 127 163 669 
4 695 766 561 976 
6 699 714 794 766 695 829 
7 163 164 373 561 766 794 669 
6 127 163 164 961 719 718 
5 718 719 830 829 699 
4 165 960 632 978 
5 632 830 719 961 960 
5 167 633 684 166 694 
5 597 609 34 803 804 
5 280 361 505 524 516 
4 360 367 26 440 
7 360 361 280 959 958 368 367 
5 597 598 333 866 609 
5 514 586 959 958 865 
5 333 368 958 865 866 
6 360 361 505 803 804 440 
6 513 514 865 866 609 34 
5 367 368 333 598 26 
5 170 171 472 790 277 
5 471 472 790 776 413 
5 153 170 277 938 930 
5 788 789 168 912 896 
6 168 569 776 413 650 789 
5 168 569 939 932 912 
6 569 776 790 277 938 939 
5 169 171 170 153 943 
5 721 788 896 895 940 
6 169 527 720 721 940 943 
5 169 171 472 471 527 
5 331 351 628 1015 1016 
5 330 331 1016 1017 74 
5 74 75 173 1014 1017 
6 351 628 747 733 1034 1036 
5 172 709 806 733 747 
4 806 807 1034 733 
6 172 173 75 560 710 709 
6 172 173 1014 1015 628 747 
5 174 412 501 542 541 
6 11 401 408 279 541 542 
5 162 64 423 681 680 
5 65 175 115 742 741 
5 175 115 116 290 433 
6 176 456 754 753 832 831 
5 70 71 347 745 762 
5 290 433 761 753 832 
6 65 175 433 761 762 70 
6 71 64 162 161 457 347 
6 176 160 596 871 872 831 
5 116 290 832 831 872 
5 161 160 176 456 457 
4 178 270 922 712 
6 181 180 177 337 266 452 
6 155 154 443 451 452 181 
5 177 337 178 712 623 
5 180 177 623 810 811 
5 179 266 337 178 270 
6 51 179 270 922 921 52 
5 51 179 266 452 451 
5 154 110 921 52 443 
4 181 180 811 155 
6 182 183 185 346 345 187 
5 182 184 295 188 183 
5 187 182 184 80 319 
5 188 183 185 624 570 
5 188 295 467 520 570 
5 467 520 461 593 594 
5 79 186 643 461 593 
5 80 184 295 467 594 
6 185 346 393 186 643 624 
5 79 186 393 394 320 
5 319 320 394 345 187 
6 305 306 350 777 791 325 
6 189 472 790 791 325 521 
6 349 413 471 537 634 540 
5 471 472 189 538 537 
4 189 521 68 538 
5 349 350 777 776 413 
5 349 350 306 915 540 
4 301 432 914 635 
6 68 301 432 305 325 521 
6 321 322 191 355 1015 1014 
4 355 878 628 1015 
4 190 193 780 551 
6 191 355 878 879 400 454 
6 192 193 190 407 267 341 
6 406 407 190 551 550 455 
5 191 322 406 455 454 
6 192 193 780 786 747 172 
4 192 172 173 341 
5 267 321 1014 173 341 
5 321 322 406 407 267 
6 865 870 77 900 957 958 
6 497 533 558 710 709 555 
5 368 497 533 957 958 
6 75 173 341 869 870 77 
5 192 172 709 555 334 
5 333 334 555 497 368 
6 333 334 192 341 869 866 
6 157 425 498 497 533 532 
5 195 194 449 573 381 
5 112 111 449 194 313 
5 195 194 313 708 683 
5 852 853 328 977 32 
5 196 328 977 979 422 
6 32 792 867 883 979 977 
5 422 662 882 883 979 
6 123 392 460 104 583 539 
6 106 105 391 913 833 197 
4 481 574 199 738 
5 10 781 787 734 817 
5 581 582 816 817 734 
6 201 382 581 734 787 660 
4 396 450 201 660 
5 198 199 574 450 396 
6 198 199 738 737 9 200 
6 201 382 480 481 574 450 
5 370 480 382 581 582 
6 198 200 781 787 660 396 
4 9 10 781 200 
4 369 370 582 816 
6 584 650 720 936 935 755 
5 317 318 825 826 483 
5 483 584 650 789 826 
5 476 477 763 825 318 
4 720 721 47 936 
5 317 483 584 755 824 
5 47 477 763 788 721 
4 755 824 822 935 
5 98 48 945 454 400 
6 202 315 455 550 698 697 
6 543 544 987 988 203 1032 
6 98 348 661 698 550 400 
4 348 544 987 661 
5 202 203 1032 1029 315 
4 202 203 988 697 
6 303 409 971 969 673 677 
5 3 73 641 204 8 
5 165 296 621 963 960 
4 207 205 206 991 
6 164 961 962 327 990 989 
5 962 963 621 993 327 
6 208 207 991 993 621 296 
6 164 373 385 697 988 989 
5 207 205 299 386 208 
5 205 206 661 698 299 
7 206 661 987 990 327 993 991 
6 165 296 208 386 385 373 
6 209 294 875 893 616 640 
5 616 837 352 894 893 
6 45 183 185 273 410 302 
5 50 39 415 210 356 
6 210 182 183 45 414 415 
6 770 771 99 996 998 376 
5 100 101 654 291 212 
6 188 295 654 101 739 765 
6 99 100 212 213 995 996 
6 210 358 213 995 997 415 
5 188 183 45 764 765 
5 211 184 295 654 291 
5 211 184 182 210 358 
5 213 212 291 211 358 
6 169 171 1011 1016 1015 355 
4 170 171 1011 214 
5 170 214 7 1 153 
5 7 214 1011 1016 331 
4 272 489 876 944 
6 169 355 878 876 944 943 
5 19 21 372 430 688 
5 196 328 502 889 934 
4 328 502 519 853 
5 304 461 643 644 613 
6 215 286 625 571 327 962 
4 217 216 453 614 
6 215 217 614 613 644 286 
5 216 453 622 621 963 
5 217 216 963 962 215 
6 613 614 453 622 758 304 
5 131 218 219 220 416 
5 130 131 218 582 581 
6 130 581 734 733 1034 1033 
6 218 219 603 839 816 582 
5 219 220 388 602 603 
5 388 602 587 806 807 
6 220 388 807 1034 1033 416 
6 733 734 817 838 587 806 
6 223 133 138 860 854 222 
5 221 141 138 860 859 
5 356 357 359 358 210 
5 300 656 884 893 875 
4 424 425 498 482 
7 26 31 743 744 482 498 367 
4 120 282 404 405 
5 525 704 725 819 802 
5 124 490 725 819 818 
6 89 92 375 695 766 767 
5 92 93 507 479 375 
5 375 479 840 829 695 
5 699 700 224 840 829 
6 93 88 578 312 508 507 
5 224 508 312 715 700 
5 507 508 224 840 479 
5 88 89 767 795 578 
5 130 581 382 952 951 
5 117 859 221 888 887 
5 321 322 512 511 225 
6 322 406 627 762 70 512 
5 308 309 362 225 511 
6 226 565 1026 1024 728 727 
5 226 227 309 362 727 
6 267 321 225 362 727 728 
5 267 407 626 1024 728 
6 626 627 762 761 1026 1024 
5 175 227 226 565 433 
5 65 175 227 309 308 
6 128 231 1009 1010 1001 999 
5 228 363 1010 1001 1000 
4 231 496 522 1009 
6 142 297 522 1009 1010 363 
5 229 140 297 522 496 
5 228 230 1018 1019 1000 
5 144 142 363 228 230 
5 352 525 802 800 837 
5 123 374 808 809 392 
6 137 107 275 343 284 134 
6 137 107 583 539 446 364 
6 232 285 514 586 809 808 
6 145 232 808 374 445 365 
5 104 460 516 524 523 
5 145 232 285 284 134 
5 426 540 634 72 756 
6 72 67 949 935 755 756 
5 349 413 650 584 585 
4 426 540 349 585 
5 288 289 948 949 67 
5 289 527 720 936 948 
5 288 289 527 471 537 
5 362 363 1010 1012 225 
5 228 726 870 77 1000 
5 74 1001 1010 1012 1017 
5 225 321 1014 1017 1012 
5 362 363 228 726 727 
6 201 109 489 876 877 660 
4 201 109 952 382 
5 444 503 767 795 668 
5 233 667 669 163 986 
7 202 203 233 667 668 444 234 
5 233 203 988 989 986 
4 163 164 989 986 
5 234 444 503 562 559 
5 202 234 559 385 697 
5 561 562 503 767 766 
5 722 723 750 746 235 
6 722 723 903 907 831 176 
5 176 160 159 235 722 
5 286 625 969 968 666 
6 185 273 971 969 625 624 
6 34 287 354 1027 1025 609 
5 29 25 607 1027 1025 
4 29 597 609 1025 
4 25 28 606 607 
5 353 354 1027 607 606 
5 427 428 799 835 834 
4 798 799 835 805 
5 159 149 730 717 235 
6 61 663 722 235 717 716 
4 61 469 236 663 
5 161 146 148 311 457 
5 176 456 236 663 722 
6 310 311 457 456 236 469 
5 157 158 340 424 425 
5 778 779 858 856 466 
6 547 631 797 796 740 759 
4 145 144 230 232 
6 238 237 439 556 508 312 
5 238 312 715 492 398 
5 232 230 1018 751 808 
6 53 336 515 602 388 387 
4 158 336 515 340 
5 554 555 709 806 587 
4 125 395 495 484 
5 404 405 428 427 36 
6 124 125 484 483 317 818 
5 483 484 495 821 826 
5 114 239 237 439 438 
4 671 677 673 984 
5 60 126 669 667 470 
5 57 150 233 667 470 
6 150 233 986 984 671 670 
6 127 163 986 984 673 672 
5 35 343 284 647 567 
6 55 136 137 107 485 329 
5 134 284 647 1021 1020 
5 240 56 486 487 566 
5 33 35 567 566 487 
5 566 567 647 1021 240 
6 55 136 1020 1021 240 56 
5 329 384 909 905 485 
6 571 625 969 673 984 985 
6 215 76 675 719 961 962 
4 215 76 666 286 
4 327 571 985 990 
5 467 468 992 994 520 
5 487 528 890 885 566 
5 240 566 885 768 769 
7 10 274 462 378 193 780 781 
4 192 193 378 334 
6 334 378 462 118 554 555 
4 274 283 118 462 
5 41 242 241 49 44 
5 589 590 603 219 651 
5 69 66 298 138 860 
6 66 68 521 522 297 298 
5 243 305 325 326 418 
5 243 222 854 432 305 
5 244 223 222 243 418 
5 244 223 133 140 229 
5 244 229 496 326 418 
5 69 301 432 854 860 
5 245 565 226 647 567 
6 284 285 726 727 226 647 
5 285 514 865 870 726 
5 245 354 1027 1026 565 
5 35 287 354 245 567 
4 657 717 235 746 
5 78 247 246 248 269 
5 78 247 682 723 750 
4 247 246 664 682 
6 59 61 663 664 246 248 
5 63 268 657 717 716 
5 59 248 269 268 63 
5 113 763 788 896 864 
6 113 293 431 478 477 763 
6 314 500 849 842 548 572 
4 293 431 842 548 
5 431 478 848 849 842 
5 314 572 863 847 711 
5 499 500 314 711 941 
6 47 46 499 941 940 721 
5 54 605 292 653 703 
5 217 614 617 775 827 
7 12 249 589 590 515 336 335 
7 219 220 653 652 397 620 651 
5 387 388 220 653 703 
4 249 589 651 620 
4 12 249 620 397 
6 251 453 614 617 11 542 
6 217 216 250 955 946 827 
6 591 592 377 954 955 250 
4 279 377 592 541 
5 216 250 591 251 453 
5 541 542 251 591 592 
5 87 94 504 607 606 
6 757 812 832 290 886 891 
5 290 433 565 245 886 
6 504 607 1027 1026 761 753 
6 86 94 504 753 832 812 
6 353 354 245 886 891 121 
5 570 571 985 765 188 
5 764 765 985 984 671 
5 380 910 904 965 927 
4 251 252 622 453 
6 250 441 422 662 690 591 
6 251 252 437 689 690 591 
6 436 437 252 622 621 296 
6 216 250 441 632 960 963 
6 165 296 436 883 979 978 
6 548 686 633 995 996 842 
6 430 431 842 996 998 372 
6 40 253 167 633 995 997 
5 197 254 255 344 833 
5 256 255 254 637 679 
6 209 636 678 342 639 640 
5 247 246 238 237 239 
5 246 248 399 398 238 
5 313 314 711 473 112 
6 447 499 941 944 876 877 
5 191 289 948 945 454 
5 191 289 527 169 355 
5 98 400 879 877 447 
5 358 359 166 684 213 
6 49 50 356 357 674 241 
5 357 359 166 694 674 
6 253 167 694 674 241 242 
4 41 242 253 40 
4 213 684 633 995 
5 300 442 534 294 875 
5 419 442 534 636 678 
5 63 268 419 678 342 
4 209 294 534 636 
5 260 258 257 278 579 
5 258 257 204 641 642 
5 259 278 579 255 344 
4 256 255 579 260 
5 59 58 493 399 248 
5 246 238 312 578 664 
6 663 664 578 795 668 236 
5 469 470 667 668 236 
6 25 30 562 503 504 607 
5 92 90 519 502 375 
5 94 89 767 503 504 
6 30 32 977 976 561 562 
6 261 174 541 592 464 276 
5 252 437 576 631 547 
4 575 576 631 797 
4 208 296 436 390 
6 207 383 796 740 992 991 
5 208 207 383 389 390 
5 252 547 759 758 622 
5 416 417 292 653 220 
5 228 230 232 285 726 
5 226 227 1023 1021 647 
5 143 309 227 1023 1022 
5 142 143 309 362 363 
5 168 517 821 826 789 
7 462 463 867 874 743 744 118 
5 390 436 883 867 463 
6 689 843 856 466 873 882 
4 437 576 843 689 
6 225 511 538 189 1013 1012 
5 171 472 189 1013 1011 
5 288 289 191 322 512 
5 190 262 386 299 551 
6 205 200 781 780 551 299 
6 262 379 463 390 208 386 
5 205 200 9 383 207 
5 190 193 378 379 262 
5 95 88 578 664 682 
6 81 95 682 723 903 902 
5 236 456 754 444 668 
5 685 841 820 937 942 
7 103 254 255 579 791 777 638 
6 105 391 646 939 569 568 
6 259 344 833 913 911 601 
5 277 278 259 601 938 
4 103 254 197 106 
5 420 421 426 756 732 
6 423 635 914 924 926 681 
5 421 426 540 915 917 
6 420 421 917 923 925 608 
5 162 64 72 756 732 
6 751 752 892 901 1019 1018 
6 194 307 448 396 450 449 
5 194 307 500 314 313 
5 201 109 111 449 450 
5 147 615 884 1003 1007 
5 263 262 190 407 626 
6 24 29 1025 1024 626 263 
6 333 334 378 379 27 598 
5 24 263 262 379 27 
6 196 422 441 937 942 934 
5 566 567 245 886 885 
5 103 254 637 535 964 
6 421 426 585 484 125 491 
5 119 531 724 725 819 
6 264 234 559 263 626 627 
5 24 30 562 559 263 
4 264 627 762 745 
5 264 234 444 754 745 
5 198 265 655 611 199 
5 198 200 205 206 265 
6 206 265 655 468 992 991 
6 276 464 690 689 843 844 
5 143 298 66 308 309 
5 521 522 1009 1013 189 
5 27 379 463 867 792 
5 421 491 549 897 917 
5 257 204 8 7 214 
5 214 257 278 277 170 
5 261 85 84 844 276 
4 93 507 557 649 
6 243 418 679 637 535 518 
5 305 306 918 518 243 
4 108 350 777 638 
5 108 350 306 918 966 
5 325 326 260 579 791 
5 256 260 326 418 679 
4 550 551 299 698 
5 206 265 102 348 661 
5 265 102 448 396 198 
5 102 101 654 655 265 
5 100 212 195 194 307 
5 212 195 381 612 291 
6 573 574 199 611 612 381 
5 213 212 195 683 684 
4 842 849 99 996 
5 263 262 386 385 559 
5 71 67 949 1030 347 
5 347 457 311 1028 1030 
5 231 258 260 326 496 
4 128 231 258 642 
7 349 350 108 494 495 484 585 
5 168 517 316 568 569 
5 465 510 645 771 770 
6 264 315 1029 1030 347 745 
5 264 315 455 406 627 
6 630 631 576 843 844 84 
6 306 915 917 897 928 918 
6 544 739 765 985 990 987 
6 175 227 1023 899 898 115 
6 116 290 886 885 768 774 
5 240 769 899 1023 1021 
7 231 258 257 214 1011 1013 1009 
6 251 252 547 546 501 542 
6 221 141 1022 1023 899 888 
6 741 742 117 859 860 69 
6 239 247 682 95 96 114 
4 261 85 412 174 
4 264 234 202 315 
5 233 203 1032 1031 150 
5 458 459 342 639 629 
5 385 386 299 698 697 
4 267 341 869 728 
4 271 272 489 488 
4 409 410 273 971 
5 389 390 463 462 274 
5 672 673 677 980 983 
6 530 560 710 807 1034 1036 
5 275 343 513 524 523 
5 277 278 579 791 790 
5 279 377 954 947 408 
4 280 516 586 959 
5 461 520 570 624 643 
4 281 282 528 529 
5 441 632 830 820 937 
6 838 839 828 861 857 283 
5 284 285 514 513 343 
5 624 625 286 644 643 
4 454 455 550 400 
5 353 354 287 427 428 
6 389 390 436 437 576 575 
5 685 881 889 934 942 
5 380 549 897 928 927 
6 550 551 780 786 879 400 
5 611 612 291 654 655 
5 292 417 577 604 605 
5 840 841 685 881 479 
5 436 437 689 882 883 
5 467 468 655 654 295 
4 302 303 409 410 
5 304 461 520 994 758 
5 305 306 915 914 432 
5 447 448 307 500 499 
6 312 578 795 794 714 715 
5 313 314 572 707 708 
5 454 455 315 1029 945 
5 494 495 821 517 316 
4 323 324 403 402 
5 325 326 496 522 521 
6 570 571 327 993 994 520 
6 328 502 375 695 976 977 
6 420 421 491 490 725 724 
5 338 339 440 804 805 
4 340 424 658 659 
5 422 441 632 978 979 
4 345 346 393 394 
5 456 457 347 745 754 
6 488 489 876 878 628 351 
6 352 525 704 1002 1004 894 
6 458 459 665 982 981 908 
4 364 365 445 446 
6 656 657 717 730 615 884 
4 366 558 710 560 
5 373 385 559 562 561 
4 367 368 497 498 
5 414 415 997 998 376 
5 513 514 586 516 524 
5 375 479 881 889 502 
4 378 379 463 462 
5 580 681 423 741 742 
5 387 388 807 710 558 
5 494 495 395 910 904 
4 391 646 911 913 
5 392 460 516 586 809 
6 438 439 556 557 649 648 
5 447 448 396 660 877 
5 680 681 580 871 596 
4 398 399 493 492 
6 401 408 947 946 827 775 
5 413 471 527 720 650 
4 406 407 626 627 
5 552 553 411 599 600 
4 476 477 478 687 
5 416 417 577 1035 1033 
5 584 585 426 756 755 
5 430 431 478 687 688 
4 433 565 1026 761 
5 503 504 753 754 444 
4 591 592 464 690 
4 449 450 574 573 
4 515 590 603 602 
6 822 845 1028 1030 949 935 
5 497 498 482 554 555 
4 483 484 585 584 
6 615 616 640 639 729 730 
5 601 911 646 939 938 
4 507 508 556 557 
5 509 510 1031 1028 845 
5 518 535 964 966 918 
5 530 604 577 1035 1036 
6 536 596 680 608 1006 1005 
5 634 635 914 915 540 
6 609 866 869 728 1024 1025 
5 543 544 739 771 645 
5 563 564 919 920 545 
4 546 547 631 630 
4 548 572 707 686 
5 568 569 776 777 638 
4 570 571 625 624 
6 575 576 843 856 858 857 
6 586 809 752 892 956 959 
5 602 603 839 838 587 
5 658 659 814 813 588 
5 680 681 926 925 608 
5 618 619 610 648 649 
4 615 616 893 884 
6 829 830 632 978 976 695 
5 621 622 758 994 993 
5 705 706 713 712 623 
5 628 747 786 879 878 
5 639 640 783 782 629 
6 683 684 633 686 707 708 
4 689 690 662 882 
5 720 721 788 789 650 
5 652 653 703 785 784 
5 786 787 660 877 879 
5 697 698 661 987 988 
5 663 664 682 723 722 
5 667 668 795 794 669 
5 711 847 895 940 941 
6 670 671 677 980 981 880 
5 672 673 969 968 696 
4 675 676 718 719 
4 699 700 715 714 
4 701 702 773 772 
5 724 725 704 1002 1008 
5 758 759 740 992 994 
4 709 710 807 806 
4 716 717 730 729 
5 727 728 869 870 726 
6 731 732 756 755 824 823 
5 733 734 787 786 747 
4 735 736 749 748 
5 764 765 739 771 770 
4 743 744 779 778 
5 753 754 745 762 761 
4 751 752 809 808 
5 772 773 890 891 757 
5 782 783 836 801 760 
5 788 789 826 825 763 
4 766 767 795 794 
5 768 769 899 898 774 
4 776 777 791 790 
4 780 781 787 786 
4 792 815 874 867 
5 813 814 793 851 850 
4 800 801 836 837 
5 804 805 835 834 803 
5 831 832 812 906 907 
4 816 817 838 839 
5 829 830 820 841 840 
5 823 824 822 845 846 
5 850 851 828 861 862 
5 863 864 896 895 847 
4 857 858 862 861 
4 865 866 869 870 
5 873 874 867 883 882 
4 868 880 981 908 
4 876 877 879 878 
5 893 894 1004 1003 884 
4 885 886 891 890 
4 887 888 899 898 
5 900 901 892 956 957 
5 895 896 912 932 931 
4 902 903 907 906 
6 908 916 975 972 980 981 
5 914 915 917 923 924 
5 927 928 918 966 965 
4 919 920 921 922 
4 923 924 926 925 
5 931 932 939 938 930 
4 935 936 948 949 
4 940 941 944 943 
5 948 949 1030 1029 945 
4 946 947 954 955 
4 950 951 952 953 
4 956 957 958 959 
4 960 961 962 963 
4 972 973 974 975 
4 976 977 979 978 
4 980 981 982 983 
5 984 985 990 989 986 
4 987 988 989 990 
4 991 992 994 993 
4 995 996 998 997 
5 1003 1004 1002 1008 1007 
4 1005 1006 1008 1007 
4 1009 1010 1012 1013 
5 1012 1013 1011 1016 1017 
4 1014 1015 1016 1017 
4 1020 1021 1023 1022 
4 1024 1025 1027 1026 
5 1029 1030 1028 1031 1032 
4 1033 1034 1036 1035 
