# vtk DataFile Version 2.0
polydata
ASCII
DATASET POLYDATA
POINTS 147 double
2.86950158112574 4.53618214963891 3.03599887981135 
2.73251359157755 4.79090800930292 2.65252629425326 
3.15606986225074 4.71845072299207 2.76649707060531 
2.58405335472945 4.6661292603283 2.92784395928087 
2.82489953044018 1.96019009493485 3.3965630905934 
1.41390237186428 2.33898741492345 2.40226468732073 
2.98227158371961 2.32921072809256 1.42976486555612 
3.46755567116869 3.23592076995408 1.35534239058184 
3.1626492321051 2.16868668949911 1.99647214697593 
3.15624547023359 3.04788398678338 1.80164013464913 
2.92029582292344 2.52421569845286 1.74817515520474 
3.22060406441877 1.99076434509023 1.69751720986122 
2.99864622704912 2.24815819383754 3.76409316778508 
2.03296699168959 1.724342330149 1.54652391485067 
1.89911266660816 1.73862287860989 1.84637520965483 
1.63146396770544 2.32174538823863 2.83450477130304 
2.49316297768968 2.39080472292838 1.4244714412006 
2.85628265065228 2.27364972296243 1.33341850614939 
1.25519986376526 3.16476320427975 3.26383472077536 
1.3866069879961 3.26033692154323 3.43074425951216 
4.08426457973073 1.75961938679833 3.014584574715 
4.47616100273617 1.7909221738526 2.84926539911206 
4.02650216138708 3.66996461356779 3.57567597672034 
4.15607021194203 3.61588127575423 3.28822648810121 
3.42763353102146 3.43323995976556 1.26583090661593 
4.52762549976458 2.25567745866875 2.16885433953784 
3.24356114854513 3.69842824445451 3.5272951060262 
3.54881977483007 2.4643449208509 3.01993742377911 
3.87272979127094 3.81678581909179 3.49544498470772 
3.39890974571356 3.75523105386203 3.6599185928759 
2.25929215019691 3.02023412604919 2.8654714786175 
1.90916021266697 2.73217072705215 3.05014194176568 
4.09347209086279 3.11726707168368 2.41122454056441 
3.92250125042472 4.06431544202746 1.68695508534601 
3.99462955515256 3.76817860112478 1.46052476233872 
1.67051757870888 2.71483460718951 2.96535793624311 
2.3083267817042 3.29967815098727 2.4338649753273 
1.68828916860672 3.06099230330325 1.85469422481171 
2.93054029402103 4.02599917784991 3.47155247450445 
2.7894465201598 4.2008821502373 2.95704050319766 
2.57495684446541 3.10632888487261 2.3594403340337 
3.77281623728009 3.57884230989849 2.77273577289967 
3.61239273731271 2.29658808807105 2.29085554264495 
3.53651418006279 2.1232528283842 2.73654512565463 
2.586584692868 3.25892775928164 3.86659066444375 
3.98990846083783 3.19780167608771 1.61492919820623 
4.17761759758547 3.5265102308376 1.63023188094978 
1.53487310755649 2.27987467134841 2.15365221863581 
2.00660963481449 2.11610369660778 2.0796011041456 
2.54958842273007 2.87944474724796 2.73671667887516 
3.89910905699598 3.15790858994134 2.69082701565514 
3.67272543422922 3.01295814721597 2.6464613475931 
4.01817077122847 3.76342190505417 3.17939388959796 
2.59329295781279 2.61721471321077 1.87531364882933 
2.35840432161733 2.49246784996685 4.07728359597622 
3.87246682193797 2.37858074576588 3.3012940021949 
4.26774850352452 3.61050256824417 2.07469668118065 
1.86677989776528 3.81944079550745 3.35645616702407 
2.12707114679656 3.70886896536484 3.35280886506844 
2.40753298177164 3.75371113608213 3.69270600376533 
3.20138817578657 2.50701926055744 3.62732863762428 
3.40551509662018 3.22075813042224 2.70274639866772 
3.49664799575086 3.54080386001302 2.80048214731346 
3.06413412689136 3.72602802870483 1.4207434752644 
2.02005406709695 3.3686548457029 2.08579773499847 
3.21565867647221 2.50092223074442 3.17648925099471 
3.05542808381208 2.91536283175332 3.07772952400892 
2.21720277134655 3.02360281798056 1.67582437392324 
2.42479621885111 2.57836996306281 1.75170327233102 
1.40089190151783 2.60144970914819 2.07277362886876 
1.31191122793748 2.61611134147251 2.28736162828433 
4.19698205655256 1.67244922343428 2.49123910446642 
4.39889677949462 1.71130555702884 2.51696809263546 
2.05446598262608 3.96743604055844 2.12506811241793 
2.1669577745086 4.05770358803812 2.01617018190829 
3.94775294813421 2.93060028475116 2.19957290358133 
3.69760943290035 2.86877264341592 2.29710528885462 
3.95443381171298 1.70332053726573 2.83519119917444 
3.9551871681217 2.10290481453871 2.10740244233273 
4.23545430474183 2.36352228724264 2.02746640094096 
2.26701770093925 1.99649595818749 3.40198495571894 
2.11258021178666 2.3869296295955 3.9340059253772 
2.96896945024604 3.04676216911399 3.62863952593684 
3.03544001350069 3.26568301428978 3.77373639251839 
2.33110195187732 4.01666131526214 2.84871220219478 
1.85743882632597 4.17585907730262 2.95680068855237 
2.22467376711725 4.13268807363393 2.80040102973941 
3.39251137338248 4.20892625131138 1.71864727135316 
2.66819595008235 4.58809170799699 2.26651384534233 
3.17997121771978 3.88410977271546 2.48832911068953 
3.02641112376061 3.34239013191565 2.2966178537621 
4.05775689090849 2.65332161616031 3.77720687462344 
2.27001926134437 2.84075212038072 4.04958928194227 
1.44376195854608 2.96668136146397 2.50310488650553 
1.70574667887281 3.27106131889106 2.07015193283563 
1.16416772376082 3.26450497836842 2.70001695989951 
2.1790615494716 3.22750628979443 3.36742464601865 
2.55534691723681 3.1654544122228 3.79374473370024 
4.1382551048006 3.93338561446942 2.15126885693706 
3.90420846859725 3.98914878860697 2.45016277699363 
2.2704350569309 1.3332125057395 1.52765897676116 
2.85476664589683 1.57597865944664 1.39350440873443 
2.60145489887681 2.86892031687193 1.92566653922329 
3.89619639931784 3.11596364820069 3.98676307244724 
2.54639592399242 3.61429729394289 1.56423504572111 
2.26511843686166 3.08037078682463 1.71838843477306 
2.96205863072885 1.28268157720672 2.02572938986998 
3.09390274099844 1.54055601545756 1.63540298488274 
2.92013422874349 3.66081404961969 1.61354093650923 
3.03342635745504 3.15536808136401 1.85630937140588 
1.62656125503401 4.15463764789289 2.70486460042853 
1.81500993535557 4.0348048669393 2.12120137155031 
3.30265344301662 3.31538123254619 4.00045543416757 
3.6184899849562 3.03216881164574 4.09512399108784 
1.19343630496353 3.57918926984259 2.53919414088814 
1.49014153657803 3.63548076071782 2.06235471112749 
2.5244762343552 1.18870084494577 2.33760305628582 
2.24778415923321 1.14678668825541 1.77878650886297 
2.60421942148766 1.08100997128464 2.06308264887653 
2.27828130788603 1.29569098653324 2.35681757373492 
2.06467531092709 1.26714016429243 2.03898500737199 
3.76368193209667 2.3720402103446 3.822653357361 
3.60847730982005 2.43134738553063 3.89029734423266 
2.89283295921456 1.45692101034026 2.36235993785176 
2.96069461973575 2.15314594011399 3.02576809661689 
3.15720025035955 1.93788410453441 2.76960508994722 
2.92470645186294 1.9293412780503 2.41854808618603 
1.36755134360776 2.95288473682362 3.38152688546768 
1.96938960389205 2.74163594548713 3.86892841606758 
1.878037211278 2.9309349305037 3.44710847997512 
1.45796967124621 3.02949645572519 3.48749752470403 
4.71994284960969 2.19891610828366 2.90868890598111 
4.6394936314421 2.90176280109064 2.650729618001 
4.76597820736257 2.50008426927291 2.50645645915897 
4.18172651036397 3.05046118185704 3.05284268479899 
4.13495196465491 2.64135870230247 3.32952175643761 
4.57841628900316 2.580526154616 3.17768154072854 
4.5858648475865 2.92382923800713 2.96469539322185 
3.46045684756723 4.16860503356582 2.29119348428016 
3.44110328085987 4.51121289297153 2.39915546040136 
3.30941995060796 4.21489883413021 1.93006784657382 
3.24020528798436 4.46034713723443 2.06141601197104 
2.2437056398989 2.01623080696947 2.44848393652117 
2.52171675715892 2.3294197027292 2.73673842352273 
2.52672031301432 2.18752860556417 2.4631969330013 
2.02999243522045 2.13374379741831 2.8819786883475 
2.12653862464003 2.22938278215095 2.96333848215038 
POLYGONS 113 692
4 0 2 1 3 
5 4 80 146 143 124 
4 5 47 69 70 
5 7 9 76 75 45 
4 10 6 11 8 
5 10 8 42 76 9 
5 75 76 42 78 79 
5 12 4 80 81 54 
5 14 13 100 117 120 
5 14 48 142 119 120 
6 5 15 145 142 48 47 
5 17 16 13 100 101 
7 18 19 57 85 110 114 95 
5 20 21 72 71 77 
6 22 23 134 135 91 103 
5 9 10 53 102 109 
6 7 24 63 108 109 9 
6 10 6 17 16 68 53 
5 71 72 25 79 78 
6 50 51 27 55 135 134 
4 55 121 91 135 
4 26 29 112 83 
6 27 55 121 122 60 65 
6 28 29 26 62 41 52 
6 61 62 26 83 82 66 
5 27 51 61 66 65 
6 28 29 112 113 103 22 
4 28 22 23 52 
5 41 50 134 23 52 
5 50 51 61 62 41 
4 106 118 116 123 
5 12 4 124 65 60 
6 30 49 66 82 97 96 
6 80 81 128 129 31 146 
6 12 54 92 97 82 60 
4 54 81 128 92 
5 30 31 146 143 49 
4 30 31 129 96 
6 19 57 58 96 129 130 
6 20 21 131 136 135 55 
5 50 51 76 75 32 
6 51 61 90 109 9 76 
5 45 46 56 32 75 
6 33 87 140 138 99 98 
5 33 34 46 56 98 
6 41 50 32 56 98 99 
5 41 62 89 138 99 
6 89 90 109 108 140 138 
5 24 34 33 87 63 
5 7 24 34 46 45 
6 11 8 126 123 106 107 
5 42 43 125 126 8 
5 42 43 77 71 78 
5 32 50 134 137 132 
5 64 73 111 115 94 
5 35 93 95 18 127 
7 30 31 35 93 94 64 36 
5 35 31 129 130 127 
4 18 19 130 127 
5 36 64 73 86 84 
5 30 36 84 58 96 
5 85 86 73 111 110 
5 2 1 88 141 139 
5 16 13 14 48 68 
6 47 48 68 67 37 69 
5 5 15 35 93 70 
6 74 88 141 140 108 104 
5 27 43 125 124 65 
5 27 43 77 20 55 
5 69 70 93 94 37 
6 1 3 86 73 74 88 
6 32 75 79 25 133 132 
5 21 72 25 133 131 
5 42 43 27 51 76 
5 26 38 59 44 83 
5 37 67 105 64 94 
5 17 6 11 107 101 
5 39 38 26 62 89 
6 0 2 139 138 89 39 
6 40 36 84 39 89 90 
5 0 3 86 84 39 
4 40 90 109 102 
5 40 36 64 105 102 
4 82 83 44 97 
5 39 38 59 58 84 
5 10 8 126 144 53 
5 53 68 48 142 144 
6 40 49 143 144 53 102 
5 40 49 66 61 90 
4 40 36 30 49 
5 35 31 146 145 15 
5 58 59 44 97 96 
4 65 66 82 60 
6 82 83 112 113 122 60 
5 65 66 49 143 124 
5 67 68 53 102 105 
5 57 58 84 86 85 
4 61 62 89 90 
4 63 87 140 108 
5 73 74 104 105 64 
6 116 119 142 144 126 123 
5 91 103 113 122 121 
5 96 97 92 128 129 
5 93 94 115 114 95 
6 100 101 107 106 118 117 
5 104 105 102 109 108 
4 110 111 115 114 
5 117 118 116 119 120 
5 125 126 144 143 124 
5 132 133 131 136 137 
4 134 135 136 137 
4 138 139 141 140 
5 143 144 142 145 146 
