# vtk DataFile Version 2.0
polydata
ASCII
DATASET POLYDATA
POINTS 22 double
3.1626492321051 2.16868668949911 1.99647214697593 
3.15624547023359 3.04788398678338 1.80164013464913 
2.92029582292344 2.52421569845286 1.74817515520474 
3.54881977483007 2.4643449208509 3.01993742377911 
2.57495684446541 3.10632888487261 2.3594403340337 
3.61239273731271 2.29658808807105 2.29085554264495 
3.53651418006279 2.1232528283842 2.73654512565463 
2.54958842273007 2.87944474724796 2.73671667887516 
3.67272543422922 3.01295814721597 2.6464613475931 
2.59329295781279 2.61721471321077 1.87531364882933 
3.40551509662018 3.22075813042224 2.70274639866772 
3.21565867647221 2.50092223074442 3.17648925099471 
3.05542808381208 2.91536283175332 3.07772952400892 
3.69760943290035 2.86877264341592 2.29710528885462 
3.02641112376061 3.34239013191565 2.2966178537621 
2.60145489887681 2.86892031687193 1.92566653922329 
3.03342635745504 3.15536808136401 1.85630937140588 
2.96069461973575 2.15314594011399 3.02576809661689 
3.15720025035955 1.93788410453441 2.76960508994722 
2.92470645186294 1.9293412780503 2.41854808618603 
2.52171675715892 2.3294197027292 2.73673842352273 
2.52672031301432 2.18752860556417 2.4631969330013 
POLYGONS 13 79
5 2 0 5 13 1 
5 1 2 9 15 16 
5 3 8 10 12 11 
6 8 10 14 16 1 13 
5 5 6 18 19 0 
5 3 6 18 17 11 
5 5 6 3 8 13 
4 4 14 16 15 
5 2 0 19 21 9 
6 4 7 20 21 9 15 
5 4 7 12 10 14 
5 11 12 7 20 17 
5 18 19 21 20 17 
