# vtk DataFile Version 2.0
polydata
ASCII
DATASET POLYDATA
POINTS 22 double
1.89121023807431 1.07862308472092 2.90288079318844 
0.773110524566717 0.468200196447234 2.88097607923532 
1.35626794685738 1.53746696952449 2.39454628460702 
1.58040986306833 0.469827495311918 2.62404524549174 
0.508600038477814 1.2499070245582 2.63594705447978 
0.650140824574183 0.813132802611112 2.48928682262286 
1.85237422052053 0.723293339763497 2.99266763840045 
1.48579250626761 1.40350131778748 3.27513506507099 
1.4922954177232 0.684962185019837 3.45582442438102 
1.31950189820837 1.08363002576826 3.54489022880621 
1.75991359746173 1.15807313576054 2.46494311129584 
0.686155818982222 1.50857877158317 2.491225291524 
1.01960713135362 1.38690072682323 2.20879356743738 
1.18599233695323 0.455818712656822 3.39153139994667 
1.15012574659472 0.305145640690525 2.92412221985021 
0.807467644448752 0.957021131915877 3.45484965698993 
0.805682967645533 0.673074268788161 3.40076967551983 
1.54012484912129 0.759755599614334 2.29873831255047 
1.0322642435038 0.96773153668539 2.16403535237487 
1.10989360652868 1.72078358905758 2.88528872840739 
0.850870933514423 1.69029232602073 2.86232044532351 
0.597704535346199 1.35944269809321 3.03279461188896 
POLYGONS 13 79
5 0 6 8 9 7 
5 0 10 17 3 6 
5 7 0 10 2 19 
6 1 5 4 21 15 16 
6 1 5 18 17 3 14 
4 13 14 1 16 
5 2 10 17 18 12 
5 2 12 11 20 19 
6 9 7 19 20 21 15 
5 6 8 13 14 3 
5 8 9 15 16 13 
4 4 11 20 21 
5 5 4 11 12 18 
