# vtk DataFile Version 2.0
polydata
ASCII
DATASET POLYDATA
POINTS 24 double
4.97744759280144 3.69108531634207 3.49585098767103 
5.13176293116179 3.9652707222145 3.27484171362821 
4.13121718719722 3.6922680970299 3.78400335423519 
4.25641656041666 3.64128318072278 3.50970223635086 
3.94878449382382 3.84491253128498 3.69048103975797 
4.00583998930382 4.67228036273801 3.45151297821818 
3.88683576032976 4.21202507611669 3.81791855570741 
4.08409446596843 3.79292028311296 3.39318852510601 
5.23047534623175 3.95595710970504 3.8731870163484 
4.31723170638829 4.95393001114487 3.69519152571756 
4.39093016906479 4.88050101165765 3.92171459667009 
4.93428366356473 4.73740288523267 3.93440850739745 
4.16017848673644 4.37683136999617 4.13697006217836 
5.0171335326028 4.21454045349536 4.15165136527754 
5.0814632301868 3.74533018567203 3.8512548319713 
4.49273235977766 3.92871341210478 4.24174040204405 
4.66484260116625 3.91833923485009 4.24392781260675 
4.5382356707379 4.59931705735539 2.93213879416089 
4.206010801993 4.54051052986518 3.0065942852407 
4.25173042803843 4.30502657057755 2.95735148036208 
4.56299031827806 4.3769216014369 2.89061505189417 
5.28016452510016 4.13505808147366 3.44405824233632 
5.07414679237611 4.75105273725286 3.48391488825097 
4.8129601047235 4.8776293914751 3.2933305957688 
POLYGONS 14 86
5 8 13 11 22 21 
5 0 1 21 8 14 
5 5 9 23 17 18 
6 2 3 0 14 16 15 
4 4 2 3 7 
6 17 20 1 21 22 23 
6 10 11 13 16 15 12 
5 9 10 11 22 23 
6 0 3 7 19 20 1 
5 4 2 15 12 6 
5 5 6 12 10 9 
6 5 6 4 7 19 18 
4 8 13 16 14 
4 17 18 19 20 
