# vtk DataFile Version 2.0
polydata
ASCII
DATASET POLYDATA
POINTS 26 double
4.13121718719722 3.6922680970299 3.78400335423519 
4.25641656041666 3.64128318072278 3.50970223635086 
3.36306277662079 3.72516980899907 3.72062473391333 
3.64204680058927 2.54133390002373 3.20258179782803 
3.94878449382382 3.84491253128498 3.69048103975797 
3.50107586777066 3.77685825965831 3.83809376473775 
3.84294216227933 3.62778550635544 2.97156022326088 
3.96487878220496 3.26535845033845 2.8582914464313 
3.75938538397195 3.13510178500582 2.81820844180468 
4.08409446596843 3.79292028311296 3.39318852510601 
3.9618650445872 2.46599284641883 3.47720925177048 
3.2610018121 2.59559656050101 3.73837953089067 
3.47077271891238 3.34248584623865 2.90856958936615 
3.53438275216428 3.58323348367128 2.9961518131878 
3.29994438406827 2.57971894003901 3.35987026486595 
3.15694859782912 2.8837462058154 3.30680997899978 
3.0932013030641 2.93613928939149 3.71144262433094 
3.19067197613185 3.32466556510884 3.9501415298577 
4.15705473483515 2.73722888229486 3.93693638013548 
3.9964407419623 3.18706142524621 4.16858228434696 
3.4075969319215 3.36084520919572 4.16203555973291 
3.66460984584907 3.1124743332764 4.2655063025035 
3.87319471669307 2.48317263504098 3.92631106803084 
3.6356170286509 2.55367620657247 4.0291094895337 
4.31316507024623 3.11568135456314 3.28302528002984 
4.26352213080061 2.74837568126191 3.51473197421817 
POLYGONS 15 93
6 0 1 24 25 18 19 
6 7 8 3 10 25 24 
4 10 22 18 25 
4 2 5 20 17 
6 3 10 22 23 11 14 
6 4 5 2 13 6 9 
6 12 13 2 17 16 15 
5 3 8 12 15 14 
6 4 5 20 21 19 0 
4 4 0 1 9 
5 6 7 24 1 9 
5 7 8 12 13 6 
4 14 15 16 11 
6 16 17 20 21 23 11 
5 18 19 21 23 22 
