# vtk DataFile Version 2.0
polydata
ASCII
DATASET POLYDATA
POINTS 22 double
2.90261646674188 4.50933243078686 3.10307212231573 
2.80010584722953 4.71312363229985 2.8111698836635 
3.80579314254759 5.32830300463617 3.66925889975949 
3.11334180357574 4.61456752133205 3.56929505418108 
2.67276192101314 5.19177965984366 2.70981561985857 
3.03373575875355 4.60980508364998 2.90019676191045 
2.68715819778999 4.60662893087008 3.01218019485832 
3.42697622238461 5.4509231095142 3.98755896616049 
2.42331626365761 4.96208723975001 3.31111301707845 
3.24957679439223 5.9556038282847 3.58200030509464 
3.5561395600831 5.75341902357874 3.7856817886783 
3.82439395014988 5.52242895568992 3.57798249025316 
3.60827837125538 4.93610710003251 3.02325074499375 
3.6849247044397 4.88225570623915 3.37835911732342 
2.85810587380351 5.78073353033198 3.71386086866373 
2.85587403385413 4.94747360084414 3.84719260772001 
2.88363120661746 5.63640269010646 2.77761449200693 
3.65499402853777 5.48398009459469 2.99412549603715 
3.24478627559128 5.77594180987558 2.90450191575093 
3.03134332168644 5.32861718934806 4.00701629625383 
2.39023264227297 5.41410538114192 3.02480746386882 
2.46565792960454 5.58259056142123 3.0678245655211 
POLYGONS 13 79
4 2 7 10 11 
5 2 11 17 12 13 
5 0 6 8 15 3 
4 0 5 1 6 
5 3 0 5 12 13 
5 1 4 20 8 6 
7 5 1 4 16 18 17 12 
6 8 15 19 14 21 20 
5 9 14 21 16 18 
6 2 7 19 15 3 13 
5 9 10 7 19 14 
4 4 16 21 20 
5 9 10 11 17 18 
