# vtk DataFile Version 2.0
polydata
ASCII
DATASET POLYDATA
POINTS 24 double
1.4922954177232 0.684962185019837 3.45582442438102 
1.31950189820837 1.08363002576826 3.54489022880621 
0.78931932900511 1.28383926252776 4.25041680642429 
0.637446250908232 0.959636998917021 4.59031455273302 
0.870810607409836 0.867418553240831 4.8041238725484 
1.46044882747694 0.336805045270876 4.56710960534969 
1.16279212668869 0.2760220282021 4.64838382935091 
0.547993397804235 0.376448469704255 4.04075707200337 
0.56436149724713 0.641122753634511 4.53508307000031 
0.842262422721011 0.591012659427581 4.78241455638121 
1.59042862916138 0.214159750727881 3.92372098926795 
1.73413705109555 0.518215137172383 3.78805471897465 
1.45305860367069 1.32685972721449 4.07823626693942 
1.14042749690279 1.39326529979616 4.34268045812734 
1.26966417179156 1.14648406575134 4.68473277542589 
1.18599233695323 0.455818712656822 3.39153139994667 
0.644432102790928 0.975380498954382 3.63153883503824 
0.573189144478552 0.655379702466913 3.64104259799434 
0.807467644448752 0.957021131915877 3.45484965698993 
0.805682967645533 0.673074268788161 3.40076967551983 
0.831824709843594 0.103751428547532 4.07971203092908 
1.2372346220489 0.122127921423283 3.72335174230473 
1.69129338742742 0.922279707540954 4.52289725656782 
1.76607393961201 0.985282475613302 4.31942857555142 
POLYGONS 14 86
5 0 1 18 19 15 
6 2 3 8 7 17 16 
6 1 12 13 2 16 18 
4 3 4 9 8 
5 2 3 4 14 13 
5 10 11 0 15 21 
5 6 5 10 21 20 
6 6 5 22 14 4 9 
5 10 11 23 22 5 
6 7 17 19 15 21 20 
5 0 1 12 23 11 
5 8 7 20 6 9 
5 13 14 22 23 12 
4 16 17 19 18 
