# vtk DataFile Version 2.0
polydata
ASCII
DATASET POLYDATA
POINTS 24 double
2.93202791569145 1.99176840348547 3.58127249521747 
3.05569433869799 2.31079783495335 3.89721474774748 
2.30721080541043 3.08195340090985 3.07162441947687 
1.92028224559948 2.78875561753218 3.18994639496764 
2.64457162478314 2.93481935955164 2.91230675385253 
2.37445092232811 2.58335906452207 4.19648428446548 
3.2610018121 2.59559656050101 3.73837953089067 
3.29994438406827 2.57971894003901 3.35987026486595 
3.15694859782912 2.8837462058154 3.30680997899978 
2.58481183831958 2.40004575077112 2.68396031126366 
2.29875771102835 1.95659238339527 3.56529686690724 
2.2332536441107 2.52225952143941 4.12703076358307 
3.0932013030641 2.93613928939149 3.71144262433094 
2.30667075692915 2.82332512147214 4.1675339707295 
2.21401502528083 3.19742066922641 3.54308696484522 
2.55093368336941 3.09582036592889 3.9269673583456 
2.37782786744678 2.27140264869339 2.71344103095909 
1.93612664906914 2.4829250272306 3.10141081729245 
2.46109993174075 2.10168205109766 2.79531165283748 
2.18638790158747 1.98048547546896 3.35000342602203 
2.71823810574585 2.19244275728413 2.78637950914917 
3.07924815423762 2.17081360118592 3.15343637790086 
2.14267374616139 2.77163436555408 4.08412624414979 
1.98097972629482 3.00312276843796 3.59426116737067 
POLYGONS 14 86
6 0 10 19 18 20 21 
5 1 0 10 11 5 
5 1 0 21 7 6 
6 2 4 8 12 15 14 
7 10 11 22 23 3 17 19 
6 1 5 13 15 12 6 
4 5 11 22 13 
6 2 3 17 16 9 4 
4 2 3 23 14 
4 7 8 12 6 
6 7 8 4 9 20 21 
4 9 16 18 20 
5 14 15 13 22 23 
4 16 17 19 18 
