# vtk DataFile Version 2.0
polydata
ASCII
DATASET POLYDATA
POINTS 24 double
1.75504463903266 2.50774886130813 3.06352563299476 
1.92028224559948 2.78875561753218 3.18994639496764 
1.76466606179774 2.78562160252126 3.143680425345 
1.61032664546106 1.6688379689575 3.47129263847714 
2.07474683431038 1.72723420370628 3.43059521795279 
2.29875771102835 1.95659238339527 3.56529686690724 
2.2332536441107 2.52225952143941 4.12703076358307 
2.19011131782058 1.73405250853309 3.61454292591058 
1.36305941746524 2.03812049894075 3.30899415604256 
1.07821355809791 2.22021599186901 3.74322866515992 
1.93498478943362 2.12005795397066 4.40188171079318 
1.33348148681286 1.85370638615313 4.16248294889323 
1.55084296530008 2.20225615082149 4.442847053873 
1.57025485764117 1.60738924302927 3.9994818808393 
1.91986564296917 1.67307775456377 4.09017340872866 
1.93612664906914 2.4829250272306 3.10141081729245 
2.18638790158747 1.98048547546896 3.35000342602203 
1.10305651491564 2.64648485312478 3.84214689813377 
1.35251700692953 2.79708534983956 4.23541630662937 
1.44908421111998 3.06112612045072 3.55732129944192 
2.14267374616139 2.77163436555408 4.08412624414979 
1.98097972629482 3.00312276843796 3.59426116737067 
1.53742223394697 3.1319055013418 3.66010471443543 
1.51121389294421 2.96838428635122 4.17540615417844 
POLYGONS 14 86
5 8 9 11 13 3 
4 5 7 4 16 
6 3 4 16 15 0 8 
7 5 6 20 21 1 15 16 
5 2 1 21 22 19 
6 0 2 19 17 9 8 
5 11 12 18 17 9 
5 3 4 7 14 13 
6 6 10 12 18 23 20 
4 2 1 15 0 
5 5 6 10 14 7 
5 11 12 10 14 13 
5 17 18 23 22 19 
4 20 21 22 23 
