# vtk DataFile Version 2.0
polydata
ASCII
DATASET POLYDATA
POINTS 1051 double
4.71734516078397 2.35961459786382 4.76318852509016 
5.01255518371973 1.76556932977442 3.99249570148131 
4.76586552246631 2.89947362358816 4.5940687684207 
5.10390974010574 2.0838936996801 4.8190462682491 
5.62427340897549 2.85605058128947 3.7284693365265 
5.59542393908391 2.38947997021573 4.78614912070046 
4.97095295280134 1.76526182747623 4.50788699892398 
5.197932217498 1.69333570938081 4.14420171064326 
5.17715364841071 2.16762990541615 3.60257427976585 
5.51197275890676 2.21614106871332 3.63679656349206 
3.02001656791409 3.51436016641438 5.1184163125589 
3.35388853864356 3.65616614031762 4.94365767107698 
3.34460715047201 3.97178933360461 0.261219514681936 
0.693087071329899 4.78279454091776 5.53779312942222 
1.89121023807431 1.07862308472092 2.90288079318844 
0.773110524566717 0.468200196447234 2.88097607923532 
1.35626794685738 1.53746696952449 2.39454628460702 
1.58040986306833 0.469827495311918 2.62404524549174 
0.508600038477814 1.2499070245582 2.63594705447978 
0.650140824574183 0.813132802611112 2.48928682262286 
1.85237422052053 0.723293339763497 2.99266763840045 
1.48579250626761 1.40350131778748 3.27513506507099 
1.4922954177232 0.684962185019837 3.45582442438102 
1.31950189820837 1.08363002576826 3.54489022880621 
1.75991359746173 1.15807313576054 2.46494311129584 
2.90261646674188 4.50933243078686 3.10307212231573 
2.80010584722953 4.71312363229985 2.8111698836635 
3.80579314254759 5.32830300463617 3.66925889975949 
3.11334180357574 4.61456752133205 3.56929505418108 
2.67276192101314 5.19177965984366 2.70981561985857 
3.03373575875355 4.60980508364998 2.90019676191045 
2.68715819778999 4.60662893087008 3.01218019485832 
3.42697622238461 5.4509231095142 3.98755896616049 
2.42331626365761 4.96208723975001 3.31111301707845 
3.96970188924595 5.64977262594857 1.26869741825149 
4.00660807672465 5.26293732398435 2.44138420518231 
4.07300433845438 5.18246462549835 1.73647824363406 
3.69955973113978 5.91375892507968 1.46408872127769 
0.78931932900511 1.28383926252776 4.25041680642429 
0.637446250908232 0.959636998917021 4.59031455273302 
0.870810607409836 0.867418553240831 4.8041238725484 
1.46044882747694 0.336805045270876 4.56710960534969 
1.16279212668869 0.2760220282021 4.64838382935091 
0.547993397804235 0.376448469704255 4.04075707200337 
0.56436149724713 0.641122753634511 4.53508307000031 
0.842262422721011 0.591012659427581 4.78241455638121 
1.09630292078916 1.64227251053104 4.3711998335066 
3.11418378944027 1.4998456383734 3.71974015041965 
3.32442824742213 1.30491010667821 3.38632473566201 
2.93202791569145 1.99176840348547 3.58127249521747 
0.815172637750806 0.428468177744258 5.21735419281005 
0.848163550915478 0.926350348013772 5.42194564546756 
0.064219825779185 1.50435600404383 5.10942741793458 
0.18606227368655 1.30681852732845 4.69471410358207 
5.36524382016329 4.64829801531124 4.65414526004136 
0.043520299975333 3.96785094013012 4.13141905438261 
0.0751980623053988 4.07928379981979 3.77113203906683 
5.81789638332125 3.88431796776679 4.22505200724594 
4.81585468258842 5.01451645934837 0.709855808679276 
4.24150357550238 4.87406343750106 0.680329224344804 
1.50802910606128 2.43990775836081 2.60761876086756 
0.553672687788705 2.74046452455614 2.32386514971725 
0.726542974230977 2.71536131453391 1.9324095190899 
0.768661817393851 2.76260923407248 2.55141009738646 
1.27140636074765 2.72886523418734 1.94471382112229 
1.60741941029367 1.91762132169146 2.11669955038127 
0.735486453394748 2.28813418176023 1.62712159358883 
3.07472179726531 2.44828070091304 1.60392310341473 
3.57105164676908 3.35420910563891 1.60242320791628 
4.4398268133523 2.87277596562061 1.53391168168264 
3.26617613418457 2.2671283253104 2.2049384664136 
4.48795565524668 2.51290643073431 1.76036283387733 
4.37641907737522 2.79544699028993 1.37982169303163 
3.28232825649978 3.18421628883504 2.00674107704695 
3.01642154467998 2.6644453001765 1.93406708457617 
3.31680047512974 2.08460201957116 1.89511190396519 
5.09329676264305 3.32181052255827 3.35897827283923 
4.97744759280144 3.69108531634207 3.49585098767103 
0.252600966615026 3.73274991219796 4.13792841579112 
5.13176293116179 3.9652707222145 3.27484171362821 
0.755670094592556 3.18967013287268 0.851314011985325 
0.633844174305329 3.28543394962817 0.625004628020011 
1.6874520869063 4.22866110283374 1.18699459485238 
2.21849749345818 4.62938018918024 1.25671563856103 
2.02479928646324 5.330966419001 0.54869368502815 
2.11896869168798 4.36595727004937 1.32419291823896 
2.25949032434888 4.92908836551826 2.02206569964888 
1.54593345078392 4.24968405404501 1.86911476816126 
1.83805858029281 4.33895500595209 2.09144895964341 
1.96341323550568 5.12282663368044 2.1725379021022 
2.33787423755495 5.0518486476892 1.70646215203383 
1.63975616330427 4.80306333957536 2.2515991017235 
1.1944538610316 4.79194160823207 1.99614082492719 
2.08257495641959 4.3748225705751 1.98253874976343 
1.54554155295776 4.1829017027758 1.30954128343033 
1.26475044111084 4.45173949471014 1.09298045736905 
1.84954050422815 5.46813617610981 1.87682152708904 
3.05569433869799 2.31079783495335 3.89721474774748 
2.16966658471385 1.33586692405768 4.34001228224038 
2.33649139123925 1.66498307422057 4.78300603653676 
2.15739512501711 2.08450198983018 4.7342626489515 
2.4934665270771 2.42469261235478 4.62403927648228 
5.48325514928072 0.775458490729193 1.79070043630427 
5.33352951904584 0.249179029743835 2.24506227147176 
5.59936953620911 0.612031675202611 1.84112069532137 
5.15539505030609 5.42924463434288 1.43010945722033 
4.72280678806208 0.831352378003682 1.65194490444646 
3.92026348179162 2.15161093171074 5.14972051002319 
4.95940211817097 1.43725395380888 4.77405266485657 
3.79288396139021 1.79549764996875 5.28794589373998 
3.86060069296382 1.35900581880191 5.05979500328825 
3.29357302094032 0.293360716567769 3.66408562911088 
0.787893489547121 4.11327230608651 0.307800994558428 
0.578251635343809 4.06048963846197 0.572334087521808 
0.800383000142147 4.24670406971655 0.999521966936399 
3.46564328103355 3.49585711057931 1.14074701836652 
3.2127245358829 3.64673559685505 1.08177759646291 
3.95253503515041 3.17578829159086 0.558396136645187 
3.59403658881468 4.56827720848369 4.71946667951896 
2.23626567479318 0.989067116873239 1.75433895676858 
2.73903341966568 5.62477972430882 1.54493707240556 
2.72556460843934 5.15824418009546 1.68710668191345 
2.13566345674045 5.80653420271578 0.762531454417792 
3.29326538534584 0.402513312686289 1.30886978848774 
3.497916980994 0.486300652718824 1.33632204160702 
0.975013617919315 3.35310768218747 2.89970616733193 
0.858711589489008 3.30378706765002 3.31028912963154 
4.92905031725644 2.71406050746102 5.96975818928933 
4.45176312380103 2.93013776043411 5.24866878333555 
4.68362058276494 3.05294591364586 4.6951465736559 
4.7756405387612 3.1880695205556 5.50176688711514 
5.21921892698062 2.62916103437551 5.99901816912038 
5.49008985495575 3.14512294046006 1.18234988710661 
5.08000055089336 4.66861365980612 1.51199097214795 
5.87581089649975 3.61002546899281 1.73468029880601 
5.06290368765115 4.66020278009688 1.12238856510362 
5.18938164825179 4.77473475602821 1.37002078194688 
4.93808432629921 3.21212108576208 1.20685462562399 
5.96133463503979 3.77374772387519 1.559234065399 
5.60760570674107 3.19890944226742 1.59082523015117 
4.85929304654964 3.62411731580527 0.889336364094269 
5.13305575631528 3.60612932373169 1.94250497522681 
4.7559093796938 3.57790919654183 1.59534307830396 
5.43008730722543 3.92868543229294 1.99854363574034 
5.397496029283 4.4576795408459 1.8130249656273 
2.14189569033014 1.83277048128115 1.77281738873457 
1.91543213894509 1.59541453434587 1.30672049285642 
1.9986233196042 1.85724262903749 2.08924504677744 
1.89631535317769 1.84907515390397 1.4551721214618 
1.75504463903266 2.50774886130813 3.06352563299476 
5.04651048997375 0.62746324065007 4.12711848848554 
5.44260835501941 1.06435327092853 4.30321460110918 
4.77853204901025 1.44651985522652 3.60316712582885 
5.17379060559184 1.10409755971364 4.68226269764212 
4.76684785917205 0.732075888106913 4.64078284906081 
5.40017884306995 0.855048826283751 4.10059488615556 
5.19422555560246 5.13000477822856 4.34496374455185 
5.15151567048955 5.0154564110501 4.96275836216634 
2.15720868292138 2.5074373780681 1.08843119442684 
2.47429701407266 2.71924326490485 1.26965326749141 
2.61620463553632 2.52183279447585 1.62263165239162 
2.96840800639868 2.40019099046674 1.53233273041747 
1.33108775671627 3.2644969706113 3.45363697736226 
1.4668502934039 3.35469408659161 3.62255409966711 
1.81603443987306 4.14597435174391 3.89028167563346 
2.83467084975299 0.97635939552666 0.00819552640116349 
2.1377682926015 0.74311926883425 5.64610964532111 
2.11758976452797 0.389905756135802 5.14218097822326 
4.30382649061027 0.535291651939791 2.93852096788388 
4.17507573426713 1.82216597308682 3.19374869279586 
4.85675994030163 1.67552415945716 3.19350431239458 
4.56893012300455 1.85538306123242 3.02758750658365 
4.13121718719722 3.6922680970299 3.78400335423519 
4.25641656041666 3.64128318072278 3.50970223635086 
3.54384844432109 3.54203615147583 1.52626527556798 
2.28458563339042 3.19505818500561 1.44056206764303 
4.2744716127099 0.673694522745038 5.46944841390869 
4.4694689396341 0.523762671150564 4.90430757437702 
1.26698253474483 1.79654727927978 5.36338429591777 
1.1445630088334 1.99694245563182 4.97421294343205 
1.38436784645699 1.88199940375828 5.43221925793759 
0.421588692919256 2.19334169427519 4.99939568739403 
0.787580504347685 1.73664475323374 5.72559599559569 
1.3486691953593 2.23534960635295 4.93662080680502 
4.61832905223921 2.33359603343671 2.35438789437031 
3.36306277662079 3.72516980899907 3.72062473391333 
3.64204680058927 2.54133390002373 3.20258179782803 
3.94878449382382 3.84491253128498 3.69048103975797 
3.50107586777066 3.77685825965831 3.83809376473775 
3.06247253006241 1.5839159159014 4.98467293556995 
2.6572649099539 1.45317756550239 5.35166733675468 
1.65193903687133 5.5566182766286 3.65533703264877 
5.80300691544745 0.742188286122315 1.90560165577781 
2.91780844132618 2.7780466704332 5.06247256823603 
2.95563204913854 2.63345245016533 5.68820018451695 
2.97199157181501 3.23972006632792 4.89208648434374 
3.69042499767974 2.35027275959711 5.16461842239193 
2.30721080541043 3.08195340090985 3.07162441947687 
1.92028224559948 2.78875561753218 3.18994639496764 
5.130351956752 1.76843256476604 0.617655650384836 
2.47853157582621 3.27475075196912 4.6375093323361 
2.37813876797387 3.1659643507178 4.65657829011083 
2.37868560881954 3.42552044202375 4.71875433178265 
2.2944540264915 4.08034073299931 4.32095565641488 
0.529897970754241 1.08107868692171 1.32886478076774 
0.172850111421378 2.0694892879481 5.03557174182467 
1.37022464065267 1.40600910621216 5.31151195076454 
1.74245523816872 1.64377717165769 5.52512757716974 
2.24615127692488 1.5347986451682 5.17211151090746 
2.05218658269041 1.25030914088627 5.18316924988761 
5.09173006756909 2.05424584090442 3.2505846119763 
0.629146400497149 3.72792224094364 4.43213451384192 
1.09340151005338 4.30875135020566 4.65700075074559 
0.774560343201712 4.21276288351266 4.75616804072201 
4.57680988801002 3.66796312426636 5.81246423827255 
4.67145760208525 3.85168076304744 5.7359446230227 
5.03908698568508 3.7024060650209 5.19092290076623 
4.60740928408627 3.50371282829401 0.518515641799068 
5.08460580661499 2.27554482019381 0.891181732804691 
5.06971419092821 2.2131097503552 0.696086464692803 
5.6431777306892 2.72478864069145 1.03073727473559 
0.449208433127967 4.52423292123536 2.56871357364259 
4.15282507387534 3.23172459688145 2.59186765185541 
3.36846289428675 4.30133510690974 2.49563589872885 
4.01278695687878 4.13900916784119 1.89069024494071 
4.06439238947312 3.83507857965117 1.68474695754045 
5.13476789998975 3.93021456044268 2.52992242580626 
5.78598354768986 2.9482237492005 1.69782476993321 
5.40052251038337 4.07355816725646 2.34258490716712 
5.64561725544707 2.64101883126737 2.41948789954569 
5.36489221116359 4.53867103075903 2.1701115807598 
1.76466606179774 2.78562160252126 3.143680425345 
2.41539092631138 3.4298579031156 2.75514759827969 
1.72897478314542 2.72201331168955 1.11423233512284 
1.72943969101603 3.18871612132256 1.98730032564102 
0.340470763187119 3.81017707966203 1.59955588732924 
0.46531429116014 3.62992019330946 1.78780624217072 
0.627939308554489 3.75044233115438 1.14821135317398 
0.469368861807168 3.69343860670599 0.736253469474667 
4.13693870943049 4.70276679202274 0.846512698903095 
1.05215999740826 3.72994002454036 0.0933092611993704 
0.979866379256797 0.26986517372054 5.2542081654276 
1.21040407317081 0.160292669539369 4.80184426478627 
5.17322415732968 1.93764718163942 1.20419761809932 
5.84138602968512 2.60432213399238 1.29877169146454 
3.50819916548582 4.59786187084614 1.79138837791178 
0.705515917702284 3.44313192677761 1.61070725536836 
0.783776620146767 3.54964600177664 1.22714856937801 
0.489858803448327 3.01076668497368 1.72295636619391 
1.11077023796346 4.96680260698237 4.2645025136295 
1.38873466229948 4.54235326797167 5.05456546325152 
1.56327550460772 4.40445479386674 5.08181551921993 
1.54697505754509 0.209159461269686 4.74028751038987 
5.71096428903948 0.938684869862576 1.86081416319578 
5.76167502998171 1.41379613600805 2.23786338603021 
5.90678154701869 1.72557455974795 2.07100488652531 
5.55966421654351 2.03026935049245 3.04753988354677 
5.77720184394352 2.42488472551845 2.54352053447816 
5.7622173084677 1.27124114351648 2.91846844444813 
5.75369117650742 1.84247314151774 2.14845664816525 
3.01376987564358 4.08097707287098 3.66568935059206 
2.88684097425699 4.15214487448707 3.18212671314317 
2.7136881787511 3.26661436326111 2.64086579610795 
2.51594107797608 2.71995280247566 4.89978159407992 
3.84294216227933 3.62778550635544 2.97156022326088 
0.512235343824751 2.41296880838484 1.18634724896744 
0.417570343269947 2.59037346018149 1.16866036674989 
4.72487699151467 1.8631825164021 4.35984370045149 
4.28871615405155 1.74431865966498 4.39601850826424 
0.285476100902461 2.10933016920395 4.86767825047198 
3.29461763906193 4.23445138808473 4.81103458961235 
4.83175050874555 5.5373097182391 1.73097070371455 
5.04435249754975 1.36977133536223 2.9495559499235 
5.54142556471418 1.49940688733423 2.82041990164571 
0.900482963673861 5.62802399917457 5.15791392215449 
4.95454252042983 5.49408562540002 3.08060879762847 
2.96065221000445 5.7462996039134 0.743588274871435 
3.07441519413066 5.69262396207868 0.997039706495809 
3.50786408188172 4.42140222550606 4.94677610474482 
4.72728332796123 4.85699869052259 1.87128736037978 
4.88204945835474 4.73128721873849 2.27387219720127 
0.466421806269939 3.37331220727651 4.59491269805088 
3.8133400157063 5.2337329028516 2.05324644613282 
3.69701173053275 2.37693028247767 2.4758597864119 
3.62513919298159 2.20021074328406 2.92494584420173 
3.06794221534593 3.86898031210342 1.39146863125451 
2.08084823750991 1.78749125731049 5.35706921444717 
5.81872828753353 3.424434607477 5.04118417418306 
2.79520350941659 0.452920098572687 3.94384578202743 
0.515443015746928 1.12527667163123 0.894396829735969 
1.50605417539835 2.22914607981745 5.14854198916785 
3.38455992086523 4.31283416234668 0.228516077133481 
2.17605402876359 4.14951709816018 4.31927584078552 
5.26129012662638 3.22115617449727 1.7614420217449 
4.87466077032428 3.24118783860629 1.46301381716736 
2.64723888293141 3.32477249705136 4.07548384915826 
0.865133832365416 1.82724268450012 0.508644386256825 
4.36910761339218 2.41074230145721 1.46694064826997 
0.623001531168017 1.60702218625541 4.26636756378263 
0.438841559268981 1.75839386943986 4.07426165113107 
0.9634372087103 3.64274640983117 5.52197223023479 
4.88556480375199 1.90982888048612 1.45821730218472 
4.58053678769921 1.32523255935313 1.43298390319133 
2.93757766238476 1.68178414286991 4.73178093180014 
4.05697481593539 3.30435271638157 1.83336835671975 
4.23524906801492 3.60146247495358 1.84292868753966 
1.6432993108444 2.37010352517193 2.34804921483759 
2.10220583382632 2.25597204763235 2.29428093163297 
0.717724371536944 3.89738811900227 2.16689764321711 
3.38164314515957 1.17527488433836 4.88906489857551 
3.39832015852924 1.07723413976756 4.5285811244828 
2.64457162478314 2.93481935955164 2.91230675385253 
4.66942111060958 0.192028408232861 2.12948737043452 
4.21860157645436 0.175736423900171 4.80096157323551 
1.73944247792951 3.45630443073753 0.422797803825956 
1.48228701973836 3.84708784855167 0.133797355821852 
2.85085807708131 0.681540220726799 2.20473557362388 
2.79057209974261 0.447861278147763 2.54835150864796 
3.96487878220496 3.26535845033845 2.8582914464313 
3.75938538397195 3.13510178500582 2.81820844180468 
2.06460060699311 5.44694598415591 1.60612281611228 
2.29916769100474 5.75007197385369 1.52293954182961 
5.05184643288187 1.99848179474224 1.85883551956185 
5.49623304985205 2.10418084068468 1.86455348697827 
1.40518451506583 3.17420964132523 4.38964135404085 
1.90310936408675 5.34029670518327 3.17996435671428 
4.86200430249267 5.45121080792942 0.768853277996002 
5.2848650363552 3.01640940262076 3.73595252916658 
4.92015098095966 2.6246747525569 3.68868345750376 
1.34132508569076 4.48543864017903 1.00817255916388 
4.00583998930382 4.67228036273801 3.45151297821818 
3.88683576032976 4.21202507611669 3.81791855570741 
5.18702359017758 4.8929002238906 5.00240637068884 
3.24957679439223 5.9556038282847 3.58200030509464 
3.5561395600831 5.75341902357874 3.7856817886783 
0.7923220843426 1.15700777115957 5.73618942754828 
4.58193492698569 5.05329343998466 5.10145565774082 
4.08409446596843 3.79292028311296 3.39318852510601 
0.527245053089315 1.86076165876344 1.79881011193377 
4.61160736107955 5.1830561055857 1.93208629803167 
5.97873298821376 1.18027894186853 2.52799500794364 
0.439342686035675 1.82647974777152 5.61931101737931 
0.28920161749093 2.1379663689428 5.15074313765862 
2.73865712684245 2.74932102938764 2.03656042774826 
2.37445092232811 2.58335906452207 4.19648428446548 
3.97786145878785 1.24988877056989 1.82589488858456 
4.56908707453984 1.12345931822553 1.70835319685472 
4.576565280961 2.60621108683084 4.18046607866875 
1.52871872119952 0.499848955712911 0.957676798718792 
2.87731295889739 5.12278036553624 1.95149718708574 
3.43748690529714 4.70943271112964 1.95624478926328 
3.9618650445872 2.46599284641883 3.47720925177048 
1.00000069755779 1.04587735169329 5.57601678095945 
1.36982601495908 0.786784672058728 5.8554236668258 
1.70517346679089 1.39250755484543 5.44773338013018 
1.74356679483471 1.01047203753501 5.82031979129817 
4.19180078701129 5.6204248318093 3.616207795214 
4.41967485247755 5.76819417320428 3.33652537559653 
4.33927664979406 3.68910079895235 2.28007533110195 
4.98955036275082 3.6423884174678 2.36472376940769 
5.44717300233528 4.72252101997398 1.37883257512459 
5.57745568318403 4.52210024898865 1.68053823861843 
5.23047534623175 3.95595710970504 3.8731870163484 
4.17977090273943 5.22277965025227 3.77833807524176 
4.31723170638829 4.95393001114487 3.69519152571756 
1.59042862916138 0.214159750727881 3.92372098926795 
1.73413705109555 0.518215137172383 3.78805471897465 
1.922547437934 3.89442246896344 3.56660200294933 
1.49037385868621 4.88341856590497 2.76864184702984 
1.45305860367069 1.32685972721449 4.07823626693942 
1.05728078136103 5.66920252049927 4.85641520860794 
3.48062329901419 4.12851593611634 3.94477528747237 
3.1198974461505 4.30917289414641 3.78985114299175 
4.14426198787054 0.413540819236294 0.665191097427987 
2.79517180411767 1.81007730341391 5.83670952409638 
3.97107561547694 2.59474482020411 5.42355683383518 
2.7293938572654 3.72527434982666 5.11853362071583 
4.25027226573888 5.73209754124573 0.841607849154266 
3.18898033005201 4.44507025862165 0.164805223051807 
2.20182281670307 3.76463472496304 3.55908601670409 
2.48491849960084 3.81775191315749 3.89827713950339 
5.25122343926655 4.32467255360219 4.58511756091618 
4.82529004897616 4.0492461629376 4.83346153601782 
2.80829041031534 4.20085346421324 4.968252189144 
2.4455956490859 4.32039750612425 4.42616435807893 
5.49264573642909 0.183292232984877 2.55575699227368 
3.82899196849199 0.192926382875928 1.43838507899731 
3.30345527857731 2.42848469921565 4.92728304854268 
0.225653680876029 3.45147929181437 1.9349644788706 
0.225214676285819 3.13779542182832 1.91324324016835 
3.2610018121 2.59559656050101 3.73837953089067 
2.91431665940128 1.57812943505132 0.192572482619295 
0.284022937764593 5.1788711600202 5.27796780415453 
1.78817044489535 5.45231147610797 1.17568359163032 
2.04690041650967 5.8356103839838 0.941401761927654 
3.27237508670969 5.97348068725623 1.33569381099385 
2.8750854875878 5.78206016752399 1.70021608224534 
3.47077271891238 3.34248584623865 2.90856958936615 
3.53438275216428 3.58323348367128 2.9961518131878 
0.360576882066588 5.45134173319579 5.11842865420506 
0.275034328048762 1.79308756092017 4.23394696890553 
0.364866962478613 1.69176212778251 4.42000219533963 
5.14232378833946 3.73408488183821 0.723898921139554 
1.66950898513789 0.139863209361496 2.45852063111757 
4.2669226018606 1.37331119066833 2.52560792902661 
1.14042749690279 1.39326529979616 4.34268045812734 
1.26966417179156 1.14648406575134 4.68473277542589 
5.01167283773545 3.31419248111754 5.16130375576146 
5.55779687773164 3.11521175604273 5.09261351519498 
5.62221485923537 2.0762036621174 1.5208563985318 
0.397533126323206 2.35017619308028 1.13639115031901 
3.04762213911614 1.39646146524734 1.10622455160555 
3.51437750001692 1.13436522030495 1.14785410534022 
1.66829278741016 5.16580700394137 3.94495984989759 
1.8689778139404 0.0221994047046477 2.23255218263177 
1.80642923534198 1.76269472158375 0.147153275633458 
2.2708946695758 2.01785274135966 0.253669222488188 
3.35690824408756 2.60999298710404 1.25669878528857 
4.31269883451521 5.18529126852593 4.81561314451939 
4.51988868550653 5.27717934234569 4.26694355488546 
3.71317015441171 1.27424219371982 1.6810344488304 
3.59504181418894 5.60086240803034 2.0442231877477 
3.04729153258566 5.55858397665196 2.03759110219235 
5.7124225903695 2.90828081774213 5.43526148830299 
2.1650871776322 0.426825840544439 3.60437578546429 
2.60071636982933 0.680516970725632 3.83112717723427 
4.47579230080749 2.23308669434793 1.31179313191367 
3.22805016848643 3.81496781253132 1.67067200239563 
4.99682325660311 2.95162371662973 5.91204192232529 
5.27932695148039 2.87776306238877 5.93406569299711 
2.35267332784728 4.39011892151432 4.42832827764277 
2.20050690710984 4.67193521756199 4.88808776359587 
0.648291552182565 4.79103869941456 1.29741634233191 
0.373225458346241 4.72315419665751 1.7758639177365 
3.82439395014988 5.52242895568992 3.57798249025316 
1.16823949048172 4.96682567275501 4.06732644304501 
0.424772383181528 1.99368589901372 0.714586566509726 
2.12301280765784 3.58968874161264 2.30736789528323 
3.26471500303668 2.1495317554847 4.17004056386215 
3.03328111243769 2.16337310799509 4.61552652520379 
3.42275373983711 1.96596303720995 5.31194670006399 
3.46066731189755 2.27957013359288 5.2379711550778 
1.23534253138282 4.31663200537565 4.93529991462449 
3.29994438406827 2.57971894003901 3.35987026486595 
3.15694859782912 2.8837462058154 3.30680997899978 
2.30676323906937 3.18059570487797 1.78105327577521 
2.55469120269535 2.70486126059469 1.9000860004905 
0.686155818982222 1.50857877158317 2.491225291524 
0.368285836904015 1.86468044154886 2.15026167642196 
0.859799171260193 3.15470548813365 5.46165046750979 
3.27299167883479 1.69539131717066 0.225801814882823 
2.22493293425826 2.48114480650053 0.417252969064073 
3.34274810397439 4.36861784312711 4.51662613106787 
2.92330889631924 4.51241304072569 4.1728985834578 
2.58481183831958 2.40004575077112 2.68396031126366 
1.61032664546106 1.6688379689575 3.47129263847714 
1.67979588646825 0.132330427687798 2.24738339646205 
3.12295824140557 5.55429616516926 4.87255519180674 
1.47728820952067 2.68685335111168 5.36062597056722 
1.94035434902952 2.86961284968698 5.3976627468557 
2.70006036324272 0.497478196315634 0.37774982061239 
2.58532882110812 0.794249568381805 0.185510651893549 
1.46709333390928 2.71615813011341 2.22873397180542 
1.36682498117869 2.72954300620503 2.47599224083078 
4.29145622099344 1.73287045781063 2.67761717917593 
4.4965840303762 1.77408605972497 2.70265018272098 
4.12920201742068 1.31526150232178 4.69210973922103 
1.3686639751662 5.02057148798048 0.903107617081378 
1.79670930726026 5.18080791662488 0.967564203969183 
2.62957856715178 0.822135290676507 2.86973758531698 
2.96749879697273 0.868484917082435 3.34859502114756 
2.68245306702433 0.895838056834416 3.56335747094286 
0.985291215674142 4.99355247913514 2.72973633968736 
3.7085742141918 2.74324692524726 0.182162245591979 
3.50654315691977 2.63678536678562 0.260700581435789 
2.98609953959661 0.374183293424321 0.419004398348574 
3.99597797082016 4.94704287884372 4.61065402005786 
3.52596641253536 0.771960713037353 2.1007155962644 
3.68884722710125 0.711180052288747 1.77471955292121 
5.0387011682893 5.62423347105847 1.13019228655555 
3.96209494383125 5.45099960862266 0.788434752262338 
3.83952491702972 5.42117706051464 0.954715211145858 
4.55781746018213 2.19034188175596 4.45989270986046 
4.21631295462315 2.03454214302453 4.47526498456269 
3.23599945847031 0.566962975047226 1.06138832162897 
3.45224237262636 0.659383702287065 1.08419863940398 
0.267460739530764 3.47771559262016 2.29479183481647 
0.248053484818069 3.06437529601022 2.21106216996557 
4.44395178298944 0.380678301368857 1.68215351212813 
3.95107461862119 0.370898195859617 1.75137681001707 
5.51619202759046 2.64299954731214 2.09510806486063 
4.39093016906479 4.88050101165765 3.92171459667009 
4.30156062468846 5.09487752241198 4.06547896197106 
3.31005326450345 1.5540141204561 4.03424876274258 
3.12723837713515 1.34843127155569 4.32352307509933 
1.75647870797862 5.35474299613265 2.97290700143564 
2.04792418359932 4.0525728826103 2.35053194555834 
2.2299906267019 4.2272863587272 2.11624251841014 
4.23997671654148 5.80229264492983 2.70980346192343 
5.4535307243518 1.22170026286801 4.12785905140214 
0.88456847841549 4.85838139076672 2.13744851020359 
0.604853524046356 4.60097259603455 2.17882140031206 
2.11678724014298 1.15205707243428 2.9351151554046 
2.07474683431038 1.72723420370628 3.43059521795279 
4.01408997157946 3.05486619192811 2.38932247873039 
3.78548908818931 3.00024325502 2.4752745820274 
3.51944506128378 0.621429937707634 5.61775605440303 
4.61773686657064 5.24413187095491 2.33089235298167 
4.79442103412139 4.99215383976498 2.49077578207252 
4.61345507427581 4.70065194430204 5.23317277669628 
5.01265067770674 5.4181723077565 2.64747541393756 
4.21396948566129 0.115544243206212 2.57461863253712 
5.20270020854834 1.6105792796839 0.994616906134555 
1.8848810039227 0.015883722340721 2.46528488566654 
1.97737310942418 5.47654165674399 2.77055881541386 
1.27270954209591 2.92901187556455 5.16492169587373 
4.84910906085818 2.35559266336888 2.01465066519234 
5.32536721044267 2.72062945192188 2.13049080714564 
4.73532227417393 5.47909271445946 2.42088692836743 
2.0006786325489 0.378421847149991 0.983497253510056 
5.63606991808221 1.95168767187914 4.02747165319744 
4.05106527736523 1.76538254000668 3.02406106400245 
3.20340182627106 5.49870136290007 0.855557770044363 
3.08601303509551 5.56598964671005 0.636621277836054 
5.29124263985441 3.18146446720115 4.02285467766246 
2.29510880746543 1.29999372031517 1.58304997297783 
5.25175698544796 5.03685656489996 4.28194343110681 
4.93428366356473 4.73740288523267 3.93440850739745 
0.202299960499091 1.49956815133349 0.922013841028678 
5.512742074607 1.39584707193848 1.03651095595058 
2.3617068130932 2.42503596222634 0.71700386953549 
4.04007669020007 2.18134604269598 2.28971375719603 
4.32284339128502 2.44505656218462 2.21217841374966 
3.89085719386754 1.38026832214646 1.69769136832058 
4.76922940774306 3.11541440235586 4.68954500650618 
1.22922894727772 5.32340139244444 5.33122786228031 
1.12841047438777 4.88751422874426 5.48598627656455 
3.52136160763759 4.36437990198134 2.46133324996446 
2.29875771102835 1.95659238339527 3.56529686690724 
2.2332536441107 2.52225952143941 4.12703076358307 
5.72236014625231 2.25579351977496 5.07731425965557 
1.81557883754066 4.28273061276011 5.59397196212064 
2.81413626747806 0.595618711368192 4.23089772997168 
3.38834010273972 0.51431678481144 0.199648197112741 
3.75659539707707 0.676025170080307 0.657074872925339 
3.0932013030641 2.93613928939149 3.71144262433094 
3.19067197613185 3.32466556510884 3.9501415298577 
5.48860690886631 4.50141516474254 0.956753444582896 
5.28326917961336 4.49273007259383 0.877564092038056 
3.93958066409216 4.57084900049475 4.63886086854393 
4.16017848673644 4.37683136999617 4.13697006217836 
0.435098845917354 4.78970450100665 1.92571018644024 
0.82133930219125 4.97924810691286 2.00103231891682 
5.0171335326028 4.21454045349536 4.15165136527754 
2.42302448853909 3.96560264804858 3.10140952573177 
5.0814632301868 3.74533018567203 3.8512548319713 
4.88316878593996 2.98968240746323 4.5886589969409 
1.90691760611385 4.2537835719309 3.15221023474433 
2.27059794335622 4.18963444167564 2.97286551567499 
5.79526783372272 2.46862526954021 5.40334000492363 
5.40271526158185 2.30309218118078 5.80131417889436 
3.52768175995661 4.31417202310473 1.92607399770436 
3.85439116206684 4.90038258084546 1.09039180073715 
3.97695019740654 4.82173374608251 1.55720781206001 
4.9421909057356 0.472088043990474 2.24035981227587 
4.74215554675071 0.754430004412857 2.75976315269506 
1.31977364830056 2.10969556084639 0.24237387482977 
1.13450422020679 2.78479276108386 4.91162927761232 
1.20588518369199 2.96462007548971 4.47829091266562 
3.27223004668282 0.673017103581446 4.48194713873492 
3.16517193992557 2.0016093073732 5.78737527817187 
3.21879145818189 2.42017064309643 5.71985810567466 
2.73321393098173 4.41064030156262 5.23805577632623 
2.40740831112106 4.66298214080785 5.18791808855362 
5.48100909558642 2.8820103600207 4.7315921701092 
1.371008670334 3.82185436634937 2.01359073519425 
5.60884607872173 1.52101635112077 2.31427392309732 
3.19739769997474 2.79452331032557 0.879996849723467 
4.10745268230298 3.0139257221241 5.28306282385316 
3.9404312776027 3.50309110402566 5.69412547038412 
3.5773614072164 1.01718745079771 2.13501398794981 
3.76868065084978 1.1160318772967 1.81801028093358 
5.06177541711595 5.21186243870602 2.6765956093607 
4.13125713330006 4.30136879175249 4.9047842638903 
4.04645549750986 5.59547460983909 5.2061604588466 
3.37227177356772 0.740598914102167 0.0330777681708287 
3.70180095976316 1.34695679038375 0.175783582961521 
4.48120880386225 4.54815442745789 5.61687099365099 
1.5075780584979 5.1641891649496 4.77979859277072 
1.45037328106258 5.36205212044972 4.92597180120012 
5.40452351625078 0.969753576775455 3.94838087643506 
2.73576221255575 2.68069723110714 0.973744130199268 
3.60827837125538 4.93610710003251 3.02325074499375 
3.6849247044397 4.88225570623915 3.37835911732342 
5.61634882411512 3.45052395363544 0.887083460032853 
5.83872630799563 3.72756045887028 1.01116030862789 
4.49636159964579 1.34028908082562 0.257061757873989 
4.2277435454516 1.52953179343325 0.170955620688248 
5.53733698329246 0.841071646799797 3.21642845619634 
4.45047271446839 4.38525831589609 5.15418579530269 
4.37070681029162 4.30971305484209 5.45836475998887 
5.72757605441427 3.08362072469178 4.26320293716899 
5.96567634334011 3.40773489906603 4.3775292952482 
0.123953953624186 4.82745148481838 4.28587378331549 
0.194394908618348 4.67198521625341 3.73485618366374 
2.6259240468071 4.95444370282586 2.2529924704074 
2.72531944608504 4.63712491856657 2.38564893985773 
3.05687179415606 1.74942703070923 0.697887288672097 
3.8110871944145 4.7953549395242 2.78828277679454 
1.12086454953371 5.19684485769113 1.12480107260644 
2.54706842865961 2.49463912798427 5.76552858832791 
2.48217239896177 2.02360371249104 5.85765889917293 
0.679721049831212 3.83311954011655 5.34843890045956 
0.813428222750719 4.20056194717839 5.0407960224579 
1.48486971747876 1.50464759574563 1.23508570646154 
1.25715676378608 1.1261612475456 1.27302370050231 
0.542197119981939 4.4236553004416 5.30285685061722 
1.29719970432099 5.45655561540672 1.66768958270081 
1.29571637505675 5.48072001661248 1.31387033128133 
1.63084940570306 3.92914988338251 4.57706942525649 
1.44299300157715 4.19787868083241 4.98090077126731 
4.18498925855037 1.11694179645204 5.42390308885291 
0.726147004230612 2.83392991584771 4.92266893610823 
0.670206400634624 3.00273346190225 4.57733043961437 
3.29427593750306 3.78296523476838 2.80665146018889 
3.18688301138238 3.47666904084111 2.65493855220755 
4.15705473483515 2.73722888229486 3.93693638013548 
1.01960713135362 1.38690072682323 2.20879356743738 
2.22591233919651 4.42476046704413 5.59691456368976 
1.28334053539852 4.54783252752953 3.83155011599394 
2.24732458929152 0.60075151338341 5.05875030238188 
3.82355084394821 1.97689609908239 1.82320215973008 
4.04172974437021 2.19067391486988 1.41543305487407 
0.133349574503845 1.53945483133348 1.35933393740954 
5.96339350652933 1.5235371100386 1.43176180986241 
4.98499754245255 0.820476044540753 1.96849659018621 
0.958211151283727 1.54486900254991 1.82775983915694 
0.942630543590117 1.11051605978815 1.5349026155357 
2.13217600281425 3.23069524999464 0.09386704931446 
0.588276277988662 3.10025958320062 5.30258150573932 
0.425889382896832 3.39558793753974 5.1876952933517 
2.19011131782058 1.73405250853309 3.61454292591058 
5.4176821341003 0.324447713106095 3.0167322736798 
4.26068056486156 4.58345984132721 1.60107887893343 
0.991233417762493 4.89093887476031 1.33353682956207 
1.05778738044372 4.98596803824235 1.80808283309581 
3.99020009921222 1.15538716662289 2.70954073560914 
1.22335520041714 4.38011810002238 0.42646875966437 
1.54844875286515 4.16394276983498 0.291751342417895 
5.59880389878423 3.82163069257488 5.12040324325149 
3.42376435225511 4.40056109534462 2.18505626086633 
3.27734787260091 4.3282496510115 2.27448710717201 
1.99502934853604 2.15012213736783 5.09442641853431 
2.2273025014789 2.58670214719484 5.269040727074 
1.06688649858433 1.90122378673794 0.590025048420937 
1.06406593295709 2.30048303387263 0.998349804276735 
4.25291826907181 5.54116204382526 5.10833745820103 
4.48325375572499 5.4145233454356 5.3353453733134 
3.4914794699544 2.50074535360101 4.84148876771053 
2.30667075692915 2.82332512147214 4.1675339707295 
0.964129391638352 3.26738798734308 0.302846596545703 
1.93592261613602 5.30698156997234 4.3855425439955 
1.58006409579651 3.20176639309317 1.79171142808554 
1.32540337673454 3.55378789616814 1.71024725162602 
0.398129684202578 2.47210251493693 2.48975701551717 
0.128259121873757 3.38682080961634 4.31395488558364 
3.2290472865625 0.232241879867517 5.0704651194602 
3.56060178641671 0.0227666943999777 4.85887594198744 
3.93799539920889 0.0184162737605919 5.08498828916729 
1.49737036495138 3.08080501646971 2.69201596090724 
1.74734575935706 3.44675993506873 2.26612207284309 
2.07961735936591 2.97129874332845 0.0516937174373375 
2.37771996470969 2.75382569562058 0.151696817527127 
1.21848405702334 3.37341885032283 2.8981607576125 
1.36305941746524 2.03812049894075 3.30899415604256 
1.07821355809791 2.22021599186901 3.74322866515992 
0.54051699525455 2.9004758579034 3.47340694833866 
0.750075691990167 2.62775017017525 3.80713814643484 
1.42642016468942 0.455433936045924 5.73588211066113 
0.335712362719998 3.80689573252144 3.7014425564661 
0.322031419255061 3.63744866150397 3.48884406603218 
0.774206429763409 2.2274867819687 3.72032499613132 
0.151398096334858 1.755599484595 1.48407391436502 
5.97978395123355 1.7268969405512 1.54901601991301 
3.02372213667358 2.48618316658858 1.06643443104018 
3.20536602931361 2.56938322945042 1.01894802122759 
1.37733893047437 3.6579699799018 1.3724477388626 
2.67255567612974 1.02311273758036 5.46328213763453 
2.27699181929126 0.878123768253545 5.36425084036555 
0.617243328535404 5.36523052163053 3.21172371040968 
2.70204837760606 0.376996602559516 4.83403519360732 
2.34994154710111 0.840541813006081 3.05543218480323 
2.14582297752069 0.603721616041625 3.06896051899227 
2.20910085364457 4.90924740456344 4.8487935135904 
1.73698704794782 5.24228312767188 4.76215313190647 
2.85810587380351 5.78073353033198 3.71386086866373 
1.18599233695323 0.455818712656822 3.39153139994667 
1.15012574659472 0.305145640690525 2.92412221985021 
2.04459525792869 0.46410643223014 5.57163899909603 
1.53882271451407 4.54372485078361 3.02109287380187 
0.20982869116411 3.12059260955044 3.598453284035 
2.21401502528083 3.19742066922641 3.54308696484522 
2.55093368336941 3.09582036592889 3.9269673583456 
0.684366046665574 3.87081131706772 2.89582709288663 
0.489147958993934 3.91139768435213 2.66473758960178 
2.36944111811677 5.07971292718675 0.386623158376156 
2.87543599873276 5.1974653882158 0.396981217889495 
5.57777192418205 4.21850497986167 4.65928743036972 
2.49559337981181 0.711362404446957 0.646873800150166 
4.0503214796658 1.15943536775616 5.44071397143419 
4.03424646725092 1.45660691263408 5.69181707512946 
3.10471629736394 0.480490645522232 4.94315176233515 
3.16840249043426 0.762560975743517 5.17736850329601 
4.49273235977766 3.92871341210478 4.24174040204405 
4.66484260116625 3.91833923485009 4.24392781260675 
3.90218264948111 1.13074792680834 4.35547886786779 
4.41302633161671 1.38708135049309 5.70952536374105 
4.23438164524807 1.52743279873308 5.78431134570768 
0.872432868390657 3.6674613865942 2.75803773139757 
0.598018567924436 3.75735910178907 2.49228007086741 
1.21496383077016 2.21650760253027 1.5929047970251 
1.31317597488307 2.2107181476084 1.39826605592472 
0.547532563027887 3.68314819310313 3.41459433933738 
0.584152124846505 3.8536915256935 3.61279185259441 
0.286971084302415 1.409466215013 5.55906357743458 
0.648050306016453 1.09124641675348 5.65407740717571 
3.81589707045516 1.41559096416137 3.05516578529728 
3.76983955688433 1.20382711674802 3.39056728878645 
1.82278043280871 3.18148502530635 1.35366461020531 
1.68132009008672 3.42359319793337 1.14397216613751 
2.43854012003236 4.44293174031032 0.375343072371641 
1.56137934556428 2.8013311498821 0.34080972798125 
2.69704441367769 1.18069293592733 1.05459326365541 
2.70780398230063 0.857712045374252 1.04703419638145 
4.68227152695087 4.28577979231312 2.5584431073812 
4.23502101625587 4.00380452016793 2.35579250353338 
4.00013691659573 4.06911340994085 2.65597872952881 
1.34129008837445 1.92874424268399 1.68000955920284 
1.45707343577861 1.90186780224703 1.48816971421976 
2.37635575933636 1.43655186548274 1.75907136334893 
2.95184035966665 1.67457290736173 1.62251634028079 
4.23116878033527 3.31882475072064 4.53937021193182 
3.89713224004437 3.27854134288878 4.86053094788187 
0.644432102790928 0.975380498954382 3.63153883503824 
0.573189144478552 0.655379702466913 3.64104259799434 
1.93498478943362 2.12005795397066 4.40188171079318 
2.08394013210516 3.56730976630705 5.56575519773376 
3.57611011479118 3.05257499058884 1.25069845318573 
3.51855308967087 3.13693239847942 1.07958929000285 
3.33495381248931 5.3356043886897 4.39436054994676 
3.63591046284047 5.02677126433052 4.69556271377481 
2.76365039397954 3.21925998080347 2.15176840335628 
1.4691680546635 2.77375853705369 0.747521992552653 
1.58554211462929 2.68176321973344 0.438678715403254 
3.9964407419623 3.18706142524621 4.16858228434696 
0.807467644448752 0.957021131915877 3.45484965698993 
0.805682967645533 0.673074268788161 3.40076967551983 
1.41685712493771 3.09726590968501 0.518357631956842 
1.38267518373339 3.05895121757886 0.697872577353631 
3.54554870883682 0.452749617557638 5.62070311617468 
3.92575265380116 0.329244425219099 5.55252138609181 
5.9221816766001 4.65140166423 2.64335770842388 
5.85040040776683 4.91921370119012 2.90641163966361 
2.6089589790681 3.74313862352662 1.76795839988196 
2.4591839748134 3.41413989000006 1.94483696333928 
3.03534189255791 1.35177628508 2.2474136528355 
3.16946285394135 1.63920571925875 1.83876681766914 
2.37713426908393 4.54170793195804 1.13979125346986 
1.46909335080093 3.79421720538627 5.30436840982601 
1.71543511009653 3.89456189246549 5.6118683157884 
1.54012484912129 0.759755599614334 2.29873831255047 
3.06178177002863 3.75855927986529 1.88421759160147 
3.09163757229204 3.37208758724943 2.11028472314061 
3.32854397286045 0.501524634087324 3.37475519339246 
1.33348148681286 1.85370638615313 4.16248294889323 
1.55084296530008 2.20225615082149 4.442847053873 
1.68249960833491 4.23567034591303 2.90833927739635 
1.88143045315543 4.0946383518917 2.34656371120649 
3.53030605790427 4.30537055438162 0.576437146956155 
4.04804147031811 4.48592765600834 0.633415724751367 
1.57025485764117 1.60738924302927 3.9994818808393 
1.91986564296917 1.67307775456377 4.09017340872866 
2.52471693274541 4.7170018184879 0.554168741340503 
2.9043592541815 4.81933541044928 0.540711575440368 
3.49068797338166 3.95826579859781 0.604132211875377 
0.172857953906828 4.69054199077819 5.0513182254623 
4.69656764155887 1.25023085192745 2.51334408728844 
4.84684592927069 1.19899568613551 2.15133378870227 
3.33638994001694 5.53370964424417 4.79785577067446 
3.54581731584328 5.28461353214584 4.98044395957955 
3.4075969319215 3.36084520919572 4.16203555973291 
3.34925651756922 3.33548128780117 4.66591215306947 
2.83358650988557 4.21385503871681 0.102856609840826 
1.0322642435038 0.96773153668539 2.16403535237487 
0.976156470573282 0.83262189579273 1.74325977215204 
3.66460984584907 3.1124743332764 4.2655063025035 
3.59145227986521 3.13041571119628 4.64865368960701 
3.85056074379432 0.765196527826369 3.35774480699105 
4.036305164591 0.689221017423718 2.92503813753401 
4.78099843192927 1.37958367723684 2.56116454954656 
4.99370543523176 1.42196208144204 2.24165640553587 
2.25849438158823 0.123533803413012 2.71473448399999 
2.6407656108545 0.190718831144751 2.48050358015812 
2.85587403385413 4.94747360084414 3.84719260772001 
4.32243233557008 4.80258330335873 5.86200624858555 
1.25175190706361 3.67662465101694 2.74444859059035 
1.57844794579316 3.72702902856451 2.27882004236138 
2.56338705753023 3.79472665765019 5.522502385562 
2.5752278096747 4.20423672321548 5.57638690875689 
2.56654952385658 0.211076877097395 1.94377420414679 
2.88363120661746 5.63640269010646 2.77761449200693 
2.9544370636085 5.79504015916848 2.60030963805245 
1.94359910030398 0.72901017189927 1.72768375180627 
1.62186457540407 0.589794822441307 2.02312459315914 
2.29150191501082 0.176739771569011 1.85059076386098 
2.18816983860449 0.54729531437903 1.63032853246795 
3.90348792389923 5.61899774666037 2.64482938651075 
3.65499402853777 5.48398009459469 2.99412549603715 
3.24478627559128 5.77594180987558 2.90450191575093 
4.49311882984785 3.84756451081055 4.43403982704482 
4.60162023042819 3.83622790738508 4.44677804519331 
5.73241664195359 4.83053321279837 2.36791049820982 
5.64765948782184 5.07312776150786 2.53617738759718 
4.38333775834451 1.15286839413692 4.84214442596818 
4.46471892281889 0.797603843663542 4.69560423398412 
2.24935414913017 4.27228765107778 1.22818926868194 
4.10629265337465 5.54069167761021 5.56327269155316 
4.3989458545278 5.40730642930012 5.5652778362084 
3.03134332168644 5.32861718934806 4.00701629625383 
3.78038542995447 3.6736459369676 5.59372627941079 
3.68135363563644 3.68938499051762 5.11720263253121 
2.67687190385518 0.482155897113466 1.8606602171636 
2.37004075494561 0.687838227312337 1.64044775091646 
0.618608632958103 4.79397083258794 3.56355681037376 
3.89124079742673 0.14082544276276 2.43209788839085 
2.66136692509187 1.22086991262517 2.4748878373203 
2.35063660606182 1.23950903684675 2.00300720093517 
2.71037145773273 1.15752501344369 2.28082660514417 
3.28672232489917 0.223515256685453 2.7930138027028 
3.72032242125792 0.385419813728853 2.56124886153106 
0.0920398898803832 4.59443719583488 4.48376300250308 
0.247092251905483 4.65586848045679 4.60395970897809 
3.63556113174315 4.55916880981916 5.83597442531208 
0.919552912838492 4.49709741906951 3.11864553153282 
0.839089980412837 4.5062785373887 3.47390675886173 
2.4799213939872 3.54755615231288 1.22516162664034 
2.612342434909 3.79310741508254 1.4503026725112 
5.98540769049762 0.689229925283962 2.32858318705865 
3.71813130931636 5.80804925164721 2.48570655561091 
3.25920784367077 5.88462978937496 2.75672008030446 
2.37782786744678 2.27140264869339 2.71344103095909 
1.93612664906914 2.4829250272306 3.10141081729245 
1.25420104458377 0.626489097320259 1.6556971616185 
1.43548097467715 0.745919615532452 1.42257279318113 
3.83116522089652 4.18048949026103 5.11645482733141 
3.90960476196666 4.19648947148749 5.44284730683519 
0.744284459655247 4.76987968573579 2.92286230468857 
0.528122704369037 5.01660473515392 3.209695958217 
2.59193972451339 0.840031244263181 4.07806258850812 
2.44356848887697 4.94460334774095 5.17499100572355 
2.33051819320543 1.37494973304697 2.52579773861476 
2.15841619005787 1.36757681583482 2.29049893009199 
4.01866060379885 0.881362111597779 4.27420165239333 
2.68379314493339 1.21173822491393 3.78170047099176 
2.65026495097742 1.12103542091715 4.05751200277202 
2.46109993174075 2.10168205109766 2.79531165283748 
2.18638790158747 1.98048547546896 3.35000342602203 
3.78506559298028 5.24988204821359 5.84714530012221 
4.01958744430389 4.82999775051741 5.98185318357183 
2.39023264227297 5.41410538114192 3.02480746386882 
2.21927774652201 5.48991514719084 3.0122451889804 
4.74935873270177 2.41530530569916 0.916996374798288 
2.46565792960454 5.58259056142123 3.0678245655211 
3.01341643797216 5.28044467781604 5.24780844685673 
3.29273642221735 4.68905961661018 5.32071973545401 
3.31827170564357 5.09851933552067 5.30821130332498 
4.44259443111506 3.0509165231951 0.632303154003338 
4.62613136296648 2.87643216655275 1.05159727766037 
3.45216443738457 4.6804005763997 5.77307799322449 
3.4621860422354 5.10647583406273 5.73579911351271 
3.78281634663325 0.236161670119455 4.40065070199257 
3.69650316161467 0.464343649192609 4.27173592989421 
3.6928746906155 0.314697221709333 3.90866170332188 
4.5382356707379 4.59931705735539 2.93213879416089 
4.206010801993 4.54051052986518 3.0065942852407 
2.80859845167992 4.88873840700188 4.06920269823424 
1.10989360652868 1.72078358905758 2.88528872840739 
4.25173042803843 4.30502657057755 2.95735148036208 
4.56299031827806 4.3769216014369 2.89061505189417 
2.86141887953742 2.89492143004988 0.843042384784339 
2.77694346304837 3.41300354367224 0.944005383348564 
2.77825784923696 5.42193976953555 4.41124582529512 
2.9942015933328 5.26925624653998 4.19853146989448 
0.871116509860976 1.1941666516993 0.67114782937319 
3.86700998762818 2.1979193210199 4.13428247988563 
3.5991612540253 2.33631301209636 4.20801135035199 
3.87319471669307 2.48317263504098 3.92631106803084 
3.6356170286509 2.55367620657247 4.0291094895337 
1.10976363473728 1.93073813621942 2.94553844402568 
0.905987427874889 5.46961634430501 2.91779406197772 
2.31081111413806 5.0590246051388 4.45636862115452 
2.37456536010423 4.81060920411467 4.22176256071071 
2.67012929842778 2.97487011136485 0.266540162548276 
1.36458738084002 1.44589267466777 0.812214909152687 
3.29686568073173 4.67891481579686 1.02449404113115 
3.17302338357742 4.58648981373117 1.24352154554943 
3.97041058048109 3.47517138359703 0.442324841688122 
4.39223645962006 3.64946009375925 0.445050781794987 
1.22426923789277 5.66015556155335 3.04968811151292 
3.11575075115858 4.82445726102891 0.979102406430754 
2.98783915604132 4.73072216815822 1.20192858224608 
5.70700266111083 4.86115335590432 3.24484911456524 
1.20622192885702 1.16763281297837 0.831494314863387 
1.37253465423074 0.877121137486361 0.628980069888851 
2.62478575941692 3.5450612741833 0.588401537484002 
2.56840817503996 3.2831560485444 0.243532138813445 
4.16000544683889 0.939130525873117 3.79476818471375 
4.01921698226284 0.669302678450828 3.56048507131674 
3.92386310748309 1.10576897614964 0.647928083925019 
3.78550233554836 3.75029929718251 0.700139006600879 
4.14706550454681 3.97360516332485 0.743840765380407 
5.28016452510016 4.13505808147366 3.44405824233632 
5.60793194828349 4.17075390778247 3.34633792014637 
2.93244223797757 3.85995667632911 0.199368647434431 
3.85029924158166 1.38915533342607 0.369872019101385 
1.95314743121448 3.95007342669591 0.893395226656579 
1.97381804529884 3.7374016141137 0.895185869472697 
4.48463154828203 0.181050069024244 1.32298167999349 
4.5923450922863 5.85336367855329 1.31471897273059 
2.1171255865239 3.98500593039381 0.908391419196099 
2.17700805573898 3.76769253480202 0.915640597567702 
0.850870933514423 1.69029232602073 2.86232044532351 
4.24545280052502 5.85154458420867 1.1410437934656 
4.21355550150039 0.106055289403243 1.17189507092357 
5.59038596919464 0.388891365425587 3.03372181838122 
4.39234566751146 0.445586271719966 3.34267074585323 
5.74994437730612 0.305016698064482 2.65025234316085 
4.13485908067656 2.05497037012782 1.28272222135519 
4.10446959830046 1.48142052097318 1.36828262820849 
0.597704535346199 1.35944269809321 3.03279461188896 
3.80047423490212 1.28917564438482 0.889094798719555 
4.74007087759011 1.16223176383865 1.17175650602754 
5.05709104637242 1.96336589102349 5.42053554878604 
5.2002184838288 1.92278557107979 5.1542755839499 
5.16386869354777 1.6563300166489 5.17939000420684 
5.0160606540005 1.69421944242845 5.46043537982635 
3.71703227334711 1.59920739527728 0.584179666843648 
3.85421667070155 1.96257750217914 0.650078494643929 
4.24693576115087 2.40182579823553 0.185541450861158 
4.24493508669439 2.09071152413823 0.39459951726288 
3.36164847916927 1.78393997799317 0.493058276390121 
3.51013166978169 2.14538774722246 0.572286214667451 
4.44960419884591 0.680863471953381 0.622583883859223 
4.36136298551475 1.01488136569689 0.63734509202455 
4.58189284630607 2.60942500214069 0.370805626718843 
4.70595389289811 2.34621464437714 0.648752031700531 
0.831824709843594 0.103751428547532 4.07971203092908 
5.00140737058303 0.956530103097627 3.60366022475955 
4.8370844077715 0.773649712491664 3.68229413704042 
4.80239260151982 0.545354028248893 3.45478535693238 
1.2372346220489 0.122127921423283 3.72335174230473 
1.25053036574556 5.71859798884854 3.55353142151404 
2.99103422601523 1.46720671672983 2.51568617008631 
3.38184178322175 1.53035980440952 3.02906572393954 
0.94557989280078 5.08271978125672 3.99424976661911 
5.12864861251652 0.88746498183745 3.25262207444487 
5.0280903055899 0.691035264975267 3.17048883045132 
4.02520173591598 1.29613943563496 3.73758802327374 
3.90116673163669 1.41441966907386 3.99645326809444 
0.907003412604316 5.52695377121578 3.71117558452692 
4.16252595433041 1.46714212937451 3.70527984259773 
4.03470991829776 1.60422730173386 4.00350731106196 
2.71823810574585 2.19244275728413 2.78637950914917 
3.07924815423762 2.17081360118592 3.15343637790086 
0.303160574569211 4.90942065681671 4.41110268722103 
0.352202090612188 5.41209880696321 4.54693692235949 
3.26061206725346 2.01469075859551 2.96089717517233 
3.02977015944377 2.00716213704413 2.6471446893935 
4.51384818515218 2.35874853834606 5.51435513772619 
4.41788580295279 2.44996599094958 5.34517198971993 
4.23212050062002 2.38361874275755 5.40701771519599 
4.352610547209 2.29017301625797 5.58529808785491 
0.711980973714326 5.50387673385071 4.40351541404812 
0.877676602428813 5.08801566665951 4.19544770723917 
5.37739227354255 5.00741333951011 3.36247603011295 
5.07414679237611 4.75105273725286 3.48391488825097 
4.8129601047235 4.8776293914751 3.2933305957688 
5.03691275977018 5.1837908185872 3.09542231446108 
1.35660416058485 4.01059721067486 4.11367746180415 
1.22122161441918 3.79519545040436 4.0738968066767 
1.20508167592951 3.76752654793267 4.20683769031531 
1.32551864963007 3.95964475730293 4.29201410194299 
5.211205425302 0.83034969652025 1.24753371331117 
4.81379531205079 0.602546665828135 1.08812735352521 
4.87834925584757 0.848593542095631 1.27668197089824 
5.84329916395185 2.95075747145371 4.15337410498176 
0.10777018180588 3.06403668126032 4.12153658747568 
0.405592047545341 2.78878048384699 4.26429871767042 
5.86392261603871 2.35983282836673 4.42282184075285 
0.139821602862972 2.28378174646546 4.46660077265286 
0.179508326467858 1.69070494208574 3.4461172518275 
0.176068563211337 1.59419123714644 3.67088851414324 
0.194642185891897 1.36822688983655 3.50943022639092 
0.19680050121024 1.46437430253469 3.34788839821497 
1.79178350670586 4.55965207786526 3.30064727189907 
1.99992458921396 4.89507497477859 3.39465360911864 
1.71446782340045 4.5572771236077 3.67763077825958 
1.89571146495624 4.83983860829399 3.7457274062685 
0.565419603523277 2.09631758741308 3.29589343477993 
0.841040330077593 1.94975324121374 2.94173495179848 
0.560834619131452 2.4639683664284 2.7092234539431 
0.384552440369169 2.48041191117018 3.10758453013521 
1.10305651491564 2.64648485312478 3.84214689813377 
1.35251700692953 2.79708534983956 4.23541630662937 
1.44908421111998 3.06112612045072 3.55732129944192 
2.14267374616139 2.77163436555408 4.08412624414979 
1.98097972629482 3.00312276843796 3.59426116737067 
1.53742223394697 3.1319055013418 3.66010471443543 
1.51121389294421 2.96838428635122 4.17540615417844 
2.22031984778876 3.31658935367765 4.76516375853993 
1.95651671699044 3.27985447384543 5.17595897545993 
1.73360888244749 3.42412204618807 4.73370817380687 
1.67269273029773 3.36557179152072 5.05114649647235 
1.95170866354879 0.972370462287293 4.6682079224339 
2.0307971899731 1.05210809731736 4.40072367159521 
1.69129338742742 0.922279707540954 4.52289725656782 
1.76607393961201 0.985282475613302 4.31942857555142 
5.34968750814081 3.79572098028343 2.9733653333627 
5.33167737642003 3.41301074281889 3.01627429136022 
2.42781709230339 0.937829666096919 0.462819174158925 
1.83304935833818 1.4330466350095 0.445752789969123 
1.83407369734056 1.12568719142928 0.343983181250815 
2.39174491044379 1.89706092332488 0.484303169366824 
2.75592534055169 1.63520492479899 0.476964783695976 
2.20320972171259 1.56151432770548 0.656331574748106 
2.52170183823801 1.33180684074923 0.646868946492087 
5.31621278075763 2.75906800142898 2.4388919257068 
5.10483586550967 3.21499946989486 2.69525316703935 
4.81254013876574 2.27599026284045 3.09094119259355 
4.73573274805453 2.98096355987416 2.84612488594258 
4.85774623715247 2.57899079517526 2.69877314881394 
4.31316507024623 3.11568135456314 3.28302528002984 
4.26352213080061 2.74837568126191 3.51473197421817 
4.66285261998847 2.68439471690479 3.38344255459919 
4.67676519935405 3.00210462345268 3.19892467873248 
5.7466103719663 4.03044034686613 2.70134048453566 
5.64153356102309 3.8963245121604 2.97874070978665 
4.87664541080498 4.49146090505209 1.28037916803534 
4.42498730774922 4.45346216587772 1.2599068924204 
4.68940793275233 3.94263677838464 1.22974747419884 
4.38763932582277 4.06138634215354 1.22051811027537 
POLYGONS 990 6059
5 0 3 6 267 482 
6 0 2 556 574 5 3 
4 0 2 347 482 
5 1 7 520 9 8 
4 6 7 1 267 
6 8 1 267 482 347 328 
6 327 328 347 2 556 524 
5 4 327 524 601 995 
5 5 574 601 995 998 
5 4 9 520 998 995 
6 5 3 6 7 520 998 
5 9 8 328 327 4 
5 10 11 270 383 376 
5 376 383 572 808 807 
5 12 291 378 792 923 
5 270 278 874 572 383 
5 11 270 278 854 830 
4 13 392 785 616 
5 14 20 22 23 21 
5 14 24 770 17 20 
5 21 14 24 16 886 
6 15 19 18 939 755 756 
6 15 19 793 770 17 697 
4 696 697 15 756 
5 16 24 770 793 627 
5 16 627 447 931 886 
6 23 21 886 931 939 755 
5 20 22 696 697 17 
5 22 23 755 756 696 
4 18 447 931 939 
5 19 18 447 627 793 
4 27 32 334 434 
5 27 434 817 592 593 
5 25 31 33 803 28 
4 25 30 26 31 
5 28 25 30 592 593 
5 26 29 869 33 31 
7 30 26 29 810 818 817 592 
6 33 803 828 695 872 869 
5 333 695 872 810 818 
6 27 32 828 803 28 593 
5 333 334 32 828 695 
4 29 810 872 869 
6 34 36 339 271 928 932 
5 34 36 282 421 37 
5 36 282 35 507 339 
5 35 507 518 498 816 
5 35 282 421 848 816 
6 38 39 44 43 744 743 
6 23 369 405 38 743 755 
4 39 40 45 44 
5 38 39 40 406 405 
5 365 366 22 696 960 
5 42 41 365 960 956 
6 42 41 1025 406 40 45 
5 365 366 1026 1025 41 
6 43 744 756 696 960 956 
5 22 23 369 1026 366 
5 44 43 956 42 45 
5 46 405 369 780 774 
4 38 298 46 405 
5 674 675 774 780 455 
5 23 21 455 780 369 
5 21 455 674 898 886 
6 298 299 681 675 774 46 
5 743 755 939 1003 1002 
6 298 299 1001 1002 743 38 
5 299 681 1008 1000 1001 
4 538 641 503 866 
6 49 538 866 865 972 973 
6 48 47 49 973 976 963 
5 47 49 538 641 863 
5 48 47 863 471 470 
5 469 691 502 860 835 
6 469 470 48 963 962 835 
6 502 503 641 863 471 691 
4 50 51 40 45 
7 52 53 39 40 51 725 724 
5 362 553 527 985 921 
5 54 381 553 527 526 
5 56 55 840 603 604 
5 57 362 553 381 707 
5 59 58 326 377 480 
4 61 63 1010 664 
4 60 306 462 463 
6 65 16 886 898 60 306 
6 65 306 462 64 720 737 
6 66 62 61 664 448 338 
6 62 61 63 463 462 64 
5 65 16 627 636 737 
6 63 463 60 898 1009 1010 
4 66 62 64 720 
5 66 338 636 737 720 
6 68 73 74 67 417 747 
5 72 297 632 417 747 
5 75 70 283 531 631 
5 67 75 631 632 417 
5 69 71 532 504 304 
5 68 73 505 504 304 
4 74 67 75 70 
5 72 69 304 68 747 
4 72 69 71 297 
5 74 70 283 505 73 
6 71 297 632 631 531 532 
5 504 505 283 531 532 
5 77 79 921 362 555 
5 921 922 1046 1027 79 
4 78 55 56 679 
6 57 362 555 524 601 602 
5 76 77 555 524 327 
5 77 79 1027 1028 76 
6 78 665 996 700 680 679 
6 265 266 80 758 752 655 
5 81 80 758 757 660 
6 265 410 436 296 654 655 
5 730 782 767 825 929 
5 82 329 647 648 925 
5 82 85 825 929 925 
6 83 85 82 329 467 468 
6 83 468 84 705 782 767 
4 83 85 825 767 
5 86 93 88 91 89 
5 86 90 83 85 93 
5 89 86 90 320 96 
6 82 85 93 88 87 94 
5 90 83 468 393 320 
5 95 329 467 609 644 
5 467 468 393 618 609 
6 92 87 94 95 644 645 
6 89 96 617 645 92 91 
4 94 95 329 82 
4 92 87 88 91 
5 96 320 393 618 617 
5 97 49 47 493 438 
5 97 49 538 539 344 
5 101 344 97 438 439 
5 101 100 745 539 344 
5 99 100 101 439 303 
5 98 99 303 494 864 
5 493 494 864 863 47 
5 641 781 98 864 863 
5 99 100 745 781 98 
4 105 271 928 479 
5 102 635 106 994 992 
5 104 102 635 564 103 
5 106 488 927 993 994 
5 106 488 312 564 635 
5 3 6 108 944 943 
6 621 716 945 944 108 823 
6 6 108 823 466 268 267 
4 110 109 710 709 
5 110 466 823 621 709 
6 109 107 980 981 717 710 
6 0 3 943 942 978 979 
6 716 717 981 978 942 945 
6 109 107 483 268 466 110 
6 482 483 107 980 979 0 
4 32 749 892 828 
5 749 788 457 891 892 
6 111 288 542 569 881 882 
6 666 667 880 881 569 711 
4 95 114 432 644 
6 114 113 112 647 329 95 
5 117 748 115 919 906 
4 115 116 784 919 
6 12 784 116 890 914 923 
6 115 116 890 889 577 748 
5 117 473 474 577 748 
6 118 278 874 875 789 750 
6 584 789 875 879 867 826 
6 336 509 587 804 827 657 
6 418 476 750 789 584 656 
7 336 418 476 549 583 599 509 
5 118 278 854 583 549 
4 118 549 476 750 
6 587 600 855 842 868 804 
6 414 513 801 802 809 814 
6 414 456 813 812 815 814 
5 316 317 802 809 831 
4 119 812 815 832 
7 24 770 813 812 119 836 861 
5 14 20 692 691 502 
6 17 20 692 801 513 403 
6 831 832 119 836 837 316 
5 14 24 861 860 502 
5 17 403 456 813 770 
6 317 469 691 692 801 802 
5 316 317 469 835 837 
5 90 83 767 910 121 
5 522 523 706 783 909 
5 120 121 90 320 321 
6 120 121 910 909 522 277 
6 276 277 120 321 394 122 
5 84 122 394 393 468 
6 84 122 276 523 706 705 
6 124 386 933 373 544 485 
6 37 34 481 522 277 395 
4 123 124 485 484 
5 480 481 34 932 377 
7 61 63 125 718 719 486 487 
5 125 126 722 703 718 
6 63 125 126 676 1011 1010 
5 126 676 700 680 722 
4 131 127 428 429 
6 128 130 428 127 978 979 
5 131 127 978 942 560 
5 131 429 423 559 560 
5 2 129 128 979 0 
4 2 129 534 556 
6 408 423 559 540 5 574 
4 5 3 943 540 
5 128 130 407 534 129 
6 407 408 423 429 428 130 
4 135 136 133 1047 
6 140 402 548 135 1047 1049 
5 136 133 144 361 360 
7 144 133 1047 1049 142 141 143 
5 134 143 144 361 138 
5 134 139 293 141 143 
6 138 134 139 132 594 595 
5 135 136 360 547 548 
5 140 137 132 594 402 
5 360 361 138 595 547 
5 140 137 294 142 1049 
5 132 139 293 294 137 
4 141 142 294 293 
5 147 145 739 836 861 
7 119 525 146 614 615 853 812 
4 119 525 739 836 
5 16 24 861 147 65 
6 147 145 148 738 737 65 
5 148 145 739 525 146 
5 615 637 794 852 853 
4 148 146 614 738 
6 455 503 866 851 149 674 
4 60 149 674 898 
4 65 147 307 306 
6 147 307 850 865 860 861 
6 60 149 851 850 307 306 
5 21 14 502 503 455 
4 155 151 499 590 
5 150 155 590 957 958 
6 154 150 958 916 862 824 
5 154 150 155 151 153 
6 153 151 499 7 6 108 
6 152 1 267 268 971 970 
6 1 7 499 590 957 152 
6 152 957 958 916 967 970 
5 466 715 862 824 823 
5 153 108 823 824 154 
5 268 466 715 968 971 
5 156 157 332 54 526 
4 840 841 974 603 
5 120 121 349 422 396 
5 90 121 349 605 86 
6 349 422 811 810 29 605 
7 89 86 605 29 869 870 514 
4 159 158 530 591 
5 161 160 159 591 684 
5 411 607 1033 1035 732 
6 158 148 146 1034 1032 530 
5 159 158 148 145 160 
5 146 525 732 1035 1034 
5 525 732 411 740 739 
5 411 607 684 161 740 
5 161 160 145 739 740 
5 164 367 557 1004 1006 
5 163 367 164 988 989 
4 125 673 805 718 
4 125 126 162 673 
4 699 776 557 1004 
6 703 718 805 776 699 843 
7 162 163 367 557 776 805 673 
6 126 162 163 989 723 722 
5 722 723 844 843 703 
4 164 988 629 1006 
5 629 844 723 989 988 
5 711 712 506 759 666 
5 167 630 688 166 698 
6 460 461 165 585 543 475 
5 592 608 35 816 817 
5 275 357 498 518 510 
4 356 363 27 434 
7 356 357 275 987 986 364 363 
5 592 593 330 884 608 
5 508 582 987 986 883 
5 330 364 986 883 884 
6 356 357 498 816 817 434 
6 507 508 883 884 608 35 
5 363 364 330 593 27 
5 170 171 465 799 272 
5 464 465 799 786 404 
5 152 170 272 965 957 
5 797 798 168 935 917 
6 168 565 786 404 646 798 
5 168 565 966 959 935 
6 565 786 799 272 965 966 
5 169 171 170 152 970 
5 727 797 917 916 967 
6 169 521 726 727 967 970 
5 169 171 465 464 521 
5 328 347 626 1042 1043 
5 327 328 1043 1044 76 
5 76 77 173 1041 1044 
6 2 129 741 754 626 347 
5 172 713 819 741 754 
5 129 534 820 819 741 
6 172 173 77 555 714 713 
6 172 173 1041 1042 626 754 
6 13 392 399 274 535 536 
5 161 67 417 685 684 
5 68 174 115 748 747 
5 174 115 116 285 427 
6 175 445 764 763 846 845 
5 73 74 343 751 772 
5 285 427 771 763 846 
6 68 174 427 771 772 73 
6 74 67 161 160 446 343 
6 175 159 591 889 890 845 
5 116 285 846 845 890 
5 160 159 175 445 446 
5 177 176 621 823 824 
6 178 179 181 342 341 182 
5 178 180 290 183 179 
5 183 179 181 622 567 
5 183 290 458 515 567 
6 301 302 346 787 800 322 
6 184 465 799 800 322 516 
6 345 404 464 531 631 533 
5 464 465 184 532 531 
4 184 516 71 532 
5 345 346 787 786 404 
5 345 346 302 938 533 
4 297 426 937 632 
6 71 297 426 301 322 516 
6 318 319 186 351 1042 1041 
4 351 896 626 1042 
4 185 188 790 546 
6 186 351 896 897 390 443 
6 187 188 185 398 264 337 
6 397 398 185 546 545 444 
5 186 319 397 444 443 
6 187 188 790 795 754 172 
4 187 172 173 337 
5 264 318 1041 173 337 
5 318 319 397 398 264 
6 883 888 79 921 985 986 
6 491 527 553 714 713 550 
5 364 491 527 985 986 
6 77 173 337 887 888 79 
5 187 172 713 550 331 
5 330 331 550 491 364 
6 330 331 187 337 887 884 
6 156 419 492 491 527 526 
5 190 189 440 570 374 
5 110 109 440 189 309 
5 190 189 309 712 687 
5 110 309 712 506 709 
5 165 391 450 586 585 
5 869 870 325 1005 33 
5 191 325 1005 1007 413 
6 33 803 885 901 1007 1005 
5 413 661 900 901 1007 
6 104 103 385 936 847 192 
5 11 791 796 742 830 
5 578 579 829 830 742 
6 196 375 578 742 796 658 
4 387 441 196 658 
5 193 194 571 441 387 
6 193 195 791 796 658 387 
4 10 11 791 195 
5 177 176 760 668 313 
6 580 646 726 963 962 765 
5 316 317 838 839 477 
5 477 580 646 798 839 
5 469 470 773 838 317 
4 726 727 48 963 
5 316 477 580 765 837 
5 48 470 773 797 727 
4 765 837 835 962 
5 97 49 973 443 390 
6 197 311 444 545 702 701 
7 538 539 1015 1016 198 851 866 
6 97 344 659 702 545 390 
4 344 539 1015 659 
6 197 198 851 850 454 311 
4 197 198 1016 701 
6 299 400 999 997 677 681 
5 199 512 941 953 596 
5 164 292 619 991 988 
4 202 200 201 1019 
6 163 989 990 324 1018 1017 
5 990 991 619 1021 324 
6 203 202 1019 1021 619 292 
6 163 367 379 701 1016 1017 
5 202 200 295 380 203 
5 200 201 659 702 295 
7 201 659 1015 1018 324 1021 1019 
6 164 292 203 380 379 367 
6 204 289 893 912 615 637 
5 615 853 348 913 912 
6 46 179 181 269 401 298 
5 38 39 53 401 298 
5 51 40 406 206 352 
4 181 269 205 342 
5 205 52 53 401 269 
5 205 52 724 341 342 
4 51 352 335 725 
6 206 178 179 46 405 406 
5 182 178 206 352 335 
5 182 335 725 724 341 
6 780 781 98 1024 1026 369 
5 99 100 652 286 208 
6 183 290 652 100 745 775 
6 98 99 208 209 1023 1024 
6 206 354 209 1023 1025 406 
5 183 179 46 774 775 
5 207 180 290 652 286 
5 207 180 178 206 354 
5 209 208 286 207 354 
6 169 171 1038 1043 1042 351 
4 170 171 1038 210 
5 170 210 8 1 152 
5 8 210 1038 1043 328 
4 268 483 894 971 
6 169 351 896 894 971 970 
5 20 22 366 424 692 
5 191 325 495 908 961 
4 325 495 514 870 
5 300 449 639 640 612 
6 211 281 623 568 324 990 
4 213 212 442 613 
6 211 213 613 612 640 281 
5 212 442 620 619 991 
5 213 212 991 990 211 
6 612 613 442 620 768 300 
5 130 214 215 216 407 
5 128 130 214 579 578 
5 129 128 578 742 741 
6 214 215 600 855 829 579 
5 215 216 382 599 600 
5 382 599 583 819 820 
5 216 382 820 534 407 
6 741 742 830 854 583 819 
6 220 132 137 877 871 218 
5 217 140 137 877 876 
4 218 219 955 871 
5 352 353 355 354 206 
5 415 566 654 903 1030 
5 296 654 903 912 893 
4 418 419 492 476 
4 667 668 313 880 
7 27 32 749 750 476 492 363 
4 120 277 395 396 
5 519 708 733 832 815 
5 460 475 484 733 708 
5 123 484 733 832 831 
6 88 91 368 699 776 777 
5 91 92 500 472 368 
5 368 472 856 843 699 
5 703 704 221 856 843 
6 92 87 575 308 501 500 
5 221 501 308 719 704 
5 500 501 221 856 472 
5 87 88 777 806 575 
5 128 578 375 980 979 
5 117 876 217 907 906 
5 117 473 948 954 876 
5 318 319 505 504 222 
6 319 397 625 772 73 505 
5 304 305 358 222 504 
6 224 561 650 537 736 735 
4 223 537 650 651 
5 224 225 305 358 735 
6 264 318 222 358 735 736 
6 264 398 624 223 537 736 
6 624 625 772 771 651 223 
5 174 225 224 561 427 
5 68 174 225 305 304 
5 226 359 1037 1028 1027 
4 229 490 517 1036 
6 141 293 517 1036 1037 359 
5 227 139 293 517 490 
5 226 228 1045 1046 1027 
5 143 141 359 226 228 
5 348 519 815 812 853 
6 136 105 271 339 279 133 
6 230 280 508 582 822 821 
5 144 230 280 279 133 
5 420 533 631 75 766 
6 75 70 977 962 765 766 
5 345 404 646 580 581 
4 420 533 345 581 
5 283 284 976 977 70 
5 284 521 726 963 976 
5 283 284 521 464 531 
5 358 359 1037 1039 222 
5 226 734 888 79 1027 
5 76 1028 1037 1039 1044 
5 222 318 1041 1044 1039 
5 358 359 226 734 735 
6 196 107 483 894 895 658 
4 196 107 980 375 
5 437 496 777 806 670 
5 231 669 673 162 1014 
7 197 198 231 669 670 437 232 
5 231 198 1016 1017 1014 
4 162 163 1017 1014 
5 232 437 496 558 554 
5 197 232 554 379 701 
5 557 558 496 777 776 
5 314 638 671 731 757 
6 451 530 591 889 902 672 
5 671 672 451 753 731 
5 728 729 758 752 233 
5 757 758 729 926 314 
4 845 890 914 930 
6 233 158 530 451 753 752 
6 728 729 926 930 845 175 
5 175 159 158 233 728 
6 314 638 915 914 930 926 
5 281 623 997 996 665 
6 181 269 999 997 623 622 
6 35 282 350 650 537 608 
5 30 223 651 606 26 
5 30 223 537 608 592 
4 26 29 605 606 
6 349 350 650 651 606 605 
5 421 422 811 849 848 
4 810 811 849 818 
5 158 148 738 721 233 
6 64 662 728 233 721 720 
4 64 462 234 662 
5 160 145 147 307 446 
5 175 445 234 662 728 
6 306 307 446 445 234 462 
5 156 157 336 418 419 
5 788 789 875 873 457 
6 541 628 808 807 746 769 
5 314 315 648 925 926 
4 144 143 228 230 
6 236 235 433 551 501 308 
5 236 308 719 486 388 
5 230 228 1045 761 821 
6 54 332 509 599 382 381 
4 157 332 509 336 
5 549 550 713 819 583 
4 124 386 489 478 
5 395 396 422 421 37 
6 123 124 478 477 316 831 
5 477 478 489 834 839 
5 114 237 235 433 432 
4 114 113 238 237 
4 675 681 677 1012 
5 63 125 673 669 463 
5 60 149 231 669 463 
6 149 231 1014 1012 675 674 
6 126 162 1014 1012 677 676 
5 36 339 279 643 563 
6 58 135 136 105 479 326 
5 133 279 643 1048 1047 
5 239 59 480 481 562 
5 34 36 563 562 481 
5 562 563 643 1048 239 
6 58 135 1047 1048 239 59 
5 326 377 932 928 479 
6 568 623 997 677 1012 1013 
6 211 78 679 723 989 990 
4 211 78 665 281 
4 324 568 1013 1018 
5 458 459 1020 1022 515 
5 314 315 240 660 757 
5 481 522 909 904 562 
5 239 562 904 778 779 
6 291 378 783 909 904 778 
7 11 270 452 371 188 790 791 
4 187 188 371 331 
6 331 371 452 118 549 550 
4 270 278 118 452 
5 42 242 241 50 45 
4 12 291 778 784 
5 72 69 294 137 877 
6 69 71 516 517 293 294 
5 243 301 322 323 409 
5 243 218 871 426 301 
5 244 220 218 243 409 
5 244 220 132 139 227 
5 244 227 490 323 409 
5 72 297 426 871 877 
5 245 561 224 643 563 
6 279 280 734 735 224 643 
5 280 508 883 888 734 
4 245 350 650 561 
5 36 282 350 245 563 
4 655 721 233 752 
5 80 247 246 248 266 
5 80 247 686 729 758 
4 247 246 663 686 
6 62 64 662 663 246 248 
5 66 265 655 721 720 
5 62 248 266 265 66 
5 111 773 797 917 882 
6 111 288 425 471 470 773 
6 310 494 864 858 542 569 
4 288 425 858 542 
5 425 471 863 864 858 
5 310 569 881 862 715 
5 493 494 310 715 968 
6 48 47 493 968 967 727 
5 57 602 287 649 707 
6 78 55 840 841 213 211 
5 213 613 616 785 841 
5 381 382 216 649 707 
6 250 442 613 616 13 536 
6 213 212 249 983 974 841 
6 588 589 370 982 983 249 
4 274 370 589 535 
5 212 249 588 250 442 
5 535 536 250 588 589 
5 86 93 497 606 605 
6 767 825 846 285 905 910 
5 285 427 561 245 905 
5 497 606 651 771 763 
6 85 93 497 763 846 825 
6 349 350 245 905 910 121 
5 567 568 1013 775 183 
5 774 775 1013 1012 675 
5 373 933 927 993 952 
4 250 251 620 442 
6 249 435 413 661 694 588 
6 250 251 431 693 694 588 
6 430 431 251 620 619 292 
6 212 249 435 629 988 991 
6 164 292 430 901 1007 1006 
6 542 690 630 1023 1024 858 
6 424 425 858 1024 1026 366 
6 41 252 167 630 1023 1025 
5 192 253 254 340 847 
5 255 254 253 634 683 
6 204 633 682 338 636 637 
5 247 246 236 235 237 
5 237 247 80 81 238 
5 246 248 389 388 236 
5 415 416 451 753 566 
6 176 621 709 506 759 760 
6 177 313 880 881 862 824 
5 309 310 715 466 110 
6 238 81 660 240 112 113 
6 438 493 968 971 894 895 
5 186 284 976 973 443 
5 186 284 521 169 351 
5 97 390 897 895 438 
5 354 355 166 688 209 
6 50 51 352 353 678 241 
5 353 355 166 698 678 
6 252 167 698 678 241 242 
4 42 242 252 41 
4 209 688 630 1023 
5 296 436 528 289 893 
5 410 436 528 633 682 
5 66 265 410 682 338 
4 204 289 528 633 
5 259 257 256 273 576 
5 258 273 576 254 340 
4 255 254 576 259 
5 62 61 487 389 248 
5 246 236 308 575 663 
6 662 663 575 806 670 234 
5 462 463 669 670 234 
6 26 31 558 496 497 606 
5 91 89 514 495 368 
5 93 88 777 496 497 
6 31 33 1005 1004 557 558 
5 251 431 573 628 541 
4 572 573 628 808 
4 203 292 430 384 
6 202 376 807 746 1020 1019 
5 203 202 376 383 384 
5 251 541 769 768 620 
5 407 408 287 649 216 
5 226 228 230 280 734 
5 224 225 1050 1048 643 
5 142 305 225 1050 1049 
5 141 142 305 358 359 
5 168 511 834 839 798 
7 452 453 885 892 749 750 118 
5 384 430 901 885 453 
6 693 859 873 457 891 900 
4 431 573 859 693 
6 222 504 532 184 1040 1039 
5 171 465 184 1040 1038 
5 283 284 186 319 505 
5 185 260 380 295 546 
6 200 195 791 790 546 295 
6 260 372 453 384 203 380 
5 200 195 10 376 202 
5 185 188 371 372 260 
5 94 87 575 663 686 
6 82 94 686 729 926 925 
5 234 445 764 437 670 
6 603 604 833 964 983 974 
5 689 857 833 964 969 
7 102 253 254 576 800 787 635 
6 103 385 642 966 565 564 
6 258 340 847 936 934 598 
5 272 273 258 598 965 
4 102 253 192 104 
5 411 412 420 766 740 
6 417 632 937 947 951 685 
5 412 420 533 938 940 
6 411 412 940 946 950 607 
5 161 67 75 766 740 
6 56 604 833 844 723 679 
6 761 762 911 922 1046 1045 
6 189 303 439 387 441 440 
5 189 303 494 310 309 
5 196 107 109 440 441 
5 146 614 903 1030 1034 
4 416 451 530 1032 
5 261 260 185 398 624 
5 30 223 624 261 25 
6 330 331 371 372 28 593 
5 25 261 260 372 28 
6 191 413 435 964 969 961 
5 562 563 245 905 904 
5 102 253 634 529 992 
6 412 420 581 478 124 485 
5 119 525 732 733 832 
6 219 199 596 597 949 955 
6 262 232 554 261 624 625 
5 25 31 558 554 261 
4 262 625 772 751 
5 262 232 437 764 751 
5 193 263 653 610 194 
5 193 195 200 201 263 
6 201 263 653 459 1020 1019 
5 142 294 69 304 305 
5 516 517 1036 1040 184 
5 28 372 453 885 803 
5 412 485 544 918 940 
4 460 461 1029 708 
5 391 450 950 607 1033 
6 165 391 1033 1035 1029 461 
5 450 586 924 946 950 
5 210 256 273 272 170 
4 92 500 552 645 
6 243 409 683 634 529 512 
5 301 302 941 512 243 
4 106 346 787 635 
5 106 346 302 941 994 
5 322 323 259 576 800 
5 255 259 323 409 683 
4 545 546 295 702 
5 201 263 101 344 659 
5 263 101 439 387 193 
5 101 100 652 653 263 
5 99 208 190 189 303 
5 208 190 374 611 286 
6 570 571 194 610 611 374 
4 249 435 964 983 
5 209 208 190 687 688 
4 858 864 98 1024 
5 219 199 512 243 218 
5 261 260 380 379 554 
5 596 597 924 918 953 
6 74 70 977 972 454 343 
5 343 446 307 850 454 
5 229 257 259 323 490 
7 345 346 106 488 489 478 581 
5 168 511 312 564 565 
5 455 503 641 781 780 
5 262 311 454 343 751 
5 262 311 444 397 625 
5 782 783 378 792 730 
6 302 938 940 918 953 941 
6 539 745 775 1013 1018 1015 
6 174 225 1050 920 919 115 
6 116 285 905 904 778 784 
5 239 779 920 1050 1048 
7 229 257 256 210 1038 1040 1036 
5 112 240 315 648 647 
6 217 140 1049 1050 920 907 
6 473 474 951 947 949 948 
6 747 748 117 876 877 72 
6 426 871 955 949 947 937 
4 474 577 685 951 
5 597 924 946 947 949 
6 237 247 686 94 95 114 
4 262 232 197 311 
4 231 198 851 149 
5 447 448 338 636 627 
5 379 380 295 702 701 
4 264 337 887 736 
5 415 416 1032 1034 1030 
4 267 268 483 482 
4 400 401 269 999 
5 383 384 453 452 270 
5 676 677 681 1008 1011 
6 524 555 714 820 534 556 
5 272 273 576 800 799 
5 274 370 982 975 399 
4 275 510 582 987 
5 449 515 567 622 639 
4 276 277 522 523 
5 435 629 844 833 964 
6 854 855 842 878 874 278 
5 279 280 508 507 339 
5 622 623 281 640 639 
4 443 444 545 390 
5 349 350 282 421 422 
6 383 384 430 431 573 572 
5 689 899 908 961 969 
5 373 544 918 953 952 
6 545 546 790 795 897 390 
5 610 611 286 652 653 
5 287 408 574 601 602 
5 856 857 689 899 472 
5 430 431 693 900 901 
5 458 459 653 652 290 
4 298 299 400 401 
5 300 449 515 1022 768 
5 301 302 938 937 426 
5 438 439 303 494 493 
6 308 575 806 805 718 719 
5 309 310 569 711 712 
6 443 444 311 454 972 973 
5 488 489 834 511 312 
4 320 321 394 393 
5 322 323 490 517 516 
6 567 568 324 1021 1022 515 
6 325 495 368 699 1004 1005 
6 411 412 485 484 733 732 
5 333 334 434 817 818 
4 336 418 656 657 
4 414 456 403 513 
5 413 435 629 1006 1007 
5 445 446 343 751 764 
6 482 483 894 896 626 347 
6 348 519 708 1029 1031 913 
6 447 448 664 1010 1009 931 
6 654 655 721 738 614 903 
4 362 553 714 555 
5 367 379 554 558 557 
4 363 364 491 492 
5 405 406 1025 1026 369 
5 507 508 582 510 518 
5 368 472 899 908 495 
4 371 372 453 452 
5 577 685 417 747 748 
5 381 382 820 714 553 
5 488 489 386 933 927 
4 385 642 934 936 
6 432 433 551 552 645 644 
5 438 439 387 658 895 
5 684 685 577 889 591 
4 388 389 487 486 
6 392 399 975 974 841 785 
5 404 464 521 726 646 
4 397 398 624 625 
5 547 548 402 594 595 
4 469 470 471 691 
5 407 408 574 556 534 
5 580 581 420 766 765 
5 424 425 471 691 692 
5 427 561 650 651 771 
5 496 497 763 764 437 
4 440 441 571 570 
4 454 850 865 972 
4 509 587 600 599 
6 835 860 865 972 977 962 
5 484 485 544 543 475 
5 491 492 476 549 550 
4 477 478 581 580 
6 543 544 918 924 586 585 
6 614 615 637 636 737 738 
5 598 934 642 966 965 
4 500 501 551 552 
5 502 503 866 865 860 
5 512 529 992 994 941 
4 524 556 574 601 
6 530 591 684 607 1033 1032 
5 631 632 937 938 533 
5 537 608 884 887 736 
5 538 539 745 781 641 
5 559 560 942 943 540 
4 542 569 711 690 
5 564 565 786 787 635 
5 654 655 752 753 566 
4 567 568 623 622 
6 572 573 859 873 875 874 
6 582 822 762 911 984 987 
5 599 600 855 854 583 
5 656 657 827 826 584 
5 684 685 951 950 607 
5 617 618 609 644 645 
4 614 615 912 903 
6 843 844 629 1006 1004 699 
5 619 620 768 1022 1021 
5 709 710 717 716 621 
5 626 754 795 897 896 
5 636 637 794 793 627 
6 687 688 630 690 711 712 
5 671 672 902 915 638 
4 693 694 661 900 
5 726 727 797 798 646 
5 795 796 658 895 897 
5 701 702 659 1015 1016 
5 662 663 686 729 728 
5 667 668 760 759 666 
5 669 670 806 805 673 
5 715 862 916 967 968 
6 674 675 681 1008 1009 898 
5 676 677 997 996 700 
4 679 680 722 723 
4 703 704 719 718 
4 705 706 783 782 
5 732 733 708 1029 1035 
5 768 769 746 1020 1022 
4 713 714 820 819 
4 720 721 738 737 
6 730 792 923 914 930 929 
5 752 753 731 757 758 
5 735 736 887 888 734 
6 739 740 766 765 837 836 
5 741 742 796 795 754 
4 743 744 756 755 
5 774 775 745 781 780 
4 749 750 789 788 
5 763 764 751 772 771 
4 761 762 822 821 
5 782 783 909 910 767 
5 793 794 852 813 770 
5 797 798 839 838 773 
4 776 777 806 805 
5 778 779 920 919 784 
4 786 787 800 799 
4 790 791 796 795 
4 803 828 892 885 
5 826 827 804 868 867 
5 814 815 832 831 809 
4 812 813 852 853 
5 817 818 849 848 816 
5 845 846 825 929 930 
4 829 830 854 855 
5 843 844 833 857 856 
5 836 837 835 860 861 
5 867 868 842 878 879 
4 850 851 866 865 
5 881 882 917 916 862 
5 876 877 871 955 954 
4 874 875 879 878 
4 883 884 887 888 
5 891 892 885 901 900 
4 886 898 1009 931 
5 889 890 914 915 902 
4 894 895 897 896 
5 912 913 1031 1030 903 
4 904 905 910 909 
4 906 907 920 919 
5 921 922 911 984 985 
5 916 917 935 959 958 
4 918 924 946 940 
4 925 926 930 929 
6 931 939 1003 1000 1008 1009 
5 937 938 940 946 947 
5 952 953 941 994 993 
4 942 943 944 945 
4 946 947 951 950 
4 948 949 955 954 
5 958 959 966 965 957 
4 962 963 976 977 
4 967 968 971 970 
4 972 973 976 977 
4 974 975 982 983 
4 978 979 980 981 
4 984 985 986 987 
4 988 989 990 991 
4 1000 1001 1002 1003 
4 1004 1005 1007 1006 
4 1008 1009 1010 1011 
5 1012 1013 1018 1017 1014 
4 1015 1016 1017 1018 
4 1019 1020 1022 1021 
4 1023 1024 1026 1025 
5 1030 1031 1029 1035 1034 
4 1032 1033 1035 1034 
4 1036 1037 1039 1040 
5 1039 1040 1038 1043 1044 
4 1041 1042 1043 1044 
4 1047 1048 1050 1049 
