# vtk DataFile Version 2.0
polydata
ASCII
DATASET POLYDATA
POINTS 50 double
3.61572595764069 2.92390143779196 2.01857354320552 
3.9027742578389 3.31055273734376 1.85789501784763 
6.3951057642888 2.64229576395519 4.91356187954531 
4.00550954575383 4.05116994384626 2.23130285294212 
3.16986737712085 3.87870755609344 2.79952889986414 
3.41567881184247 4.16944752702024 2.69501715208363 
3.58567898459999 3.62041492768136 3.17759672526732 
2.97961781705403 3.50516145931084 2.26723949138945 
6.10701890538549 2.94857164755087 5.88684615357705 
6.05769924345179 3.40401766758796 5.84583387501655 
5.77671195112836 2.77150637999405 5.69683137652758 
5.3858493325905 3.10045902559181 5.47232350394172 
5.82539334099881 2.52685781706817 5.25596932084192 
6.35001801470047 2.52307026337341 5.10740321754912 
3.43784261447451 2.73934770944306 2.50928827369859 
3.65302296453207 4.09334885691524 2.11747161271508 
3.52894114521218 3.85644883662414 1.96909509564821 
5.41844704802691 3.31011028445746 4.79646956897625 
5.34270989693436 2.97631912969321 4.90574225532915 
5.50153931390653 3.45803767968213 5.48817795274608 
5.5165902957254 3.59852929018015 5.13260410696505 
4.297742684261 3.41851013713451 2.67352170888726 
5.48526777951923 2.80044073684874 4.83245180359328 
2.96432565399369 3.16893934761314 2.5477336875539 
2.93512814846253 3.52460624493541 2.47190808059909 
3.75345622761722 2.74233215873769 2.26841283528812 
4.14177730599195 3.74932561194108 2.89665639939083 
3.74032218660782 3.76977026956617 3.15560494555787 
5.84586796599047 2.91033215484227 4.60169090526557 
5.81644568568282 3.29520292273633 4.5685365986248 
4.00208366892835 4.11207535217715 2.65215367246156 
3.64409803929616 4.16637314138193 2.85098611602891 
6.79802545817301 2.94489127830927 5.14363049592974 
6.82723450954933 3.23582193536102 5.17565073327546 
6.74135942574955 3.33073757228531 5.61431211770205 
4.11308458980807 3.29262332316173 1.95768863301547 
4.25142007733004 3.56569787441713 2.15176559801729 
6.07629138361427 3.77395145266597 4.92078025705816 
3.65055330598425 3.07245594525698 3.03394346087508 
4.02887747026141 2.84661089694584 2.33077104162847 
4.11436002828666 3.01334853996211 2.72410873948694 
3.3917328995738 2.91835933449001 2.85031355734239 
6.14136983836778 3.60649300806952 4.71680725269261 
6.55649695229633 3.58746783769331 4.95236991509833 
6.69661116838982 2.74423264628759 5.41522942342186 
6.62072945949859 2.91248122255525 5.70432044196823 
3.0394607224014 2.9954502791665 2.30857058642588 
3.06027972895916 3.04877070157259 2.21753679661797 
6.43496147158913 3.75510715855953 5.12001368940345 
6.50126037295175 3.57901442784702 5.62707858579939 
POLYGONS 29 179
5 1 0 25 39 35 
7 28 29 42 43 33 32 2 
5 21 26 30 3 36 
5 4 5 31 27 6 
5 23 24 7 47 46 
5 11 10 8 9 19 
6 26 27 6 38 40 21 
6 8 10 12 13 44 45 
5 13 2 28 22 12 
6 4 5 15 16 7 24 
5 15 5 31 30 3 
5 0 25 14 46 47 
4 14 41 23 46 
5 1 0 47 7 16 
6 4 6 38 41 23 24 
6 14 25 39 40 38 41 
6 16 15 3 36 35 1 
5 17 18 11 19 20 
5 17 18 22 28 29 
5 17 20 37 42 29 
5 11 18 22 12 10 
6 9 19 20 37 48 49 
5 9 8 45 34 49 
4 13 2 32 44 
5 33 34 49 48 43 
5 35 36 21 40 39 
4 26 27 31 30 
5 33 34 45 44 32 
4 42 43 48 37 
CELL_DATA 29
SCALARS scalar_1 double
LOOKUP_TABLE default
0.03105336575475875
0.029753629462884325
0.03105336575475875
0.03105336575475875
0.03105336575475875
0.029753629462884325
0.03105336575475875
0.029753629462884325
0.029753629462884325
0.03105336575475875
0.03105336575475875
0.03105336575475875
0.03105336575475875
0.03105336575475875
0.03105336575475875
0.03105336575475875
0.03105336575475875
0.029753629462884325
0.029753629462884325
0.029753629462884325
0.029753629462884325
0.029753629462884325
0.029753629462884325
0.029753629462884325
0.029753629462884325
0.03105336575475875
0.03105336575475875
0.029753629462884325
0.029753629462884325
