# vtk DataFile Version 2.0
polydata
ASCII
DATASET POLYDATA
POINTS 50 double
3.62004366394982 2.9201335333115 2.01734143901555 
3.90820160594436 3.30851541397391 1.8560305660487 
6.40225866888192 2.64477872632043 4.91424286530934 
4.01431014382289 4.04502420623142 2.22936058018812 
3.1773198869245 3.87260708116588 2.8007449994004 
3.4217869328659 4.16277743158106 2.69623718087176 
3.5931378259671 3.61403326147451 3.17722838806148 
2.98563974394679 3.49880817444561 2.26696604096486 
6.11497130159982 2.95263804414386 5.887587139502 
6.06561713435284 3.4089923042079 5.84579228931538 
5.7836358959365 2.77493306935163 5.69686981294103 
5.39345908928199 3.10351254014569 5.4721995369694 
5.8324844704301 2.52992777691708 5.25668728286806 
6.35711097085181 2.52572718936905 5.10826749254529 
3.44225595497861 2.7345520295756 2.50928715448952 
3.65925067888581 4.08697223164696 2.11497301265516 
3.53606169630856 3.85184788230125 1.9676883765113 
5.42681347453219 3.31423070123704 4.79485527675784 
5.35035450597615 2.97859374132742 4.90508948780607 
5.50988826492364 3.46266356321914 5.48776037891582 
5.52498174639884 3.60301217010009 5.13028242856844 
4.30561386575918 3.41699365924254 2.67309835832531 
5.49223062281103 2.80338786541662 4.83231232814314 
2.97025753215407 3.16265313209213 2.54719471670086 
2.94135409860255 3.51793783560067 2.47204059398234 
3.75831143974321 2.73752515144329 2.26800852852133 
4.1509265759075 3.74506480952499 2.89466205470536 
3.74888545436656 3.76489413626781 3.15482977121968 
5.852811814146 2.91297402461709 4.60160098901824 
5.82362449752633 3.29869697248707 4.56786341758947 
4.01099230066673 4.10606158506944 2.6511335360766 
3.65127782226638 4.15994996512407 2.85188200767473 
6.80554134068782 2.94737513822369 5.14441122372213 
6.83484034300296 3.23700890462604 5.17617883229597 
6.7485421861429 3.33277553824316 5.61562318333805 
4.11990116158781 3.2904922794821 1.95619513787572 
4.25866403234756 3.56418919085107 2.15059780357444 
6.08409428145682 3.77736525509366 4.91890614346562 
3.65810936289197 3.06774241056658 3.03360580221816 
4.03541343166226 2.84222719195993 2.33075218351631 
4.12096658663886 3.00882151075844 2.72406734983161 
3.39679330759267 2.91224439483307 2.84824555614633 
6.14892080393724 3.61000036070344 4.71594542992633 
6.56332199372918 3.59049466314157 4.95153534184471 
6.70377359001816 2.74694023093861 5.41583561250509 
6.62762163999789 2.91614342068022 5.70582904508227 
3.04428429485004 2.99073835139333 2.30949798248592 
3.06537027357904 3.04509233411605 2.2168818098608 
6.44202995232976 3.75835557755936 5.11869335970258 
6.50778518783974 3.58241225537664 5.62798424866866 
POLYGONS 29 179
5 1 0 25 39 35 
7 28 29 42 43 33 32 2 
5 21 26 30 3 36 
5 4 5 31 27 6 
5 23 24 7 47 46 
5 11 10 8 9 19 
6 26 27 6 38 40 21 
6 8 10 12 13 44 45 
5 13 2 28 22 12 
6 4 5 15 16 7 24 
5 15 5 31 30 3 
5 0 25 14 46 47 
4 14 41 23 46 
5 1 0 47 7 16 
6 4 6 38 41 23 24 
6 14 25 39 40 38 41 
6 16 15 3 36 35 1 
5 17 18 11 19 20 
5 17 18 22 28 29 
5 17 20 37 42 29 
5 11 18 22 12 10 
6 9 19 20 37 48 49 
5 9 8 45 34 49 
4 13 2 32 44 
5 33 34 49 48 43 
5 35 36 21 40 39 
4 26 27 31 30 
5 33 34 45 44 32 
4 42 43 48 37 
CELL_DATA 29
SCALARS scalar_1 double
LOOKUP_TABLE default
0.02683696742280297
0.01924858698384733
0.02683696742280297
0.02683696742280297
0.02683696742280297
0.01924858698384733
0.02683696742280297
0.01924858698384733
0.01924858698384733
0.02683696742280297
0.02683696742280297
0.02683696742280297
0.02683696742280297
0.02683696742280297
0.02683696742280297
0.02683696742280297
0.02683696742280297
0.01924858698384733
0.01924858698384733
0.01924858698384733
0.01924858698384733
0.01924858698384733
0.01924858698384733
0.01924858698384733
0.01924858698384733
0.02683696742280297
0.02683696742280297
0.01924858698384733
0.01924858698384733
