# vtk DataFile Version 2.0
polydata
ASCII
DATASET POLYDATA
POINTS 50 double
3.61089973348947 2.92022861894783 2.01705009122967 
3.89940509526579 3.30909295625919 1.85550726227079 
6.39291173843437 2.64512492735639 4.91368172202974 
4.00536283266366 4.04603452091748 2.22887376865026 
3.16706518929985 3.87370423353462 2.80099492777098 
3.41174489942343 4.16406583993355 2.69649241413728 
3.58379224471534 3.61465619180066 3.17831331970921 
2.9755985921454 3.49996513767424 2.26701142233845 
6.10552403986521 2.95292086067718 5.88813981194466 
6.05614155608432 3.40980376144348 5.84629649933015 
5.7741182496198 2.77523222072539 5.69740579268709 
5.38352533570643 3.10402525748625 5.47246488281501 
5.82289459627955 2.53000764689746 5.2568501978081 
6.34764662318532 2.52568995305319 5.10836913786369 
3.43345146591107 2.73431525748871 2.50928389637984 
3.64969648242011 4.08805484667587 2.11427636496223 
3.52669928304123 3.8532806018915 1.96727492094428 
5.41685459238103 3.31497632640085 4.79448146410822 
5.34033650402284 2.97884844794928 4.90472679643253 
5.50006367515205 3.46355964834168 5.4880032439814 
5.51511470310516 3.60399716279635 5.13032868908959 
4.29695343983485 3.41733221510056 2.67341593072158 
5.4821091212135 2.80379338436868 4.83201058739414 
2.96013987576314 3.16373730618743 2.54762526163975 
2.93122201615577 3.51916856946454 2.4723933833909 
3.74937402786092 2.73733173911992 2.268059393893 
4.1423803786178 3.74520012545109 2.89493980114623 
3.73907559461322 3.76500996554715 3.15601807317691 
5.84333016438655 2.91343559337426 4.60103246413013 
5.81417652176848 3.29954042029462 4.56725594495943 
4.00206030905192 4.10714480622596 2.6507713307456 
3.6412503144873 4.16124828953781 2.85215976202335 
6.79709606880163 2.94843103555748 5.14419426546065 
6.8263164670616 3.23772249245602 5.17590131083383 
6.73982630797364 3.33367569931188 5.61595474486223 
4.11110645547791 3.29107255570013 1.95563098357201 
4.24989478719447 3.5647600270132 2.15001876902107 
6.07447599672831 3.77854095508361 4.91884252807028 
3.64876895093529 3.06777598941088 3.0344005099847 
4.02653966419262 2.84208880613459 2.33080329547929 
4.11213898583868 3.00882655873463 2.72439324931526 
3.38787580257619 2.91257049327321 2.84944427802816 
6.13943094757996 3.61067880961211 4.71522637944126 
6.55477440562797 3.59107553407265 4.95126797872054 
6.69495262750347 2.74726123174641 5.4165941940092 
6.61879744908524 2.91630681589698 5.70624430013832 
3.03449063862591 2.99116094231072 2.30906848245958 
3.0555229421349 3.04535629503796 2.21676388521147 
6.43305215247948 3.75950714309728 5.11894452513144 
6.49881270526348 3.5834980716456 5.62827297977493 
POLYGONS 29 179
5 1 0 25 39 35 
7 28 29 42 43 33 32 2 
5 21 26 30 3 36 
5 4 5 31 27 6 
5 23 24 7 47 46 
5 11 10 8 9 19 
6 26 27 6 38 40 21 
6 8 10 12 13 44 45 
5 13 2 28 22 12 
6 4 5 15 16 7 24 
5 15 5 31 30 3 
5 0 25 14 46 47 
4 14 41 23 46 
5 1 0 47 7 16 
6 4 6 38 41 23 24 
6 14 25 39 40 38 41 
6 16 15 3 36 35 1 
5 17 18 11 19 20 
5 17 18 22 28 29 
5 17 20 37 42 29 
5 11 18 22 12 10 
6 9 19 20 37 48 49 
5 9 8 45 34 49 
4 13 2 32 44 
5 33 34 49 48 43 
5 35 36 21 40 39 
4 26 27 31 30 
5 33 34 45 44 32 
4 42 43 48 37 
CELL_DATA 29
SCALARS scalar_1 double
LOOKUP_TABLE default
0.004976372267024293
0.00407216360998709
0.004976372267024293
0.004976372267024293
0.004976372267024293
0.00407216360998709
0.004976372267024293
0.00407216360998709
0.00407216360998709
0.004976372267024293
0.004976372267024293
0.004976372267024293
0.004976372267024293
0.004976372267024293
0.004976372267024293
0.004976372267024293
0.004976372267024293
0.00407216360998709
0.00407216360998709
0.00407216360998709
0.00407216360998709
0.00407216360998709
0.00407216360998709
0.00407216360998709
0.00407216360998709
0.004976372267024293
0.004976372267024293
0.00407216360998709
0.00407216360998709
