# vtk DataFile Version 2.0
polydata
ASCII
DATASET POLYDATA
POINTS 50 double
3.61247678863869 2.91684679064187 2.01933127795685 
3.90099388557823 3.30572320604837 1.85778093960271 
6.39448024352806 2.64174976944397 4.91595260941813 
4.00692497410948 4.04266679693752 2.23113451726791 
3.16861683388437 3.87034580176286 2.8032752638947 
3.41329367333153 4.16070455256096 2.69877444580988 
3.58535379639383 3.61129665949759 3.18060482660686 
2.97715113457925 3.49661049925048 2.2693037817314 
6.10708430553136 2.94955547331974 5.89042116263788 
6.05769790201784 3.40646113806232 5.84857198635173 
5.77568316980355 2.7718671219917 5.6996896347421 
5.38508354911416 3.10066144353307 5.47474513884745 
5.82445931857735 2.52663431887924 5.25911823803762 
6.34921636243229 2.52231755468929 5.11063576906816 
3.43503871993777 2.73093225640667 2.51155593136094 
3.65125456734421 4.08468823256864 2.11653555391528 
3.52827118314084 3.84993968708298 1.96955184717302 
5.41841019643617 3.31161034488895 4.79676103172688 
5.341894633725 2.97548611138537 4.90700847276444 
5.501627806768 3.46021321836137 5.49028313636645 
5.51667590592946 3.60064409105745 5.13262017916511 
4.29852169541489 3.41395119152387 2.67569435419471 
5.4836836651839 2.80041226065126 4.83428499802171 
2.96169365127325 3.16038914052057 2.54990763676654 
2.93277660304721 3.51581289213761 2.47467649306774 
3.75094947322061 2.73395005517101 2.27033790134685 
4.14395333481993 3.74180845239641 2.89721268320771 
3.74061140109901 3.76162149141778 3.15831526478956 
5.84490503560095 2.9100570402132 4.60330449113199 
5.81574988263788 3.29617474170418 4.56952545564532 
4.00362314891142 4.10377741399495 2.65302712980377 
3.64278448077013 4.15788752981518 2.85443243259204 
6.79864419981599 2.94504248908122 5.14645621328226 
6.82786988875985 3.2343666025197 5.17816583368625 
6.74137731850037 3.33032494713857 5.61823604784608 
4.11267606450322 3.28770382738636 1.95789487418825 
4.25146085445534 3.56138388352695 2.15227718382326 
6.07604589011041 3.77519224968229 4.92112544865062 
3.65033139845108 3.06438890257259 3.03668231437987 
4.02810709408675 2.8387043571061 2.33307991745718 
4.11370559740876 3.00544187082161 2.72667060141936 
3.38946197932914 2.90920003542839 2.8517472453526 
6.14100457207316 3.60731767821456 4.71749550182688 
6.55633371017885 3.58771820672525 4.95353069668653 
6.69650541628007 2.74388079357866 5.41884534473263 
6.62034196677836 2.9129456170297 5.70853034801183 
3.03605199505333 2.98779780335835 2.31133083249165 
3.05707929189404 3.04197938014437 2.2190510799571 
6.434603688565 3.75615995964667 5.12121709800183 
6.50036147002548 3.58015019234464 5.63055135721709 
POLYGONS 29 179
5 1 0 25 39 35 
7 28 29 42 43 33 32 2 
5 21 26 30 3 36 
5 4 5 31 27 6 
5 23 24 7 47 46 
5 11 10 8 9 19 
6 26 27 6 38 40 21 
6 8 10 12 13 44 45 
5 13 2 28 22 12 
6 4 5 15 16 7 24 
5 15 5 31 30 3 
5 0 25 14 46 47 
4 14 41 23 46 
5 1 0 47 7 16 
6 4 6 38 41 23 24 
6 14 25 39 40 38 41 
6 16 15 3 36 35 1 
5 17 18 11 19 20 
5 17 18 22 28 29 
5 17 20 37 42 29 
5 11 18 22 12 10 
6 9 19 20 37 48 49 
5 9 8 45 34 49 
4 13 2 32 44 
5 33 34 49 48 43 
5 35 36 21 40 39 
4 26 27 31 30 
5 33 34 45 44 32 
4 42 43 48 37 
CELL_DATA 29
SCALARS scalar_1 double
LOOKUP_TABLE default
0.004759092104227913
0.004202612682599551
0.004759092104227913
0.004759092104227913
0.004759092104227913
0.004202612682599551
0.004759092104227913
0.004202612682599551
0.004202612682599551
0.004759092104227913
0.004759092104227913
0.004759092104227913
0.004759092104227913
0.004759092104227913
0.004759092104227913
0.004759092104227913
0.004759092104227913
0.004202612682599551
0.004202612682599551
0.004202612682599551
0.004202612682599551
0.004202612682599551
0.004202612682599551
0.004202612682599551
0.004202612682599551
0.004759092104227913
0.004759092104227913
0.004202612682599551
0.004202612682599551
