# vtk DataFile Version 2.0
polydata
ASCII
DATASET POLYDATA
POINTS 50 double
3.6122442463611 2.9163913384006 2.02228958916384 
3.90077214119232 3.30527793291663 1.86073197061633 
6.39424239459874 2.6413007395433 4.91890519765346 
4.0066779460492 4.04222198266347 2.23407155090594 
3.16836291948822 3.86991076966125 2.80622775748035 
3.41303652932892 4.16026575227528 2.70172806334016 
3.58510780925147 3.6108619380727 3.18356723661921 
2.9768970092156 3.49617834591748 2.27227101763559 
6.10683751226279 2.94911614520131 5.89338009452932 
6.05744734069043 3.40604391988992 5.85152438769493 
5.77544169641186 2.77142818562765 5.70265113059915 
5.38483707650088 3.10022363117148 5.4777033340263 
5.82421815005912 2.52618800592824 5.2620661791844 
6.34897993677592 2.52187225062917 5.11358271458132 
3.43481615826997 2.73047707636331 2.51450463854308 
3.65100496918962 4.08424431394545 2.11947128202638 
3.52803481964294 3.84952016383945 1.97250462775709 
5.41816223318938 3.31116984841584 4.79972069121644 
5.34164872290109 2.97505049078088 4.90997082236031 
5.50138758139683 3.45979176146731 5.49324088858184 
5.51643326451065 3.60021540046329 5.13558918164801 
4.29827916169201 3.41349595422749 2.67864803967026 
5.48345439981921 2.79995714678521 4.83724011920747 
2.96144104993063 3.15996496463544 2.55286300713861 
2.93252504569017 3.51537969899121 2.47763215272252 
3.75071491206064 2.73349545709617 2.27329364756028 
4.14371550577502 3.74134331132879 2.90015984295212 
3.74034211405395 3.76116029649755 3.16128250808318 
5.84467420687773 2.90960407797594 4.60625804000348 
5.81551754031189 3.29573333414412 4.57247633044085 
4.00337667635331 4.10333322171117 2.65595850043555 
3.64251439444826 4.1574493567116 2.8573776727903 
6.79838193906632 2.94457723829366 5.14939795093883 
6.82761322967023 3.2339365146886 5.18111021030683 
6.74111886140326 3.3298997782275 5.62119542664506 
4.11243583642877 3.28725956036145 1.96083675681167 
4.2512168645123 3.56093190938683 2.1552129460919 
6.07581247355152 3.7747664499536 4.92408589283678 
3.6500860341813 3.06392969277788 3.03963750993678 
4.02786421030837 2.83824676975806 2.33603374722523 
4.11346159866749 3.0049843426204 2.72962397375513 
3.38923869599761 2.908756072027 2.85472220809028 
6.14077387751843 3.60688243867237 4.72044678768557 
6.55608279499744 3.58728737611596 4.95647265409654 
6.69624890767773 2.74342585776589 5.42177387192138 
6.62007698756364 2.91251065905934 5.71149490197724 
3.03580566848947 2.98736088302099 2.31427014651185 
3.05682804467399 3.04152877985216 2.22201458602272 
6.43434775939029 3.7557359799907 5.12416531602163 
6.50010256854221 3.57972623914936 5.63350727124431 
POLYGONS 29 179
5 1 0 25 39 35 
7 28 29 42 43 33 32 2 
5 21 26 30 3 36 
5 4 5 31 27 6 
5 23 24 7 47 46 
5 11 10 8 9 19 
6 26 27 6 38 40 21 
6 8 10 12 13 44 45 
5 13 2 28 22 12 
6 4 5 15 16 7 24 
5 15 5 31 30 3 
5 0 25 14 46 47 
4 14 41 23 46 
5 1 0 47 7 16 
6 4 6 38 41 23 24 
6 14 25 39 40 38 41 
6 16 15 3 36 35 1 
5 17 18 11 19 20 
5 17 18 22 28 29 
5 17 20 37 42 29 
5 11 18 22 12 10 
6 9 19 20 37 48 49 
5 9 8 45 34 49 
4 13 2 32 44 
5 33 34 49 48 43 
5 35 36 21 40 39 
4 26 27 31 30 
5 33 34 45 44 32 
4 42 43 48 37 
CELL_DATA 29
SCALARS scalar_1 double
LOOKUP_TABLE default
0.004621314266829537
0.004251448410399178
0.004621314266829537
0.004621314266829537
0.004621314266829537
0.004251448410399178
0.004621314266829537
0.004251448410399178
0.004251448410399178
0.004621314266829537
0.004621314266829537
0.004621314266829537
0.004621314266829537
0.004621314266829537
0.004621314266829537
0.004621314266829537
0.004621314266829537
0.004251448410399178
0.004251448410399178
0.004251448410399178
0.004251448410399178
0.004251448410399178
0.004251448410399178
0.004251448410399178
0.004251448410399178
0.004621314266829537
0.004621314266829537
0.004251448410399178
0.004251448410399178
