# vtk DataFile Version 2.0
polydata
ASCII
DATASET POLYDATA
POINTS 50 double
3.60775839004867 2.92072454850317 2.02675402960317 
3.89629578981677 3.30962087574582 1.86519024948508 
6.38975228796376 2.64564091095851 4.92336604250718 
4.00217591979832 4.04656430728489 2.23851748549617 
3.16385742253191 3.87426103814516 2.81068786949137 
3.40852632110009 4.16461185355203 2.7061899306192 
3.58060775723163 3.61521329354376 3.18803435017499 
2.97239040065704 3.5005309968653 2.27674493574378 
6.10233765837273 2.9534675757019 5.89784384423876 
6.05294373491251 3.41041617475577 5.85598207017573 
5.77094835877379 2.77578027766966 5.70711804898738 
5.38033829790021 3.10457659753516 5.4821667471059 
5.81972535516035 2.53053245448213 5.26651881720857 
6.34449188976607 2.5262182424333 5.11803450994665 
3.43033921139625 2.73481038860715 2.51895920824505 
3.64650153690319 4.08858711549876 2.12391640032614 
3.52354430511825 3.85388634455105 1.97696551430667 
5.41366125177158 3.31551814894228 4.80418715387666 
5.33715091673053 2.97940624780174 4.91443955784873 
5.49689399339304 3.46415965878849 5.49770393884233 
5.51193722417719 3.60457580186862 5.14006531784762 
4.29378193240884 3.41782867498808 2.68310737487715 
5.4789750459045 2.80429158968066 4.84170092192959 
2.95693654263425 3.1643254508189 2.55732355345629 
2.92802127432314 3.51973065895404 2.48209355930308 
3.74622693749892 2.73782991773366 2.27775461505998 
4.13922179909309 3.7456669203678 2.90461374521326 
3.73581980113003 3.7654868611603 3.16575443978802 
5.84019052160816 2.91394039313337 4.61071863925082 
5.81103224845832 3.30008129657944 4.57693387202585 
3.9988749818664 4.10767528476961 2.66039895546654 
3.63799109162422 4.16179612835861 2.86183090890111 
6.79386397661296 2.9488983106199 5.15384657499452 
6.82310162456662 3.23829504119377 5.1855615942348 
6.73660594500381 3.33426281677268 5.62566027233763 
4.1079414395545 3.29160357113031 1.96528613184815 
4.24671832673879 3.56526815190438 2.15965683862037 
6.07132284424872 3.77912986244939 4.92855425934217 
3.64558732634615 3.06825842746029 3.04409742063016 
4.02336792002407 2.84257847762775 2.34049293701148 
4.10896398480689 3.00931552769312 2.7340824556862 
3.38476097519812 2.9130989441887 2.85920043541718 
6.13628760844245 3.6112346135366 4.72490349206718 
6.55157833444092 3.59164423031605 4.96092163574352 
6.69173837398184 2.747760863855 5.42620449186106 
6.61555773142667 2.91686709533022 5.71596436397804 
3.03130675434 2.99171071378838 2.31871663591317 
3.05232432030041 3.04586563190712 2.22648433656545 
6.42983717533402 3.76010105290856 5.12862212904429 
6.49558886800852 3.5840914197229 5.63796912223277 
POLYGONS 29 179
5 1 0 25 39 35 
7 28 29 42 43 33 32 2 
5 21 26 30 3 36 
5 4 5 31 27 6 
5 23 24 7 47 46 
5 11 10 8 9 19 
6 26 27 6 38 40 21 
6 8 10 12 13 44 45 
5 13 2 28 22 12 
6 4 5 15 16 7 24 
5 15 5 31 30 3 
5 0 25 14 46 47 
4 14 41 23 46 
5 1 0 47 7 16 
6 4 6 38 41 23 24 
6 14 25 39 40 38 41 
6 16 15 3 36 35 1 
5 17 18 11 19 20 
5 17 18 22 28 29 
5 17 20 37 42 29 
5 11 18 22 12 10 
6 9 19 20 37 48 49 
5 9 8 45 34 49 
4 13 2 32 44 
5 33 34 49 48 43 
5 35 36 21 40 39 
4 26 27 31 30 
5 33 34 45 44 32 
4 42 43 48 37 
CELL_DATA 29
SCALARS scalar_1 double
LOOKUP_TABLE default
0.004522912568525275
0.004253521348275908
0.004522912568525275
0.004522912568525275
0.004522912568525275
0.004253521348275908
0.004522912568525275
0.004253521348275908
0.004253521348275908
0.004522912568525275
0.004522912568525275
0.004522912568525275
0.004522912568525275
0.004522912568525275
0.004522912568525275
0.004522912568525275
0.004522912568525275
0.004253521348275908
0.004253521348275908
0.004253521348275908
0.004253521348275908
0.004253521348275908
0.004253521348275908
0.004253521348275908
0.004253521348275908
0.004522912568525275
0.004522912568525275
0.004253521348275908
0.004253521348275908
