# vtk DataFile Version 2.0
polydata
ASCII
DATASET POLYDATA
POINTS 50 double
3.60881960668257 2.92522002653426 2.02815970857083 
3.89736654359013 3.31412570322668 1.86659001985341 
6.39080814994805 2.65014026610279 4.92476514198282 
4.00322007944583 4.05106857075346 2.23990440256186 
3.1648977393472 3.87877303628032 2.81208905054474 
3.40956333639602 4.16912045120601 2.70759282557115 
3.58165399733571 3.61972644288456 3.18944304356116 
2.97343078801365 3.50504699214756 2.27815985835998 
6.10338474460529 2.95797789490228 5.89924691747359 
6.05398678376889 3.41494686697146 5.85737883112675 
5.77200193208667 2.78029070895375 5.70852473929452 
5.38138608783828 3.10908704981888 5.48357017228405 
5.82077922844237 2.53503502851145 5.26791137283512 
6.34554996492076 2.53072282368596 5.11942560849873 
3.43140920787718 2.73930555414506 2.52035533580561 
3.64754547365542 4.09309213057996 2.12530285142493 
3.52460104470977 3.85841501441819 1.97836779362446 
5.41470634837602 3.32002451428625 4.80559304337685 
5.33819909726243 2.98391875499844 4.91584782972259 
5.49794689277226 3.46868554426606 5.49910664444247 
5.51298737420507 3.60909417060664 5.1414809330405 
4.2948307572405 3.42232262242025 2.68450812594 
5.48004068246526 2.80878415883705 4.84310158622472 
2.95797850143026 3.1688487412945 2.55872608706366 
2.92906411210504 3.52424515621556 2.48349723379934 
3.74728607867941 2.74232629892738 2.27915709918591 
4.14027450892659 3.75015129559083 2.90600906733343 
3.73684348481294 3.76997450119292 3.16716808465778 
5.84125243132594 2.9184352681937 4.61211838751328 
5.81209225839281 3.30458737753463 4.57833089383149 
3.99991962290857 4.11217916151812 2.66178060355977 
3.63901444347328 4.16630507444133 2.86322508979101 
6.7948928616105 2.95337979558182 5.15523349837998 
6.8241363550111 3.24281232299971 5.18695117038161 
6.73763948096506 3.33878475193572 5.62706366033766 
4.10899319385766 3.29610947601204 1.96667659722379 
4.2477658197624 3.56976599693939 2.16104162121675 
6.07238021200211 3.78365153155153 4.92996154705597 
3.64663464913066 3.07274780829629 3.04549836447338 
4.02441774968235 2.84707168740974 2.34189348167252 
4.11001233785634 3.01380782196779 2.73548204827826 
3.38583021811992 2.91760342286068 2.8606205562433 
6.13734792370808 3.61574602716194 4.72630014605302 
6.55261936459907 3.59616017709894 4.96230929225661 
6.69277467902121 2.75225536585557 5.42757456783046 
6.61658546238046 2.92138282847314 5.71737270136412 
3.03235459605932 2.99622292767505 2.32010432987858 
3.05336750582532 3.05036503537344 2.22789505082077 
6.43087261785513 3.76462450615371 5.13001704235537 
6.49662165637742 3.58861510448852 5.63936957831082 
POLYGONS 29 179
5 1 0 25 39 35 
7 28 29 42 43 33 32 2 
5 21 26 30 3 36 
5 4 5 31 27 6 
5 23 24 7 47 46 
5 11 10 8 9 19 
6 26 27 6 38 40 21 
6 8 10 12 13 44 45 
5 13 2 28 22 12 
6 4 5 15 16 7 24 
5 15 5 31 30 3 
5 0 25 14 46 47 
4 14 41 23 46 
5 1 0 47 7 16 
6 4 6 38 41 23 24 
6 14 25 39 40 38 41 
6 16 15 3 36 35 1 
5 17 18 11 19 20 
5 17 18 22 28 29 
5 17 20 37 42 29 
5 11 18 22 12 10 
6 9 19 20 37 48 49 
5 9 8 45 34 49 
4 13 2 32 44 
5 33 34 49 48 43 
5 35 36 21 40 39 
4 26 27 31 30 
5 33 34 45 44 32 
4 42 43 48 37 
CELL_DATA 29
SCALARS scalar_1 double
LOOKUP_TABLE default
0.004425703147519518
0.004256508843819012
0.004425703147519518
0.004425703147519518
0.004425703147519518
0.004256508843819012
0.004425703147519518
0.004256508843819012
0.004256508843819012
0.004425703147519518
0.004425703147519518
0.004425703147519518
0.004425703147519518
0.004425703147519518
0.004425703147519518
0.004425703147519518
0.004425703147519518
0.004256508843819012
0.004256508843819012
0.004256508843819012
0.004256508843819012
0.004256508843819012
0.004256508843819012
0.004256508843819012
0.004256508843819012
0.004425703147519518
0.004425703147519518
0.004256508843819012
0.004256508843819012
