# vtk DataFile Version 2.0
polydata
ASCII
DATASET POLYDATA
POINTS 50 double
3.60782480511684 2.92835101548623 2.02839996864534 
3.89638151308533 3.31726593229384 1.86682335126667 
6.38980893410023 2.65327923934968 4.92499730478764 
4.00221104058613 4.05420770291947 2.2401234258337 
3.16388676854883 3.88192085994993 2.81232150798106 
3.40854890924523 4.17226456770457 2.70782619604813 
3.58064736819483 3.62287651846974 3.18968176437841 
2.97241870075204 3.50819740765928 2.27840758247007 
6.10237680512551 2.96112554495147 5.89948215428813 
6.05297536733509 3.41811439341834 5.85760806940166 
5.7709994903465 2.78343883393217 5.70876257946426 
5.38038068638775 3.11223493507384 5.48380661436928 
5.81977719389474 2.53817695959693 5.2681364763332 
6.34455250822178 2.53386649431019 5.11964977365852 
3.4304231169588 2.74243860478903 2.52058394057017 
3.64653666068207 4.09623165728145 2.12552169407708 
3.52360425678696 3.8615767522359 1.97860228758608 
5.41369926888596 3.32316999446614 4.80583278892974 
5.33719417466738 2.98707006307019 4.91608996071896 
5.49694738474871 3.47184864302871 5.49934285904843 
5.51198536808324 3.61225008928125 5.14172841002524 
4.29382515225287 3.4254551890232 2.68474068965212 
5.47905195684236 2.81191654294791 4.84333632370474 
2.95696830894716 3.17200705569069 2.55896075549022 
2.92805496446734 3.52739436296993 2.48373253281907 
3.74628816398214 2.74546005058134 2.27939242423473 
4.13927343396754 3.75327416502459 2.90623524157157 
3.73581618126772 3.773101057763 3.16741104005954 
5.84026086680642 2.92157017795902 4.61235199492879 
5.81109899514864 3.30773177645857 4.57856258171839 
3.99891127034593 4.11531883532127 2.66199393217817 
3.63798693678929 4.16944986977234 2.86344985587547 
6.79386640426499 2.95649984389861 5.15545435701136 
6.82311562507476 3.24596708318928 5.18717517443733 
6.73661757449664 3.34194361194056 5.62730038851729 
4.10798934028284 3.29925086123577 1.96690061048063 
4.24675866897834 3.57290090081291 2.16126009108989 
6.07138768161852 3.78680977747543 4.93020047692622 
3.64562871168796 3.07587616551459 3.04573089798269 
4.02341227876554 2.85020280098251 2.34212693522239 
4.10900581446864 3.01693844669622 2.73571425665799 
3.38484400748221 2.92074540205934 2.86087081018474 
6.13635730551682 3.61889782214781 4.72653350198419 
6.55160361509038 3.59931633136338 4.9625307651124 
6.69175502430011 2.75538780268358 5.42777853517373 
6.61555734594185 2.92453537422322 5.71761388190475 
3.03134946683161 2.99937081971147 2.32032587106379 
3.05235762407851 3.05349980533057 2.22813966217697 
6.42985439044901 3.76778435140589 5.13024215643157 
6.4956003836808 3.59177477549414 5.63960304775475 
POLYGONS 29 179
5 1 0 25 39 35 
7 28 29 42 43 33 32 2 
5 21 26 30 3 36 
5 4 5 31 27 6 
5 23 24 7 47 46 
5 11 10 8 9 19 
6 26 27 6 38 40 21 
6 8 10 12 13 44 45 
5 13 2 28 22 12 
6 4 5 15 16 7 24 
5 15 5 31 30 3 
5 0 25 14 46 47 
4 14 41 23 46 
5 1 0 47 7 16 
6 4 6 38 41 23 24 
6 14 25 39 40 38 41 
6 16 15 3 36 35 1 
5 17 18 11 19 20 
5 17 18 22 28 29 
5 17 20 37 42 29 
5 11 18 22 12 10 
6 9 19 20 37 48 49 
5 9 8 45 34 49 
4 13 2 32 44 
5 33 34 49 48 43 
5 35 36 21 40 39 
4 26 27 31 30 
5 33 34 45 44 32 
4 42 43 48 37 
CELL_DATA 29
SCALARS scalar_1 double
LOOKUP_TABLE default
0.00436579540568511
0.004218846544746188
0.00436579540568511
0.00436579540568511
0.00436579540568511
0.004218846544746188
0.00436579540568511
0.004218846544746188
0.004218846544746188
0.00436579540568511
0.00436579540568511
0.00436579540568511
0.00436579540568511
0.00436579540568511
0.00436579540568511
0.00436579540568511
0.00436579540568511
0.004218846544746188
0.004218846544746188
0.004218846544746188
0.004218846544746188
0.004218846544746188
0.004218846544746188
0.004218846544746188
0.004218846544746188
0.00436579540568511
0.00436579540568511
0.004218846544746188
0.004218846544746188
