# vtk DataFile Version 2.0
polydata
ASCII
DATASET POLYDATA
POINTS 50 double
3.61232262432292 2.9312847877042 2.03410106191545 
3.90088816332007 3.32020857455638 1.87251890813736 
6.3943004840399 2.65621386153029 4.93069385610038 
4.00669233413765 4.05714803481494 2.24580616797017 
3.16836544508918 3.88486770977931 2.81801735619045 
3.41302399256632 4.17520843946227 2.71352366966181 
3.58513047952624 3.62582522570322 3.19538349071178 
2.97689749389357 3.51114860715755 2.28411791750734 
6.10685892157568 2.96407165519147 5.90517990965546 
6.05745408290233 3.42108074026607 5.86329964949085 
5.77548882855403 2.78638598397175 5.71446421697785 
5.38486476420651 3.11518267466282 5.48950467340973 
5.82426674560036 2.54111636694501 5.27382345323555 
6.34904636501315 2.53680764467923 5.12533584639282 
3.43492840453944 2.7453725699338 2.52627490823547 
3.65101762054199 4.09917246707742 2.13120406482848 
3.52809806735928 3.8645410066606 1.98430036528032 
5.41818120997572 3.32611244983109 4.8115349730505 
5.3416792968936 2.99002063343735 4.92179430396934 
5.50143642192045 3.47481057347973 5.50504027218181 
5.51647208362947 3.61520412842314 5.14743957054469 
4.29831050656782 3.4283868984405 2.69043554910967 
5.48355561104377 2.8148455983927 4.84903258938213 
2.96144948004085 3.17496450752318 2.56465732982183 
2.93253653742711 3.53034369325399 2.48943063373812 
3.75078347170432 2.74839536946533 2.2850892018543 
4.14376285086018 3.75619575050674 2.91192436885307 
3.74027764981868 3.77602552977001 3.17311762813001 
5.84475930546032 2.92450096310002 4.61804848560574 
5.81559588444638 3.3106736629683 4.58425623868935 
4.00339299668818 4.11825861305575 2.66767019941248 
3.64244788221695 4.17239428751995 2.86913824237638 
6.79832842909375 2.95941385247279 5.16113823352354 
6.82758416012487 3.24891877615864 5.19286195863077 
6.74108538254964 3.34489948725154 5.63299916646637 
4.11247777174819 3.30219449082993 1.97258717513372 
4.25124280093269 3.57583620036018 2.16694089086967 
6.07588059230217 3.78976622269407 4.93590406609899 
3.65011322341203 3.078803460776 3.05142502385761 
4.02789885776974 2.8531349522005 2.34782197483468 
4.11349081014658 3.01986887763285 2.74140766581279 
3.38934881193131 2.92368662561938 2.86658225384938 
6.14085328746924 3.62184396590287 4.73222661845247 
6.55607924142393 3.60226704772803 4.9682151049644 
6.69622537123887 2.75831732044788 5.43344229294989 
6.62001910084624 2.92748664918711 5.72331719286607 
3.03583552191502 3.00231972054778 2.32601022943419 
3.05683915458522 3.0564366622471 2.23384582932398 
6.43432475967599 3.77074229633373 5.13593344344757 
6.50006756848879 3.59473306816967 5.64529906061276 
POLYGONS 29 179
5 1 0 25 39 35 
7 28 29 42 43 33 32 2 
5 21 26 30 3 36 
5 4 5 31 27 6 
5 23 24 7 47 46 
5 11 10 8 9 19 
6 26 27 6 38 40 21 
6 8 10 12 13 44 45 
5 13 2 28 22 12 
6 4 5 15 16 7 24 
5 15 5 31 30 3 
5 0 25 14 46 47 
4 14 41 23 46 
5 1 0 47 7 16 
6 4 6 38 41 23 24 
6 14 25 39 40 38 41 
6 16 15 3 36 35 1 
5 17 18 11 19 20 
5 17 18 22 28 29 
5 17 20 37 42 29 
5 11 18 22 12 10 
6 9 19 20 37 48 49 
5 9 8 45 34 49 
4 13 2 32 44 
5 33 34 49 48 43 
5 35 36 21 40 39 
4 26 27 31 30 
5 33 34 45 44 32 
4 42 43 48 37 
CELL_DATA 29
SCALARS scalar_1 double
LOOKUP_TABLE default
0.004309916846045263
0.0041761236731074685
0.004309916846045263
0.004309916846045263
0.004309916846045263
0.0041761236731074685
0.004309916846045263
0.0041761236731074685
0.0041761236731074685
0.004309916846045263
0.004309916846045263
0.004309916846045263
0.004309916846045263
0.004309916846045263
0.004309916846045263
0.004309916846045263
0.004309916846045263
0.0041761236731074685
0.0041761236731074685
0.0041761236731074685
0.0041761236731074685
0.0041761236731074685
0.0041761236731074685
0.0041761236731074685
0.0041761236731074685
0.004309916846045263
0.004309916846045263
0.0041761236731074685
0.0041761236731074685
