# vtk DataFile Version 2.0
polydata
ASCII
DATASET POLYDATA
POINTS 50 double
3.61032241839326 2.93210831468078 2.03371293525849 
3.8988969241382 3.32104054486566 1.87212488733523 
6.39229785123252 2.65704069416093 4.9303007865867 
4.00467577036534 4.05797895338299 2.2453994443374 
3.16634775277288 3.88570643172814 2.81762319925175 
3.41100197339609 4.17604287896986 2.71313124219748 
3.58311670047369 3.62666572182137 3.19499508579734 
2.97487833632377 3.51198964098514 2.28373780575077 
6.10484743943472 2.96490897462299 5.9047880832371 
6.05543889630404 3.42193755262801 5.86290164580837 
5.77348380663151 2.78722372302712 5.71407582461731 
5.38285498001246 3.11602086159735 5.48911340031425 
5.82226214388501 2.54194727270258 5.27342296700883 
6.3470459025941 2.53764015974746 5.12493413059028 
3.43293610215443 2.74619709343558 2.52587697959002 
3.64900183704012 4.10000390357795 2.13079711452047 
3.5260943072458 3.8653944059957 1.9839081529079 
5.41616914772792 3.32694669609654 4.81114784473734 
5.33967005109443 2.990861787864 4.92140956129427 
5.49943181496273 3.4756629966558 5.50464850826987 
5.51446498460685 3.61604914604652 5.14706067892368 
4.29629779725101 3.42920934584801 2.6900412650789 
5.48156362180791 2.81566666484419 4.84864026127637 
2.95943212570214 3.17581388666007 2.5642636171545 
2.93052020470592 3.53118312176463 2.48903777152481 
3.74878079248768 2.74922067035 2.28469747692879 
4.14175351799382 3.75700983453863 2.91152486362059 
3.73824338437447 3.77684287031228 3.17273362790425 
5.84276260076792 2.92532393365507 4.61765568519275 
5.81359753532903 3.31150718451233 4.58386073383939 
4.00137678400983 4.11908915845489 2.66725885890409 
3.6404135179947 4.17322914219333 2.86873775101004 
6.79629758386504 2.96022133641324 5.16073227437931 
6.82555933484141 3.24976226820877 5.19245863158485 
6.7390598052916 3.34574724526596 5.63260808951567 
4.11046816578105 3.30302754956836 1.97218427068523 
4.24922911272172 3.57666166812905 2.16653246265253 
6.0738799853375 3.79061369380671 4.93551721311785 
3.64810043372381 3.07962286253181 3.05103034498567 
4.02588733807942 2.85395721731712 2.34742833011693 
4.11147788987022 3.02069058320223 2.74101267011995 
3.38735594554888 2.92451955289456 2.86620501483628 
6.13885512119334 3.62268243372787 4.73183073609454 
6.55406045700481 3.60310999369642 4.96780958033304 
6.69420223639614 2.75913880757123 5.43301848192221 
6.61798773471106 2.92832902615209 5.72293092017828 
3.03382316949903 3.00315956354736 2.3256044081933 
3.05482224725223 3.05726392577935 2.23346231722702 
6.4323016093 3.77159134533602 5.13553388865762 
6.49804178984707 3.59558235548123 5.64490508158167 
POLYGONS 29 179
5 1 0 25 39 35 
7 28 29 42 43 33 32 2 
5 21 26 30 3 36 
5 4 5 31 27 6 
5 23 24 7 47 46 
5 11 10 8 9 19 
6 26 27 6 38 40 21 
6 8 10 12 13 44 45 
5 13 2 28 22 12 
6 4 5 15 16 7 24 
5 15 5 31 30 3 
5 0 25 14 46 47 
4 14 41 23 46 
5 1 0 47 7 16 
6 4 6 38 41 23 24 
6 14 25 39 40 38 41 
6 16 15 3 36 35 1 
5 17 18 11 19 20 
5 17 18 22 28 29 
5 17 20 37 42 29 
5 11 18 22 12 10 
6 9 19 20 37 48 49 
5 9 8 45 34 49 
4 13 2 32 44 
5 33 34 49 48 43 
5 35 36 21 40 39 
4 26 27 31 30 
5 33 34 45 44 32 
4 42 43 48 37 
CELL_DATA 29
SCALARS scalar_1 double
LOOKUP_TABLE default
0.004253168528240041
0.004139320900366188
0.004253168528240041
0.004253168528240041
0.004253168528240041
0.004139320900366188
0.004253168528240041
0.004139320900366188
0.004139320900366188
0.004253168528240041
0.004253168528240041
0.004253168528240041
0.004253168528240041
0.004253168528240041
0.004253168528240041
0.004253168528240041
0.004253168528240041
0.004139320900366188
0.004139320900366188
0.004139320900366188
0.004139320900366188
0.004139320900366188
0.004139320900366188
0.004139320900366188
0.004139320900366188
0.004253168528240041
0.004253168528240041
0.004139320900366188
0.004139320900366188
