# vtk DataFile Version 2.0
polydata
ASCII
DATASET POLYDATA
POINTS 50 double
3.60483029739801 2.92440918759404 2.03209188545828 
3.89341360342933 3.31334982673178 1.87049811449537 
6.38680129099494 2.64934929672494 4.92867786483925 
3.99916783877755 4.05028744306965 2.24375986015878 
3.16083841457182 3.87802386797996 2.81599576469943 
3.40548788414688 4.16835562318281 2.71150522868149 
3.57761133436645 3.61898543151444 3.19337378852792 
2.96936779043687 3.50430919570035 2.28212473163049 
6.09934102775041 2.95722740529905 5.90316675742671 
6.04992871083305 3.41427593192935 5.86127443169918 
5.7679838173627 2.77954263355258 5.71245731997457 
5.37735057562932 3.1083401916745 5.48749207447257 
5.81676306173162 2.53425951111149 5.27179116995737 
6.34155149600868 2.52995455740507 5.12330166090829 
3.42745293383777 2.73849911564646 2.52424459691708 
3.64349331502267 4.0923128393789 2.12915685358884 
3.52059804820181 3.85772567194779 1.98228316287955 
5.41066323569448 3.3192619385377 4.80953031622033 
5.33416703054994 2.98318440555906 4.91979426982007 
5.49393258639301 3.46799688932454 5.50302701842887 
5.50896357572293 3.60837564392554 5.1454517709283 
4.29079350372441 3.42151003231357 2.68841434485172 
5.47607845930039 2.80796876934366 4.84701727694586 
2.95392352952988 3.16814172717914 2.56263725675152 
2.92501252531404 3.52350119018768 2.48741219273575 
3.74328584715356 2.74152365236874 2.28307214820791 
4.13625273294639 3.7493018690461 2.90989216696261 
3.73271653696987 3.76913840902153 3.17111690931912 
5.83727279858088 2.91762827511698 4.61603286155075 
5.80810585869661 3.30382183797253 4.58223537853625 
3.99586902990164 4.11139780296049 2.66561343496275 
3.63488659079229 4.16554254974452 2.86710340230638 
6.79077163142479 2.95250989359219 5.15909704692185 
6.82003946422593 3.24208813418855 5.19082654381794 
6.73353890357721 3.33807686010834 5.63098848169103 
4.10496686690183 3.29533792660396 1.97054884541315 
4.24372393976981 3.56896498340685 2.16489173967888 
6.06838568395175 3.78294285467209 4.93390085060063 
3.64259622048176 3.07192038298625 3.04940266000363 
4.02038420765679 2.84625749177341 2.34580134844561 
4.10597336068029 3.01299049265678 2.73938502106935 
3.38187214979698 2.91683086089287 2.86459519385239 
6.13336366302585 3.61500284519591 4.73020586552747 
6.54854687091042 3.59543529059993 4.96617504216382 
6.68868419942781 2.75144162449821 5.43136418213114 
6.61246094727659 2.92065291091812 5.72131555800546 
3.02831991935228 2.99547694048694 2.32396454652304 
3.04931420518657 3.049568214385 2.2318456895647 
6.42678372632902 3.76392229257961 5.13390488135043 
6.49252083679063 3.58791320020786 5.64328255589362 
POLYGONS 29 179
5 1 0 25 39 35 
7 28 29 42 43 33 32 2 
5 21 26 30 3 36 
5 4 5 31 27 6 
5 23 24 7 47 46 
5 11 10 8 9 19 
6 26 27 6 38 40 21 
6 8 10 12 13 44 45 
5 13 2 28 22 12 
6 4 5 15 16 7 24 
5 15 5 31 30 3 
5 0 25 14 46 47 
4 14 41 23 46 
5 1 0 47 7 16 
6 4 6 38 41 23 24 
6 14 25 39 40 38 41 
6 16 15 3 36 35 1 
5 17 18 11 19 20 
5 17 18 22 28 29 
5 17 20 37 42 29 
5 11 18 22 12 10 
6 9 19 20 37 48 49 
5 9 8 45 34 49 
4 13 2 32 44 
5 33 34 49 48 43 
5 35 36 21 40 39 
4 26 27 31 30 
5 33 34 45 44 32 
4 42 43 48 37 
CELL_DATA 29
SCALARS scalar_1 double
LOOKUP_TABLE default
0.0041944232049546115
0.0040992425556926485
0.0041944232049546115
0.0041944232049546115
0.0041944232049546115
0.0040992425556926485
0.0041944232049546115
0.0040992425556926485
0.0040992425556926485
0.0041944232049546115
0.0041944232049546115
0.0041944232049546115
0.0041944232049546115
0.0041944232049546115
0.0041944232049546115
0.0041944232049546115
0.0041944232049546115
0.0040992425556926485
0.0040992425556926485
0.0040992425556926485
0.0040992425556926485
0.0040992425556926485
0.0040992425556926485
0.0040992425556926485
0.0040992425556926485
0.0041944232049546115
0.0041944232049546115
0.0040992425556926485
0.0040992425556926485
