# vtk DataFile Version 2.0
polydata
ASCII
DATASET POLYDATA
POINTS 50 double
3.59974488629083 2.92579886438652 2.03319898341001 
3.88833703131306 3.31474784208385 1.87159904114514 
6.38170877635418 2.65073827409555 4.92977586100405 
3.99406810094231 4.05168400880213 2.24484771831588 
3.15573652617358 3.87942752078742 2.817097428212 
3.40038257342517 4.16975636181055 2.71260824650606 
3.57251309874129 3.62039088789597 3.19448053268653 
2.96426533893511 3.50571614540998 2.28324004761496 
6.09424003019635 2.95862543281866 5.9042669568658 
6.04482491370699 3.41569308471314 5.8623691656417 
5.76288870792256 2.7809419746982 5.71356066616398 
5.3722521000025 3.10974008154197 5.48859351334581 
5.81166783967041 2.53565251720273 5.27288150564961 
6.33646064067417 2.53134863290522 5.12439103528942 
3.42237436909381 2.73989055894361 2.52534092437757 
3.63839359887145 4.09370987249922 2.1302446673729 
3.5155100326867 3.85914433018665 1.98338594841775 
5.40556310287276 3.3206591753329 4.81063559797219 
5.32906899165506 2.98458773622123 4.92090140770004 
5.48883958424207 3.46941056407353 5.50412825324944 
5.50386836417787 3.60978252927787 5.1465648770463 
4.28569730876103 3.42289915808879 2.68951388033289 
5.47099645666879 2.80935304866186 4.84811699041727 
2.94882320032678 3.16955547506439 2.56373954781775 
2.9199128430108 3.52490662002037 2.48851579859926 
3.73819736836265 2.74291600638867 2.28417390034677 
4.13116084743928 3.75068159883274 2.91098635122332 
3.72759817600956 3.77052114182923 3.17222811492777 
5.83218808782977 2.91901439466463 4.61713178872399 
5.80302005361175 3.30521822042995 4.58333237209139 
3.99077004669099 4.11279432411723 2.6666956958826 
3.62976776189421 4.16694384465129 2.8681975546519 
6.78565226594158 2.95387926075606 5.16018397789891 
6.81492611755121 3.24349172940829 5.19191656458052 
6.7284247896442 3.33948403323761 5.63208998166554 
4.09987232678525 3.29673689928777 1.9716407263484 
4.23862617307066 3.57035705900358 2.16597828888851 
6.06329823796791 3.78435173736151 4.93500643117999 
3.63749879728537 3.07330597491629 3.05050237145149 
4.01528818351723 2.84764689140089 2.34690121906461 
4.1008764904365 3.01437852658882 2.74048349815363 
3.37679342406346 2.91822955254724 2.86571114249289 
6.12827848301695 3.61640395571695 4.73130364852691 
6.54343924936733 3.59684006371532 4.96726272501346 
6.68357181758968 2.75282424850367 5.43243346323234 
6.60734075991402 2.92205517540008 5.72242103562635 
3.02322426312373 2.99688196288414 2.32505497683082 
3.04421409473624 3.05096121477775 2.23295754323779 
6.42167258046535 3.76533212086089 5.13499771728206 
6.48740656914818 3.58932251360259 5.64438150716314 
POLYGONS 29 179
5 1 0 25 39 35 
7 28 29 42 43 33 32 2 
5 21 26 30 3 36 
5 4 5 31 27 6 
5 23 24 7 47 46 
5 11 10 8 9 19 
6 26 27 6 38 40 21 
6 8 10 12 13 44 45 
5 13 2 28 22 12 
6 4 5 15 16 7 24 
5 15 5 31 30 3 
5 0 25 14 46 47 
4 14 41 23 46 
5 1 0 47 7 16 
6 4 6 38 41 23 24 
6 14 25 39 40 38 41 
6 16 15 3 36 35 1 
5 17 18 11 19 20 
5 17 18 22 28 29 
5 17 20 37 42 29 
5 11 18 22 12 10 
6 9 19 20 37 48 49 
5 9 8 45 34 49 
4 13 2 32 44 
5 33 34 49 48 43 
5 35 36 21 40 39 
4 26 27 31 30 
5 33 34 45 44 32 
4 42 43 48 37 
CELL_DATA 29
SCALARS scalar_1 double
LOOKUP_TABLE default
0.004141267927439409
0.0040574397182185085
0.004141267927439409
0.004141267927439409
0.004141267927439409
0.0040574397182185085
0.004141267927439409
0.0040574397182185085
0.0040574397182185085
0.004141267927439409
0.004141267927439409
0.004141267927439409
0.004141267927439409
0.004141267927439409
0.004141267927439409
0.004141267927439409
0.004141267927439409
0.0040574397182185085
0.0040574397182185085
0.0040574397182185085
0.0040574397182185085
0.0040574397182185085
0.0040574397182185085
0.0040574397182185085
0.0040574397182185085
0.004141267927439409
0.004141267927439409
0.0040574397182185085
0.0040574397182185085
