# vtk DataFile Version 2.0
polydata
ASCII
DATASET POLYDATA
POINTS 50 double
3.61264531074432 2.91984760622599 2.0222013649469 
3.9009081780853 3.30838516662377 1.86082071516156 
6.39479741000275 2.64457869935943 4.91901859480386 
4.00702541316008 4.04505714497982 2.23419873932688 
3.16956059597165 3.87265214125692 2.80582059214258 
3.4141158020049 4.16290225956449 2.70131131567659 
3.58570077656458 3.61389875121408 3.18259441777835 
2.9779589738303 3.49886672751373 2.27192975258018 
6.10749762073933 2.95239211218665 5.89276696245555 
6.05814166891152 3.40888818689194 5.85096965832272 
5.77611844135016 2.77468992886384 5.70203433912073 
5.38580005316973 3.10334558269484 5.47727209289751 
5.82494009096555 2.52962062393987 5.26174718437915 
6.349602076371 2.52537336533987 5.1133074567275 
3.43496147731021 2.73414115480052 2.51427973880475 
3.65174352811207 4.08703064178969 2.11973530634906 
3.52859279606021 3.85197654804401 1.97251477660476 
5.41914955493592 3.31415841072286 4.79968272618862 
5.3426623319566 2.97832390734516 4.9099151774855 
5.50225572850669 3.46260139059681 5.49282546961907 
5.51733933020312 3.60300104463867 5.13524414718151 
4.29842432680756 3.41680017899533 2.67819858652005 
5.48445764563922 2.80322379513885 4.83717954754724 
2.9625436281085 3.16266456425362 2.55233279593935 
2.93363317420958 3.51802720290376 2.47714715564184 
3.75099579431925 2.73712784552767 2.27300475905717 
4.14376916302038 3.74482043460314 2.89976268148942 
3.74133212266286 3.76463439968571 3.16022227452193 
5.84528246031884 2.91282548922237 4.60637252337763 
5.81611115726769 3.29866249871531 4.57262701321585 
4.00371220642307 4.10612132764018 2.65603184449623 
3.64364555246734 4.1600768428866 2.85698611591474 
6.79848375670052 2.94748667984137 5.14934486617931 
6.82773853724986 3.23690505380392 5.18108301699252 
6.74137250867667 3.33272988528208 5.62071885475678 
4.11265497349097 3.29036028322013 1.96099295337626 
4.25143768909246 3.56407368707629 2.15540529347765 
6.07652688813698 3.77741852070117 4.92384688115562 
3.65067150909297 3.06744470173111 3.03888165674878 
4.02814298903871 2.84185786701297 2.33575325844873 
4.11371626190722 3.00850724640543 2.72917272121874 
3.38945894790861 2.912018893732 2.85362518470026 
6.14139370198276 3.60989411749605 4.72066868541906 
6.55619599153791 3.59034159745662 4.95644911168873 
6.69655973192202 2.74674780928678 5.42117210490237 
6.62042751102048 2.91584121484476 5.71094427788476 
3.03667602039333 2.99053160217437 2.31435279508436 
3.05775411240958 3.04485963594737 2.22179379421986 
6.43475739826786 3.75839637410697 5.12378195070013 
6.50052251936321 3.58242922502238 5.6330713008731 
POLYGONS 29 179
5 1 0 25 39 35 
7 28 29 42 43 33 32 2 
5 21 26 30 3 36 
5 4 5 31 27 6 
5 23 24 7 47 46 
5 11 10 8 9 19 
6 26 27 6 38 40 21 
6 8 10 12 13 44 45 
5 13 2 28 22 12 
6 4 5 15 16 7 24 
5 15 5 31 30 3 
5 0 25 14 46 47 
4 14 41 23 46 
5 1 0 47 7 16 
6 4 6 38 41 23 24 
6 14 25 39 40 38 41 
6 16 15 3 36 35 1 
5 17 18 11 19 20 
5 17 18 22 28 29 
5 17 20 37 42 29 
5 11 18 22 12 10 
6 9 19 20 37 48 49 
5 9 8 45 34 49 
4 13 2 32 44 
5 33 34 49 48 43 
5 35 36 21 40 39 
4 26 27 31 30 
5 33 34 45 44 32 
4 42 43 48 37 
CELL_DATA 29
SCALARS scalar_1 double
LOOKUP_TABLE default
0.01892854586018277
0.010574732945494825
0.01892854586018277
0.01892854586018277
0.01892854586018277
0.010574732945494825
0.01892854586018277
0.010574732945494825
0.010574732945494825
0.01892854586018277
0.01892854586018277
0.01892854586018277
0.01892854586018277
0.01892854586018277
0.01892854586018277
0.01892854586018277
0.01892854586018277
0.010574732945494825
0.010574732945494825
0.010574732945494825
0.010574732945494825
0.010574732945494825
0.010574732945494825
0.010574732945494825
0.010574732945494825
0.01892854586018277
0.01892854586018277
0.010574732945494825
0.010574732945494825
