# vtk DataFile Version 2.0
polydata
ASCII
DATASET POLYDATA
POINTS 50 double
3.60193012878005 2.92211915883076 2.03494459683026 
3.89053060994604 3.31107579584696 1.87333898887549 
6.38389152852611 2.64706489187701 4.93151593362625 
3.99623743312281 4.0480102687553 2.24657424530156 
3.15790414092142 3.87576187544755 2.81883560314542 
3.402546724906 4.16608677096688 2.71434749513953 
3.5746861784237 3.61672736236123 3.1962257330657 
2.96643322419414 3.50205420712203 2.28499275593245 
6.0964138885482 2.95496219101289 5.90600880180244 
6.04699477953131 3.41204811159021 5.86410465532831 
5.76506866178354 2.77727850887495 5.71530576779627 
5.37442822802202 3.10607568417004 5.4903363671565 
5.81384843253117 2.53198227834589 5.27461511627724 
6.33864545191159 2.52768040284607 5.12612341363283 
3.42456862135238 2.7362111378348 2.52707766484662 
3.64056307886306 4.09003658398143 2.13197094077549 
3.51769154929692 3.85549310201117 1.9851273325496 
5.4077370900454 3.31699112156796 4.81238149261945 
5.33124567913697 2.98092537507433 4.92265007255041 
5.49102048392291 3.46576014909811 5.50587029816837 
5.50604672935272 3.60612492796742 5.14831788437659 
4.2878707224708 3.41921785986125 2.69125349731971 
5.4731889880199 2.80567250322119 4.84985887536606 
2.950992621983 3.16590097569514 2.56548064812039 
2.92208313913299 3.52124352019369 2.49025767356135 
3.74038078486174 2.73923727206039 2.28591699841899 
4.13333820965799 3.74699107992218 2.91271986599842 
3.72975043235195 3.76683408801285 3.17397750056252 
5.83437710737111 2.91533605361239 4.61887255297249 
5.80520700169388 3.30154955534412 4.58507042791885 
3.99294000589323 4.10912064564652 2.66841656549421 
3.63191989177981 4.16327475493062 2.86992902891453 
6.78780796164205 2.95018804041483 5.16191180844458 
6.81708717292805 3.2398345571259 5.19364681175308 
6.73058486282655 3.33583131861134 5.6338323145981 
4.10204868363699 3.29306594175745 1.9733722551756 
4.24079826439865 3.56667825607852 2.16770364401564 
6.06548382271799 3.78069689367553 4.9367513445367 
3.63967288305014 3.06962121335419 3.05224161014637 
4.0174627889205 2.84396517226779 2.34864231022516 
4.10304968946256 3.01069621981536 2.74222274079284 
3.37898739774869 2.91455833724379 2.867468149245 
6.13046627689635 3.6127416259715 4.73304178601798 
6.5456051188341 3.59318273702733 4.96899040006095 
6.68573478139266 2.74914601792062 5.43414481830126 
6.60949556614069 2.91839707969596 5.72416830461278 
3.02539850247477 2.99321790750951 2.3267838956178 
3.04638406371143 3.04728531487722 2.23470737442359 
6.42383505953157 3.76167947288309 5.13672980583233 
6.48956669511538 3.58567054134243 5.64612060492296 
POLYGONS 29 179
5 1 0 25 39 35 
7 28 29 42 43 33 32 2 
5 21 26 30 3 36 
5 4 5 31 27 6 
5 23 24 7 47 46 
5 11 10 8 9 19 
6 26 27 6 38 40 21 
6 8 10 12 13 44 45 
5 13 2 28 22 12 
6 4 5 15 16 7 24 
5 15 5 31 30 3 
5 0 25 14 46 47 
4 14 41 23 46 
5 1 0 47 7 16 
6 4 6 38 41 23 24 
6 14 25 39 40 38 41 
6 16 15 3 36 35 1 
5 17 18 11 19 20 
5 17 18 22 28 29 
5 17 20 37 42 29 
5 11 18 22 12 10 
6 9 19 20 37 48 49 
5 9 8 45 34 49 
4 13 2 32 44 
5 33 34 49 48 43 
5 35 36 21 40 39 
4 26 27 31 30 
5 33 34 45 44 32 
4 42 43 48 37 
CELL_DATA 29
SCALARS scalar_1 double
LOOKUP_TABLE default
0.004094948612891682
0.004018025752469581
0.004094948612891682
0.004094948612891682
0.004094948612891682
0.004018025752469581
0.004094948612891682
0.004018025752469581
0.004018025752469581
0.004094948612891682
0.004094948612891682
0.004094948612891682
0.004094948612891682
0.004094948612891682
0.004094948612891682
0.004094948612891682
0.004094948612891682
0.004018025752469581
0.004018025752469581
0.004018025752469581
0.004018025752469581
0.004018025752469581
0.004018025752469581
0.004018025752469581
0.004018025752469581
0.004094948612891682
0.004094948612891682
0.004018025752469581
0.004018025752469581
