# vtk DataFile Version 2.0
polydata
ASCII
DATASET POLYDATA
POINTS 50 double
3.59963083416525 2.92705465841738 2.03862578700805 
3.88823980593545 3.31601975673994 1.87701488406022 
6.38159113187838 2.65200708347682 4.9351926438384 
3.9939226662305 4.05295366267375 2.25023877472511 
3.15558922682739 3.88071289039107 2.82251139456712 
3.40022677388015 4.17103318432764 2.71802510821086 
3.57237431842832 3.62168029832434 3.19990668397408 
2.96411616719116 3.50700612611844 2.28868143655585 
6.09410374597218 2.95991376582575 5.90968638221754 
6.04468111009951 3.41701886463176 5.86777674668929 
5.76276591956239 2.78223120917231 5.71898718306648 
5.37212034230218 3.11102906751701 5.49401499564063 
5.8115458926521 2.5369285236561 5.27828344263541 
6.33634744991445 2.53262863146153 5.12979030240822 
3.4222773642133 2.74114779408298 2.53074767799456 
3.63824887524623 4.09498023214683 2.13563512591922 
3.51538862307882 3.86045698553912 1.98880504870665 
5.40542669339201 3.3219405158153 4.81606429582363 
5.32893841135056 2.98588217763934 4.9263349355379 
5.48871721766942 3.47072672332633 5.5095486972336 
5.50374098094274 3.61108460747959 5.15200864612174 
4.28555967597926 3.42415360955262 2.69492927252264 
5.47089907731856 2.81060924477995 4.85353596329255 
2.94867735757214 3.1708615294429 2.56915551085995 
2.91976891503003 3.52619373997801 2.49393341329456 
3.73807861248019 2.74417503107583 2.28959382017103 
4.1310299374959 3.75191932252176 2.91639096983967 
3.72741912916437 3.77176524183779 3.17766272850932 
5.83208214254457 2.92027481963645 4.62254940317665 
5.80291039711811 3.3064985471143 4.58874477573112 
3.99062537314615 4.11406379526146 2.67207669468353 
3.62958841623926 4.16822176470045 2.87359909690203 
6.78547915557241 2.9551102309911 5.16557597605492 
6.81476445321003 3.24479239109999 5.19731391519473 
6.72826155868291 3.34079276508263 5.63751093762319 
4.09974042399203 3.29801099938372 1.97703980773142 
4.23848634507421 3.57161685822889 2.17136663211446 
6.06318402323553 3.78565917811949 4.94043450808956 
3.63736223169774 3.07455387053501 3.05591644825384 
4.01515302903449 2.84890054594439 2.35231767796103 
4.10073864748326 3.01563128079896 2.74589768573426 
3.37669530479268 2.91950346569763 2.87115897945377 
6.12816905087585 3.61769481154372 4.73671558167616 
6.54328841809401 3.59814027217836 4.9726553256204 
6.68341402110425 2.75408263949125 5.43778969040168 
6.6071666634947 2.92335403873182 5.72785087513768 
3.02308838650601 2.99816892946796 2.33044653131258 
3.0440693739444 3.0522237124977 2.2383925110115 
6.42151394291564 3.76664315792804 5.14040098556249 
6.48724286531756 3.5906341474495 5.6497966861037 
POLYGONS 29 179
5 1 0 25 39 35 
7 28 29 42 43 33 32 2 
5 21 26 30 3 36 
5 4 5 31 27 6 
5 23 24 7 47 46 
5 11 10 8 9 19 
6 26 27 6 38 40 21 
6 8 10 12 13 44 45 
5 13 2 28 22 12 
6 4 5 15 16 7 24 
5 15 5 31 30 3 
5 0 25 14 46 47 
4 14 41 23 46 
5 1 0 47 7 16 
6 4 6 38 41 23 24 
6 14 25 39 40 38 41 
6 16 15 3 36 35 1 
5 17 18 11 19 20 
5 17 18 22 28 29 
5 17 20 37 42 29 
5 11 18 22 12 10 
6 9 19 20 37 48 49 
5 9 8 45 34 49 
4 13 2 32 44 
5 33 34 49 48 43 
5 35 36 21 40 39 
4 26 27 31 30 
5 33 34 45 44 32 
4 42 43 48 37 
CELL_DATA 29
SCALARS scalar_1 double
LOOKUP_TABLE default
0.004039612764215604
0.00397648182880596
0.004039612764215604
0.004039612764215604
0.004039612764215604
0.00397648182880596
0.004039612764215604
0.00397648182880596
0.00397648182880596
0.004039612764215604
0.004039612764215604
0.004039612764215604
0.004039612764215604
0.004039612764215604
0.004039612764215604
0.004039612764215604
0.004039612764215604
0.00397648182880596
0.00397648182880596
0.00397648182880596
0.00397648182880596
0.00397648182880596
0.00397648182880596
0.00397648182880596
0.00397648182880596
0.004039612764215604
0.004039612764215604
0.00397648182880596
0.00397648182880596
