# vtk DataFile Version 2.0
polydata
ASCII
DATASET POLYDATA
POINTS 50 double
3.60203981248467 2.92612147568628 2.04083022490616 
3.89065715852612 3.31509435623395 1.87921392844842 
6.38399222212188 2.65107820686576 4.93739366857066 
3.996315897079 4.05202717959405 2.25242549069156 
3.15798077040304 3.8797941948133 2.8247098034178 
3.40261386879296 4.17011029469102 2.72022515967647 
3.57476922088587 3.62076357818697 3.20211087959588 
2.96650723608204 3.50608999741776 2.29089349158788 
6.09649703071102 2.95899440989892 5.91188905799525 
6.04707093352524 3.41611839260038 5.86997386690775 
5.76516434190163 2.78131227567799 5.72119249220005 
5.37451511020136 3.11011053128408 5.49621825635617 
5.81394469895232 2.53600339061045 5.28047678213771 
6.33875042185271 2.53170502398388 5.13198280848989 
3.42469352067025 2.74021571815062 2.53294222881111 
3.64064190835256 4.09405410668751 2.1378212383561 
3.51779362825144 3.85955248166045 1.99100582223681 
5.40781990791455 3.32101846261264 4.8182713802729 
5.33133408040538 2.9849667057768 4.92854416272529 
5.49111720426002 3.46982223694192 5.51175174747153 
5.50613876143403 3.6101730773655 5.15422390410948 
4.28795653762806 3.42321933380248 2.69712788430755 
5.47331116544233 2.80967459898466 4.8557380068021 
2.95107021245608 3.16995289056053 2.57135471287171 
2.92216258984306 3.52527608330901 2.49613349863638 
3.74048492947587 2.74324370931936 2.29179435832968 
4.1334299699782 3.75097671840206 2.91858424598571 
3.7297936965914 3.7708257038329 3.17987141824315 
5.83449053257211 2.91934202211553 4.62475116960407 
5.80531719723772 3.30557588193887 4.59094420453742 
3.99301866716638 4.1131372164225 2.67425797746802 
3.63196284406001 4.16729951808917 2.87579111886393 
6.78785317032014 2.9541625487453 5.16776539138805 
6.81714428201431 3.24388002546557 5.19950620358447 
6.73064087952795 3.33988394164798 5.63971456319491 
4.10214051228776 3.29708661526935 1.97923052932631 
4.24088247046138 3.57068527307565 2.17355206566 
6.06558854436608 3.78475002697947 4.94264239693928 
3.63975827553655 3.07361669040576 3.05811445839441 
4.01755120343287 2.84796631803245 2.35451660016937 
4.1031352926709 3.01469628244506 2.7480953830519 
3.37911080413523 2.91857944375785 2.87337364953933 
6.13057613207991 3.6167774827399 4.73891541873241 
6.54567407125769 3.59722750444785 4.97484545895462 
6.68579543570689 2.75314830427566 5.43996190503464 
6.60954034846104 2.92243926325084 5.73005884346293 
3.02548608948371 2.99725127001921 2.33263398017781 
3.0464627114479 3.05129404568997 2.24060130773806 
6.42389572416916 3.76573561701535 5.14259637717139 
6.48962212895293 3.58972653720923 5.65199779251322 
POLYGONS 29 179
5 1 0 25 39 35 
7 28 29 42 43 33 32 2 
5 21 26 30 3 36 
5 4 5 31 27 6 
5 23 24 7 47 46 
5 11 10 8 9 19 
6 26 27 6 38 40 21 
6 8 10 12 13 44 45 
5 13 2 28 22 12 
6 4 5 15 16 7 24 
5 15 5 31 30 3 
5 0 25 14 46 47 
4 14 41 23 46 
5 1 0 47 7 16 
6 4 6 38 41 23 24 
6 14 25 39 40 38 41 
6 16 15 3 36 35 1 
5 17 18 11 19 20 
5 17 18 22 28 29 
5 17 20 37 42 29 
5 11 18 22 12 10 
6 9 19 20 37 48 49 
5 9 8 45 34 49 
4 13 2 32 44 
5 33 34 49 48 43 
5 35 36 21 40 39 
4 26 27 31 30 
5 33 34 45 44 32 
4 42 43 48 37 
CELL_DATA 29
SCALARS scalar_1 double
LOOKUP_TABLE default
0.003988246111801294
0.003936429978098121
0.003988246111801294
0.003988246111801294
0.003988246111801294
0.003936429978098121
0.003988246111801294
0.003936429978098121
0.003936429978098121
0.003988246111801294
0.003988246111801294
0.003988246111801294
0.003988246111801294
0.003988246111801294
0.003988246111801294
0.003988246111801294
0.003988246111801294
0.003936429978098121
0.003936429978098121
0.003936429978098121
0.003936429978098121
0.003936429978098121
0.003936429978098121
0.003936429978098121
0.003936429978098121
0.003988246111801294
0.003988246111801294
0.003936429978098121
0.003936429978098121
