# vtk DataFile Version 2.0
polydata
ASCII
DATASET POLYDATA
POINTS 50 double
3.59935207218242 2.92806702946227 2.04041237443847 
3.88797790134633 3.31704784535872 1.87878999920487 
6.38130103931414 2.65302939019278 4.9369687752074 
3.99361389364307 4.05397831917855 2.25198837651065 
3.15527966899772 3.8817522851297 2.824284153824 
3.39990912334194 4.17206488148871 2.71980046252865 
3.57207047838531 3.62272474815347 3.20168901051458 
2.96380467608461 3.50805085841755 2.29048271718815 
6.09379760604593 2.96095581774129 5.9114638018643 
6.04436835595362 3.41809686988385 5.86954272670751 
5.76247053633811 2.7832739856791 5.72077000131749 
5.3718190816506 3.11207155954229 5.4957943717 
5.81125150914321 2.53795898349214 5.28004325905548 
6.33606117929235 2.53366211767984 5.13154864128788 
3.4220127620757 2.74216334789627 2.53251415188221 
3.63794150287932 4.09600547393853 2.13738460661022 
3.51510431097881 3.8615243032554 1.99058330504486 
5.40512211048166 3.32297555348363 4.81785184886144 
5.32863864706792 2.98693089495874 4.92812699847403 
5.48842621042985 3.47179618904926 5.51132735409161 
5.50344556263609 3.6121398450633 5.15381085674749 
4.28525764793559 3.42516482303623 2.69670121915986 
5.47063157440825 2.81162011069864 4.85531381197815 
2.9483699375458 3.17192048385542 2.57093064230991 
2.91946306912336 3.52723545425329 2.49571025484836 
3.73779433866173 2.74519188277055 2.29137174751662 
4.13073498354042 3.75291367527622 2.91815198615494 
3.72707650467911 3.7727659611271 3.17945330957765 
5.83180645502681 2.92128920170339 4.62432667800688 
5.80263170970629 3.30753165117365 4.59051732931168 
3.99031744319031 4.11508827920548 2.67381512976327 
3.62924560250179 4.16925469763401 2.87535809312913 
6.78513442484657 2.95609453007012 5.16732865405641 
6.81443135285841 3.24584573446107 5.19907210352287 
6.72792704380361 3.34185365206906 5.63929104183418 
4.09944373930612 3.29904110771028 1.97879786963964 
4.23818222569648 3.57263282676069 2.17311391182073 
6.06290273492194 3.78671843773218 4.94222182662288 
3.63706029535009 3.07555874538648 3.05768718801961 
4.01485294492955 2.84991163586101 2.35409205122307 
4.10043589640771 3.0166405026154 2.74766838565257 
3.37643031770187 2.92053356725747 2.87296212846341 
6.127892172192 3.6187393577112 4.73848931395744 
6.54296682409853 3.59919368397997 4.97440873001879 
6.68308390255071 2.75509439466664 5.43950687670658 
6.6068207871703 2.9244052673981 5.72963966612643 
3.0227894962505 2.99921137614104 2.3322003494925 
3.04376192098384 3.05324277750838 2.24018770501031 
6.42118595235115 3.7677055656135 5.14216301388724 
6.48690922630266 3.59169697316073 5.65157108848898 
POLYGONS 29 179
5 1 0 25 39 35 
7 28 29 42 43 33 32 2 
5 21 26 30 3 36 
5 4 5 31 27 6 
5 23 24 7 47 46 
5 11 10 8 9 19 
6 26 27 6 38 40 21 
6 8 10 12 13 44 45 
5 13 2 28 22 12 
6 4 5 15 16 7 24 
5 15 5 31 30 3 
5 0 25 14 46 47 
4 14 41 23 46 
5 1 0 47 7 16 
6 4 6 38 41 23 24 
6 14 25 39 40 38 41 
6 16 15 3 36 35 1 
5 17 18 11 19 20 
5 17 18 22 28 29 
5 17 20 37 42 29 
5 11 18 22 12 10 
6 9 19 20 37 48 49 
5 9 8 45 34 49 
4 13 2 32 44 
5 33 34 49 48 43 
5 35 36 21 40 39 
4 26 27 31 30 
5 33 34 45 44 32 
4 42 43 48 37 
CELL_DATA 29
SCALARS scalar_1 double
LOOKUP_TABLE default
0.003975556386463271
0.003855465566222492
0.003975556386463271
0.003975556386463271
0.003975556386463271
0.003855465566222492
0.003975556386463271
0.003855465566222492
0.003855465566222492
0.003975556386463271
0.003975556386463271
0.003975556386463271
0.003975556386463271
0.003975556386463271
0.003975556386463271
0.003975556386463271
0.003975556386463271
0.003855465566222492
0.003855465566222492
0.003855465566222492
0.003855465566222492
0.003855465566222492
0.003855465566222492
0.003855465566222492
0.003855465566222492
0.003975556386463271
0.003975556386463271
0.003855465566222492
0.003855465566222492
