# vtk DataFile Version 2.0
polydata
ASCII
DATASET POLYDATA
POINTS 50 double
3.60489496095594 2.92610114796882 2.03617775421936 
3.89352873496137 3.31508937586352 1.87454992617167 
6.38684240032512 2.65106668438347 4.93272942155717 
3.99914337248631 4.05201887243416 2.24773671129142 
3.16080830637068 3.87980055712002 2.82004438760191 
3.40543371733365 4.17010920212902 2.71556196036364 
3.57760310413997 3.62077481332445 3.19745418755239 
2.96933190238742 3.50610154380675 2.2862555891072 
6.09932960200737 2.95900168586071 5.90722591210365 
6.04989715470799 3.41616026140055 5.86529955890191 
5.76800854598863 2.78132042396466 5.71653477538058 
5.37735374581712 3.11011782546767 5.4915569691187 
5.8167902728156 2.53599952294497 5.27579642992827 
6.34160430097111 2.53170437969545 5.12730110131509 
3.42756398784046 2.74019871393556 2.52826920524023 
3.64347076952232 4.0940465406321 2.13313278141861 
3.52064423486083 3.85958522701802 1.98634508214607 
5.4106554121552 3.32101907447961 4.81361799777795 
5.33417429768271 2.98498018895016 4.92389501208827 
5.4939655971562 3.46985559398054 5.50708984029398 
5.50898298060673 3.61019283166936 5.14958457412163 
4.29079043288797 3.42319864585838 2.69246057870125 
5.47618250032582 2.80965180711928 4.85107506918964 
2.95389890836361 3.16997880371235 2.56669157036152 
2.92499296206182 3.52528481762375 2.49147228429535 
3.74333468660146 2.74322809581171 2.28713282563327 
4.13627148745755 3.75093922389254 2.9139064048954 
3.73259003509709 3.77079448324392 3.17522251747141 
5.83735404354557 2.91932307672776 4.62008754775619 
5.80817775621629 3.3055746918315 4.58627624253202 
3.99584755116121 4.11312879581276 2.66955876182737 
3.63475892251298 4.16729942820679 2.87111198201889 
6.79064934897101 2.95411338035543 5.16307831557816 
6.81995181898569 3.24389783992729 5.19482466544594 
6.73344645701581 3.33990910189192 5.63505478527316 
4.1049781302321 3.29708358536852 1.97454963166477 
4.24371363185251 3.5706692574538 2.16886101755461 
6.06844707142591 3.78477392473796 4.93798878442797 
3.64259369596482 3.07358952368289 3.05344615336071 
4.02038608950947 2.84794531906066 2.34985133307037 
4.1059683560149 3.01467364318322 2.74342703443278 
3.38198145741616 2.91857672693588 2.8687369660097 
6.13343882983953 3.6167875844698 4.7342490394129 
6.54849285709721 3.59724592232047 4.9701592501436 
6.68860571133606 2.75312599582942 5.43523950609038 
6.61233474172719 2.92245586682459 5.72540721972238 
3.02832299429755 2.99726047867399 2.32794918068335 
3.04929107705039 3.05128012010057 2.23595738412381 
6.4267084386164 3.76576244130639 5.13791829479374 
6.49242874175839 3.58975358275091 5.64733213003325 
POLYGONS 29 179
5 1 0 25 39 35 
7 28 29 42 43 33 32 2 
5 21 26 30 3 36 
5 4 5 31 27 6 
5 23 24 7 47 46 
5 11 10 8 9 19 
6 26 27 6 38 40 21 
6 8 10 12 13 44 45 
5 13 2 28 22 12 
6 4 5 15 16 7 24 
5 15 5 31 30 3 
5 0 25 14 46 47 
4 14 41 23 46 
5 1 0 47 7 16 
6 4 6 38 41 23 24 
6 14 25 39 40 38 41 
6 16 15 3 36 35 1 
5 17 18 11 19 20 
5 17 18 22 28 29 
5 17 20 37 42 29 
5 11 18 22 12 10 
6 9 19 20 37 48 49 
5 9 8 45 34 49 
4 13 2 32 44 
5 33 34 49 48 43 
5 35 36 21 40 39 
4 26 27 31 30 
5 33 34 45 44 32 
4 42 43 48 37 
CELL_DATA 29
SCALARS scalar_1 double
LOOKUP_TABLE default
0.003928728205596723
0.003814244953688958
0.003928728205596723
0.003928728205596723
0.003928728205596723
0.003814244953688958
0.003928728205596723
0.003814244953688958
0.003814244953688958
0.003928728205596723
0.003928728205596723
0.003928728205596723
0.003928728205596723
0.003928728205596723
0.003928728205596723
0.003928728205596723
0.003928728205596723
0.003814244953688958
0.003814244953688958
0.003814244953688958
0.003814244953688958
0.003814244953688958
0.003814244953688958
0.003814244953688958
0.003814244953688958
0.003928728205596723
0.003928728205596723
0.003814244953688958
0.003814244953688958
