# vtk DataFile Version 2.0
polydata
ASCII
DATASET POLYDATA
POINTS 50 double
3.60862341940027 2.92403796452964 2.03616030645888 
3.89726560837915 3.31303425766645 1.87452721621951 
6.39056320593349 2.64900563763565 4.93270692098263 
4.00285706477454 4.0499618418635 2.24770177798939 
3.16451974934215 3.87774978962756 2.82002141454134 
3.40914226841348 4.16805577270608 2.71554033961255 
3.58131768809872 3.61872594491397 3.19743621302403 
2.97304344094602 3.50405459871812 2.28624582396449 
6.10304430360054 2.95694994612065 5.90720537067167 
6.05360885712341 3.41412651108179 5.86527369764385 
5.77172815728595 2.77926919657261 5.71651698595416 
5.38106944565733 3.10806702121115 5.49153699405551 
5.82050986126886 2.53394205387131 5.27576627262986 
6.34532712372212 2.52964845828648 5.12727005967613 
3.4312983167815 2.7381364903483 2.52824229127009 
3.6471849154908 4.09198993516969 2.13309754278027 
3.52436989947147 3.8575496884999 1.98632408132545 
5.41436922655508 3.31896428623105 4.8136015865406 
5.33789051741336 2.98293216287195 4.92388051890781 
5.49768634397993 3.46781831721387 5.50706944376822 
5.51270150352478 3.60814849336918 5.14957634119596 
4.29450719819799 3.42113457267657 2.6924369766159 
5.47991430729159 2.80758556457455 4.85105355830137 
2.95761230612651 3.16793756108636 2.56666964613717 
2.92870693187876 3.52323632861988 2.49145152997326 
3.7470603746458 2.74116686654546 2.28711104223344 
4.13999191301496 3.74886616452274 2.91387745344926 
3.73628577984263 3.768724296313 3.17520877765548 
5.84108106330803 2.91725853190234 4.62006616836854 
5.81190332824097 3.30351901761173 4.58625292880206 
3.99956146533655 4.1110715146128 2.66951844272904 
3.63845457146078 4.16524646805598 2.87108216917045 
6.79434555316028 2.95203525125623 5.16304515358628 
6.82365345229576 3.24185168750596 5.19479420778254 
6.73714766438 3.33786651028284 5.6350351644615 
4.10869776043587 3.29502941949718 1.97451855410241 
4.24742954919548 3.56860810097297 2.168824887521 
6.07217200371602 3.7827313908199 4.93797335628555 
3.64630926193821 3.07152139563194 3.05342180905017 
4.02410388291192 2.84588118831877 2.34982803029989 
4.10968456621207 3.01260810778956 2.74340223683963 
3.38571533344134 2.91652118797552 2.8687282630546 
6.13716590547266 3.61473756782296 4.73422637030309 
6.55219992321322 3.59519969194408 4.97012709335114 
6.69230888758451 2.75106021998527 5.43518998793259 
6.61603064527451 2.92040852965703 5.72539162670732 
3.03204082346048 2.9952113055254 2.32791631001105 
3.05300489652833 3.04922003130425 2.23594413527077 
6.4304120216293 3.76372121921291 5.13789104164368 
6.4961298935498 3.58771243655052 5.64731019042389 
POLYGONS 29 179
5 1 0 25 39 35 
7 28 29 42 43 33 32 2 
5 21 26 30 3 36 
5 4 5 31 27 6 
5 23 24 7 47 46 
5 11 10 8 9 19 
6 26 27 6 38 40 21 
6 8 10 12 13 44 45 
5 13 2 28 22 12 
6 4 5 15 16 7 24 
5 15 5 31 30 3 
5 0 25 14 46 47 
4 14 41 23 46 
5 1 0 47 7 16 
6 4 6 38 41 23 24 
6 14 25 39 40 38 41 
6 16 15 3 36 35 1 
5 17 18 11 19 20 
5 17 18 22 28 29 
5 17 20 37 42 29 
5 11 18 22 12 10 
6 9 19 20 37 48 49 
5 9 8 45 34 49 
4 13 2 32 44 
5 33 34 49 48 43 
5 35 36 21 40 39 
4 26 27 31 30 
5 33 34 45 44 32 
4 42 43 48 37 
CELL_DATA 29
SCALARS scalar_1 double
LOOKUP_TABLE default
0.0038815934088082924
0.0037744805155817606
0.0038815934088082924
0.0038815934088082924
0.0038815934088082924
0.0037744805155817606
0.0038815934088082924
0.0037744805155817606
0.0037744805155817606
0.0038815934088082924
0.0038815934088082924
0.0038815934088082924
0.0038815934088082924
0.0038815934088082924
0.0038815934088082924
0.0038815934088082924
0.0038815934088082924
0.0037744805155817606
0.0037744805155817606
0.0037744805155817606
0.0037744805155817606
0.0037744805155817606
0.0037744805155817606
0.0037744805155817606
0.0037744805155817606
0.0038815934088082924
0.0038815934088082924
0.0037744805155817606
0.0037744805155817606
