# vtk DataFile Version 2.0
polydata
ASCII
DATASET POLYDATA
POINTS 50 double
3.60960039267374 2.91996601835645 2.03442091239111 
3.89825017437692 3.30896946109861 1.87278316310109 
6.39153299774594 2.64494184342548 4.93096310418243 
4.00381754603627 4.0458970474422 2.24594631025745 
3.16548060089028 3.87369370933969 2.81827720444824 
3.41009813651712 4.16399473829395 2.71379785640732 
3.58228059643168 3.61467235981782 3.19569674447444 
2.97400312118315 3.49999992130309 2.2845136850575 
6.1040066579179 2.95289542370834 5.90546289592293 
6.05456744796512 3.41008914631741 5.86352614095447 
5.77269578750708 2.77521467967624 5.71477714298987 
5.38203290714994 3.10401254344042 5.48979537610193 
5.82147806168681 2.5298815534574 5.27401459186029 
6.34629909602139 2.52559013288533 5.12551738555136 
3.43228272011562 2.73406565986387 2.52649250639036 
3.64814614881824 4.08792553590596 2.13134183227719 
3.52534217605882 3.85350543850928 1.98458191421079 
5.41533032963921 3.31490587521316 4.81186350605293 
5.33885464208708 2.97888069765851 4.92214435038958 
5.49865407515778 3.46377654487641 5.50532759294488 
5.51366680115268 3.60410015898119 5.14784600250522 
4.29547146781276 3.41706170640692 2.69069190984269 
5.48089465186095 2.80351554647932 4.84931029377862 
2.95857345622758 3.16389059114314 2.56492566817513 
2.92966904220692 3.5191802452916 2.48970821564464 
3.74803459849383 2.73709698818988 2.28536744292517 
4.14095849540133 3.74478666374302 2.91212804968619 
3.73722852351177 3.76464802948633 3.17347373838125 
5.84205692441627 2.91319049618449 4.61832287690978 
5.8128773466518 3.29946039246559 4.58450730548535 
4.0005220051267 4.10700666215611 2.6677579571966 
3.63939766152252 4.16118595657009 2.8693316008588 
6.79528944350249 2.94795402197102 5.16129023061473 
6.82460269725408 3.23780348288835 5.19304203578636 
6.73809615408894 3.33382158825057 5.63329404067056 
4.10966523392798 3.2909656639821 1.97276637657154 
4.24839318138502 3.56453772743292 2.16706797799936 
6.07314327699252 3.77868587951008 4.9362359372551 
3.64727321942632 3.06744624875172 3.05167634444513 
4.02506992205158 2.84180863993575 2.34808285784782 
4.11064917233508 3.00853508714758 2.74165632859343 
3.38669888705607 2.91245916743745 2.86699976945817 
6.13813975442896 3.61068396230572 4.73248079257882 
6.55315469120989 3.59115062058927 4.96837299682811 
6.69326013714736 2.74699197765713 5.43341770338143 
6.6169742028715 2.91635920090125 5.72365426221861 
3.03300722319289 2.99115438106658 2.32615953452607 
3.05396698207776 3.04515115338806 2.23420861752663 
6.43136269601579 3.75967741085206 5.13614221601401 
6.49707820924357 3.58366854576426 5.64556666443874 
POLYGONS 29 179
5 1 0 25 39 35 
7 28 29 42 43 33 32 2 
5 21 26 30 3 36 
5 4 5 31 27 6 
5 23 24 7 47 46 
5 11 10 8 9 19 
6 26 27 6 38 40 21 
6 8 10 12 13 44 45 
5 13 2 28 22 12 
6 4 5 15 16 7 24 
5 15 5 31 30 3 
5 0 25 14 46 47 
4 14 41 23 46 
5 1 0 47 7 16 
6 4 6 38 41 23 24 
6 14 25 39 40 38 41 
6 16 15 3 36 35 1 
5 17 18 11 19 20 
5 17 18 22 28 29 
5 17 20 37 42 29 
5 11 18 22 12 10 
6 9 19 20 37 48 49 
5 9 8 45 34 49 
4 13 2 32 44 
5 33 34 49 48 43 
5 35 36 21 40 39 
4 26 27 31 30 
5 33 34 45 44 32 
4 42 43 48 37 
CELL_DATA 29
SCALARS scalar_1 double
LOOKUP_TABLE default
0.003831478643482478
0.003733819135281343
0.003831478643482478
0.003831478643482478
0.003831478643482478
0.003733819135281343
0.003831478643482478
0.003733819135281343
0.003733819135281343
0.003831478643482478
0.003831478643482478
0.003831478643482478
0.003831478643482478
0.003831478643482478
0.003831478643482478
0.003831478643482478
0.003831478643482478
0.003733819135281343
0.003733819135281343
0.003733819135281343
0.003733819135281343
0.003733819135281343
0.003733819135281343
0.003733819135281343
0.003733819135281343
0.003831478643482478
0.003831478643482478
0.003733819135281343
0.003733819135281343
