# vtk DataFile Version 2.0
polydata
ASCII
DATASET POLYDATA
POINTS 50 double
3.61094815795099 2.91750089349696 2.03750926305095 
3.89960613492178 3.30651156032072 1.87586582142382 
6.39287763055754 2.6424743684099 4.93404898891566 
4.00515236741515 4.04343649804486 2.24901632948461 
3.16681202886231 3.87123986527263 2.82135889898911 
3.41142677214007 4.16153812256385 2.71688045086798 
3.58361756623914 3.61222007366816 3.19878468468618 
2.97533508298391 3.49755078829859 2.28760969647649 
6.10534275265502 2.95043775945335 5.90854959609093 
6.05590055823875 3.40764938658801 5.86660694401503 
5.77403721628491 2.77275750504913 5.71786627097375 
5.3833711461064 3.10155576735787 5.49288136762711 
5.82282015878753 2.52741816006628 5.27709310950583 
6.34764519984238 2.52312762578199 5.12859565877419 
3.43363765461442 2.73160117213841 2.52957274484038 
3.64947959890634 4.08546563109809 2.1344112927926 
3.52668730023923 3.85106714658827 1.98766625241481 
5.41666802190002 3.31244540067683 4.81495357038585 
5.34019431027938 2.97642633283663 4.9252366903222 
5.49999733218998 3.46133287186363 5.50841309808101 
5.51500850040065 3.60164942673638 5.15094315548505 
4.29680937117077 3.41459415525539 2.69377399465965 
5.482249575838 2.80104320108972 4.85239620548029 
2.95990753431483 3.16144708929998 2.56801002086043 
2.93100355091491 3.51672979026446 2.49279375347707 
3.74938035488443 2.73463294108772 2.28845276367925 
4.14230106183556 3.74230926611727 2.91520402333504 
3.73854594475801 3.76217368461553 3.17656576368614 
5.84340837670199 2.91071960363994 4.62140865832591 
5.81422753565692 3.29699893073119 4.58759060509607 
4.00185751327827 4.10454599008992 2.67082177146082 
3.64071457281396 4.15872979137632 2.87240649424603 
6.79660864015724 2.94546897691436 5.16436519883846 
6.82592732962396 3.23535139753724 5.19611938621501 
6.73941982306009 3.33137334659705 5.63638192183374 
4.11100549948765 3.28850851522716 1.97584113983962 
4.24972984011906 3.56207280091092 2.1701368121794 
6.0744911761649 3.77623692104828 4.9393267632385 
3.64861096316341 3.06497557247543 3.05475798179476 
4.02640795733859 2.83934139267239 2.35116632631127 
4.11198612265717 3.00606650502027 2.74473770098286 
3.38805408114476 2.9100008786422 2.87009693272319 
6.13949011274886 3.6082272869932 4.73556436842695 
6.55448486268775 3.58869822880492 4.9714477669579 
6.69458585554222 2.74451955196845 5.43647705907409 
6.6182924423506 2.91390538066021 5.72674659687203 
3.03434500792193 2.98870354818278 2.32923385663394 
3.05530081288552 3.04268976844229 2.23730169583393 
6.43268906359418 3.75723009013924 5.13922172350875 
6.49840161718644 3.5812216932701 5.64865163391457 
POLYGONS 29 179
5 1 0 25 39 35 
7 28 29 42 43 33 32 2 
5 21 26 30 3 36 
5 4 5 31 27 6 
5 23 24 7 47 46 
5 11 10 8 9 19 
6 26 27 6 38 40 21 
6 8 10 12 13 44 45 
5 13 2 28 22 12 
6 4 5 15 16 7 24 
5 15 5 31 30 3 
5 0 25 14 46 47 
4 14 41 23 46 
5 1 0 47 7 16 
6 4 6 38 41 23 24 
6 14 25 39 40 38 41 
6 16 15 3 36 35 1 
5 17 18 11 19 20 
5 17 18 22 28 29 
5 17 20 37 42 29 
5 11 18 22 12 10 
6 9 19 20 37 48 49 
5 9 8 45 34 49 
4 13 2 32 44 
5 33 34 49 48 43 
5 35 36 21 40 39 
4 26 27 31 30 
5 33 34 45 44 32 
4 42 43 48 37 
CELL_DATA 29
SCALARS scalar_1 double
LOOKUP_TABLE default
0.003791719734548271
0.003694771111753208
0.003791719734548271
0.003791719734548271
0.003791719734548271
0.003694771111753208
0.003791719734548271
0.003694771111753208
0.003694771111753208
0.003791719734548271
0.003791719734548271
0.003791719734548271
0.003791719734548271
0.003791719734548271
0.003791719734548271
0.003791719734548271
0.003791719734548271
0.003694771111753208
0.003694771111753208
0.003694771111753208
0.003694771111753208
0.003694771111753208
0.003694771111753208
0.003694771111753208
0.003694771111753208
0.003791719734548271
0.003791719734548271
0.003694771111753208
0.003694771111753208
