# vtk DataFile Version 2.0
polydata
ASCII
DATASET POLYDATA
POINTS 50 double
3.61047595198358 2.91257377255787 2.03732403229915 
3.89914118389829 3.30159112219096 1.87567629887492 
6.39240547965803 2.6375535337845 4.93385949196293 
4.00466484340595 4.0385147081853 2.24881593030314 
3.16632719013156 3.8663254714319 2.82116744460449 
3.41093717802119 4.15661887887939 2.71669059378836 
3.58313416886254 3.60730822676144 3.19859671495503 
2.97484791554591 3.49263763647835 2.28743082806109 
6.10486287389023 2.94552582720636 5.90835947135111 
6.05541720854038 3.40275382414775 5.86641168406561 
5.77356383701302 2.76784603814899 5.71767953244261 
5.38289393570735 3.09664401013311 5.4926928939704 
5.82234718550853 2.52250103021483 5.2768950448872 
6.34717560023284 2.5182128198605 5.12839633815777 
3.43317267315427 2.72667547517068 2.52937677049252 
3.64899436585628 4.08054409783873 2.13421113491213 
3.52621219062746 3.84616410192584 1.98747823788995 
5.41618819539422 3.30752934432156 4.81476996697938 
5.33971758562918 2.97151806582461 4.92505506474584 
5.49952420722907 3.45643290163838 5.50822434288374 
5.51453294949246 3.59674274362611 5.15076620420616 
4.29632479142401 3.40966621394908 2.6935827168743 
5.48178897546489 2.79611637155505 4.8522072916183 
2.95942184121942 3.15654234670139 2.56781800408675 
2.9305190882961 3.51181503035396 2.49260267792051 
3.74890519004816 2.72970817056494 2.28826309263275 
4.14181889531867 3.73737480293672 2.91500851215135 
3.73804522100371 3.75724221815123 3.17638150034509 
5.84294126908945 2.90579473642719 4.62122001235258 
5.81375856144089 3.29208223001496 4.58739987322608 
4.00137016603378 4.09962379888583 2.67061720881433 
3.64021436592418 4.15381090717652 2.8722096495044 
6.79610940576937 2.94052957434557 5.16416354150891 
6.82543355163166 3.23044490709829 5.19592044047278 
6.73892578435927 3.32647009941462 5.63619303774056 
4.11052387429661 3.28358907118755 1.97564378041611 
4.24924464126473 3.55714714970567 2.1699351001871 
6.07402111829531 3.77133245112401 4.93914250523712 
3.64812838608985 3.06004541648019 3.05456495380258 
4.02592506831123 2.8344141193374 2.35097517491988 
4.11150195407161 3.00113868199325 2.74454565088799 
3.38758863071639 2.90508236193276 2.86991883895986 
6.13902189611593 3.60331606853068 4.73537367947145 
6.55399636012445 3.5837913555612 4.97124719931826 
6.69409463033338 2.73959409530783 5.43625674823715 
6.61779365024641 2.9089989114315 5.72656147573101 
3.0338636022193 2.98379066117324 2.32903149705932 
3.05481526313194 3.03776535399773 2.2371198192971 
6.43219767507995 3.75232727117482 5.13902534338968 
6.49790802972075 3.57631914677819 5.6484603274641 
POLYGONS 29 179
5 1 0 25 39 35 
7 28 29 42 43 33 32 2 
5 21 26 30 3 36 
5 4 5 31 27 6 
5 23 24 7 47 46 
5 11 10 8 9 19 
6 26 27 6 38 40 21 
6 8 10 12 13 44 45 
5 13 2 28 22 12 
6 4 5 15 16 7 24 
5 15 5 31 30 3 
5 0 25 14 46 47 
4 14 41 23 46 
5 1 0 47 7 16 
6 4 6 38 41 23 24 
6 14 25 39 40 38 41 
6 16 15 3 36 35 1 
5 17 18 11 19 20 
5 17 18 22 28 29 
5 17 20 37 42 29 
5 11 18 22 12 10 
6 9 19 20 37 48 49 
5 9 8 45 34 49 
4 13 2 32 44 
5 33 34 49 48 43 
5 35 36 21 40 39 
4 26 27 31 30 
5 33 34 45 44 32 
4 42 43 48 37 
CELL_DATA 29
SCALARS scalar_1 double
LOOKUP_TABLE default
0.0037837192202933878
0.0036123505255108335
0.0037837192202933878
0.0037837192202933878
0.0037837192202933878
0.0036123505255108335
0.0037837192202933878
0.0036123505255108335
0.0036123505255108335
0.0037837192202933878
0.0037837192202933878
0.0037837192202933878
0.0037837192202933878
0.0037837192202933878
0.0037837192202933878
0.0037837192202933878
0.0037837192202933878
0.0036123505255108335
0.0036123505255108335
0.0036123505255108335
0.0036123505255108335
0.0036123505255108335
0.0036123505255108335
0.0036123505255108335
0.0036123505255108335
0.0037837192202933878
0.0037837192202933878
0.0036123505255108335
0.0036123505255108335
