# vtk DataFile Version 2.0
polydata
ASCII
DATASET POLYDATA
POINTS 50 double
3.61261128244693 2.91123129383229 2.03796385879643 
3.90128402073521 3.30025556773094 1.87631068258776 
6.39453623684569 2.63621665577003 4.93449447646822 
4.00678588024039 4.03717797427926 2.24943770515434 
3.16844667685768 3.86499612072472 2.82180025880835 
3.41305329797493 4.15528611879449 2.717324225166 
3.58525752484975 3.60598129134467 3.19923517040644 
2.9769675759982 3.49131094026293 2.28807681243091 
6.10698605221456 2.94419730631822 5.9089956824795 
6.05753702826548 3.40144196027119 5.86704246222027 
5.77569199656855 2.76651761527709 5.71831822077839 
5.38501887549595 3.09531556716034 5.49332974800621 
5.82447586705245 2.52116712001229 5.27752356686642 
6.34930802536633 2.51688051122108 5.12902406951323 
3.4353148980241 2.72533439200776 2.53000792119067 
3.65111542410386 4.07920757941575 2.13483259055592 
3.52834415594983 3.84484726456309 1.98811351347627 
5.41831158523402 3.30619805222585 4.81540982737328 
5.34184312240597 2.97019208608444 4.92569719506795 
5.50165370711683 3.45511675957914 5.50886072518565 
5.5166603188973 3.59542034774408 5.1514120859567 
4.29844929450347 3.40832323692125 2.69421597987841 
5.48392867640737 2.79477394735962 4.85284325158877 
2.96154317893742 3.15522230537316 2.56845341383284 
2.9326410069702 3.51048732112022 2.49323859203902 
3.75103824883043 2.72836763578785 2.28889952038332 
4.14394681681871 3.73602387252153 2.91563626472386 
3.74015008782151 3.75589445595644 3.17702369212213 
5.84507792575367 2.90445415238556 4.62185534332205 
5.81589361644598 3.29075021150631 4.58803297732346 
4.00349165663092 4.09828745149024 2.67123355634865 
3.64231899586427 4.15247884953343 2.8728358584515 
6.79821604562135 2.93917633927032 5.16478816422208 
6.8275449770565 3.22912140629412 5.19654740951758 
6.74103630528051 3.32515030435153 5.6368303642019 
4.11265098239449 3.28225455999372 1.9762704852206 
4.251368076602 3.55580595590511 2.17055627024391 
6.07615481306953 3.77001196546672 4.93978153805663 
3.65025268428369 3.05869987287343 3.05519835246323 
4.02805066211131 2.83307101467251 2.35160986236816 
4.1136262981885 2.99979504665029 2.74517864095864 
3.38973055659738 2.9037486572649 2.87056782592022 
6.14115751362538 3.6019893331442 4.7360071911745 
6.55611168149346 3.58246883576211 4.97187142288845 
6.69620756520289 2.73825238175847 5.43686626632703 
6.61989936418675 2.90767474830741 5.72720279027495 
3.03598928086387 2.98246215580095 2.32965627827647 
3.05693704667056 3.0364261239796 2.23776342683395 
6.43431041614352 3.75100841517885 5.13965306300122 
6.50001844707418 3.57500049294175 5.64909487403517 
POLYGONS 29 179
5 1 0 25 39 35 
7 28 29 42 43 33 32 2 
5 21 26 30 3 36 
5 4 5 31 27 6 
5 23 24 7 47 46 
5 11 10 8 9 19 
6 26 27 6 38 40 21 
6 8 10 12 13 44 45 
5 13 2 28 22 12 
6 4 5 15 16 7 24 
5 15 5 31 30 3 
5 0 25 14 46 47 
4 14 41 23 46 
5 1 0 47 7 16 
6 4 6 38 41 23 24 
6 14 25 39 40 38 41 
6 16 15 3 36 35 1 
5 17 18 11 19 20 
5 17 18 22 28 29 
5 17 20 37 42 29 
5 11 18 22 12 10 
6 9 19 20 37 48 49 
5 9 8 45 34 49 
4 13 2 32 44 
5 33 34 49 48 43 
5 35 36 21 40 39 
4 26 27 31 30 
5 33 34 45 44 32 
4 42 43 48 37 
CELL_DATA 29
SCALARS scalar_1 double
LOOKUP_TABLE default
0.003744758207632314
0.003572685406649399
0.003744758207632314
0.003744758207632314
0.003744758207632314
0.003572685406649399
0.003744758207632314
0.003572685406649399
0.003572685406649399
0.003744758207632314
0.003744758207632314
0.003744758207632314
0.003744758207632314
0.003744758207632314
0.003744758207632314
0.003744758207632314
0.003744758207632314
0.003572685406649399
0.003572685406649399
0.003572685406649399
0.003572685406649399
0.003572685406649399
0.003572685406649399
0.003572685406649399
0.003572685406649399
0.003744758207632314
0.003744758207632314
0.003572685406649399
0.003572685406649399
