# vtk DataFile Version 2.0
polydata
ASCII
DATASET POLYDATA
POINTS 50 double
3.61944459214236 2.91867509898421 2.0244078430109 
3.90777843791022 3.30731579751667 1.86297922695172 
6.4015573026147 2.64346010983428 4.92116735837635 
4.01389047889649 4.04409151229899 2.23638106855326 
3.17611967729933 3.87169764801249 2.80816071823542 
3.42072955704167 4.16199728047259 2.70365074694771 
3.59246988466265 3.61283019604265 3.18512478726367 
2.98456939577707 3.49792213616124 2.2742048120309 
6.11424421006959 2.95124609504907 5.89517572212234 
6.06488583243188 3.40784282955544 5.85337397054634 
5.78284068518595 2.77354704229901 5.70443520614017 
5.39243013732213 3.10225266232603 5.47961257587832 
5.8316447777926 2.52843477226471 5.26407743406851 
6.35633147570584 2.52415723922941 5.11562429956175 
3.44183120559823 2.73288972015999 2.51656700584304 
3.6584652217217 4.08608126237545 2.12186848681748 
3.53534487818452 3.85108218506298 1.9746962957134 
5.42577636233583 3.31312605357001 4.80186803919174 
5.3492714638811 2.97716644404607 4.9121006576375 
5.50890535827973 3.46158107449802 5.49516109754672 
5.52398186584475 3.60201091877569 5.13751710486877 
4.30535260207334 3.41568653420361 2.68055600842171 
5.49102053737601 2.80212700690796 4.8393890258833 
2.96913370535532 3.1616942560064 2.55471475143436 
2.94021881512677 3.51710205910194 2.47950930347667 
3.75784703709423 2.73588519091375 2.2752973136372 
4.15071980616745 3.74367000258221 2.90211726840555 
3.74801748060721 3.7634754104658 3.16277128019663 
5.85200253199573 2.91173932762383 4.60851880235548 
5.82284134507359 3.2976539184561 4.57476699337571 
4.01058046142078 4.10517333652835 2.65825061006367 
3.65027963109972 4.15917371789915 2.85934172637291 
6.8054904299639 2.94655855797307 5.15158921927023 
6.83471931065075 3.23585199288104 5.18330938513298 
6.74830901615322 3.33171618970522 5.62307403029011 
4.11954813148715 3.28929038257048 1.96315280754119 
4.25834157212943 3.56301070181685 2.15756800559145 
6.08321962176876 3.77647018739581 4.92610325796423 
3.65744064477314 3.0662641681571 3.04135226284127 
4.03501971996056 2.8406319024574 2.33804799295081 
4.12060566312713 3.00731660104025 2.73153361719318 
3.39630269760439 2.91089005847911 2.85616929897937 
6.14811329048453 3.60883983245606 4.72278192980936 
6.56316274838178 3.58925890516775 4.95867999529394 
6.70346824708623 2.74562938305119 5.42366926857789 
6.62734556529701 2.91466044100663 5.71331393260752 
3.04333622076814 2.98941709415961 2.31654802364057 
3.06440722656537 3.04372283449044 2.2240353103123 
6.44162851910072 3.75744047734947 5.12612755414736 
6.50739852189647 3.58145770164443 5.63541959311113 
POLYGONS 29 179
5 1 0 25 39 35 
7 28 29 42 43 33 32 2 
5 21 26 30 3 36 
5 4 5 31 27 6 
5 23 24 7 47 46 
5 11 10 8 9 19 
6 26 27 6 38 40 21 
6 8 10 12 13 44 45 
5 13 2 28 22 12 
6 4 5 15 16 7 24 
5 15 5 31 30 3 
5 0 25 14 46 47 
4 14 41 23 46 
5 1 0 47 7 16 
6 4 6 38 41 23 24 
6 14 25 39 40 38 41 
6 16 15 3 36 35 1 
5 17 18 11 19 20 
5 17 18 22 28 29 
5 17 20 37 42 29 
5 11 18 22 12 10 
6 9 19 20 37 48 49 
5 9 8 45 34 49 
4 13 2 32 44 
5 33 34 49 48 43 
5 35 36 21 40 39 
4 26 27 31 30 
5 33 34 45 44 32 
4 42 43 48 37 
CELL_DATA 29
SCALARS scalar_1 double
LOOKUP_TABLE default
0.013849903521156436
0.00503246861907516
0.013849903521156436
0.013849903521156436
0.013849903521156436
0.00503246861907516
0.013849903521156436
0.00503246861907516
0.00503246861907516
0.013849903521156436
0.013849903521156436
0.013849903521156436
0.013849903521156436
0.013849903521156436
0.013849903521156436
0.013849903521156436
0.013849903521156436
0.00503246861907516
0.00503246861907516
0.00503246861907516
0.00503246861907516
0.00503246861907516
0.00503246861907516
0.00503246861907516
0.00503246861907516
0.013849903521156436
0.013849903521156436
0.00503246861907516
0.00503246861907516
