# vtk DataFile Version 2.0
polydata
ASCII
DATASET POLYDATA
POINTS 50 double
3.60780929188409 2.91435550354506 2.03633881194981 
3.89648986501184 3.30338737325612 1.87467996706845 
6.3897290057527 2.63934087155403 4.93286444170531 
4.0019718988017 4.04030828319543 2.2477958381763 
3.16363119878828 3.86813249817321 2.82017023864229 
3.40823435516589 4.15841975510526 2.71569540463022 
3.58044511096024 3.60911966519958 3.19760918022512 
2.97215111116051 3.4944499906399 2.28645930620867 
6.10216984698951 2.9473303640549 5.90736615678392 
6.05271841303481 3.40459185573225 5.86540794709777 
5.77088130115386 2.76965183478916 5.71669124614218 
5.38020539872361 3.09845033610543 5.49170043882367 
5.81966556709877 2.52429565853827 5.27588571541832 
6.34450213062745 2.52000980153711 5.12738585334656 
3.43051922508741 2.72846013634817 2.52837361023141 
3.64630093668634 4.08233826978903 2.13319065990442 
3.52353993812988 3.84799692679355 1.98648471709882 
5.41349737718192 3.30932988663538 4.81378433804818 
5.33703077201042 2.97332977597529 4.92407341745957 
5.4968449733941 3.45826355950499 5.50723128033934 
5.51185007817921 3.59856094708952 5.14979365232251 
4.2936383536394 3.41144721229891 2.69258399977492 
5.47913091508098 2.79789433148969 4.85121308486578 
2.95672909726089 3.15836673967747 2.56682389009325 
2.92782729212021 3.51362490532577 2.49161013203275 
3.74623376477749 2.73149403975504 2.28727001360287 
4.1391396899859 3.73913951711391 2.9139994060701 
3.73531972937635 3.75901271322508 3.17540165279343 
5.84027781550428 2.90757591383863 4.62022488592576 
5.81109270423523 3.29388125124077 4.5864003690733 
3.99867834910523 4.10141759220647 2.66958632085999 
3.63748815242842 4.15561303920137 2.87119915599358 
6.79338360087743 2.94228213639812 5.16314790878948 
6.82271821844904 3.23225916812962 5.19490981523405 
6.73620866880564 3.32829119921826 5.63520244091914 
4.10784149303431 3.28538718409848 1.97463194295966 
4.24655578589334 3.55893243781507 2.1689130663809 
6.07135099579085 3.77315428352837 4.93815719864641 
3.64544121427118 3.06182047788916 3.05356617243948 
4.02323972225352 2.83619484104183 2.34997869947773 
4.1088145606423 3.00291770883571 2.7435459100764 
3.38493499503479 2.90688038319587 2.86894965696775 
6.13635616319617 3.60512386805361 4.73437502194181 
6.55129094799099 3.58560688456126 4.97023134946125 
6.69138147020983 2.74137108451638 5.43520938030439 
6.61506611286593 2.91081140114655 5.72557845196807 
3.03117881703481 2.98559957843208 2.32801715642746 
3.05212264434368 3.03955313907081 2.23614281717039 
6.42948590113522 3.75415161115858 5.13801800739152 
6.49519063756987 3.5781434339019 5.64746449600889 
POLYGONS 29 179
5 1 0 25 39 35 
7 28 29 42 43 33 32 2 
5 21 26 30 3 36 
5 4 5 31 27 6 
5 23 24 7 47 46 
5 11 10 8 9 19 
6 26 27 6 38 40 21 
6 8 10 12 13 44 45 
5 13 2 28 22 12 
6 4 5 15 16 7 24 
5 15 5 31 30 3 
5 0 25 14 46 47 
4 14 41 23 46 
5 1 0 47 7 16 
6 4 6 38 41 23 24 
6 14 25 39 40 38 41 
6 16 15 3 36 35 1 
5 17 18 11 19 20 
5 17 18 22 28 29 
5 17 20 37 42 29 
5 11 18 22 12 10 
6 9 19 20 37 48 49 
5 9 8 45 34 49 
4 13 2 32 44 
5 33 34 49 48 43 
5 35 36 21 40 39 
4 26 27 31 30 
5 33 34 45 44 32 
4 42 43 48 37 
CELL_DATA 29
SCALARS scalar_1 double
LOOKUP_TABLE default
0.003701777865639232
0.003529534192086894
0.003701777865639232
0.003701777865639232
0.003701777865639232
0.003529534192086894
0.003701777865639232
0.003529534192086894
0.003529534192086894
0.003701777865639232
0.003701777865639232
0.003701777865639232
0.003701777865639232
0.003701777865639232
0.003701777865639232
0.003701777865639232
0.003701777865639232
0.003529534192086894
0.003529534192086894
0.003529534192086894
0.003529534192086894
0.003529534192086894
0.003529534192086894
0.003529534192086894
0.003529534192086894
0.003701777865639232
0.003701777865639232
0.003529534192086894
0.003529534192086894
