# vtk DataFile Version 2.0
polydata
ASCII
DATASET POLYDATA
POINTS 50 double
3.60650207834614 2.91025390647525 2.03759351855158 
3.89519047937628 3.29929309421877 1.87592990922358 
6.38841784859644 2.63524683504346 4.93411328535771 
4.0006508318142 4.03621335522049 2.24903472877849 
3.16230977406022 3.86404483838541 2.82141954905717 
3.40690940762016 4.15432832598696 2.71694610553163 
3.57912645454627 3.60503398818742 3.19886327729816 
2.97082872968564 3.49036448787591 2.28772026277873 
6.10085283512324 2.94324385863944 5.90861771771892 
6.05139806274745 3.40052148401673 5.86665483412068 
5.76956859357273 2.76556520053205 5.71794509418058 
5.37888972888973 3.09436289128393 5.49295358568198 
5.81835311454766 2.52020376805231 5.27712848006331 
6.34319299077308 2.51592004135818 5.12862733124738 
3.4292190725839 2.72435982879647 2.52961799970055 
3.64498100541828 4.07824366389505 2.13442936249434 
3.52223011951895 3.84392090578066 1.98773595899169 
5.41217946620003 3.30523999893922 4.81504035059097 
5.33571524348899 2.96924518177959 4.9253312304166 
5.49553389632038 3.45418929185717 5.50848430886674 
5.51053652231098 3.59448057018146 5.15105728177118 
4.29232018553966 3.40734625323737 2.69383367732377 
5.47782925107077 2.79379392774535 4.85246448535541 
2.95540780341041 3.15428853603095 2.5680736696725 
2.92650715647719 3.50953817732431 2.4928608562908 
3.74492366366232 2.72739465468476 2.28852046399471 
4.13782445892756 3.73503097799607 2.91524441348681 
3.73398346339832 3.7549070402974 3.17665958845943 
5.83897228196916 2.90347794187589 4.62147566124814 
5.80978531113831 3.28979096167395 4.5876497946866 
3.9973573865777 4.09732269140873 2.6708213114376 
3.6361522286393 4.1515219836102 2.87244282973378 
6.79204916284033 2.93817212793325 5.164386616297 
6.82138865412213 3.22817912391263 5.19615134704666 
6.73487864934717 3.3242142356616 5.63645494659003 
4.10652563625971 3.28129394970493 1.97587406877665 
4.24523682073551 3.55483392911575 2.1701511784364 
6.07004441688075 3.76907648493599 4.93941343398991 
3.64412335336818 3.05771595954642 3.0548146628669 
4.02192261790576 2.8320932094258 2.35122780857167 
4.107496222763 2.99881566939372 2.74479469918935 
3.38363430347085 2.90278770205526 2.87021314169452 
6.1350512764138 3.60104035753391 4.73562576332851 
6.5499657779096 3.58152715035371 4.97147180306007 
6.69005362565126 2.73727199764802 5.43643301934547 
6.61373128642569 2.90672964838787 5.72683457581579 
3.02986222466393 2.98151224487642 2.32925511126968 
3.05080205481929 3.03545456060979 2.23740075205833 
6.42815826311035 3.75007532613079 5.13926229884102 
6.49386113150795 3.57406682214096 5.6487148044719 
POLYGONS 29 179
5 1 0 25 39 35 
7 28 29 42 43 33 32 2 
5 21 26 30 3 36 
5 4 5 31 27 6 
5 23 24 7 47 46 
5 11 10 8 9 19 
6 26 27 6 38 40 21 
6 8 10 12 13 44 45 
5 13 2 28 22 12 
6 4 5 15 16 7 24 
5 15 5 31 30 3 
5 0 25 14 46 47 
4 14 41 23 46 
5 1 0 47 7 16 
6 4 6 38 41 23 24 
6 14 25 39 40 38 41 
6 16 15 3 36 35 1 
5 17 18 11 19 20 
5 17 18 22 28 29 
5 17 20 37 42 29 
5 11 18 22 12 10 
6 9 19 20 37 48 49 
5 9 8 45 34 49 
4 13 2 32 44 
5 33 34 49 48 43 
5 35 36 21 40 39 
4 26 27 31 30 
5 33 34 45 44 32 
4 42 43 48 37 
CELL_DATA 29
SCALARS scalar_1 double
LOOKUP_TABLE default
0.003657973126062201
0.003489355207355477
0.003657973126062201
0.003657973126062201
0.003657973126062201
0.003489355207355477
0.003657973126062201
0.003489355207355477
0.003489355207355477
0.003657973126062201
0.003657973126062201
0.003657973126062201
0.003657973126062201
0.003657973126062201
0.003657973126062201
0.003657973126062201
0.003657973126062201
0.003489355207355477
0.003489355207355477
0.003489355207355477
0.003489355207355477
0.003489355207355477
0.003489355207355477
0.003489355207355477
0.003489355207355477
0.003657973126062201
0.003657973126062201
0.003489355207355477
0.003489355207355477
