# vtk DataFile Version 2.0
polydata
ASCII
DATASET POLYDATA
POINTS 50 double
3.60928205881684 2.91511528500115 2.04013377379099 
3.89797810223414 3.30416139480623 1.87846484993323 
6.3911933921283 2.64010950761242 4.93664864622121 
4.00341793229934 4.04108031435183 2.25155812891108 
3.16507571456869 3.86891922907803 2.8239541825211 
3.40967163408976 4.15919912657459 2.7194818786105 
3.5818954226152 3.60991016697004 3.20140260489463 
2.97359351361788 3.49524091224828 2.29026746391528 
6.10361993267296 2.94811569849072 5.91115359236079 
6.05416254330869 3.40541024742731 5.86918535086201 
5.77234152331418 2.77043810113578 5.72048393636563 
5.38165936993917 3.09923658927532 5.4954898935296 
5.82112631359428 2.52507073375338 5.27965661715955 
6.34597011718719 2.52078783720412 5.13115480878397 
3.4320058927685 2.72922250045775 2.53214937625959 
3.64774786994041 4.08311117220831 2.13695255238313 
3.52500741277774 3.84880766131851 1.99027240475381 
5.4149478949978 3.31011014011205 4.81758016529545 
5.33848564379429 2.97412147368283 4.92787313658961 
5.49830822371676 3.45907456123266 5.51102018789028 
5.51330912371554 3.59935953823079 5.15360343602172 
4.29509028560975 3.41220619133817 2.6963673971507 
5.48061443922326 2.79865256981489 4.85499995048045 
2.9581745068387 3.15917151513754 2.57060909115892 
2.92927451382942 3.51441325283315 2.49539696198016 
3.74770136023876 2.7322578143743 2.29105711962275 
4.14059810510956 3.73988349308493 2.91777322738222 
3.73673435640234 3.7597627433661 3.17920275883441 
5.84175420416585 2.90833766478653 4.62401085007342 
5.81256627637903 3.29465999443115 4.59018248168672 
4.00012509061741 4.10218965343647 2.67333934569528 
3.63890297122786 4.15639326529257 2.87497102132873 
6.79479985185486 2.94301720947718 5.16691117146488 
6.82414480671251 3.23305579567917 5.19867827718692 
6.73763399773609 3.32909439710166 5.63899195637728 
4.10929796366432 3.28616300303162 1.97840142093753 
4.24800589292941 3.55969607701383 2.17267332772745 
6.07282317780899 3.77395689484705 4.94195316192069 
3.64689296459107 3.06257402835825 3.05734852965895 
4.02469311071392 2.83695358151127 2.35376272762131 
4.11026580656658 3.0036752546523 2.74732799099655 
3.3864208567101 2.90765735298179 2.87276184522737 
6.13783217071799 3.60591326261285 4.73815838973259 
6.55272750050727 3.58640379965924 4.97399619088649 
6.69281076147027 2.74212966469534 5.43894156158199 
6.61648128960983 2.91160528965684 5.72937548305309 
3.03263299458345 2.98638742754195 2.33178052911955 
3.05356887854703 3.04031902910763 2.23994511354031 
6.4309165322343 3.75495688957667 5.14179113044387 
6.49661651783186 3.57894850761619 5.65124918888649 
POLYGONS 29 179
5 1 0 25 39 35 
7 28 29 42 43 33 32 2 
5 21 26 30 3 36 
5 4 5 31 27 6 
5 23 24 7 47 46 
5 11 10 8 9 19 
6 26 27 6 38 40 21 
6 8 10 12 13 44 45 
5 13 2 28 22 12 
6 4 5 15 16 7 24 
5 15 5 31 30 3 
5 0 25 14 46 47 
4 14 41 23 46 
5 1 0 47 7 16 
6 4 6 38 41 23 24 
6 14 25 39 40 38 41 
6 16 15 3 36 35 1 
5 17 18 11 19 20 
5 17 18 22 28 29 
5 17 20 37 42 29 
5 11 18 22 12 10 
6 9 19 20 37 48 49 
5 9 8 45 34 49 
4 13 2 32 44 
5 33 34 49 48 43 
5 35 36 21 40 39 
4 26 27 31 30 
5 33 34 45 44 32 
4 42 43 48 37 
CELL_DATA 29
SCALARS scalar_1 double
LOOKUP_TABLE default
0.0036172217255078204
0.0034472565455237816
0.0036172217255078204
0.0036172217255078204
0.0036172217255078204
0.0034472565455237816
0.0036172217255078204
0.0034472565455237816
0.0034472565455237816
0.0036172217255078204
0.0036172217255078204
0.0036172217255078204
0.0036172217255078204
0.0036172217255078204
0.0036172217255078204
0.0036172217255078204
0.0036172217255078204
0.0034472565455237816
0.0034472565455237816
0.0034472565455237816
0.0034472565455237816
0.0034472565455237816
0.0034472565455237816
0.0034472565455237816
0.0034472565455237816
0.0036172217255078204
0.0036172217255078204
0.0034472565455237816
0.0034472565455237816
