# vtk DataFile Version 2.0
polydata
ASCII
DATASET POLYDATA
POINTS 50 double
3.60865917027862 2.91587718122897 2.04296559125516 
3.89736269507572 3.30493129975976 1.88129202967159 
6.3905666868702 2.64087944358812 4.93947479891121 
4.00278095191727 4.04184985385263 2.25437564098158 
3.1644367005622 3.86969454087267 2.82678245807119 
3.40902916657099 4.15997122622662 2.72231181890253 
3.58126050695198 3.61068637673475 3.20423663870866 
2.97295376783612 3.49601818564259 2.29310647121739 
6.10298544819063 2.94889393098695 5.91398270329598 
6.05352469615351 3.4062050403385 5.87200962745423 
5.77171284016102 2.77121668070771 5.72331642049818 
5.38102584199181 3.1000148899016 5.49832024305849 
5.82049771140143 2.52584312381399 5.28247717987469 
6.34534541485386 2.52156226341108 5.13397383353429 
3.43139039433785 2.72998408061572 2.53497312685655 
3.64711115881514 4.08388096346058 2.13976975371675 
3.52438076202048 3.84959559647337 1.99310160835909 
5.41431158168249 3.31088520862836 4.82041248248953 
5.33785220037523 2.97490168902262 4.93070729911043 
5.49767856805529 3.45986528703527 5.51385005019836 
5.51267692218298 3.6001443439605 5.15644367071925 
4.29445742836679 3.41296814145753 2.69919577211378 
5.47999533023971 2.79941659090411 4.85782775249049 
2.95753601392981 3.15995554673397 2.57343730956462 
2.92863685813065 3.51518916217318 2.4982259745936 
3.74707688579953 2.73302061282711 2.29388632659114 
4.1399676716735 3.74063816437225 2.92059750772197 
3.73608208262296 3.76051958940911 3.18204062756811 
5.84113214672511 2.90910384041717 4.62683764262195 
5.81194246562162 3.29543519486166 4.5930071206008 
3.99948827339017 4.10295879713633 2.67615338170037 
3.63825023493961 4.15716580462748 2.87779439266809 
6.7941504109624 2.94377183771046 5.16972708922066 
6.82350026164897 3.2338400743314 5.20149648990744 
6.73698879351203 3.32988228679227 5.64182100670114 
4.10866749683509 3.28693394670683 1.98122127809078 
4.24737193604681 3.56046115669777 2.17548909955107 
6.07219694172368 3.77474475406821 4.94478612672209 
3.64625928847881 3.0633318543509 3.06017680125011 
4.02406160328137 2.83771435955213 2.35659054284657 
4.10963300952163 3.00443568017939 2.75015546019559 
3.38580442854156 2.90842665230665 2.87560493278234 
6.13720828782924 3.60669276851633 4.74098257042875 
6.55208796233576 3.58718716491636 4.97681287754199 
6.69216775939269 2.74289537731396 5.44174282110566 
6.61583135604423 2.91238823595928 5.73220838783912 
3.03199932656036 2.98716261211726 2.33459712999019 
3.05293137669366 3.04108361529382 2.24278075554877 
6.43027269842946 3.75574619357191 5.1446138063606 
6.49597078790239 3.57973794108537 5.65407601166369 
POLYGONS 29 179
5 1 0 25 39 35 
7 28 29 42 43 33 32 2 
5 21 26 30 3 36 
5 4 5 31 27 6 
5 23 24 7 47 46 
5 11 10 8 9 19 
6 26 27 6 38 40 21 
6 8 10 12 13 44 45 
5 13 2 28 22 12 
6 4 5 15 16 7 24 
5 15 5 31 30 3 
5 0 25 14 46 47 
4 14 41 23 46 
5 1 0 47 7 16 
6 4 6 38 41 23 24 
6 14 25 39 40 38 41 
6 16 15 3 36 35 1 
5 17 18 11 19 20 
5 17 18 22 28 29 
5 17 20 37 42 29 
5 11 18 22 12 10 
6 9 19 20 37 48 49 
5 9 8 45 34 49 
4 13 2 32 44 
5 33 34 49 48 43 
5 35 36 21 40 39 
4 26 27 31 30 
5 33 34 45 44 32 
4 42 43 48 37 
CELL_DATA 29
SCALARS scalar_1 double
LOOKUP_TABLE default
0.003540038434483525
0.0034451224511564595
0.003540038434483525
0.003540038434483525
0.003540038434483525
0.0034451224511564595
0.003540038434483525
0.0034451224511564595
0.0034451224511564595
0.003540038434483525
0.003540038434483525
0.003540038434483525
0.003540038434483525
0.003540038434483525
0.003540038434483525
0.003540038434483525
0.003540038434483525
0.0034451224511564595
0.0034451224511564595
0.0034451224511564595
0.0034451224511564595
0.0034451224511564595
0.0034451224511564595
0.0034451224511564595
0.0034451224511564595
0.003540038434483525
0.003540038434483525
0.0034451224511564595
0.0034451224511564595
