# vtk DataFile Version 2.0
polydata
ASCII
DATASET POLYDATA
POINTS 50 double
3.61183328180493 2.91605096131259 2.04706963726156 
3.90054336698574 3.30511134666546 1.88539187720024 
6.39373606242912 2.64105491956545 4.9435786233028 
4.00594107688648 4.04202852922059 2.25846480092425 
3.16759558724948 3.86987984834108 2.83088174421384 
3.41218458593383 4.16015332233879 2.72641207131345 
3.58442261004153 3.61087371611852 3.20834037414598 
2.97611250645917 3.49620658069654 2.29721790996416 
6.10614722392589 2.94907817857997 5.9180865761706 
6.05668342975205 3.40640529858518 5.87610862152839 
5.7748802749463 2.77140146059961 5.72742268025249 
5.38418878650561 3.10020071031846 5.50242310346444 
5.8236659549014 2.52602217239478 5.28657203697075 
6.34851669635632 2.52174314513318 5.13806867145346 
3.43457075421166 2.73015843757665 2.53906861112472 
3.65027066128717 4.08406008566162 2.14385849773437 
3.52755069723306 3.84979383760419 1.99720334984539 
5.41747339618305 3.31106633175284 4.82451921874192 
5.34101670069473 2.97509025137457 4.93481564518326 
5.50084525042208 3.46006189384055 5.51795260474135 
5.515842070642 3.60033459477146 5.16055709529416 
4.29762068882457 3.41313994042935 2.70329420019864 
5.483175245843 2.79958747347207 4.86192956586663 
2.96069679019925 3.16014932999085 2.57753812410515 
2.93179790589714 3.5153762023305 2.50232769072989 
3.75024875925514 2.73319595503598 2.29798656547178 
4.14313395628012 3.74080266247805 2.92469134474678 
3.73922627822293 3.76068685827816 3.18614818673522 
5.8443064233272 2.90927612165068 4.63094079510105 
5.81511528413736 3.29561577564929 4.59710803027015 
4.00264870971126 4.10313736513698 2.68023664351115 
3.64139419897238 4.15734841697066 2.88188718938291 
6.7972961785937 2.94393158022085 5.17382130216864 
6.82665082879015 3.23402941127257 5.20559306321325 
6.74013840606342 3.33007470167662 5.64592675716316 
4.11183350758464 3.28711478288579 1.98531398260956 
4.25053442960802 3.56063524481839 2.17957698700882 
6.07536642161141 3.77493674174452 4.94889432682024 
3.64942233202664 3.06350122366291 3.06427490667438 
4.02722608084833 2.83788703199842 2.36068929504765 
4.11279623462806 3.0046071778625 2.75425297616449 
3.38898451805952 2.90860763271309 2.87971790671924 
6.14038031534747 3.60687715169775 4.74508338541316 
6.55524380118477 3.58737555860549 4.98090717951596 
6.69532017665484 2.74306732439594 5.44582071622006 
6.61897659462693 2.9125770906853 5.73631742054127 
3.03516412869837 2.98734887842278 2.33868753936614 
3.05609241271842 3.04125997215187 2.24688898337574 
6.43342453482705 3.75593967873941 5.14871285257542 
6.49911986529923 3.57993178717302 5.65817936677253 
POLYGONS 29 179
5 1 0 25 39 35 
7 28 29 42 43 33 32 2 
5 21 26 30 3 36 
5 4 5 31 27 6 
5 23 24 7 47 46 
5 11 10 8 9 19 
6 26 27 6 38 40 21 
6 8 10 12 13 44 45 
5 13 2 28 22 12 
6 4 5 15 16 7 24 
5 15 5 31 30 3 
5 0 25 14 46 47 
4 14 41 23 46 
5 1 0 47 7 16 
6 4 6 38 41 23 24 
6 14 25 39 40 38 41 
6 16 15 3 36 35 1 
5 17 18 11 19 20 
5 17 18 22 28 29 
5 17 20 37 42 29 
5 11 18 22 12 10 
6 9 19 20 37 48 49 
5 9 8 45 34 49 
4 13 2 32 44 
5 33 34 49 48 43 
5 35 36 21 40 39 
4 26 27 31 30 
5 33 34 45 44 32 
4 42 43 48 37 
CELL_DATA 29
SCALARS scalar_1 double
LOOKUP_TABLE default
0.0035045149773020065
0.00340358555515067
0.0035045149773020065
0.0035045149773020065
0.0035045149773020065
0.00340358555515067
0.0035045149773020065
0.00340358555515067
0.00340358555515067
0.0035045149773020065
0.0035045149773020065
0.0035045149773020065
0.0035045149773020065
0.0035045149773020065
0.0035045149773020065
0.0035045149773020065
0.0035045149773020065
0.00340358555515067
0.00340358555515067
0.00340358555515067
0.00340358555515067
0.00340358555515067
0.00340358555515067
0.00340358555515067
0.00340358555515067
0.0035045149773020065
0.0035045149773020065
0.00340358555515067
0.00340358555515067
