# vtk DataFile Version 2.0
polydata
ASCII
DATASET POLYDATA
POINTS 50 double
3.61167896712169 2.91579965688496 2.05064483102931 
3.90039650339518 3.30486704467569 1.88896175719893 
6.39357913281268 2.64080629761754 4.94714743688923 
4.00577448622799 4.04178289898863 2.262023816798 
3.16742812179176 3.86964001279723 2.83445154534946 
3.41201387320958 4.15991057980369 2.72998315475134 
3.58425832612938 3.61063600310946 3.21191442789688 
2.97594460041391 3.49596926502295 2.30079905863161 
6.10598303727285 2.94883775409873 5.92165623575924 
6.05651642562236 3.40617964102601 5.87967348961232 
5.77472033950085 2.77116112624686 5.7309946267787 
5.38402669692672 3.09995971819459 5.50599394782337 
5.82350635569812 2.52577687421875 5.29013548038447 
6.34836112232128 2.52149878511811 5.14163105355104 
3.43442237299204 2.72990865271788 2.54263550195197 
3.65010469893285 4.08381466404276 2.14741753271129 
3.52739438496133 3.8495660167442 2.00077448361233 
5.41730981874848 3.31082348799011 4.82809314492064 
5.34085491941729 2.9748515111888 4.93839152137704 
5.50068751051038 3.45983268650749 5.52152314795092 
5.51568234360731 3.60009979376835 5.1641372722775 
4.29745717480468 3.4128887375 2.70686326814229 
5.48302582176982 2.79933426636353 4.86549997374404 
2.96053050847255 3.15991782360174 2.58110874831342 
2.93163225225619 3.51513771961565 2.50589926006108 
3.75009214424447 2.73294665988595 2.30155817494155 
4.142973658 3.74054375149264 2.92825583190035 
3.73904522422798 3.7604303387883 3.18972583684472 
5.84415546036973 2.90902465797465 4.63450986386572 
5.81496314227456 3.29537253594235 4.6006751537016 
4.00248259010137 4.10289158886801 2.68379176737821 
3.64121293531089 4.15710611937116 2.88545140929559 
6.79711629030334 2.9436663499722 5.17737999517419 
6.82647588694486 3.23379264746302 5.20915400857867 
6.73996287877792 3.32984122636851 5.64949722993818 
4.11167179213602 3.28687143435223 1.98887648653755 
4.25036973480486 3.56038626896834 2.18313501518139 
6.07521247116901 3.77470404883467 4.95246819273998 
3.64925902735749 3.06324684661203 3.06784352705315 
4.02706312985097 2.83763543879172 2.36425933615179 
4.11263235010914 3.00435489248625 2.75782149524908 
3.38883612707866 2.90836362023926 2.88329976312698 
6.14022828484716 3.60663804306579 4.74865078772389 
6.55507301407973 3.58713999169446 4.98446590668019 
6.69514618999195 2.74281354427239 5.44936498047793 
6.6187962057702 2.91234014360665 5.73989162431777 
3.03500145720814 2.98711031723131 2.34224901662265 
3.05592618707179 3.04101162426004 2.25046769500663 
6.43325094154389 3.755708103625 5.15227586127608 
6.49894413924005 3.5796999522608 5.66174755568555 
POLYGONS 29 179
5 1 0 25 39 35 
7 28 29 42 43 33 32 2 
5 21 26 30 3 36 
5 4 5 31 27 6 
5 23 24 7 47 46 
5 11 10 8 9 19 
6 26 27 6 38 40 21 
6 8 10 12 13 44 45 
5 13 2 28 22 12 
6 4 5 15 16 7 24 
5 15 5 31 30 3 
5 0 25 14 46 47 
4 14 41 23 46 
5 1 0 47 7 16 
6 4 6 38 41 23 24 
6 14 25 39 40 38 41 
6 16 15 3 36 35 1 
5 17 18 11 19 20 
5 17 18 22 28 29 
5 17 20 37 42 29 
5 11 18 22 12 10 
6 9 19 20 37 48 49 
5 9 8 45 34 49 
4 13 2 32 44 
5 33 34 49 48 43 
5 35 36 21 40 39 
4 26 27 31 30 
5 33 34 45 44 32 
4 42 43 48 37 
CELL_DATA 29
SCALARS scalar_1 double
LOOKUP_TABLE default
0.0034694774246384753
0.0033625650660883562
0.0034694774246384753
0.0034694774246384753
0.0034694774246384753
0.0033625650660883562
0.0034694774246384753
0.0033625650660883562
0.0033625650660883562
0.0034694774246384753
0.0034694774246384753
0.0034694774246384753
0.0034694774246384753
0.0034694774246384753
0.0034694774246384753
0.0034694774246384753
0.0034694774246384753
0.0033625650660883562
0.0033625650660883562
0.0033625650660883562
0.0033625650660883562
0.0033625650660883562
0.0033625650660883562
0.0033625650660883562
0.0033625650660883562
0.0034694774246384753
0.0034694774246384753
0.0033625650660883562
0.0033625650660883562
