# vtk DataFile Version 2.0
polydata
ASCII
DATASET POLYDATA
POINTS 50 double
3.61075865062014 2.91641175643 2.05249379094253 
3.8994837235628 3.30548583806406 1.89080605838606 
6.39265469121083 2.64142111642709 4.94899238476996 
4.00484315557273 4.04239990360353 2.26385751955959 
3.16649546092648 3.87026411480664 2.83629506949853 
3.41107843860497 4.16053144980628 2.73182755198609 
3.58332893792175 3.61126139399659 3.21376261997265 
2.97501087405057 3.49659642399138 2.30265488614268 
6.10505222236064 2.94946057962322 5.92350309389564 
6.0555830663323 3.40681816104558 5.88151561084209 
5.77379401509198 2.77178447119099 5.73284351631838 
5.38309798008712 3.10058298934227 5.50784116339623 
5.82258042185718 2.52639472832436 5.29197323433736 
6.34743834952793 2.5221180396659 5.14346847335715 
3.43350915072561 2.73052154018229 2.54447529451476 
3.64917310368464 4.08443238033102 2.14925099301218 
3.52647248929979 3.85020217293923 2.00262044774294 
5.4163800263947 3.31144319252248 4.82994378145104 
5.33992707979221 2.97547756818019 4.94024390538717 
5.49976337571403 3.46046782183018 5.52337015958212 
5.51475654602751 3.60072862797498 5.16599477263354 
4.29652799761213 3.41349983227063 2.70870687963776 
5.48211203236831 2.79994383480116 4.86734607101073 
2.95959829494792 3.16055080731617 2.58295354077307 
2.93070096646737 3.51576362282092 2.50774498756044 
3.74916945475031 2.73356017534378 2.30340339880654 
4.14204834654043 3.74114696407304 2.93009447063098 
3.73809920621718 3.76103665023186 3.19157757532594 
5.84323735988217 2.90963582067989 4.63635618655877 
5.81404374474103 3.29599107679497 4.60251988682765 
4.00155178177768 4.10350857600065 2.68562028869 
3.64026707687457 4.15772724570617 2.88728890774398 
6.79617002802666 2.94426640444824 5.17921585631929 
6.82553443481819 3.23442205325062 5.21099240524322 
6.73902061255321 3.33047365144781 5.65134542897359 
4.11074432496866 3.28749083706603 1.99071354559124 
4.24943960554538 3.56099974369033 2.18496773992344 
6.07429387035858 3.77533457784291 4.95431929421682 
3.64832986410219 3.06385491501507 3.06968628273415 
4.02613386802132 2.83824633130778 2.36610312697777 
4.11170222633707 3.0049648021675 2.75966436001392 
3.3879229354292 2.90898307950122 2.8851567099934 
6.13931143537725 3.60726280768708 4.75049686920466 
6.55413710497536 3.58776833070458 4.98630306678347 
6.69420580929978 2.74342416660083 5.45118672402584 
6.61784902225193 2.91296692895472 5.74174337472249 
3.0340729592041 2.98773568910288 2.34408358466354 
3.05499393605181 3.04162680372415 2.25232046323811 
6.43231229513301 3.75634011778744 5.15411630354164 
6.49800279251635 3.58033227813971 5.66359326886732 
POLYGONS 29 179
5 1 0 25 39 35 
7 28 29 42 43 33 32 2 
5 21 26 30 3 36 
5 4 5 31 27 6 
5 23 24 7 47 46 
5 11 10 8 9 19 
6 26 27 6 38 40 21 
6 8 10 12 13 44 45 
5 13 2 28 22 12 
6 4 5 15 16 7 24 
5 15 5 31 30 3 
5 0 25 14 46 47 
4 14 41 23 46 
5 1 0 47 7 16 
6 4 6 38 41 23 24 
6 14 25 39 40 38 41 
6 16 15 3 36 35 1 
5 17 18 11 19 20 
5 17 18 22 28 29 
5 17 20 37 42 29 
5 11 18 22 12 10 
6 9 19 20 37 48 49 
5 9 8 45 34 49 
4 13 2 32 44 
5 33 34 49 48 43 
5 35 36 21 40 39 
4 26 27 31 30 
5 33 34 45 44 32 
4 42 43 48 37 
CELL_DATA 29
SCALARS scalar_1 double
LOOKUP_TABLE default
0.003433463367545863
0.0033207186946106935
0.003433463367545863
0.003433463367545863
0.003433463367545863
0.0033207186946106935
0.003433463367545863
0.0033207186946106935
0.0033207186946106935
0.003433463367545863
0.003433463367545863
0.003433463367545863
0.003433463367545863
0.003433463367545863
0.003433463367545863
0.003433463367545863
0.003433463367545863
0.0033207186946106935
0.0033207186946106935
0.0033207186946106935
0.0033207186946106935
0.0033207186946106935
0.0033207186946106935
0.0033207186946106935
0.0033207186946106935
0.003433463367545863
0.003433463367545863
0.0033207186946106935
0.0033207186946106935
