# vtk DataFile Version 2.0
polydata
ASCII
DATASET POLYDATA
POINTS 50 double
3.61083941544876 2.91389666434693 2.05283066471829 
3.89957153422201 3.30297745243914 1.89113768519135 
6.39273367121512 2.63891085455767 4.94932342987538 
4.00491081937479 4.03989120873831 2.26417816649214 
3.16656308210785 3.86776191385629 2.83662571302143 
3.41114236377433 4.1580257798257 2.73215924987611 
3.58339907276434 3.60876126033852 3.21409758822379 
2.97507683172529 3.49409466454143 2.30299714486897 
6.105123299574 2.94695770106914 5.92383471717019 
6.05565137155474 3.40433121965062 5.88184222206947 
5.77387098353547 2.76928250155683 5.73317840225164 
5.38317138550999 3.09808163974456 5.50817422135012 
5.82265742140834 2.52388772423728 5.29229857648338 
6.34751902104162 2.51961228320137 5.14379245990482 
3.43359610349372 2.72800841101343 2.54480354303834 
3.64924181964561 4.08192377106453 2.14957160356938 
3.52655055856624 3.84771020739843 2.00295268995171 
5.41645156804668 3.30893971157382 4.8302797062529 
5.34000047145332 2.97297880295585 4.94058188689259 
5.49984117779769 3.45797744389572 5.52370282504067 
5.51483224552065 3.59823277067591 5.16633603569253 
4.2965987822109 3.41098532483965 2.70903763771016 
5.4821985180476 2.79742958173814 4.86767808376487 
2.95966583908457 3.15805675666392 2.58328462268787 
2.93076930584954 3.51326073732848 2.50807635529511 
3.74924787612109 2.73104752349051 2.30373680065678 
4.14212169150019 3.73862640380952 2.93042087711614 
3.73815376400691 3.75851893248563 3.19191571504881 
5.8433210868907 2.90712305584841 4.63668728351363 
5.81412637114846 3.29348668252218 4.60284889935689 
4.00161982083577 4.101000113147 2.68593731827788 
3.64032144557835 4.15522220216859 2.88761424269156 
6.79622538279132 2.94173928967394 5.17953628343942 
6.82559471027785 3.23192336743735 5.21131509735673 
6.73908038139592 3.32797835088092 5.6516777323722 
4.11081733768627 3.2849834954476 1.99103803130387 
4.24950950165859 3.55848685937128 2.18528764779967 
6.07437550251989 3.77284007204159 4.95465380812614 
3.64840083486518 3.06133875137495 3.07001717341441 
4.026205657907 2.83573157497515 2.36643492806288 
4.11177306192138 3.00245014074842 2.75999506731866 
3.38800930239009 2.90647700880201 2.88550106897029 
6.13939447858212 3.60476232882446 4.75082586359122 
6.55420129581187 3.58527117293099 4.98662324183412 
6.69426738635598 2.74090853876411 5.4514920055989 
6.61790396869391 2.91046811039612 5.74207932642887 
3.03414463016146 2.98523381180025 2.34440543258093 
3.05506184249617 3.03911443185833 2.25266062519778 
6.43237434961892 3.75384652258213 5.15443994691725 
6.49806265499283 3.57783856944333 5.66392312835303 
POLYGONS 29 179
5 1 0 25 39 35 
7 28 29 42 43 33 32 2 
5 21 26 30 3 36 
5 4 5 31 27 6 
5 23 24 7 47 46 
5 11 10 8 9 19 
6 26 27 6 38 40 21 
6 8 10 12 13 44 45 
5 13 2 28 22 12 
6 4 5 15 16 7 24 
5 15 5 31 30 3 
5 0 25 14 46 47 
4 14 41 23 46 
5 1 0 47 7 16 
6 4 6 38 41 23 24 
6 14 25 39 40 38 41 
6 16 15 3 36 35 1 
5 17 18 11 19 20 
5 17 18 22 28 29 
5 17 20 37 42 29 
5 11 18 22 12 10 
6 9 19 20 37 48 49 
5 9 8 45 34 49 
4 13 2 32 44 
5 33 34 49 48 43 
5 35 36 21 40 39 
4 26 27 31 30 
5 33 34 45 44 32 
4 42 43 48 37 
CELL_DATA 29
SCALARS scalar_1 double
LOOKUP_TABLE default
0.0033963710889366294
0.003279716279993409
0.0033963710889366294
0.0033963710889366294
0.0033963710889366294
0.003279716279993409
0.0033963710889366294
0.003279716279993409
0.003279716279993409
0.0033963710889366294
0.0033963710889366294
0.0033963710889366294
0.0033963710889366294
0.0033963710889366294
0.0033963710889366294
0.0033963710889366294
0.0033963710889366294
0.003279716279993409
0.003279716279993409
0.003279716279993409
0.003279716279993409
0.003279716279993409
0.003279716279993409
0.003279716279993409
0.003279716279993409
0.0033963710889366294
0.0033963710889366294
0.003279716279993409
0.003279716279993409
