# vtk DataFile Version 2.0
polydata
ASCII
DATASET POLYDATA
POINTS 50 double
3.6140355585914 2.90964314830342 2.05688974400015 
3.90277511037349 3.29873060351502 1.89519216561755 
6.39592289250466 2.63466155529636 4.95337994323301 
4.00809336743119 4.0356425906359 2.26822128454386 
3.16974393411198 3.86352002086205 2.84067900758516 
3.41432014643022 4.15378073487767 2.73621363803537 
3.58658281859196 3.60452156406168 3.21815570354867 
2.97825823389677 3.48985628912211 2.30706263226878 
6.10830785156861 2.94271744099943 5.92789240000222 
6.05883281905997 3.40010607574116 5.88589495272936 
5.77705874191266 2.76504181318887 5.73723772282565 
5.38635634519965 3.09384091002416 5.5122318427759 
5.82584559526619 2.51964169504912 5.2963484194504 
6.35070991357199 2.51536753787563 5.14784186333626 
3.43679759592124 2.72375581220929 2.54885458851913 
3.65242441680396 4.07767555304103 2.15361424030862 
3.52974379731244 3.8434814217898 2.00700852515557 
5.41963508892649 3.30469495476741 4.83434051455822 
5.34318618083086 2.96874019086696 4.94464467869204 
5.50303043732476 3.45374850578669 5.52775995947871 
5.51801958348214 3.59399742763193 5.17040360382266 
4.29978411917516 3.40673037999124 2.71309096060131 
5.48539780330926 2.79317517773384 4.871735091727 
2.96284882019395 3.15382318776655 2.58733996345488 
2.93395278698902 3.50902114918629 2.51213246353484 
3.75244160287128 2.72679547482477 2.30779252493098 
4.1453101467999 3.73436371585739 2.93446914870247 
3.74131966712925 3.75425911370576 3.19597768662741 
5.84651607338681 2.90287000744952 4.64074450890989 
5.81731988488536 3.28924119400495 4.60690404343673 
4.00480245744092 4.09675146146367 2.6899749643878 
3.64348743506259 4.15097763656915 2.89166125110443 
6.79939328813397 2.9374757413917 5.18358338454037 
6.82876717143147 3.22768795178029 5.21536430639496 
6.74225225537772 3.3237462925106 5.65573647033574 
4.11400582824252 3.28073745646461 1.99508527707726 
4.2526943180669 3.55423406518403 2.1893299082954 
6.07756791127678 3.76860649110303 4.95871529740496 
3.65158542781254 3.05708093120978 3.07406988259252 
4.02939215658853 2.8314767739105 2.37048930622514 
4.11495796683564 2.9981941842481 2.76404761852297 
3.39121054813007 2.90223064547884 2.88956828242218 
6.1425889748436 3.60052224720914 4.75488138837897 
6.55737826334131 3.58103512538034 4.99067063235673 
6.69744125139439 2.73665577595421 5.45552542485873 
6.62107140565993 2.90623160767169 5.74614190919702 
3.03733143980741 2.98099300788493 2.34845106670772 
3.05824517131063 3.03486407531751 2.25672329399751 
6.43554818373272 3.74961465528187 5.15849126856285 
6.50123452364794 3.57360715121126 5.66797953307896 
POLYGONS 29 179
5 1 0 25 39 35 
7 28 29 42 43 33 32 2 
5 21 26 30 3 36 
5 4 5 31 27 6 
5 23 24 7 47 46 
5 11 10 8 9 19 
6 26 27 6 38 40 21 
6 8 10 12 13 44 45 
5 13 2 28 22 12 
6 4 5 15 16 7 24 
5 15 5 31 30 3 
5 0 25 14 46 47 
4 14 41 23 46 
5 1 0 47 7 16 
6 4 6 38 41 23 24 
6 14 25 39 40 38 41 
6 16 15 3 36 35 1 
5 17 18 11 19 20 
5 17 18 22 28 29 
5 17 20 37 42 29 
5 11 18 22 12 10 
6 9 19 20 37 48 49 
5 9 8 45 34 49 
4 13 2 32 44 
5 33 34 49 48 43 
5 35 36 21 40 39 
4 26 27 31 30 
5 33 34 45 44 32 
4 42 43 48 37 
CELL_DATA 29
SCALARS scalar_1 double
LOOKUP_TABLE default
0.0033617905378306653
0.003241205821956862
0.0033617905378306653
0.0033617905378306653
0.0033617905378306653
0.003241205821956862
0.0033617905378306653
0.003241205821956862
0.003241205821956862
0.0033617905378306653
0.0033617905378306653
0.0033617905378306653
0.0033617905378306653
0.0033617905378306653
0.0033617905378306653
0.0033617905378306653
0.0033617905378306653
0.003241205821956862
0.003241205821956862
0.003241205821956862
0.003241205821956862
0.003241205821956862
0.003241205821956862
0.003241205821956862
0.003241205821956862
0.0033617905378306653
0.0033617905378306653
0.003241205821956862
0.003241205821956862
