# vtk DataFile Version 2.0
polydata
ASCII
DATASET POLYDATA
POINTS 50 double
3.61904404887118 2.91253540218306 2.05498796208701 
3.90779025439296 3.30162951301444 1.89328606483326 
6.40093135041639 2.63755468596994 4.95147308559173 
4.01309003502632 4.03854138870333 2.26630626407407 
3.17473873020013 3.86642520138472 2.83877467190939 
3.41931194206889 4.15668275899312 2.73431064781924 
3.59158221366967 3.60742698901381 3.21625659647169 
2.98325155036629 3.4927634819991 2.30516816535986 
6.11330696308229 2.94561717706757 5.92598825953285 
6.0638291720519 3.40302187700537 5.88398632289745 
5.78206470224275 2.76794264710775 5.73533690637198 
5.39135739591229 3.09674220271332 5.51032797246964 
5.83085199426726 2.52253682672033 5.2944358999827 
6.35572005406955 2.51826457733201 5.14592837506216 
3.44181431441157 2.72664784910306 2.54694457605711 
3.65742084191812 4.08057507677965 2.15169909078951 
3.53474903984719 3.84639768387496 2.00510454010384 
5.4246343920324 3.30759387809428 4.8324391137006 
5.34818789158795 2.97164385971926 4.94274461457764 
5.50803517380412 3.45666102729792 5.52585591679408 
5.52302248502183 3.59690463534422 5.16850946974685 
4.30478414018759 3.40962174449968 2.71118586485972 
5.49041325848998 2.79606330314554 4.86982885052009 
2.96784329338237 3.15673750266034 2.58543553854619 
2.93894821506251 3.5119271871748 2.51022904014084 
3.7574486120456 2.72968867417566 2.30588786819601 
4.15031317459851 3.73724828235971 2.93256048394123 
3.74630273323831 3.75714605285346 3.19408210777991 
5.85152861100579 2.90576031527765 4.63883781994477 
5.82233093959566 3.29214010220904 4.60499573491635 
4.0097997439996 4.09964994727149 2.68805687616536 
3.64847023425282 4.15387975929709 2.88975216144993 
6.80437966919223 2.94035396090195 5.18166725365061 
6.83375811351009 3.23059434403479 5.21345062383067 
6.74724215414515 3.32665561916823 5.65383301035492 
4.11900700587988 3.2836371503604 1.99317221122978 
4.25769295469022 3.55712850911669 2.18741314325526 
6.08257690310056 3.7715163675639 4.95681505691693 
3.65658540827084 3.05996937297568 3.07216498024267 
4.03439250646746 2.834367868992 2.36858300877944 
4.11995789093632 3.00108498282987 2.76214163514289 
3.39622677234601 2.90513031654727 2.88767773704431 
6.14760008417941 3.60342481421477 4.75297326267578 
6.56237421831379 3.58394084113738 4.98875566796394 
6.70243352582833 2.73954414337052 5.4535953337381 
6.62605682089605 2.90913596623636 5.74424170236779 
3.04233049587652 2.98389832371709 2.3465346886438 
3.06324038758615 3.03775899645747 2.25482555418153 
6.4405401556103 3.7525255688938 5.15658161341416 
6.5062240249578 3.57651781857501 5.66607388433301 
POLYGONS 29 179
5 1 0 25 39 35 
7 28 29 42 43 33 32 2 
5 21 26 30 3 36 
5 4 5 31 27 6 
5 23 24 7 47 46 
5 11 10 8 9 19 
6 26 27 6 38 40 21 
6 8 10 12 13 44 45 
5 13 2 28 22 12 
6 4 5 15 16 7 24 
5 15 5 31 30 3 
5 0 25 14 46 47 
4 14 41 23 46 
5 1 0 47 7 16 
6 4 6 38 41 23 24 
6 14 25 39 40 38 41 
6 16 15 3 36 35 1 
5 17 18 11 19 20 
5 17 18 22 28 29 
5 17 20 37 42 29 
5 11 18 22 12 10 
6 9 19 20 37 48 49 
5 9 8 45 34 49 
4 13 2 32 44 
5 33 34 49 48 43 
5 35 36 21 40 39 
4 26 27 31 30 
5 33 34 45 44 32 
4 42 43 48 37 
CELL_DATA 29
SCALARS scalar_1 double
LOOKUP_TABLE default
0.0032907959243654093
0.0032382280009184763
0.0032907959243654093
0.0032907959243654093
0.0032907959243654093
0.0032382280009184763
0.0032907959243654093
0.0032382280009184763
0.0032382280009184763
0.0032907959243654093
0.0032907959243654093
0.0032907959243654093
0.0032907959243654093
0.0032907959243654093
0.0032907959243654093
0.0032907959243654093
0.0032907959243654093
0.0032382280009184763
0.0032382280009184763
0.0032382280009184763
0.0032382280009184763
0.0032382280009184763
0.0032382280009184763
0.0032382280009184763
0.0032382280009184763
0.0032907959243654093
0.0032907959243654093
0.0032382280009184763
0.0032382280009184763
