# vtk DataFile Version 2.0
polydata
ASCII
DATASET POLYDATA
POINTS 50 double
3.61660717006117 2.91616858505544 2.02758277946732 
3.90498964074837 3.30487765103094 1.86612210256198 
6.39869080384488 2.64098663290432 4.92430257954256 
4.01108827520187 4.04171773104747 2.23953408794767 
3.17312442736079 3.86933474707841 2.81141908381508 
3.41776700555277 4.15966369881579 2.70690959721317 
3.58960736291792 3.61039601484241 3.18850449230615 
2.98160574144799 3.49556718419911 2.27742713301371 
6.11136631724202 2.94875829142961 5.8984762942932 
6.06200543682695 3.4054273062701 5.85666988805075 
5.77995044203449 2.77106222723495 5.70773248971479 
5.3894797963208 3.09979981148286 5.48287087192561 
5.82874315104862 2.52592012290985 5.26732329290499 
6.35344680682569 2.5216244946403 5.11886122440182 
3.4390415907572 2.7303337451544 2.51978701937712 
3.65557295555233 4.08371831191885 2.12499047898291 
3.53247679428823 3.8487637984415 1.97785507414877 
5.42282297224658 3.31070940289477 4.80503070026993 
5.34630822941069 2.97467478381906 4.91526391192609 
5.50596967924481 3.459180296381 5.49841649833095 
5.52104074637707 3.59962599355216 5.1407396405001 
4.30259111223255 3.41321583168759 2.68382389569716 
5.48803585865754 2.79966455974852 4.84256369481971 
2.96615768721115 3.15932660870562 2.55799841530369 
2.93724068941601 3.51475846099 2.48278160582977 
3.75504067879945 2.73333542764399 2.27852368345499 
4.14797416425627 3.74117217822376 2.90538138653098 
3.74509308932973 3.76097369395936 3.16616497919066 
5.8491142548622 2.90928456961173 4.61165383172651 
5.8199587604573 3.29525198472817 4.57789758989224 
4.00778034762665 4.10281032326599 2.66142436776147 
3.6473233985269 4.15684121256076 2.86260660633173 
6.80276768529984 2.94419690183454 5.15477982439632 
6.83198288197129 3.23342694721479 5.18649027608818 
6.74554471028488 3.32931687250848 5.62634122492716 
4.1167654217235 3.28685211247076 1.96629251092877 
4.25556436827636 3.56057380147514 2.16070779462078 
6.08031282610834 3.77411260659535 4.92931211589504 
3.65457815099264 3.06374978305639 3.04469069841552 
4.03222578113336 2.83809111992953 2.34127512189193 
4.11781933891573 3.00479713046705 2.73480263598517 
3.39349633937713 2.90841490195909 2.85956160311649 
6.14522461700144 3.60641150200523 4.72589612440762 
6.5604210605188 3.58681415244561 4.96186411851842 
6.70068706993588 2.74315325677961 5.42701137886221 
6.62456717066178 2.91215306117509 5.71659165069988 
3.04040682524611 2.9869541693697 2.31970747199243 
3.06147129238847 3.04124018630516 2.22723431181414 
6.43882433626304 3.75507850069571 5.12938708644817 
6.50459622925423 3.5790854637071 5.63868198053935 
POLYGONS 29 179
5 1 0 25 39 35 
7 28 29 42 43 33 32 2 
5 21 26 30 3 36 
5 4 5 31 27 6 
5 23 24 7 47 46 
5 11 10 8 9 19 
6 26 27 6 38 40 21 
6 8 10 12 13 44 45 
5 13 2 28 22 12 
6 4 5 15 16 7 24 
5 15 5 31 30 3 
5 0 25 14 46 47 
4 14 41 23 46 
5 1 0 47 7 16 
6 4 6 38 41 23 24 
6 14 25 39 40 38 41 
6 16 15 3 36 35 1 
5 17 18 11 19 20 
5 17 18 22 28 29 
5 17 20 37 42 29 
5 11 18 22 12 10 
6 9 19 20 37 48 49 
5 9 8 45 34 49 
4 13 2 32 44 
5 33 34 49 48 43 
5 35 36 21 40 39 
4 26 27 31 30 
5 33 34 45 44 32 
4 42 43 48 37 
CELL_DATA 29
SCALARS scalar_1 double
LOOKUP_TABLE default
0.010633134842082073
0.0015655491815918952
0.010633134842082073
0.010633134842082073
0.010633134842082073
0.0015655491815918952
0.010633134842082073
0.0015655491815918952
0.0015655491815918952
0.010633134842082073
0.010633134842082073
0.010633134842082073
0.010633134842082073
0.010633134842082073
0.010633134842082073
0.010633134842082073
0.010633134842082073
0.0015655491815918952
0.0015655491815918952
0.0015655491815918952
0.0015655491815918952
0.0015655491815918952
0.0015655491815918952
0.0015655491815918952
0.0015655491815918952
0.010633134842082073
0.010633134842082073
0.0015655491815918952
0.0015655491815918952
