# vtk DataFile Version 2.0
polydata
ASCII
DATASET POLYDATA
POINTS 50 double
3.61727470995021 2.91407071436378 2.05450109801999 
3.90602755915794 3.30317100266593 1.89279477222896 
6.39915435243901 2.63909222695294 4.95098386708502 
4.01130776644924 4.04008144395388 2.26580453439284 
3.17295478926053 3.86797065573487 2.83828209220598 
3.41752460809293 4.1582254578358 2.73381916642315 
3.58980096699927 3.60897461653767 3.21576852249723 
2.98146818973484 3.49431164339169 2.3046872756949 
6.11152441293668 2.94716318792942 5.92549922235259 
6.06204395063666 3.40458246810801 5.88349274620141 
5.78028563960738 2.7694889242062 5.73484962114769 
5.38957583444327 3.09828905085818 5.50983901022284 
5.82907318163506 2.52407826571152 5.29393967810849 
6.35394442861191 2.51980676792762 5.14543182082922 
3.44004939084945 2.72818442291024 2.54645012883779 
3.65563813136124 4.08211518575218 2.15119680655932 
3.53297639969818 3.84795557358041 2.00461448008056 
5.42285180439493 3.30913732040112 4.83195369635807 
5.34640720685211 2.97319316548726 4.94226098785101 
5.50625767983642 3.45821835662427 5.525366653572 
5.52124336783497 3.59845618566205 5.16802979954785 
4.30300490825911 3.41115586076872 2.7106932503931 
5.48864566481342 2.79759709213364 4.86933960325395 
2.96606184003677 3.15829044329374 2.58494434560115 
2.93716695026253 3.51347407660836 2.50973858171279 
3.75567691926972 2.73122574162218 2.30539754350585 
4.14853658543348 3.73877540190374 2.93206328670096 
3.74450505714768 3.7586754699929 3.19359762784141 
5.84975780498767 2.90729508905535 4.63834864968179 
5.82055914413943 3.29368287683874 4.60450439592299 
4.00801752440458 4.10118997902705 2.68754972346341 
3.64667210221759 4.15542321847247 2.8892539194095 
6.80258158009084 2.94187653789174 5.18116906523576 
6.83196467984018 3.2321442010195 5.21295448501813 
6.74544824515777 3.3282085064034 5.65334513136361 
4.1172306911484 3.28517944140066 1.9926743124875 
4.25591317475498 3.55866447854476 2.18691052504956 
6.08080227232207 3.77306932329589 4.95632998560744 
3.65480529453812 3.06150127278148 3.07167197648767 
4.03261445914056 2.8359024707805 2.36809146882548 
4.11817842937568 3.00261849438805 2.76164831099678 
3.39446153702386 2.90667228038307 2.88719739357198 
6.14582761956663 3.60497104024236 4.75248178528235 
6.56058519242787 3.58549079302972 4.98825711395735 
6.70064115933843 2.74107786814813 5.45308313981378 
6.62425845386453 2.91068513110055 5.7437572171735 
3.04055246032207 2.98544526735909 2.34603542822737 
3.06145903639562 3.03929698716628 2.25434222484938 
6.43874800600738 3.75407981336515 5.15608717735409 
6.50442968738559 3.57807229841604 5.66558386538406 
POLYGONS 29 179
5 1 0 25 39 35 
7 28 29 42 43 33 32 2 
5 21 26 30 3 36 
5 4 5 31 27 6 
5 23 24 7 47 46 
5 11 10 8 9 19 
6 26 27 6 38 40 21 
6 8 10 12 13 44 45 
5 13 2 28 22 12 
6 4 5 15 16 7 24 
5 15 5 31 30 3 
5 0 25 14 46 47 
4 14 41 23 46 
5 1 0 47 7 16 
6 4 6 38 41 23 24 
6 14 25 39 40 38 41 
6 16 15 3 36 35 1 
5 17 18 11 19 20 
5 17 18 22 28 29 
5 17 20 37 42 29 
5 11 18 22 12 10 
6 9 19 20 37 48 49 
5 9 8 45 34 49 
4 13 2 32 44 
5 33 34 49 48 43 
5 35 36 21 40 39 
4 26 27 31 30 
5 33 34 45 44 32 
4 42 43 48 37 
CELL_DATA 29
SCALARS scalar_1 double
LOOKUP_TABLE default
0.0032617472905962447
0.003196670065351397
0.0032617472905962447
0.0032617472905962447
0.0032617472905962447
0.003196670065351397
0.0032617472905962447
0.003196670065351397
0.003196670065351397
0.0032617472905962447
0.0032617472905962447
0.0032617472905962447
0.0032617472905962447
0.0032617472905962447
0.0032617472905962447
0.0032617472905962447
0.0032617472905962447
0.003196670065351397
0.003196670065351397
0.003196670065351397
0.003196670065351397
0.003196670065351397
0.003196670065351397
0.003196670065351397
0.003196670065351397
0.0032617472905962447
0.0032617472905962447
0.003196670065351397
0.003196670065351397
