# vtk DataFile Version 2.0
polydata
ASCII
DATASET POLYDATA
POINTS 50 double
3.62317535680428 2.91342359562831 2.05312362977024 
3.91193424305649 3.30252967385511 1.89141337279156 
6.4050543479689 2.63845067563561 4.94960343103329 
4.01719556036515 4.0394402214303 2.26441392131106 
3.17884348987558 3.86733638763989 2.8369005821768 
3.42340908411313 4.15758713732102 2.73243898849678 
3.59569189156576 3.60834244997745 3.21439064508532 
2.98735538949229 3.49367818713927 2.30331540218912 
6.11741636815517 2.94652787628367 5.924119645889 
6.06793294703563 3.40396169210734 5.88210913229908 
5.78618339534842 2.76885421146233 5.73347275714577 
5.3954698580962 3.09765434171555 5.50846034619993 
5.83497146256621 2.52343897415689 5.29255274437767 
6.35984630158691 2.51916961506339 5.14404378749646 
3.44595697534883 2.72753866213001 2.54506295830662 
3.66152649983796 4.08147418481841 2.14980604213286 
3.53887341603707 3.84733032464047 2.00323441353526 
5.4287441548822 3.30850040752285 4.83057796303005 
5.35230193774625 2.97256120931858 4.94088663605926 
5.51215519300867 3.4575941992074 5.52398804257605 
5.52713900893679 3.59782700766657 5.1666604269037 
4.30889560340912 3.41050906697422 2.70931129564385 
5.49455329117272 2.79695060859265 4.86795946019003 
2.97195027753408 3.15766429188371 2.5835625057786 
2.94305625273404 3.51283950934149 2.50835758764477 
3.76157503005651 2.73058095740924 2.30401599065306 
4.15442942851998 3.73812279583091 2.93067774576937 
3.7503799580635 3.75802532842042 3.19222319947714 
5.855661946548 2.90665075633619 4.63696837224445 
5.82646167823015 3.29304601489635 4.60312265991761 
4.01390548126904 4.10054879946711 2.68615571533369 
3.65254720366127 4.15478529727 2.88786754307627 
6.80845823649509 2.94121859124953 5.17977885926439 
6.83784592868342 3.23151411693394 5.21156697661583 
6.75132896033475 3.32758073105836 5.65196698297428 
4.12312329398146 3.28453909589372 1.99128621695322 
4.26180309350566 3.55801966809773 2.18551903355006 
6.0867027583617 3.77244251644519 4.95495501267104 
3.66069717660782 3.06085246738294 3.07028912506379 
4.03850640263404 2.83525589136798 2.36670861929971 
4.12406959228108 3.00197190405902 2.76026564192997 
3.40036855337042 2.90603368984761 2.88582778916582 
6.15173005790782 3.60433827647467 4.75110055046567 
6.5664704550446 3.58486145132327 4.98686802269207 
6.70652436062587 2.74043116439725 5.45167718982492 
6.63013505641092 2.91005454615058 5.74238175813069 
3.04644527147843 2.98481063779329 2.34464267353133 
3.06734811299057 3.03865207047827 2.25296769252311 
6.4446304729169 3.75345410416022 5.15470227450529 
6.51031013487964 3.57744587182315 5.66420389426735 
POLYGONS 29 179
5 1 0 25 39 35 
7 28 29 42 43 33 32 2 
5 21 26 30 3 36 
5 4 5 31 27 6 
5 23 24 7 47 46 
5 11 10 8 9 19 
6 26 27 6 38 40 21 
6 8 10 12 13 44 45 
5 13 2 28 22 12 
6 4 5 15 16 7 24 
5 15 5 31 30 3 
5 0 25 14 46 47 
4 14 41 23 46 
5 1 0 47 7 16 
6 4 6 38 41 23 24 
6 14 25 39 40 38 41 
6 16 15 3 36 35 1 
5 17 18 11 19 20 
5 17 18 22 28 29 
5 17 20 37 42 29 
5 11 18 22 12 10 
6 9 19 20 37 48 49 
5 9 8 45 34 49 
4 13 2 32 44 
5 33 34 49 48 43 
5 35 36 21 40 39 
4 26 27 31 30 
5 33 34 45 44 32 
4 42 43 48 37 
CELL_DATA 29
SCALARS scalar_1 double
LOOKUP_TABLE default
0.0032284884290361055
0.003152395608513698
0.0032284884290361055
0.0032284884290361055
0.0032284884290361055
0.003152395608513698
0.0032284884290361055
0.003152395608513698
0.003152395608513698
0.0032284884290361055
0.0032284884290361055
0.0032284884290361055
0.0032284884290361055
0.0032284884290361055
0.0032284884290361055
0.0032284884290361055
0.0032284884290361055
0.003152395608513698
0.003152395608513698
0.003152395608513698
0.003152395608513698
0.003152395608513698
0.003152395608513698
0.003152395608513698
0.003152395608513698
0.0032284884290361055
0.0032284884290361055
0.003152395608513698
0.003152395608513698
