# vtk DataFile Version 2.0
polydata
ASCII
DATASET POLYDATA
POINTS 50 double
3.62490048383415 2.91144475795609 2.05216686639667 
3.91366626588596 3.30055744302217 1.89045260161656 
6.40677715051282 2.63647540573425 4.94864309050215 
4.0189086304907 4.03746560665495 2.26344371026101 
3.18055558194845 3.86536667896126 2.83593855420473 
3.42511846468284 4.15561460875585 2.73147826793818 
3.59740697602009 3.60637394877805 3.21343314243242 
2.98906702297678 3.49171149137457 2.30236473505834 
6.11913351657322 2.94456170444497 5.92315986558828 
6.06964727166915 3.40200969123795 5.88114449689884 
5.7879050229397 2.76688804173096 5.73251564744432 
5.39718840699062 3.09568765987724 5.50750141828564 
5.83669326219975 2.52146718013363 5.2915861100006 
6.3615710233107 2.51719917746762 5.14307619543778 
3.44768793036124 2.72555975360423 2.54409917602764 
3.66324041030239 4.07949993085128 2.14883566718457 
3.54059668906384 3.84537317369812 2.00227518657617 
5.43046061752215 3.30652940559265 4.82962249921106 
5.35402083896523 2.9705964575551 4.93993318978389 
5.51387749571733 3.45563833502552 5.5230284274245 
5.52885927212011 3.59586490507872 5.16571122494726 
4.31061128188849 3.40852865137845 2.70835026440651 
5.49628563548822 2.79497021043954 4.86700016122658 
2.97366322328691 3.15570304632734 2.58260108956176 
2.94476998258325 3.51087140333841 2.50739709225273 
3.76329848831405 2.72860275628885 2.30305693401048 
4.15614791328972 3.73613516940469 2.92971233323948 
3.75208012559396 3.7560399699253 3.19126896577311 
5.85738957207141 2.90467167103025 4.63600888652287 
5.82818787683351 3.29107427395668 4.60216098842108 
4.01561871180862 4.09857358992156 2.68518149124273 
3.65424736263639 4.15281303966986 2.88690095593616 
6.81016003087731 2.9392292638182 5.1788085602465 
6.83955235107734 3.22955252404444 5.21059848639852 
6.75303511167355 3.32562261551437 5.65100727857573 
4.12484173476315 3.28256757421202 1.99031890964957 
4.26351813752385 3.55604181824803 2.18454743147928 
6.08842813357871 3.77048228927566 4.95399929285816 
3.66241303090773 3.05886872398277 3.06932687402308 
4.04022312454644 2.83327526985031 2.36574832895151 
4.12578488262987 2.99999023438952 2.75930380009853 
3.40209917057804 2.90406008115102 2.88487822067124 
6.15345719570898 3.6023713143154 4.75013851602309 
6.56818195999758 3.58289825582772 4.9858982411609 
6.70823230817573 2.73845290480802 5.45069319379047 
6.63183689289148 2.90809217029334 5.74142604025369 
3.04816152945463 2.98284339751375 2.34367321552388 
3.06906114170586 3.03667591160956 2.25201426449954 
6.44633875934463 3.75149551277006 5.15373670928825 
6.51201659540834 3.57548827282695 5.66324188660354 
POLYGONS 29 179
5 1 0 25 39 35 
7 28 29 42 43 33 32 2 
5 21 26 30 3 36 
5 4 5 31 27 6 
5 23 24 7 47 46 
5 11 10 8 9 19 
6 26 27 6 38 40 21 
6 8 10 12 13 44 45 
5 13 2 28 22 12 
6 4 5 15 16 7 24 
5 15 5 31 30 3 
5 0 25 14 46 47 
4 14 41 23 46 
5 1 0 47 7 16 
6 4 6 38 41 23 24 
6 14 25 39 40 38 41 
6 16 15 3 36 35 1 
5 17 18 11 19 20 
5 17 18 22 28 29 
5 17 20 37 42 29 
5 11 18 22 12 10 
6 9 19 20 37 48 49 
5 9 8 45 34 49 
4 13 2 32 44 
5 33 34 49 48 43 
5 35 36 21 40 39 
4 26 27 31 30 
5 33 34 45 44 32 
4 42 43 48 37 
CELL_DATA 29
SCALARS scalar_1 double
LOOKUP_TABLE default
0.0032010464162723073
0.0031103146876834287
0.0032010464162723073
0.0032010464162723073
0.0032010464162723073
0.0031103146876834287
0.0032010464162723073
0.0031103146876834287
0.0031103146876834287
0.0032010464162723073
0.0032010464162723073
0.0032010464162723073
0.0032010464162723073
0.0032010464162723073
0.0032010464162723073
0.0032010464162723073
0.0032010464162723073
0.0031103146876834287
0.0031103146876834287
0.0031103146876834287
0.0031103146876834287
0.0031103146876834287
0.0031103146876834287
0.0031103146876834287
0.0031103146876834287
0.0032010464162723073
0.0032010464162723073
0.0031103146876834287
0.0031103146876834287
