# vtk DataFile Version 2.0
polydata
ASCII
DATASET POLYDATA
POINTS 50 double
3.63202327585295 2.91008770549058 2.05371034309354 
3.9207958258474 3.29920632126077 1.89199073879661 
6.4138953649473 2.63511820526338 4.95018132108481 
4.02602081979507 4.03611359026116 2.26497074268755 
3.18766675098311 3.86402150905244 2.83747672763954 
3.43222683561301 4.15426671818965 2.73301696317588 
3.60452113964536 3.6050308595793 3.2149749716352 
2.99617740969598 3.49036886847118 2.30391453190587 
6.126244131468 2.94321091636405 5.9246990012077 
6.07675562834059 3.40067361200352 5.88267928233696 
5.79502005120336 2.76553799762716 5.73405639188975 
5.40430146910599 3.0943381141638 5.50904046764274 
5.84380899763483 2.52011277015093 5.29311782498142 
6.36869024480601 2.51584573476845 5.14460793928961 
3.45481678428618 2.7242047795018 2.54563412975225 
3.67035221846488 4.0781484151296 2.15036280442464 
3.5477175185518 3.84403874803668 2.00381456400396 
5.43757346285884 3.30517822722075 4.83116478437923 
5.36113496615761 2.96924983365673 4.94147691443562 
5.52099498521258 3.45429955006095 5.52456755468663 
5.53597553845558 3.59452090592893 5.16725911307573 
4.31772598622908 3.40717136714195 2.70988645155226 
5.50341195752053 2.79360919016547 4.86853845714005 
2.98077555241517 3.15436567442961 2.58414128607174 
2.95188275481564 3.50952787288437 2.50893798569624 
3.77041888171236 2.72724811689111 2.30459607624466 
4.16326641545126 3.73477068282755 2.93124393347395 
3.75917803156812 3.75467841720929 3.19281410033444 
5.86451398558004 2.90331219601118 4.6375470669544 
5.83531139442386 3.28972217342632 4.6036977557702 
4.02273180614884 4.09722194493294 2.68670348900542 
3.66134505491808 4.15146560157111 2.88843241828756 
6.81725681575339 2.9378569044207 5.18033866642948 
6.84665355815479 3.22820664234435 5.2121310881872 
6.76013515022554 3.32427930158018 5.65254853390697 
4.13195725695772 3.28121719063334 1.99184983754732 
4.27063143106248 3.55468615904991 2.18607382251423 
6.09555088664547 3.76913959387456 4.95554211932719 
3.66952754314552 3.05750934364759 3.07086361627403 
4.0473375043541 2.83191817543571 2.36728565344139 
4.13289891172739 2.99863234497502 2.76083969779739 
3.4092284569124 2.90271115361229 2.8864285026003 
6.16058169731755 3.60102365385445 4.7516768160551 
6.57528738895689 3.58155362615266 4.98742855332879 
6.7153341470808 2.73709054438193 5.45220973711939 
6.63893227671967 2.90674479434197 5.74297024301246 
3.05527719278113 2.98149881726096 2.34520402195478 
3.07617321724765 3.03532181163064 2.25356174640289 
6.45344201131358 3.75015367698927 5.15526976778805 
6.51911687074339 3.57414596046692 5.66478077183035 
POLYGONS 29 179
5 1 0 25 39 35 
7 28 29 42 43 33 32 2 
5 21 26 30 3 36 
5 4 5 31 27 6 
5 23 24 7 47 46 
5 11 10 8 9 19 
6 26 27 6 38 40 21 
6 8 10 12 13 44 45 
5 13 2 28 22 12 
6 4 5 15 16 7 24 
5 15 5 31 30 3 
5 0 25 14 46 47 
4 14 41 23 46 
5 1 0 47 7 16 
6 4 6 38 41 23 24 
6 14 25 39 40 38 41 
6 16 15 3 36 35 1 
5 17 18 11 19 20 
5 17 18 22 28 29 
5 17 20 37 42 29 
5 11 18 22 12 10 
6 9 19 20 37 48 49 
5 9 8 45 34 49 
4 13 2 32 44 
5 33 34 49 48 43 
5 35 36 21 40 39 
4 26 27 31 30 
5 33 34 45 44 32 
4 42 43 48 37 
CELL_DATA 29
SCALARS scalar_1 double
LOOKUP_TABLE default
0.003169501943257591
0.003069058287951344
0.003169501943257591
0.003169501943257591
0.003169501943257591
0.003069058287951344
0.003169501943257591
0.003069058287951344
0.003069058287951344
0.003169501943257591
0.003169501943257591
0.003169501943257591
0.003169501943257591
0.003169501943257591
0.003169501943257591
0.003169501943257591
0.003169501943257591
0.003069058287951344
0.003069058287951344
0.003069058287951344
0.003069058287951344
0.003069058287951344
0.003069058287951344
0.003069058287951344
0.003069058287951344
0.003169501943257591
0.003169501943257591
0.003069058287951344
0.003069058287951344
