# vtk DataFile Version 2.0
polydata
ASCII
DATASET POLYDATA
POINTS 50 double
3.63822889034441 2.91446424145345 2.05908142655975 
3.92700893718739 3.30359065733512 1.89735710270048 
6.42009798470508 2.63950309764225 4.95554699818843 
4.03221516619234 4.04049712143305 2.27032752352369 
3.19385817671373 3.8684100889666 2.84284281866357 
3.43841579206633 4.15865306156449 2.73838426811336 
3.61071588439425 3.60942070916387 3.2203465087364 
3.00236872806749 3.49475885346709 2.30929061049254 
6.13244123544706 2.94760379424927 5.93006717616206 
6.08295013508814 3.40508093357462 5.88804288665097 
5.80122139835409 2.76993121060947 5.73942750008671 
5.41049913650579 3.09873144508124 5.5144099888114 
5.85000988909526 2.52450062761796 5.29847944165505 
6.37489453259364 2.52023455560751 5.14996782892129 
3.4610277707272 2.72858187067388 2.55099783431168 
3.67654668579997 4.08253203114365 2.1557189103845 
3.5539211505107 3.84843840813155 2.00918161513589 
5.44376868056989 3.30956866391868 4.83653550620447 
5.36733218116661 2.97364443716509 4.94684973736087 
5.52719654285232 3.45870355144139 5.52993634643193 
5.54217477677231 3.59891966363457 5.17263590321381 
4.32392316143842 3.41154922965392 2.71525381242596 
5.50962085048691 2.79799010273334 4.87390605745747 
2.98696810878286 3.15876071448253 2.58950783043282 
2.95807584745715 3.51391676294594 2.51430486341546 
3.77662256969557 2.73162597283707 2.30996481674427 
4.16946608157736 3.73914178791314 2.93660682358383 
3.76535805243665 3.75905175277953 3.198188884242 
5.87072058463297 2.90769441532728 4.64291333638368 
5.84151689188452 3.294112067562 4.60906185330684 
4.02892606419072 4.10160558295377 2.69205686104106 
3.66752476014624 4.1558525273115 2.89379400871521 
6.82344032584226 2.94222814247926 5.18569495641121 
6.85284154198289 3.23260288896777 5.21748914056509 
6.76632285720983 3.32867915981653 5.65791628634329 
4.13815707671692 3.28560245573204 1.99720993439539 
4.27682806035372 3.55906616717565 2.19142994632162 
6.10175524541109 3.77354008751524 4.96091218626667 
3.6757234608421 3.0618835611067 3.07623062795238 
4.05353567676209 2.83629439527397 2.37265352215473 
4.13909555651973 3.0030083552765 2.7662066414301 
3.41543845789153 2.90709454214421 2.89180738169362 
6.1667876822534 3.60541727814289 4.75704018799864 
6.581479033649 3.5859503491884 4.99278471056995 
6.7215230297879 2.74147144428104 5.45755371102673 
6.64511552786701 2.91114093399418 5.74834159141584 
3.06147389743241 2.98588664726765 2.35056148472528 
3.08236674546973 3.03970060306011 2.2589352939762 
6.45963069977497 3.7545552301305 5.16063054690706 
6.52530416787729 3.57854769181501 5.67014648382225 
POLYGONS 29 179
5 1 0 25 39 35 
7 28 29 42 43 33 32 2 
5 21 26 30 3 36 
5 4 5 31 27 6 
5 23 24 7 47 46 
5 11 10 8 9 19 
6 26 27 6 38 40 21 
6 8 10 12 13 44 45 
5 13 2 28 22 12 
6 4 5 15 16 7 24 
5 15 5 31 30 3 
5 0 25 14 46 47 
4 14 41 23 46 
5 1 0 47 7 16 
6 4 6 38 41 23 24 
6 14 25 39 40 38 41 
6 16 15 3 36 35 1 
5 17 18 11 19 20 
5 17 18 22 28 29 
5 17 20 37 42 29 
5 11 18 22 12 10 
6 9 19 20 37 48 49 
5 9 8 45 34 49 
4 13 2 32 44 
5 33 34 49 48 43 
5 35 36 21 40 39 
4 26 27 31 30 
5 33 34 45 44 32 
4 42 43 48 37 
CELL_DATA 29
SCALARS scalar_1 double
LOOKUP_TABLE default
0.003102165260829662
0.003067458936585765
0.003102165260829662
0.003102165260829662
0.003102165260829662
0.003067458936585765
0.003102165260829662
0.003067458936585765
0.003067458936585765
0.003102165260829662
0.003102165260829662
0.003102165260829662
0.003102165260829662
0.003102165260829662
0.003102165260829662
0.003102165260829662
0.003102165260829662
0.003067458936585765
0.003067458936585765
0.003067458936585765
0.003067458936585765
0.003067458936585765
0.003067458936585765
0.003067458936585765
0.003067458936585765
0.003102165260829662
0.003102165260829662
0.003067458936585765
0.003067458936585765
