# vtk DataFile Version 2.0
polydata
ASCII
DATASET POLYDATA
POINTS 50 double
3.6409139975052 2.91331537928466 2.06381042744804 
3.92969947728733 3.30244742129338 1.90208251550238 
6.42278018275968 2.63835743276201 4.96027237761031 
4.03488854807652 4.03935248009735 2.27504504922237 
3.19653219132814 3.86726981391961 2.84756830788522 
3.44108640806585 4.15750975695763 2.74311106377691 
3.6133925443442 3.60828154097243 3.22507534757467 
3.00504129402699 3.49362067750441 2.31402627093046 
6.13511534260801 2.94646562545934 5.93479263787052 
6.0856216092318 3.40395614384163 5.89276419154621 
5.80390120332713 2.76879358730019 5.74415574652078 
5.41317587479442 3.09759319054051 5.51913639453101 
5.85269035360936 2.52335782140505 5.3031977036406 
6.37757842499137 2.51909361777779 5.15468554114374 
3.46371935501557 2.72743293247304 2.5557198973738 
3.67922072175835 4.08138760126144 2.16043675688454 
3.55660332734857 3.84730901778862 2.01390926633821 
5.44644382206664 3.30842711713707 4.84126522447616 
5.37000978651648 2.97250847749745 4.95158084992439 
5.52987639757463 3.45757514316723 5.53466247758805 
5.54485297578694 3.5977859050147 5.17737170437615 
4.32659986353858 3.41039888920857 2.7199785722734 
5.51231152854021 2.79683927148801 4.878631481522 
2.98964220643186 3.15762868929052 2.59423302758111 
2.96075065883047 3.51277717166356 2.51903111534511 
3.77930641296894 2.73047795312047 2.314691100109 
4.17214503350937 3.73798531655221 2.94132829227344 
3.76802070002492 3.75789701120206 3.20292073959975 
5.87340791217377 2.90654525618425 4.64763872849746 
5.84420280795117 3.29297036984122 4.61378539998275 
4.03159995002826 4.10046021327669 2.6967707536649 
3.6701869983793 4.15470953488398 2.89851513881599 
6.82610058194146 2.94106768663089 5.19041126604529 
6.85550631595275 3.23146977388094 5.22220759319202 
6.76898695304169 3.32754875603113 5.66264264086988 
4.14083535847967 3.28445994982333 2.00192914980546 
4.27950356667716 3.55791835099211 2.19614558741677 
6.10443879728655 3.77240863458757 4.96564244743333 
3.67840097243914 3.06073043358707 3.08095483656069 
4.05621336460062 2.83514432580109 2.37737831762186 
4.14177252125463 3.00185747032204 2.77093057366322 
3.41812990101581 2.90595092557387 2.8965437477724 
6.16947327344746 3.6042792698232 4.76176383881643 
6.58414919797364 3.5848158769662 4.99750170006225 
6.72418934536072 2.74032225098692 5.46225525525389 
6.64777548967981 2.91000699080334 5.75307112404608 
3.06415107129725 2.98474873095449 2.35527864005072 
3.08504060783739 3.03855391695024 2.26366820804952 
6.46229753745843 3.75342505358431 5.16535172158366 
6.52796858118292 3.57741792362851 5.6748706897401 
POLYGONS 29 179
5 1 0 25 39 35 
7 28 29 42 43 33 32 2 
5 21 26 30 3 36 
5 4 5 31 27 6 
5 23 24 7 47 46 
5 11 10 8 9 19 
6 26 27 6 38 40 21 
6 8 10 12 13 44 45 
5 13 2 28 22 12 
6 4 5 15 16 7 24 
5 15 5 31 30 3 
5 0 25 14 46 47 
4 14 41 23 46 
5 1 0 47 7 16 
6 4 6 38 41 23 24 
6 14 25 39 40 38 41 
6 16 15 3 36 35 1 
5 17 18 11 19 20 
5 17 18 22 28 29 
5 17 20 37 42 29 
5 11 18 22 12 10 
6 9 19 20 37 48 49 
5 9 8 45 34 49 
4 13 2 32 44 
5 33 34 49 48 43 
5 35 36 21 40 39 
4 26 27 31 30 
5 33 34 45 44 32 
4 42 43 48 37 
CELL_DATA 29
SCALARS scalar_1 double
LOOKUP_TABLE default
0.0030788316625823043
0.0030202514012771585
0.0030788316625823043
0.0030788316625823043
0.0030788316625823043
0.0030202514012771585
0.0030788316625823043
0.0030202514012771585
0.0030202514012771585
0.0030788316625823043
0.0030788316625823043
0.0030788316625823043
0.0030788316625823043
0.0030788316625823043
0.0030788316625823043
0.0030788316625823043
0.0030788316625823043
0.0030202514012771585
0.0030202514012771585
0.0030202514012771585
0.0030202514012771585
0.0030202514012771585
0.0030202514012771585
0.0030202514012771585
0.0030202514012771585
0.0030788316625823043
0.0030788316625823043
0.0030202514012771585
0.0030202514012771585
