# vtk DataFile Version 2.0
polydata
ASCII
DATASET POLYDATA
POINTS 50 double
3.64318202875189 2.91598205952321 2.06645039413284 
3.93197392776467 3.30511949547805 1.90471814516167 
6.42504406802141 2.64102462338552 4.96290948255855 
4.03714495331766 4.04202409655603 2.2776702319652 
3.19878779799794 3.86994834039184 2.85020333077583 
3.44333900102711 4.16018528899691 2.74574694169963 
3.61564975248848 3.61096247695239 3.22771365873158 
3.00729664182249 3.49630097940003 2.3166711488579 
6.13737480421608 2.94913897213244 5.93743051473387 
6.08787877615108 3.4066430468472 5.8953981421775 
5.80616381517786 2.77146724957225 5.74679502710627 
5.41543585292111 3.10026796807926 5.52177409215839 
5.85495316830176 2.5260277281339 5.30582914102179 
6.37984363558537 2.52176440942933 5.15731649065152 
3.4659915349181 2.73010200722106 2.55835116888168 
3.68147748866577 4.08405959474362 2.16306153822406 
3.5588689192955 3.84999714402275 2.01654539407673 
5.44870294198579 3.31109989021643 4.84390605099845 
5.37227029428488 2.97518599179871 4.95422307074005 
5.53214050908154 3.46025982903198 5.53730018624411 
5.54711559903285 3.60046564627989 5.18001791060148 
4.32885808927452 3.4130655423849 2.72261259095384 
5.51458325781419 2.79950351511622 4.88126859606692 
2.99189890775826 3.16031423089576 2.59686921063928 
2.96300785506611 3.51545660071534 2.52166789787241 
3.78157137450689 2.73314746680068 2.31732661469346 
4.17440594945548 3.74064602761186 2.94395825467906 
3.77026263772434 3.7605605610342 3.20556234966815 
5.87567599350736 2.90921075588417 4.65027618091473 
5.84646993615732 3.29564231828031 4.6164216096147 
4.03385644038482 4.10313227139421 2.69939193409432 
3.67242930379521 4.1573854909456 2.90114442737032 
6.82834547602937 2.9437212095221 5.19304026491194 
6.85775517823209 3.23414675353474 5.22483881007814 
6.77123542748028 3.33022806178399 5.66528211028868 
4.14309582309828 3.28713283518886 2.00455817704962 
4.28176142926924 3.56058640763168 2.19877066048116 
6.10670554750713 3.77508923281584 4.96828382342779 
3.68065871860888 3.06339577057288 3.08358856086114 
4.05847233234432 2.83781159389425 2.38001260119356 
4.14403050873395 3.00452420444148 2.7735640266149 
3.42040178630868 2.90862600056306 2.89918984221638 
6.17174142198171 3.60695530225675 4.76440089458894 
6.58640092747561 3.58749461261882 5.00013110918515 
6.72643938707962 2.74298493880607 5.4648718139382 
6.65002009346222 2.91268349875279 5.75571325004899 
3.06641156652667 2.98742701733183 2.35790550534282 
3.08729785133468 3.04122319738944 2.26631090938726 
6.4645474426924 3.75610642818792 5.167984014468 
6.53021672676321 3.58009864838187 5.6775084827318 
POLYGONS 29 179
5 1 0 25 39 35 
7 28 29 42 43 33 32 2 
5 21 26 30 3 36 
5 4 5 31 27 6 
5 23 24 7 47 46 
5 11 10 8 9 19 
6 26 27 6 38 40 21 
6 8 10 12 13 44 45 
5 13 2 28 22 12 
6 4 5 15 16 7 24 
5 15 5 31 30 3 
5 0 25 14 46 47 
4 14 41 23 46 
5 1 0 47 7 16 
6 4 6 38 41 23 24 
6 14 25 39 40 38 41 
6 16 15 3 36 35 1 
5 17 18 11 19 20 
5 17 18 22 28 29 
5 17 20 37 42 29 
5 11 18 22 12 10 
6 9 19 20 37 48 49 
5 9 8 45 34 49 
4 13 2 32 44 
5 33 34 49 48 43 
5 35 36 21 40 39 
4 26 27 31 30 
5 33 34 45 44 32 
4 42 43 48 37 
CELL_DATA 29
SCALARS scalar_1 double
LOOKUP_TABLE default
0.0030511120344285957
0.0029819246486762815
0.0030511120344285957
0.0030511120344285957
0.0030511120344285957
0.0029819246486762815
0.0030511120344285957
0.0029819246486762815
0.0029819246486762815
0.0030511120344285957
0.0030511120344285957
0.0030511120344285957
0.0030511120344285957
0.0030511120344285957
0.0030511120344285957
0.0030511120344285957
0.0030511120344285957
0.0029819246486762815
0.0029819246486762815
0.0029819246486762815
0.0029819246486762815
0.0029819246486762815
0.0029819246486762815
0.0029819246486762815
0.0029819246486762815
0.0030511120344285957
0.0030511120344285957
0.0029819246486762815
0.0029819246486762815
