# vtk DataFile Version 2.0
polydata
ASCII
DATASET POLYDATA
POINTS 50 double
3.64433864449312 2.9135130223077 2.06871309363872 
3.93313660475018 3.30265604550299 1.90697715906498 
6.4261961141871 2.63855986212305 4.96517047784358 
4.03829116493415 4.03955951328457 2.27992077694462 
3.19993385837642 3.86748992902265 2.85246136494165 
3.44448169515869 4.15772339899157 2.74800617002309 
3.61679775777364 3.60850557638195 3.22997549766168 
3.00844152483435 3.49384428319182 2.31893948564926 
6.13851999744476 2.94668123493267 5.93969203255888 
6.08902151185782 3.40419870532488 5.89765568615007 
5.80731328371842 2.7690099119015 5.74905847584456 
5.4165830696638 3.09781044392069 5.52403608252302 
5.85610322762911 2.52356581448682 5.30808348366312 
6.38099716969778 2.51930392940432 5.15957042764964 
3.46715437669897 2.72763364510318 2.56060574023683 
3.68262366304099 4.08159543354718 2.16531180084438 
3.5600233418212 3.847548317571 2.01880591011801 
5.44984928547394 3.30863931438791 4.8461713884031 
5.37341861246831 2.97273094133285 4.95648989580381 
5.53329131528717 3.45781232661949 5.53956210578273 
5.54826499774631 3.59801282850249 5.1822892270527 
4.33000640011675 3.41059577860978 2.72487113305235 
5.51574414382536 2.79703391595383 4.88353000765051 
2.99304512803319 3.15786308744062 2.5991274554172 
2.96415489582664 3.51299869526853 2.52392686273001 
3.78272597695121 2.73067968719623 2.3195862423883 
4.1755567946719 3.73817010570729 2.9462128361407 
3.77139595504688 3.75808705894981 3.20782745319104 
5.87683380541532 2.90674266754755 4.6525376490602 
5.84762648259871 3.2931812552349 4.61868140781927 
4.03500275655758 4.10066753381349 2.70163817232098 
3.67356292519966 4.15492392859369 2.90339788043605 
6.8294764289655 2.9412419350703 5.19529254951516 
6.85889061006881 3.2316949030076 5.22709340195457 
6.77237042294489 3.32777847987822 5.6675446601857 
4.14424615322883 3.28467001397485 2.00681121542139 
4.28290921621301 3.55811863652695 2.20102021918145 
6.1078606586309 3.77263840277816 4.97054984753337 
3.6818073568424 3.06092360598558 3.08584581632195 
4.0596212712836 2.83534174063719 2.38227114543985 
4.14517843455999 3.00205370751008 2.77582184295891 
3.42156434900593 2.90616345410054 2.90145914679632 
6.17289848763305 3.60449870798746 4.76666140536959 
6.58754148645937 3.5850415954661 5.00238437435713 
6.72757613661546 2.74051622011858 5.46711034704598 
6.65115088423758 2.91022941805137 5.75797885073133 
3.06756109446284 2.98496939093509 2.36015519962838 
3.0884440780639 3.03875654575222 2.26857668354401 
6.46568521109804 3.75365694225892 5.17024076110626 
6.53135226455801 3.57764927438231 5.67976907040258 
POLYGONS 29 179
5 1 0 25 39 35 
7 28 29 42 43 33 32 2 
5 21 26 30 3 36 
5 4 5 31 27 6 
5 23 24 7 47 46 
5 11 10 8 9 19 
6 26 27 6 38 40 21 
6 8 10 12 13 44 45 
5 13 2 28 22 12 
6 4 5 15 16 7 24 
5 15 5 31 30 3 
5 0 25 14 46 47 
4 14 41 23 46 
5 1 0 47 7 16 
6 4 6 38 41 23 24 
6 14 25 39 40 38 41 
6 16 15 3 36 35 1 
5 17 18 11 19 20 
5 17 18 22 28 29 
5 17 20 37 42 29 
5 11 18 22 12 10 
6 9 19 20 37 48 49 
5 9 8 45 34 49 
4 13 2 32 44 
5 33 34 49 48 43 
5 35 36 21 40 39 
4 26 27 31 30 
5 33 34 45 44 32 
4 42 43 48 37 
CELL_DATA 29
SCALARS scalar_1 double
LOOKUP_TABLE default
0.003025146081238191
0.0029366848489580477
0.003025146081238191
0.003025146081238191
0.003025146081238191
0.0029366848489580477
0.003025146081238191
0.0029366848489580477
0.0029366848489580477
0.003025146081238191
0.003025146081238191
0.003025146081238191
0.003025146081238191
0.003025146081238191
0.003025146081238191
0.003025146081238191
0.003025146081238191
0.0029366848489580477
0.0029366848489580477
0.0029366848489580477
0.0029366848489580477
0.0029366848489580477
0.0029366848489580477
0.0029366848489580477
0.0029366848489580477
0.003025146081238191
0.003025146081238191
0.0029366848489580477
0.0029366848489580477
