# vtk DataFile Version 2.0
polydata
ASCII
DATASET POLYDATA
POINTS 50 double
3.64537120225929 2.91352112295156 2.0724144874151 
3.93417488215281 3.3026695673716 1.91067482911174 
6.427227160444 2.63857085559639 4.96886689104213 
4.0393104106373 4.0395711243592 2.28360898038528 
3.20095279898719 3.86750595538058 2.85615776109354 
3.44549800035179 4.15773680635429 2.75170362397582 
3.61782037870966 3.6085231835815 3.23367627527304 
3.00946081030791 3.49386366051735 2.32264661890775 
6.13954532332495 2.94670093345997 5.94338866051629 
6.09004368439843 3.40423111655569 5.90134750203878 
5.80834334288614 2.76902922317833 5.75275794938936 
5.41760986207527 3.09782875620222 5.52773386232792 
5.85713360135899 2.5235797224324 5.31177435309922 
6.38203007008889 2.51931947896014 5.16326023323848 
3.46819251950353 2.72764152418756 2.56430159874646 
3.68364403264473 4.08160722989656 2.16900017917919 
3.5610527418687 3.84757645305674 2.02250508101969 
5.45087362966603 3.30865386360263 4.84987190529762 
5.37444546958195 2.97275060448191 4.96019239596492 
5.53432110962318 3.45784027781986 5.54325899604352 
5.549292633007 3.59803521302148 5.18599489659546 
4.33102917728681 3.41060137860904 2.72856778288049 
5.51678316031719 2.79703969163402 4.88722727405035 
2.99406570123286 3.15788771170631 2.60282546621269 
2.96517596807228 3.51301692493712 2.52762576091875 
3.78375741947106 2.73068824046432 2.32328591549868 
4.17658199413291 3.73816919861529 2.9499056023599 
3.77240384574451 3.75808821323709 3.21153122139274 
5.87786885073988 2.9067498288125 4.65623440692492 
5.8486599537599 3.29319549317658 4.62237592863189 
4.03602248571237 4.10067857647954 2.70532247936013 
3.67457048124497 4.15493765751711 2.90708962473756 
6.83048752119359 2.94124002033953 5.19897952583247 
6.859905689948 3.23171775623957 5.23078185098642 
6.77338489706345 3.32780497158626 5.67124144411782 
4.1452715600547 3.28468434402455 2.01050258189918 
4.28393098756343 3.55812645581386 2.20470688871311 
6.10889239932649 3.77266284131681 4.97424944970138 
3.68283090922857 3.06092662562732 3.08954217629913 
4.06064557529388 2.8353478585394 2.38596921584408 
4.1462015367529 3.00205886448028 2.77951794889186 
3.42260235268943 2.90617626993927 2.90516825709781 
6.17393188571486 3.60451694690518 4.77035515417312 
6.58856042107118 3.58506360795962 5.00607105648752 
6.72859300208211 2.74052477746599 5.47078431755903 
6.65216175920863 2.91025316199134 5.761679455636 
3.06858480521842 2.98498826176681 2.36384556212796 
3.08946481657904 3.03876730269845 2.27228153660342 
6.46670117768207 3.75368307950614 5.17393126885701 
6.53236665153223 3.5776764582535 5.68346346173333 
POLYGONS 29 179
5 1 0 25 39 35 
7 28 29 42 43 33 32 2 
5 21 26 30 3 36 
5 4 5 31 27 6 
5 23 24 7 47 46 
5 11 10 8 9 19 
6 26 27 6 38 40 21 
6 8 10 12 13 44 45 
5 13 2 28 22 12 
6 4 5 15 16 7 24 
5 15 5 31 30 3 
5 0 25 14 46 47 
4 14 41 23 46 
5 1 0 47 7 16 
6 4 6 38 41 23 24 
6 14 25 39 40 38 41 
6 16 15 3 36 35 1 
5 17 18 11 19 20 
5 17 18 22 28 29 
5 17 20 37 42 29 
5 11 18 22 12 10 
6 9 19 20 37 48 49 
5 9 8 45 34 49 
4 13 2 32 44 
5 33 34 49 48 43 
5 35 36 21 40 39 
4 26 27 31 30 
5 33 34 45 44 32 
4 42 43 48 37 
CELL_DATA 29
SCALARS scalar_1 double
LOOKUP_TABLE default
0.003006112550252521
0.0028942023160891586
0.003006112550252521
0.003006112550252521
0.003006112550252521
0.0028942023160891586
0.003006112550252521
0.0028942023160891586
0.0028942023160891586
0.003006112550252521
0.003006112550252521
0.003006112550252521
0.003006112550252521
0.003006112550252521
0.003006112550252521
0.003006112550252521
0.003006112550252521
0.0028942023160891586
0.0028942023160891586
0.0028942023160891586
0.0028942023160891586
0.0028942023160891586
0.0028942023160891586
0.0028942023160891586
0.0028942023160891586
0.003006112550252521
0.003006112550252521
0.0028942023160891586
0.0028942023160891586
