# vtk DataFile Version 2.0
polydata
ASCII
DATASET POLYDATA
POINTS 50 double
3.6463005669605 2.91334394064758 2.07485470825608 
3.93511073667332 3.30249839885964 1.9131100056047 
6.42815163992694 2.63839853958816 4.97130271173046 
4.04022974825052 4.03939888154233 2.28603375993104 
3.20187170817576 3.86734017590728 2.85859258879244 
3.44641388212228 4.15756821684615 2.75413886375547 
3.61874159245762 3.60835976563598 3.23611435065733 
3.01037882036208 3.49369980972246 2.32509266467492 
6.14046299731135 2.94653582129563 5.94582479287702 
6.09095911981901 3.40407926914514 5.9037794300154 
5.80926469613033 2.76886445026174 5.75519535663705 
5.41852980636809 3.09766404938423 5.53016998109417 
5.85805574020655 2.52341061102791 5.31420339359938 
6.38295561416227 2.51915124595071 5.16568940277795 
3.46912762188868 2.72746626090528 2.56673373235899 
3.68456293978678 4.08143525951496 2.17142503491012 
3.56198029558633 3.84742059022173 2.02494147402464 
5.45179313039898 3.30848660981034 4.85231091610382 
5.37536643387222 2.97258842815909 4.96263302120127 
5.53524505423199 3.45768544599944 5.54569501939309 
5.55021532169414 3.59787522114675 5.18843895390315 
4.3319510455518 3.41042456184743 2.73100090245845 
5.51771592940602 2.79686356204128 4.88966281114508 
2.99498571048948 3.1577284820582 2.60526227029566 
2.96609630974162 3.51285214288831 2.53006297622128 
3.78468456519475 2.73051328210701 2.32572212603675 
4.17750719950662 3.73798579769264 2.95233422044924 
3.77330978446139 3.75790757985369 3.21397233810357 
5.87879931326762 2.90657486804646 4.65866996867159 
5.84958955424251 3.29302724221347 4.62480971087362 
4.03694259684838 4.10050674977876 2.70774198707304 
3.67547609413984 4.1547696804326 2.90951793608153 
6.83139199850221 2.94105371909886 5.20140752889605 
6.86081443642244 3.23155646105699 5.23321197441017 
6.77429245451957 3.32764642902471 5.67367967217924 
4.14619444943988 3.28451388455527 2.01293110604965 
4.2848515888154 3.55795092461841 2.20713110249299 
6.10982097759329 3.77250404837508 4.97668860131106 
3.68375260633053 3.06074763864715 3.09197584184474 
4.0615673325382 2.83517076424895 2.38840385756821 
4.14712277703966 3.00188111052636 2.78195102181455 
3.42353779620399 2.90600679181727 2.90761452431338 
6.17486225052827 3.60435302634164 4.77278994017929 
6.58947345146725 3.58490288710388 5.00849874230324 
6.72950225952711 2.7403483729611 5.47319919891056 
6.65306486979166 2.91009115561323 5.76412053878584 
3.06950784706326 2.98482244879414 2.36627392084838 
3.09038452288937 3.03859265650303 2.27472536447605 
6.46761193857204 3.75352537499476 5.17636154444395 
6.53327456296244 3.57751873542436 5.68589923785956 
POLYGONS 29 179
5 1 0 25 39 35 
7 28 29 42 43 33 32 2 
5 21 26 30 3 36 
5 4 5 31 27 6 
5 23 24 7 47 46 
5 11 10 8 9 19 
6 26 27 6 38 40 21 
6 8 10 12 13 44 45 
5 13 2 28 22 12 
6 4 5 15 16 7 24 
5 15 5 31 30 3 
5 0 25 14 46 47 
4 14 41 23 46 
5 1 0 47 7 16 
6 4 6 38 41 23 24 
6 14 25 39 40 38 41 
6 16 15 3 36 35 1 
5 17 18 11 19 20 
5 17 18 22 28 29 
5 17 20 37 42 29 
5 11 18 22 12 10 
6 9 19 20 37 48 49 
5 9 8 45 34 49 
4 13 2 32 44 
5 33 34 49 48 43 
5 35 36 21 40 39 
4 26 27 31 30 
5 33 34 45 44 32 
4 42 43 48 37 
CELL_DATA 29
SCALARS scalar_1 double
LOOKUP_TABLE default
0.0029787497643852866
0.0028516360124571354
0.0029787497643852866
0.0029787497643852866
0.0029787497643852866
0.0028516360124571354
0.0029787497643852866
0.0028516360124571354
0.0028516360124571354
0.0029787497643852866
0.0029787497643852866
0.0029787497643852866
0.0029787497643852866
0.0029787497643852866
0.0029787497643852866
0.0029787497643852866
0.0029787497643852866
0.0028516360124571354
0.0028516360124571354
0.0028516360124571354
0.0028516360124571354
0.0028516360124571354
0.0028516360124571354
0.0028516360124571354
0.0028516360124571354
0.0029787497643852866
0.0029787497643852866
0.0028516360124571354
0.0028516360124571354
