# vtk DataFile Version 2.0
polydata
ASCII
DATASET POLYDATA
POINTS 50 double
3.61943599496649 2.91613248706765 2.02377536893287 
3.90785227646874 3.30488836341573 1.86229177971847 
6.40149915468727 2.64097334130543 4.92046807806754 
4.01393003368738 4.04176945802226 2.23570406229806 
3.17584207960368 3.86939572947597 2.80766182759757 
3.42050419928915 4.1597424151169 2.70315293847687 
3.59241241143329 3.61041293098957 3.18482761800265 
2.9843446168062 3.49563498955684 2.27365325580006 
6.1141625139694 2.94873988978175 5.89474720877061 
6.06479799204508 3.40546339808579 5.85293503996226 
5.78274269332099 2.77104590748166 5.70400313133555 
5.3922302050379 3.0998045898807 5.47911440700743 
5.83152865565138 2.52588180146788 5.26355555061595 
6.35624449060576 2.52157594875525 5.11508754350728 
3.44190381910168 2.73026625884606 2.51600566713776 
3.65835765680749 4.08377683404408 2.12114066651162 
3.5352824666224 3.84886027060804 1.97403543298117 
5.42557029972081 3.31073540272138 4.80121451846677 
5.34905088711019 2.97465582526889 4.91144905414601 
5.50873089088278 3.45922335352022 5.49465778746645 
5.52379742356275 3.59967629411008 5.13696428976943 
4.30546174342555 3.41320158259354 2.68007237894815 
5.49077236724667 2.79965587291878 4.83875295125237 
2.9688898430545 3.15938905491438 2.55425953833488 
2.93997120897598 3.51483310141424 2.47903555857574 
3.75788884964275 2.73327249872964 2.27474799226914 
4.15085587936583 3.7411373465045 2.90162527661326 
3.74784952671119 3.76093753270444 3.16249872911493 
5.85191018792747 2.90928175376116 4.60781795994765 
5.82275742315671 3.29528747185346 4.57405745994838 
4.01062370630374 4.10286894141969 2.6576048251058 
3.65005888266091 4.15692108412531 2.85885008427772 
6.80565546964379 2.94424712712232 5.15097569104658 
6.8348640214599 3.23344999464605 5.18268085230722 
6.74840711412187 3.3293584450593 5.62259179195939 
4.11962435150118 3.28686344933943 1.96245645949841 
4.2584243046005 3.56058204842346 2.15686860330224 
6.08309283075006 3.77418137731797 4.92552535011653 
3.65738416347932 3.06370656523758 3.0409852363714 
4.03507728129946 2.83803266863241 2.33749878265366 
4.12067488736147 3.00475193229953 2.73105174346456 
3.39634757409501 2.90840255337079 2.85589882301714 
6.14801751683817 3.60643090182649 4.72204470225005 
6.56330055655106 3.58682514317309 4.95805478245249 
6.70354073538647 2.74313644586425 5.42329566815861 
6.62741867147156 2.91212505175566 5.71285067612173 
3.04317103127708 2.98695176683027 2.31588420268068 
3.06422953816744 3.04122052507019 2.2234444993131 
6.44166177724236 3.75514515897629 5.12562852450969 
6.50743347512339 3.57914581404764 5.63492798033353 
POLYGONS 29 179
5 1 0 25 39 35 
7 28 29 42 43 33 32 2 
5 21 26 30 3 36 
5 4 5 31 27 6 
5 23 24 7 47 46 
5 11 10 8 9 19 
6 26 27 6 38 40 21 
6 8 10 12 13 44 45 
5 13 2 28 22 12 
6 4 5 15 16 7 24 
5 15 5 31 30 3 
5 0 25 14 46 47 
4 14 41 23 46 
5 1 0 47 7 16 
6 4 6 38 41 23 24 
6 14 25 39 40 38 41 
6 16 15 3 36 35 1 
5 17 18 11 19 20 
5 17 18 22 28 29 
5 17 20 37 42 29 
5 11 18 22 12 10 
6 9 19 20 37 48 49 
5 9 8 45 34 49 
4 13 2 32 44 
5 33 34 49 48 43 
5 35 36 21 40 39 
4 26 27 31 30 
5 33 34 45 44 32 
4 42 43 48 37 
CELL_DATA 29
SCALARS scalar_1 double
LOOKUP_TABLE default
0.008557907569366884
0.0006352000422154705
0.008557907569366884
0.008557907569366884
0.008557907569366884
0.0006352000422154705
0.008557907569366884
0.0006352000422154705
0.0006352000422154705
0.008557907569366884
0.008557907569366884
0.008557907569366884
0.008557907569366884
0.008557907569366884
0.008557907569366884
0.008557907569366884
0.008557907569366884
0.0006352000422154705
0.0006352000422154705
0.0006352000422154705
0.0006352000422154705
0.0006352000422154705
0.0006352000422154705
0.0006352000422154705
0.0006352000422154705
0.008557907569366884
0.008557907569366884
0.0006352000422154705
0.0006352000422154705
