# vtk DataFile Version 2.0
polydata
ASCII
DATASET POLYDATA
POINTS 50 double
3.64439036682373 2.90849544539419 2.07653362343317 
3.93320733308436 3.29765640767034 1.9147852067891 
6.42623998517536 2.63355247441612 4.97297640112944 
4.03831051792137 4.03455587628691 2.28770105606155 
3.19994963985327 3.86250220983285 2.86026781800554 
3.44449002991794 4.15272800531663 2.75581533191747 
3.61682345870946 3.60352178011149 3.23779498891122 
3.00845624206456 3.4888642499126 2.3267769533984 
6.13854580769018 2.94169599541127 5.94750191950524 
6.08903968881108 3.39925317490425 5.90545255646689 
5.807351925088 2.76402522478605 5.75687521238123 
5.41661378918056 3.09282457468452 5.53184829733525 
5.8561426455361 2.51856638793884 5.31587333977719 
6.38104550521441 2.51430829885797 5.1673579385588 
3.46722380880008 2.72261749795128 2.56840519141794 
3.68264365849465 4.07659286012353 2.17309180578501 
3.56006893845974 3.84259298518616 2.02661794850746 
5.44987526684531 3.30364490858256 4.85399093214299 
5.37345034156878 2.96775054341634 4.96431457214123 
5.53333274043607 3.45285644575134 5.54737292481566 
5.54830109984259 3.59304126317692 5.19012538855792 
4.33003382668397 3.4055758543031 2.73267769960588 
5.51581090085883 2.79201287162079 4.89133923649976 
2.99306377042927 3.1528983156446 2.60693750475665 
2.9641753954118 3.50801552781077 2.53173912804739 
3.78277265757763 2.72566536115612 2.32739882437781 
4.17559291385426 3.73313032957319 2.95400718508203 
3.77137823000577 3.75305421936477 3.21565604724338 
5.87689194058724 2.90172592199281 4.66034533675764 
5.84768096641166 3.28818509303161 4.62648381408785 
4.03502348554875 4.095663509522 2.70940651778088 
3.67354464331321 4.14992954881372 2.91118963501871 
6.82946279166163 2.93619550025344 5.20307311058644 
6.85888925423212 3.22672238267028 5.2348795901328 
6.77236698909813 3.32281513584715 5.67535640274792 
4.14427885846576 3.27967248461274 2.0146004843627 
4.28293369213069 3.55310494582079 2.20879738257337 
6.10791295162149 3.76767216370983 4.97836873873798 
3.68183490087646 3.05589543745337 3.09365155530952 
4.05965021588422 2.83032103474184 2.39007969081878 
4.14520474154885 2.9970308715497 2.78362688711846 
3.42163336920904 2.90116395524553 2.9093015629773 
6.17295559361811 3.59951558328935 4.77446452162218 
6.5875523960444 3.58006817173476 5.01016576901427 
6.72757805629394 2.73549834070754 5.47485393839559 
6.65113531624988 2.90525473214962 5.7658005268144 
3.06758974191014 2.97998517476504 2.36793964333235 
3.08846332392181 3.03374662190967 2.27640687081198 
6.46568823791946 3.7486945732519 5.17803252661688 
6.53134934179393 3.57268803634059 5.68757417981883 
POLYGONS 29 179
5 1 0 25 39 35 
7 28 29 42 43 33 32 2 
5 21 26 30 3 36 
5 4 5 31 27 6 
5 23 24 7 47 46 
5 11 10 8 9 19 
6 26 27 6 38 40 21 
6 8 10 12 13 44 45 
5 13 2 28 22 12 
6 4 5 15 16 7 24 
5 15 5 31 30 3 
5 0 25 14 46 47 
4 14 41 23 46 
5 1 0 47 7 16 
6 4 6 38 41 23 24 
6 14 25 39 40 38 41 
6 16 15 3 36 35 1 
5 17 18 11 19 20 
5 17 18 22 28 29 
5 17 20 37 42 29 
5 11 18 22 12 10 
6 9 19 20 37 48 49 
5 9 8 45 34 49 
4 13 2 32 44 
5 33 34 49 48 43 
5 35 36 21 40 39 
4 26 27 31 30 
5 33 34 45 44 32 
4 42 43 48 37 
CELL_DATA 29
SCALARS scalar_1 double
LOOKUP_TABLE default
0.002918952103714631
0.002847821017271208
0.002918952103714631
0.002918952103714631
0.002918952103714631
0.002847821017271208
0.002918952103714631
0.002847821017271208
0.002847821017271208
0.002918952103714631
0.002918952103714631
0.002918952103714631
0.002918952103714631
0.002918952103714631
0.002918952103714631
0.002918952103714631
0.002918952103714631
0.002847821017271208
0.002847821017271208
0.002847821017271208
0.002847821017271208
0.002847821017271208
0.002847821017271208
0.002847821017271208
0.002847821017271208
0.002918952103714631
0.002918952103714631
0.002847821017271208
0.002847821017271208
