# vtk DataFile Version 2.0
polydata
ASCII
DATASET POLYDATA
POINTS 50 double
3.64561958285306 2.9064383374779 2.07941961073861 
3.93444209360294 3.29560536583591 1.91766662068944 
6.42746708180172 2.63150205881317 4.97586070650811 
4.03952796614433 4.0325051382705 2.29057371754086 
3.20116558211173 3.86045655536793 2.86315032022146 
3.44570245720878 4.15067958465842 2.75869870300729 
3.6180432690271 3.60147778127758 3.24068193562811 
3.00967163125249 3.48681955371018 2.32966879141785 
6.13976457165498 2.93965236417551 5.95038685165449 
6.09025557840463 3.39722304904846 5.9083333343168 
5.80857550521479 2.76198176972065 5.75976216818023 
5.4178336146865 3.09078155566793 5.53473271908624 
5.85736711613514 2.51651846127003 5.31875233707122 
6.38227377321358 2.51226169156216 5.17023647490958 
3.46845904904413 2.72056106907701 2.5712851771718 
3.68386022234827 4.07454207002117 2.17596419677774 
3.56129390622601 3.84055701290474 2.02950078066815 
5.45109401952881 3.30159981673839 4.85687727308491 
5.37467111871601 2.96570921903777 4.96720251131848 
5.53455567003336 3.45082302842878 5.55025712766907 
5.54952252753243 3.59100330167437 5.19301714842781 
4.3312552460209 3.40351929521204 2.73555937801187 
5.51704311964201 2.78995862711541 4.89422248284878 
2.99428090406445 3.15085918775748 2.60982120403042 
2.96539268877162 3.50596995323386 2.53462309162427 
3.78400077131576 2.72360959614508 2.33028257769756 
4.17681633589964 3.73106815515954 2.95688523158936 
3.77258312979777 3.75099390741996 3.21854595893747 
5.87812269313074 2.89967317770965 4.66322811667902 
5.84891052455953 3.28614011802421 4.62936436709618 
4.03624135485917 4.09361290641488 2.71227570129539 
3.67474855485423 4.14788184588936 2.91406726212176 
6.83067030163904 2.93413172734632 5.20594921791446 
6.86010071279809 3.22468251342772 5.23775742202301 
6.7735772637482 3.32077824734096 5.67824247788697 
4.14550187839278 3.27762244186579 2.01747595622302 
4.28415387388319 3.55105010439341 2.21166890360667 
6.10913833130026 3.7656363415361 4.9812558916141 
3.68305600102882 3.0538366429187 3.09653431686884 
4.06087267120551 2.82826368627974 2.39296190752986 
4.14642649739369 2.99497374375013 2.78650849299061 
3.42286821325218 2.89911402693629 2.91219663074567 
6.17418328220163 3.59747275060643 4.77734445250258 
6.58876742495405 3.57802867163075 5.01304089443697 
6.72879041402916 2.73344413302894 5.47771760439251 
6.65234170697879 2.90321465577674 5.76868952002841 
3.06881052259206 2.97793883897614 2.37081431157138 
3.0896808832211 3.03169174173677 2.27929655412653 
6.46689961819707 3.74665985658586 5.18091232093336 
6.5325584970712 3.57065327975252 5.69045802096194 
POLYGONS 29 179
5 1 0 25 39 35 
7 28 29 42 43 33 32 2 
5 21 26 30 3 36 
5 4 5 31 27 6 
5 23 24 7 47 46 
5 11 10 8 9 19 
6 26 27 6 38 40 21 
6 8 10 12 13 44 45 
5 13 2 28 22 12 
6 4 5 15 16 7 24 
5 15 5 31 30 3 
5 0 25 14 46 47 
4 14 41 23 46 
5 1 0 47 7 16 
6 4 6 38 41 23 24 
6 14 25 39 40 38 41 
6 16 15 3 36 35 1 
5 17 18 11 19 20 
5 17 18 22 28 29 
5 17 20 37 42 29 
5 11 18 22 12 10 
6 9 19 20 37 48 49 
5 9 8 45 34 49 
4 13 2 32 44 
5 33 34 49 48 43 
5 35 36 21 40 39 
4 26 27 31 30 
5 33 34 45 44 32 
4 42 43 48 37 
CELL_DATA 29
SCALARS scalar_1 double
LOOKUP_TABLE default
0.0028591260128165196
0.0028463434072730593
0.0028591260128165196
0.0028591260128165196
0.0028591260128165196
0.0028463434072730593
0.0028591260128165196
0.0028463434072730593
0.0028463434072730593
0.0028591260128165196
0.0028591260128165196
0.0028591260128165196
0.0028591260128165196
0.0028591260128165196
0.0028591260128165196
0.0028591260128165196
0.0028591260128165196
0.0028463434072730593
0.0028463434072730593
0.0028463434072730593
0.0028463434072730593
0.0028463434072730593
0.0028463434072730593
0.0028463434072730593
0.0028463434072730593
0.0028591260128165196
0.0028591260128165196
0.0028463434072730593
0.0028463434072730593
