# vtk DataFile Version 2.0
polydata
ASCII
DATASET POLYDATA
POINTS 50 double
3.64468652709876 2.9116909587597 2.08007607425553 
3.93351468018051 3.30086297605902 1.91831967416992 
6.42653184605492 2.63675391348785 4.97651360138006 
4.03858431948082 4.03776230795003 2.29121879540388 
3.20022246022237 3.86571939109463 2.8638034771063 
3.44475572268882 4.15593908860863 2.75935320780528 
3.61710111126956 3.60674192319584 3.24133750375954 
3.00872686290676 3.49208317806085 2.3303303797837 
6.13882432762492 2.94490951202608 5.95104033458678 
6.08931343221533 3.40249315807928 5.90898357847171 
5.8076395892528 2.76724009225797 5.76041781443515 
5.41689470092726 3.09604107772701 5.53538679674665 
5.85643106949349 2.52177306250549 5.31939922092353 
6.38134003795627 2.51751730460436 5.17088265632031 
3.46753020662412 2.7258153915353 2.57193326300519 
3.68291731735367 4.07979957877106 2.17660908886513 
3.56035861993076 3.84582845983865 2.0301549790726 
5.45015378969334 3.30685714488758 4.85753497835457 
5.37373259217309 2.9709718803688 4.96786112117739 
5.53362032220472 3.45609136168926 5.55091143655237 
5.54858572064881 3.59626712084839 5.19368048334832 
4.33031347447825 3.40877145661945 2.73621130573442 
5.51611604369088 2.79520776743109 4.89487566185912 
2.9933373079056 3.15612875284237 2.61047320365025 
2.9644498716067 3.51123237309611 2.53527595772623 
3.78306499145039 2.7288645847012 2.33093484357196 
4.17587648557924 3.73631554206296 2.95753439793995 
3.77162800506728 3.75624337700479 3.21920450273153 
5.87719143349623 2.90492354418425 4.66388177373687 
5.84797841575539 3.29139692390891 4.63001704341145 
4.03529774630316 4.09886989599338 2.71291804764139 
3.67379361866481 4.15314160820379 2.91471632933554 
6.82971644852666 2.93936994481061 5.20659420624883 
6.85915092109009 3.22994414727565 5.23840471956192 
6.772627354457 3.32604165947587 5.67889722349236 
4.14456192252246 3.28288071278515 2.01812307762135 
4.2832117113699 3.55630417834035 2.21231311037109 
6.10820522488485 3.77090130763123 4.98191454215355 
3.68211430779639 3.05908768986611 3.09718554177492 
4.05993163851465 2.83351675349794 2.39361314542322 
4.14548477983683 3.00022625930605 2.7871595407396 
3.42193894681203 2.90437368578509 2.91285843571163 
6.17325160543486 3.60273258108763 4.77799758022857 
6.58782148241063 3.58329084297366 5.01368728483288 
6.72784189792283 2.73869160797636 5.47834978775762 
6.6513880683804 2.90847511831186 5.7693464826082 
3.06787032063026 2.98320218938287 2.37145815331502 
3.08873755856392 3.03694648644812 2.27995572969998 
6.46595129006887 3.7519253288291 5.18156245263464 
6.53160841869092 3.5759180276505 5.69111154159847 
POLYGONS 29 179
5 1 0 25 39 35 
7 28 29 42 43 33 32 2 
5 21 26 30 3 36 
5 4 5 31 27 6 
5 23 24 7 47 46 
5 11 10 8 9 19 
6 26 27 6 38 40 21 
6 8 10 12 13 44 45 
5 13 2 28 22 12 
6 4 5 15 16 7 24 
5 15 5 31 30 3 
5 0 25 14 46 47 
4 14 41 23 46 
5 1 0 47 7 16 
6 4 6 38 41 23 24 
6 14 25 39 40 38 41 
6 16 15 3 36 35 1 
5 17 18 11 19 20 
5 17 18 22 28 29 
5 17 20 37 42 29 
5 11 18 22 12 10 
6 9 19 20 37 48 49 
5 9 8 45 34 49 
4 13 2 32 44 
5 33 34 49 48 43 
5 35 36 21 40 39 
4 26 27 31 30 
5 33 34 45 44 32 
4 42 43 48 37 
CELL_DATA 29
SCALARS scalar_1 double
LOOKUP_TABLE default
0.002836369373557142
0.0028031350663955167
0.002836369373557142
0.002836369373557142
0.002836369373557142
0.0028031350663955167
0.002836369373557142
0.0028031350663955167
0.0028031350663955167
0.002836369373557142
0.002836369373557142
0.002836369373557142
0.002836369373557142
0.002836369373557142
0.002836369373557142
0.002836369373557142
0.002836369373557142
0.0028031350663955167
0.0028031350663955167
0.0028031350663955167
0.0028031350663955167
0.0028031350663955167
0.0028031350663955167
0.0028031350663955167
0.0028031350663955167
0.002836369373557142
0.002836369373557142
0.0028031350663955167
0.0028031350663955167
