# vtk DataFile Version 2.0
polydata
ASCII
DATASET POLYDATA
POINTS 50 double
3.64654596561186 2.91289213308854 2.08242506820729 
3.935380319515 3.30206978605645 1.92066450460689 
6.42838708588125 2.63795480539492 4.97885791825973 
4.04043490692227 4.03896657582522 2.29355445979342 
3.20207129760066 3.86692783759847 2.86614684752611 
3.44660307958242 4.15714601655347 2.76169731790943 
3.6189528203144 3.60795192698709 3.24368483742345 
3.01057603043977 3.49329517268319 2.33268451929282 
6.14067333779888 2.94611825523031 5.9533848215099 
6.09116052584603 3.40371393176501 5.9113237477963 
5.80949262062141 2.76844925184914 5.76276468912152 
5.41874611340036 3.09724963471 5.53773229499131 
5.85828423960763 2.52297736495558 5.32173818057952 
6.38319650366013 2.51872226962541 5.17322093471416 
3.46939457256497 2.72701704675914 2.57427607281903 
3.68476800056775 4.08100426817874 2.17894472126255 
3.56221739853056 3.84704823878047 2.03250090819528 
5.45200422211804 3.30806274628661 4.85988312837244 
5.37558447161201 2.9721818488935 4.97021109606588 
5.53547527936193 3.45730903826884 5.55325627785666 
5.55043927992625 3.59747964415316 5.19603336855278 
4.33216589344723 3.40997121050388 2.73855511716589 
5.51797875005573 2.79640482385764 4.89722098463638 
2.99518805553093 3.15734413036676 2.61281816196483 
2.96630097788652 3.51244328564675 2.53762179443218 
3.78492288666834 2.73006657127842 2.33328150719652 
4.17773237446877 3.73750800216794 2.95987366848576 
3.77346628679991 3.75743810663678 3.22155476463237 
5.87905228571392 2.90612157189786 4.6662263399187 
5.84983844812678 3.29260161317744 4.6323596913936 
4.03714884740016 4.10007393382382 2.71524899069542 
3.67563193071 4.15434882852873 2.91705473718548 
6.83155241394127 2.94055720519108 5.20893000176113 
6.86099114105435 3.23115585658198 5.2407422084255 
6.77446725159005 3.32725624972134 5.6812419182232 
4.14641606346022 3.28408802876862 2.02046210960691 
4.28506328151463 3.55750584345347 2.21464791639384 
6.11006433820646 3.77211505536219 4.98426207947725 
3.68396662392472 3.06028433632236 3.09952837537115 
4.06178412257901 2.83471643348513 2.39595857929105 
4.14733623725039 3.00142458790814 2.78950279170307 
3.42380349920474 2.90557899770452 2.91521193839217 
6.17511221292785 3.60394106082916 4.78034044952923 
6.58966602035346 3.58450242897841 5.01602288995819 
6.72968300264322 2.7398890218346 5.48067323558286 
6.65322388048576 2.90968654337057 5.77169458197449 
3.0697234462156 2.98441315433287 2.37379695678925 
3.09058794554152 3.03815003901189 2.28230774159761 
6.46779366371826 3.75314016874322 5.18390095819971 
6.53344875048283 3.57713341459907 5.69345414430215 
POLYGONS 29 179
5 1 0 25 39 35 
7 28 29 42 43 33 32 2 
5 21 26 30 3 36 
5 4 5 31 27 6 
5 23 24 7 47 46 
5 11 10 8 9 19 
6 26 27 6 38 40 21 
6 8 10 12 13 44 45 
5 13 2 28 22 12 
6 4 5 15 16 7 24 
5 15 5 31 30 3 
5 0 25 14 46 47 
4 14 41 23 46 
5 1 0 47 7 16 
6 4 6 38 41 23 24 
6 14 25 39 40 38 41 
6 16 15 3 36 35 1 
5 17 18 11 19 20 
5 17 18 22 28 29 
5 17 20 37 42 29 
5 11 18 22 12 10 
6 9 19 20 37 48 49 
5 9 8 45 34 49 
4 13 2 32 44 
5 33 34 49 48 43 
5 35 36 21 40 39 
4 26 27 31 30 
5 33 34 45 44 32 
4 42 43 48 37 
CELL_DATA 29
SCALARS scalar_1 double
LOOKUP_TABLE default
0.002819779607099335
0.0027571456546285973
0.002819779607099335
0.002819779607099335
0.002819779607099335
0.0027571456546285973
0.002819779607099335
0.0027571456546285973
0.0027571456546285973
0.002819779607099335
0.002819779607099335
0.002819779607099335
0.002819779607099335
0.002819779607099335
0.002819779607099335
0.002819779607099335
0.002819779607099335
0.0027571456546285973
0.0027571456546285973
0.0027571456546285973
0.0027571456546285973
0.0027571456546285973
0.0027571456546285973
0.0027571456546285973
0.0027571456546285973
0.002819779607099335
0.002819779607099335
0.0027571456546285973
0.0027571456546285973
