# vtk DataFile Version 2.0
polydata
ASCII
DATASET POLYDATA
POINTS 50 double
3.64639828046111 2.91415448886566 2.08409701720988 
3.93523764940777 3.30333686670753 1.92233377243259 
6.42823643830776 2.6392237053976 4.9805294437424 
4.04027493924352 4.04023256256482 2.29521577423155 
3.20191210367847 3.86819978563321 2.86781484672804 
3.4464404406389 4.15841421523124 2.76336648965183 
3.61879545006558 3.60922545146274 3.24535638711051 
3.01041612566026 3.49456891120858 2.33436173954949 
6.1405173771887 2.94739431571231 5.95505660170928 
6.09100159745672 3.40500215199006 5.91299161716701 
5.80934094210821 2.76972502279434 5.7644385320604 
5.4185911544583 3.09852493542568 5.53940443261205 
5.85813324293799 2.52424850057354 5.32340308781174 
6.38304779769731 2.51999558158696 5.17488529618804 
3.4692527647963 2.72827935116486 2.57594102934098 
3.68460876330686 4.08227057181323 2.18060582586295 
3.56206623854983 3.84832934513184 2.03417164512558 
5.45184750097035 3.30933408338278 4.8615581310447 
5.37543032650932 2.97345909674208 4.97188759686198 
5.53532306617049 3.45859349070597 5.55492806374531 
5.55028533873727 3.59875887418592 5.19771402034631 
4.33200845353194 3.41123189279175 2.74022376373279 
5.51783687608834 2.79766832060578 4.89889226604557 
2.99502908880208 3.15862354463513 2.61448668856866 
2.96614279364837 3.5137159091449 2.53929096220511 
3.78477358633236 2.73132973571347 2.33495109656815 
4.17757661291308 3.73876352445781 2.96153893117551 
3.77329492530887 3.75869588412882 3.22322930398873 
5.87890532688789 2.90738661298608 4.66789831486839 
5.84968974662343 3.29387275331789 4.63402993075201 
4.03698882411725 4.10133962641508 2.716906590322 
3.67546093170031 4.15561728082375 2.91871857105646 
6.83138242489762 2.94181385426724 5.21059305447992 
6.8608249183176 3.23243706239623 5.24240714834579 
6.77430059052002 3.32853996399991 5.68291459325411 
4.14626144444499 3.28535583066362 2.02212582060725 
4.28490552887345 3.55876843765342 2.2163081287603 
6.10991433365804 3.77339637383764 4.98593758827448 
3.68380999926018 3.06154313313894 3.10119595284894 
4.06162842462697 2.83597760137453 2.39762708360317 
4.14717926755258 3.00268526196324 2.79117070333247 
3.42366111036306 2.90684728414486 2.91689179798794 
6.17496398909937 3.60521685310558 4.78201076750898 
6.58950403429552 3.58578193446568 5.0176867547216 
6.72951887014548 2.7411555146766 5.48232319345024 
6.65305396286609 2.91096693240146 5.77337022105391 
3.06956799062557 2.98568594017213 2.37545676045145 
3.0904294715612 3.03941451672907 2.28398245418985 
6.46762886314122 3.75442319611618 5.18556816283166 
6.53328238563328 3.57841701874899 5.69512492240895 
POLYGONS 29 179
5 1 0 25 39 35 
7 28 29 42 43 33 32 2 
5 21 26 30 3 36 
5 4 5 31 27 6 
5 23 24 7 47 46 
5 11 10 8 9 19 
6 26 27 6 38 40 21 
6 8 10 12 13 44 45 
5 13 2 28 22 12 
6 4 5 15 16 7 24 
5 15 5 31 30 3 
5 0 25 14 46 47 
4 14 41 23 46 
5 1 0 47 7 16 
6 4 6 38 41 23 24 
6 14 25 39 40 38 41 
6 16 15 3 36 35 1 
5 17 18 11 19 20 
5 17 18 22 28 29 
5 17 20 37 42 29 
5 11 18 22 12 10 
6 9 19 20 37 48 49 
5 9 8 45 34 49 
4 13 2 32 44 
5 33 34 49 48 43 
5 35 36 21 40 39 
4 26 27 31 30 
5 33 34 45 44 32 
4 42 43 48 37 
CELL_DATA 29
SCALARS scalar_1 double
LOOKUP_TABLE default
0.0028012210024667447
0.0027129336109865607
0.0028012210024667447
0.0028012210024667447
0.0028012210024667447
0.0027129336109865607
0.0028012210024667447
0.0027129336109865607
0.0027129336109865607
0.0028012210024667447
0.0028012210024667447
0.0028012210024667447
0.0028012210024667447
0.0028012210024667447
0.0028012210024667447
0.0028012210024667447
0.0028012210024667447
0.0027129336109865607
0.0027129336109865607
0.0027129336109865607
0.0027129336109865607
0.0027129336109865607
0.0027129336109865607
0.0027129336109865607
0.0027129336109865607
0.0028012210024667447
0.0028012210024667447
0.0027129336109865607
0.0027129336109865607
