# vtk DataFile Version 2.0
polydata
ASCII
DATASET POLYDATA
POINTS 50 double
3.64997629538627 2.91662128428862 2.08556781290149 
3.93882205260425 3.30580974903674 1.92380009342828 
6.43181216590136 2.64169425799071 4.98199547742035 
4.04384309665767 4.04270374471364 2.29667240426384 
3.2054790221596 3.87067520015109 2.86927949266688 
3.45000526747687 4.16088781763186 2.76483177186481 
3.62236501214318 3.61170288412456 3.24682482658644 
3.01398323303493 3.49704665063881 2.3358367553063 
6.14408873547828 2.94987129115341 5.95652346981326 
6.09457081833677 3.40749149430137 5.91445447435616 
5.81291538568224 2.77220221389722 5.76590722781481 
5.42216394001171 3.10100193125681 5.54087240123208 
5.86170756084129 2.5267218001405 5.32486441139614 
6.38662479883437 2.52246962813604 5.17634570286519 
3.47283491846124 2.73074781945834 2.57740453808845 
3.68817746952961 4.08474168990144 2.18206223824456 
3.56564321731065 3.85081510667118 2.03563831741172 
5.45541896461341 3.31180910059271 4.86302868852829 
5.3790031376755 2.9759381041318 4.97335988262729 
5.53889970221679 3.46108006578579 5.55639566570324 
5.55386023811798 3.60124057568453 5.19918913474928 
4.33557870369969 3.41369962933775 2.74168909145225 
5.52141969535859 2.80013541369566 4.90035994399223 
2.99859767352769 3.16110569176267 2.61595285361151 
2.96971173701731 3.51619272556677 2.54075775571213 
3.78834927822327 2.73379863654487 2.33641852934384 
4.18114969161739 3.74122454053884 2.96299984366029 
3.77685167207709 3.76115894078408 3.22470040038546 
5.88248566330609 2.90985496237671 4.66936525744132 
5.8532691469206 3.29634691100936 4.63549549272109 
4.04055719266738 4.10381101256545 2.71835952997068 
3.67901739366594 4.15809147220663 2.9201784706887 
6.83494042989452 2.94427143779059 5.21205109911778 
6.86438681122381 3.23491661529619 5.24386702302759 
6.77786225488196 3.33102239094735 5.68438211014205 
4.14983352699162 3.28782954618638 2.02358617280892 
4.28847503042687 3.56123756727061 2.21776462554542 
6.11349416958959 3.77587904034916 4.98740712306832 
3.68738039869541 3.06400796217214 3.10266056155464 
4.06519926449524 2.83844476581534 2.39909348860148 
4.15074904379185 3.00515178038852 2.79263568392158 
3.42724320824283 2.90932011489473 2.91836663108015 
6.17854486551618 3.60769543942825 4.78347689326934 
6.59306855706461 3.58826327988744 5.01914473116025 
6.73308162429287 2.74362195981368 5.48376970151159 
6.65661167735602 2.91344664260276 5.77484074711994 
3.07313942081304 2.9881628130812 2.37691615472095 
3.09399805794954 3.04188351918482 2.28545569598662 
6.47119219095526 3.75690681200419 5.18702849395571 
6.53684417267688 3.58090067336713 5.6965905033836 
POLYGONS 29 179
5 1 0 25 39 35 
7 28 29 42 43 33 32 2 
5 21 26 30 3 36 
5 4 5 31 27 6 
5 23 24 7 47 46 
5 11 10 8 9 19 
6 26 27 6 38 40 21 
6 8 10 12 13 44 45 
5 13 2 28 22 12 
6 4 5 15 16 7 24 
5 15 5 31 30 3 
5 0 25 14 46 47 
4 14 41 23 46 
5 1 0 47 7 16 
6 4 6 38 41 23 24 
6 14 25 39 40 38 41 
6 16 15 3 36 35 1 
5 17 18 11 19 20 
5 17 18 22 28 29 
5 17 20 37 42 29 
5 11 18 22 12 10 
6 9 19 20 37 48 49 
5 9 8 45 34 49 
4 13 2 32 44 
5 33 34 49 48 43 
5 35 36 21 40 39 
4 26 27 31 30 
5 33 34 45 44 32 
4 42 43 48 37 
CELL_DATA 29
SCALARS scalar_1 double
LOOKUP_TABLE default
0.002782011980898069
0.002671115803886598
0.002782011980898069
0.002782011980898069
0.002782011980898069
0.002671115803886598
0.002782011980898069
0.002671115803886598
0.002671115803886598
0.002782011980898069
0.002782011980898069
0.002782011980898069
0.002782011980898069
0.002782011980898069
0.002782011980898069
0.002782011980898069
0.002782011980898069
0.002671115803886598
0.002671115803886598
0.002671115803886598
0.002671115803886598
0.002671115803886598
0.002671115803886598
0.002671115803886598
0.002671115803886598
0.002782011980898069
0.002782011980898069
0.002671115803886598
0.002671115803886598
