# vtk DataFile Version 2.0
polydata
ASCII
DATASET POLYDATA
POINTS 50 double
3.64919783446998 2.91359235265965 2.08628111446371 
3.9380486099799 3.30278582071853 1.92450970996771 
6.43102947674243 2.638668702372 4.98270369655398 
4.04305367167868 4.03968065794688 2.2973740146032 
3.20468860241423 3.86765802770886 2.86998973699387 
3.44921173974093 4.1578676397365 2.76554300232235 
3.62157755474575 3.60868677003562 3.24753949058286 
3.01319206927263 3.494030067998 2.33655523119249 
6.14329832165175 2.94685059719508 5.95723353585373 
6.09377800821565 3.40448393240012 5.91516089081416 
5.81213029852945 2.76918247516202 5.76661997678767 
5.42137510940302 3.09798286893222 5.54158319608828 
5.86092268835122 2.52369787545909 5.32556826239776 
6.38584328627354 2.51944715839981 5.17704867661566 
3.4720627306111 2.72771944738828 2.5781110083514 
3.68738792017864 4.08171886548333 2.18276371646642 
3.56486103736552 3.84780570217626 2.03634913792894 
5.45462880226595 3.30878884772578 4.86374110978639 
5.37821467734082 2.9729210059462 4.9740735634785 
5.53811388978642 3.45806963059137 5.55710631317273 
5.55307285469754 3.59822624088931 5.19990629570057 
4.33479258238418 3.41067039330597 2.74239876362735 
5.52064196739368 2.79710602232355 4.90106882685201 
2.99780752732875 3.15809526945958 2.61666362348045 
2.96892219651827 3.51317539522905 2.54146882763754 
3.78756944712049 2.73077100767956 2.33712933689911 
4.18036541126284 3.73819072860609 2.96370659372636 
3.77605031495751 3.75812728053751 3.22541798388246 
5.88170706680501 2.90682718624994 4.67007330982595 
5.85248942736685 3.29332665893629 4.63620200993012 
4.03976817118894 4.10078815378766 2.71905802183948 
3.67821576012871 4.15507175958727 2.92088443785823 
6.83413939725202 2.94123330897665 5.21275194483939 
6.86358937532363 3.23190107590622 5.24456986806963 
6.77706399948475 3.32800913787244 5.6850927623389 
4.1490487684999 3.2848064028082 2.02429019191356 
4.28768788803399 3.55821007765085 2.21846517962285 
6.11271195836857 3.77286668682254 4.98811929236287 
3.68659365822732 3.06097737162134 3.10337113691318 
4.06441395885428 2.83541550059847 2.39980292473912 
4.14996324051511 3.0021226043524 2.79334503210719 
3.42647032817271 2.90629864411093 2.91908929053042 
6.1777643162762 3.60467768907786 4.78418350403708 
6.59227431123217 3.58524836587333 5.0198455821797 
6.73228529472082 2.74059218339122 5.48445904303949 
6.65580985965992 2.91042959817529 5.77555396452605 
3.07235331766803 2.98514465229888 2.37761721923686 
3.09320879661805 3.0388567017923 2.28617203928887 
6.4703953890987 3.75389528189229 5.1877328063511 
6.53604546263229 3.57788875395041 5.69729933881386 
POLYGONS 29 179
5 1 0 25 39 35 
7 28 29 42 43 33 32 2 
5 21 26 30 3 36 
5 4 5 31 27 6 
5 23 24 7 47 46 
5 11 10 8 9 19 
6 26 27 6 38 40 21 
6 8 10 12 13 44 45 
5 13 2 28 22 12 
6 4 5 15 16 7 24 
5 15 5 31 30 3 
5 0 25 14 46 47 
4 14 41 23 46 
5 1 0 47 7 16 
6 4 6 38 41 23 24 
6 14 25 39 40 38 41 
6 16 15 3 36 35 1 
5 17 18 11 19 20 
5 17 18 22 28 29 
5 17 20 37 42 29 
5 11 18 22 12 10 
6 9 19 20 37 48 49 
5 9 8 45 34 49 
4 13 2 32 44 
5 33 34 49 48 43 
5 35 36 21 40 39 
4 26 27 31 30 
5 33 34 45 44 32 
4 42 43 48 37 
CELL_DATA 29
SCALARS scalar_1 double
LOOKUP_TABLE default
0.0027260928892951504
0.0026657934653990206
0.0027260928892951504
0.0027260928892951504
0.0027260928892951504
0.0026657934653990206
0.0027260928892951504
0.0026657934653990206
0.0026657934653990206
0.0027260928892951504
0.0027260928892951504
0.0027260928892951504
0.0027260928892951504
0.0027260928892951504
0.0027260928892951504
0.0027260928892951504
0.0027260928892951504
0.0026657934653990206
0.0026657934653990206
0.0026657934653990206
0.0026657934653990206
0.0026657934653990206
0.0026657934653990206
0.0026657934653990206
0.0026657934653990206
0.0027260928892951504
0.0027260928892951504
0.0026657934653990206
0.0026657934653990206
