# vtk DataFile Version 2.0
polydata
ASCII
DATASET POLYDATA
POINTS 50 double
3.65337509104869 2.91565410442008 2.08617491100643 
3.94223179381569 3.30485293425106 1.92439992076468 
6.43520524813749 2.64073258205825 4.98259707120266 
4.04722174155511 4.04174788446829 2.29725709067488 
3.20885508443766 3.86973112934114 2.86988154406748 
3.45337470747161 4.15993746314239 2.76543601264395 
3.62574652182819 3.61076044689663 3.2474347376377 
3.01735708239529 3.4961040107679 2.33645470684848 
6.14746930450176 2.94892090844507 5.95712841000908 
6.09794694748286 3.40656648045296 5.91505247050701 
5.81630436266379 2.77125315064579 5.76651599508496 
5.42554620617042 3.10005471078334 5.54147705942716 
5.86509717624418 2.52576453022864 5.32545647885898 
6.39002025360327 2.5215144163927 5.17693666081699 
3.47624459253484 2.72978209780615 2.57799804721681 
3.69155485739794 4.08378661918973 2.18264608492806 
3.56903562916434 3.84988754055657 2.03624093358279 
5.4587990453641 3.31085790212826 4.86363733264428 
5.38238655506769 2.97499499623589 4.97397085872077 
5.54228836775144 3.4601503334492 5.55700030217355 
5.55724616770733 3.60030253286469 5.19980876194885 
4.33896281628062 3.41273168900663 2.74228942496878 
5.52482464575667 2.79916738462966 4.90096143687568 
3.00197367506152 3.16017429692809 2.61655486372167 
2.9730889997656 3.51524827262946 2.54136066951155 
3.79174471376007 2.73283409589796 2.33702026567232 
4.1845376432124 3.74024735682651 2.96359444717455 
3.78020596708222 3.76018596483622 3.22531618829153 
5.88588612387325 2.90888943619078 4.66996651993706 
5.85666775910221 3.29539525221949 4.63609372131284 
4.04393629364185 4.10285526323826 2.71893830859392 
3.68237115876886 4.15714183605997 2.92077231963854 
6.83829942194752 2.94328618119423 5.21263834954402 
6.86775317833401 3.23397597160265 5.24445805884969 
6.78122702601374 3.33008621982088 5.68498895963655 
4.15322068259474 3.28687403755383 2.0241749796709 
4.29185770673698 3.56027343563752 2.21834711762256 
6.11688847706146 3.77494443070865 4.98801782837956 
3.69076301325757 3.06303748387639 3.10326194688099 
4.06858437362177 2.83747673876975 2.39969286959543 
4.15413308580334 3.00418368958195 2.79323509540702 
3.4306517855114 2.9083672207573 2.9189907349991 
6.18194281097153 3.60674899242507 4.78407516271093 
6.59644256629443 3.58732206347618 5.01973287539568 
6.73644957141765 2.74265292594959 5.48433512459687 
6.65996916761448 2.91250260553876 5.77545252586883 
3.07652286461464 2.9872169633265 2.37749969065943 
3.0973753902428 3.04092095232519 2.28606889868168 
6.47455986730426 3.75597383081435 5.18762483168209 
6.54020798977352 3.57996699412806 5.69719400130244 
POLYGONS 29 179
5 1 0 25 39 35 
7 28 29 42 43 33 32 2 
5 21 26 30 3 36 
5 4 5 31 27 6 
5 23 24 7 47 46 
5 11 10 8 9 19 
6 26 27 6 38 40 21 
6 8 10 12 13 44 45 
5 13 2 28 22 12 
6 4 5 15 16 7 24 
5 15 5 31 30 3 
5 0 25 14 46 47 
4 14 41 23 46 
5 1 0 47 7 16 
6 4 6 38 41 23 24 
6 14 25 39 40 38 41 
6 16 15 3 36 35 1 
5 17 18 11 19 20 
5 17 18 22 28 29 
5 17 20 37 42 29 
5 11 18 22 12 10 
6 9 19 20 37 48 49 
5 9 8 45 34 49 
4 13 2 32 44 
5 33 34 49 48 43 
5 35 36 21 40 39 
4 26 27 31 30 
5 33 34 45 44 32 
4 42 43 48 37 
CELL_DATA 29
SCALARS scalar_1 double
LOOKUP_TABLE default
0.0026690160074076537
0.0026660807347532248
0.0026690160074076537
0.0026690160074076537
0.0026690160074076537
0.0026660807347532248
0.0026690160074076537
0.0026660807347532248
0.0026660807347532248
0.0026690160074076537
0.0026690160074076537
0.0026690160074076537
0.0026690160074076537
0.0026690160074076537
0.0026690160074076537
0.0026690160074076537
0.0026690160074076537
0.0026660807347532248
0.0026660807347532248
0.0026660807347532248
0.0026660807347532248
0.0026660807347532248
0.0026660807347532248
0.0026660807347532248
0.0026660807347532248
0.0026690160074076537
0.0026690160074076537
0.0026660807347532248
0.0026660807347532248
