# vtk DataFile Version 2.0
polydata
ASCII
DATASET POLYDATA
POINTS 50 double
3.65881505351226 2.91357751182515 2.08464230285515 
3.94767811720521 3.30278269365593 1.92286324922959 
6.44063901416535 2.63865716078062 4.98105912808408 
4.05265257988022 4.03967595495545 2.29571199502838 
3.21428197511352 3.86766223032726 2.86834471102592 
3.45880100817943 4.15786792533364 2.7639001202911 
3.6311772995764 3.60869214185052 3.24590299311634 
3.02278523653488 3.49403890096445 2.33492710231518 
6.15289915177295 2.94685241913509 5.95559342764033 
6.10337472982298 3.40451005645234 5.91351339078731 
5.82173690412033 2.76918452167304 5.76498314024951 
5.43097648229257 3.09798537614148 5.53994314717484 
5.87052941991286 2.52369111752176 5.32391574559744 
6.39545509397172 2.51944171773266 5.17539477070828 
3.48168898149686 2.72770533348292 2.57646030941831 
3.69698582542454 4.08171501406243 2.18110063308635 
3.57447451570326 3.84783038165359 2.03470522515082 
5.46422781999326 3.3087866404755 4.86210432470967 
5.38781659525763 2.97292624587894 4.97243954567697 
5.54772227429786 3.45809104916053 5.55546561457067 
5.5626782809016 3.59823849758712 5.19828147386172 
4.34439591880086 3.41065469362595 2.74075362055869 
5.53026385672005 2.79708789559671 4.89942606366809 
3.00740284302739 3.15811244398439 2.61501963285102 
2.97851853725897 3.51318227409798 2.53982624474242 
3.79718347689393 2.73075795234894 2.3354860247211 
4.18997370981086 3.73816307036134 2.96205447420784 
3.78562410562119 3.75810336477447 3.22378731213019 
5.89132469486553 2.90681125906232 4.66842971198256 
5.86210535777217 3.29332351998636 4.63455543588018 
4.04936728183217 4.10078307213465 2.71738993729338 
3.68778904431009 4.155072553512 2.91923135666841 
6.84371743354255 2.94119975476296 5.21109302185285 
6.87317488460531 3.23191101685636 5.24291424537522 
6.78664855787044 3.32802437137819 5.68345320160648 
4.15865570462795 3.28480446238066 2.02263274589838 
4.29729006423091 3.5581988528457 2.21680118819105 
6.12232630671562 3.77288199833225 4.98648473515819 
3.69619460052393 3.06095644896768 3.10172570104588 
4.07401792739406 2.83539870578371 2.39815761653367 
4.15956538157367 3.00210465761087 2.79169848171596 
3.43609580905889 2.90629473871439 2.91746500921164 
6.18738191397164 3.60468150523402 4.78253726482427 
6.60186766073839 3.58525718743624 5.01818786353934 
6.74187182635551 2.74057413429737 5.48278061012033 
6.66538678767798 2.91043653455234 5.77392036718445 
3.08195506381514 2.98514980872041 2.3759571565981 
3.10280504543598 3.03884672298132 2.28453907090719 
6.47998284421765 3.75391237223655 5.18608312382167 
6.54562976553855 3.57790588575032 5.69565644283672 
POLYGONS 29 179
5 1 0 25 39 35 
7 28 29 42 43 33 32 2 
5 21 26 30 3 36 
5 4 5 31 27 6 
5 23 24 7 47 46 
5 11 10 8 9 19 
6 26 27 6 38 40 21 
6 8 10 12 13 44 45 
5 13 2 28 22 12 
6 4 5 15 16 7 24 
5 15 5 31 30 3 
5 0 25 14 46 47 
4 14 41 23 46 
5 1 0 47 7 16 
6 4 6 38 41 23 24 
6 14 25 39 40 38 41 
6 16 15 3 36 35 1 
5 17 18 11 19 20 
5 17 18 22 28 29 
5 17 20 37 42 29 
5 11 18 22 12 10 
6 9 19 20 37 48 49 
5 9 8 45 34 49 
4 13 2 32 44 
5 33 34 49 48 43 
5 35 36 21 40 39 
4 26 27 31 30 
5 33 34 45 44 32 
4 42 43 48 37 
CELL_DATA 29
SCALARS scalar_1 double
LOOKUP_TABLE default
0.002617220475331184
0.002663007069048592
0.002617220475331184
0.002617220475331184
0.002617220475331184
0.002663007069048592
0.002617220475331184
0.002663007069048592
0.002663007069048592
0.002617220475331184
0.002617220475331184
0.002617220475331184
0.002617220475331184
0.002617220475331184
0.002617220475331184
0.002617220475331184
0.002617220475331184
0.002663007069048592
0.002663007069048592
0.002663007069048592
0.002663007069048592
0.002663007069048592
0.002663007069048592
0.002663007069048592
0.002663007069048592
0.002617220475331184
0.002617220475331184
0.002663007069048592
0.002663007069048592
