# vtk DataFile Version 2.0
polydata
ASCII
DATASET POLYDATA
POINTS 50 double
3.65903565895947 2.90999796145655 2.08501589711968 
3.94790297234169 3.29920704089108 1.9232340490048 
6.44086089337607 2.63507828823858 4.98143176206173 
4.05286291555422 4.03609956171687 2.29607560000823 
3.21449349805187 3.86409149304149 2.86871543771699 
3.45900880439818 4.15429366700039 2.7642717359835 
3.63139135090896 3.60512288861675 3.24627640116768 
3.02299544174891 3.49046972887153 2.3353063786721 
6.15311307182009 2.94327939561568 5.95596522173495 
6.10358627979907 3.40094856043337 5.91388186628671 
5.82195645250286 2.76561228439196 5.76535707302314 
5.43119279529229 3.09441345900576 5.54031459227104 
5.87074991598161 2.52011483357614 5.32428099143489 
6.39567852486396 2.51586719913158 5.17575997389872 
3.48191580918635 2.72412614144458 2.5768267410077 
3.69719578218325 4.07813900180885 2.18146427893611 
3.57469166644016 3.84426787245562 2.03507791332553 
5.4644432178798 3.30521159043076 4.86247949345125 
5.38803433599109 2.96935699817836 4.97281564688666 
5.54794088387925 3.45452660045876 5.55583716359345 
5.5628958312259 3.59466965921635 5.19866143642438 
4.34460887282134 3.40707330712751 2.74112311952547 
5.53049354235661 2.79350517560631 4.89979702138724 
3.00761449913186 3.15454860200537 2.61539053389504 
2.97873068180838 3.50961203660958 2.54019809794526 
3.79740252828254 2.72717957744886 2.33585655978992 
4.19018878089288 3.73457682484704 2.96242120935571 
3.78582467664935 3.75451909186514 3.22416350021241 
5.89154998150837 2.90322997948183 4.66880162916 
5.86232937474003 3.28974847512872 4.63492584433792 
4.04957817447301 4.09720642812573 2.71774978397453 
3.68798946276051 4.15149854879935 2.91959779242961 
6.8439199608275 2.93760787054764 5.21145803712348 
6.87338110649808 3.22834238261548 5.24328128732969 
6.78685384443539 3.32445757724519 5.68382693178171 
4.15886986419012 3.28122937542597 2.02299820442581 
4.29750202123254 3.55461924309136 2.21716347099908 
6.1225469348937 3.76931509988636 4.9868610654123 
3.69640926061055 3.05737381916899 3.10209469698115 
4.07423156551004 2.83181844534808 2.39852680942797 
4.15977871604031 2.99852380826631 2.79206734681931 
3.43632273662466 2.90272069020834 2.91784509567992 
6.18760460224966 3.60110886789298 4.78290758188657 
6.60207810162186 3.58168768093701 5.01855340316327 
6.74207975939783 2.73699217795973 5.48313198764719 
6.66558897306857 2.90686753455908 5.77429609351201 
3.08216964188982 2.98158001023045 2.37631984600572 
3.10301659560677 3.03526902281962 2.28491591614751 
6.48018999482482 3.75034664331389 5.18645253753904 
6.54583456201152 3.57434013450376 5.69602842322433 
POLYGONS 29 179
5 1 0 25 39 35 
7 28 29 42 43 33 32 2 
5 21 26 30 3 36 
5 4 5 31 27 6 
5 23 24 7 47 46 
5 11 10 8 9 19 
6 26 27 6 38 40 21 
6 8 10 12 13 44 45 
5 13 2 28 22 12 
6 4 5 15 16 7 24 
5 15 5 31 30 3 
5 0 25 14 46 47 
4 14 41 23 46 
5 1 0 47 7 16 
6 4 6 38 41 23 24 
6 14 25 39 40 38 41 
6 16 15 3 36 35 1 
5 17 18 11 19 20 
5 17 18 22 28 29 
5 17 20 37 42 29 
5 11 18 22 12 10 
6 9 19 20 37 48 49 
5 9 8 45 34 49 
4 13 2 32 44 
5 33 34 49 48 43 
5 35 36 21 40 39 
4 26 27 31 30 
5 33 34 45 44 32 
4 42 43 48 37 
CELL_DATA 29
SCALARS scalar_1 double
LOOKUP_TABLE default
0.0026038185214909714
0.0026162900186748684
0.0026038185214909714
0.0026038185214909714
0.0026038185214909714
0.0026162900186748684
0.0026038185214909714
0.0026162900186748684
0.0026162900186748684
0.0026038185214909714
0.0026038185214909714
0.0026038185214909714
0.0026038185214909714
0.0026038185214909714
0.0026038185214909714
0.0026038185214909714
0.0026038185214909714
0.0026162900186748684
0.0026162900186748684
0.0026162900186748684
0.0026162900186748684
0.0026162900186748684
0.0026162900186748684
0.0026162900186748684
0.0026162900186748684
0.0026038185214909714
0.0026038185214909714
0.0026162900186748684
0.0026162900186748684
