# vtk DataFile Version 2.0
polydata
ASCII
DATASET POLYDATA
POINTS 50 double
3.6191337089205 2.91738032193763 2.0245906686954 
3.90757682334391 3.30617087675104 1.86309006249446 
6.40117912157114 2.64224099237663 4.92126426033608 
4.01363347243733 4.04307801006125 2.23649902537037 
3.17546271259911 3.87071369688987 2.80850842779217 
3.42013624872535 4.16107029728508 2.70400083398462 
3.59209076347596 3.61170211775464 3.18572904893119 
2.9839781737928 3.49695821736162 2.27449337014952 
6.11383497045279 2.95000979157882 5.89561456676523 
6.06446711947159 3.40677501145986 5.85379654245088 
5.78241140468859 2.77231640006111 5.70486994103078 
5.3918724813006 3.10108798884672 5.47996418152761 
5.83119281212411 2.52713531200308 5.26439375567837 
6.3559179540538 2.52282221429841 5.115921563797 
3.44162587372657 2.73149386889363 2.51683338154191 
3.65802327395222 4.08509031284732 2.12192208137814 
3.53496597227727 3.85020657502777 1.97484162383705 
5.42521008426752 3.31203060975577 4.80202611150985 
5.34868806494772 2.97592427428367 4.9122626799796 
5.50838289700085 3.46053808135536 5.49550588526225 
5.52344560158399 3.60099260044949 5.13780661090827 
4.30518415100328 3.4144641347875 2.68092341710051 
5.49041077435338 2.80092437277476 4.83956702519614 
2.96851919297662 3.16071097989949 2.55511715414958 
2.93960033681833 3.51616004696333 2.47988895278231 
3.75759768188602 2.73450307346645 2.27558250583261 
4.15058719589966 3.74238292731288 2.90247108885085 
3.74748892589713 3.76218361356338 3.1634089806937 
5.85158635649835 2.91055416884809 4.60861499335344 
5.82243525700205 3.29658793616118 4.5748507030892 
4.01032791472135 4.10418183050369 2.65840472183858 
3.649684994641 4.15824973782719 2.85969521617637 
6.80538079123946 2.94555145552092 5.1517879131979 
6.83458754233123 3.23474992407577 5.18349039083314 
6.74811828755654 3.3306721973826 5.62344570933943 
4.11934015438842 3.28814640287604 1.96324807392368 
4.25813991720577 3.5618607906067 2.15765709169757 
6.08276024103455 3.77551063169146 4.92635680409239 
3.65706298275297 3.06494831631702 3.04186520530441 
4.0347864287619 2.83926507065047 2.33833290784355 
4.12038604273415 3.00599262688847 2.73190264543961 
3.39606212179392 2.90966926708144 2.85681182069062 
6.14769422143164 3.60772453116857 4.72283102575313 
6.56302687040779 3.58811475409928 4.95886477106089 
6.70324550996462 2.74440069285948 5.42416203903053 
6.6271197945626 2.91338896725651 5.71371230140469 
3.04282306439654 2.98822783709172 2.31668194953541 
3.06387613544272 3.04248075386624 2.22427238711437 
6.44135868019576 3.75647392911941 5.12647382459012 
6.50712926997649 3.58047103515004 5.63577779559642 
POLYGONS 29 179
5 1 0 25 39 35 
7 28 29 42 43 33 32 2 
5 21 26 30 3 36 
5 4 5 31 27 6 
5 23 24 7 47 46 
5 11 10 8 9 19 
6 26 27 6 38 40 21 
6 8 10 12 13 44 45 
5 13 2 28 22 12 
6 4 5 15 16 7 24 
5 15 5 31 30 3 
5 0 25 14 46 47 
4 14 41 23 46 
5 1 0 47 7 16 
6 4 6 38 41 23 24 
6 14 25 39 40 38 41 
6 16 15 3 36 35 1 
5 17 18 11 19 20 
5 17 18 22 28 29 
5 17 20 37 42 29 
5 11 18 22 12 10 
6 9 19 20 37 48 49 
5 9 8 45 34 49 
4 13 2 32 44 
5 33 34 49 48 43 
5 35 36 21 40 39 
4 26 27 31 30 
5 33 34 45 44 32 
4 42 43 48 37 
CELL_DATA 29
SCALARS scalar_1 double
LOOKUP_TABLE default
0.007164392706599098
0.002076448283666439
0.007164392706599098
0.007164392706599098
0.007164392706599098
0.002076448283666439
0.007164392706599098
0.002076448283666439
0.002076448283666439
0.007164392706599098
0.007164392706599098
0.007164392706599098
0.007164392706599098
0.007164392706599098
0.007164392706599098
0.007164392706599098
0.007164392706599098
0.002076448283666439
0.002076448283666439
0.002076448283666439
0.002076448283666439
0.002076448283666439
0.002076448283666439
0.002076448283666439
0.002076448283666439
0.007164392706599098
0.007164392706599098
0.002076448283666439
0.002076448283666439
