# vtk DataFile Version 2.0
polydata
ASCII
DATASET POLYDATA
POINTS 50 double
3.66273220940708 2.90866328649924 2.07972928054761 
3.95160491181492 3.29787748794253 1.91794399089624 
6.44455390015183 2.63374871371971 4.97614037358461 
4.05654903303105 4.03476939661182 2.29077731361851 
3.21817998963174 3.86276610013803 2.86342368003959 
3.46269252084518 4.15296562747042 2.7589810605816 
3.63507860883342 3.60379951612614 3.24098775547424 
3.02668138269662 3.48914492677934 2.33002314549354 
6.1568014022073 2.94195517579611 5.95067422304124 
6.10727243050233 3.39963587622646 5.90858742705348 
5.82564853518549 2.76428855139751 5.76006847030832 
5.43488251352802 3.09308976726132 5.53502542751056 
5.87444171271985 2.51878761007909 5.31898515834695 
6.39937300969994 2.51454114818772 5.17046278676468 
3.48561623885813 2.72279307182128 2.57153267138804 
3.70088342521654 4.07680876598738 2.17616587202948 
3.5783864713879 3.84295016467759 2.02978807653651 
5.46813114202007 3.30388621756369 4.85719286511974 
5.39172384850908 2.96803545649115 4.96753052294416 
5.55163380447913 3.45321127948846 5.55054775009435 
5.56658690886265 3.59335013953355 5.1933789119095 
4.34829691639459 3.4057393562301 2.73583220183777 
5.53419287454678 2.79217208890609 4.89450729804608 
3.01130135415075 3.15322919679672 2.61009873688365 
2.98241821615759 3.50828631559049 2.53490668748842 
3.8010967266838 2.72584703931894 2.33056674769754 
4.19387845561742 3.7332380994237 2.95712694004143 
3.78950012590693 3.75318239961397 3.21887748810707 
5.89524692874205 2.90189822750713 4.66351110363146 
5.86602526356935 3.28842263515288 4.62963400426256 
4.05326413739016 4.09587640539742 2.71244867245327 
3.69166525409253 4.15017101306784 2.91430227874489 
6.84759513919842 2.93626530318724 5.2061585594877 
6.87705997725789 3.22702119940995 5.23798369620901 
6.79053291149968 3.3231385760544 5.67853615598166 
4.16256020385093 3.27990065545341 2.0177027881121 
4.30118982376865 3.5532865723646 2.21186492874293 
6.12624237557833 3.76799682420221 4.98157312605164 
3.7000973400634 3.05603805664087 3.09680277983237 
4.07792089577016 2.83048439368907 2.3932361982839 
4.16346685890123 2.99718950330004 2.78677596473112 
3.44002245543527 2.90139255235841 2.91256286802209 
6.19130103626777 3.59978657635401 4.77761591782949 
6.60575938306273 3.5803680898638 5.01325418222974 
6.74576009750556 2.73565857370744 5.47782057320642 
6.66926466564789 2.90554643584055 5.76900789193655 
3.0858597633602 2.98025495133496 2.37102115167945 
3.10670398580743 3.0339361173081 2.27963102780807 
6.48387011929119 3.74902917526629 5.18115575218872 
6.54951359372634 3.57302240767967 5.69073623346769 
POLYGONS 29 179
5 1 0 25 39 35 
7 28 29 42 43 33 32 2 
5 21 26 30 3 36 
5 4 5 31 27 6 
5 23 24 7 47 46 
5 11 10 8 9 19 
6 26 27 6 38 40 21 
6 8 10 12 13 44 45 
5 13 2 28 22 12 
6 4 5 15 16 7 24 
5 15 5 31 30 3 
5 0 25 14 46 47 
4 14 41 23 46 
5 1 0 47 7 16 
6 4 6 38 41 23 24 
6 14 25 39 40 38 41 
6 16 15 3 36 35 1 
5 17 18 11 19 20 
5 17 18 22 28 29 
5 17 20 37 42 29 
5 11 18 22 12 10 
6 9 19 20 37 48 49 
5 9 8 45 34 49 
4 13 2 32 44 
5 33 34 49 48 43 
5 35 36 21 40 39 
4 26 27 31 30 
5 33 34 45 44 32 
4 42 43 48 37 
CELL_DATA 29
SCALARS scalar_1 double
LOOKUP_TABLE default
0.0025873896383110436
0.0025713164484530166
0.0025873896383110436
0.0025873896383110436
0.0025873896383110436
0.0025713164484530166
0.0025873896383110436
0.0025713164484530166
0.0025713164484530166
0.0025873896383110436
0.0025873896383110436
0.0025873896383110436
0.0025873896383110436
0.0025873896383110436
0.0025873896383110436
0.0025873896383110436
0.0025873896383110436
0.0025713164484530166
0.0025713164484530166
0.0025713164484530166
0.0025713164484530166
0.0025713164484530166
0.0025713164484530166
0.0025713164484530166
0.0025713164484530166
0.0025873896383110436
0.0025873896383110436
0.0025713164484530166
0.0025713164484530166
