# vtk DataFile Version 2.0
polydata
ASCII
DATASET POLYDATA
POINTS 50 double
3.6605599385462 2.90811946707766 2.08706359008589 
3.94943832136563 3.29733876504252 1.92527482845314 
6.44237876385295 2.63320514426177 4.98347357579009 
4.05436935692126 4.03422821877338 2.29810067089095 
3.21599953265934 3.86222915094698 2.87075394499169 
3.46051019819875 4.15242665965404 2.76631205397892 
3.63290004285818 3.60326347970376 3.24832056134289 
3.02449975433915 3.48861081746681 2.33736307594808 
6.15462148453778 2.94141902205073 5.95800747318609 
6.10509090445035 3.39911076521221 5.91591694581689 
5.82347184366205 2.76375267601791 5.76740311050937 
5.43270443101597 3.09255372484586 5.54235844425042 
5.87226557025485 2.51824726070894 5.32631187028384 
6.39719914134883 2.51400158273465 5.17778966515601 
3.48344861212258 2.72224959395778 2.57886102870591 
3.69870366544629 4.0762682075349 2.18348916998212 
3.57621386240592 3.8424233662742 2.03712046929248 
5.46595256577933 3.30334635714454 4.86452889876643 
5.38954675280769 2.96750126613974 4.97486789755334 
5.54945908931769 3.45268374236565 5.55788044580746 
5.56441124216437 3.59281747066107 5.20072024868986 
4.34611839075883 3.40519408666965 2.74316207567524 
5.53202665610251 2.79162501627314 4.90184002793181 
3.00912127597751 3.15269847199211 2.61742960462632 
2.98023866611514 3.50775099070093 2.54223839674138 
3.79892293746356 2.72530392172745 2.33789856988578 
4.1917029668886 3.73268671532722 2.9644530796133 
3.78731005087045 3.75263314267439 3.22621280735039 
5.89307661138032 2.90135187865654 4.6708446261973 
5.86385421220301 3.28788158820785 4.63696600318995 
4.05108486990258 4.09533476820199 2.71976798432613 
3.68947526445101 4.14963212319174 2.92162810776774 
6.84540312644302 2.93571037373435 5.21348458352532 
6.87487189927288 3.22648917440036 5.24531138608572 
6.78834425345815 3.32260898449256 5.68587051738977 
4.16038313180536 3.2793622401143 2.025028370362 
4.29901071550487 3.55274323832319 2.21918722401569 
6.12407164818791 3.76746501623035 4.98891010420428 
3.69791895667861 3.05549019661139 3.10413162478434 
4.07574217444343 2.82993911106304 2.40056693335881 
4.1612873459785 2.99664300614303 2.79410522349885 
3.43785514095627 2.90085267014726 2.91990153105131 
6.18913175064149 3.59924986019072 4.78494867385457 
6.60357667930147 3.57983405162139 5.02058102142057 
6.74357265174411 2.73511256986409 5.48513536256355 
6.66707211911478 2.90501292318799 5.77634516952223 
3.08368161721431 2.97972021338184 2.37834627662647 
3.10452322307814 3.03339450224377 2.28696853606852 
6.48168497498405 3.74849844422345 5.18848521690215 
6.5473260956389 3.57249241643527 5.69806859010033 
POLYGONS 29 179
5 1 0 25 39 35 
7 28 29 42 43 33 32 2 
5 21 26 30 3 36 
5 4 5 31 27 6 
5 23 24 7 47 46 
5 11 10 8 9 19 
6 26 27 6 38 40 21 
6 8 10 12 13 44 45 
5 13 2 28 22 12 
6 4 5 15 16 7 24 
5 15 5 31 30 3 
5 0 25 14 46 47 
4 14 41 23 46 
5 1 0 47 7 16 
6 4 6 38 41 23 24 
6 14 25 39 40 38 41 
6 16 15 3 36 35 1 
5 17 18 11 19 20 
5 17 18 22 28 29 
5 17 20 37 42 29 
5 11 18 22 12 10 
6 9 19 20 37 48 49 
5 9 8 45 34 49 
4 13 2 32 44 
5 33 34 49 48 43 
5 35 36 21 40 39 
4 26 27 31 30 
5 33 34 45 44 32 
4 42 43 48 37 
CELL_DATA 29
SCALARS scalar_1 double
LOOKUP_TABLE default
0.0025738373726933955
0.00252699484621804
0.0025738373726933955
0.0025738373726933955
0.0025738373726933955
0.00252699484621804
0.0025738373726933955
0.00252699484621804
0.00252699484621804
0.0025738373726933955
0.0025738373726933955
0.0025738373726933955
0.0025738373726933955
0.0025738373726933955
0.0025738373726933955
0.0025738373726933955
0.0025738373726933955
0.00252699484621804
0.00252699484621804
0.00252699484621804
0.00252699484621804
0.00252699484621804
0.00252699484621804
0.00252699484621804
0.00252699484621804
0.0025738373726933955
0.0025738373726933955
0.00252699484621804
0.00252699484621804
