# vtk DataFile Version 2.0
polydata
ASCII
DATASET POLYDATA
POINTS 50 double
3.65758851350028 2.9088025954637 2.08525197751711 
3.9464719299566 3.29802644360177 1.9234594595403 
6.43940468747574 2.63388989811139 4.98165831656079 
4.05138756322978 4.03491529822666 2.29627682947862 
3.2130181336224 3.86292112513494 2.86893807840592 
3.45752581666397 4.15311601146644 2.76449698631171 
3.62992062552087 3.60395762828629 3.24650737666532 
3.02151804716605 3.48930456052692 2.33555604981952 
6.15164208627086 2.9421094423016 5.95619210917816 
6.10210922523892 3.3998120531516 5.91409816792452 
5.82049562588216 2.76444312076915 5.76558908570141 
5.42972645495729 3.09324406940401 5.54054342297145 
5.86928989125941 2.51893439370412 5.32449152009373 
6.39422610624841 2.51468969324513 5.17596895549653 
3.48048141180447 2.72293433557864 2.57704267564481 
3.69572237250575 4.0769553511609 2.18166543169924 
3.57323995894173 3.84312392741448 2.03530608363134 
5.46297373562923 3.30403516253236 4.86271681801324 
5.38656940045882 2.96819381739121 4.97305704472063 
5.54648415161034 3.45338236748051 5.55606539135933 
5.56143498236084 3.59351195989993 5.19891245689884 
4.34313914735277 3.40587696102953 2.74134501058943 
5.5290589457279 2.7923064050501 4.90002493229867 
3.00614098309321 3.15339675560303 2.61561480942845 
2.97725871415885 3.50844389775861 2.54042426620726 
3.79594947067976 2.7259890608423 2.33608355470648 
4.18872585108603 3.73336436706533 2.96263280703552 
3.78431752076734 3.75331269637515 3.22440233485847 
5.89010687998437 2.90203460270814 4.66902926863251 
5.86088349200131 3.28857016310059 4.63514933588787 
4.04810346452353 4.09602188919605 2.71794066273335 
3.68648256767108 4.15032192697312 2.91980756394689 
6.84241166712955 2.93638278859606 5.21166219203393 
6.87188390336979 3.2271823538547 5.24349079860831 
6.78535563639203 3.32330432374803 5.68405658076251 
4.15740533012536 3.28005068022614 2.02320735194447 
4.29603059505653 3.55342743066247 2.21736272298478 
6.12109914165162 3.76816097174246 4.98709818402663 
3.69494027172943 3.05617143233071 3.10231445040329 
4.07276368270142 2.8306224292628 2.39875063566163 
4.15830822203769 2.99732574486836 2.792287764681 
3.43488808279965 2.90154195969634 2.91809483006672 
6.18616075374641 3.59994148752753 4.78313245862531 
6.60059138332759 3.58052846958888 5.01875853107972 
6.74058569375882 2.73579364335027 5.48330159394872 
6.66408021120452 2.90570627021761 5.77453363674545 
3.0807040579281 2.98041301005276 2.37652434643138 
3.10154289078693 3.03407981658793 2.28515974243672 
6.4786977688585 3.74919530555612 5.18666548844185 
6.54433714781462 3.57318896098069 5.69625295529215 
POLYGONS 29 179
5 1 0 25 39 35 
7 28 29 42 43 33 32 2 
5 21 26 30 3 36 
5 4 5 31 27 6 
5 23 24 7 47 46 
5 11 10 8 9 19 
6 26 27 6 38 40 21 
6 8 10 12 13 44 45 
5 13 2 28 22 12 
6 4 5 15 16 7 24 
5 15 5 31 30 3 
5 0 25 14 46 47 
4 14 41 23 46 
5 1 0 47 7 16 
6 4 6 38 41 23 24 
6 14 25 39 40 38 41 
6 16 15 3 36 35 1 
5 17 18 11 19 20 
5 17 18 22 28 29 
5 17 20 37 42 29 
5 11 18 22 12 10 
6 9 19 20 37 48 49 
5 9 8 45 34 49 
4 13 2 32 44 
5 33 34 49 48 43 
5 35 36 21 40 39 
4 26 27 31 30 
5 33 34 45 44 32 
4 42 43 48 37 
CELL_DATA 29
SCALARS scalar_1 double
LOOKUP_TABLE default
0.002559370458868745
0.0024843776148149644
0.002559370458868745
0.002559370458868745
0.002559370458868745
0.0024843776148149644
0.002559370458868745
0.0024843776148149644
0.0024843776148149644
0.002559370458868745
0.002559370458868745
0.002559370458868745
0.002559370458868745
0.002559370458868745
0.002559370458868745
0.002559370458868745
0.002559370458868745
0.0024843776148149644
0.0024843776148149644
0.0024843776148149644
0.0024843776148149644
0.0024843776148149644
0.0024843776148149644
0.0024843776148149644
0.0024843776148149644
0.002559370458868745
0.002559370458868745
0.0024843776148149644
0.0024843776148149644
