# vtk DataFile Version 2.0
polydata
ASCII
DATASET POLYDATA
POINTS 50 double
3.65945352952993 2.912559849048 2.0820495462219 
3.94834239464594 3.30178890349299 1.92025341404624 
6.44126694745247 2.63765564342507 4.97845000319828 
4.05324269158869 4.03867644689762 2.29306213280449 
3.21487363128805 3.8666871992398 2.8657298135085 
3.45937907174649 4.1568795225508 2.76128934319916 
3.63177803419385 3.60772553918646 3.24330278078722 
3.02337305554224 3.49307208036201 2.33235733565208 
6.15349962038183 2.94588117441162 5.95298481225927 
6.10396437403551 3.40359500855222 5.91088697405683 
5.82235689390139 2.76821485503185 5.76238412806496 
5.43158603618579 3.09701468779683 5.53733825151662 
5.87115112695058 2.52270207875498 5.32127890077527 
6.39608990811371 2.51845889449714 5.17275515181319 
3.48235177555996 2.72669242557037 2.57383350350618 
3.69757882941763 4.08071651669928 2.17845085219239 
3.57510366825876 3.84689817201045 2.03210048957867 
5.46483138519108 3.3078035066438 4.85951345316366 
5.38842872509269 2.97196597606836 4.96985551881419 
5.54834689553949 3.45716173029788 5.55285964273547 
5.56329576746957 3.5972867626418 5.19571301151088 
4.34499648165134 3.4096345971227 2.7381380504613 
5.53092799343773 2.79606726936988 4.89681896959525 
3.00799690772611 3.1571694507192 2.61240786966044 
2.97911539173234 3.51221060819049 2.53721763332337 
3.79781283281247 2.72974763482534 2.3328787615602 
4.19058541302449 3.73711658052987 2.95942194867035 
3.78616309416497 3.75706717208131 3.22120009620397 
5.89197349254161 2.90579691493665 4.66582231624806 
5.86274877099266 3.2923377660939 4.63194092702926 
4.04995886926078 4.09978322683513 2.71472253874193 
3.68832830521609 4.1540858911449 2.91659511673964 
6.84425667869254 2.9401369004271 5.208446012002 
6.87373239363988 3.23095772307196 5.24027630205889 
6.78720386883984 3.32708247012041 5.68084941387172 
4.15926450723345 3.28381390345607 2.0199958970848 
4.29788720495633 3.5571862753281 2.21414768829279 
6.12296564226443 3.77193720326508 4.98389271426418 
3.69679827622109 3.05992662538832 3.09910683595183 
4.0746219464765 2.83437941319224 2.39554476902827 
4.16016546580401 3.00108245587411 2.78908070184929 
3.43675811281961 2.90530512419557 2.91489774903946 
6.18802804039736 3.60371433919342 4.77992465368438 
6.60244262002383 3.58430439947625 5.01554252165927 
6.7424355307357 2.73955613367927 5.48007430432571 
6.66592499621203 2.90948139211388 5.77132951099838 
3.08256296377097 2.98417997599952 2.37331043058644 
3.10339907586061 3.03783906791231 2.28195938359886 
6.48054818573833 3.75297288242996 5.18345090366295 
6.54618624745947 3.57696705785002 5.6930437397719 
POLYGONS 29 179
5 1 0 25 39 35 
7 28 29 42 43 33 32 2 
5 21 26 30 3 36 
5 4 5 31 27 6 
5 23 24 7 47 46 
5 11 10 8 9 19 
6 26 27 6 38 40 21 
6 8 10 12 13 44 45 
5 13 2 28 22 12 
6 4 5 15 16 7 24 
5 15 5 31 30 3 
5 0 25 14 46 47 
4 14 41 23 46 
5 1 0 47 7 16 
6 4 6 38 41 23 24 
6 14 25 39 40 38 41 
6 16 15 3 36 35 1 
5 17 18 11 19 20 
5 17 18 22 28 29 
5 17 20 37 42 29 
5 11 18 22 12 10 
6 9 19 20 37 48 49 
5 9 8 45 34 49 
4 13 2 32 44 
5 33 34 49 48 43 
5 35 36 21 40 39 
4 26 27 31 30 
5 33 34 45 44 32 
4 42 43 48 37 
CELL_DATA 29
SCALARS scalar_1 double
LOOKUP_TABLE default
0.0025454899030293928
0.0024387442117153905
0.0025454899030293928
0.0025454899030293928
0.0025454899030293928
0.0024387442117153905
0.0025454899030293928
0.0024387442117153905
0.0024387442117153905
0.0025454899030293928
0.0025454899030293928
0.0025454899030293928
0.0025454899030293928
0.0025454899030293928
0.0025454899030293928
0.0025454899030293928
0.0025454899030293928
0.0024387442117153905
0.0024387442117153905
0.0024387442117153905
0.0024387442117153905
0.0024387442117153905
0.0024387442117153905
0.0024387442117153905
0.0024387442117153905
0.0025454899030293928
0.0025454899030293928
0.0024387442117153905
0.0024387442117153905
