# vtk DataFile Version 2.0
polydata
ASCII
DATASET POLYDATA
POINTS 50 double
3.65229542241643 2.91120114420126 2.08603249715991 
3.9411890891379 3.30043485607894 1.92423277521833 
6.43410327094489 2.63629772752347 4.982431025164 
4.04607489427088 4.03732288702044 2.2970338322022 
3.20770393379565 3.86533883298771 2.86971039584209 
3.45220657967255 4.15552887291107 2.76527075450735 
3.62461097793998 3.60637853300278 3.24728695596294 
3.0162034250585 3.49172510993618 2.33634543724883 
6.14632986137065 2.94452786814636 5.95696715551573 
6.09679262069609 3.40225351207778 5.91486631682517 
5.81519054831139 2.76686216978656 5.76636778611382 
5.42441681054788 3.09566307416117 5.54132000114871 
5.86398523060358 2.52134604702626 5.32525521339227 
6.38892702014191 2.51710374797505 5.17673129782217 
3.47519808627649 2.7253348090302 2.57781004231284 
3.69040991573627 4.07936319122834 2.18242211083436 
3.56794202323367 3.84555803565351 2.0360810779456 
5.4576618020231 3.30645077982085 4.86349712126411 
5.38126044910365 2.97061638836291 4.97384008069957 
5.54118069194558 3.45581835946925 5.55684156635945 
5.55612853745959 3.59593975179658 5.19970169882584 
4.33783139685837 3.40827572348629 2.74211711623633 
5.52376925231284 2.79470672057159 4.90079940959823 
3.00082861202559 3.15582675183624 2.6163892532368 
2.97194725294238 3.51086291446478 2.54119955862221 
3.79065297962427 2.72839063513211 2.3368585766729 
4.18342234908527 3.73575273165769 2.96339803866943 
3.77898250803519 3.75570515162403 3.22518721878567 
5.88481382275056 2.90443766010499 4.66980269044772 
5.85558829228607 3.29098509976092 4.63592006070083 
4.0427913115698 4.09842993693431 2.71869069935042 
3.68114730661478 4.15273574524732 2.92057103221814 
6.83707693517059 2.93876751354755 5.21242098993432 
6.86655594951443 3.22960840853018 5.24425319770162 
6.78002665991308 3.32573488702522 5.68483308660736 
4.15210068597653 3.28246055003784 2.02397001239743 
4.29072130900524 3.55582900059896 2.21811865644773 
6.11580203564302 3.77059174232388 4.98787793905925 
3.68963201866852 3.05856629557284 3.10308661065199 
4.06745740619654 2.83302078433437 2.39952343644786 
4.15300041425834 2.9997234936531 2.79305917864383 
3.42960407171596 2.9039530703357 2.91888817174905 
6.18086637943671 3.60236359109636 4.78390415330026 
6.5952690172258 3.58295608046321 5.01951747976937 
6.73525979463922 2.73819429613599 5.48403896103271 
6.65874452037013 2.90813078273818 5.77531513604674 
3.07539808397541 2.98283075726285 2.37728312874892 
3.09623137738295 3.03648234889173 2.28594537698724 
6.47337180213182 3.75162800953908 5.18742959714522 
6.53900798786184 3.5756213972689 5.69702605763282 
POLYGONS 29 179
5 1 0 25 39 35 
7 28 29 42 43 33 32 2 
5 21 26 30 3 36 
5 4 5 31 27 6 
5 23 24 7 47 46 
5 11 10 8 9 19 
6 26 27 6 38 40 21 
6 8 10 12 13 44 45 
5 13 2 28 22 12 
6 4 5 15 16 7 24 
5 15 5 31 30 3 
5 0 25 14 46 47 
4 14 41 23 46 
5 1 0 47 7 16 
6 4 6 38 41 23 24 
6 14 25 39 40 38 41 
6 16 15 3 36 35 1 
5 17 18 11 19 20 
5 17 18 22 28 29 
5 17 20 37 42 29 
5 11 18 22 12 10 
6 9 19 20 37 48 49 
5 9 8 45 34 49 
4 13 2 32 44 
5 33 34 49 48 43 
5 35 36 21 40 39 
4 26 27 31 30 
5 33 34 45 44 32 
4 42 43 48 37 
CELL_DATA 29
SCALARS scalar_1 double
LOOKUP_TABLE default
0.002494577427410611
0.0024354706314409463
0.002494577427410611
0.002494577427410611
0.002494577427410611
0.0024354706314409463
0.002494577427410611
0.0024354706314409463
0.0024354706314409463
0.002494577427410611
0.002494577427410611
0.002494577427410611
0.002494577427410611
0.002494577427410611
0.002494577427410611
0.002494577427410611
0.002494577427410611
0.0024354706314409463
0.0024354706314409463
0.0024354706314409463
0.0024354706314409463
0.0024354706314409463
0.0024354706314409463
0.0024354706314409463
0.0024354706314409463
0.002494577427410611
0.002494577427410611
0.0024354706314409463
0.0024354706314409463
