# vtk DataFile Version 2.0
polydata
ASCII
DATASET POLYDATA
POINTS 50 double
3.64732899619697 2.90916810330983 2.09150752303743 
3.93622760232186 3.29840642644589 1.9297046744765 
6.42913892805824 2.63426464341321 4.98790461152922 
4.04109949526018 4.0352937224764 2.30249885289147 
3.20272673774782 3.86331440490232 2.87518275271866 
3.44722718979169 4.15350197234359 2.77074405516124 
3.61963746177862 3.60435428481429 3.25276347083171 
3.01122546158182 3.48970240396361 2.34182545023938 
6.14135937824225 2.94250090498301 5.96244182281738 
6.0918200121569 3.400238029675 5.92033726520425 
5.81022503832836 2.76483571867982 5.77184501146707 
5.41944729002844 3.09363722910165 5.54679430382444 
5.85902004141838 2.5193151010325 5.33072472853466 
6.38396408802175 2.51507393306765 5.18220005356581 
3.47023711987218 2.72330133629873 2.58328045812575 
3.68543412019168 4.07733463672208 2.18788675299867 
3.56297313102976 3.84354234875818 2.04155421701951 
5.45269088994354 3.30442209322576 4.86897327407243 
5.3762913761225 2.96859171715095 4.97931760420569 
5.53621376923154 3.45380029353273 5.56231540855284 
5.55116030320982 3.59391747502234 5.20518281627183 
4.33285821936236 3.40624093909841 2.74758984123744 
5.51881032927891 2.79267043716325 4.90627259448647 
2.99585152185615 3.15380888737604 2.62186209358149 
2.96697076090589 3.50883935246013 2.54667293171254 
3.78568580186847 2.72635770088916 2.34233264619598 
4.17845137290006 3.73371304711478 2.96886779638667 
3.77399714338088 3.75366743305814 3.23066620384584 
5.87985144706789 2.90240243047064 4.67527590757395 
5.85062488765884 3.28895607726953 4.64139154410714 
4.03781623858489 4.09640045140859 2.72415337437885 
3.67616180853835 4.15070887222395 2.92604017270075 
6.8320967804558 2.93672411043315 5.21788706101442 
6.86157912348371 3.22758552926108 5.24972058999852 
6.77504915429296 3.32371463060324 5.69030794651335 
4.14712928191063 3.28043264120873 2.02943710910798 
4.28574749803658 3.55379628637888 2.22358242402542 
6.11083693409405 3.76857097518221 4.99335473122429 
3.68465893099948 3.05652994461616 3.10855935069582 
4.06248472822576 2.83098599332344 2.40499628010428 
4.14802706762039 2.99768849757151 2.79853151204892 
3.42464272217566 2.90192472248901 2.92437129582714 
6.1759027926592 3.60033695224491 4.78937490588262 
6.59029594649353 3.58093193227766 5.02498381437777 
6.7302840693723 2.73615861686247 5.48949517650895 
6.65376390375215 2.90610704821625 5.78079279431417 
3.07042403511581 2.98080703099182 2.38274841948337 
3.09125475030616 3.03445156627622 2.29142326459607 
6.4683955105076 3.74960822858418 5.19289998807476 
6.53403014432376 3.57360199473402 5.70249915778982 
POLYGONS 29 179
5 1 0 25 39 35 
7 28 29 42 43 33 32 2 
5 21 26 30 3 36 
5 4 5 31 27 6 
5 23 24 7 47 46 
5 11 10 8 9 19 
6 26 27 6 38 40 21 
6 8 10 12 13 44 45 
5 13 2 28 22 12 
6 4 5 15 16 7 24 
5 15 5 31 30 3 
5 0 25 14 46 47 
4 14 41 23 46 
5 1 0 47 7 16 
6 4 6 38 41 23 24 
6 14 25 39 40 38 41 
6 16 15 3 36 35 1 
5 17 18 11 19 20 
5 17 18 22 28 29 
5 17 20 37 42 29 
5 11 18 22 12 10 
6 9 19 20 37 48 49 
5 9 8 45 34 49 
4 13 2 32 44 
5 33 34 49 48 43 
5 35 36 21 40 39 
4 26 27 31 30 
5 33 34 45 44 32 
4 42 43 48 37 
CELL_DATA 29
SCALARS scalar_1 double
LOOKUP_TABLE default
0.002448727813881956
0.002432928241939323
0.002448727813881956
0.002448727813881956
0.002448727813881956
0.002432928241939323
0.002448727813881956
0.002432928241939323
0.002432928241939323
0.002448727813881956
0.002448727813881956
0.002448727813881956
0.002448727813881956
0.002448727813881956
0.002448727813881956
0.002448727813881956
0.002448727813881956
0.002432928241939323
0.002432928241939323
0.002432928241939323
0.002432928241939323
0.002432928241939323
0.002432928241939323
0.002432928241939323
0.002432928241939323
0.002448727813881956
0.002448727813881956
0.002432928241939323
0.002432928241939323
