# vtk DataFile Version 2.0
polydata
ASCII
DATASET POLYDATA
POINTS 50 double
3.64546786689206 2.90934724164841 2.09620340731676 
3.93437208685634 3.29859144477228 1.93439734631041 
6.42727345370206 2.63445056985668 4.99259616614345 
4.03922967653463 4.03547788351681 2.30718481403211 
3.20085511960284 3.86350250368542 2.87987537675373 
3.44535352113318 4.15368804046883 2.77543775340909 
3.61776872614357 3.60454307990773 3.25746046764528 
3.00935370778619 3.48989242805816 2.3465262066711 
6.13948885052818 2.94269346346575 5.96713550869069 
6.08994727662448 3.400441570431 5.9250274320575 
5.80835780961924 2.76502830252506 5.77654075534106 
5.41757779302507 3.09382899313432 5.55148913426754 
5.85715283822122 2.51950316707228 5.3354123327063 
6.38209987355199 2.51526310294699 5.18688668889841 
3.46838134782348 2.72348002981669 2.58797041914558 
3.6835642127471 4.07751901134962 2.19257241731153 
3.56111028333533 3.84373956266163 2.04624834087327 
5.45081967309656 3.30461122231922 4.87366932902946 
5.37442198042831 2.96878450803473 4.98401516097866 
5.53434706032818 3.45400066250641 5.56700972168473 
5.54929188638039 3.59411350664562 5.20988409761576 
4.33099092673844 3.40642012263658 2.75228327176968 
5.51695072316045 2.79285198555073 4.91096590993724 
2.99398068085735 3.15400275350771 2.62655508199997 
2.96510051073684 3.50902839168393 2.55136649768077 
3.78382350533048 2.72653714595092 2.34702679434463 
4.17658611166168 3.73388668662736 2.97355797962019 
3.77211628378282 3.75384267448408 3.23536592500254 
5.87799044270254 2.90258527957425 4.67996821296757 
5.84876278978277 3.28914504170787 4.64608218358721 
4.03594651546789 4.09658437203913 2.72883611779224 
3.67428075071687 4.15089528659221 2.93072933072266 
6.83021582890465 2.9368995174543 5.22257164503643 
6.85970174662087 3.22778213774419 5.2544066866159 
6.77317133293485 3.32391390592951 5.6950014076586 
4.14526364979328 3.28061823755763 2.03412483287042 
4.2838795055131 3.55397762397737 2.22826726395588 
6.10897366866528 3.76876911719625 4.99805071677322 
3.68279098579023 3.05670565974689 3.11325220332171 
4.06061800739714 2.83116399236032 2.40968968658463 
4.14615930942245 2.99786591414956 2.80322429995675 
3.42278645224879 2.9021083849298 2.92907413646592 
6.17404114923866 3.60052951981539 4.7940654475112 
6.58842248260177 3.58112742690793 5.02966876414042 
6.7284074346642 2.73634192450627 5.49416981887128 
6.65188253721762 2.9063024237038 5.78548918494093 
3.06855628292435 2.98099522748098 2.38743375664902 
3.0893844058548 3.03463256929288 2.29612158568925 
6.46651928753999 3.74980759493136 5.19758858328238 
6.53215245673355 3.57380184102367 5.70719084147147 
POLYGONS 29 179
5 1 0 25 39 35 
7 28 29 42 43 33 32 2 
5 21 26 30 3 36 
5 4 5 31 27 6 
5 23 24 7 47 46 
5 11 10 8 9 19 
6 26 27 6 38 40 21 
6 8 10 12 13 44 45 
5 13 2 28 22 12 
6 4 5 15 16 7 24 
5 15 5 31 30 3 
5 0 25 14 46 47 
4 14 41 23 46 
5 1 0 47 7 16 
6 4 6 38 41 23 24 
6 14 25 39 40 38 41 
6 16 15 3 36 35 1 
5 17 18 11 19 20 
5 17 18 22 28 29 
5 17 20 37 42 29 
5 11 18 22 12 10 
6 9 19 20 37 48 49 
5 9 8 45 34 49 
4 13 2 32 44 
5 33 34 49 48 43 
5 35 36 21 40 39 
4 26 27 31 30 
5 33 34 45 44 32 
4 42 43 48 37 
CELL_DATA 29
SCALARS scalar_1 double
LOOKUP_TABLE default
0.002398527508096329
0.00242644890159711
0.002398527508096329
0.002398527508096329
0.002398527508096329
0.00242644890159711
0.002398527508096329
0.00242644890159711
0.00242644890159711
0.002398527508096329
0.002398527508096329
0.002398527508096329
0.002398527508096329
0.002398527508096329
0.002398527508096329
0.002398527508096329
0.002398527508096329
0.00242644890159711
0.00242644890159711
0.00242644890159711
0.00242644890159711
0.00242644890159711
0.00242644890159711
0.00242644890159711
0.00242644890159711
0.002398527508096329
0.002398527508096329
0.00242644890159711
0.00242644890159711
