# vtk DataFile Version 2.0
polydata
ASCII
DATASET POLYDATA
POINTS 50 double
3.64495251654221 2.90664834204565 2.08915930763269 
3.93386145831727 3.29589661855626 1.92734980893196 
6.42675217617102 2.63175438589893 4.98554855314708 
4.03870505229038 4.03278258630518 2.30012980388224 
3.20033140987143 3.86081197876421 2.87282755030133 
3.44482644897106 4.15099461541631 2.76839086674774 
3.61724511139602 3.60185436425717 3.25041428129249 
3.00882876827585 3.48720231155311 2.33948621296241 
6.13896390151323 2.9400026850887 5.96008770408914 
6.08942062479622 3.39776097837249 5.9179766822557 
5.80783517647896 2.76233788999545 5.7694940799328 
5.41705410805672 3.09113898716586 5.54444210718941 
5.85663034418187 2.51680977386511 5.328359732007 
6.38157957527632 2.5125701825415 5.17983379037964 
3.46786891468346 2.72078309565294 2.58092026414013 
3.68304024447635 4.074823762863 2.18551743800199 
3.56059297783555 3.84105626277487 2.03920161926266 
5.45029515457803 3.301919409695 4.8666250167518 
5.37389857741656 2.96609680929252 4.97697196133304 
5.53382661938022 3.45131820220658 5.55996276355391 
5.54877023493636 3.5914271882091 5.20284391416334 
4.33046826057383 3.40372092501905 2.74523396455164 
5.51643634667609 2.79015338240918 4.90391862249514 
2.99345700621291 3.15131738227449 2.61950706644616 
2.96457732680212 3.50633731573048 2.5443188378286 
3.78330610178803 2.72384031299787 2.3399794831678 
4.17606495074755 3.73118368874451 2.96650598752774 
3.77158162472166 3.75114157895444 3.22832212797283 
5.87747378819951 2.89988731651692 4.67292097249884 
5.84824557527199 3.2864525058923 4.63903368907416 
4.0354220356295 4.09388908454847 2.72177812068468 
3.67374603697086 4.14820233936048 2.92367738895455 
6.82967900963528 2.93419206216842 5.21551745598024 
6.85916837171406 3.22509434832309 5.24735417773182 
6.77263770040076 3.32122792097351 5.68795479764865 
4.14474264723409 3.27792401445151 2.02707223335867 
4.28335641528971 3.55127946238788 2.22121160768605 
6.10845562591851 3.76608354212097 4.99100654289112 
3.68226784529194 3.05400598721748 3.10620306444894 
4.06009604237735 2.82846538293585 2.40264125750109 
4.14563669498638 2.99516694024642 2.79617475587668 
3.42227381271588 2.8994157380995 2.92203405027263 
6.17352432803971 3.59783986890327 4.78701741681192 
6.58789240753237 3.57844008429945 5.02261485930773 
6.72787470572271 2.73364241974149 5.48710531608413 
6.65134556832829 2.90361387983963 5.77844476287014 
3.0680350095996 2.97830527907123 2.38038017746821 
3.08886062163157 3.03193572727896 2.28908005304496 
6.46598752621729 3.74712263993863 5.1905370336603 
6.53161907534858 3.57111658038895 5.70014287768765 
POLYGONS 29 179
5 1 0 25 39 35 
7 28 29 42 43 33 32 2 
5 21 26 30 3 36 
5 4 5 31 27 6 
5 23 24 7 47 46 
5 11 10 8 9 19 
6 26 27 6 38 40 21 
6 8 10 12 13 44 45 
5 13 2 28 22 12 
6 4 5 15 16 7 24 
5 15 5 31 30 3 
5 0 25 14 46 47 
4 14 41 23 46 
5 1 0 47 7 16 
6 4 6 38 41 23 24 
6 14 25 39 40 38 41 
6 16 15 3 36 35 1 
5 17 18 11 19 20 
5 17 18 22 28 29 
5 17 20 37 42 29 
5 11 18 22 12 10 
6 9 19 20 37 48 49 
5 9 8 45 34 49 
4 13 2 32 44 
5 33 34 49 48 43 
5 35 36 21 40 39 
4 26 27 31 30 
5 33 34 45 44 32 
4 42 43 48 37 
CELL_DATA 29
SCALARS scalar_1 double
LOOKUP_TABLE default
0.0023879151527999355
0.0023823411206813213
0.0023879151527999355
0.0023879151527999355
0.0023879151527999355
0.0023823411206813213
0.0023879151527999355
0.0023823411206813213
0.0023823411206813213
0.0023879151527999355
0.0023879151527999355
0.0023879151527999355
0.0023879151527999355
0.0023879151527999355
0.0023879151527999355
0.0023879151527999355
0.0023879151527999355
0.0023823411206813213
0.0023823411206813213
0.0023823411206813213
0.0023823411206813213
0.0023823411206813213
0.0023823411206813213
0.0023823411206813213
0.0023823411206813213
0.0023879151527999355
0.0023879151527999355
0.0023823411206813213
0.0023823411206813213
