# vtk DataFile Version 2.0
polydata
ASCII
DATASET POLYDATA
POINTS 50 double
3.64662584407465 2.90720426926872 2.09009010490519 
3.93553932349533 3.29645682169933 1.92827810232732 
6.42842663607645 2.63231204035983 4.98647859201611 
4.04036910725671 4.03334151454981 2.30105120306253 
3.20199563516385 3.86137486889925 2.87375423583863 
3.44648860189067 4.15155527525634 2.76931839967434 
3.61891145756567 3.60241864943855 3.25134398321642 
3.01049265083123 3.48776724802142 2.34042093606112 
6.14063364519603 2.94056540329064 5.96101795471053 
6.09108821518485 3.39833413910734 5.91890366684856 
5.80950900993691 2.7629008296236 5.77042640487785 
5.41872509537247 3.09170174555087 5.54537281476804 
5.85830444274383 2.51736916171035 5.32928460335733 
6.38325564726292 2.51313127355086 5.18075789916418 
3.46954690154726 2.72133948060184 2.58184430621171 
3.68470523574151 4.07538288909761 2.18643865695505 
3.562264512343 3.84162730299881 2.04013067711175 
5.45196480493148 3.30247963762151 4.86755849375884 
5.37557010277579 2.96666144360318 4.97790656042957 
5.5355001210903 3.45188865881946 5.56089322359895 
5.55044232909966 3.59199337002566 5.20378185960014 
4.33213384163661 3.40427638505425 2.74616186476636 
5.51811751269008 2.79070717077766 4.90484887675684 
2.9951217584277 3.15188698672807 2.62043419934228 
2.96624268103751 3.50690134809039 2.54524684388881 
3.78497757812513 2.72439752758187 2.34090759821385 
4.17773242520945 3.73173404927193 2.96743082351142 
3.77323713968055 3.75169362331663 3.22925417956693 
5.87915073815901 2.90044264939179 4.67385158779212 
5.84992118950516 3.28701249173704 4.63996333981394 
4.03708603954353 4.09444781386998 2.72269692392048 
3.67540186650911 4.14876317457305 2.92460088761616 
6.83133695120372 2.93473845621702 5.21644020921479 
6.86082951910029 3.22566065190805 5.2482787123811 
6.77429876235616 3.32179618683811 5.68888571868956 
4.14641017654739 3.27848487372928 2.02799575598238 
4.28502169106639 3.55183658551397 2.22213250581612 
6.11013105762398 3.76665111400729 4.99194012260453 
3.68393486382159 3.05455917310239 3.10712923724727 
4.06176272313431 2.82902110720307 2.40356860986168 
4.14730241101708 2.99572213417132 2.79710185476266 
3.42395152242872 2.89997629437305 2.92296943942904 
6.17520083834556 3.59840372439465 4.78794747692706 
6.58955629511165 3.57900656480076 5.0235385303559 
6.72953765636138 2.73419703854285 5.48801678784902 
6.65300384226538 2.9041801076963 5.77937800760995 
3.06970254204254 2.97886977603911 2.38130036775688 
3.09052561408388 3.03249322995059 2.29001279581225 
6.46764989232869 3.74769127405694 5.1914631639181 
6.53328023448394 3.57168536804436 5.70107234812039 
POLYGONS 29 179
5 1 0 25 39 35 
7 28 29 42 43 33 32 2 
5 21 26 30 3 36 
5 4 5 31 27 6 
5 23 24 7 47 46 
5 11 10 8 9 19 
6 26 27 6 38 40 21 
6 8 10 12 13 44 45 
5 13 2 28 22 12 
6 4 5 15 16 7 24 
5 15 5 31 30 3 
5 0 25 14 46 47 
4 14 41 23 46 
5 1 0 47 7 16 
6 4 6 38 41 23 24 
6 14 25 39 40 38 41 
6 16 15 3 36 35 1 
5 17 18 11 19 20 
5 17 18 22 28 29 
5 17 20 37 42 29 
5 11 18 22 12 10 
6 9 19 20 37 48 49 
5 9 8 45 34 49 
4 13 2 32 44 
5 33 34 49 48 43 
5 35 36 21 40 39 
4 26 27 31 30 
5 33 34 45 44 32 
4 42 43 48 37 
CELL_DATA 29
SCALARS scalar_1 double
LOOKUP_TABLE default
0.0023798585338405524
0.0023376822215438312
0.0023798585338405524
0.0023798585338405524
0.0023798585338405524
0.0023376822215438312
0.0023798585338405524
0.0023376822215438312
0.0023376822215438312
0.0023798585338405524
0.0023798585338405524
0.0023798585338405524
0.0023798585338405524
0.0023798585338405524
0.0023798585338405524
0.0023798585338405524
0.0023798585338405524
0.0023376822215438312
0.0023376822215438312
0.0023376822215438312
0.0023376822215438312
0.0023376822215438312
0.0023376822215438312
0.0023376822215438312
0.0023376822215438312
0.0023798585338405524
0.0023798585338405524
0.0023376822215438312
0.0023376822215438312
