# vtk DataFile Version 2.0
polydata
ASCII
DATASET POLYDATA
POINTS 50 double
3.65019159059534 2.90344773414729 2.0909110644807 
3.93911046050018 3.2927052154291 1.92909500031567 
6.43198765517629 2.62855757358914 4.98729757212151 
4.04392661515815 4.02958824776124 2.30185962670676 
3.20555229615004 3.85762525035411 2.87457001614588 
3.4500432242309 4.14780413056467 2.77013456850683 
3.62246940206888 3.59867115152865 3.25216193521908 
3.01404924916858 3.48401964148103 2.34124603604627 
6.14419161038453 2.93681767426016 5.9618362623322 
6.0946445390738 3.394596217429 5.9197184956066 
5.81306847519779 2.75915292237466 5.7712452958987 
5.42228383378519 3.08795418584297 5.54619086007341 
5.86186427624469 2.51361803816966 5.33009835385638 
6.38681746535707 2.50938022816554 5.18157174450198 
3.47311492432483 2.71758485724785 2.58265988996055 
3.68826280589751 4.07162962334581 2.18724693793967 
3.56582931216418 3.83788693182487 2.04094809873358 
5.45552318390304 3.29872962643606 4.86837914379524 
5.37912937559441 2.9629156508184 4.97872866692834 
5.53906226597986 3.44814871233032 5.56171099497932 
5.55400346873823 3.58824910044471 5.20460618984648 
4.33569297866175 3.40052005104837 2.74697676441669 
5.52168548379124 2.78695075683291 4.90566727155847 
2.9986801785955 3.14814203567315 2.62125163473379 
2.96980107762344 3.5031528514967 2.54606459024774 
3.78854133069388 2.72064292178385 2.34172552462511 
4.18129397778327 3.72797239085998 2.96824196049029 
3.77678412338589 3.74793386458394 3.23007436912166 
5.88271621939712 2.8966865879442 4.67467021851508 
5.85348631193129 3.28326131932479 4.6407803859338 
4.04064380830854 4.09069468078709 2.72350126275314 
3.67894845968796 4.14501261536547 2.92541178744123 
6.83488334623469 2.93097337906562 5.2172528944429 
6.86437931874782 3.2219140883465 5.24909268239389 
6.7778480258725 3.31805214795386 5.68970542719261 
4.14997106215656 3.27473385066798 2.02880756427633 
4.28858032482601 3.54808110874893 2.2229406771636 
6.11369567420602 3.76290699373358 4.99276072766459 
3.68749340868806 3.05080106527123 3.10794418139711 
4.06532218748145 2.82526466548258 2.40438551087345 
4.15086092818296 2.99196484027703 2.79791667753883 
3.42751980079582 2.8962248208612 2.92379303859913 
6.17876663691907 3.59465560454072 4.78876487380149 
6.59310918250948 3.57526077458765 5.02435041778299 
6.7330876926638 2.7304399193042 5.48881967992319 
6.65654961323065 2.90043411542706 5.78020028190566 
3.07326275389225 2.97512134892329 2.38211335252498 
3.0940835340327 3.02873872665089 2.29083640932114 
6.4712012924688 3.74394786818354 5.19227698586312 
6.53682975095295 3.56794225959083 5.70189019638307 
POLYGONS 29 179
5 1 0 25 39 35 
7 28 29 42 43 33 32 2 
5 21 26 30 3 36 
5 4 5 31 27 6 
5 23 24 7 47 46 
5 11 10 8 9 19 
6 26 27 6 38 40 21 
6 8 10 12 13 44 45 
5 13 2 28 22 12 
6 4 5 15 16 7 24 
5 15 5 31 30 3 
5 0 25 14 46 47 
4 14 41 23 46 
5 1 0 47 7 16 
6 4 6 38 41 23 24 
6 14 25 39 40 38 41 
6 16 15 3 36 35 1 
5 17 18 11 19 20 
5 17 18 22 28 29 
5 17 20 37 42 29 
5 11 18 22 12 10 
6 9 19 20 37 48 49 
5 9 8 45 34 49 
4 13 2 32 44 
5 33 34 49 48 43 
5 35 36 21 40 39 
4 26 27 31 30 
5 33 34 45 44 32 
4 42 43 48 37 
CELL_DATA 29
SCALARS scalar_1 double
LOOKUP_TABLE default
0.002370424551373127
0.0022967095579659496
0.002370424551373127
0.002370424551373127
0.002370424551373127
0.0022967095579659496
0.002370424551373127
0.0022967095579659496
0.0022967095579659496
0.002370424551373127
0.002370424551373127
0.002370424551373127
0.002370424551373127
0.002370424551373127
0.002370424551373127
0.002370424551373127
0.002370424551373127
0.0022967095579659496
0.0022967095579659496
0.0022967095579659496
0.0022967095579659496
0.0022967095579659496
0.0022967095579659496
0.0022967095579659496
0.0022967095579659496
0.002370424551373127
0.002370424551373127
0.0022967095579659496
0.0022967095579659496
