# vtk DataFile Version 2.0
polydata
ASCII
DATASET POLYDATA
POINTS 50 double
3.61971583412179 2.91529193564597 2.02016507703975 
3.90817863145426 3.30410751876478 1.85865078954998 
6.40175072363715 2.64016484731966 4.91682418000993 
4.01421245639966 4.04103028755923 2.23205143449851 
3.17598875585678 3.86867501786638 2.80409913345968 
3.42066804695695 4.15903655987719 2.6995923634608 
3.59265639226126 3.60964604061708 3.18135726129202 
2.98451206421359 3.49492430230975 2.27008724924791 
6.11439334990093 2.94793711209737 5.89121933984152 
6.0650220408637 3.40473815772411 5.84939497472844 
5.78297365539796 2.77024575416214 5.70047715459205 
5.39241446630603 3.09902659505265 5.47555773036202 
5.83175273803774 2.52505101027671 5.25997607383611 
6.35648625068158 2.52073483164138 5.11150112118224 
3.44222841507656 2.72939270340856 2.51241227671344 
3.65857783082009 4.08304581388127 2.11746617962032 
3.53553682596476 3.84819206358572 1.97040812933751 
5.4257501471126 3.30997548277479 4.79759745315299 
5.34922784069152 2.9738550814411 4.90783601080507 
5.50893269706209 3.45850141590311 5.49109829973551 
5.52399237565826 3.59895425382795 5.13339986123261 
4.30577752137079 3.41238445384459 2.67651661875058 
5.49095945056246 2.79884609019986 4.83513710149426 
2.96905184695054 3.15867958506235 2.55071679975306 
2.94013280995628 3.51412801711289 2.47548608722641 
3.75818674688227 2.73240431881122 2.27116794059244 
4.15118819647574 3.74028838697996 2.89805831919654 
3.74802127582683 3.76009070039491 3.15904427376598 
5.85215766933461 2.90847969222775 4.604174356538 
5.82300666902581 3.2945361604407 4.5704066368437 
4.01090820683985 4.10213702216407 2.65395744765745 
3.65020827573152 4.15621685135809 2.85528153536571 
6.80596629041024 2.94348871554503 5.1473526851956 
6.83517411656777 3.23269958156455 5.17905487927138 
6.74869623541269 3.32863205498743 5.61904278408559 
4.11992964739845 3.28608388896808 1.95880086344044 
4.25872764050508 3.55979218717702 2.1532047793611 
6.08332212833604 3.77348145782979 4.92194046156471 
3.65762952156101 3.06285393285222 3.03747760278063 
4.03537180854372 2.83716635093519 2.33391670682368 
4.1209725467532 3.00389887864636 2.72749589899298 
3.39666009804128 2.90759633093084 2.85245325539707 
6.1482631866097 3.60566934444787 4.71838259129726 
6.56361701315864 3.58605906705505 4.95442755502544 
6.70382157668161 2.74231895073327 5.41975186037712 
6.62768931795209 2.91131563989802 5.70931574995085 
3.04337186041135 2.98616366879122 2.31223895266913 
3.0644194418504 3.04040140333019 2.21985749234125 
6.44192873645003 3.75444488143928 5.12206098542866 
6.5076969107644 3.57843948339374 5.63137091550481 
POLYGONS 29 179
5 1 0 25 39 35 
7 28 29 42 43 33 32 2 
5 21 26 30 3 36 
5 4 5 31 27 6 
5 23 24 7 47 46 
5 11 10 8 9 19 
6 26 27 6 38 40 21 
6 8 10 12 13 44 45 
5 13 2 28 22 12 
6 4 5 15 16 7 24 
5 15 5 31 30 3 
5 0 25 14 46 47 
4 14 41 23 46 
5 1 0 47 7 16 
6 4 6 38 41 23 24 
6 14 25 39 40 38 41 
6 16 15 3 36 35 1 
5 17 18 11 19 20 
5 17 18 22 28 29 
5 17 20 37 42 29 
5 11 18 22 12 10 
6 9 19 20 37 48 49 
5 9 8 45 34 49 
4 13 2 32 44 
5 33 34 49 48 43 
5 35 36 21 40 39 
4 26 27 31 30 
5 33 34 45 44 32 
4 42 43 48 37 
CELL_DATA 29
SCALARS scalar_1 double
LOOKUP_TABLE default
0.006267246967324177
0.002963887014826823
0.006267246967324177
0.006267246967324177
0.006267246967324177
0.002963887014826823
0.006267246967324177
0.002963887014826823
0.002963887014826823
0.006267246967324177
0.006267246967324177
0.006267246967324177
0.006267246967324177
0.006267246967324177
0.006267246967324177
0.006267246967324177
0.006267246967324177
0.002963887014826823
0.002963887014826823
0.002963887014826823
0.002963887014826823
0.002963887014826823
0.002963887014826823
0.002963887014826823
0.002963887014826823
0.006267246967324177
0.006267246967324177
0.002963887014826823
0.002963887014826823
