# vtk DataFile Version 2.0
polydata
ASCII
DATASET POLYDATA
POINTS 50 double
3.61577775227203 2.9181131862424 2.01800736368531 
3.90425713036273 3.30694802726317 1.85648202978992 
6.39780232305337 2.64299508518474 4.91465603684371 
4.01026609442462 4.04388023330481 2.22987176942398 
3.17200699592175 3.8715338933719 2.80194926434738 
3.41668862334411 4.16189736905937 2.69744362922188 
3.58870112699628 3.61249504917449 3.17923356499371 
2.98053613587235 3.49778796546377 2.26794441538492 
6.11043647056693 2.95077437676967 5.88908094188697 
6.06106157443357 3.40760495938322 5.84725037158205 
5.77901902913823 2.77308364267252 5.69834034400795 
5.38844637836026 3.10187031133547 5.47341214895836 
5.82779658220778 2.5278779497099 5.25781981479607 
6.35253642259979 2.52355981360126 5.10934271351118 
3.43830452809178 2.73220699047518 2.51025323837696 
3.65461571364883 4.08589797168175 2.11528062022764 
3.53159038198148 3.85107270680611 1.96824329505608 
5.42178012077692 3.31282171328195 4.79543880679484 
5.34525831341384 2.9766947200043 4.90567960383284 
5.50497203767697 3.46136696587919 5.4889518481618 
5.52002877721033 3.60181582311537 5.13125882184456 
4.30184126073651 3.41521105758561 2.67436827547551 
5.48700104777785 2.80167336615442 4.83297620849988 
2.96507570425848 3.16154677695325 2.54857335459094 
2.93615673909277 3.51699238177636 2.47334155071179 
3.75425126474059 2.73522025244593 2.26901513265976 
4.1472583036393 3.74310173274036 2.89590370839842 
3.74403619757865 3.76290646835522 3.15692706720654 
5.84821179230038 2.91130980674107 4.60200656768336 
5.81906044734918 3.297384054206 4.56823582688495 
4.00696245593537 4.10498894325265 2.65177565828581 
3.6462175255039 4.15907844733944 2.85312587807763 
6.8020181605571 2.94632109324549 5.14518335820419 
6.83122894658907 3.23555225742052 5.17688635099251 
6.74474547271535 3.33149285233878 5.61690005346486 
4.1159927067122 3.28892533985402 1.95662358795268 
4.25478788674709 3.56262683413222 2.15102207406433 
6.079369952192 3.77634946638853 4.91979054472099 
3.65367525552272 3.06567011153966 3.03534098568516 
4.03143093550823 2.83998101144589 2.33176246245142 
4.1170315364869 3.00671621595631 2.72534706976374 
3.3927330697025 2.91043131809579 2.85034127125337 
6.14431644476251 3.60851767535433 4.71620920810436 
6.55967604507174 3.5889085499741 4.95225736295471 
6.69986989584857 2.74514383729065 5.41759285434008 
6.62373087605702 2.91415355679911 5.70717882667453 
3.03940798764874 2.98900643363112 2.31006354577048 
3.06045054006162 3.04323008762107 2.21770781547299 
6.43797342959479 3.75731357633367 5.11990857951282 
6.50373939245099 3.5813064480158 5.62922480156325 
POLYGONS 29 179
5 1 0 25 39 35 
7 28 29 42 43 33 32 2 
5 21 26 30 3 36 
5 4 5 31 27 6 
5 23 24 7 47 46 
5 11 10 8 9 19 
6 26 27 6 38 40 21 
6 8 10 12 13 44 45 
5 13 2 28 22 12 
6 4 5 15 16 7 24 
5 15 5 31 30 3 
5 0 25 14 46 47 
4 14 41 23 46 
5 1 0 47 7 16 
6 4 6 38 41 23 24 
6 14 25 39 40 38 41 
6 16 15 3 36 35 1 
5 17 18 11 19 20 
5 17 18 22 28 29 
5 17 20 37 42 29 
5 11 18 22 12 10 
6 9 19 20 37 48 49 
5 9 8 45 34 49 
4 13 2 32 44 
5 33 34 49 48 43 
5 35 36 21 40 39 
4 26 27 31 30 
5 33 34 45 44 32 
4 42 43 48 37 
CELL_DATA 29
SCALARS scalar_1 double
LOOKUP_TABLE default
0.005673415811965757
0.0035186837066133454
0.005673415811965757
0.005673415811965757
0.005673415811965757
0.0035186837066133454
0.005673415811965757
0.0035186837066133454
0.0035186837066133454
0.005673415811965757
0.005673415811965757
0.005673415811965757
0.005673415811965757
0.005673415811965757
0.005673415811965757
0.005673415811965757
0.005673415811965757
0.0035186837066133454
0.0035186837066133454
0.0035186837066133454
0.0035186837066133454
0.0035186837066133454
0.0035186837066133454
0.0035186837066133454
0.0035186837066133454
0.005673415811965757
0.005673415811965757
0.0035186837066133454
0.0035186837066133454
