# vtk DataFile Version 2.0
polydata
ASCII
DATASET POLYDATA
POINTS 50 double
3.61498569702442 2.91861695683904 2.0157460045978 
3.9034792430594 3.30746844115014 1.85421143858666 
6.39700243964503 2.64351038568039 4.91238484072216 
4.00946241608314 4.04440596934716 2.22759047376937 
3.17118120798312 3.87206723221906 2.79969166991473 
3.41586242842373 4.16243035447557 2.69518767245698 
3.5878939218862 3.61302246820669 3.17699462208082 
2.97971264784486 3.49832535741338 2.2656970017583 
6.10962613771958 2.95129965708269 5.88682927135669 
6.06024727207151 3.40815651248323 5.84499216521013 
5.77821338339193 2.77360930240685 5.69609138845774 
5.38763044140124 3.10239859713259 5.4711566748826 
5.82699042235777 2.52839301039219 5.25555232897645 
6.35173663213717 2.52407469539815 5.10707341912948 
3.43752608707479 2.73270554017149 2.50798707318968 
3.65380253811159 4.08642520003043 2.11299597084394 
3.53079167591935 3.85162648451393 1.96597710120762 
5.42096157530971 3.31334914598813 4.79317642702091 
5.34444182286787 2.97722127420461 4.90341962435465 
5.50416242401112 3.46191508941126 5.48669544747126 
5.51921613141601 3.60235813289584 5.12901162658682 
4.30104640249857 3.41571829211448 2.67211094091275 
5.48619951363271 2.80218319519102 4.83071006030392 
2.96425305074062 3.16208952720395 2.54631910414659 
2.93533459658441 3.51752923739551 2.47108717232346 
3.75346051982977 2.73572059760144 2.2667556858912 
4.14646870266112 3.74359684553532 2.89364066797094 
3.74320194353713 3.76340384523993 3.15469403211583 
5.84741676618634 2.91182244089373 4.59973554539378 
5.81826435404203 3.29791261032154 4.56596143843484 
4.00615955866934 4.10551525127305 2.64949104431873 
3.64537922733333 4.1596120865731 2.85086220072092 
6.80120605871508 2.9468296127453 5.14290602351558 
6.83042154216124 3.23609008243087 5.17461055177424 
6.74393387541941 3.33203791227196 5.61464577836515 
4.11519798321693 3.28944678183413 1.95434390699063 
4.2539898462322 3.56314106378351 2.14873724317863 
6.07856826824429 3.77689777350427 4.9175340359879 
3.65286931983971 3.06616771624352 3.03309083606857 
4.03063354046729 2.84047963435139 2.32950133985293 
4.1162335925194 3.00721609006436 2.72308896641308 
3.39195251237743 2.91094635415273 2.84811394107783 
6.14351966474711 3.6090485907228 4.71393277820503 
6.55887529456389 3.58944242092007 4.94997976747174 
6.69905889423676 2.74565428080752 5.41531374050399 
6.62291170856396 2.91468168068381 5.70493041911675 
3.03859495720454 2.98953005793241 2.30778393843939 
3.05963235367013 3.0437396163566 2.21545395970236 
6.43716082702214 3.75786324717661 5.11764553542374 
6.50292381159203 3.58185567882058 5.62696684649336 
POLYGONS 29 179
5 1 0 25 39 35 
7 28 29 42 43 33 32 2 
5 21 26 30 3 36 
5 4 5 31 27 6 
5 23 24 7 47 46 
5 11 10 8 9 19 
6 26 27 6 38 40 21 
6 8 10 12 13 44 45 
5 13 2 28 22 12 
6 4 5 15 16 7 24 
5 15 5 31 30 3 
5 0 25 14 46 47 
4 14 41 23 46 
5 1 0 47 7 16 
6 4 6 38 41 23 24 
6 14 25 39 40 38 41 
6 16 15 3 36 35 1 
5 17 18 11 19 20 
5 17 18 22 28 29 
5 17 20 37 42 29 
5 11 18 22 12 10 
6 9 19 20 37 48 49 
5 9 8 45 34 49 
4 13 2 32 44 
5 33 34 49 48 43 
5 35 36 21 40 39 
4 26 27 31 30 
5 33 34 45 44 32 
4 42 43 48 37 
CELL_DATA 29
SCALARS scalar_1 double
LOOKUP_TABLE default
0.005264892195561353
0.003858161498472386
0.005264892195561353
0.005264892195561353
0.005264892195561353
0.003858161498472386
0.005264892195561353
0.003858161498472386
0.003858161498472386
0.005264892195561353
0.005264892195561353
0.005264892195561353
0.005264892195561353
0.005264892195561353
0.005264892195561353
0.005264892195561353
0.005264892195561353
0.003858161498472386
0.003858161498472386
0.003858161498472386
0.003858161498472386
0.003858161498472386
0.003858161498472386
0.003858161498472386
0.003858161498472386
0.005264892195561353
0.005264892195561353
0.003858161498472386
0.003858161498472386
