# vtk DataFile Version 2.0
polydata
ASCII
DATASET POLYDATA
POINTS 24 double
 4.28915e+00  5.58411e+00  4.11399e+00
 4.31759e+00  5.87798e+00  4.18030e+00
 4.13155e+00  5.26177e+00  4.45284e+00
 4.22965e+00  5.99644e+00  4.65679e+00
 4.08579e+00  5.41841e+00  4.79014e+00
 4.49363e+00  4.85342e+00  4.74815e+00
 4.24878e+00  5.27088e+00  4.99252e+00
 5.21074e+00  4.99777e+00  4.92914e+00
 5.09200e+00  4.83543e+00  4.78675e+00
 4.71130e+00  5.58402e+00  5.25760e+00
 5.18282e+00  5.94357e+00  4.95861e+00
 5.18753e+00  6.11227e+00  4.61137e+00
 5.35517e+00  5.70238e+00  4.25931e+00
 5.45512e+00  5.28696e+00  4.76223e+00
 5.45553e+00  5.28514e+00  4.45210e+00
 4.77863e+00  5.40859e+00  3.95206e+00
 4.91502e+00  4.91238e+00  4.22262e+00
 5.01550e+00  5.73682e+00  3.98733e+00
 5.13710e+00  4.88218e+00  4.36204e+00
 4.44214e+00  4.86904e+00  4.50885e+00
 4.78559e+00  6.03547e+00  4.09932e+00
 4.41954e+00  6.13186e+00  4.77726e+00
 4.88181e+00  6.23299e+00  4.45773e+00
 4.76503e+00  5.86064e+00  5.19555e+00
POLYGONS 14 86
5      2      4      3      1      0      
5      8      7      9      6      5      
5      13     14     12     11     10     
6      17     12     14     18     16     15     
5      6      4      2      19     5      
5      0      1      20     17     15     
5      1      3      21     22     20     
6      4      6      9      23     21     3      
5      15     16     19     2      0      
5      19     16     18     8      5      
5      10     23     9      7      13     
5      21     23     10     11     22     
5      22     11     12     17     20     
5      8      18     14     13     7      
