# vtk DataFile Version 2.0
polydata
ASCII
DATASET POLYDATA
POINTS 24 double
 4.46916e+00  5.55362e+00  4.28480e+00
 4.47851e+00  5.74642e+00  4.31925e+00
 4.36227e+00  5.34719e+00  4.49752e+00
 4.41424e+00  5.82986e+00  4.63031e+00
 4.32332e+00  5.44682e+00  4.71739e+00
 4.59144e+00  5.07598e+00  4.68969e+00
 4.43503e+00  5.35191e+00  4.84670e+00
 5.06676e+00  5.16541e+00  4.81220e+00
 4.98949e+00  5.05303e+00  4.71851e+00
 4.73565e+00  5.55396e+00  5.01060e+00
 5.04039e+00  5.78782e+00  4.82456e+00
 5.04854e+00  5.90472e+00  4.60004e+00
 5.14586e+00  5.62939e+00  4.37499e+00
 5.22440e+00  5.36002e+00  4.69940e+00
 5.22097e+00  5.36000e+00  4.49571e+00
 4.77854e+00  5.44517e+00  4.19938e+00
 4.86630e+00  5.12234e+00  4.34937e+00
 4.92818e+00  5.65005e+00  4.20495e+00
 5.01708e+00  5.08929e+00  4.43430e+00
 4.55900e+00  5.08878e+00  4.53290e+00
 4.78308e+00  5.84930e+00  4.26619e+00
 4.53878e+00  5.92230e+00  4.71105e+00
 4.84726e+00  5.98863e+00  4.49792e+00
 4.76968e+00  5.73493e+00  4.97949e+00
POLYGONS 14 86
5      2      4      3      1      0      
5      8      7      9      6      5      
5      13     14     12     11     10     
6      17     12     14     18     16     15     
5      6      4      2      19     5      
5      0      1      20     17     15     
5      1      3      21     22     20     
6      4      6      9      23     21     3      
5      15     16     19     2      0      
5      19     16     18     8      5      
5      10     23     9      7      13     
5      21     23     10     11     22     
5      22     11     12     17     20     
5      8      18     14     13     7      
