# vtk DataFile Version 2.0
polydata
ASCII
DATASET POLYDATA
POINTS 24 double
 4.29188e+00  5.58448e+00  4.11114e+00
 4.31926e+00  5.87621e+00  4.17661e+00
 4.13196e+00  5.26368e+00  4.44650e+00
 4.22883e+00  5.99667e+00  4.65055e+00
 4.08369e+00  5.41936e+00  4.78403e+00
 4.49126e+00  4.85283e+00  4.74237e+00
 4.24493e+00  5.27097e+00  4.98781e+00
 5.21164e+00  4.99582e+00  4.92535e+00
 5.09172e+00  4.83369e+00  4.78189e+00
 4.70894e+00  5.58582e+00  5.25717e+00
 5.18328e+00  5.94696e+00  4.95431e+00
 5.18614e+00  6.11365e+00  4.60525e+00
 5.35176e+00  5.70294e+00  4.25324e+00
 5.45661e+00  5.28694e+00  4.75702e+00
 5.45467e+00  5.28589e+00  4.44562e+00
 4.77640e+00  5.41107e+00  3.95167e+00
 4.91280e+00  4.91519e+00  4.21691e+00
 5.01144e+00  5.73590e+00  3.98528e+00
 5.13544e+00  4.88320e+00  4.35602e+00
 4.44060e+00  4.87043e+00  4.50247e+00
 4.78375e+00  6.03269e+00  4.09611e+00
 4.41788e+00  6.13291e+00  4.77133e+00
 4.87995e+00  6.23239e+00  4.45190e+00
 4.76327e+00  5.86410e+00  5.19356e+00
POLYGONS 14 86
5      2      4      3      1      0      
5      8      7      9      6      5      
5      13     14     12     11     10     
6      17     12     14     18     16     15     
5      6      4      2      19     5      
5      0      1      20     17     15     
5      1      3      21     22     20     
6      4      6      9      23     21     3      
5      15     16     19     2      0      
5      19     16     18     8      5      
5      10     23     9      7      13     
5      21     23     10     11     22     
5      22     11     12     17     20     
5      8      18     14     13     7      
