# vtk DataFile Version 2.0
Really cool data
ASCII
DATASET POLYDATA
POINTS 878 double
4.774811971508079 9.079543767621775 5.616486270837611
4.774811971508079 2.301830242128463 8.209729703427895
4.774811971508079 8.794035739183983 2.6288653693109234
4.774811971508079 4.394042712194809 2.691828217263158
4.774811971508079 8.744489195741052 7.452361944612615
4.774811971508079 1.805005899722561 3.191778599089713
4.774811971508079 9.115515606303301 5.591781024388673
4.774811971508079 0.5180656864423345 1.3071138934902358
4.774811971508079 7.4420895605731525 8.991576908671666
4.774811971508079 3.2860088567843078 8.749683633484478
4.774811971508079 4.726902664143124 1.7277030899669963
4.774811971508079 5.714342168629249 2.9911056717332176
4.774811971508079 5.015937085873427 8.35729801818703
4.774811971508079 2.1830143676501472 0.5562660565586239
4.774811971508079 1.8423227206888886 2.213389284388237
4.774811971508079 7.8792860667225 7.336568543849555
4.774811971508079 7.317648118010231 5.438321110255501
4.774811971508079 3.321381952211484 0.37756203574411984
4.774811971508079 3.2236860011527875 6.6700099813650295
4.774811971508079 6.9402137381832905 8.456769774786682
4.774811971508079 7.769087172270688 3.8841221030151085
4.774811971508079 5.896011696965119 7.736586852217838
4.774811971508079 9.423268063235003 7.36368644145413
4.774811971508079 3.1627842159600124 3.1076749986539225
4.774811971508079 8.662237502122661 4.3902251653600395
4.774811971508079 2.7447619578244202 5.390559037777282
4.774811971508079 3.988864359114848 7.453307177757089
4.774811971508079 8.979377789835688 3.22830991647466
4.774811971508079 7.739573362772322 3.910859899987437
4.774811971508079 0.7560113806712174 8.596206554615671
4.774811971508079 4.448527208837521 2.2193094771012363
4.774811971508079 5.964493241367394 2.1575821265403983
4.774811971508079 0.5741059171508163 7.766552139295979
4.774811971508079 7.926743286427829 1.6434776763208405
4.774811971508079 9.40670336169852 6.571405731174719
4.774811971508079 0.4182879766502544 3.2457842341591334
4.774811971508079 5.254761638193825 5.911604051015735
4.774811971508079 1.9011489609788557 2.7302799560345172
4.774811971508079 4.393810195165034 2.6932643014638096
4.774811971508079 3.201751391045931 8.92359772191931
4.774811971508079 0.8611405243181494 6.366393658526943
4.774811971508079 6.095721668412484 8.800642135424146
4.774811971508079 1.8785275613317614 3.6205738237523506
4.774811971508079 7.312351696889557 6.621149720121848
4.774811971508079 7.927777385036002 1.631328508830294
4.774811971508079 8.391820507722004 3.7191390608615973
4.774811971508079 3.718535267594679 0.439326536406038
4.774811971508079 3.052891859326244 1.254502196884992
4.774811971508079 3.7336403334536907 6.8492963875243476
4.774811971508079 8.829090779307055 2.562471378166189
4.774811971508079 5.913437313473675 7.843622603086273
4.774811971508079 7.959720514879337 7.43360473135117
4.774811971508079 6.707094407517774 6.160496271688534
4.774811971508079 1.9675351847112017 9.116953384348871
4.774811971508079 0.8856288636898798 1.3855032104286928
4.774811971508079 4.855131285230205 7.412604084253078
4.774811971508079 1.974774436879766 5.367125667478988
4.774811971508079 8.802184328283206 2.610879682655776
4.774811971508079 5.656522873212394 7.536339959020329
4.774811971508079 2.3652295353946085 9.026439806625854
4.774811971508079 7.798273599882431 7.676922391821556
4.774811971508079 5.396582994969605 2.327176383271076
4.774811971508079 3.045329258285491 0.6799942685533401
4.774811971508079 9.583155478166494 2.327905402543015
4.774811971508079 7.889548671862665 4.236253833901054
4.774811971508079 9.179671864324492 4.5475264964373325
4.774811971508079 5.522410771304546 9.339658010584943
4.774811971508079 8.028011647282039 6.133578038380846
4.774811971508079 1.9782695678385835 4.672782029646988
4.774811971508079 1.830258578244074 0.543203014575107
4.774811971508079 7.973880114944512 1.6455560578888866
4.774811971508079 7.0973111901642065 8.048139839048124
4.774811971508079 0.22221377800338127 6.359437293688664
4.774811971508079 1.2358487737684805 9.745424818461862
4.774811971508079 8.14804401975528 8.874016136301917
4.774811971508079 6.405224897119026 7.011919156329432
4.774811971508079 9.436104052318361 8.200255484134894
4.774811971508079 3.108168489269749 5.648366554932522
4.774811971508079 3.476916478604515 8.414162117310019
4.774811971508079 0.9449333601206806 8.628558174097842
4.774811971508079 2.2826397810905554 0.47322280487123153
4.774811971508079 0.6927917653399569 7.7632221676503255
4.774811971508079 9.891006305234423 3.960340916133339
4.774811971508079 8.027804445048465 6.125494671936959
4.774811971508079 6.650395586072931 5.975619682589544
4.774811971508079 2.580536345881168 1.647871888689487
4.774811971508079 5.463941878592539 1.2711096389814618
4.774811971508079 6.609708884705995 0.26556501145481193
4.774811971508079 7.489189596189858 2.643593090171965
4.774811971508079 2.8187067042960265 7.0524725810410125
4.774811971508079 6.232644050179864 0.289152447955753
4.774811971508079 4.868157380630145 4.556241178494166
4.774811971508079 6.88375691646064 0.7999276949838342
4.774811971508079 6.673281100755149 9.493310463589578
4.774811971508079 4.418166455218142 3.1879676855492867
4.774811971508079 8.137003322100126 2.998058175615343
4.774811971508079 1.3967176817204312 3.2135407316156317
4.774811971508079 0.9839217557880485 4.827302106813365
4.774811971508079 7.569792408321008 1.2172409769770416
4.774811971508079 1.5450474588774232 3.5578544579655556
4.774811971508079 2.0043878538047712 8.126644930225083
4.774811971508079 6.040533876232283 4.092175536618333
4.774811971508079 5.086804881742099 8.853802477603825
4.774811971508079 8.802078181826468 2.9799873008969606
4.774811971508079 5.89478749417768 5.3431562411736575
4.774811971508079 2.4624844439695837 2.020452079884677
4.774811971508079 3.9988583164551637 7.2255309126530625
4.774811971508079 3.041075645899902 0.6890153565544354
4.774811971508079 0.45946732565679566 9.724752600379935
4.774811971508079 5.049708528059753 1.3427359985188496
4.774811971508079 8.924374547458333 8.114075103753981
4.774811971508079 2.7874436563333984 7.4936671497488545
4.774811971508079 8.265042199848951 4.6564168291402455
4.774811971508079 3.5819444509707026 7.84060255590343
4.774811971508079 5.208999176191631 3.414777112176609
4.774811971508079 6.359129066656682 7.5370918297566485
4.774811971508079 8.740896399863082 8.272744284193275
4.774811971508079 2.3344020231209432 9.624987314823189
4.774811971508079 6.3221789221810205 3.733696798327526
4.774811971508079 2.588486362803594 6.369127810501407
4.774811971508079 1.819326681957113 6.815208748897746
4.774811971508079 4.787578432552672 4.198426031906369
4.774811971508079 3.480851953458265 9.473905008801392
4.774811971508079 4.167195254808849 5.205180280541859
4.774811971508079 4.948013180551632 0.82923995888087
4.774811971508079 9.037491003329874 4.467988859780492
4.774811971508079 4.810518351295745 1.3407520023814334
4.774811971508079 7.172028740835584 5.2342122441311245
4.774811971508079 0.9264411327720212 1.3261739137588446
4.774811971508079 4.468649926550979 7.698716059029274
4.774811971508079 4.270146213187309 2.098781678606225
4.774811971508079 7.898838563493663 5.660730838772146
4.774811971508079 1.0659917332074358 1.812514788385032
4.774811971508079 1.956302941481834 5.424305167462418
4.774811971508079 4.549199798674314 0.0936479112479744
4.774811971508079 2.191487359166398 3.214937144795517
4.774811971508079 4.17340746487435 1.7269400861564512
4.774811971508079 6.143635862864314 8.542113018911497
4.774811971508079 1.8652141480847129 0.564190621408609
4.774811971508079 3.174619150598347 4.200002125928379
4.774811971508079 8.86885827566943 6.199177412442432
4.774811971508079 8.243708891350389 4.60539727356811
4.774811971508079 4.584224225190079 5.957743426165395
4.774811971508079 6.516485526214554 8.482224630369588
4.774811971508079 6.32338072914637 3.6154872026718796
4.774811971508079 2.300426242069785 9.428905741347105
4.774811971508079 5.420491822615737 1.2853424091878236
4.774811971508079 9.325608512825935 4.912174892636073
4.774811971508079 1.0769486151591618 4.528217781325429
4.774811971508079 8.935555799625561 1.4284665866298123
4.774811971508079 6.598339816055924 6.25598820684257
4.774811971508079 2.7269172153523766 5.212928590324037
4.774811971508079 2.1816352813709843 6.560143994097987
4.774811971508079 8.543350819502793 7.168636292226202
4.774811971508079 6.178468109014143 9.24291260838441
4.774811971508079 4.51743247519023 4.980236885182453
4.774811971508079 7.031883848201631 8.661111547725854
4.774811971508079 6.6437208757498105 5.752814744735813
4.774811971508079 8.072086309538731 3.588094378598778
4.774811971508079 2.5076518625323296 1.9520432611323857
4.774811971508079 0.19913885929283673 9.439592449705986
4.774811971508079 6.352599775124788 3.6960301315554296
4.774811971508079 8.158200636784416 8.876324967050012
4.774811971508079 5.341689598560429 6.2579934901740915
4.774811971508079 7.644548541953997 6.9325573450538425
4.774811971508079 9.31889284094184 5.023318664632149
4.774811971508079 5.980846946130228 7.51267323205983
4.774811971508079 1.9042004440669649 3.6180767755525283
4.774811971508079 7.824783326529077 9.344918581474461
4.774811971508079 6.936026612706368 2.071779131183035
4.774811971508079 8.75853509369984 4.342728877226911
4.774811971508079 3.958150667849239 8.487562297005683
4.774811971508079 4.669400988520888 4.101499416323693
4.774811971508079 9.746284084968648 8.877009553568033
4.774811971508079 2.9714075083415104 3.5719762118919123
4.774811971508079 1.4216797625660405 3.9428247479598686
4.774811971508079 7.117896370026354 8.836625214186745
4.774811971508079 7.23042096366675 1.7321010841421032
4.774811971508079 9.447876406076237 9.318841893488017
4.774811971508079 2.2749462612596667 5.6608600109065605
4.774811971508079 5.296000990548634 6.083856355428781
4.774811971508079 8.26406212383805 4.617173423001639
4.774811971508079 1.752264035464999 1.2902217522084307
4.774811971508079 9.290139001391934 8.139697031341314
4.774811971508079 1.2391057135074002 1.0377623853443272
4.774811971508079 7.320186261480821 6.621969353874989
4.774811971508079 7.192977201742811 4.675788165196075
4.774811971508079 7.916226074819522 0.6903197292200834
4.774811971508079 6.893026987528359 0.845779665444675
4.774811971508079 8.140868789265541 2.967904027492972
4.774811971508079 9.553446132950873 6.669123269849331
4.774811971508079 2.3347034284982087 6.976477595738702
4.774811971508079 6.904122515353295 7.687876085238875
4.774811971508079 4.887325663882993 8.28388977139551
4.774811971508079 6.324854181393909 5.5723381516897925
4.774811971508079 6.55504615239997 7.432302303748734
4.774811971508079 0.21948925736015834 9.088287169867307
4.774811971508079 2.359518369814866 5.661108012701728
4.774811971508079 0.8561036456953315 2.09822520879154
4.774811971508079 2.100013413630723 5.059094210318574
4.774811971508079 2.520530593244878 4.087207687827629
4.774811971508079 2.9691551618970458 3.6357745846829364
4.774811971508079 1.2335037854062882 1.8165432436638844
4.774811971508079 0.7022810096342434 2.505047989611649
4.774811971508079 3.0652312427921276 1.1762879160344086
4.774811971508079 7.475070275602921 7.822316921555661
4.774811971508079 8.733388876971416 3.8302277867568004
4.774811971508079 6.159394008594031 0.3191904367170434
4.774811971508079 6.686229643802583 3.721679262592146
4.774811971508079 1.1186460914266068 3.0635530926480086
4.774811971508079 5.69812181111033 6.538600512358922
4.774811971508079 5.903866951952996 5.327476375183138
4.774811971508079 9.011560588699032 3.4828950804435834
4.774811971508079 8.584928621117518 6.754318475952206
4.774811971508079 5.218967211341592 3.399960327391135
4.774811971508079 4.95074329707023 0.7433840376295417
4.774811971508079 8.725286658347411 1.8109952679679358
4.774811971508079 4.021318492478569 3.222805261753088
4.774811971508079 3.7928934904323897 4.888518841609199
4.774811971508079 4.10375708121099 1.1858650241752415
4.774811971508079 5.024476825229628 5.925179730017277
4.774811971508079 1.69289644509074 2.9325207282422707
4.774811971508079 5.603849674544946 2.28851689314551
4.774811971508079 3.3117931460147503 9.12602513849675
4.774811971508079 0.6326627909131531 7.824123233972938
4.774811971508079 1.0078455916889817 4.7585058617024565
4.774811971508079 6.324007421993066 6.975904679148617
4.774811971508079 4.244817869366867 0.15246292245911822
4.774811971508079 5.819759982462788 7.562183669200588
4.774811971508079 8.674169070519762 6.41486303650482
4.774811971508079 0.5379605004444855 1.1236545999505148
4.774811971508079 1.889331247944048 0.9751892643769112
4.774811971508079 1.649641316537269 2.0333072235259038
4.774811971508079 7.163415729117809 2.8027112029149026
4.774811971508079 8.898742016249509 7.9470499396725245
4.774811971508079 7.138810268026211 1.4890496457591054
4.774811971508079 2.176276678463488 3.0510314129909184
4.774811971508079 0.8883202436574309 5.140046461448442
4.774811971508079 7.725258950671852 4.504801302171441
4.774811971508079 9.461151387102785 7.41829269398331
4.774811971508079 9.655533284637833 4.50121825090237
4.774811971508079 4.392187830756832 5.769731352224003
4.774811971508079 0.9364269054618413 1.7473122513908768
4.774811971508079 2.9602284709072437 3.682411590515205
4.774811971508079 6.844933400186507 2.560342524883043
4.774811971508079 9.810070692676726 2.0834881197524124
4.774811971508079 0.6895377968991302 7.35039420497802
4.774811971508079 2.526044200347637 7.079679099949616
4.774811971508079 2.668604906081836 7.954705913310979
4.774811971508079 5.348566096200119 7.488098511728078
4.774811971508079 2.034425109199488 6.811251532433642
4.774811971508079 2.7816146429166895 3.1983509816605697
4.774811971508079 4.593612094790864 7.751587924098924
4.774811971508079 3.1027612405586735 1.259315997850711
4.774811971508079 5.784875320347892 6.572564823746476
4.774811971508079 2.6067729340101677 3.1600951054040465
4.774811971508079 9.62021739235753 8.552060292654255
4.774811971508079 4.924818194294384 2.1670585696891176
4.774811971508079 8.40335216691202 3.7220790229433938
4.774811971508079 1.615534996956051 7.463545871846765
4.774811971508079 7.622404495732721 2.0151363525966905
4.774811971508079 4.8701291593736125 4.525611949454467
4.774811971508079 6.458658802698129 1.3730234706687694
4.774811971508079 1.968634541971134 2.3474714185942105
4.774811971508079 7.5592047403833265 1.959898525915727
4.774811971508079 6.775710751701907 6.893531720914201
4.774811971508079 1.6582476509798791 3.638526403543395
4.774811971508079 8.808327406066738 1.6033713374282152
4.774811971508079 4.935829866890428 0.2166867792530753
4.774811971508079 6.05406709298483 9.043489153352668
4.774811971508079 3.7608381948686884 1.982458811951306
4.774811971508079 6.9342246619786465 7.71045833278629
4.774811971508079 6.58300237525899 7.2497796202221725
4.774811971508079 8.832158031819516 6.294224649113076
4.774811971508079 7.737716817273516 6.421687265421464
4.774811971508079 3.868548227851245 5.68459114635187
4.774811971508079 1.6446646697283174 7.386105690737595
4.774811971508079 4.602087635261403 2.193293233288472
4.774811971508079 8.138476941494568 6.077805114537693
4.774811971508079 8.459903991952826 7.236696315763513
4.774811971508079 1.7250024190826918 7.743412635506134
4.774811971508079 1.2505368168810878 5.9697540995027625
4.774811971508079 6.571581849216508 2.436903874769491
4.774811971508079 5.881964994393713 1.2723785076645637
4.774811971508079 4.710990566805092 6.90807304950499
4.774811971508079 8.098378277695339 3.377739978977261
4.774811971508079 4.514614636454773 3.9454117045356014
4.774811971508079 2.1559307859929273 8.169791005846854
4.774811971508079 7.079572265758617 3.5960632750199615
4.774811971508079 9.085360115730316 3.391326657722441
4.774811971508079 4.651436839828956 7.661079591234891
4.774811971508079 4.3930720168145 2.696691481870945
4.774811971508079 7.261400591228239 2.7544102379121154
4.774811971508079 8.111468306875937 7.396162964201738
4.774811971508079 5.1190355116663575 1.3748341941913114
4.774811971508079 1.7501170671420447 1.2951018953775346
4.774811971508079 8.698577486081133 1.742858146122792
4.774811971508079 6.5245803191458105 7.477136982639704
4.774811971508079 4.474444057375971 8.434024559501415
4.774811971508079 8.464076549655003 6.029082906160718
4.774811971508079 4.157760932992016 9.498610318878887
4.774811971508079 6.793221564734473 1.2742306596812885
4.774811971508079 4.939534574970938 0.460231926983539
4.774811971508079 3.046039023709497 6.715077179339899
4.774811971508079 2.492777598108585 1.7611516188569343
4.774811971508079 4.401006421354886 8.558382998602742
4.774811971508079 5.883318723217266 0.7236679952408245
4.774811971508079 2.0139330279845167 6.816346911824974
4.774811971508079 3.5211694074744146 3.122515553935664
4.774811971508079 6.896784034774536 4.039165238894063
4.774811971508079 7.317909320579856 1.2791517282040887
4.774811971508079 4.465868176573217 8.656224026770955
4.774811971508079 8.883194612295892 3.641586972639349
4.774811971508079 0.44600695063353823 7.565251893703185
4.774811971508079 1.2014548381725039 6.189550855559838
4.774811971508079 7.826263379560851 7.9423974659254615
4.774811971508079 3.684845369302387 4.2667450780191825
4.774811971508079 7.7426236518985805 6.41633266643051
4.774811971508079 4.541271383057636 3.286566989115752
4.774811971508079 1.7432351591539301 1.296682404211328
4.774811971508079 4.7917027067207005 5.941469575202875
4.774811971508079 9.879618669298873 1.4547509627366375
4.774811971508079 2.800917038500696 7.584300496347736
4.774811971508079 3.062856073404028 0.694883254888015
4.774811971508079 2.169714340836104 5.028197985725876
4.774811971508079 2.508722664404831 1.9873383432852336
4.774811971508079 1.8041975403176596 6.873605493129165
4.774811971508079 0.2031811366490351 9.509634708467011
4.774811971508079 0.4153236334279362 7.613784717497182
4.774811971508079 8.274591220279063 5.351494656770403
4.774811971508079 8.859354490164629 3.047149032273041
4.774811971508079 0.20334926662455857 9.51813805390813
4.774811971508079 2.980518519714248 3.2383873511000316
4.774811971508079 0.8227805799525687 1.5335951221140747
4.774811971508079 3.8485120186910593 4.9355055092261635
4.774811971508079 3.9008716457768005 1.9891800155311354
4.774811971508079 7.778821666824816 9.126343934515978
4.774811971508079 3.5331179218674373 1.3614525837847262
4.774811971508079 6.375846663852221 5.602261412030509
4.774811971508079 7.051495161763902 9.117133820825305
4.774811971508079 8.86559816394206 7.756510704542755
4.774811971508079 6.125853033808809 2.271458165951073
4.774811971508079 6.222599478134752 3.3212163761596636
4.774811971508079 4.3348918325895625 5.715931518575902
4.774811971508079 8.067668151874022 2.9143819022085213
4.774811971508079 7.047809164110862 1.3028489466654984
4.774811971508079 6.5841710571870395 7.1045664476116315
4.774811971508079 4.5979057487763875 3.71644641684436
4.774811971508079 7.165970620114429 7.881379818664786
4.774811971508079 0.4128767027810404 3.4406022632032025
4.774811971508079 4.5222001299757055 2.234021908857088
4.774811971508079 2.765421875040463 8.914864987981558
4.774811971508079 9.15229475173932 1.1246068630481432
4.774811971508079 8.860905722264516 5.804608784936059
4.774811971508079 8.564690486165413 6.0376200121010015
4.774811971508079 3.865910574057631 0.6798868774752737
4.774811971508079 7.68842060098973 1.9503588064893835
4.774811971508079 7.050921901245853 2.7207739359748917
4.774811971508079 7.273091341272688 1.7772129134249341
4.774811971508079 0.3241567302073467 5.3793916867975575
4.774811971508079 6.93916529002067 1.229779615068841
4.774811971508079 0.9849757392002513 1.1259608793663731
4.774811971508079 1.4146055080508495 1.1269343990050904
4.774811971508079 4.23535711056966 1.5736406113855796
4.774811971508079 4.698611960970602 3.4394972977306875
4.774811971508079 2.9258661005753845 4.011303723798136
4.774811971508079 0.10663620381928295 5.6852757562501
4.774811971508079 3.757331995793882 5.744759269283092
4.774811971508079 0.6610202612286469 9.895943621340356
4.774811971508079 8.266155214695425 5.053637551410869
4.774811971508079 4.854889128020117 3.4173592623747022
4.774811971508079 4.001710232035476 9.497204032417038
4.774811971508079 3.1940190944358853 9.869658650273369
4.774811971508079 2.3694011896967653 8.574619090642646
4.774811971508079 3.2964860257254918 2.367348497244334
4.774811971508079 1.7566897477491021 1.2991110828849277
4.774811971508079 7.595579956416057 0.3294966146195897
4.774811971508079 4.935927028541803 1.2743629586286405
4.774811971508079 6.059417005317895 1.7272412586960153
4.774811971508079 3.116615036098655 3.1406273169518415
4.774811971508079 6.354294399214339 2.5129472639750974
4.774811971508079 0.810820351841587 3.0327362360703427
4.774811971508079 6.181934745019976 6.651918042617817
4.774811971508079 4.53504245257854 6.809700956509713
4.774811971508079 6.012864360737343 4.097807537351427
4.774811971508079 5.96002546463031 9.19090919919844
4.774811971508079 4.528817791996718 6.511205394886431
4.774811971508079 0.6062250154065073 6.8721233167627105
4.774811971508079 0.592895809812321 6.768212995188342
4.774811971508079 9.240315169263516 3.4137964999710793
4.774811971508079 7.933057837249922 7.438786440753734
4.774811971508079 1.3939602564425404 8.858631321404674
4.774811971508079 4.670518217394097 8.128807598877696
4.774811971508079 4.527596198067546 6.8051718044639395
4.774811971508079 5.407880164602608 3.948969811513365
4.774811971508079 7.808439630192088 1.311671091926306
4.774811971508079 7.624928597719184 5.560904767319947
4.774811971508079 3.422542141831195 8.251381869258534
4.774811971508079 4.386207428701309 0.039409739138410456
4.774811971508079 5.105017548578827 1.964409096000385
4.774811971508079 4.842430652874146 0.18546629563118106
4.774811971508079 4.1386646351125576 5.530306756242116
4.774811971508079 0.7830959102118698 4.207876813666043
4.774811971508079 1.5561099581987796 1.5913639120301293
4.774811971508079 5.5097807990056955 5.216494589526955
4.774811971508079 2.138566293007358 4.319063297168441
4.774811971508079 6.555003850618416 8.47994263512137
4.774811971508079 1.138069373184457 4.369971312200015
4.774811971508079 1.2788748992667691 5.841701325440269
4.774811971508079 4.710186135639718 6.904841858063332
4.774811971508079 7.031900807777427 3.6426214958644603
4.774811971508079 4.306859533486797 3.958488137678371
4.774811971508079 8.398552939716236 8.917506454917797
4.774811971508079 2.315726309236383 5.6955051365208345
4.774811971508079 3.445972280485266 9.524756855980828
4.774811971508079 8.543188272522793 2.852473120082577
4.774811971508079 1.9633754465476765 6.828988249271301
4.774811971508079 5.124149266950186 8.747037469890218
4.774811971508079 6.105007541211201 1.4651085262996781
4.774811971508079 3.9885042047426764 7.493386338995195
4.774811971508079 3.2324661499446115 1.053554786585113
4.774811971508079 7.763759412623365 3.8849461668072616
4.774811971508079 0.8175018109587573 9.854067386624285
4.774811971508079 9.799652521339437 2.3099696799126184
4.774811971508079 9.807542799523407 4.44116571912753
4.774811971508079 6.020344447021644 2.167104663131218
4.774811971508079 3.275079064686948 2.7091131306450653
4.774811971508079 0.39932682291200844 3.934288748416653
4.774811971508079 7.177537384526832 8.978228352727898
4.774811971508079 4.492324509545004 2.2466478483026284
4.774811971508079 5.6778027511161815 8.293010769957725
4.774811971508079 1.8815301609110795 6.925368489067412
4.774811971508079 0.3488426702034166 6.417265678871929
4.774811971508079 3.513915469896417 4.433948946482976
4.774811971508079 2.2879957653296947 6.396007647470053
4.774811971508079 1.475457647531299 1.1589008284559168
4.774811971508079 1.3095487753494557 8.691754359055144
4.774811971508079 2.0634861707584973 3.8756373188081215
4.774811971508079 5.2215007755124 6.522509475876209
4.774811971508079 6.209527749864061 4.533883781244231
4.774811971508079 7.83180512488613 8.92861247564095
4.774811971508079 8.863184050037631 0.574856828470147
4.774811971508079 2.387273911584786 6.221302917788034
4.774811971508079 1.4338083063651275 1.8051387749813148
4.774811971508079 0.48792038494636236 8.817702592503442
4.774811971508079 3.4852233437502305 5.892681123160694
4.774811971508079 0.9911628880291703 9.812157537148035
4.774811971508079 4.154187550714508 5.3539395838501695
4.774811971508079 2.3791132574059746 8.61297208788892
4.774811971508079 8.003482875641271 5.576695731866382
4.774811971508079 8.87780614879737 6.260389646626457
4.774811971508079 7.754010091825695 8.987179635805461
4.774811971508079 0.8488770167789526 2.8852828847607195
4.774811971508079 8.375221309662484 0.545851945824754
4.774811971508079 2.606755629232473 0.5508732834242195
4.774811971508079 9.489687920588946 8.229038876383784
4.774811971508079 2.3627403612676803 9.832752725728264
4.774811971508079 8.42632138797171 9.357447074486261
4.774811971508079 0.4760758376016525 6.481979286100741
4.774811971508079 5.0900172659536445 4.9335079162810365
4.774811971508079 5.3771794355834714 6.404117855462189
4.774811971508079 4.528749739330698 6.7830096549253405
4.774811971508079 3.473796257844181 1.3378526351992062
4.774811971508079 0.7103110862482408 8.343681779170739
4.774811971508079 1.4235400138890424 6.426125282071843
4.774811971508079 6.1093144173838025 6.781891637288731
4.774811971508079 0.6291195401138129 5.163105325046788
4.774811971508079 5.123957515817043 1.503661548703642
4.774811971508079 5.574710283775434 5.215744048980955
4.774811971508079 4.837231372604706 7.356987955059428
4.774811971508079 7.271134392157046 0.16747889319926612
4.774811971508079 1.5233606116711327 9.121529496828597
4.774811971508079 7.177222728383055 1.8408296297517903
4.774811971508079 2.7216275998764474 7.181242831087083
4.774811971508079 7.0086932385432315 0.29584993437280555
4.774811971508079 4.560050649034283 6.184821997845794
4.774811971508079 0.4520183528105003 7.654599338551083
4.774811971508079 8.450756571037509 7.387244522097388
4.774811971508079 2.066999996107411 4.447026201743711
4.774811971508079 8.025759817477983 6.093721905286843
4.774811971508079 3.5962448315272115 6.746151997381657
4.774811971508079 9.457820283242167 7.769302035493996
4.774811971508079 7.13798191524432 3.0305053915631865
4.774811971508079 5.43651640774756 9.246235978212587
4.774811971508079 5.955430559493512 8.349060607355007
4.774811971508079 7.610528687889602 2.5849868841217503
4.774811971508079 1.224731665082313 5.490584277267723
4.774811971508079 7.883265755581082 0.7924125026534432
4.774811971508079 6.0488817198422185 1.790680889077768
4.774811971508079 5.0143776394143496 4.233808716478385
4.774811971508079 2.672933607513803 4.053602456462878
4.774811971508079 4.845333632322918 4.767928947869286
4.774811971508079 1.2899318008155616 7.48524345996519
4.774811971508079 1.3103864366220108 9.593159784242046
4.774811971508079 7.1625916576973925 5.382773234873627
4.774811971508079 0.5025836980605719 3.178456168650498
4.774811971508079 6.670381446653349 2.426031825985028
4.774811971508079 8.727333881228658 0.5044069368952814
4.774811971508079 2.8309621863032848 7.838314023030948
4.774811971508079 6.3650996359327685 9.368996208489337
4.774811971508079 8.845823095821407 9.42397003023343
4.774811971508079 0.5000248799051685 8.807693364395837
4.774811971508079 0.22038565724569395 9.032108524529662
4.774811971508079 1.7477812420971057 1.2957945982212062
4.774811971508079 4.502298643234775 6.949594662481092
4.774811971508079 6.988830579749106 9.228617106382595
4.774811971508079 6.8538046061225195 2.1803792204511177
4.774811971508079 7.8264741692364925 0.582911782985011
4.774811971508079 5.194208604898897 3.4163072970525246
4.774811971508079 3.29073965983937 9.736943146601401
4.774811971508079 9.105836165877822 2.3418972507462437
4.774811971508079 0.9702103019984091 1.8214929606546217
4.774811971508079 4.170203296026853 3.950199383656643
4.774811971508079 6.657393937792664 6.290718976615298
4.774811971508079 4.338872193442793 9.252318496560967
4.774811971508079 9.01573695589539 5.655291829718106
4.774811971508079 1.915252703966566 3.589752421815326
4.774811971508079 8.354961998931179 9.593495333128372
4.774811971508079 2.765589753282069 1.48638369653679
4.774811971508079 7.351422081607675 8.982499276749598
4.774811971508079 8.038165428262136 6.139516230538484
4.774811971508079 6.340433726503804 4.51044481958711
4.774811971508079 9.40239820383892 3.4335928564724596
4.774811971508079 1.8582728049401487 8.084750774523311
4.774811971508079 6.909091824208577 5.563981376497655
4.774811971508079 5.282726166049971 7.48226075124048
4.774811971508079 3.374348631142726 8.61038610743022
4.774811971508079 0.4454336977817575 3.2255658658388366
4.774811971508079 7.613359987393476 2.406366784128467
4.774811971508079 6.645648570689223 5.818008471294972
4.774811971508079 1.139809175079277 1.0786386557342846
4.774811971508079 3.743968889497986 8.462975449362217
4.774811971508079 6.805919454275934 6.365865296420668
4.774811971508079 5.102931306941541 4.943362308600502
4.774811971508079 6.122645085885018 8.71018909476237
4.774811971508079 0.6937870035311178 8.251869159722466
4.774811971508079 3.642625819293036 1.2918898901115348
4.774811971508079 1.7659419383715707 7.838313989138878
4.774811971508079 9.111090633062812 9.43047091142758
4.774811971508079 5.774259865923373 1.1811036587085917
4.774811971508079 8.844684527958966 6.0251190365738125
4.774811971508079 8.496945810495152 6.402445559046056
4.774811971508079 5.494308650676394 2.984329577182117
4.774811971508079 8.504816839661526 9.171645968629223
4.774811971508079 1.8198421598309218 3.2415443596626377
4.774811971508079 8.753055042712804 4.2215787914008205
4.774811971508079 6.95511666613384 6.626822461062888
4.774811971508079 7.839108813294236 0.9352316102530034
4.774811971508079 4.708434884343459 6.903996144679418
4.774811971508079 6.783219077189441 9.459836508532762
4.774811971508079 5.822561180007465 8.214990555573756
4.774811971508079 3.057045233183353 0.6717067797030986
4.774811971508079 0.9455924262240584 6.322857964749561
4.774811971508079 5.8355801021701765 7.546918116852742
4.774811971508079 9.314060944623721 5.462832734419248
4.774811971508079 2.027464006047726 4.793803288457435
4.774811971508079 1.9415544299339311 2.7843643630099555
4.774811971508079 5.5069068880382686 5.274640635802619
4.774811971508079 5.8639717345457205 5.197044629148302
4.774811971508079 7.787278681255096 2.70940373997292
4.774811971508079 4.495839198957061 9.011660518745424
4.774811971508079 0.6590569671514056 1.4046409279785412
4.774811971508079 8.17922372513926 5.430866776657762
4.774811971508079 6.131786438252071 6.878844159726377
4.774811971508079 5.964789036887812 1.3478807433457598
4.774811971508079 0.8358889164675756 7.596039223798921
4.774811971508079 4.23878008098341 7.143636501560819
4.774811971508079 6.591075494081687 4.486311127408849
4.774811971508079 7.074693330710901 0.25184055509225123
4.774811971508079 6.695176133031262 0.32125961370232814
4.774811971508079 1.3060188024002704 7.485105972637593
4.774811971508079 0.4542325545458734 8.844486843696059
4.774811971508079 4.941247384237741 1.0200346428690223
4.774811971508079 1.1597517306023561 4.362722514426474
4.774811971508079 9.56371185232701 7.561316640330501
4.774811971508079 8.642342282732367 0.4607425755425802
4.774811971508079 9.164278725494077 1.1486548802547512
4.774811971508079 8.563295620976174 8.436964775438001
4.774811971508079 6.037156749947499 4.11501043211426
4.774811971508079 4.068888086091857 1.9884457888046378
4.774811971508079 3.4043566396036775 8.197648805135833
4.774811971508079 4.515096114579939 6.810306070990611
4.774811971508079 0.2741590526298192 5.448647162066397
4.774811971508079 4.617265555078626 3.663165595920158
4.774811971508079 3.3510089640910574 8.03820471879927
4.774811971508079 4.106508223162114 0.2721646274258452
4.774811971508079 8.747804116130316 4.042863352607695
4.774811971508079 6.992996169310157 6.575373557896223
4.774811971508079 2.540103160535139 9.841750387929402
4.774811971508079 7.740132760039857 7.782441565079268
4.774811971508079 8.905319413667627 2.230478745167225
4.774811971508079 8.442204900033174 9.022437980448064
4.774811971508079 4.5508252727691465 1.3569916220780087
4.774811971508079 3.7822005827590544 1.2011046414294604
4.774811971508079 4.309332455650339 3.0818306539092633
4.774811971508079 4.973048200517372 1.2938831537447741
4.774811971508079 9.052729647063789 7.457902861929583
4.774811971508079 3.9076767540361894 3.4788330554241074
4.774811971508079 6.895830413878311 4.064619846710018
4.774811971508079 3.98093895611994 7.063575464495783
4.774811971508079 6.099671084275246 7.536305037365027
4.774811971508079 6.044796583311002 9.158225607107195
4.774811971508079 9.845198890096794 4.340841423944468
4.774811971508079 5.884964119621088 7.501308606590969
4.774811971508079 7.621783313547235 2.332763512305917
4.774811971508079 3.257250859295807 5.741537667322029
4.774811971508079 6.975057921018137 1.254028745268933
4.774811971508079 5.386751269190777 3.132012882148849
4.774811971508079 5.160077971362233 8.65180817985156
4.774811971508079 7.930981046123671 4.431850888860413
4.774811971508079 3.5629101982519105 9.473420334600586
4.774811971508079 8.797352610569208 5.7004255375680275
4.774811971508079 6.057287079259219 7.141717728237758
4.774811971508079 8.604462540760684 6.47028792135305
4.774811971508079 0.6332509357067294 7.31633052803126
4.774811971508079 3.2585942234944167 2.3968130053856784
4.774811971508079 8.285863792938157 4.606599518211276
4.774811971508079 8.866564071851469 5.748089263630473
4.774811971508079 2.874993867803598 6.563676428564525
4.774811971508079 7.753430309428514 1.1751537227974023
4.774811971508079 6.344568363943664 6.498794263662861
4.774811971508079 6.032516260112573 4.102283666973748
4.774811971508079 0.5997845460241404 7.362698588958029
4.774811971508079 0.4019288174334052 3.885084379705282
4.774811971508079 8.41229293089139 5.454084526202592
4.774811971508079 6.097700347597982 6.730638524180829
4.774811971508079 4.006981875637293 7.027723128183252
4.774811971508079 0.7532363267851099 4.1853315966530324
4.774811971508079 4.59558510796908 8.866095083108979
4.774811971508079 4.513438051842552 4.9828573596037415
4.774811971508079 7.183625580754253 4.663763149231026
4.774811971508079 4.048095018339394 7.518755224174572
4.774811971508079 2.2493864444443696 3.1471283271291903
4.774811971508079 7.915628874074722 7.469994857353574
4.774811971508079 1.3359318421896011 5.606756493113315
4.774811971508079 8.240419202761979 8.376180680563635
4.774811971508079 9.370238416628961 2.350850246002748
4.774811971508079 8.493909760599282 8.655343286872197
4.774811971508079 9.043924821736233 8.122353216388856
4.774811971508079 2.981746744174446 7.900233841150157
4.774811971508079 2.499312149078154 8.073720249560798
4.774811971508079 6.339689386270822 2.415055776713786
4.774811971508079 4.69545012633755 8.866252044566693
4.774811971508079 1.5686392115998564 1.5671165464212142
4.774811971508079 3.862950695907052 0.4669384096064568
4.774811971508079 1.5695733153566214 4.532360831305969
4.774811971508079 5.524977776137736 5.40347187583404
4.774811971508079 9.350381055691765 9.421038594367515
4.774811971508079 3.6465834232388867 1.6642506890613828
4.774811971508079 6.915280712096739 3.7286799034200833
4.774811971508079 6.121405172550913 5.456770339614032
4.774811971508079 1.576944425608812 0.3564722543069275
4.774811971508079 3.7726052258944747 4.18746369519393
4.774811971508079 5.731789037982885 4.0386209090827565
4.774811971508079 8.043579243307253 9.582163499316248
4.774811971508079 9.647387339899169 3.4799035966164955
4.774811971508079 4.506609792620499 4.9872612162930405
4.774811971508079 6.579484650081659 1.3437372662755616
4.774811971508079 2.077666848963482 2.265903529614754
4.774811971508079 9.872851669908899 1.436377599712366
4.774811971508079 6.725695618171073 7.575535872600668
4.774811971508079 5.533365908687153 5.518699105560107
4.774811971508079 2.082244599323624 1.5045938764877937
4.774811971508079 1.1224904978769863 4.3762046191916495
4.774811971508079 7.029809343882397 8.21772473026028
4.774811971508079 1.4472591047393388 9.287924488068791
4.774811971508079 3.6753459571480054 1.7351513904340377
4.774811971508079 5.136083890740743 2.162643337445697
4.774811971508079 5.44051977460873 2.580279813128675
4.774811971508079 8.32738506719536 1.6927022113211694
4.774811971508079 2.5746590820101716 2.026280198287826
4.774811971508079 9.321567055158894 7.389983689813446
4.774811971508079 2.492181004765057 1.7210331526487694
4.774811971508079 5.210383487291626 8.495755519331478
4.774811971508079 2.2182989862261735 4.11461064114146
4.774811971508079 5.418011958394765 3.955836781802905
4.774811971508079 3.652143123486043 7.777332849919795
4.774811971508079 4.826566117489545 7.451713929167231
4.774811971508079 9.846523350414978 1.8792110710302337
4.774811971508079 7.75742834813618 3.885519933940545
4.774811971508079 1.9939620227037638 5.454039346372949
4.774811971508079 0.23369790007429295 9.542747535768289
4.774811971508079 9.727100360335596 8.924791453334931
4.774811971508079 9.481842431911609 7.07253142387775
4.774811971508079 6.5539137559912275 7.464039536294327
4.774811971508079 4.898745240631075 4.309688399563251
4.774811971508079 7.927491673207635 5.758028389492089
4.774811971508079 1.7579142620825956 7.108309193508503
4.774811971508079 2.098994274215223 3.931154183339483
4.774811971508079 5.605161647166401 9.31019276105793
4.774811971508079 0.5216233016799489 9.778861803359915
4.774811971508079 4.545563841035964 8.32961007116821
4.774811971508079 7.904483903496818 1.661846175400839
4.774811971508079 3.9007517271238186 0.8571375753784476
4.774811971508079 8.836830454154866 7.513073095922747
4.774811971508079 5.970592634734601 3.0005154857948333
4.774811971508079 1.5969459677524849 3.6445844584720573
4.774811971508079 1.0962552338798155 8.661348790930642
4.774811971508079 8.061989267164531 4.506056786904142
4.774811971508079 0.5734604033983822 6.526415730114316
4.774811971508079 6.092600594581057 3.003040243994377
4.774811971508079 7.930929908569392 1.639769005433695
4.774811971508079 9.657289388786074 9.075398061720438
4.774811971508079 0.9103770765419694 7.510096478404455
4.774811971508079 2.698031792045271 9.844121707547304
4.774811971508079 7.954512476847619 3.6992968467634912
4.774811971508079 8.575246828982204 7.241540593940227
4.774811971508079 2.726685857283031 5.22332124976361
4.774811971508079 3.9793733228057135 7.038857330352372
4.774811971508079 6.819088672107307 0.38682204224740263
4.774811971508079 7.500593270330066 4.289663699928537
4.774811971508079 3.1408906222239112 4.9036244380303335
4.774811971508079 3.9422133740128773 1.1030099460803409
4.774811971508079 2.2803431841787605 9.117014779744144
4.774811971508079 9.526853601065344 6.814660055776853
4.774811971508079 7.210438772362919 4.631867960064423
4.774811971508079 2.4404970635433694 8.934507214583922
4.774811971508079 8.616408508384888 7.356981495481192
4.774811971508079 7.595010759854795 1.7447188158492124
4.774811971508079 2.117831778110314 5.010419048706216
4.774811971508079 9.480929924579364 4.569547277762288
4.774811971508079 7.246701425715467 1.7684387227438478
4.774811971508079 0.7594872970063051 1.0584404178694709
4.774811971508079 3.997850762855353 3.9490547342077353
4.774811971508079 4.948768120606128 8.856435208499956
4.774811971508079 3.4410689948321704 9.394731164127498
4.774811971508079 6.616410553311773 6.16439347161026
4.774811971508079 1.33961398363938 3.1213480988876925
4.774811971508079 0.17327500708185645 6.017082364869611
4.774811971508079 1.9389385063173852 2.51124360970805
4.774811971508079 9.857948144433042 4.297726330823059
4.774811971508079 5.849540507420691 5.1907876214637065
4.774811971508079 5.906955092621789 5.335327708432668
4.774811971508079 8.335373575823144 8.394113386663335
4.774811971508079 7.925756277396638 8.841610666473267
4.774811971508079 6.2667520172066284 2.601317849241555
4.774811971508079 7.515706585801331 7.8166861364307945
4.774811971508079 5.865016633157928 0.8062064287937478
4.774811971508079 0.5312325218356995 1.1580166452151512
4.774811971508079 9.51961990887982 1.2555285274052632
4.774811971508079 7.673069292252641 6.979153708994472
4.774811971508079 6.000129745948924 8.396422473569487
4.774811971508079 0.18122269111707445 6.066667004722182
4.774811971508079 9.375231797605107 7.954132940298232
4.774811971508079 9.141277437821756 6.39900542230407
4.774811971508079 1.4223274676698359 8.918096861946937
4.774811971508079 3.331602014918651 6.6402465192450615
4.774811971508079 5.826619663100937 7.5843604155709
4.774811971508079 6.612562154297437 9.511533106712058
4.774811971508079 3.4552156277773185 6.2666137609974335
4.774811971508079 1.3791022838052147 4.049432255317302
4.774811971508079 6.860279051441568 4.446072865827138
4.774811971508079 4.683286321582517 6.891939677577337
4.774811971508079 7.74835682241905 2.6847898537965995
4.774811971508079 3.963545182183498 3.7708372774095498
4.774811971508079 2.7068114899820697 5.204283815631407
4.774811971508079 8.068299190602794 0.645368121847655
4.774811971508079 6.961056446603545 4.51502453808287
4.774811971508079 9.880451911259282 1.4397600967004471
4.774811971508079 6.009381189092791 2.069486909347118
4.774811971508079 3.461816896490262 6.208211100011642
4.774811971508079 2.7871724583495543 2.1460209734744007
4.774811971508079 5.281532034736689 2.262039313568068
4.774811971508079 1.4869878452183656 6.488496398766945
4.774811971508079 9.205665948740068 1.1403257178566226
4.774811971508079 1.670785570476153 4.576574758159759
4.774811971508079 7.189971084069984 4.672069280544331
4.774811971508079 9.003716825737229 0.7985437123635815
4.774811971508079 3.273114825905906 0.4429402821353592
4.774811971508079 3.2196372053241737 4.85330078628517
4.774811971508079 9.318172631115278 5.142870193581743
4.774811971508079 4.903467683719728 1.292478647776827
4.774811971508079 7.172912991579966 5.007427511867429
4.774811971508079 9.17954616966839 1.1453020941617806
4.774811971508079 8.521377194031869 1.7185930735168817
4.774811971508079 6.136537550226687 2.895389202195834
4.774811971508079 7.868407428596135 8.016424096291495
4.774811971508079 0.6798016891709491 5.157973878148527
4.774811971508079 6.423908791924629 3.6994311466143444
4.774811971508079 1.8287224913511695 9.114730817314395
4.774811971508079 8.712461815260877 9.326930711737102
4.774811971508079 6.411569203372302 2.4579962172880676
4.774811971508079 1.7006923637190021 8.256095961276598
4.774811971508079 6.201893658711349 2.4971889421274938
4.774811971508079 5.404455450583976 3.9572078489609623
4.774811971508079 7.512134155844492 6.648669236483059
4.774811971508079 2.8846884662046883 9.84409639564385
4.774811971508079 4.63411700827647 7.955206532156863
4.774811971508079 5.86440316372978 8.054074912163056
4.774811971508079 1.0104689120775803 5.2676077534823476
4.774811971508079 0.8980594585194946 2.9966415443800267
4.774811971508079 4.728035966519341 1.7188961520965533
4.774811971508079 2.31119709375974 9.499977324834227
4.774811971508079 8.391981446218548 9.489014502849919
4.774811971508079 6.965499883527808 6.539493347453676
4.774811971508079 6.891482412288 5.57585209117178
4.774811971508079 5.354729802060146 5.771211565766886
4.774811971508079 4.7229847162883205 1.7440458799438172
4.774811971508079 1.8482565960352548 2.7905252029177015
4.774811971508079 2.958674890765766 8.918046433554736
4.774811971508079 8.950708775756038 2.3391030027639257
4.774811971508079 6.032702697408827 7.7681472637822075
4.774811971508079 3.3189138149706103 1.275753276521646
4.774811971508079 5.462432468594127 2.7409202561013464
4.774811971508079 2.930391657476545 6.879432115409091
4.774811971508079 6.0740304904384494 4.796170600723061
4.774811971508079 5.28232290478368 9.093293238002262
4.774811971508079 1.9586514956546102 3.501564657391133
4.774811971508079 3.878800712602839 3.2892162175353947
4.774811971508079 4.209018612261701 3.1234246651918425
4.774811971508079 1.3739434022564068 0.7320226685764218
4.774811971508079 9.711086033837542 3.6099288908808593
4.774811971508079 4.333066375565042 1.3404561916198356
4.774811971508079 7.170442012786481 3.634229789420096
4.774811971508079 6.480896279985191 0.19634833366069246
4.774811971508079 0.16298670954743041 5.980001183820388
4.774811971508079 3.2786753890039226 2.787736850498229
4.774811971508079 7.206314726064074 4.6707980865623036
4.774811971508079 3.7386842438821084 5.7531165572994585
4.774811971508079 3.613567449915252 3.1660026349777675
4.774811971508079 3.516570352839538 4.654593713068718
4.774811971508079 3.2928165577409274 3.014223648449867
4.774811971508079 5.213614624549346 3.425016312634491
4.774811971508079 6.916486701139084 1.0484564547209438
4.774811971508079 4.918277263302257 6.75580981884471
4.774811971508079 3.43434233014192 0.39839245714230354
4.774811971508079 2.345463958269385 5.976048111847504
4.774811971508079 3.9075364015471306 6.983459654025674
4.774811971508079 2.385439061361062 1.6610759113354865
4.774811971508079 0.6707770349314077 2.4125015828923835
4.774811971508079 5.874401624009743 5.166341393476405
4.774811971508079 1.490501454906586 8.492878191293304
4.774811971508079 7.97373511527692 8.552483740327716
4.774811971508079 8.69438796390345 2.824392485784622
4.774811971508079 3.5151469661896813 4.539987085222808
4.774811971508079 7.372888876437502 1.8132140709124658
4.774811971508079 1.8520516716351205 6.818544264766799
4.774811971508079 2.744714349099265 5.414255322236873
4.774811971508079 3.893562979645383 4.973447817501127
4.774811971508079 3.4236482669475783 6.6139340929380985
4.774811971508079 6.179285687587815 4.452356874435039
4.774811971508079 3.193231093170792 7.981050936012267
4.774811971508079 5.860695481243996 0.8217954292779378
4.774811971508079 7.771414268714969 3.892637304268417
4.774811971508079 8.16816650699477 2.961101561915256
4.774811971508079 6.534753539313834 8.479197257399848
4.774811971508079 8.381213911588194 3.714422319025474
4.774811971508079 0.4566355524279867 5.179214881722906
4.774811971508079 1.5141706741169993 5.550515400007418
4.774811971508079 5.9977508654957115 2.14791590493519
4.774811971508079 3.31926897172948 4.300859391833433
4.774811971508079 0.8369511634293789 7.447746392911435
4.774811971508079 0.5491787275939142 0.9747124845839655
4.774811971508079 3.515296455844951 4.5502045049117426
4.774811971508079 3.1991713062336444 2.3618668657572712
4.774811971508079 3.0411531694232576 0.6829385494347855
4.774811971508079 1.7520466395773229 0.48264556854935725
4.774811971508079 7.418753787287383 0.10997377721580093
4.774811971508079 9.95343503859864 4.080589949303369
4.774811971508079 7.326285295080271 3.6999193283463927
4.774811971508079 5.861409082978652 5.1909397955444785
4.774811971508079 7.806208072465154 9.24605383765146
4.774811971508079 4.1511769263861735 5.387710947026733
4.774811971508079 8.0032581248694 8.335477472003989
4.774811971508079 5.460777585685855 8.376469337604838
4.774811971508079 3.612348368924241 2.1106255627567996
4.774811971508079 1.666932129541274 5.507110433591914
4.774811971508079 7.128244191667012 3.2054707655274677
4.774811971508079 4.553797984212897 8.803478960702332
4.774811971508079 2.7134886576754123 0.5892839578502064
4.774811971508079 7.860269289071663 9.572938989171584
4.774811971508079 9.337085125605364 4.626359524094614
4.774811971508079 1.4323233074468866 3.0772247495059317
4.774811971508079 2.712794536022152 5.4373788918029975
4.774811971508079 5.638600452683399 5.468100987146503
4.774811971508079 5.409447023482999 3.95367397012117
4.774811971508079 2.0356138577302185 0.6719207870984564
4.774811971508079 5.9570222157276564 0.39820807606027286
POLYGONS 100 1804
10 166 603 553 228 747 21 50 801 115 600
21 170 545 586 206 312 212 289 389 522 655 811 82 858 730 602 424 240 720 871 65 125
15 700 775 735 783 341 425 849 31 222 61 668 803 542 11 695
6 150 513 532 52 84 726
17 392 691 298 305 171 531 78 397 580 584 113 676 419 631 129 252 787
16 164 740 15 390 51 293 279 153 213 613 541 520 67 317 274 785
18 153 213 613 229 273 450 744 34 190 714 683 22 671 596 694 4 717 706
23 169 472 721 177 235 345 606 360 301 657 262 418 378 488 759 849 425 341 641 781 282 496 506
13 166 603 612 563 226 75 346 272 195 684 297 115 600
17 303 618 119 442 826 413 197 873 837 77 605 445 760 749 839 746 18
16 202 443 403 643 319 435 362 184 530 361 128 54 333 242 511 132
21 100 523 537 280 259 276 687 431 416 307 250 191 247 473 111 322 498 248 640 1 287
19 470 857 376 507 187 487 547 619 98 310 345 606 360 823 188 92 709 474 568
19 387 614 246 851 703 492 570 259 276 687 326 120 763 464 314 552 40 699 388
15 310 345 235 177 721 358 835 718 692 33 701 44 395 619 98
22 404 533 459 491 91 261 685 489 784 875 675 653 384 621 578 840 439 805 830 860 731 468
12 614 622 313 328 476 32 224 81 565 703 851 246
20 252 787 392 193 12 673 864 430 550 788 50 21 747 228 58 249 525 55 677 290
20 585 644 355 693 712 219 812 592 126 771 377 572 124 215 302 268 400 134 398 227
20 112 181 616 24 170 125 65 871 147 165 770 554 6 0 515 617 611 624 329 369
6 692 718 835 264 260 356
20 405 674 200 490 365 139 850 433 834 853 820 769 711 151 755 324 719 555 68 478
6 431 687 326 120 836 416
18 855 869 454 80 13 876 231 182 295 375 662 828 672 85 518 47 204 107
10 128 361 722 852 230 738 7 561 333 54
18 319 643 403 443 232 14 263 658 105 325 159 304 672 828 662 375 295 503
18 248 498 639 841 584 580 397 78 526 9 39 799 351 716 448 373 1 640
17 212 289 27 330 103 833 415 844 189 95 285 158 846 45 258 206 312
15 439 840 578 621 101 118 161 778 208 649 309 598 751 567 521
20 115 801 50 788 550 484 741 137 143 845 406 19 664 71 348 271 192 660 684 297
15 197 413 179 680 133 56 199 719 324 755 151 707 25 837 873
17 200 490 365 243 201 174 332 251 255 632 135 807 516 167 437 688 674
21 749 839 480 48 827 708 626 581 393 461 386 475 142 241 343 401 275 367 818 445 760
20 85 672 304 159 325 670 761 854 615 374 865 270 666 648 337 462 802 253 47 518
23 164 740 15 390 633 60 589 736 205 348 271 192 660 684 195 272 346 265 546 587 43 185 785
21 251 332 379 23 821 816 426 615 854 761 670 325 105 658 263 729 37 556 236 632 255
18 378 418 564 283 539 86 146 294 467 399 667 762 61 222 31 849 759 488
22 61 668 803 542 607 214 114 508 370 364 318 94 594 291 38 3 429 350 277 257 667 762
18 523 537 280 259 570 492 703 565 81 224 535 463 29 79 697 436 831 782
13 516 807 544 5 221 872 727 96 99 696 266 42 167
19 41 269 601 385 689 66 483 806 102 417 608 673 864 430 550 484 741 137 534
21 816 821 308 819 808 217 809 594 291 38 3 429 30 130 579 335 270 865 374 615 426
20 158 285 95 189 344 559 753 485 88 292 233 482 867 288 813 859 679 421 20 705
18 170 545 586 206 258 45 846 158 705 20 843 64 609 698 141 181 616 24
15 489 685 121 172 286 347 583 364 370 508 114 822 394 875 784
14 541 613 229 273 450 140 540 354 299 278 479 83 67 520
13 22 671 596 694 340 234 110 638 183 743 481 574 239
17 100 523 782 831 436 391 745 471 779 53 713 59 716 448 373 1 287
19 19 664 71 348 205 736 589 315 776 863 832 734 440 451 8 519 428 176 156
23 419 676 113 584 841 639 498 322 111 473 89 804 303 18 746 839 480 48 827 708 599 106 26
21 413 826 442 434 152 250 307 416 836 120 763 464 314 281 408 634 848 866 133 680 179
14 377 771 126 791 10 797 277 257 667 399 467 294 109 595
21 404 533 459 491 155 629 656 123 447 862 401 343 241 142 320 220 36 796 661 646 557
22 150 726 84 529 157 338 194 650 732 104 874 661 796 36 180 163 460 210 254 625 382 620
20 700 775 735 380 781 282 496 244 357 233 482 867 288 410 649 208 778 161 144 342
14 309 649 410 288 813 859 679 28 710 715 630 757 751 598
19 11 695 700 342 144 161 118 101 621 384 653 675 875 394 822 114 214 607 542
16 129 252 290 677 55 469 284 409 548 752 504 566 106 26 419 631
14 182 295 503 319 435 362 184 810 651 856 69 138 876 231
19 228 553 603 612 563 465 625 254 210 460 438 824 409 284 469 55 525 249 58
16 17 768 551 323 420 802 462 337 536 593 712 693 355 644 46 825
16 440 734 74 162 412 591 543 457 793 517 654 870 168 861 336 451
15 150 513 532 794 587 546 265 346 75 226 563 465 625 382 620
22 52 84 529 157 795 524 494 16 396 131 686 479 83 67 317 274 785 185 43 587 794 532
19 739 764 773 576 149 267 296 216 590 800 510 636 63 423 245 678 321 758 659
12 404 557 646 661 874 104 732 211 558 860 731 468
10 62 855 107 204 47 253 802 420 323 551
10 577 733 635 863 832 734 74 162 412 637
17 169 472 721 358 835 264 260 604 528 485 88 292 233 357 244 496 506
22 432 458 699 40 552 314 281 408 634 486 789 237 777 466 847 359 582 366 815 728 742 72
21 497 575 453 756 187 487 547 619 395 44 701 70 669 774 296 267 149 576 352 767 441
14 20 421 679 28 710 715 630 766 186 817 238 609 64 843
18 112 181 141 698 609 238 817 186 772 127 494 16 396 131 449 562 329 369
20 199 719 555 68 765 645 573 407 663 148 225 97 237 789 486 634 848 866 133 56
10 393 581 626 708 599 106 566 504 752 383
19 704 786 372 509 414 122 725 223 39 799 351 716 59 713 145 792 117 456 588
23 157 338 194 650 732 211 558 860 830 805 439 521 567 751 757 630 766 186 772 127 494 524 795
10 135 807 544 5 221 798 37 556 236 632
19 93 549 505 339 428 176 156 19 406 845 143 137 534 41 269 601 154 499 748
14 611 617 353 540 354 299 278 479 686 131 449 562 329 624
23 834 853 820 218 334 838 123 656 629 155 491 91 261 685 121 172 286 411 512 723 652 316 433
14 592 812 363 136 579 130 30 429 350 277 797 10 791 126
20 96 727 209 790 381 495 527 35 349 623 427 627 402 663 407 573 750 175 696 99
15 318 364 583 347 286 411 512 723 754 597 808 217 809 594 94
18 78 531 171 305 311 868 628 560 514 300 371 610 122 725 223 39 9 526
6 153 279 293 477 717 706
6 735 783 341 641 781 380
21 87 569 709 92 188 823 360 301 657 262 418 564 283 539 842 737 306 877 207 90 814
15 392 691 298 305 311 868 628 642 724 102 417 608 673 12 193
19 202 443 232 14 263 729 37 798 221 872 727 209 790 452 203 829 198 511 132
20 77 837 25 707 151 711 769 820 218 334 838 123 447 862 401 275 367 818 445 605
13 337 648 666 270 335 579 136 363 812 219 712 593 536
19 139 365 243 201 174 332 379 23 821 308 819 808 597 754 723 652 316 433 850
24 471 665 493 73 446 422 368 690 108 681 331 327 160 196 502 571 444 501 29 79 697 436 391 745
12 303 618 119 442 434 152 250 191 247 473 89 804
20 538 647 178 702 682 173 256 455 76 183 638 110 116 577 637 412 591 543 780 500
15 405 674 688 437 167 42 266 696 175 750 573 645 765 68 478
20 51 293 477 717 4 694 340 234 110 116 577 733 635 863 776 315 589 60 633 390
25 2 57 49 800 590 216 296 774 669 70 701 33 692 356 260 604 528 485 753 559 344 189 844 415 833
17 386 461 393 383 752 548 409 824 438 460 163 180 36 220 320 142 475
CELL_DATA 100
SCALARS cell_scalars double 1
LOOKUP_TABLE default
-0.00039162577562912304 0.0006626229414612439 -0.0021133430450994695 -0.005893617666499651 0.00040859579934426904 0.00044032013655925795 0.00029325896243470595 -0.0010171185961800333 -9.937280259197934e-05 0.0038808118074511455 0.0004685189729389805 0.0005190984339327187 7.557801409330267e-05 0.00036141150232982255 0.0012715909772618161 -0.01524027231236591 0.00018869251773345752 0.0012562150771939784 -7.88372379822988e-06 0.0007028279568253026 0.0008796176152783275 -0.009347320907564516 0.00014099864791283778 0.0003849852342474591 -1.7460678169989308e-05 2.5170956054587634e-05 -0.0005135809155412119 0.0010928477519680513 -0.05196790595776868 0.0005224057195984955 -0.0015780685407396078 0.0015800004874328977 -0.002392624043167757 8.824492917725024e-05 -0.00017288057606990037 -0.0021088068353591893 0.0011048930312220762 -0.0010212804047053936 -0.00017764163989131276 0.0014248682317257177 0.00020550801394580986 0.0011340805524273634 -0.002243240848043726 0.0019280097908049854 -0.04907937732183143 -0.00021514051872362216 0.0005446752638365027 0.00016468889551557453 7.220907795524312e-05 -0.0012956366237535377 0.0007848650087431963 -0.0001522475669464285 -0.028025357843450394 -1.5118406364145187e-05 0.002631070746159203 -0.00237154081097124 -0.06622758576728938 -0.0006307451320166635 0.00019127221763870494 0.002144395802086585 -9.482453000408952e-05 0.0001231824270533366 0.0005757704607187719 -0.004820272743356391 0.0002662406645992377 -0.02333187648415791 0.0003133664252903401 2.9361696980423346e-05 0.0012395962175864028 0.000568001569249077 -0.00012700593490322376 -0.0025767725037582068 -7.069866876285857e-05 0.0004671978259791487 0.0008518297433859345 0.0002571521052026071 -0.024173644078346435 0.00016565118353373265 0.0002907508296603467 -0.0009881449354924854 -0.056958455491243676 -0.000162753480053901 0.0012086309102850024 0.0005644932772881361 0.00045322906676492636 0.00039921656358110624 0.0026815626306229134 0.0002847492112802996 0.0002627455244859078 0.0003327545781619534 0.00015832899055379102 -0.00018935365986827435 -0.0006993177762586456 -0.00013537985361189442 0.0011024614695021029 -9.897535552827463e-05 0.00025673171086815216 -0.0005723834288486884 -0.0011698707869269853 5.14860430644859e-05