# vtk DataFile Version 2.0
polydata
ASCII
DATASET POLYDATA
POINTS 26 double
 4.11145e+00  5.59389e+00  3.94673e+00
 4.17195e+00  6.00772e+00  4.04065e+00
 3.90751e+00  5.16798e+00  4.42250e+00
 4.07443e+00  6.17358e+00  4.68969e+00
 3.86754e+00  5.38485e+00  4.87265e+00
 4.40358e+00  4.62530e+00  4.81926e+00
 4.09075e+00  5.18005e+00  5.14853e+00
 5.35067e+00  4.85608e+00  5.06851e+00
 5.16022e+00  4.60097e+00  4.84612e+00
 4.70803e+00  5.59524e+00  5.50645e+00
 4.72431e+00  5.57991e+00  5.49859e+00
 5.32223e+00  6.08550e+00  5.09660e+00
 5.33141e+00  6.31948e+00  4.58558e+00
 5.58783e+00  5.73225e+00  4.12447e+00
 5.68387e+00  5.22647e+00  4.84492e+00
 5.70105e+00  5.20709e+00  4.41409e+00
 4.81769e+00  5.30924e+00  3.70129e+00
 4.96548e+00  4.67224e+00  4.10647e+00
 5.15788e+00  5.76057e+00  3.75557e+00
 5.24200e+00  4.64571e+00  4.29828e+00
 4.32688e+00  4.63886e+00  4.49990e+00
 4.82164e+00  6.20956e+00  3.91898e+00
 4.31240e+00  6.33594e+00  4.83326e+00
 4.95463e+00  6.46642e+00  4.39074e+00
 4.78257e+00  5.97984e+00  5.39748e+00
 4.70800e+00  5.61176e+00  5.48568e+00
POLYGONS 15 93
5      2      4      3      1      0      
6      8      7      10     9      6      5      
5      14     15     13     12     11     
6      18     13     15     19     17     16     
5      6      4      2      20     5      
5      0      1      21     18     16     
5      1      3      22     23     21     
7      4      6      9      25     24     22     3      
5      16     17     20     2      0      
5      20     17     19     8      5      
6      11     24     25     10     7      14     
5      22     24     11     12     23     
5      23     12     13     18     21     
5      8      19     15     14     7      
3      9      10     25     
