# vtk DataFile Version 2.0
Really cool data
ASCII
DATASET POLYDATA
POINTS 880 double
4.77444591977686 3.794717278385175 4.887393432286247
4.77444591977686 9.078143823304876 5.615815957718027
4.77444591977686 8.389007363296896 9.476969384815268
4.77444591977686 2.3033696114346816 8.207260449993045
4.77444591977686 8.79126829963394 2.6342547684938915
4.77444591977686 4.393972332875958 2.689704299019476
4.77444591977686 5.603752830558244 2.2881642378178966
4.77444591977686 8.745467307357222 7.450337568470443
4.77444591977686 3.3118384538248185 9.123794913536086
4.77444591977686 1.8096728893305858 3.1700424796495152
4.77444591977686 9.119402026770668 5.58748007850112
4.77444591977686 0.5241577707469692 1.3076894669652335
4.77444591977686 3.2846872326060814 8.74758047530303
4.77444591977686 4.728373791606202 1.72458101897216
4.77444591977686 5.7140183103593785 2.9884709686429365
4.77444591977686 5.015939626246229 8.35686247046668
4.77444591977686 2.182821142532302 0.555904861425285
4.77444591977686 7.142136148712158 1.4877587098817233
4.77444591977686 7.888370570385751 7.347632007056039
4.77444591977686 4.710294815048937 6.906522342135017
4.77444591977686 3.3204273286694312 0.3766300878821871
4.77444591977686 3.224224634383922 6.667168828271624
4.77444591977686 7.727720111991089 4.499619093783904
4.77444591977686 6.941463289990803 8.452114683526744
4.77444591977686 7.765625454070833 3.8846552094195927
4.77444591977686 9.42372794481186 7.358868778258436
4.77444591977686 9.659334143477146 4.497412907351934
4.77444591977686 3.1626615526263135 3.106501241580695
4.77444591977686 8.660979832474169 4.390531782525467
4.77444591977686 7.199204288976097 4.669203088704732
4.77444591977686 2.7442582346692563 5.3887353733602374
4.77444591977686 3.989667108945974 7.451263801236467
4.77444591977686 8.981944301094527 3.232894160668716
4.77444591977686 7.764869321435564 3.8853404852980606
4.77444591977686 0.7571427770806556 8.594239404462888
4.77444591977686 3.6139053605597304 3.1645511497350145
4.77444591977686 0.5735804503848346 7.765403816106349
4.77444591977686 7.929226735551256 1.640950378726411
4.77444591977686 9.409880591564482 6.572104592108251
4.77444591977686 0.42048266115098254 3.240379065597596
4.77444591977686 5.2553732948628085 5.908722128639082
4.77444591977686 1.9009705983369156 2.7314901355721304
4.77444591977686 4.393589368726299 2.69207055404053
4.77444591977686 3.2011185812306917 8.920169528290824
4.77444591977686 0.8637859439167628 6.362534581201128
4.77444591977686 6.096666962480584 8.797380639892362
4.77444591977686 7.3127553354297055 6.618824909605486
4.77444591977686 3.4317090183918038 0.3971834228467965
4.77444591977686 7.929673601012426 1.635709990848183
4.77444591977686 8.394889982801862 3.7135841733226367
4.77444591977686 3.052033045631521 1.2543048332878253
4.77444591977686 3.732701303204603 6.845711181814585
4.77444591977686 7.972706244920683 8.548832575613028
4.77444591977686 8.83613955493297 2.5493377835533684
4.77444591977686 5.913026705072709 7.846125590129057
4.77444591977686 7.958110686772134 7.431896272900975
4.77444591977686 6.70531913696132 6.158274576682412
4.77444591977686 1.9689366584650292 9.11694964891481
4.77444591977686 0.8794769893802631 1.3832762121431363
4.77444591977686 4.853895146600164 7.409241829529652
4.77444591977686 1.9757830869216568 5.368021461778854
4.77444591977686 8.801726303162326 2.6111915601755076
4.77444591977686 5.641058663061339 7.531031106422243
4.77444591977686 2.3654508779296077 9.024607487070437
4.77444591977686 9.620719116430013 8.550215872177018
4.77444591977686 5.861221976331833 0.8191586510158149
4.77444591977686 7.799192788632363 7.676216370654315
4.77444591977686 5.397879855677342 2.326716196909604
4.77444591977686 3.0455250740903383 0.6768739296711866
4.77444591977686 4.870330173960464 4.523811681447959
4.77444591977686 9.588557703291771 2.325541417579449
4.77444591977686 7.887370284517841 4.238774934333439
4.77444591977686 1.6604382093774042 3.638743135338464
4.77444591977686 5.5211946867336685 9.337485646995429
4.77444591977686 8.027324607745415 6.133612702386103
4.77444591977686 1.9783137309398842 4.6683757056080495
4.77444591977686 7.9492971938261805 1.6418161569527652
4.77444591977686 7.098470971580396 8.043897589567115
4.77444591977686 0.22316103838210172 6.357316528159498
4.77444591977686 1.237103301533038 9.74297812149442
4.77444591977686 6.407661165729716 7.014250649705352
4.77444591977686 9.438548977166679 8.19686513640742
4.77444591977686 3.109021083356942 5.646092809233093
4.77444591977686 3.4758379938779074 8.411884957554706
4.77444591977686 0.9427375097447618 8.626014306206756
4.77444591977686 2.2842621228551887 0.4712954518501086
4.77444591977686 3.2004788548813163 2.3607701756575965
4.77444591977686 9.886650700436192 3.954835583305543
4.77444591977686 8.027042736293653 6.12259446467996
4.77444591977686 6.650869489168151 5.980428648411052
4.77444591977686 2.57764366003723 1.64935005442364
4.77444591977686 5.463991806838667 1.2695700905934069
4.77444591977686 6.608185824804054 0.26230719677164605
4.77444591977686 7.4916535176014465 2.6421408542684452
4.77444591977686 2.817606197057397 7.050020806717724
4.77444591977686 4.554863837490619 8.801618670614134
4.77444591977686 6.884121423980881 0.8003580542431599
4.77444591977686 6.674079212506959 9.492082460308264
4.77444591977686 4.417687259912476 3.186128104005351
4.77444591977686 8.139370179634831 2.993561590485828
4.77444591977686 1.396760884075289 3.214374143295863
4.77444591977686 7.575337001405846 1.218828386894209
4.77444591977686 1.543686208113951 3.555548780682417
4.77444591977686 2.007414672694542 8.12465108020214
4.77444591977686 6.03961922774433 4.091303250922266
4.77444591977686 5.084950752596482 8.850305916859398
4.77444591977686 8.798761886702126 2.9762181890327386
4.77444591977686 5.894912839709133 5.341278464385699
4.77444591977686 3.999185913802792 7.2353287803499935
4.77444591977686 3.040551878405345 0.6874206409351103
4.77444591977686 0.4605227430425897 9.723646559529495
4.77444591977686 5.049228268736467 1.3414845770991783
4.77444591977686 8.922576625594473 8.113475891585773
4.77444591977686 2.7879474670820534 7.491540084690472
4.77444591977686 8.265602283657413 4.66334992759618
4.77444591977686 3.5827580458280024 7.836412050992886
4.77444591977686 5.208907909724935 3.4129229437964734
4.77444591977686 6.375821622979065 7.527909632617258
4.77444591977686 2.3340602556985686 9.629058668782552
4.77444591977686 6.322853323347326 3.7323574499712806
4.77444591977686 2.5869463581266485 6.367043233412176
4.77444591977686 1.8223766242842925 6.814872179125855
4.77444591977686 1.845050566074261 2.2126799406403133
4.77444591977686 7.320547100558331 5.437625233735594
4.77444591977686 3.480834145543758 9.471376722491513
4.77444591977686 4.1674573724964485 5.20265554035924
4.77444591977686 5.894940955594688 7.735009347113845
4.77444591977686 4.947634979027552 0.8271397113159206
4.77444591977686 4.811289037361067 1.339165499535016
4.77444591977686 3.066040903716428 0.6943425365205778
4.77444591977686 0.9223371894807195 1.3209668285640737
4.77444591977686 4.470917649294894 7.695218346827051
4.77444591977686 5.965730458364428 2.156559303538082
4.77444591977686 7.901376658709901 5.659923078473595
4.77444591977686 1.0684336856636125 1.81278260047896
4.77444591977686 1.9583690531699072 5.421928898072401
4.77444591977686 3.8487410954822314 4.933018159284515
4.77444591977686 4.550813823569681 0.09201916852119936
4.77444591977686 2.191018993123164 3.2114170997539686
4.77444591977686 6.144675128714082 8.537790364487808
4.77444591977686 3.71805342221816 0.4385208261217898
4.77444591977686 8.864170573660891 7.757578603956686
4.77444591977686 3.174726477874484 4.1977322478828
4.77444591977686 8.870517043264735 6.194661023216758
4.77444591977686 8.239923369215417 4.601968127005645
4.77444591977686 4.583813742590749 5.954902451216445
4.77444591977686 6.522018120510965 8.477265461595756
4.77444591977686 6.324130187107881 3.6150121841979113
4.77444591977686 2.2988734619614974 9.426256294000746
4.77444591977686 5.420112497623641 1.283924285752424
4.77444591977686 9.326391757933974 4.9032639582025075
4.77444591977686 0.41486151169849017 3.442916974962143
4.77444591977686 9.14900774725479 1.1209922754663906
4.77444591977686 6.600778738560623 6.250024810749067
4.77444591977686 2.726307946530008 5.211529563928342
4.77444591977686 2.182035245583384 6.559743836805484
4.77444591977686 8.544682112512085 7.159802981868554
4.77444591977686 4.516984470515588 4.978429266775017
4.77444591977686 7.0338985742997675 8.658230960367092
4.77444591977686 6.6440158858906475 5.750377699871852
4.77444591977686 8.074510164745204 3.5826901887040816
4.77444591977686 2.5072460781262906 1.9515576141275495
4.77444591977686 0.19987409759924565 9.406898577595307
4.77444591977686 6.353072580112313 3.6950185631748766
4.77444591977686 8.150656777659801 8.876766811138046
4.77444591977686 7.645087196795301 6.928524410109702
4.77444591977686 9.319285176199342 5.020730959086246
4.77444591977686 5.994345606447047 7.5051223243465515
4.77444591977686 1.904806592719721 3.6183909824626563
4.77444591977686 6.938356498760396 2.071192517741176
4.77444591977686 8.761474238162485 4.34097774049869
4.77444591977686 3.9569241642599224 8.485436135014302
4.77444591977686 4.000544210096665 9.494383383064582
4.77444591977686 9.748162344489197 8.878677763931774
4.77444591977686 2.972148878551757 3.571665569237411
4.77444591977686 6.231541640037446 0.2879684418255723
4.77444591977686 7.118403995323264 8.830728050750011
4.77444591977686 2.276663574538183 5.658128571647081
4.77444591977686 8.264424978731554 4.616147568795889
4.77444591977686 1.7489292656706945 1.2933685164546715
4.77444591977686 4.868291534290399 4.554344923671902
4.77444591977686 9.301459962261053 8.1400005059853
4.77444591977686 1.2421336655275745 1.034709455530488
4.77444591977686 7.3226783992646665 6.619865332606607
4.77444591977686 7.1930267597730335 4.671521972351822
4.77444591977686 7.918614059020392 0.6900313777127182
4.77444591977686 6.893122693085862 0.8449094451302506
4.77444591977686 8.142659997661562 2.9679509491323866
4.77444591977686 9.553089629126486 6.667434175077853
4.77444591977686 4.53625346838266 6.806684512413874
4.77444591977686 6.904159925129172 7.685604668988566
4.77444591977686 4.885561320912543 8.282441530643698
4.77444591977686 6.325248152350247 5.570085849929076
4.77444591977686 6.55388428189423 7.432642349602057
4.77444591977686 0.2185422529920152 9.08360712998222
4.77444591977686 9.234234662015446 3.4120564152106283
4.77444591977686 2.3578252581860344 5.658360702109123
4.77444591977686 0.8569049221092038 2.09659082652419
4.77444591977686 2.1027550893932014 5.055817770973617
4.77444591977686 2.5218912099881376 4.085322269046082
4.77444591977686 2.9699363099100173 3.6342241214627564
4.77444591977686 0.7842856560895113 4.207594818194342
4.77444591977686 1.2338031487003198 1.8167052625713105
4.77444591977686 3.064579435819787 1.174757141743469
4.77444591977686 7.478118644226894 7.819633952968449
4.77444591977686 8.73597146461278 3.824767050934114
4.77444591977686 4.7883542902505125 4.196590665760676
4.77444591977686 6.68654579658177 3.721200116736488
4.77444591977686 5.6977057553837875 6.535674602622185
4.77444591977686 1.1384623852406703 4.367302447837756
4.77444591977686 9.012902785333372 3.4788774903312856
4.77444591977686 8.585669727287565 6.751324874773568
4.77444591977686 9.036524026935043 4.464429272038678
4.77444591977686 5.219583377035184 3.3970576317884476
4.77444591977686 4.950325832996266 0.7416621215603385
4.77444591977686 4.021741632664025 3.2213688778446596
4.77444591977686 7.1719961167389314 5.229610612681277
4.77444591977686 5.023626991537688 5.922356688290857
4.77444591977686 1.7030464451107674 2.923674148520984
4.77444591977686 0.6341138322209242 7.8249157887869565
4.77444591977686 6.321600797939681 6.976040336246032
4.77444591977686 3.2345642611078818 1.0498872501191006
4.77444591977686 0.8205487763495691 9.85132051428501
4.77444591977686 4.243900287139532 0.1513164322565922
4.77444591977686 5.81835772636379 7.559128594856401
4.77444591977686 8.677017844091655 6.414055984262692
4.77444591977686 0.5445424544133285 1.1238977910290109
4.77444591977686 1.8878250974329855 0.974015463090014
4.77444591977686 7.165094797221114 2.801543599851604
4.77444591977686 2.1762082434968444 3.051876554369667
4.77444591977686 0.8874098840125711 5.137045347031887
4.77444591977686 5.676032256753537 8.290415166806188
4.77444591977686 9.463678496476605 7.416443235324609
4.77444591977686 1.477035359589106 1.1549781991086245
4.77444591977686 5.220759092509609 6.521089340042483
4.77444591977686 4.3923781616177004 5.7675121729701155
4.77444591977686 0.9353807101863535 1.7459174012615843
4.77444591977686 7.831115068307176 9.345437097715608
4.77444591977686 2.9612156822818068 3.679712965851873
4.77444591977686 6.845997299664645 2.5586870167604783
4.77444591977686 9.81004190313857 2.086753116006478
4.77444591977686 0.6924430989274395 7.3476242422089815
4.77444591977686 4.669783316386081 4.099520343258176
4.77444591977686 2.6715625398207625 7.951158836544506
4.77444591977686 5.347155699519116 7.484942716394308
4.77444591977686 2.0364645902070113 6.808124184570417
4.77444591977686 0.48752775467815024 8.8170649163587
4.77444591977686 2.7814499532622996 3.1963912378839807
4.77444591977686 0.9898824904013489 9.81044303767443
4.77444591977686 4.593005847985245 7.746870660200555
4.77444591977686 7.235204527179451 1.7348163825691272
4.77444591977686 3.1028042333025097 1.2592136418317466
4.77444591977686 5.785963118687091 6.570226560198983
4.77444591977686 5.296871942068613 6.08196364517865
4.77444591977686 2.6070149116468344 3.158281594394812
4.77444591977686 4.924825070921691 2.1651779865735
4.77444591977686 8.400198706280623 3.7149341158533438
4.77444591977686 1.6156136825698104 7.462255953615628
4.77444591977686 7.623815149671076 2.0191725796339375
4.77444591977686 6.46071413631487 1.3714264710398238
4.77444591977686 1.9691866118581582 2.3444150683074696
4.77444591977686 7.557821797516651 1.9613098379533742
4.77444591977686 4.935449494431064 0.21437472981827355
4.77444591977686 0.8506673238289297 2.8795873317662046
4.77444591977686 8.37506107079888 0.5464523155563521
4.77444591977686 6.055285953624019 9.038100454569843
4.77444591977686 3.760364351887242 1.981021566764931
4.77444591977686 6.937263898757878 7.710428922911194
4.77444591977686 8.421087471640512 9.35392142522131
4.77444591977686 6.582162376316655 7.247602523275846
4.77444591977686 8.831276415933488 6.296320699262798
4.77444591977686 7.737477786454302 6.421401190350943
4.77444591977686 3.865563755804443 5.684160934012268
4.77444591977686 1.6461179321217956 7.3811434467354475
4.77444591977686 4.6037786956189235 2.1912321818446063
4.77444591977686 8.178989762539 6.057154316457041
4.77444591977686 8.45681026011039 7.231470570341257
4.77444591977686 1.723552024509064 7.738162231355297
4.77444591977686 1.2505558234607208 5.9694703401213935
4.77444591977686 5.5751978807670355 5.215296034069992
4.77444591977686 4.836848751245662 7.356290220550891
4.77444591977686 5.881845397444896 1.2707508015307742
4.77444591977686 4.7095931549585 6.903096922320121
4.77444591977686 0.706312512656362 2.504855117813258
4.77444591977686 8.100217723235597 3.3772624317131834
4.77444591977686 4.51455551355925 3.943126518363221
4.77444591977686 2.155335566752115 8.166753591301376
4.77444591977686 7.0813960708218735 3.593124809294223
4.77444591977686 9.08423464948149 3.3903354609510443
4.77444591977686 4.64949587149022 7.658416718382671
4.77444591977686 8.44714651565645 7.389990187193148
4.77444591977686 4.392373964407347 2.6977207729498507
4.77444591977686 7.261962777112182 2.753818971254522
4.77444591977686 5.904393251470064 5.324941547706647
4.77444591977686 8.08952683777206 7.399471717080916
4.77444591977686 5.95929774001317 8.347686954073131
4.77444591977686 5.118282463641856 1.3734352461549333
4.77444591977686 1.7486401347497667 1.2940259402753618
4.77444591977686 8.700514672513759 1.7428136902716338
4.77444591977686 6.526221705981314 7.473367535552558
4.77444591977686 4.474661904327543 8.434100963511415
4.77444591977686 8.45947019997412 6.0147737890600705
4.77444591977686 8.724647699642361 1.804461624556302
4.77444591977686 4.157701062985184 9.495777611381463
4.77444591977686 6.787990016826618 1.2747578754971844
4.77444591977686 4.103341695067615 1.184334204847816
4.77444591977686 1.0063772176992178 4.756328886581237
4.77444591977686 4.9392245341258425 0.4618304134374055
4.77444591977686 3.044819515341765 6.712681365440302
4.77444591977686 2.49230978362178 1.7594143479964421
4.77444591977686 4.40224830707013 8.556662160491722
4.77444591977686 1.6504569725096818 2.030919180878198
4.77444591977686 2.013782967717399 6.813764781178949
4.77444591977686 6.365674790308103 9.36609754365364
4.77444591977686 8.8959966538906 7.940405332388743
4.77444591977686 0.5058626310348845 8.801899370973745
4.77444591977686 6.895307861305481 4.036108255910111
4.77444591977686 7.318490262827908 1.281733369447018
4.77444591977686 8.882905762046995 3.6396692769729446
4.77444591977686 0.4465571533413696 7.560654933603001
4.77444591977686 4.496996203777297 6.972909117260551
4.77444591977686 1.2020436494701812 6.186725896913623
4.77444591977686 7.826789122974476 7.937246496034826
4.77444591977686 7.743896630798928 6.4143994132028315
4.77444591977686 4.541180100894344 3.2849435095765966
4.77444591977686 1.7477152982303077 1.2942384983380868
4.77444591977686 4.792589213750671 5.938542670815452
4.77444591977686 9.881319072262459 1.4409802102162659
4.77444591977686 2.8011789489699037 7.580574161502326
4.77444591977686 2.1683199977398506 5.026789501821173
4.77444591977686 4.170491285162229 3.9478233285275164
4.77444591977686 2.508268226245979 1.9854375825574453
4.77444591977686 1.808172345022115 6.869720290687476
4.77444591977686 0.41424864516543003 7.611763817705153
4.77444591977686 8.275196722927678 5.352487150294643
4.77444591977686 8.857981564099049 3.045699636960321
4.77444591977686 0.205844770782893 9.518163664887314
4.77444591977686 2.9813307042853894 3.236576106809499
4.77444591977686 0.8186342853370381 1.5265147305057378
4.77444591977686 6.339948518892555 4.508451993711964
4.77444591977686 9.403128852611518 3.4326573703476506
4.77444591977686 3.9006432056662224 1.9877892427949793
4.77444591977686 6.91044855991435 5.560970036863293
4.77444591977686 3.532496119710679 1.3598318879500793
4.77444591977686 7.614640188228541 2.4079810380375233
4.77444591977686 6.369701530115003 5.596184336213248
4.77444591977686 1.1396362569593486 1.0769130405024976
4.77444591977686 2.5287192924217896 7.076931251947806
4.77444591977686 6.1235623817688145 2.268148624214921
4.77444591977686 6.223332709287979 3.3198037019608924
4.77444591977686 4.334002141644768 5.712710567164624
4.77444591977686 8.079965468884867 2.9220420305360566
4.77444591977686 7.052833185602545 1.3048833093769454
4.77444591977686 6.58325803958068 7.10526479975388
4.77444591977686 4.597890497932867 3.713838727483798
4.77444591977686 7.166257018556719 7.879255630647628
4.77444591977686 4.522508298709606 2.232682323998412
4.77444591977686 2.76445661064674 8.911456491314384
4.77444591977686 8.85986920912664 5.8004518281159
4.77444591977686 8.545391029737043 6.0219809017310375
4.77444591977686 3.86463532494126 0.6777528102010288
4.77444591977686 7.692738453468821 1.951497449638012
4.77444591977686 6.776937932122749 6.891843574772057
4.77444591977686 8.799922550936095 1.6165688339977526
4.77444591977686 7.053795489112572 2.720493080966265
4.77444591977686 7.273971809116592 1.775841058239886
4.77444591977686 0.3239469445298311 5.378379757706693
4.77444591977686 6.93943999460474 1.2286100065384629
4.77444591977686 0.9794204468818857 1.1259133046160854
4.77444591977686 6.955096116429612 6.626999785064176
4.77444591977686 4.698225090168097 3.437656950175106
4.77444591977686 2.9267313935640016 4.009605867657185
4.77444591977686 0.10716568689360557 5.6833411516379915
4.77444591977686 3.75809061066689 5.742263050247991
4.77444591977686 5.865112139262877 5.196401737327517
4.77444591977686 0.661217667750666 9.8939812671727
4.77444591977686 8.266676629224133 5.050865999254468
4.77444591977686 4.855222833953568 3.415472378803221
4.77444591977686 6.572767317805228 2.436156054407075
4.77444591977686 4.257417668051011 7.14773265375284
4.77444591977686 3.193014191057217 9.868651682771787
4.77444591977686 2.3702469043855303 8.568420535142582
4.77444591977686 3.2958590176112255 2.3660584910216795
4.77444591977686 1.7495270984424824 1.2945669640091748
4.77444591977686 7.597811341277838 0.3289909396079584
4.77444591977686 0.4360322005769811 8.858020517126986
4.77444591977686 4.935647897660619 1.2732654798267107
4.77444591977686 6.059710862463686 1.726321093410513
4.77444591977686 3.1175978656088095 3.1386720067698914
4.77444591977686 6.35496778497012 2.51244295324316
4.77444591977686 6.184051566111429 6.646342646264628
4.77444591977686 6.012409337082754 4.096863887718353
4.77444591977686 5.9588951103172265 9.1889557238778
4.77444591977686 4.528691295823057 6.507624431263397
4.77444591977686 0.6066765477422482 6.8709087717532675
4.77444591977686 0.5926451879800575 6.7615652070352725
4.77444591977686 7.93502453478452 7.436382525038213
4.77444591977686 1.3940377152723096 8.85860039929094
4.77444591977686 4.670916846339537 8.128914150898396
4.77444591977686 4.527389774579888 6.801292339978392
4.77444591977686 5.408624057834146 3.9490577525022865
4.77444591977686 7.808386111406347 1.310904311486696
4.77444591977686 3.4220337016195206 8.250839330497715
4.77444591977686 4.386410150615711 0.037373231411479614
4.77444591977686 5.104233628763156 1.9636225212256648
4.77444591977686 4.839992137726943 0.1825017745233616
4.77444591977686 4.13886895936271 5.528164019213332
4.77444591977686 8.908667149610705 2.233651174699592
4.77444591977686 8.44219758228907 9.02009677547146
4.77444591977686 5.882908830364267 0.7252496378165086
4.77444591977686 1.5605524483423423 1.588512752003034
4.77444591977686 3.52109792798544 3.120905292399944
4.77444591977686 5.509903663627113 5.216074422758431
4.77444591977686 2.138797651436867 4.3151314034943224
4.77444591977686 4.466128808444349 8.65303071225257
4.77444591977686 6.552717176808719 8.47545216295493
4.77444591977686 1.2799828849878685 5.836487681436156
4.77444591977686 3.684804916311604 4.265011617157856
4.77444591977686 8.400518051555483 8.919903637209718
4.77444591977686 2.3157831813772956 5.691367978588495
4.77444591977686 0.20560625446895875 9.506127148185264
4.77444591977686 3.5645224357533496 9.470868554050785
4.77444591977686 8.546688417974675 2.8521177728195912
4.77444591977686 1.9576939037439942 6.827792500584694
4.77444591977686 5.121686248809682 8.745208700511279
4.77444591977686 6.105373136012488 1.4639968359236994
4.77444591977686 4.709327712754562 6.902722952189596
4.77444591977686 3.9893178188684 7.489285079892491
4.77444591977686 7.765490311225719 3.8846760582377806
4.77444591977686 7.783055377241399 9.116589661672158
4.77444591977686 9.800001622840163 2.30806513632661
4.77444591977686 9.808181056769438 4.43859868066787
4.77444591977686 7.05098463636944 9.115427170931264
4.77444591977686 6.020112385929743 2.165862296254013
4.77444591977686 3.2752277756809667 2.7081608645374913
4.77444591977686 0.4012054469423513 3.9344589202449347
4.77444591977686 7.178885369074447 8.974359129105832
4.77444591977686 4.492159134867374 2.2455191605542266
4.77444591977686 1.8807801662722168 6.918378111940235
4.77444591977686 0.3477591974764833 6.414195501279746
4.77444591977686 3.514249193931812 4.431854435491654
4.77444591977686 2.289585446370703 6.393716118438585
4.77444591977686 0.4040995073929122 3.879753929062668
4.77444591977686 1.3085419441744546 8.689627775921126
4.77444591977686 2.062683956166104 3.873607045022797
4.77444591977686 0.7517943070489075 4.183070764169877
4.77444591977686 6.209504675598415 4.531937107125991
4.77444591977686 1.422913621560066 1.12654915017116
4.77444591977686 8.244493776024667 8.369320871896202
4.77444591977686 4.2352046259378024 1.5722892207595947
4.77444591977686 7.833738380345435 8.926961050809787
4.77444591977686 8.857894645009058 0.5692746252454641
4.77444591977686 2.387819874184767 6.220761667911781
4.77444591977686 1.4367522614796397 1.8050943441381215
4.77444591977686 4.693074866055906 8.862852067612511
4.77444591977686 1.5691826010766854 4.527361129059043
4.77444591977686 3.485693448234494 5.890356823537951
4.77444591977686 4.154343342798296 5.3524869173865754
4.77444591977686 2.3812395916086775 8.611826100600611
4.77444591977686 8.00263288361156 5.578684513732881
4.77444591977686 8.880088314450981 6.260155472358111
4.77444591977686 7.759295248191164 8.983002157518845
4.77444591977686 0.8109149837865584 3.0335914318084742
4.77444591977686 2.6061224723777303 0.5482874476147537
4.77444591977686 9.488841575110971 8.223876986245749
4.77444591977686 2.3617741716996803 9.832077256343792
4.77444591977686 0.47789391399411185 6.48037144132735
4.77444591977686 5.089756640463607 4.932224585207171
4.77444591977686 5.377903100248814 6.4016637448175295
4.77444591977686 4.528753588326445 6.775011696189865
4.77444591977686 3.4743306534007155 1.3367088035526653
4.77444591977686 0.7121864322394724 8.34597445083755
4.77444591977686 1.4264101560447267 6.425699569242247
4.77444591977686 7.623909168404378 5.5587359662716604
4.77444591977686 0.6281625786956324 5.160165426673537
4.77444591977686 5.123230905827681 1.5017560223408297
4.77444591977686 7.275941000642116 0.1619865699133722
4.77444591977686 1.5234237185126327 9.121329631542704
4.77444591977686 7.186225369113703 1.8341723257842766
4.77444591977686 2.7217325846591645 7.177184249377966
4.77444591977686 7.005916345290426 0.29444863176973
4.77444591977686 4.559559963066247 6.183330917224611
4.77444591977686 0.45289293088314453 7.654743674989896
4.77444591977686 2.0661550970034934 4.444995667349787
4.77444591977686 8.024250352363955 6.079232971620917
4.77444591977686 3.5990311022030914 6.745330727530777
4.77444591977686 9.471273761335842 7.7646474590179695
4.77444591977686 7.139918374412197 3.0262448933467665
4.77444591977686 5.433543299305338 9.242113896522806
4.77444591977686 7.611841977245521 2.5841304511859176
4.77444591977686 7.884594601315713 0.7954431772167967
4.77444591977686 6.0491696176696355 1.7897587381371343
4.77444591977686 7.032599532894906 3.6407463273229985
4.77444591977686 4.307152294589452 3.9561269707307742
4.77444591977686 5.0150283131051205 4.2321805446399035
4.77444591977686 2.6726255056794868 4.052096155005831
4.77444591977686 4.84497558273186 4.766267293550426
4.77444591977686 3.4452269079279563 9.523301130270015
4.77444591977686 1.290428140839454 7.483699097909221
4.77444591977686 1.3101490385177101 9.593752570972741
4.77444591977686 7.162394422959091 5.3809114401331515
4.77444591977686 0.48856565950856257 3.1859744968707284
4.77444591977686 6.672491728219751 2.42521093221
4.77444591977686 8.727839218316017 0.501824485268457
4.77444591977686 2.8314443564900453 7.836522071810862
4.77444591977686 8.853820222126636 9.42271561863214
4.77444591977686 0.2193593965567114 9.031906514828341
4.77444591977686 1.7483257815382387 1.2941191900994575
4.77444591977686 9.478069345724947 4.568351336597547
4.77444591977686 6.854888448562624 2.181307190079921
4.77444591977686 7.8258926850125965 0.5791578570454464
4.77444591977686 5.1930944125970715 3.4145557402502136
4.77444591977686 9.099451695229561 2.339760531740323
4.77444591977686 0.9700741892926764 1.8220477084062643
4.77444591977686 3.440174794662433 9.390475094865971
4.77444591977686 6.6575268107521275 6.283300251607783
4.77444591977686 9.005174129704844 5.660196884521424
4.77444591977686 1.9169775969474843 3.587190892323034
4.77444591977686 8.349468662645238 9.588660771167259
4.77444591977686 2.765529964012948 1.485439713797882
4.77444591977686 8.041169849489217 6.141712910710087
4.77444591977686 5.850410800204151 5.190065638939723
4.77444591977686 8.33607461499183 8.386595622360367
4.77444591977686 1.8580912924646014 8.081851924204333
4.77444591977686 5.284061878535613 7.47934141101293
4.77444591977686 3.374336505069498 8.606141323654146
4.77444591977686 0.4424114321662082 3.224040249643736
4.77444591977686 6.645992370173793 5.817574523827033
4.77444591977686 3.7452625708808385 8.46112876069792
4.77444591977686 6.799867218453361 6.3550685781601555
4.77444591977686 5.99942104357038 8.390227294414634
4.77444591977686 5.102731607481583 4.942142891469557
4.77444591977686 6.123365659229679 8.707833440523922
4.77444591977686 0.6948297147286034 8.24958785178513
4.77444591977686 1.7672883485109778 7.839526395825221
4.77444591977686 9.113531221971094 9.429078206652886
4.77444591977686 5.7743353846633125 1.179628224695195
4.77444591977686 5.825834729476303 7.583306184771734
4.77444591977686 1.3802712756384068 4.048608132434216
4.77444591977686 8.844623114407312 6.008198461894337
4.77444591977686 8.493716411627691 6.401154771050097
4.77444591977686 5.495113486786054 2.981408439276981
4.77444591977686 8.50191842725709 9.162396403904427
4.77444591977686 1.8297170864839551 3.2371482290476026
4.77444591977686 8.755754488362212 4.214548734725861
4.77444591977686 7.841459047757805 0.9350103883598739
4.77444591977686 4.705261467469089 6.907632846596861
4.77444591977686 8.075508193550958 0.6436302192327079
4.77444591977686 6.781221756521242 9.459527982235082
4.77444591977686 5.823726696716817 8.210803945057581
4.77444591977686 3.059212578936543 0.6671861747124177
4.77444591977686 0.9435183821382116 6.3214303588448315
4.77444591977686 6.961349185571399 4.513953318908882
4.77444591977686 5.83560619667045 7.542487225958229
4.77444591977686 9.314500976217419 5.4607564162230915
4.77444591977686 6.109195263663145 6.780258072666846
4.77444591977686 1.9393936746014602 2.7828916877327274
4.77444591977686 5.506970067301428 5.274248224905673
4.77444591977686 7.786775504636626 2.707381054584839
4.77444591977686 0.6602686777502452 1.4017948256081298
4.77444591977686 8.182391004518403 5.429657377104389
4.77444591977686 6.132385845744829 6.880368131358536
4.77444591977686 5.96546218792541 1.3469974006278351
4.77444591977686 7.074703006677823 0.24854001901573117
4.77444591977686 1.6740947877829861 4.573211514444547
4.77444591977686 6.696720449778805 0.31982269525806634
4.77444591977686 1.310712493374337 7.483524640012755
4.77444591977686 4.940930736821396 1.0180820938815833
4.77444591977686 1.162869580636354 4.359134739543016
4.77444591977686 7.172825686725367 5.006195936515909
4.77444591977686 9.571822925997628 7.567216548663274
4.77444591977686 8.646375704938531 0.46000200693829574
4.77444591977686 9.163850113561386 1.1507807005083388
4.77444591977686 8.568364106575203 8.430249402537854
4.77444591977686 6.036305926828546 4.113746583262697
4.77444591977686 4.068543444080151 1.987108027466037
4.77444591977686 1.221624531341417 5.485326715166327
4.77444591977686 3.402483803289842 8.193084822935306
4.77444591977686 4.512489536130447 6.807410949288704
4.77444591977686 0.27629345626617285 5.4443978328576215
4.77444591977686 4.616748207857296 3.6618868972426033
4.77444591977686 8.716103190829514 9.322545132181531
4.77444591977686 3.349827722978901 8.035735730402871
4.77444591977686 4.106038797897991 0.2705517769639211
4.77444591977686 8.750675764021299 4.0414813283695
4.77444591977686 4.709541602161329 6.902851273338369
4.77444591977686 6.9946851432567545 6.5732275150848585
4.77444591977686 2.535610945915795 9.840889360228465
4.77444591977686 7.742064031847556 7.779853412339875
4.77444591977686 5.864822130521229 8.052865447633964
4.77444591977686 1.011687716141892 5.266839499779499
4.77444591977686 4.551043254203656 1.3554501902243272
4.77444591977686 4.309268722218876 3.080337704855581
4.77444591977686 4.972575168030414 1.2926677925489318
4.77444591977686 6.965951664749436 6.535734190572362
4.77444591977686 9.055176708019529 7.452680155050393
4.77444591977686 6.894196386781971 4.0657380434783885
4.77444591977686 6.88850869017364 5.57575787283219
4.77444591977686 1.8507126730929007 2.7887477262096456
4.77444591977686 3.979983017213465 7.061722191636568
4.77444591977686 6.106104334841284 7.527270628671913
4.77444591977686 6.045747950343677 9.155544638497235
4.77444591977686 9.845092018112018 4.34019920583988
4.77444591977686 6.988883128116415 9.225905955641386
4.77444591977686 5.889463290427013 7.492750079514214
4.77444591977686 3.256811390983612 5.738509487553352
4.77444591977686 6.976938695345725 1.253949696379048
4.77444591977686 3.290729582904083 9.7345350523105
4.77444591977686 5.3868419080516485 3.1300260034946072
4.77444591977686 1.3753904276324105 0.7324455659682017
4.77444591977686 5.158345147158791 8.647956774518923
4.77444591977686 7.927590068849031 4.428559668788886
4.77444591977686 4.338187772177298 9.25027988493334
4.77444591977686 8.800084551948972 5.702458092038345
4.77444591977686 7.355766844351437 8.978702240353165
4.77444591977686 6.059010813328873 7.1391295333933735
4.77444591977686 8.60493220352628 6.471348593737309
4.77444591977686 0.6335244299418674 7.311977448159083
4.77444591977686 3.25865316441528 2.3949927624915284
4.77444591977686 8.29072609860449 4.603393638378972
4.77444591977686 8.86518047557076 5.74729370029068
4.77444591977686 2.8760401819854198 6.5633001346382835
4.77444591977686 7.754766615087315 1.177841354673058
4.77444591977686 4.9191740046319925 6.752895198933355
4.77444591977686 6.344559666245941 6.495209038468932
4.77444591977686 6.031717431837492 4.101250371717674
4.77444591977686 3.639881526460923 1.2915247327407344
4.77444591977686 0.5985034908790237 7.360504177478623
4.77444591977686 8.409137655467925 5.452283700186423
4.77444591977686 6.097243995222873 6.727474398592379
4.77444591977686 4.007943292782921 7.023275623751643
4.77444591977686 4.595626163740254 8.862703676489247
4.77444591977686 4.513552201018601 4.9806783679883715
4.77444591977686 7.188672195016241 4.665926231199624
4.77444591977686 4.045841717620777 7.513346099474276
4.77444591977686 2.247375083575387 3.145370455534155
4.77444591977686 7.919952647622199 7.4633597247507355
4.77444591977686 1.3361950160930143 5.60503103907403
4.77444591977686 9.370329948506784 2.3490151289105556
4.77444591977686 3.8923454554266312 4.969731554669871
4.77444591977686 9.046416809610896 8.12204842228794
4.77444591977686 2.9798665831832114 7.897465734696004
4.77444591977686 2.498744095154352 8.072675347855242
4.77444591977686 2.0281188307130322 4.790943233251546
4.77444591977686 6.3402577934500846 2.413986567115272
4.77444591977686 4.498049713170454 9.00514470086822
4.77444591977686 1.5712703981048437 1.5677451195020475
4.77444591977686 3.861589686514344 0.4660093389156044
4.77444591977686 5.5247960477981195 5.401081352403525
4.77444591977686 9.348001663016749 9.419840532179268
4.77444591977686 0.8373909222651753 7.597052750841448
4.77444591977686 3.646233997093204 1.6631839688065813
4.77444591977686 6.913646620715099 3.728492050867874
4.77444591977686 6.591514387623937 4.483995826971711
4.77444591977686 6.139758779486434 5.46466161304795
4.77444591977686 1.5762614305026041 0.3607458143562384
4.77444591977686 5.731577407756374 4.037856152361134
4.77444591977686 9.644899541156942 3.478318157027772
4.77444591977686 4.507726907018661 4.984431287343542
4.77444591977686 1.7590078542890955 0.4922938585946518
4.77444591977686 6.580026230496066 1.3424674738064744
4.77444591977686 9.879601850168592 1.4363259888621394
4.77444591977686 6.7086165405199685 7.562528465049794
4.77444591977686 5.53317474298968 5.516985006300939
4.77444591977686 7.811718254679486 9.24202486509918
4.77444591977686 2.081224613178676 1.5038708743076135
4.77444591977686 1.1208580957082541 4.374351983596172
4.77444591977686 5.461242904702487 8.373026461781018
4.77444591977686 7.030249656355475 8.215269382168936
4.77444591977686 1.4485562447377824 9.285037564561678
4.77444591977686 3.674540851727836 1.7329481499980874
4.77444591977686 5.135058424795519 2.1608197381231324
4.77444591977686 5.441489909135933 2.5779668821315522
4.77444591977686 8.328010018735593 1.6924301822146826
4.77444591977686 9.3165439570403 7.386601492881728
4.77444591977686 2.491737118013035 1.7204673782754787
4.77444591977686 5.208052109763184 8.49364996646438
4.77444591977686 2.2176868633821267 4.112865698969397
4.77444591977686 5.418055785761219 3.9554524317206026
4.77444591977686 3.6510707953013313 7.77483772901082
4.77444591977686 4.826696081367647 7.446495545830068
4.77444591977686 9.84748361448007 1.8763057581112668
4.77444591977686 3.7819723630113207 1.198984454960402
4.77444591977686 7.765328795637358 3.884690620309654
4.77444591977686 3.9082849273779323 3.476885742131705
4.77444591977686 1.993894027965819 5.449976664095859
4.77444591977686 0.24853924555683446 9.552780059877467
4.77444591977686 9.481571148745433 7.071110026615095
4.77444591977686 6.552864529991945 7.461465111155689
4.77444591977686 4.89950015463719 4.3077066287655335
4.77444591977686 7.929098607282181 5.754112021132329
4.77444591977686 1.7647237683646904 7.0901417346445
4.77444591977686 7.443801379118229 8.98750132143881
4.77444591977686 2.0997245387615853 3.9315133432255003
4.77444591977686 5.605860163695429 9.30740115902
4.77444591977686 0.5191957316332513 9.774712992622517
4.77444591977686 4.547145418989758 8.327728804645275
4.77444591977686 7.919586149681275 1.6489099395053866
4.77444591977686 3.8997706240930468 0.8564454700626811
4.77444591977686 8.834766351833554 7.509035256186073
4.77444591977686 5.9721319986299175 2.9982711952463355
4.77444591977686 1.5971844804790918 3.644994913541498
4.77444591977686 1.0977437550847502 8.65959224626093
4.77444591977686 7.623198747800297 2.3335542620292093
4.77444591977686 8.062471498742145 4.504966386037826
4.77444591977686 0.5735404331659708 6.523994635775359
4.77444591977686 6.09334151865103 3.00093373676916
4.77444591977686 7.931033047599734 1.6393497428587154
4.77444591977686 9.666090732100663 9.061556839829501
4.77444591977686 0.914243981203233 7.508365594100355
4.77444591977686 2.6963378094016908 9.84329709786764
4.77444591977686 7.954366926828507 3.6963920630417855
4.77444591977686 8.578262779966455 7.236567522573394
4.77444591977686 2.7261041627283484 5.220679698589614
4.77444591977686 3.9783042711148418 7.0352254785186785
4.77444591977686 4.447656726392092 2.2177254977352048
4.77444591977686 6.81882979392226 0.3844174950216379
4.77444591977686 7.508307772728192 4.2902220294716615
4.77444591977686 3.141651310688399 4.9011357073607495
4.77444591977686 3.941142220101126 1.1012633606827609
4.77444591977686 2.27886457457367 9.117003263593118
4.77444591977686 9.527178375477696 6.809488448826731
4.77444591977686 7.201113877487844 4.651181394458775
4.77444591977686 2.4421518900263695 8.930920528521202
4.77444591977686 8.621596354640086 7.358105546220988
4.77444591977686 7.595023992426126 1.7365203124634176
4.77444591977686 2.1195035630671053 5.0100613656233755
4.77444591977686 1.876506544678899 3.621143937321356
4.77444591977686 7.25000316002684 1.7678620283652262
4.77444591977686 0.7598239549911878 1.0602122679041912
4.77444591977686 3.9984477639885574 3.9466477523345467
4.77444591977686 6.618148172923348 6.162018880337803
4.77444591977686 1.3376445253518423 3.1189062852388583
4.77444591977686 0.17417332631847762 6.015375007080594
4.77444591977686 1.9391986085676325 2.5098563446308524
4.77444591977686 9.858409707839689 4.295177436565698
4.77444591977686 5.907611998425733 5.3331115951503705
4.77444591977686 8.497681728248002 8.652723232487562
4.77444591977686 7.923723834611391 8.843636778141008
4.77444591977686 6.266522323925831 2.6018219058111955
4.77444591977686 7.51524179259765 7.814485783904465
4.77444591977686 9.183849143097314 4.546847111066477
4.77444591977686 0.5368112997357615 1.1634844354317995
4.77444591977686 9.521408115611907 1.2529381381678357
4.77444591977686 1.8276940068607797 0.5454355913463742
4.77444591977686 7.674560055487537 6.976702512080938
4.77444591977686 0.1828601490953595 6.069555793237501
4.77444591977686 9.381378756677123 7.965794239665302
4.77444591977686 9.140081175314721 6.396914946905536
4.77444591977686 3.773044961164586 4.1852904667995405
4.77444591977686 1.421412322129008 8.91597924353517
4.77444591977686 0.6962812469254904 7.761941397891362
4.77444591977686 8.045101054279446 9.577609014750037
4.77444591977686 3.330541464100227 6.6378484798946245
4.77444591977686 6.614824788769256 9.509832783566793
4.77444591977686 3.4553995662450774 6.265689078299841
4.77444591977686 6.858949236704568 4.443846422067827
4.77444591977686 2.076391738184808 2.2642536526723362
4.77444591977686 7.7472452381717325 2.6823532970506077
4.77444591977686 2.708595322483016 5.203914248930036
4.77444591977686 9.881528983053917 1.4371833646893888
4.77444591977686 6.009460135312714 2.0702412978164495
4.77444591977686 3.4623172841041727 6.2046229018071415
4.77444591977686 0.9846424267748032 4.818845575120146
4.77444591977686 2.571748320841613 2.0229227580119797
4.77444591977686 5.281703720303101 2.2609655751841697
4.77444591977686 1.4878506513363707 6.486084740971049
4.77444591977686 9.214990095984016 1.1405005947463687
4.77444591977686 3.27283622181739 0.4410785145871562
4.77444591977686 2.4639651125975246 2.0171558683482824
4.77444591977686 3.2179385756479544 4.852372644678439
4.77444591977686 9.730475914353976 8.922704470382003
4.77444591977686 9.318523518223644 5.146867224644222
4.77444591977686 4.903413921954333 1.2912713871005794
4.77444591977686 8.539516541437155 1.720721364347031
4.77444591977686 6.136962681659171 2.8941181820286337
4.77444591977686 7.869689606575521 8.012662425852723
4.77444591977686 0.6810409593607709 5.154805060979136
4.77444591977686 8.74254308489315 8.269179109337502
4.77444591977686 6.42352381425862 3.698478968651764
4.77444591977686 1.8236520883463105 9.114633633785168
4.77444591977686 6.4124434547651274 2.457237193004144
4.77444591977686 1.6968742806261998 8.257168298523881
4.77444591977686 6.20079641629244 2.496600089989542
4.77444591977686 5.405437113283096 3.9567251734711606
4.77444591977686 7.513740774899194 6.6464886282499
4.77444591977686 2.8862583214359936 9.843278960182783
4.77444591977686 4.6340297192880895 7.953044200683902
4.77444591977686 0.9020162468091186 2.9958971188022705
4.77444591977686 4.729701394544068 1.714226764576221
4.77444591977686 2.310081742682897 9.500059331824287
4.77444591977686 4.270174310616349 2.097727493656464
4.77444591977686 5.354905281050743 5.768952154198387
4.77444591977686 4.7237730666000415 1.7438405077605648
4.77444591977686 2.96017815258812 8.914660850153057
4.77444591977686 8.951829014233343 2.3370559256752883
4.77444591977686 6.0368766934079545 7.767774083137445
4.77444591977686 3.3225858884938475 1.2759234661731618
4.77444591977686 4.1732564493034285 1.725341836636458
4.77444591977686 5.463525093110986 2.739649398516426
4.77444591977686 2.930668248216177 6.874884528503113
4.77444591977686 6.074509604951201 4.7945920271829765
4.77444591977686 1.858568763493997 0.5639597027406531
4.77444591977686 5.281924780039211 9.091642647655231
4.77444591977686 1.9647964767305486 3.489990204240828
4.77444591977686 4.949156806688661 8.852904883947224
4.77444591977686 3.879452868145794 3.2878119714307683
4.77444591977686 4.209554832990989 3.12182648608384
4.77444591977686 9.710922311949918 3.6129862536783914
4.77444591977686 4.333071147172189 1.3389680938832618
4.77444591977686 7.174389935288762 3.6321181382239445
4.77444591977686 1.0693349117851703 4.546411840196189
4.77444591977686 8.938294671289636 1.4264925582835526
4.77444591977686 6.481732129972182 0.19433849513021859
4.77444591977686 0.16289905489584183 5.974738623198634
4.77444591977686 3.278765641833384 2.785298890165153
4.77444591977686 5.86538070687412 0.8041766355539705
4.77444591977686 3.740110188486747 5.750315403538476
4.77444591977686 6.182699337172406 9.242391059270316
4.77444591977686 3.516917452027069 4.652294400220143
4.77444591977686 3.2930045125270224 3.0128060275671165
4.77444591977686 5.213849734354496 3.4238856493055527
4.77444591977686 6.915682650332846 1.039252647110814
4.77444591977686 8.155480530063667 8.877864270888935
4.77444591977686 5.342128300666634 6.2544126440008325
4.77444591977686 2.3457064835259778 5.973821949239482
4.77444591977686 3.901469045986164 6.975955956282485
4.77444591977686 2.388323058692507 1.6623689168261604
4.77444591977686 0.6733449828029721 2.4079298591127496
4.77444591977686 5.8756956617615135 5.165122964511034
4.77444591977686 1.491759683379686 8.488249405738223
4.77444591977686 1.4233326344303574 3.9407398803853035
4.77444591977686 8.694061100443843 2.824833019537709
4.77444591977686 3.964196301010442 3.7688635450976835
4.77444591977686 3.515492339238289 4.538175243104956
4.77444591977686 7.364031359968297 1.8083496094303682
4.77444591977686 9.449057665936337 9.313896616442344
4.77444591977686 1.853090111746476 6.8179969254678365
4.77444591977686 2.7442136264998744 5.411019170334205
4.77444591977686 3.423929403141048 6.611154875670042
4.77444591977686 6.179142665657948 4.450635874076206
4.77444591977686 3.194247545167216 7.979379970336117
4.77444591977686 7.765684296956317 3.88487051807011
4.77444591977686 8.165836742933342 2.9621921264880777
4.77444591977686 6.536579821864536 8.474856564058493
4.77444591977686 8.390000365395975 3.7114138814751074
4.77444591977686 0.4577919575889623 5.176092004347829
4.77444591977686 1.5195117508450178 5.547190417225528
4.77444591977686 2.333379656306134 6.971548151376336
4.77444591977686 2.7870920938733708 2.1442547316568628
4.77444591977686 5.998064159087391 2.147144327938747
4.77444591977686 3.320487073330342 4.299370948531702
4.77444591977686 0.838475754714737 7.4440434879474875
4.77444591977686 7.1916291627006945 4.669794265699097
4.77444591977686 0.5553724464130141 0.9788885379440654
4.77444591977686 9.002589652686842 0.7996495686117556
4.77444591977686 3.5156300912817073 4.547520347229907
4.77444591977686 3.0406422012737475 0.6803183995931814
4.77444591977686 7.418309893696077 0.10640181270196591
4.77444591977686 9.952399668913944 4.0813958683471245
4.77444591977686 9.182727270604547 1.1466415895693
4.77444591977686 7.328337372090646 3.696923948465648
4.77444591977686 5.862509821245653 5.190216266034266
4.77444591977686 4.151523319696889 5.384088541278743
4.77444591977686 8.002827212165883 8.327848157502599
4.77444591977686 4.709942786052795 6.902554966912556
4.77444591977686 3.6123813057325243 2.108751836866605
4.77444591977686 1.6659666518633107 5.505587318987673
4.77444591977686 7.129954926895696 3.2044599665697397
4.77444591977686 6.163279423464416 0.31595529123981764
4.77444591977686 2.714857706853472 0.5873512138594724
4.77444591977686 7.865709443375936 9.568598876113166
4.77444591977686 1.1192499430011833 3.061778150684989
4.77444591977686 9.33761198873211 4.623836279823472
4.77444591977686 1.4336026986620154 3.0732497446762133
4.77444591977686 2.714156741521255 5.432784777785039
4.77444591977686 5.639132822045613 5.466037454392562
4.77444591977686 5.410087227019254 3.953446956678649
4.77444591977686 2.0325545061312638 0.6738598374262513
4.77444591977686 5.957507969891285 0.3963674807766831
POLYGONS 100 1808
10 167 604 553 224 537 126 54 796 117 600
21 170 544 584 205 318 210 288 195 340 657 808 87 859 735 602 431 26 508 873 741 212
15 706 775 739 783 348 433 850 132 6 67 672 799 541 14 700
6 153 515 529 56 89 731
17 398 696 300 310 171 528 83 402 577 582 115 679 427 634 131 249 787
16 165 745 18 396 55 294 276 156 211 616 540 520 74 323 271 785
18 156 211 616 225 270 460 748 38 188 721 687 25 674 595 699 7 724 712
23 169 478 728 250 17 352 606 367 304 660 259 425 387 491 761 850 433 348 644 781 378 502 509
13 167 604 615 561 220 80 353 269 193 688 299 117 600
17 308 621 120 452 825 419 196 875 838 82 605 456 762 755 839 753 21
16 202 453 410 646 325 233 447 182 346 368 130 58 338 236 513 134
21 103 523 534 277 257 273 691 438 423 312 245 848 347 479 113 328 504 243 642 3 286
19 476 858 384 510 185 490 545 622 101 317 352 606 367 822 186 96 716 480 563
19 394 617 241 852 709 498 566 257 273 691 332 121 766 472 321 551 44 705 395
15 317 352 17 250 728 365 835 725 697 37 707 48 401 622 101
22 412 531 467 496 180 69 689 494 784 877 678 656 391 625 574 840 446 801 829 862 521 279
12 617 627 319 333 482 36 219 751 650 709 852 241
20 249 787 398 191 15 676 667 231 549 589 54 126 537 224 62 244 524 59 680 289
20 583 647 360 698 719 305 809 591 128 773 386 567 127 214 307 262 405 137 403 223
20 114 178 619 28 170 212 741 873 150 166 772 554 10 1 516 620 613 628 334 376
6 697 725 835 261 258 361
20 413 677 199 495 371 142 851 440 834 856 819 770 718 154 759 329 726 643 75 483
6 438 691 332 121 837 423
18 857 870 463 85 16 878 227 179 297 383 665 827 675 90 519 50 203 109
10 130 368 729 854 226 742 11 559 338 58
18 325 646 410 453 311 122 260 757 769 331 161 309 675 827 665 383 297 507
18 243 504 641 841 582 577 402 83 525 12 43 794 357 723 458 381 3 642
17 210 288 32 335 106 832 422 843 187 99 284 160 845 49 256 205 318
15 446 840 574 625 104 119 163 779 207 652 316 596 756 653 339
20 117 796 54 589 549 295 530 139 146 844 415 23 668 77 355 267 190 662 688 299
15 196 419 177 685 135 60 198 726 329 759 154 713 30 838 875
17 199 495 371 238 200 174 337 247 254 635 138 804 517 168 444 693 677
21 755 839 485 51 826 714 630 578 399 469 393 481 145 235 350 406 272 373 817 456 762
20 90 675 309 161 331 764 849 86 618 382 866 266 670 651 343 470 797 251 50 519
23 165 745 18 396 636 66 588 740 204 355 267 190 662 688 193 269 353 362 369 586 46 183 785
21 247 337 388 27 820 815 434 618 86 849 764 331 769 757 260 734 41 556 229 635 254
18 387 425 562 281 536 91 149 296 475 404 671 765 67 6 132 850 761 491
22 67 672 799 541 608 213 116 511 377 370 324 98 592 291 42 5 437 356 274 255 671 765
18 523 534 277 257 566 498 709 650 751 219 533 471 34 84 702 443 830 782
13 517 804 543 9 218 874 732 100 102 701 72 727 168
19 45 265 601 392 694 73 488 803 105 424 610 676 667 231 549 295 530 139 532
21 815 820 411 35 806 215 807 592 291 42 5 437 715 791 575 341 266 866 382 618 434
20 160 284 99 187 351 558 758 489 93 292 228 487 868 287 810 861 683 428 24 711
18 170 544 584 205 256 49 845 160 711 24 842 71 611 704 144 178 619 28
15 494 689 206 242 285 354 580 370 377 511 116 821 400 877 784
14 540 616 225 270 460 143 539 359 301 275 484 88 74 520
13 25 674 595 699 141 314 112 640 181 747 486 570 232
17 103 523 782 830 443 397 750 477 780 57 720 63 723 458 381 3 286
19 23 668 77 355 204 740 588 322 776 864 52 738 450 461 692 614 436 176 158
23 427 679 115 582 841 641 504 328 113 479 94 800 308 21 753 839 485 51 826 714 599 108 31
21 419 825 452 441 155 245 312 423 837 121 766 472 321 278 416 637 847 867 135 685 177
14 386 773 128 789 13 793 274 255 671 404 475 296 111 593
21 412 531 467 496 157 632 658 125 457 863 406 350 235 145 326 217 40 792 663 648 557
22 153 731 89 527 159 345 192 654 736 107 876 663 792 40 253 824 468 208 252 629 390 624
20 706 775 739 389 781 378 502 239 364 228 487 868 287 492 652 207 779 163 147 349
14 316 652 492 287 810 861 683 33 717 722 633 552 756 596
19 14 700 706 349 147 163 119 104 625 391 656 678 877 400 821 116 213 608 541
14 131 249 289 680 59 280 19 546 320 379 108 31 427 634
14 179 297 507 325 233 447 182 609 655 659 744 802 878 227
21 224 553 604 615 561 555 629 252 208 468 234 623 865 585 282 19 280 59 524 244 62
16 20 768 550 129 221 797 470 343 626 682 719 698 360 647 140 47
16 450 738 164 823 418 408 542 268 2 518 752 871 237 664 429 461
15 153 515 529 594 586 369 362 353 80 220 561 555 629 390 624
22 56 89 527 159 597 342 500 123 473 133 690 484 88 74 323 271 785 183 46 586 594 529
19 743 767 860 572 812 363 298 302 407 795 512 638 70 430 240 681 327 760 661
12 412 557 648 663 876 107 736 293 374 862 521 279
10 68 857 109 203 50 251 797 221 129 550
10 522 573 737 418 823 164 738 52 864 448
17 169 478 728 365 835 261 258 703 344 489 93 292 228 364 239 502 509
22 439 466 705 44 551 321 278 416 637 576 590 230 777 474 846 366 579 372 814 733 746 78
21 503 571 264 547 185 490 545 622 401 48 707 76 673 774 298 363 812 572 152 855 451
14 24 428 683 33 717 722 633 853 184 29 22 611 71 842
18 114 178 144 704 611 22 29 184 569 216 500 123 473 133 459 560 334 376
20 198 726 643 75 564 455 568 209 666 811 306 763 230 590 576 637 847 867 135 60
14 399 578 630 714 599 108 379 320 546 19 282 585 426 189
19 710 786 380 607 497 124 514 8 43 794 357 723 63 720 148 790 118 465 587
23 159 345 192 654 736 293 374 862 829 801 446 339 653 756 552 633 853 184 569 216 500 342 597
10 138 804 543 9 218 598 41 556 229 635
19 97 548 603 432 436 176 158 23 415 844 146 139 532 45 265 601 818 313 754
14 613 620 358 539 359 301 275 484 690 133 459 560 334 628
23 834 856 819 0 136 639 125 658 632 157 496 180 69 689 206 242 285 493 330 730 749 417 440
14 591 809 449 798 575 791 715 437 356 274 793 13 789 128
20 100 732 872 788 462 501 526 39 151 442 435 445 201 666 209 568 538 831 701 102
15 324 370 580 354 285 493 330 730 833 684 806 215 807 592 98
18 83 528 171 310 414 95 631 645 612 303 172 421 124 514 8 43 12 525
6 156 276 294 290 724 712
6 739 783 348 644 781 389
21 92 565 716 96 186 822 367 304 660 259 425 562 281 536 65 816 409 879 869 175 813
15 398 696 300 310 414 95 631 454 805 105 424 610 676 15 191
19 202 453 311 122 260 734 41 598 218 874 732 872 788 263 283 828 197 513 134
20 82 838 30 713 154 718 770 819 0 136 639 125 457 863 406 272 373 817 456 605
13 343 651 670 266 341 575 798 449 809 305 719 682 626
19 142 371 238 200 174 337 388 27 820 411 35 806 684 833 730 749 417 440 851
24 477 669 499 79 248 222 375 695 110 686 336 420 162 194 506 385 246 315 34 84 702 443 397 750
12 308 621 120 452 441 155 245 848 347 479 94 800
20 535 649 836 708 771 173 64 464 81 181 640 112 778 573 737 418 408 542 581 505
15 413 677 693 444 168 727 72 701 831 538 568 455 564 75 483
20 55 294 290 724 7 699 141 314 112 778 573 522 448 864 776 322 588 66 636 396
25 4 61 53 795 407 302 298 774 673 76 707 37 697 361 258 703 344 489 758 558 351 187 843 422 832
17 393 469 399 189 426 585 865 623 234 468 824 253 40 217 326 145 481
CELL_DATA 100
SCALARS cell_scalars double 1
LOOKUP_TABLE default
-0.00039011936170396666 0.0006623922140036598 -0.0021030436856959156 -0.005882403659607682 0.0004122784220523812 0.0004425377990573409 0.0002970652039282484 -0.0010115897001155005 -0.0001032329934336218 0.0038751763567068664 0.00046750753916935395 0.0005141808862116903 7.36996254886435e-05 0.00035850484470145716 0.001271291426783172 -0.01544461868398539 0.00018702528646219463 0.001269657542958491 -9.331735305373456e-06 0.0007101859813953837 0.0008706772056683576 -0.009339915308097524 0.0001421056784591812 0.00038707724940767463 -1.558027734205325e-05 2.4990210847342098e-05 -0.0005167361378761726 0.0010828211843563196 -0.05230646923922766 0.000524200619711479 -0.001575413372555623 0.0015824312608456736 -0.002404998594808916 8.438612097272369e-05 -0.000165074993727643 -0.002111438789745179 0.0011093223872347124 -0.0010168412153186424 -0.00017643603993100498 0.0014244798335960596 0.00020848811317986105 0.001130662498756152 -0.002268716362078038 0.0019216909937176396 -0.04935871346496068 -0.0002060086926745086 0.0005461517193277032 0.00016403458653613257 7.351618885831357e-05 -0.0013046376407066518 0.0007791884631016543 -0.00013670201393001236 -0.027696451133228273 2.6690375835691782e-05 0.0026438813981810583 -0.00241641648857982 -0.06628902674005399 -0.0006357151299534181 0.00019244091539238894 0.002166617113151581 -9.591409827169883e-05 0.000122187118184236 0.000589591280270696 -0.004828997996938256 0.0002676986297878159 -0.02265647590412012 0.0003148061876885322 2.8034973626134274e-05 0.0012502781298406873 0.0005691025690133245 -0.00012816032388496268 -0.0026561661145336757 -6.445015540723631e-05 0.00047015888842860676 0.0008594222200368762 0.00025598361611223197 -0.02402075579812646 0.0001643435823739381 0.0002885800812890693 -0.0009849740299303633 -0.05698274725571828 -0.0001713459600516387 0.0012061488030941092 0.0006048582222142329 0.0004541271116682566 0.00040047368799633887 0.00272499511709956 0.00028303843713484156 0.00026651560702362076 0.0003300186315939868 0.00016770600754512088 -0.0001878635806535911 -0.0006979277771090864 -0.0001344477141191902 0.0011025655655991784 -9.943732563755248e-05 0.00025228083514505784 -0.0005747571801819618 -0.0011657497954828955 6.387241096561525e-05