# vtk DataFile Version 2.0
Really cool data
ASCII
DATASET POLYDATA
POINTS 1138 float
5.49823914646564 7.0471420583715 9.07352047609447
4.55106926370963 7.53999914017733 0.24264788983658
4.8459163210171 7.37299601715257 0.0606428117989
5.04369352215534 6.87534254519979 0.11994298121095
4.63476198264034 0.29622208645588 1.24624654410051
4.03173920372028 9.40116812805611 1.56331941054095
4.20241761354167 9.84242463794163 1.68485006684849
4.90977467228557 6.15025416925273 7.14953608409386
5.30603429763579 5.99965686091108 7.02827981190571
5.75233186561637 4.76422421924466 6.75408370416741
4.25813996772141 9.84061762035446 4.32886957295637
3.98677227783408 9.0463928493352 3.66684143156023
5.12961694159875 6.05868661382363 3.39510443031905
5.30739056047912 5.10606736666178 2.56759315193316
4.5789981702439 6.34878853010419 6.60311854678281
4.23249071266047 6.89821652306162 6.95616684285292
4.81415315881562 6.64132754947044 6.15761245988258
4.72224505870852 6.63478276105609 5.73108799630632
4.42404645177018 6.31432208582138 5.54842325448396
4.47711817310247 6.97025541607128 5.53536710687505
4.25251964612189 6.16557293083008 6.53328755494311
4.61532785847448 4.62377682584981 7.90662115316553
4.85397198528737 4.57226299236191 7.65799495668187
4.8081987469468 4.00374056338944 7.45858127888823
4.31681987610364 4.20813131062534 8.01662467242899
5.16517352808309 3.35585577027138 7.88068972641878
4.67338651219432 2.18625449529264 0.50072109593864
5.0025769435807 3.1879071307508 0.34446146411297
5.02088277581501 2.48023257650176 9.98828788527767
4.9734202855069 3.09171862525689 9.95980361862533
4.49653823992049 3.42730146780375 0.13802753143577
5.19140907775497 0.41466869734782 9.70176398259472
5.13898099422757 0.60388751679705 9.85158375177836
5.38252535225121 0.52314264393835 9.41095345653602
5.1260459717454 1.8574305737528 6.80367517702716
5.2819170169217 1.72701862308128 7.18845852521673
4.30844431928432 4.94334502344044 7.76279571773035
4.07995828304028 5.68651425153172 6.95684166886939
4.39539744711278 5.5961180454225 7.52544727953803
5.71191172322651 2.18989338999233 3.52529665533039
5.36337785071732 1.37746848646439 3.86319920947781
4.00525002110619 7.10067836934705 8.1507517086926
4.47286847498582 7.21448904423966 7.81068367738601
4.33742874709737 6.83766132728243 7.45534922104198
4.25279143251195 7.4062086572332 6.78209250541976
5.19785114459061 3.26851773381087 6.64540484968941
5.19928329772979 7.82510971495119 6.47325783902829
4.71628917042303 8.52708185729135 7.28719612624652
5.27498092905293 8.00832359069215 6.6526643614026
4.97404198331486 8.57803014733337 6.68639756768991
5.17447233166395 7.77316231346951 6.92901777620313
5.10039050935989 7.59836525036928 6.68263087183551
4.34983512001502 8.54501646367401 7.31386824479591
4.82497432847244 6.30842073270387 3.74076202237046
4.72588315257329 8.8457968463863 6.22550927184147
4.7154761095649 9.4247953486992 7.40690441049588
4.95498260577224 0.2434470082078 6.35828127460811
4.71232352271729 0.63704451366372 7.35705053446466
4.8304422454517 9.70410200156245 7.71155091672681
5.37044686065259 0.29754708727792 7.13277984029219
4.32922276267885 0.63804743305222 6.84249744432546
5.15141948360554 0.58723132088214 6.98903185322921
5.09114311803736 9.80191299668965 7.66902964289798
5.13024989189198 0.18175434485888 7.62453962101268
4.71930035189163 0.44463297009118 7.60408136572967
5.27710010967587 7.14260766605565 1.42678302987066
5.07349426006726 7.15475793883318 2.11441019987498
5.0080438224674 6.01789658225321 1.4256330079641
4.30014830187844 6.54027971440952 1.95312110323423
4.37283007704073 6.19357695645815 1.82864049970659
4.23754317479117 8.89251817346133 8.27817403726125
4.85868087435474 8.93850504267287 2.31318418841747
5.08437581274592 8.6789503794261 2.68190875835515
4.31104334365639 9.2595304222781 9.37231127000374
4.59214913390398 3.17668898213457 6.67657675982651
4.40276854047536 2.96329040888772 5.57064442048493
4.27553715397534 2.68163496630197 5.89723820377118
4.26484939116739 3.10684682477503 6.28053636341583
4.80213549538999 2.7370221092228 5.38700911985614
4.35247775515103 3.41164659596925 6.14551830852582
4.4620959283448 3.42910131678234 5.85776767470852
4.44614548862805 0.562660443005 0.66426932235822
5.4306360637014 3.94208621092461 2.94146670391706
4.8199815214482 9.45793577779154 8.17278817126835
5.02481229022436 1.90379986145607 1.58852097423374
5.436917749526 1.4725578096309 2.15720720892296
4.9194450727991 1.82293300957924 8.03537026035248
4.7176908595445 1.61910929434572 7.43605912607023
4.94635982976677 1.59510515320481 7.51911295930257
4.66418200291429 1.88009342084068 8.10731769425667
4.49554884155473 2.77705715029903 7.74291554032367
4.33787462326293 2.36074994770233 7.98587385998279
4.91111672257061 2.85472228900656 7.87353910942211
4.8138627221892 1.86166558840639 6.84035303876277
5.24011668917749 2.90427139781058 7.62650742111982
4.71158139122406 0.44585750495577 0.87062589178464
4.22199442503023 9.31404724934523 5.03796049965134
4.36246436636797 1.23383411619582 5.9604477004616
4.68357552733234 1.33918139604711 5.57764782276004
4.41320334358032 1.78550350736849 4.95338783896866
4.38517961248031 1.40892103259464 6.48741481763901
5.62101441201894 2.51264391573249 1.30759958884948
4.6524871871401 2.35300908594112 9.01139907122928
5.0413968953245 2.10339512912256 9.33607013594062
5.03040628154089 7.62943365621183 2.63734635062816
5.13545146030479 7.65861083894618 2.48185232315273
3.78944300980277 7.42245065766932 1.89509379336383
4.98774107544319 5.81022179749441 1.23366441341258
4.47936994689497 5.74544991494151 4.31727712835908
4.47055039894879 5.553734998909 4.28332224148985
4.26347978885347 3.18280276534157 7.8828061964774
4.15897263222832 4.68991516829752 3.19563361473072
4.34916670973221 5.49056290305499 2.8193456741983
4.29758451451924 5.2247175463359 3.17023312777085
4.51988294501591 9.84661777707453 2.37781874453543
4.94460003414247 8.6358019340583 2.85822190959109
4.16258990381053 9.60340127266432 2.5497385916026
5.17565682096123 4.91013903990412 1.09802832244764
4.71725398375164 4.93461914193759 1.29582369808868
5.29112324205013 4.90827043345108 0.49865869871348
4.72781648732547 4.93175813539048 0.21754057396608
4.97345377067684 4.92940326884539 0.18452140151503
4.26785978595094 4.19002928895118 1.05912900465995
4.43363497053533 9.05660416295308 5.61921373246287
5.41916065714567 8.6051572978933 4.55431451442398
5.02560062616854 8.92547598686101 5.70938231590799
4.96539247522836 9.29975735185556 5.45207062797249
4.82471010436126 8.82694046481983 5.76076736057022
4.48576879000346 9.31425699023072 5.46135004765438
5.18763299888226 8.21953284404251 4.67182264296087
5.33573175185631 8.2461495730116 5.20969589552783
4.14472634865022 8.81729857027435 5.23260762141085
5.06066014901996 4.44801200330044 5.75851696087139
4.12757298480852 1.24748947920043 2.94006847615474
3.86953546588037 0.60888055111033 1.9442117308765
4.63252176144035 3.54762237215602 4.48037493307912
4.22724622943965 2.27924162398846 4.5794112974504
4.65962281530675 3.54956914072522 4.64078552182547
5.09519969662268 2.76253378405873 1.60344802794896
4.28837378730762 2.14930902985593 1.19299597096555
4.99842762583833 3.15964214114855 8.77518380616172
4.21815457132162 3.40500693907708 8.91806911039271
4.79346654308178 8.12877285660657 2.97313389054065
4.30528430161807 6.89419793055477 3.44181131135175
4.18337250897999 9.89487894083368 2.1693061773661
4.1948779936154 3.0842624146779 5.25569609978004
5.33174388057355 6.08681204092107 5.139620161057
5.09114812528561 6.09067741011172 5.43530379219036
4.89158090897161 6.62054021762797 5.69826139457049
4.60130897160701 4.6059999461265 6.69408177514805
4.76134516622097 4.53316250007719 6.79884212424723
4.55003739369917 3.77557256395436 1.49281386216741
5.13024183213979 2.81439523274362 1.66820560999774
4.81431856229166 3.48462927273037 1.33446012827933
5.05817052440797 3.38863471437104 1.60975397056383
5.10787993439865 0.3561379777916 8.96470564986625
4.34379658165646 7.87669592927034 4.84123505193119
4.65290248137167 8.05608755967314 4.49151300857182
4.5560340576756 4.49966229269893 3.39467629113205
4.7817605068935 5.21455675370821 3.42260815353324
4.91017612934294 4.8439589890412 3.47377248262878
5.33470934387633 0.67222064519794 3.46622298284381
5.35093804245961 1.00142775396296 3.36720588115262
5.36002479500971 0.63236084927149 4.03784261488563
4.98082313264647 1.11865356819163 3.05147582271512
5.39321873857274 1.27260218135369 2.64987799960936
5.16812289683036 5.39066195552716 9.44293100309731
4.06633783639688 7.39887622018195 2.79908822250189
4.43280088294474 0.10022782561131 5.66731195097373
4.34151025060497 7.02380563977783 2.94217106575938
4.7754291013913 7.74585434981007 3.88754587377727
4.88553725812519 7.77569877197815 4.36664123731892
3.85721206172647 5.59663676413207 3.68720104884667
4.9470291777984 1.32247726494486 5.64339936947869
5.21534582648531 4.66899918839373 4.14731866686329
5.24645409788194 0.83696147194552 5.22976721433533
4.36707046273461 4.49744817144245 8.98581488131951
4.58263727398205 4.07827756461936 9.5682529782975
4.32271209423126 4.20394491529424 9.3940316370674
4.66228261863036 5.9273068880657 0.38772464642439
4.21622804323146 1.65181575080701 2.4350744279184
5.44100067733805 5.29850944163889 6.80862238655381
5.14953290424358 3.76677007983127 0.55363248163981
4.46387703642203 6.02688270520358 8.83289478689821
5.11530659405516 9.28096647715545 2.26471235496771
4.94875930506186 9.75911480298476 2.25846068350724
5.23983499246487 7.95974616150965 0.83164763382472
4.25316255950431 1.4517148608321 9.03410423147071
4.38141148976878 7.71020674596409 2.6026730737689
4.95921691801048 3.78650439614552 0.94076936055124
4.57862842187744 7.6183618614826 9.70105893603242
4.40706622794282 7.71067255794979 9.84476738967385
4.54779101141707 8.61495886587673 4.03499460361301
3.90167952000403 6.09622755645196 3.78162724820578
5.50382195163178 5.25619050576994 8.45743034915673
4.92570401717504 0.54474723208053 6.51122124475452
4.8543053001791 2.16029940338079 3.139744933911
4.46985707750925 0.62016940611176 6.53421921938578
4.51656881932164 1.18181901913912 6.23610965447525
4.75299305263614 8.24987989150215 4.61146444008854
4.53445607291761 6.34098571543449 0.19455852627604
4.68438055560042 8.6069638969158 6.3665928855013
4.59021579042441 5.07563401352049 4.68657769119756
4.51434785619764 7.80982835125015 0.86815693112068
4.96157965292697 2.13671705685007 4.14579171088845
4.89405539496914 7.18323504568797 2.77171571941772
4.41886466855721 4.12334266573623 8.39663277703991
5.24269806205643 7.28894331387905 3.22882495918866
5.18784832522657 0.2181806287456 6.0564694409386
5.04886230968305 0.1033321635421 5.68710488407692
4.22204539586982 2.79007151481714 2.35422012088139
4.15550508714024 2.50333474307614 2.62542111465281
5.26380714005972 5.67057282023691 1.94392624475417
4.77567755043211 9.87625861457392 1.43527823977982
5.29839750026767 5.1577711772547 9.26493988136654
4.95222920071132 6.73924439917888 0.29779639687088
5.15728126969721 0.53689615344565 4.15837818370317
4.97458570609126 8.05325536212113 9.13557260822507
4.47416444733715 6.2070925736392 1.51134901374472
4.64017806075146 0.31907378894018 0.92374879145616
5.05456539484825 2.15746134132123 9.74944086938405
4.6093283608509 4.09874379027553 3.89097369644975
4.77455040896225 1.74465653397432 1.292361289735
4.55261904235918 1.34813123026571 1.38064162248956
4.60938729444956 4.25825805429802 3.17020417250449
5.42374189555367 1.61175564380849 2.48451352201867
4.72423063342574 1.5979797416238 0.22827991331171
4.16278631155145 4.5534171169407 2.42786127375519
5.0046556318598 2.90520961289356 0.54143528327288
5.62150765826275 2.611645289912 0.86477195356425
4.58343221914861 6.686123246264 6.81222620999831
4.7231989143014 6.95673733869908 6.55432488160505
4.32890571245666 2.54478237576033 1.4734485004316
4.82910677009336 2.48194845689007 1.74929195855066
4.74964621450108 2.01615759363647 6.80859980289273
4.24958436693227 3.09355428084028 4.2598030572532
4.67270944957141 5.55012030029644 9.30492092650685
4.68634376981909 4.14558616867069 5.51600441367572
4.35828397791161 3.57931060727943 5.78448481329682
5.09802359355473 7.70929929649204 7.79949909621319
5.39646587707549 4.39969728556984 2.78995488722389
5.27731306249178 4.83271681072273 5.57496316189243
4.24719637047389 8.81289750813776 2.09041404059922
4.33330522751307 0.97329311908121 0.71630685741331
4.51308257547926 5.05500502700502 1.28360638799372
4.43477687422689 9.05812424927455 1.26757435873893
4.84219043456842 3.28940170581056 0.4314753070349
4.95336048676477 3.72101243148653 0.58728820069341
4.15023287833032 8.76775552505387 0.64278588804592
4.03701270182731 8.82746841982396 3.93216121398373
4.89220850844043 4.54278050788512 1.42308885415899
4.62455847431836 4.05893890296239 1.22813215567785
4.97313347022925 5.39534047048819 3.21034022813284
5.30338971906915 5.18755427327833 3.05921999119121
4.36249556849455 5.34810458173878 4.49421505673188
4.92832197590425 6.56423457309587 0.1909365401229
5.25976321319163 7.83672934657211 4.44868808238009
4.09716444243916 2.80730505016425 4.71100677274987
4.27645549223556 8.84727063546406 7.53992559211288
4.40576835161002 4.5428022821127 5.92546064581677
4.60742486314318 4.66685451009915 6.0398032407302
4.4590790245727 8.20689867152976 4.03237011749912
4.57685251942062 7.99676554697769 3.79058871753146
4.79654673623524 7.26428185619442 1.77560789742818
5.02348461839374 7.56005016683983 2.40729436258918
4.9445304769277 7.55383885049934 2.58348179113953
4.21942268779396 2.99796147610695 7.2694582775347
5.18652005144992 2.01728808013745 6.76534104554568
5.40007466697516 2.30732495083218 6.07018368326735
4.31115556314578 2.33212531508009 0.70408885783546
5.24413944396246 7.02147236274173 4.7770186293687
5.26192258966912 4.62047753256912 1.23108138396836
4.68602370897899 0.80200963594174 7.48741095166841
5.07968997146215 1.29490173083085 7.55564550528518
4.77004723248202 3.03938408120477 0.68034839009981
4.32836834850967 2.84051263094242 0.79314179980422
4.46437556558407 9.66491818505535 8.53658140670077
4.81193841921727 9.75393818409711 8.91616902154158
4.63845143541235 4.34165373188524 0.04836374614116
4.19149416589069 6.61826772651213 0.44606218457278
4.92194173593083 7.26179616262884 1.46554869698275
4.71237384478275 6.95740801061113 1.23711024062143
4.64269690027698 4.94521746069996 2.06013794313243
4.68292499835909 5.01945339329242 1.36599025271636
4.18075001933877 4.45640733424209 4.22731144775574
4.77749488214187 5.4462991658694 4.19920025058186
4.69054711193519 0.6207337537287 2.48246621771008
4.52124943247607 1.54748697144563 8.92886533585888
4.56781457164153 1.41182343129968 8.6914085413456
4.91669901302405 1.50401864337755 9.2233118454216
5.19566489159832 1.26801944797338 9.01468529356891
4.43374089343301 3.81114317509293 7.73593495479843
4.61099869118735 0.96885102346157 5.17028252461835
5.11230802060507 3.29727557519696 2.75319096726698
5.14739454154495 7.78616449455444 7.89298836846343
5.02844344015636 6.62050218943348 6.04876839518275
4.92228126444541 8.04547483089889 9.46347054016702
5.37150974056291 3.91177068499702 2.22173617240901
4.23420068703111 4.20103994853719 0.52972271973926
4.02747646147367 3.13603344645551 1.32498370835961
4.20862218086271 3.68551999592672 7.54024196101862
4.14442907569891 9.63890534937641 7.19910315613696
4.78715872089585 2.7264893138975 5.21365609664027
4.35166313765581 3.0090791615518 5.03095709827609
4.3421428242034 2.92483638871649 1.19436810080638
4.72049771356648 3.09630441889641 1.19458455996467
3.88980396961316 5.45945831906128 3.35295932843809
4.85990780200576 8.70048307726641 0.47263327805763
5.32589216581484 8.42724102668742 0.75632314457263
5.26594902067331 7.41497195080054 0.13411153567445
4.41376561388666 5.82996498196525 4.62694920242356
5.28127336923245 7.37859524250594 3.21885469587749
4.36072703428293 5.41711631189219 2.43104967051668
5.08470412224398 4.47599533293436 0.00231506315862
5.4331623362346 5.56188492042508 9.43519156901117
5.00346613779155 1.68428784481948 1.92052945317049
4.64814931116627 3.27892956372314 2.99766971280615
5.02076832996526 2.51030046289255 0.39192487060999
5.29453125075773 8.16184737273542 2.29660775327819
4.951591414422 4.72244921690994 4.00544188165008
4.57446600955699 4.35555954831624 3.88464245304631
4.30337383576239 3.90936381044533 4.17843155362273
4.69106304430996 0.60343079977413 7.72776951917396
4.93466295388378 8.10996458157692 3.41282367125401
5.140921232572 7.79432589224773 3.54549675704671
4.01424593616415 3.30798626209335 0.24050627346644
4.94918954632672 6.79929180931267 2.44065058717606
4.67050020112782 6.57515928865123 2.42940464935702
5.05473786825124 8.90547463575124 4.32638586047504
4.34356348446886 4.32862393150651 2.44621206833993
4.2608318530008 6.70517644287411 2.78761054472364
4.55823123676025 5.08948455521298 4.52951914872578
4.86515554733547 5.12378160485461 4.34641683321049
4.32008487584477 4.97547510434264 2.18705218966807
4.6226334122501 2.19697578528311 8.20662615982852
4.47366596986412 2.18065884083291 8.84310504794687
4.69119467871097 1.14504162561684 1.09072922704041
4.65788966839328 7.1708158844125 5.35351872996526
3.78815527816982 7.08679144825126 1.72893637429382
4.57600122658396 5.5921654454087 2.79335728316857
4.6691336346444 6.08295890791798 2.91433339917577
5.10683755099361 8.53135691139625 7.8375052434463
5.27168588529368 5.83592386461235 1.84215945722971
5.29869806889041 5.68129826141583 1.83667954215357
5.06886656221398 9.46887216294005 8.30224792911129
5.05564346502288 9.68288225871222 8.81366088234165
4.85245403588761 7.84586268791109 8.94607857336645
4.689333146493 8.99863524917287 8.06701157506451
4.9338490381438 8.7664807703394 8.18903889962075
5.30097176433251 4.55116597825651 2.59613188814794
5.29596143344365 4.47935466115488 2.80979908064266
5.30717718050863 4.84566703155058 3.20416285825369
4.13327413468969 4.18545360292202 8.69182963036685
5.5141610682179 5.97647353267462 9.29148980800157
4.32427088261543 3.70546979456279 3.16687130193033
4.62433697765963 3.97369662851918 3.31696852513418
5.00552659993404 9.00245894119598 6.39236644462089
5.25591697383851 9.06068358242437 6.09706834312797
4.54417208984684 8.48452804320745 0.42078170627031
4.66025069360851 7.90267949042223 0.65342499630763
5.34832101083933 2.9916588754265 5.47902208574815
3.93463025235224 3.02064324870773 0.5803592127777
4.50823258250211 2.81005116468743 3.95533541945526
5.22468074488476 9.2917786217882 4.93751708187514
4.06837444856855 9.33334352210684 8.59718126587313
3.99341150922227 9.23453976985719 8.85493014079994
4.97816105031301 2.43761293090027 8.19499368010828
5.04916294140942 2.6314944380875 8.73510897293027
5.26690578368144 0.89231958854149 9.74363052465105
5.17718916122149 4.31139632436569 9.33205511969224
4.74639991091265 5.82985683637218 7.55404241004704
5.03743206445005 0.50073729163978 5.09653804003673
5.13328497834975 8.7806264738825 6.66980170672172
5.16170285514084 8.99780052954619 7.102149190059
4.77592247546746 7.15471396731896 4.67404438087342
4.52360374723414 7.21364648512858 4.94656382905139
5.22437371876761 0.42016211831786 5.26581571619044
4.89465027515708 5.3035474526722 2.25404648588045
4.59725579880182 5.5304091574779 2.43489242225726
4.28570045449606 1.16412286067403 8.67104468108498
4.86064676040689 2.31857358317667 9.88742726480091
5.22345392553704 7.26957998741491 6.66329514740163
4.24303545942488 0.77794537772423 2.27038600153782
5.31744029596331 6.24005378748812 6.18254194930526
5.17935522564064 3.78976333216334 7.52228070767976
5.36576092842725 3.64547223151426 7.00506417031643
5.36676488952945 4.68115669830409 8.25275148090919
4.74962476599377 1.90732995329296 3.59493617391399
4.16857801235157 3.69912166826523 1.51965984789812
4.2629601734345 9.1063398030265 4.61881360812912
4.6772757135827 8.69405059472343 4.34050847452936
5.09398141373666 5.96780251625444 6.59969768010868
4.29002766674693 4.2427452341112 2.91147954273473
5.43447320932111 2.27800388505309 9.24164104912691
4.4799000276893 4.08130709930966 0.25927307196126
4.41262570178428 4.02238891622655 0.18131964901173
4.91551956938631 4.16672519527209 5.50799477190897
4.81438377503553 2.50095982977469 1.96987931692538
4.99366560010611 2.70624418436273 2.0242507891771
4.50662236708712 2.33417537183834 4.05701744415304
4.39018618606384 2.17953750772041 3.73834465402807
4.89024688333867 1.28200772726476 9.70455556356872
5.06239342959642 1.46319587164244 4.19245676877408
5.25067527448824 9.22624781323625 9.1199691932563
5.33640651518097 4.27553858294304 2.20896214996386
4.46509870684856 6.33880018957021 9.41495027508034
4.66322477406399 6.01011693124102 9.14928373809528
4.3167582367597 6.44530417835689 9.30174986786666
5.53591267562942 1.07228265557678 6.90698740710415
5.28242232776407 2.87094602734282 7.33933094935068
4.30380116890493 6.32063555523972 8.72781344399993
5.28556087766162 7.747349132563 5.6857410643596
4.75458408990714 9.16964411044906 1.13533797168964
4.70401995927337 6.11663909576857 6.73492559918623
4.32380628646809 5.90663718760793 6.65867230755533
5.11360237042361 5.4678934278451 1.39265836258844
5.40772414309331 5.24195206186811 1.19094918053338
5.40534105584854 2.34046014645779 3.06676749220032
4.88889043297795 0.74295662553508 1.169162990561
4.70430172623748 5.92674185944808 7.70603976121868
5.38044947583405 5.92096317836393 5.85815043042041
4.36249676819488 9.77234045045129 4.52311704666792
4.97399197261235 9.81504599345009 4.39107150766799
5.02987304307692 9.39145982787377 7.11930845060203
4.19536365471043 7.31327458522041 5.93480673006308
4.30844050219194 2.55781238744806 2.15314319068008
4.23522838445801 2.28054526285201 2.42275018373503
4.6599064876861 8.6369925454044 9.40094993348432
5.43740083898464 2.56576288622289 8.90754587091059
4.97381746721391 1.71760325202326 1.00970868039289
4.6318457480797 8.97398314409792 7.59896302236036
4.8572862151074 8.74529306979236 7.4480602974547
5.05539262580466 0.73875211453477 5.06740467989936
5.13158903746266 0.8649746793457 4.39674563339202
4.53948868347168 6.0933461349647 8.65387152588991
4.37661623169249 9.3302676595496 4.69693362052908
4.9443825892804 9.32676911625246 4.58802061170245
4.80341149095613 2.13587475038442 5.03499586031095
4.59261312271487 2.01160706281342 4.82688624397325
4.63562229496317 5.77792541632957 8.25217103036375
5.0355066361068 1.90328592015199 3.84320174050502
5.0567944494517 1.57706372533993 3.89903600445096
4.3339810294913 6.85276657744757 1.67124169681454
4.41040526942055 6.75502786916998 1.39596487371751
4.2985776312447 0.56725205141644 8.11825686695456
4.52347638082367 0.71147051878504 8.59026126241991
4.28869581188209 0.14198809260992 5.92553335472553
5.28142167084965 9.59641598960662 7.2274875310108
5.30049070051515 6.18885610473075 9.16351688936902
5.47047968837234 2.6731071223147 3.06871070766402
4.4282183774921 8.34912654217009 9.8476846726134
4.72048893011314 8.4532948196335 9.63056102214962
4.84241807303817 8.41447058385881 9.0142768133753
5.10617309608061 5.54647705489792 6.43540725737315
5.27512937319151 5.52875986037815 6.01259477095944
5.3592129634449 4.2951122653537 0.18510939482791
4.89803800327359 9.50692640754956 6.67978756607813
4.96546090401034 6.60628482057637 4.36843848436733
4.79845471853018 6.53119234589215 7.45522714743105
4.8871312165313 6.51253744830503 7.26673187416863
4.80969687456044 4.50362489667369 2.22918001149576
4.91536214360286 4.34384828458989 2.03981723662482
5.44250994542255 1.39045829353652 7.23626780071872
5.2762137687271 7.86054817661427 1.18089673835307
4.93670044072536 9.53867176367264 1.17128269259868
5.25270759938513 5.04956314738727 7.38132982153753
5.34251455663706 5.00514784230989 6.96738325683743
4.08146407881663 2.56735063432406 1.68318453642034
4.27875796398722 7.03219086924051 4.91013032612069
5.41832852182161 1.14745394494153 2.20956800352198
5.28252450575348 3.01482960999665 4.9034310504037
4.92924761239829 3.54023697735904 4.59987199990508
4.43478850900255 5.85262135764538 7.83227511894308
5.35540956531068 9.43799108513857 1.55703422018009
5.13187100071334 9.83971810410493 1.71598364743852
5.42076564151548 2.70518990774548 4.24294030220185
4.88997637171722 8.26092215257128 5.45080374791322
5.24715274644016 8.97240701708623 8.39082746569316
4.55738453637882 3.56638452555399 8.37287537442249
4.95936617461837 3.3921946614627 8.43606866236366
5.50324044467544 0.34846859140291 8.15782960113857
5.16752405460291 3.56461754204994 5.89996216658742
5.26391175968568 3.81049450613914 5.76871858190244
5.3014903417137 8.85823598952095 8.80793645860003
4.36210980674414 0.480173309081 6.47749146989089
4.51690784216759 0.18296392208302 6.34301853416004
4.54249305662219 3.45699813451064 8.0183232640103
4.92461393119623 3.2744538698971 8.03717534436593
5.37217599203429 2.27500415267955 5.89588328659546
5.04067940971345 5.78957613559575 4.82228896316325
5.51915724696767 7.70841566502197 0.58582425951826
4.53786547973186 5.92286551784462 4.70784520302299
4.43149001402791 5.05205298094907 7.47460574047127
4.97890293042142 1.46678630021277 0.88995565931186
5.44213647672972 1.29880755222469 0.88213202015405
4.68246855925841 9.44013593576691 9.40023093979852
4.94318608959886 9.16514023183919 9.44717325912062
4.54000591525405 5.4203569509149 8.39491515023941
5.43759934549972 0.84970794065648 1.0423817344782
5.31003621352413 9.36764062578728 1.41344420510769
4.99426389860102 3.06615925947319 3.23808597110732
4.89445955890941 7.72095544572023 1.32183500272772
5.33461492811245 4.60412732232839 7.83465245388801
5.19057925001436 0.92396650063944 6.23624374325777
4.99890900490716 1.21580428441034 6.13149620867187
4.86844896897442 0.67052397439101 1.3467011712099
5.29062477332114 0.61001356777567 1.58200295959483
5.31186559117852 6.68328738892829 4.52176708972855
4.59856083213635 2.05002426665064 0.22633058589643
4.81314239313279 4.82843859295175 7.39340381596375
4.77340924080811 4.7058643757109 6.89245052652626
5.46331558860248 6.18606697016291 3.29305927291197
5.30001829187936 0.77697342272294 1.98852304056943
5.14356016655143 0.88544053321397 2.06668684560636
4.11576553532889 9.66856310389488 7.103990648572
5.17442422634708 2.06197257007881 4.70820786586275
4.98022019989873 1.93876826077591 4.4820390253308
4.4554143299962 3.25060714993588 9.11618486955165
4.70207194115544 3.4735927253783 9.49005154381454
4.95571473055417 2.40590493768356 6.39473806244457
4.91200200700945 2.94699637062105 6.72400657100875
5.0171478593856 7.88887734998847 7.88996518575036
4.62889281445484 3.26003190357327 9.79648601406996
5.59921398905778 7.76376450212311 3.66256499656592
4.69952111493708 9.97378690543189 4.0210969806181
4.93218610898244 3.31166009709242 3.04432552273555
5.05297959397729 3.71827081353839 3.24634299007231
5.05183085767724 8.99664644505526 1.35008544181321
5.40773445277122 8.60905185100698 1.17499371620301
4.95272838177228 6.64161688725403 3.85946422730305
4.66283998371607 7.00938346439869 3.68355642210761
4.44267799509988 9.65666992375006 6.61642163455796
5.25628619718226 3.85591722883964 0.84769775824313
5.45923092947437 5.61924109527653 8.22215093647559
4.62821562166845 5.29999513724991 6.37040123416218
4.27273222354045 5.55726131465267 6.47325467005168
5.46243306479546 5.72388616413044 7.16099241686634
5.69930584644436 7.77162055151323 3.93382288549623
5.35616295443225 4.21860272086078 6.00655668452913
5.31269840405738 4.22285187030656 6.49832122745668
4.9304875310326 2.72065479874015 7.05748202519782
4.96554541514416 2.18723647859338 6.7428969318281
4.60930372299212 8.07277986414583 8.61675269782733
4.60587958456079 8.3515531243307 8.67522407358872
4.22603387093078 5.28658009571171 7.97630562552464
5.618569089637 2.3932562879918 0.76113847232295
4.29963624155356 2.3892529176223 7.367021862923
4.44003208005784 2.71890282614806 7.41204267938404
4.60523782586705 4.76104404151591 6.77320225574462
4.63776036601352 9.0935541076674 0.71786185714354
4.9373049867654 5.86821234465186 8.15137847290896
5.08246479901081 6.20268970731285 8.37446585724953
5.40261826519213 3.39238926734629 5.76504782175066
4.50879177636648 2.3636561296101 5.94005282467595
5.17314920798096 1.73635425592881 5.53043192379078
4.23783162031255 8.47610909901438 8.66983593557165
5.46252478597078 4.22066823576576 0.87295300569116
4.81746827969999 2.30968955503413 5.64475112629348
4.80579373238231 1.98431789606306 5.41370451447932
4.18934799937467 8.9567034592971 0.72495254887594
4.1835984440931 4.6472752694775 1.07331558466635
4.52331260133212 4.96398324953161 1.19523860103012
4.39914504790814 4.99497181521259 0.71233589555697
5.05475417241682 9.40912434320141 3.451148068068
4.66711353229738 9.72499291267997 3.48695252156783
5.31604842191676 4.83528711659352 5.07213135346872
5.28959396689222 5.51541861264016 7.49801258873591
5.61529353263899 5.51146121807011 7.9226155484379
5.35778806472283 7.25785205515596 5.55785577104927
5.05798267052092 7.01591702111564 5.40156458745109
5.45994207024009 7.72493203144387 6.23129655148134
4.18471034013517 7.98605731797671 7.45714010237704
4.32278929474529 0.69817129000276 5.26940231619184
4.45333168202797 0.39118092899615 5.26413894535764
5.01307326337663 9.85152907007659 4.26330381141774
5.26353730129995 9.39100306316751 3.7897994714305
5.69874042005265 4.38951946505411 6.52022692613589
4.55785993830472 1.7835215976396 5.42997233505444
4.00421922990259 8.60392147816688 6.86249690116398
4.25941550133006 7.69845141650978 5.87953270430229
5.30077527783469 1.48776898161576 6.36854770262075
4.14342012062536 8.62197566995419 6.47558480003199
5.32481288643138 6.9475584199274 5.0648284080505
4.33666859194573 9.20592009878398 3.36467111790825
4.34628467946054 9.57048907035441 3.4173880008576
4.73564426211542 0.38151968401691 3.90848480702592
4.28402486817112 0.71035383734631 4.06245324122879
4.76340534605873 8.02190183530794 6.11817343336029
4.35887583406658 7.81986404243552 6.16506338556462
4.04143125587498 0.18288883060769 1.54724187853599
3.83995726692637 0.43025520693879 1.84944706019286
5.34122538603042 6.80347031900275 7.40655245984223
5.49119189122093 7.12044814870919 7.19112061506242
5.49959885944277 3.33201695165622 9.5518564772949
4.13106379117082 7.92145344462628 3.67030304278902
5.44355454303509 4.04660433115951 9.21817273471272
5.30449147559425 3.50335458984199 9.30343014748956
5.52702662108313 7.06807884706937 6.13403054337571
5.54774881964309 7.22295026460921 6.30895384110886
5.24286537942243 8.99528700850689 3.88946725146166
4.86359973680232 7.94654652627812 5.68848008750109
4.55881280300274 7.75023501802217 5.55916541664719
5.33987929918016 3.31970509101906 8.92357125269626
4.25151602285493 2.94777427363221 9.53346856832298
4.27819782951029 3.04072572995514 9.18598827846875
4.43301138591807 5.35188850223917 4.84420734709784
3.95027297414044 6.69822021145988 7.66909581490385
3.92834597404537 6.29934073839868 7.86332898532823
5.29004565586747 5.99581751163727 0.79053200019216
4.31360622267649 2.56778746197699 9.51573941299369
4.36080763933352 2.52906836947927 9.15210160867395
5.07920625815379 6.02562284279097 0.41042046150861
4.19477168864095 1.93710154396747 6.38872774716903
4.516044254381 8.25801675755893 5.1038320415293
4.36556676838495 8.06920113130526 5.13195518221618
4.3385576962492 0.9921067276027 4.20102471437563
5.37308838610054 7.57110600584915 8.41995231778802
5.21717788072569 7.64579475559637 8.81574451966044
4.48279874770636 5.28692797929014 8.94566426326682
4.33085764832289 8.73310775843014 9.3905461229611
4.3658065023722 5.46042274115257 8.73888540886678
4.46743604071884 1.21022035930412 4.7556762193579
4.74819276772103 1.13441693672782 4.37029358813571
4.15935880505119 1.89129166284905 5.78019039070413
4.21231138745985 2.14870750433985 5.9778506810768
4.67060034078005 0.36861819473766 3.33126880444545
4.07721235081015 8.6667511453718 9.01277229224798
5.15532959876006 3.76036599310621 6.79992349297958
4.65869076504542 6.94247174294075 4.49048916427519
4.90396156011566 9.03505362068239 3.39561963097424
5.05723535721757 8.7173857317242 2.99653066757734
4.79050007150485 0.42278183149937 3.22451135954974
4.68959730337065 0.80736711556801 2.97084984783558
4.99924212881352 8.83052415255374 3.61786662190475
5.15044237376645 8.53486160882567 3.37086230828332
5.06616105528328 3.46848746876952 6.58033892082037
4.66531346842209 3.40897812226995 6.61094298753801
5.35087138353258 7.24276459288933 8.49573099035101
5.23200110377039 7.29560322325459 8.81819107873445
4.81775991566908 1.88826526209455 2.78296578934609
5.12506423471883 1.91708576125716 2.54404223869429
4.91782449351885 4.50902921291031 8.61450217189107
4.15560605640003 9.35208335094129 6.27113316567867
4.24791479253907 9.09520370034461 6.15582180432872
4.17197670223907 5.03532498107024 9.06975925753795
4.53744858967389 7.16559396639822 3.87559175935329
4.91120449287929 4.98478168320969 8.79937617322462
4.86063581995816 4.61182432484646 8.83150847371343
4.12874501331732 1.5997471852073 6.34023428845732
4.88792011976225 1.9768095664798 2.26633818498801
4.57181941219191 1.94779051578334 2.48207489399956
4.78214244414204 5.84781186422524 4.26446973177303
4.35015021000976 5.7453370630932 0.87655862530048
4.98765918445248 4.7260449619245 8.41377515807181
4.97258773254549 5.02243170365629 8.56696969966158
4.22317027662458 5.88339192119163 1.21629932712523
4.42654278737367 5.70355590719835 1.08834605119423
4.84629419075349 5.98831258624455 4.49475676538139
5.04785211998293 5.90544180836055 4.59674812417152
4.31238635036612 6.84780849069906 4.67318324332241
5.64087493801061 6.26648522994202 8.62420177484132
5.59657055980126 6.25286987456052 8.51332468947841
4.74784746521606 3.99115858160902 7.04093456889161
4.5323697031155 3.86893406112477 6.97898735506023
4.45250126118399 0.39211764353372 8.85238595098361
4.81126010007191 0.19490276094988 9.04826734698777
4.24245267074238 6.32568224347379 4.83842605237674
4.12101422892158 1.12641584391998 3.90042926679266
4.43058148912875 8.7859256243272 2.75476614839175
4.18619807137832 9.07426784297881 3.02635590771872
4.76289200080058 0.19617307828194 9.51020219299322
4.26474125644449 1.0312915257846 3.07192546869464
5.20333335499836 5.82850671191032 3.47572192667525
4.58610450506702 1.22668999769441 1.70846432350011
4.23573773261036 1.20864129991119 1.91430737311288
4.65877344352327 0.99125558943148 1.74427130135363
4.25652217200616 0.91241822914804 1.97867184607234
4.37759366383572 1.12705019273153 7.37572995412233
4.19085530631603 1.04418400306305 6.9806831079722
4.92615208450961 5.64951769763115 4.20388283042966
4.09643796048546 6.07203935257581 5.93427526381995
4.13683687392672 9.45060598564865 2.54875950904301
4.45025035634535 8.96531188030313 2.42146719189016
4.90783093255315 3.63659394420398 2.02465745957599
4.66791865599824 3.85512430983161 1.94908776022046
5.42212648086993 4.06718223434405 8.71483112614551
5.35976085437754 3.58883568532086 8.58251204060179
4.16429491018797 8.0483847927069 1.83148107864204
4.70442186366423 7.62941694579954 1.91457385625306
4.28479282502664 7.72516177428688 2.02442367558718
5.35075326069096 1.28153668727732 4.1782910547709
5.35817673712355 0.99026013891341 4.28208853671016
4.53534423608806 3.24777149003754 2.50843894444129
4.80096847485373 3.25992698229068 2.38306204586567
5.2934072548578 1.10786796370364 8.16294108564156
4.21065224231051 4.97292257139033 7.00901275138143
5.12947507135432 0.74768119165259 8.22020295806646
4.9323152449765 0.78050837170144 8.58933773597436
4.24408908986964 2.16501980063251 7.75594534656859
4.42856854338333 1.8293085422991 7.80387752037273
4.61899964325831 0.67959204505888 9.90752110785249
5.21334079954166 1.3267131416417 8.40156875051679
5.0050798395331 1.1846843295515 8.6779470221599
4.2471752337709 1.41484745492123 3.59588551204358
4.28012456549483 1.20381136516362 3.11093144073625
5.20523414542117 2.26977523863858 8.10650652561393
5.38905757816948 4.13373499954383 4.28451466123326
4.70532430130015 1.4074341393285 3.14010075030503
4.6980170507617 1.59855231444323 3.57404228766128
4.40916150321327 0.41551872686476 9.6678109156221
4.15675387250841 0.54841379919303 9.40097627791675
4.16454223820455 0.75481379812062 3.33763879163352
5.09573967875434 3.84685528656875 4.11940958425453
4.1980465343413 1.19711735000613 9.52428044047191
4.5312223279419 1.12984079323687 9.8137367182222
5.11091083022713 3.09006128268613 4.07676705674392
4.90263535425541 3.53897400084343 4.43355458693299
4.37031353548924 7.29994376151133 6.55736312252007
4.3960318401636 7.39960292748374 6.58692585460291
4.41227007527449 1.33228022151365 0.15400335924599
5.29115699378266 3.21565690751672 3.81451168446397
5.31497417657785 3.62214720001229 3.79274175801011
5.23971534683546 5.83392930573403 1.93548353006473
5.21706417467614 6.627341221664 9.44454867529995
4.86361535323561 6.68935720540333 9.53293559353747
4.74915473087822 6.00087151106534 2.16071018697211
4.8196582863716 6.33955565836755 2.47833152504971
4.96106803633743 5.31332806833503 5.7665562559917
4.60915096657469 5.19243815629362 6.00256609262804
5.06725215406323 5.16431470691268 4.81009017151044
4.98933473407171 5.05205515698535 4.71581077898887
5.01618392092319 5.08982551272568 4.43105517031674
4.28496030094419 5.39184206254238 5.78200243754654
4.21392161606811 3.58925686440073 2.41072453593533
4.2746973999624 3.83584199428991 2.18189506632495
5.60812668658103 1.99239293281486 1.3064771725397
5.59934400221233 1.94268336987017 1.16368552676633
4.76876083559421 5.73673200301726 4.97845422149451
4.76465107368838 5.87708573924534 5.30437018133231
4.61001053269177 2.93471390029002 3.23435332027262
4.4675672746167 2.58144379080954 3.16551312138653
4.28538786348056 2.56455382207562 3.41900702127091
4.34347196625963 2.82671202064547 3.54120019026052
3.96046592172268 6.34575710720768 3.48719582330703
4.24467311317293 6.47950111914343 3.39693737768137
4.22328501337023 6.38960589115047 3.11848381810787
5.35438794645435 6.47768777916061 1.23693682937513
5.22479766639503 6.768706527457 1.16640831102078
5.3542034441958 6.7041860263427 0.90178919004582
4.45520836606382 6.8822125865828 8.66308842143632
4.00381746791692 7.01325140727692 8.38248720011172
4.08814701900016 7.91408568396991 8.55716228872846
3.99703367712184 7.53766338885492 8.82887715075485
5.12783155558467 6.82171591587168 7.73548241497716
4.98608481038004 7.12569953271405 7.91713403670874
5.23725237583995 6.732485402366 8.13396822730663
5.09339326215923 6.9920148956674 8.23161144602279
4.53892647921416 7.00600425563496 9.25485460842243
4.40087093188968 7.33113037216426 9.31021880562331
4.44834325462934 7.37653522164617 9.11603188566543
4.57680328852042 7.12278137142748 9.03591856969844
5.0608680340097 8.22931589386895 1.7418313815025
4.40224620381698 6.97047411111295 0.56015172290851
4.37299992074535 7.04467169661585 0.87387949898958
4.00623214697499 7.73835904394542 8.15583458732877
4.29515045307679 7.32659574534885 0.45939497110924
4.2643660893193 7.41464903837039 0.72281131035493
4.77678651276073 7.92322601866957 1.63962004505451
4.42469471781526 8.15575414535158 1.59137312386168
4.33480855425473 4.47071532574866 4.99615834890906
5.22520085815175 5.35994925181442 4.69657906174797
4.41725603828597 3.91966497848907 4.99099546218696
4.6396394249624 4.17634617335498 5.18910422881417
4.81371243165813 8.69631986764077 1.75129647391325
4.55364993031093 8.67876473576185 1.69648470481595
4.90986027635136 4.20045130950903 5.18114083418299
5.1842534004332 4.6372519342777 4.92282626222756
4.79175068039178 7.9377108526342 7.42929521895113
4.95473817337204 7.80600235258817 7.78481939413871
4.45948590790995 7.77104709397652 7.46570267690336
4.50017160815342 7.63226545640476 7.75582789498634
5.22868690216883 3.84982537559127 4.83483936634661
4.21062715720752 8.11436908793124 1.03907769527497
4.01565836320045 7.98280204883777 3.15720620663928
4.32441150991211 8.06968779078669 2.87122848134092
4.16721474773501 8.35128461172721 2.75351049589678
5.4227087508077 7.20354698606409 3.28189265295292
5.50934649964638 6.82811508912484 3.63986903812062
5.15195545474764 6.48842052831912 2.4950055601153
5.47608232475308 6.31048593423602 2.27344977246493
5.52046060382583 6.4191546346868 2.86168885978365
4.73443496778446 5.55482825746853 5.01039017061623
4.70866284177573 5.59944530380058 5.39271974505974
4.60174952384817 6.646641305066863 0.337901074150222
4.681717494081193 7.137441993028394 0.2900961289558433
4.546099694014508 6.619866457241347 9.376122586226725
4.522649295425576 9.481048583994651 1.3762737900327515
4.809212448899435 6.190116531854033 7.426315455391851
4.981268360328082 6.347172929257103 7.926093646848668
5.1428471825043385 5.843814528661318 7.278172662329773
4.904382420297392 8.808059051482406 4.041844562396764
4.468574711992228 8.926719667842667 3.668692436657368
4.66144461736847 9.850664007952862 4.305491783865625
5.125690084965116 6.262473885546331 2.906253841225908
4.910243725610944 5.791531629909764 3.157771453494296
4.941970175053396 5.352514027664516 2.7199082604272484
4.682240735456 5.909192136047494 2.556324963324684
4.674945615627382 6.658244166134427 6.531820524567188
4.4814000743575955 6.3628055349763315 6.084634179369789
4.550398749187947 6.969386902004771 6.078427049542024
4.651299216221331 4.4380649954092375 8.269631186519462
5.0316677691712455 4.6414737601537395 8.013159040543282
4.60561187204906 4.243810973463885 7.7551514031926105
4.84226256365366 3.615325807554138 7.775497546026906
4.939221201386787 3.874494830888023 8.519570358744073
4.674827480285844 2.7776864040196316 9.780202127348424
4.904867560622735 3.105475632664923 0.49943011113014
4.684730269692809 2.635631099717672 0.6019433829268334
4.397670073999499 3.1542048994270964 0.47730975243647333
4.69582045033352 7.647682849194408 6.9792774839859675
4.979218422351345 8.20806583704009 6.459417217396478
4.763597365475718 7.7329687541095335 6.405210276878324
4.50041424377499 8.153382717110558 7.390640473854792
4.98630701896931 8.164861752284116 6.996914210098659
4.47869769664688 8.5804982522226 6.832022754238268
4.557709960340515 9.547886660190647 7.020919311073826
4.5792744333033175 9.243189861694635 6.390173314517639
4.904623453954472 8.76277526114279 6.468133575275059
4.968521040467176 8.725766415569154 7.038720977634371
4.879236794193952 9.106666384001889 7.335077074194395
4.566342349172142 8.727729034063941 7.437602656594073
4.645912269873652 0.41430017551282206 6.444846348559868
4.7177053727371945 0.605447981158074 6.846804059231926
5.016748022151806 0.4296420473547681 7.341496642945681
4.989671237396106 9.583737232886337 7.4268561903467
4.68731001252113 6.8644228641414315 2.064072688980835
4.864028832809538 6.530636557048521 1.3289003794072782
4.582458319459361 6.329888625790358 2.170041592863932
4.852599051642106 6.01488179896038 1.7839959492803266
5.03405333919612 7.0326295916881545 1.323962569623905
4.732671247496549 6.362868497938903 6.913307662845969
4.567787522793585 6.693146178161046 7.189140259098577
4.5265594265154565 5.881003264325938 7.096577558214979
4.358932108175565 6.357629640021101 7.663552674811146
4.476284227114222 8.800604842498448 0.5958030556786679
4.585492425704531 9.046981378743748 9.40224230507366
4.584840698829468 2.7802880351877133 6.318858130857133
4.886695361841882 3.253933735521192 6.64745401777661
5.0108450891260174 2.3323159451679043 5.989121796655362
4.930910549140754 3.1796799199525982 5.659908881522636
4.561340249181432 2.6110586338113437 5.6879391390163345
4.742714452360822 3.4565662091682 6.218906011636028
4.7374157542074995 9.311890304264796 7.791443619183182
4.455921571376997 9.269470181517587 8.330347291233604
5.041191754046813 1.2346142866219616 1.9677878560125883
5.196130171038776 1.8602271900277358 1.272150728733532
4.788310476880872 1.5815130936419979 1.57810353262578
5.052285128849924 0.786841417507014 1.74563706366683
4.707671845268801 1.020766507155755 1.4066617726924349
4.877931136739534 2.121478077048376 8.130162864031977
4.968324075005952 1.9879556629052981 6.792173199211288
4.9771752800335145 1.7320658465582 7.157531765275891
4.735249261681598 1.74930988405391 7.780347512070937
4.542248945173552 1.980085622823748 7.335309449598341
4.883287365359557 2.807759081557867 7.508636287466357
4.669066929990276 2.52542362063826 8.000789669933074
4.917021373981506 7.8507515251033055 0.971192260466764
4.836475046774538 6.864115128553085 0.8395225600761668
4.613414834314213 7.368218117532764 1.081556946799515
5.013696256406848 7.649801404180715 0.4180498544934233
4.748772167313646 0.494926796055584 1.1112970778224418
5.101313217969324 0.9639880250719584 7.255399008745054
4.82032363378549 0.8973012884762379 6.329858014109037
4.856890234746399 1.5022349133198416 6.477932766532802
4.497036432873152 1.412186022228266 7.024048008913309
4.761471606717626 1.28763520141093 7.474791699289743
4.551771125104383 1.35203105769384 9.371475689169005
4.713918349954958 2.3382158285029733 9.442029727170418
4.721099699565768 1.9377137341439539 9.06855028727945
4.8188312815000875 7.55993528580252 1.623437099689244
4.282890123731666 7.330144876608165 1.834979548956768
4.564183160578112 7.9448266097845535 1.292012559607912
4.762849806452375 5.239744127425244 4.813415231882188
4.687141951327456 5.64856272831526 4.253630436526696
4.611887535081804 5.866880973044234 4.48225960619201
4.606785526736186 5.312280981316954 4.370534706147972
4.82428864385094 0.46196801287009004 9.727776390168177
4.695988871643064 0.659538529727006 5.1735533012207835
4.59890097893861 9.406360462643388 2.3905916091376596
4.643207517321417 8.90905914209248 3.066027563693565
4.753697713343446 8.80089897215752 2.6059096393291243
5.034665760824667 0.465193579555938 7.8668846130242684
4.608343146823599 5.003755926916274 8.170230417398887
4.604475314041373 4.803975283110596 7.639084276802554
4.821455221910579 5.311908035953823 7.471140276048922
4.944193656633147 4.113641823466794 0.2726636597370283
4.85610645391466 4.669702617263868 0.1131851961952225
4.829680279143653 4.939020726324694 0.743163884474
5.0117604757056045 4.7520040555739875 1.2620055646659174
4.534798632981098 4.5562710601242316 1.2124546497136566
4.58651606329416 4.006472011232078 0.7673857522138282
4.936475685894586 8.246900243737295 5.009523753603952
4.703139209353283 9.312812831503628 5.02897541489748
4.561818409929006 8.643956421635494 5.433444900777292
4.74702139325939 9.08460699134404 5.60055681691359
5.018360058099602 8.534819052782527 4.500899186495557
4.99925728998182 7.86041120614325 2.0802966203050284
4.899486869590117 7.402126726916743 2.05297157903635
4.6536563144134675 2.14010187525324 4.418229144359187
4.476542857350244 2.4949328271333084 4.899485561566805
4.680776979071454 3.216052620242658 4.241167010692898
4.7810068858502 3.5441006227709275 4.538646760435665
4.8020433584020354 3.168040840706042 4.877740353410123
4.901622214851762 2.6152389567614898 4.095570386688503
4.454441050225773 1.7647185887624537 6.573065938984172
5.177177080244563 2.150019573614084 0.7654357292061601
4.604256747764777 2.025989725245248 0.9399751789735081
4.64914979380885 2.164899251587344 1.45932373878331
5.138820390802112 2.82128685044966 1.0320313006166748
4.6631705433885156 2.7620810848644055 1.443028229540454
4.61422344381082 0.7739618636387801 0.9022188578315159
4.309918650832272 0.5846349240118885 1.6652559331916756
4.472460167718824 2.5305707368394423 1.805789500601612
4.637749447630668 3.3547670834356405 8.723676364578447
4.632416258871309 2.8274244857579096 8.995994434502604
4.627450468159446 3.10920684181098 7.910951890919881
4.75522211219535 2.359950216208982 8.598246586408644
4.532054864800024 8.394294563501195 2.842172185152238
4.77801166864569 8.382328904556752 3.709917673347612
4.462685946778261 8.034907711568653 3.3125473350158896
4.598100021750358 6.666624026810959 3.624506272162848
4.365550879068182 6.137194715778947 3.8313782219494583
4.7554337248436 6.873070176313613 4.055508011481294
4.598487670688186 0.837558696649284 2.108496442456046
4.6269968206241465 9.84316881291891 1.9402829265792667
4.785268109241738 6.5372307136889125 8.464136486984186
4.502770400435337 7.054724305971313 8.192626081726363
4.744533661315616 6.906151633199994 7.674775299508989
4.507720777606481 2.904028681647544 5.291592567007494
4.63457632558767 1.9401649628537982 5.131789358557324
4.966994625051579 2.626030603787672 3.1521959244236353
4.8096744673440535 2.9905590892164935 3.643375607050602
4.549414278066794 2.278632895455864 3.4115091809020996
4.7287039216357005 2.092209161970754 3.875858344697714
5.1513378962709435 2.1002537626551723 3.4339893991721437
4.949933418080125 4.44924725846177 6.299353668830446
4.735143340595712 4.393996031891014 5.74955600660061
4.994305158563617 4.126884736274745 6.784505353393775
4.8089465099584 3.782639222698938 5.722488737013315
4.963685665805716 3.109299484560034 1.482090459350906
4.437175161264325 3.3527496265030616 1.3434783679125868
4.799655213790038 3.6281109610182716 1.682154636161404
4.802377332089209 7.497551136487736 7.8135928198865985
4.762677744970235 7.304845853095668 6.6089079755930324
4.517030895709173 2.226946496332728 2.7697450061718367
4.796152462860375 3.1478657051446928 3.12860863173041
4.805791230339113 3.279112741668148 2.737337438623128
4.982729958861148 5.347997136027071 1.8089064718709034
4.744778761415764 5.41122591056706 1.272853093581066
4.623932481849197 5.924431756355361 1.295058362688172
4.563082976872716 5.234353097416978 2.273435742290978
4.595529285591633 5.383468623799198 3.08317689336076
4.935747219084075 4.585380205748722 3.2105229770323342
4.774934753000324 4.393962126000136 2.693834460644252
4.54090556813192 4.894562150016351 3.3313847339591276
4.9910812749612266 4.8819246309928275 2.3414178961179477
4.455765689340501 4.6612717020327 2.2700886972782763
4.6628772982941715 1.050521902402338 8.64399984859695
4.8739724572859355 1.52524946658256 8.382722453726288
4.714981474541831 0.682068586665928 8.24916566851785
4.765006266780761 1.7923762145080062 3.2463579870274777
5.0258791378894925 1.3467666646217733 3.482509992627137
5.074322036410156 1.5359660926723366 2.775496020448093
5.04099878447079 6.148749526850778 8.75879418026024
4.906646617451018 5.2740526191156265 9.15156644949243
5.125311870905569 5.779685624149178 9.297888989013535
4.654480678151478 5.234984211644718 8.689162139051842
4.558035755002237 8.956136293625955 5.940328042300821
4.738349629612713 0.16502327346662501 6.006286573247155
4.967527491375128 8.932271164337497 6.0370187472137085
5.06829454005117 4.128560609000819 3.0457893932490983
5.039805597579626 4.004575161313108 2.0888521557588278
4.856966451816925 7.9117275926531025 3.6591137549023625
4.9401017231070234 7.397116038206616 3.5733117445585054
4.694845260246252 7.818387980013705 2.7335727174836317
4.5255690897334935 7.3739925004222355 2.739825974517484
4.689277598592936 7.079913078859661 3.213615895565024
4.947765800841378 8.027585682753614 4.518025882264048
4.669960076976296 7.956260979993763 4.113731790939719
5.2266951067970435 7.7813322357074 3.97412663876419
4.345734388973837 5.415900591335976 3.68592069177676
4.7480669027493825 4.605407511741578 3.6896332771143054
5.11435826569851 7.853167848108825 6.039389795146122
4.791992544518873 8.418178620379878 5.935054464447933
4.951836602947827 9.132866195466018 8.224382808151613
4.839360131574683 0.30312806562144 5.396181907327092
4.841301549654614 1.383206564729548 8.907243607670978
5.122984214435954 2.386333084885432 9.046353020027535
4.399056341926214 7.749385369305584 8.812980519268503
4.529290088313055 7.842061625173758 8.126727008126661
4.941655480809288 7.10707533396432 8.648908101248603
4.618818687959566 2.912240890750156 7.027913262590364
4.546155797914816 3.872099275428576 7.350936023731424
5.051298392998161 3.838100140356454 7.165356843751122
4.701709379145503 1.25862321614745 5.909820151169489
4.833481516759745 1.633170482124688 5.519031193112655
4.597796868777781 2.176460697971805 6.37547767501453
5.019432463317775 5.114811412969469 1.2686899632749
4.7766905681652405 4.714923947513111 1.7356729993695066
4.9031234155134085 4.890669909750194 5.828481142422752
4.78784076012979 4.172277211701697 5.348561062145462
4.774685363416302 4.602075652232702 4.9486030240533685
5.010796580728232 5.216653377305511 5.271141809756543
4.77873432368486 6.3074816427725 5.543489323776688
4.864105641663028 6.629288179396995 5.9089325614855355
4.9228394063648695 6.322518944753206 6.387777438408051
5.030184821018785 5.721709926705792 5.628282529325659
4.688154766794605 5.732468717738573 6.545393124739541
4.623217449205891 6.857333645260762 2.6743105132867635
4.61833660625175 6.263834652947876 3.313124209530904
4.52868179770297 6.418491237792269 2.745632787282802
4.7266056379406525 7.35686655968923 4.258862483119619
4.79298583293535 4.439104601016702 7.207034545199825
4.789779675078348 1.803729611160622 0.5709991869703059
4.627980709069138 1.303076201609654 0.6158550032646561
4.982758503066555 5.102839648887237 6.707911152866242
5.003452585732847 6.058588160546705 6.87810979382362
5.008126680497262 0.5023995596948366 3.68778479207562
4.843271891280638 3.4028727177123597 0.86148765777056
4.636922978145452 3.70828232412741 0.31947675202741393
4.7370328370799175 3.7764112839481596 1.2490438766689576
4.696193935803457 7.7117700560373565 9.278738558179949
4.823936092274816 8.320697628383344 9.328966183480267
5.14400414658944 6.963196029449416 6.311164211426096
4.38860197425116 9.447734336526919 8.946234007452949
4.7613632959393595 6.882462260056696 5.543959963033641
4.963605636850619 7.481452606257899 5.541054276162249
4.558737245103498 4.883261427971796 8.926424609812466
4.662048962425514 4.34057826011364 9.222332618018015
4.584697992628607 8.818359806903278 2.05456931992721
4.99939666497104 5.916176665778228 5.136007463847486
4.8010667314015025 6.214537504846757 0.295910043582985
4.854603551215184 8.322209604040129 8.241697220046692
4.986157956779324 8.672629497027218 8.615460742175594
4.908690024000938 1.041244654186766 5.337700322218353
4.636352508770984 7.615368542673833 4.663999501549347
5.052679162483015 0.9753751828329217 2.5718207894997462
5.029313578771583 0.8044901828839819 3.2160531788193745
4.930725148668273 7.087354023440803 5.036256427460061
5.1302210465189235 1.146876862781338 4.283975116356574
4.710676484038369 1.5906186664386999 4.5967899474233995
5.02169507523084 3.332142959141334 9.620325560258857
5.041988878997664 3.88264510707297 9.382392504801313
5.2735066088987566 4.603461712117219 6.7385512942284835
4.960056934352876 3.341380339464756 9.121684323942747
4.453138203782658 1.5577677520629083 2.8152026297433452
4.987774924313726 6.964704889292643 9.193328166964536
4.797385511578933 3.872682325838102 4.906122902210213
4.7087197982126785 3.788311852057812 4.220548870867824
4.972588144706503 4.30439033833467 4.05538349058287
4.730017035211811 4.115252913844674 1.6265879737699058
4.584122111851319 1.113711542807272 3.0690566660573237
4.610306408067504 1.3295141249424758 3.9618811631762716
4.939471757564003 3.8519427437828275 3.6732873107841764
4.539533915891704 4.385419595571494 8.704057586866153
4.90734160827891 8.239387065615132 7.6128069109979535
4.79932810091304 5.867977001713316 0.7978743663387416
4.889271126489578 0.91752953417981 9.804205533214564
5.051193293055464 0.337005031661918 9.327178525795597
4.765486584290944 0.487027454552336 8.808991589246379
4.84416110669728 9.605709313719256 8.548289482192727
4.999535253305014 8.86021743277192 9.158061131567313
4.540887312860262 8.697059283263735 8.375856904221376
4.948782361517132 9.453668884730337 9.139440659211733
5.006284955698287 8.83277010302209 0.9345392349132767
5.041605592128284 6.891482748065827 6.982375198013044
4.583545991775758 1.616005829249205 2.1211314427815746
4.926011548748164 8.294935559818631 0.626962151806584
4.667728254756218 7.635734896677937 2.3064893518675698
5.076119578931905 4.180881134027925 1.0906204197151217
4.86535591270669 7.4573154519671405 8.946392925425041
4.611336644374182 8.035386122426974 9.697508512127262
4.612474664024197 2.84379773145514 2.2321657346618182
4.60224771171856 4.173412683378322 2.169238428601184
4.94891665834646 5.667866049437276 2.145811773985744
5.00809563510571 5.494059669433182 8.340835939801003
4.803824245903006 5.086156168659821 4.541875924487888
4.915947418770537 5.376199655430926 6.117505122222902
5.158064335599772 6.99432114814414 3.538721459934572
4.99121583593284 6.8816460565012205 4.566351549722637
5.101938954141124 9.612056038655469 1.45860460102096
4.732548316902773 0.7700446697475148 4.18289669464354
4.77692822451399 8.147584324473511 8.877580953276574
4.794216905533546 1.4844437884185802 1.132679295793944
4.6770694964578485 2.4064409229480717 7.077608660445138
4.721710836756066 8.919899881636299 1.440155790194196
4.563558438727928 2.25278351246758 2.2588371540656125
4.635049723172134 7.018256095210388 1.5090946811128823
4.96726564506142 5.5210800709617285 4.86356051770648
4.975931810192644 0.9111782643805899 7.830794003967114
4.661756507247226 9.389116009140432 3.4231558678751837
4.626038845482696 4.749536451907172 4.19866635287768
4.802721832578909 0.9834430226747962 4.752080529080668
5.036094404439418 7.801764193007558 8.430246943809339
5.087744772867955 1.100660008849172 1.0148723263091042
4.459017627455108 8.546497376068372 9.027267528538177
4.716384574880212 3.5976053794871836 3.154435610535704
4.897825872143445 6.550606821162642 2.4608480804245225
4.663194515248266 9.072580361860647 4.5141324350730105
4.593858393441601 6.438904233629856 4.595523152124342
4.843830339763502 8.80314982895976 7.828115807589325
5.1253541754868515 5.71182199440982 7.842373286304014
4.509872260420072 7.038166311065572 4.73888218872862
4.884985725578492 1.7465579783070275 3.7278040516328126
4.67800437924215 5.856375244518722 7.985466095858618
4.90189874186789 6.370894330521862 9.34104703427641
5.013287900458468 9.268150736241061 1.267537577802305
4.66437189044503 9.56110580492586 4.54978569664186
4.798720191052765 5.985543400814745 8.357971721603038
4.887667259979202 2.03705566101314 4.763032248869437
4.566786343229273 4.864064512503592 7.108535018017466
5.045443447490773 4.897253489589952 7.158641855216243
4.745964424703903 3.4225077978561074 8.216110661290596
4.638799986857647 8.056984317147151 5.386847295161397
4.848290407155188 5.868585610212546 4.720018655446732
4.939599876865572 9.670087258911474 3.8024601706204337
4.51026398654409 2.0801973909226317 5.697753645380687
4.560821844252087 7.847399767710707 5.8820830054750965
4.515996242060917 0.6769744931420519 3.1872388544317856
4.833404258159398 3.699584845375894 6.802225465057961
4.850640920585517 1.9324877764037125 2.5188552767569874
4.518513747555632 0.34942520176466596 9.29592853690069
4.566780219253948 3.5707525975090744 2.2429776353939483
4.4709981658909665 7.896388735362893 1.800294355879694
5.0873132287172 6.194652587544413 2.268596114933356
4.64096053640801 5.374263397742903 5.735961132806505
4.7259423253109505 8.336676132258544 1.6841211458295782
4.676536592456798 7.7867564389009125 7.6089112962448855
POLYGONS 979 3916
3 215 793 255
3 255 793 200
3 762 793 215
3 1 794 2
3 2 794 3
3 3 794 215
3 215 794 762
3 757 795 724
3 724 795 405
3 412 796 464
3 464 796 213
3 7 797 370
3 370 797 419
3 419 797 458
3 419 798 458
3 550 798 419
3 566 799 370
3 370 799 7
3 328 800 390
3 390 800 192
3 192 800 633
3 583 801 629
3 629 801 633
3 633 801 192
3 421 802 422
3 422 802 574
3 574 802 524
3 12 803 340
3 340 803 726
3 339 804 340
3 340 804 12
3 252 804 339
3 377 805 378
3 378 805 339
3 339 805 252
3 340 806 726
3 726 806 725
3 16 807 14
3 231 807 16
3 16 808 14
3 17 808 16
3 17 809 16
3 16 809 231
3 21 810 653
3 653 810 641
3 641 810 206
3 21 811 22
3 653 811 21
3 21 812 22
3 22 812 23
3 23 812 291
3 23 813 291
3 291 813 486
3 486 813 487
3 478 814 479
3 641 814 206
3 206 814 478
3 28 815 29
3 29 815 522
3 609 815 380
3 380 815 28
3 228 816 274
3 274 816 246
3 274 817 228
3 228 817 317
3 317 817 26
3 30 818 246
3 246 818 274
3 50 819 51
3 51 819 718
3 779 819 777
3 777 819 50
3 49 820 201
3 201 820 587
3 587 820 46
3 51 821 46
3 46 821 587
3 718 821 51
3 47 822 777
3 777 822 779
3 47 823 49
3 777 823 47
3 47 824 49
3 49 824 201
3 531 825 456
3 456 825 423
3 423 825 55
3 54 826 356
3 356 826 456
3 456 826 531
3 49 827 201
3 201 827 54
3 54 827 356
3 47 828 49
3 431 828 47
3 423 829 55
3 55 829 430
3 430 829 431
3 47 830 431
3 431 830 430
3 56 831 195
3 195 831 197
3 485 831 56
3 61 832 57
3 197 832 195
3 195 832 61
3 61 833 57
3 57 833 64
3 64 833 63
3 58 834 55
3 55 834 423
3 66 835 263
3 263 835 442
3 327 835 326
3 326 835 66
3 67 836 218
3 218 836 443
3 443 836 281
3 281 836 747
3 725 837 726
3 726 837 327
3 67 838 218
3 218 838 69
3 69 838 725
3 725 838 722
3 280 839 281
3 281 839 747
3 230 840 459
3 459 840 7
3 7 840 413
3 43 841 458
3 458 841 459
3 459 841 230
3 370 842 7
3 7 842 413
3 419 843 458
3 458 843 43
3 358 844 307
3 307 844 549
3 495 845 496
3 496 845 427
3 74 846 520
3 520 846 519
3 519 846 553
3 520 847 74
3 74 847 636
3 636 847 635
3 557 848 553
3 553 848 519
3 75 849 78
3 481 849 80
3 80 849 75
3 553 850 557
3 557 850 78
3 78 850 75
3 636 851 635
3 635 851 481
3 481 851 80
3 83 852 58
3 58 852 55
3 347 852 83
3 83 853 276
3 347 853 83
3 315 854 673
3 673 854 675
3 675 854 513
3 84 855 222
3 222 855 429
3 222 856 223
3 223 856 673
3 673 856 315
3 84 856 222
3 513 857 675
3 675 857 505
3 336 858 418
3 418 858 505
3 505 858 675
3 86 859 89
3 89 859 334
3 334 859 366
3 541 860 234
3 234 860 93
3 88 861 87
3 87 861 93
3 86 862 89
3 87 862 88
3 88 862 86
3 93 863 87
3 234 863 93
3 92 864 90
3 90 864 547
3 547 864 540
3 90 865 92
3 92 865 366
3 366 865 334
3 203 866 359
3 359 866 186
3 501 866 203
3 281 867 747
3 215 867 762
3 762 867 763
3 763 867 281
3 280 868 281
3 203 868 501
3 501 868 280
3 1 869 2
3 186 869 359
3 359 869 1
3 4 870 505
3 505 870 418
3 418 870 95
3 61 871 57
3 57 871 272
3 272 871 273
3 197 872 198
3 198 872 504
3 195 872 197
3 93 873 100
3 100 873 198
3 198 873 504
3 93 874 87
3 100 874 93
3 87 875 88
3 88 875 273
3 273 875 272
3 287 876 289
3 289 876 401
3 401 876 714
3 102 877 103
3 103 877 220
3 220 877 380
3 380 877 609
3 102 878 103
3 103 878 289
3 289 878 287
3 767 879 688
3 688 879 263
3 442 880 263
3 263 880 688
3 203 881 501
3 501 881 767
3 767 881 768
3 791 882 729
3 729 882 730
3 730 882 202
3 108 883 651
3 651 883 679
3 679 883 285
3 285 883 109
3 491 884 657
3 657 884 651
3 651 884 108
3 331 885 332
3 332 885 285
3 285 885 109
3 32 886 700
3 700 886 709
3 709 886 670
3 670 886 31
3 292 887 432
3 432 887 371
3 371 887 573
3 114 888 185
3 185 888 184
3 184 888 71
3 71 888 682
3 629 889 630
3 630 889 115
3 115 889 668
3 583 889 629
3 72 890 115
3 115 890 668
3 682 890 71
3 71 890 72
3 63 891 64
3 64 891 322
3 322 891 696
3 497 892 654
3 654 892 653
3 653 892 21
3 21 893 22
3 22 893 509
3 509 893 492
3 38 894 370
3 370 894 566
3 509 894 492
3 492 894 38
3 247 895 394
3 394 895 278
3 278 895 313
3 121 896 120
3 120 896 278
3 278 896 313
3 117 897 118
3 118 897 561
3 561 897 562
3 562 897 120
3 120 897 121
3 117 898 118
3 118 898 250
3 250 899 251
3 118 899 250
3 189 900 247
3 247 900 394
3 251 900 189
3 129 901 199
3 199 901 613
3 613 901 476
3 126 902 128
3 435 902 436
3 436 902 363
3 363 902 126
3 123 903 127
3 127 903 476
3 476 903 613
3 123 904 127
3 127 904 125
3 125 904 126
3 126 904 128
3 129 905 199
3 199 905 390
3 390 905 328
3 264 906 688
3 688 906 767
3 263 907 688
3 688 907 264
3 399 908 204
3 204 908 516
3 516 908 438
3 303 909 302
3 302 909 437
3 437 909 438
3 362 910 715
3 715 910 716
3 716 910 135
3 135 911 137
3 137 911 471
3 716 911 135
3 302 912 303
3 303 912 137
3 137 912 471
3 362 913 399
3 399 913 204
3 715 913 362
3 93 914 100
3 234 914 93
3 26 915 317
3 429 915 26
3 222 916 429
3 429 916 26
3 84 917 222
3 232 917 233
3 233 917 84
3 138 918 305
3 305 918 274
3 274 918 228
3 232 919 233
3 233 919 138
3 138 919 305
3 336 920 418
3 418 920 95
3 4 921 505
3 505 921 675
3 232 922 233
3 233 922 397
3 397 922 425
3 478 923 479
3 479 923 140
3 140 923 517
3 140 924 367
3 367 924 102
3 517 924 140
3 92 925 90
3 486 925 487
3 487 925 92
3 102 926 367
3 367 926 366
3 366 926 334
3 115 927 142
3 142 927 784
3 668 927 115
3 261 928 262
3 262 928 323
3 633 928 192
3 192 928 261
3 262 929 323
3 323 929 142
3 142 929 784
3 529 930 530
3 744 930 53
3 53 930 529
3 744 931 53
3 53 931 651
3 651 931 108
3 529 932 530
3 628 932 457
3 457 932 529
3 675 933 513
3 513 933 286
3 114 934 185
3 185 934 474
3 474 934 213
3 410 935 434
3 434 935 551
3 756 935 749
3 749 935 410
3 749 936 756
3 756 936 754
3 754 936 42
3 42 937 754
3 754 937 753
3 753 937 458
3 458 937 43
3 75 938 78
3 78 938 302
3 302 938 303
3 437 939 438
3 577 939 558
3 558 939 437
3 500 940 739
3 739 940 740
3 740 940 196
3 362 941 715
3 500 941 739
3 739 941 742
3 742 941 362
3 196 942 387
3 740 942 196
3 387 943 440
3 440 943 204
3 204 943 399
3 196 944 387
3 387 944 440
3 150 945 149
3 149 945 260
3 260 945 132
3 539 945 150
3 260 946 132
3 132 946 396
3 396 946 237
3 150 947 539
3 627 947 662
3 662 947 150
3 237 948 238
3 238 948 80
3 80 948 481
3 396 948 237
3 153 949 305
3 305 949 138
3 153 950 151
3 305 950 153
3 153 951 151
3 151 951 684
3 684 951 683
3 42 952 754
3 778 952 780
3 780 952 42
3 51 953 381
3 381 953 231
3 718 953 51
3 650 954 639
3 639 954 196
3 196 954 740
3 316 955 525
3 500 955 739
3 739 955 316
3 316 956 525
3 693 956 692
3 692 956 316
3 282 957 283
3 283 957 415
3 377 957 282
3 283 958 415
3 415 958 107
3 107 958 656
3 67 959 107
3 107 959 656
3 218 959 67
3 282 960 377
3 377 960 378
3 159 961 113
3 339 961 252
3 252 961 159
3 158 962 160
3 350 962 224
3 224 962 158
3 224 963 350
3 350 963 349
3 349 963 460
3 460 963 329
3 159 964 113
3 158 964 160
3 160 964 159
3 460 965 282
3 282 965 377
3 329 966 460
3 460 966 282
3 445 967 697
3 697 967 702
3 702 967 288
3 86 968 89
3 89 968 288
3 288 968 702
3 445 969 697
3 697 969 696
3 696 969 322
3 196 970 387
3 707 970 639
3 639 970 196
3 164 971 707
3 707 971 708
3 708 971 441
3 164 972 707
3 707 972 639
3 183 973 406
3 406 973 448
3 551 973 434
3 434 973 183
3 646 974 618
3 618 974 236
3 236 974 166
3 166 975 236
3 236 975 406
3 406 975 448
3 497 976 654
3 654 976 646
3 646 976 618
3 54 977 127
3 127 977 123
3 208 978 209
3 209 978 168
3 485 978 56
3 56 978 208
3 356 979 54
3 54 979 127
3 350 980 224
3 224 980 355
3 355 980 526
3 461 981 684
3 684 981 683
3 170 982 262
3 262 982 323
3 324 982 170
3 324 983 170
3 170 983 645
3 645 983 530
3 530 983 207
3 104 984 142
3 142 984 784
3 188 984 265
3 265 984 104
3 169 985 205
3 205 985 265
3 265 985 188
3 169 986 205
3 205 986 207
3 207 986 530
3 171 987 157
3 157 987 199
3 199 987 129
3 171 988 157
3 170 988 171
3 171 989 170
3 170 989 324
3 113 990 159
3 159 990 285
3 285 990 109
3 158 991 160
3 160 991 319
3 319 991 320
3 600 992 587
3 587 992 46
3 54 993 127
3 600 993 587
3 587 993 201
3 201 993 54
3 348 994 347
3 347 994 83
3 168 995 209
3 371 995 573
3 573 995 168
3 287 996 288
3 288 996 702
3 289 996 287
3 102 997 103
3 367 997 102
3 346 998 542
3 759 998 346
3 521 999 542
3 780 999 778
3 778 999 521
3 638 1000 760
3 760 1000 749
3 749 1000 756
3 547 1001 540
3 540 1001 520
3 520 1001 74
3 23 1002 291
3 662 1002 23
3 627 1003 662
3 662 1003 23
3 173 1004 98
3 198 1004 504
3 504 1004 173
3 173 1005 98
3 98 1005 577
3 577 1005 558
3 234 1006 541
3 541 1006 519
3 519 1006 553
3 117 1007 118
3 118 1007 283
3 283 1007 415
3 118 1008 250
3 460 1008 282
3 282 1008 283
3 283 1008 118
3 727 1009 728
3 728 1009 260
3 260 1009 132
3 237 1010 396
3 775 1010 772
3 772 1010 237
3 202 1011 730
3 730 1011 776
3 776 1011 775
3 775 1011 772
3 729 1012 791
3 791 1012 792
3 792 1012 727
3 148 1013 17
3 17 1013 18
3 18 1013 738
3 738 1013 147
3 16 1014 17
3 17 1014 148
3 16 1015 14
3 14 1015 413
3 413 1015 391
3 727 1016 792
3 792 1016 738
3 738 1016 147
3 534 1017 453
3 453 1017 391
3 391 1017 413
3 169 1018 205
3 205 1018 326
3 326 1018 327
3 12 1019 53
3 53 1019 744
3 340 1019 12
3 340 1020 726
3 726 1020 327
3 171 1021 170
3 628 1021 374
3 374 1021 171
3 509 1022 510
3 510 1022 150
3 150 1022 662
3 662 1022 23
3 26 1023 429
3 493 1023 226
3 226 1023 508
3 508 1023 26
3 336 1024 493
3 493 1024 226
3 453 1025 534
3 534 1025 548
3 548 1025 510
3 510 1025 466
3 391 1026 413
3 413 1026 7
3 216 1027 585
3 585 1027 625
3 625 1027 631
3 246 1028 274
3 274 1028 305
3 305 1028 153
3 246 1029 247
3 247 1029 394
3 30 1029 246
3 153 1030 151
3 251 1030 189
3 189 1030 153
3 217 1031 296
3 296 1031 190
3 759 1031 346
3 346 1031 217
3 296 1032 451
3 451 1032 427
3 427 1032 452
3 16 1033 231
3 231 1033 381
3 276 1034 277
3 277 1034 495
3 17 1035 148
3 148 1035 569
3 569 1035 337
3 569 1036 337
3 337 1036 601
3 601 1036 600
3 618 1037 646
3 646 1037 647
3 647 1037 176
3 177 1038 369
3 369 1038 647
3 647 1038 176
3 682 1039 71
3 71 1039 773
3 773 1039 774
3 489 1040 737
3 737 1040 738
3 738 1040 147
3 179 1041 200
3 200 1041 255
3 611 1041 179
3 348 1042 543
3 543 1042 542
3 542 1042 521
3 452 1043 543
3 543 1043 348
3 432 1044 292
3 292 1044 98
3 98 1044 173
3 157 1045 171
3 171 1045 374
3 374 1045 375
3 164 1046 632
3 632 1046 286
3 286 1046 513
3 164 1047 632
3 632 1047 631
3 374 1048 375
3 375 1048 337
3 337 1048 569
3 433 1049 622
3 622 1049 402
3 438 1050 516
3 516 1050 402
3 402 1050 622
3 518 1051 522
3 522 1051 29
3 596 1051 518
3 177 1052 369
3 596 1052 518
3 518 1052 177
3 466 1053 510
3 510 1053 150
3 150 1053 539
3 517 1054 518
3 518 1054 596
3 140 1054 517
3 650 1055 639
3 639 1055 707
3 638 1056 760
3 760 1056 757
3 757 1056 724
3 137 1057 471
3 775 1057 772
3 772 1057 771
3 771 1057 137
3 135 1058 716
3 716 1058 712
3 712 1058 221
3 319 1059 320
3 320 1059 221
3 221 1059 712
3 250 1060 251
3 684 1060 461
3 461 1060 250
3 164 1061 632
3 707 1061 164
3 402 1062 441
3 441 1062 708
3 622 1062 402
3 221 1063 355
3 355 1063 526
3 712 1063 221
3 206 1064 641
3 641 1064 647
3 647 1064 176
3 431 1065 47
3 47 1065 777
3 611 1066 179
3 179 1066 652
3 652 1066 656
3 656 1066 107
3 401 1067 714
3 714 1067 700
3 700 1067 32
3 31 1068 670
3 670 1068 665
3 664 1069 665
3 665 1069 155
3 155 1069 697
3 697 1069 445
3 276 1070 277
3 83 1070 276
3 427 1071 452
3 496 1071 427
3 347 1072 348
3 348 1072 543
3 496 1073 495
3 495 1073 277
3 527 1074 412
3 412 1074 549
3 549 1074 307
3 230 1075 231
3 231 1075 381
3 459 1075 230
3 649 1076 650
3 673 1076 315
3 315 1076 649
3 186 1077 359
3 359 1077 358
3 358 1077 307
3 264 1078 265
3 265 1078 188
3 688 1078 264
3 250 1079 251
3 251 1079 189
3 638 1080 760
3 760 1080 759
3 759 1080 346
3 451 1081 296
3 296 1081 190
3 397 1082 398
3 398 1082 693
3 693 1082 692
3 425 1082 397
3 460 1083 461
3 461 1083 684
3 329 1083 460
3 377 1084 378
3 378 1084 725
3 725 1084 722
3 439 1085 497
3 497 1085 654
3 550 1085 439
3 331 1086 332
3 730 1086 202
3 202 1086 331
3 727 1087 728
3 728 1087 534
3 534 1087 453
3 529 1088 530
3 530 1088 207
3 374 1089 628
3 628 1089 457
3 213 1090 464
3 474 1090 213
3 216 1091 433
3 433 1091 622
3 585 1091 216
3 346 1092 542
3 542 1092 543
3 543 1092 452
3 222 1093 223
3 223 1093 336
3 336 1093 493
3 429 1093 222
3 540 1094 541
3 541 1094 234
3 547 1094 540
3 412 1095 527
3 527 1095 773
3 773 1095 774
3 650 1096 649
3 649 1096 397
3 397 1096 425
3 280 1097 281
3 442 1097 263
3 263 1097 280
3 489 1098 737
3 737 1098 791
3 791 1098 729
3 272 1099 273
3 696 1099 322
3 322 1099 272
3 563 1100 564
3 583 1100 629
3 629 1100 563
3 319 1101 320
3 331 1101 332
3 332 1101 319
3 433 1102 622
3 622 1102 621
3 621 1102 292
3 292 1102 432
3 521 1103 542
3 542 1103 346
3 336 1104 418
3 493 1104 336
3 427 1105 452
3 452 1105 543
3 355 1106 526
3 526 1106 525
3 525 1106 316
3 326 1107 327
3 327 1107 726
3 390 1108 328
3 328 1108 436
3 436 1108 435
3 457 1109 628
3 491 1109 657
3 657 1109 457
3 347 1110 348
3 431 1110 430
3 430 1110 347
3 370 1111 419
3 419 1111 550
3 566 1111 370
3 374 1112 375
3 628 1112 374
3 441 1113 708
3 708 1113 387
3 387 1113 440
3 439 1114 550
3 550 1114 419
3 405 1115 406
3 406 1115 448
3 724 1115 405
3 412 1116 464
3 527 1116 412
3 421 1117 422
3 422 1117 436
3 436 1117 435
3 434 1118 439
3 439 1118 550
3 551 1118 434
3 437 1119 438
3 438 1119 516
3 509 1120 510
3 492 1120 509
3 466 1121 510
3 510 1121 509
3 478 1122 479
3 479 1122 487
3 487 1122 486
3 600 1123 601
3 613 1123 476
3 476 1123 600
3 489 1124 737
3 737 1124 491
3 491 1124 657
3 563 1125 564
3 564 1125 524
3 524 1125 574
3 557 1126 558
3 558 1126 577
3 553 1126 557
3 601 1127 600
3 600 1127 587
3 631 1128 632
3 625 1128 631
3 635 1129 636
3 636 1129 663
3 663 1129 662
3 662 1129 627
3 649 1130 650
3 650 1130 639
3 664 1131 665
3 665 1131 670
3 683 1132 684
3 692 1132 693
3 693 1132 683
3 768 1133 767
3 767 1133 688
3 725 1134 726
3 722 1134 725
3 727 1135 728
3 792 1135 727
3 767 1136 768
3 774 1136 773
3 773 1136 761
3 761 1136 767
3 777 1137 778
3 778 1137 780
3 779 1137 777
CELL_DATA 979
SCALARS cell_scalars int 1
LOOKUP_TABLE default
0 0 0 0 0 0 0 0 0 0 0 0 0 0 0 0 0 0 0 0 0 0 0 0 0 0 0 0 0 0 0 0 0 0 0 0 0 0 0 0 0 0 0 0 0 0 0 0 0 0 0 0 0 0 0 0 0 0 0 0 0 0 0 0 0 0 0 0 0 0 0 0 0 0 0 0 0 0 0 0 0 0 0 0 0 0 0 0 0 0 0 0 0 0 0 0 0 0 0 0 0 0 0 0 0 0 0 0 0 0 0 0 0 0 0 0 0 0 0 0 0 0 0 0 0 0 0 0 0 0 0 0 0 0 0 0 0 0 0 0 0 0 0 0 0 0 0 0 0 0 0 0 0 0 0 0 0 0 0 0 0 0 0 0 0 0 0 0 0 0 0 0 0 0 0 0 0 0 0 0 0 0 0 0 0 0 0 0 0 0 0 0 0 0 0 0 0 0 0 0 0 0 0 0 0 0 0 0 0 0 0 0 0 0 0 0 0 0 0 0 0 0 0 0 0 0 0 0 0 0 0 0 0 0 0 0 0 0 0 0 0 0 0 0 0 0 0 0 0 0 0 0 0 0 0 0 0 0 0 0 0 0 0 0 0 0 0 0 0 0 0 0 0 0 0 0 0 0 0 0 0 0 0 0 0 0 0 0 0 0 0 0 0 0 0 0 0 0 0 0 0 0 0 0 0 0 0 0 0 0 0 0 0 0 0 0 0 0 0 0 0 0 0 0 0 0 0 0 0 0 0 0 0 0 0 0 0 0 0 0 0 0 0 0 0 0 0 0 0 0 0 0 0 0 0 0 0 0 0 0 0 0 0 0 0 0 0 0 0 0 0 0 0 0 0 0 0 0 0 0 0 0 0 0 0 0 0 0 0 0 0 0 0 0 0 0 0 0 0 0 0 0 0 0 0 0 0 0 0 0 0 0 0 0 0 0 0 0 0 0 0 0 0 0 0 0 0 0 0 0 0 0 0 0 0 0 0 0 0 0 0 0 0 0 0 0 0 0 0 0 0 0 0 0 0 0 0 0 0 0 0 0 0 0 0 0 0 0 0 0 0 0 0 0 0 0 0 0 0 0 0 0 0 0 0 0 0 0 0 0 0 0 0 0 0 0 0 0 0 0 0 0 0 0 0 0 0 0 0 0 0 0 0 0 0 0 0 0 0 0 0 0 0 0 0 0 0 0 0 0 0 0 0 0 0 0 0 0 0 0 0 0 0 0 0 0 0 0 0 0 0 0 0 0 0 0 0 0 0 0 0 0 0 0 0 0 0 0 0 0 0 0 0 0 0 0 0 0 0 0 0 0 0 0 0 0 0 0 0 0 0 0 0 0 0 0 0 0 0 0 0 0 0 0 0 0 0 0 0 0 0 0 0 0 0 0 0 0 0 0 0 0 0 0 0 0 0 0 0 0 0 0 0 0 0 0 0 0 0 0 0 0 0 0 0 0 0 0 0 0 0 0 0 0 0 0 0 0 0 0 0 0 0 0 0 0 0 0 0 0 0 0 0 0 0 0 0 0 0 0 0 0 0 0 0 0 0 0 0 0 0 0 0 0 0 0 0 0 0 0 0 0 0 0 0 0 0 0 0 0 0 0 0 0 0 0 0 0 0 0 0 0 0 0 0 0 0 0 0 0 0 0 0 0 0 0 0 0 0 0 0 0 0 0 0 0 0 0 0 0 0 0 0 0 0 0 0 0 0 0 0 0 0 0 0 0 0 0 0 0 0 0 0 0 0 0 0 0 0 0 0 0 0 0 0 0 0 0 0 0 0 0 0 0 0 0 0 0 0 0 0 0 0 0 0 0 0 0 0 0 0 0 0 0 0 0 0 0 0 0 0 0 0 0 0 0 0 0 0 0 0 0 0 0 0 0 0 0 0 0 0 0 0 0 0 0 0 0 0 0 0 0 0 0 0 0 0 0 0 0 0 0 0 0 0 0 0 0 0 0 0 0 0 0 0 0 0 0 0 0 0 0 0 0 0 0 0 0 0 0 0 0 0 0 0 0 0 0 0 0 0 0 0 0 0 0 0 0 0 0 0 0 0 0 0 0 0 0 0 0 0 0 0 0 0 0 0 0 0 0 0 0 0 0 0 0 0 0 0 0 0 0 0 0 0 0 0 0 0 0 0 0 0 0 0 0 0 0 0 0 0 0 0 0 0 0 0 0 0 0 0 0 0 0 0 0 0 0 0