# vtk DataFile Version 2.0
Really cool data
ASCII
DATASET POLYDATA
POINTS 870 double
4.775140875306468 4.71749108838704 1.7298521095635073
4.775140875306468 7.917747943379722 7.450372782433561
4.775140875306468 4.237211111394685 1.5654289121095486
4.775140875306468 6.385809900068674 3.7123657664562297
4.775140875306468 0.9308847991822162 1.7413423563785309
4.775140875306468 0.8479435332349929 2.8724761071435334
4.775140875306468 8.369958797046671 0.5426597425432439
4.775140875306468 5.954421227946182 9.182215094856138
4.775140875306468 5.349193934965578 5.74551474892497
4.775140875306468 1.6914116020509782 8.250863514714357
4.775140875306468 5.517431318386438 9.330354369976385
4.775140875306468 6.036268757426105 7.759703175009231
4.775140875306468 2.331785869521964 6.959390445132571
4.775140875306468 8.224092961399732 4.5970348217035495
4.775140875306468 5.5043741049644055 5.049348699537071
4.775140875306468 5.7443822991425675 4.982314186026695
4.775140875306468 4.154699086343686 9.488050538948297
4.775140875306468 7.606535137300989 5.546073064735651
4.775140875306468 2.104757931760724 5.047322725517998
4.775140875306468 0.40001496497538586 3.8724052302094703
4.775140875306468 8.739125661974848 4.036036569386446
4.775140875306468 1.4172611566597644 8.90830886309659
4.775140875306468 5.450251814569975 4.199727156467903
4.775140875306468 4.717767789871987 1.727718565071008
4.775140875306468 3.3319832539740295 6.6258562273907
4.775140875306468 2.217787655027127 4.106253330553956
4.775140875306468 1.3124962723765585 7.4749526802409365
4.775140875306468 1.6756550091073255 4.565611999852281
4.775140875306468 9.475453483619082 7.7549021210383025
4.775140875306468 9.745327307445839 8.8736619611064
4.775140875306468 6.533672230676211 8.465814790712447
4.775140875306468 8.724511585300863 3.820725416013434
4.775140875306468 1.9670971523232197 2.3393257509988783
4.775140875306468 1.7450116866529537 1.2868592563226628
4.775140875306468 8.248824631889846 4.611313602708611
4.775140875306468 5.693923329055615 6.518881078311972
4.775140875306468 7.866322924904124 8.003610552447904
4.775140875306468 3.7571596864493753 1.979773305799508
4.775140875306468 5.21781923533378 3.4225443693394775
4.775140875306468 2.179432804928317 0.5513301577172932
4.775140875306468 4.491544218728415 2.2414391105565796
4.775140875306468 3.6295830555665267 1.288825851898513
4.775140875306468 8.321174954013303 1.6894221116878751
4.775140875306468 0.6958444860636862 7.755177135900716
4.775140875306468 6.575915923897779 7.236381447671695
4.775140875306468 7.732859394318957 2.6814074269574752
4.775140875306468 2.8847353890443364 9.837751308957348
4.775140875306468 4.631188409671161 7.9443983860171095
4.775140875306468 5.8851908590965705 5.305575002859206
4.775140875306468 0.5062264757872694 8.79171294564813
4.775140875306468 5.603126758552657 9.299954467687755
4.775140875306468 0.3969779052769983 3.9291157779629517
4.775140875306468 5.671465734739262 8.282244702174118
4.775140875306468 2.9314603273767066 6.861554126922282
4.775140875306468 4.593108725380508 2.191733581316018
4.775140875306468 5.8614303014376645 8.044853801900363
4.775140875306468 9.00378296556269 3.472490715526877
4.775140875306468 6.522928430464941 7.462472446516519
4.775140875306468 6.646520419383265 6.256560898790109
4.775140875306468 2.572035506497296 1.6480602984777823
4.775140875306468 7.738291623353343 7.770064963528263
4.775140875306468 7.936810347122681 3.6937238607250475
4.775140875306468 7.1147825020985875 8.821191960346237
4.775140875306468 1.7105590121795007 2.912032134528162
4.775140875306468 6.639188958609175 5.977631851404722
4.775140875306468 2.7188015046686727 5.19910006441447
4.775140875306468 3.563219403853702 9.463258421169241
4.775140875306468 2.1664652621800133 5.020320770947241
4.775140875306468 7.918450676211057 5.741076046378924
4.775140875306468 4.169735041078972 5.364519915233683
4.775140875306468 4.70589222659801 6.888260810437314
4.775140875306468 9.395491586709625 3.427965029898853
4.775140875306468 1.5211586995795852 5.53814142512047
4.775140875306468 7.155147322413793 4.670544408728818
4.775140875306468 8.04471378420908 4.499216061474962
4.775140875306468 0.5438205211630112 1.1192366979841606
4.775140875306468 1.5699574218027443 1.5645103974842145
4.775140875306468 5.995542060568823 8.380465691923373
4.775140875306468 5.844194436652294 4.263673312509376
4.775140875306468 0.6923137961569694 8.241558306753284
4.775140875306468 5.877251577199128 1.2660083062785625
4.775140875306468 5.046417862663892 1.3356731418792296
4.775140875306468 1.9531479387533128 6.818326870142299
4.775140875306468 2.9583923696206518 8.905978675243448
4.775140875306468 8.973813115404464 3.2306404250040743
4.775140875306468 4.552346730624128 3.945724101305749
4.775140875306468 6.100686221382249 1.4595072711084862
4.775140875306468 5.730651472869629 4.973057487039558
4.775140875306468 2.5058215254267497 1.9804056028886183
4.775140875306468 9.074121413096039 3.3853070805732766
4.775140875306468 8.722937210058289 0.49621064495608297
4.775140875306468 8.074208815488568 0.6385486186913358
4.775140875306468 6.107504286333265 7.511303071069949
4.775140875306468 0.41682453148274834 3.2340233657503346
4.775140875306468 7.304386890169 6.6071284940258455
4.775140875306468 9.46817914819536 4.561700673585412
4.775140875306468 9.157708982677201 1.1475278266899802
4.775140875306468 2.0133247931027736 6.803272299431067
4.775140875306468 7.312689968019611 1.2806535849460945
4.775140875306468 5.514834302524374 5.362245011465629
4.775140875306468 2.1203281232869107 5.004668630723743
4.775140875306468 5.879600706493684 5.292742988184929
4.775140875306468 6.141568813068273 8.528771755072873
4.775140875306468 4.496896796459906 8.994575659709238
4.775140875306468 3.7434245357492237 8.453537097043808
4.775140875306468 1.8223303352883222 6.805901483331798
4.775140875306468 5.279375257071087 2.257582539809254
4.775140875306468 4.27186558383765 7.141445532679241
4.775140875306468 1.4895549526244312 8.47808787985271
4.775140875306468 9.110512723661792 9.422841634533391
4.775140875306468 8.874480507296575 6.252116020275251
4.775140875306468 5.625651686884773 7.517899891527657
4.775140875306468 8.49582869651469 8.64513212538738
4.775140875306468 2.072525573263903 2.26040479691453
4.775140875306468 1.8385390680642648 3.229802593348053
4.775140875306468 7.303285190465133 3.6930512555685473
4.775140875306468 7.026283413847452 8.207310695331962
4.775140875306468 8.381803555029956 3.7085280936141105
4.775140875306468 0.19640033741407595 9.380976102665459
4.775140875306468 9.876783767306918 1.4322557504909732
4.775140875306468 2.7239655928562105 5.416221051722176
4.775140875306468 9.22255020984807 3.406823858247086
4.775140875306468 9.66758613060359 9.046921428759951
4.775140875306468 3.9881780350272344 7.442027413620618
4.775140875306468 1.9075099992423272 3.6145688081099943
4.775140875306468 5.446570188365248 4.200214551654165
4.775140875306468 8.749935731038823 4.333465697512931
4.775140875306468 4.560264266524171 6.164263459969973
4.775140875306468 6.847199254630223 4.082924178183287
4.775140875306468 6.546638880860513 7.451872546962387
4.775140875306468 2.8161503760073368 7.03948524382996
4.775140875306468 6.594543521028832 6.226351878673937
4.775140875306468 5.858298741191856 0.8126248378039971
4.775140875306468 5.428723642935738 9.233803014486735
4.775140875306468 8.539465296310325 7.144482478141335
4.775140875306468 7.124244022538335 3.02290980044601
4.775140875306468 3.977497205041663 7.0491464712596
4.775140875306468 4.463287181401778 8.644704760338849
4.775140875306468 3.2626255139555402 5.721892381159217
4.775140875306468 5.833668521326291 4.261971511409624
4.775140875306468 1.43553367528837 1.8016509002993812
4.775140875306468 4.471863955010803 8.42772667338193
4.775140875306468 6.612933503251811 9.503661713279783
4.775140875306468 3.441416743695045 9.516858995322353
4.775140875306468 6.574724174144319 1.3385404246869432
4.775140875306468 8.521661508998504 6.0016107042593605
4.775140875306468 4.547724784929543 1.3512741620268605
4.775140875306468 3.974649029877453 3.777607744613856
4.775140875306468 7.050514452914017 1.3031955429995565
4.775140875306468 6.089704377701077 6.7065499505723
4.775140875306468 9.178397323069944 1.1429842446938494
4.775140875306468 5.0850058779929705 4.5573440344706695
4.775140875306468 7.757734342448833 8.974848855537095
4.775140875306468 6.999132744817669 0.2894273174289498
4.775140875306468 2.6021266883589824 0.5415071983956968
4.775140875306468 8.916851670049095 8.106959133750578
4.775140875306468 8.739182773329276 8.260702964765157
4.775140875306468 7.9981572092867435 8.316213064124074
4.775140875306468 6.016867463066808 2.165921774728966
4.775140875306468 0.9729716399930587 1.1210669418076127
4.775140875306468 0.5941825994786023 7.35045344819425
4.775140875306468 1.4460229297919955 9.277064884476337
4.775140875306468 7.923870007226148 1.6351163898804748
4.775140875306468 5.46318786670411 1.2644259248672916
4.775140875306468 4.211701298195427 3.1216035675908955
4.775140875306468 4.007280715293352 7.008201272233693
4.775140875306468 4.042389726917982 7.502257417509405
4.775140875306468 7.156034431363904 4.670249679658075
4.775140875306468 8.793653648237408 5.696873270101985
4.775140875306468 6.689236590955783 6.1428164179074525
4.775140875306468 3.280510847449703 8.740078843727835
4.775140875306468 2.992065669256587 3.232611681967054
4.775140875306468 3.9877933232026948 7.47902170893636
4.775140875306468 1.164156198702396 4.351178276669101
4.775140875306468 1.9371353428126423 2.505677063525018
4.775140875306468 7.509847463960907 7.805206952017675
4.775140875306468 6.113314647729177 4.5193211933968875
4.775140875306468 5.813253542709702 7.5476150886964986
4.775140875306468 1.935765084003905 2.777795366083987
4.775140875306468 1.1153812467887063 4.368884932670347
4.775140875306468 9.435779655056896 8.188449148476344
4.775140875306468 3.116817115415011 5.6303825625164245
4.775140875306468 6.408960720902386 2.4606713074856046
4.775140875306468 1.200674314673441 6.176486883295076
4.775140875306468 3.7990599992058898 4.199546936704047
4.775140875306468 3.8564939733689183 0.46110350217489027
4.775140875306468 6.972882193708714 1.250952880061934
4.775140875306468 7.168325302932167 3.635170520451931
4.775140875306468 8.648475920556303 4.383619231752068
4.775140875306468 3.2698608046471973 0.43493634989795127
4.775140875306468 5.973302579095421 4.539794050291423
4.775140875306468 0.8071950062122211 3.0299366449493776
4.775140875306468 6.185022200856153 6.6172046436053185
4.775140875306468 8.260588977227012 5.341760327192581
4.775140875306468 4.670045501219823 6.932002480241609
4.775140875306468 3.6693007494799033 1.7265624330009812
4.775140875306468 8.379161761655523 3.7073488886114805
4.775140875306468 6.8794902118512065 0.7973055221343011
4.775140875306468 5.063986448978818 4.697048104428
4.775140875306468 2.9709925069150667 3.674786052032178
4.775140875306468 6.773892347743422 6.32026658777742
4.775140875306468 1.4868204614283191 6.476217977681452
4.775140875306468 6.128987287114926 6.87677247856818
4.775140875306468 5.850398091873775 4.256389747905337
4.775140875306468 4.525446762185999 6.787445779213634
4.775140875306468 9.842714483133035 1.8707209426936604
4.775140875306468 8.041308959124244 9.570170885268025
4.775140875306468 0.6568823261287495 1.3960518747798905
4.775140875306468 8.16899792424141 5.418442980272919
4.775140875306468 0.5544869820769808 0.9758764937952155
4.775140875306468 1.304216583219522 8.6816572498268
4.775140875306468 4.708318842814106 6.891697106909037
4.775140875306468 2.3058077259702925 9.494775852262135
4.775140875306468 2.065189653802602 4.438811304199504
4.775140875306468 7.867903012776398 4.234845423132608
4.775140875306468 3.9361643516217244 1.0946611582835106
4.775140875306468 3.6010522285156465 6.733631437784245
4.775140875306468 9.175177006601308 4.54045366533139
4.775140875306468 1.3338834498614613 5.597399169423372
4.775140875306468 9.801781234314472 4.430472037092489
4.775140875306468 7.046714065759462 9.108888871910356
4.775140875306468 5.228489462477799 4.805435737487036
4.775140875306468 3.424895399494776 0.3920424068698273
4.775140875306468 8.57474397052501 7.224948410348763
4.775140875306468 4.862884368012281 3.4186218427086064
4.775140875306468 7.507415793589567 6.635204994968433
4.775140875306468 8.9962501851202 0.7958467057433599
4.775140875306468 2.528112851561284 9.835275609850276
4.775140875306468 3.5447826796498574 4.533339098543399
4.775140875306468 3.77874576428155 1.1915119941718846
4.775140875306468 4.585978405489829 5.931769628241615
4.775140875306468 1.3338260135339546 3.114004569290846
4.775140875306468 6.693283671918165 0.3145945398472966
4.775140875306468 4.589656778272633 7.735797495058891
4.775140875306468 4.469817702333329 7.685112210710905
4.775140875306468 9.616898556947982 8.542850879966636
4.775140875306468 8.384820216114177 3.709303277317484
4.775140875306468 1.230558450624204 1.8133770941476586
4.775140875306468 1.6135561589304934 7.4539241702625505
4.775140875306468 5.506482838331664 4.984753126622025
4.775140875306468 8.94448775092262 2.33174994991279
4.775140875306468 3.8951631695915627 0.8521964388394342
4.775140875306468 4.172614796938251 1.7258929163658392
4.775140875306468 5.888628555246214 7.477201076720864
4.775140875306468 5.8821317173183525 4.7142380150592444
4.775140875306468 7.920909204218776 1.6389826813225348
4.775140875306468 9.838157269928088 4.333544279540733
4.775140875306468 0.7562566453480033 1.0561821939132783
4.775140875306468 4.027172898183086 3.22088623713057
4.775140875306468 4.946440049858267 8.844728295562028
4.775140875306468 3.953094043806713 8.477670992279382
4.775140875306468 1.761271957195978 0.4959921698121451
4.775140875306468 3.28762254046855 9.727129327228653
4.775140875306468 3.647628877524087 7.765735014736929
4.775140875306468 1.3727298409473676 0.728188495400279
4.775140875306468 6.2284927423254395 5.495895149140201
4.775140875306468 9.418937995553911 7.348127180323828
4.775140875306468 7.317063169725255 6.608472621007481
4.775140875306468 8.483464009684752 6.392112628104905
4.775140875306468 5.523831795624907 5.489092475092295
4.775140875306468 9.04356405553408 8.115671802418625
4.775140875306468 6.308122420401402 5.540148920972749
4.775140875306468 7.669291167644668 6.96749501650314
4.775140875306468 8.643717543916548 0.4555262419125411
4.775140875306468 6.323182497397799 3.708452594717346
4.775140875306468 6.163389272229826 0.3090823592056232
4.775140875306468 9.380844310528548 7.966654606947912
4.775140875306468 0.43669763539173906 3.2192215371193953
4.775140875306468 1.278548673795469 5.8257199448218
4.775140875306468 3.527290090752867 1.354015161865707
4.775140875306468 7.638466954050507 6.917071783323239
4.775140875306468 8.856059717852737 5.739819543233327
4.775140875306468 3.8233029003851478 4.861711918384419
4.775140875306468 5.8906842334737926 7.725917605600369
4.775140875306468 5.220321947262955 3.408875579306317
4.775140875306468 1.5718403360961053 0.3596332385020422
4.775140875306468 9.113795702444003 5.577454877206429
4.775140875306468 8.685576508366468 2.820968207170271
4.775140875306468 8.394420142955152 5.441424361926145
4.775140875306468 7.47553118768487 7.810001911138818
4.775140875306468 8.43761416455548 7.385747233528131
4.775140875306468 2.7206802692887084 7.165763858752696
4.775140875306468 5.115175395234006 4.396141817691307
4.775140875306468 3.914212366138424 4.940895113951649
4.775140875306468 8.598370529967479 6.464486903971734
4.775140875306468 7.794213377067925 7.6684976824918465
4.775140875306468 0.8123881616707892 1.5185194881584847
4.775140875306468 8.016743915536923 6.125146222026741
4.775140875306468 4.916285984506908 6.74029661227061
4.775140875306468 2.566564138679702 2.016292935912537
4.775140875306468 6.000635645238546 7.490332140253354
4.775140875306468 6.103240167137122 6.766008484541409
4.775140875306468 3.355331093468929 4.320442151136202
4.775140875306468 7.96745323092617 8.540526603846692
4.775140875306468 2.2826074427311185 0.46521283903601324
4.775140875306468 5.236133510545768 4.810992593354344
4.775140875306468 7.705799431393465 4.493878783846264
4.775140875306468 6.5214050222260465 4.480604663372909
4.775140875306468 9.317589328523823 4.892316520917679
4.775140875306468 4.622105748413876 3.729684804420142
4.775140875306468 8.933107298416468 1.42198842025234
4.775140875306468 2.760459551563493 8.902715723495879
4.775140875306468 0.42003405120050286 8.860996392473822
4.775140875306468 9.141455439898214 1.1148604066889614
4.775140875306468 5.086886601685166 4.537135714235646
4.775140875306468 0.4088864857954293 7.603568785505883
4.775140875306468 0.5698026895793872 7.7588511674394045
4.775140875306468 9.80478946797841 2.0843687423523916
4.775140875306468 3.6117072955411933 2.1056220549581295
4.775140875306468 3.398132109949462 8.182600479486569
4.775140875306468 7.604235060834855 2.4115879455209828
4.775140875306468 5.45810587567253 8.364282611059485
4.775140875306468 6.775311450586524 9.454604874233993
4.775140875306468 3.71444867213931 0.4338848876564526
4.775140875306468 6.005090140359987 2.059311477706969
4.775140875306468 3.465626571361612 6.19049582080024
4.775140875306468 5.625926509962681 5.438614772819844
4.775140875306468 2.3894979922578607 6.2086328165384
4.775140875306468 4.333394942730889 1.3351223037886235
4.775140875306468 2.4891661415177007 1.7166975223921237
4.775140875306468 8.782102908473275 2.632152909720701
4.775140875306468 4.737755465154722 4.106049326995987
4.775140875306468 0.6712694465940799 2.4006366675118977
4.775140875306468 0.5231299503313265 1.3036579907215016
4.775140875306468 7.746433068457047 3.884305008432488
4.775140875306468 7.440597755056557 8.97935973408782
4.775140875306468 8.146955300801778 2.9610912120323003
4.775140875306468 3.546106675354766 4.619738544740705
4.775140875306468 9.875996274856826 1.4312969903478987
4.775140875306468 8.54266796042444 1.7191551330164492
4.775140875306468 4.394851777477337 2.6902194492848395
4.775140875306468 3.880440832306534 5.663800125027961
4.775140875306468 8.84939380982421 0.5618388016093908
4.775140875306468 0.8628826659321024 6.352321988340753
4.775140875306468 5.846930421098503 4.270264995445288
4.775140875306468 4.069300012705743 1.9853622689849508
4.775140875306468 6.077831140988765 3.022701801629487
4.775140875306468 1.4267197166960743 6.417169425573299
4.775140875306468 7.879832820489779 0.7934184379129346
4.775140875306468 7.601168050161088 2.5858948368448247
4.775140875306468 3.345990622754933 8.026495779057278
4.775140875306468 4.012958015019245 3.9658506240549203
4.775140875306468 9.46049191866432 7.407971869550111
4.775140875306468 4.7078442017565845 6.889434684180839
4.775140875306468 6.521201297293664 8.467877581797364
4.775140875306468 1.9945275975583392 5.438924480123968
4.775140875306468 5.447955399732479 4.199335385772861
4.775140875306468 4.592804238086933 8.854589752211709
4.775140875306468 6.226972334355824 0.28304591525516665
4.775140875306468 7.233673584120795 1.7384770264578158
4.775140875306468 1.3061993174075757 9.588862556642658
4.775140875306468 1.920587311676435 3.5809997051613727
4.775140875306468 9.068566734581587 5.6085652792442
4.775140875306468 4.716547369873576 1.7337801545560843
4.775140875306468 9.585564610404877 2.3203474863267055
4.775140875306468 1.5606016842568493 1.5826513831255267
4.775140875306468 1.116660730077662 3.0572150733031154
4.775140875306468 2.4403493422312486 8.921970541294215
4.775140875306468 8.620179151701468 7.352060889797455
4.775140875306468 8.854152121019986 9.416564413147286
4.775140875306468 3.8758745833328323 4.907472502520706
4.775140875306468 4.9320536493269485 1.2670640849260044
4.775140875306468 5.447443407169334 4.197551902981993
4.775140875306468 0.48355417328334244 8.810467631747311
4.775140875306468 8.830791333435062 2.5401748817030363
4.775140875306468 7.820389762485453 0.5729477321904966
4.775140875306468 7.890904258422385 7.352438289394735
4.775140875306468 5.080670005760737 8.842162766098484
4.775140875306468 9.21375778244876 1.136244835768713
4.775140875306468 8.988786722445647 5.657139169537585
4.775140875306468 1.9667248540970583 9.111123557896558
4.775140875306468 2.4897344892504627 1.754344462792692
4.775140875306468 1.7461866980096776 1.2908210402193254
4.775140875306468 8.793204235534184 2.607718107240276
4.775140875306468 8.740960811417963 7.4417954603119645
4.775140875306468 4.60500958831988 4.943811271284782
4.775140875306468 8.250060959362322 4.65817913478769
4.775140875306468 7.7477010110778455 3.882364418695847
4.775140875306468 3.192431456539772 7.970730784300159
4.775140875306468 6.813890449827222 0.37847009541217347
4.775140875306468 9.79491110201922 2.3031897844294282
4.775140875306468 8.567451196575204 8.419578987039735
4.775140875306468 2.7131599901765457 0.5813183732752703
4.775140875306468 1.6609021809086533 3.6349012297303847
4.775140875306468 8.03340096900466 6.1348629263215155
4.775140875306468 3.259329653652619 2.3914453050152757
4.775140875306468 6.388108998118894 7.511475761028833
4.775140875306468 7.095437296745523 8.033483050034956
4.775140875306468 0.21931144802932856 6.348710387101046
4.775140875306468 6.130756124525581 2.2786099491409733
4.775140875306468 8.823042006366066 6.290303628307179
4.775140875306468 0.10252201134784303 5.67500292693569
4.775140875306468 7.728544927229395 6.412136741748109
4.775140875306468 4.54987514761103 3.2845119158610707
4.775140875306468 3.205512879672835 2.3597679854745834
4.775140875306468 1.977223900360761 5.361437445933389
4.775140875306468 1.2484779341946486 5.9619529001180105
4.775140875306468 7.48776084845144 4.28900661988679
4.775140875306468 3.0998355517620566 1.256929789633907
4.775140875306468 4.921552572852555 2.1644149725635877
4.775140875306468 6.68737211079078 7.542978808563948
4.775140875306468 9.304151468204429 8.133898151621556
4.775140875306468 4.552775968819173 8.794587498318739
4.775140875306468 8.14777968638411 8.872907490276402
4.775140875306468 8.060659269358423 7.396438827156216
4.775140875306468 7.830185116552054 8.92030710506889
4.775140875306468 1.6650533003178982 5.497145015429353
4.775140875306468 8.713921188101576 9.314530095427845
4.775140875306468 6.654509680697007 3.7391388931753964
4.775140875306468 2.0070286720808497 8.115932778283963
4.775140875306468 1.3945996666624056 3.212340945351336
4.775140875306468 8.14917734276644 8.87322561515313
4.775140875306468 3.060836533259029 0.6562046932270039
4.775140875306468 6.984764224137471 9.218993003309539
4.775140875306468 5.831476127933435 7.530026521524311
4.775140875306468 3.8838152008209437 3.2885784434036562
4.775140875306468 9.341979372964003 9.41374506172674
4.775140875306468 8.789146986301864 2.9710802988009757
4.775140875306468 1.4747701034310916 1.1479599852093616
4.775140875306468 3.9976199213521064 7.232905404999323
4.775140875306468 5.648483906557953 4.233809706817459
4.775140875306468 8.382623075865798 9.465161141477001
4.775140875306468 6.866046835775904 3.7490041231258244
4.775140875306468 9.636761980495029 3.473555929767341
4.775140875306468 9.851502385402629 4.288404571558873
4.775140875306468 2.2793414150190334 5.648549546575294
4.775140875306468 7.354384003247975 8.970740567612808
4.775140875306468 1.851037519398677 2.78331420571503
4.775140875306468 9.484066050510203 8.21436509360687
4.775140875306468 7.8370034498539844 0.9317821829249758
4.775140875306468 6.32320734865557 5.548788883629053
4.775140875306468 7.810331986838849 9.234311304093826
4.775140875306468 3.1974664455683595 8.911468693516953
4.775140875306468 0.939316110934284 6.312864579697376
4.775140875306468 6.200985409594656 3.3350791880007344
4.775140875306468 1.0954761195306457 8.651889486215163
4.775140875306468 5.250391337480909 5.887286805738083
4.775140875306468 3.225500960099619 6.655038266366354
4.775140875306468 1.8447841151975812 2.209635496146014
4.775140875306468 0.44234284169414767 7.550622370548678
4.775140875306468 1.727163983604552 1.3206409890123934
4.775140875306468 6.547420186474603 8.466321658963626
4.775140875306468 5.376837222563747 6.387141649133285
4.775140875306468 4.398101328725952 2.675220506771471
4.775140875306468 2.0376767621736276 6.797214247198917
4.775140875306468 4.45063738835949 2.216063295353132
4.775140875306468 3.1661906085267764 3.1074864640616435
4.775140875306468 5.95657302177973 2.155325110729844
4.775140875306468 0.25381060215368206 9.553577381154184
4.775140875306468 3.4260008154096706 6.599131086595381
4.775140875306468 8.124371297301394 2.9876287893978026
4.775140875306468 7.9177148678701945 8.839282918249847
4.775140875306468 4.535763175393316 6.793743016109308
4.775140875306468 0.5136515795083647 9.766654337893542
4.775140875306468 8.01293399495705 6.060460532648339
4.775140875306468 7.773189697308317 2.7069468387098
4.775140875306468 4.545470029504117 8.31974488490987
4.775140875306468 4.527988112846379 6.4928470314469795
4.775140875306468 6.842907085466532 2.1883695639408716
4.775140875306468 7.746468099189755 3.8835739500078232
4.775140875306468 1.8764672760078795 3.6175623570308892
4.775140875306468 5.122099087912906 1.5002201484742317
4.775140875306468 2.2942194738496364 9.418573682925139
4.775140875306468 7.162610217555596 7.870216399957717
4.775140875306468 1.0020271520520492 4.74903279054039
4.775140875306468 3.4362427049021647 9.38103387408726
4.775140875306468 4.519152596812571 2.229666459898216
4.775140875306468 3.1594472623108723 4.883209725216586
4.775140875306468 7.345988012073783 1.8031373673704971
4.775140875306468 7.031113038416719 8.650379791848822
4.775140875306468 5.862206071137049 0.7985794265442447
4.775140875306468 7.125648557763144 5.364346409356215
4.775140875306468 0.47831811471280683 3.1849184666208674
4.775140875306468 1.8219497148373993 0.5429501195793859
4.775140875306468 2.878310733155363 6.552329616681799
4.775140875306468 9.4065866287168 6.565640147011925
4.775140875306468 9.328363638016237 4.616967693121377
4.775140875306468 7.586473178456098 1.7288912325135666
4.775140875306468 7.572945928284762 1.2172756823457171
4.775140875306468 0.9376576660904636 8.617695411871042
4.775140875306468 4.100418326070665 1.1786211126511659
4.775140875306468 0.8377071984888975 7.4337626253933085
4.775140875306468 9.877500561516447 3.9480478572388
4.775140875306468 5.750769250002368 4.953299989583713
4.775140875306468 2.9817115429473993 3.5711972758653454
4.775140875306468 5.821188622379255 7.57325454375019
4.775140875306468 2.3014069446712595 8.19826103509479
4.775140875306468 0.9662140338307297 1.8189463162148265
4.775140875306468 8.085273154558358 3.375794267763479
4.775140875306468 2.8300636325780895 7.82774291775044
4.775140875306468 6.338347787932207 2.418322239195398
4.775140875306468 6.889674644431126 5.533526618941405
4.775140875306468 9.306036130430734 5.4523933589743905
4.775140875306468 7.749209439687889 1.1771924839400576
4.775140875306468 1.5391639109457342 3.5489142934638513
4.775140875306468 0.6035672209273564 6.862608162887104
4.775140875306468 7.175922768207081 8.966346289565575
4.775140875306468 4.714143507133526 3.440376049048325
4.775140875306468 8.074611627452946 2.927584548778578
4.775140875306468 8.53770067540141 2.8483293953134936
4.775140875306468 2.979302028858487 3.63265510872607
4.775140875306468 6.853413185301495 5.5580554932278785
4.775140875306468 0.9003638384133648 2.991458452249703
4.775140875306468 5.784037105972752 6.55378251923498
4.775140875306468 0.8537195655052292 2.0915407682717873
4.775140875306468 2.4636115132329985 2.0106631622898603
4.775140875306468 8.836780002827895 5.9860960211626635
4.775140875306468 5.95471895148877 0.3905550081153954
4.775140875306468 1.8130523114719617 3.145783834480684
4.775140875306468 3.0364975916545207 0.6734310308011582
4.775140875306468 0.17004997435217267 6.0071620892948525
4.775140875306468 4.19371057837559 3.962991047805493
4.775140875306468 7.155253978020967 4.67090786174659
4.775140875306468 8.341534039996978 9.581190716065088
4.775140875306468 2.2460422873919565 3.141610903113414
4.775140875306468 0.7546996623415012 8.586351115969821
4.775140875306468 4.400034392760784 8.549251444759035
4.775140875306468 2.3576747253199435 9.826613774188763
4.775140875306468 1.855613648742884 8.0724365781986
4.775140875306468 4.711505206736772 6.886727973637249
4.775140875306468 1.7456358349231844 1.288946108236242
4.775140875306468 5.820537075593754 8.201886746466997
4.775140875306468 6.84920460564212 4.031503602548837
4.775140875306468 3.996471212474263 9.486630055507224
4.775140875306468 2.0266333408391226 0.6713461388944089
4.775140875306468 5.4387024856436215 2.579354709880609
4.775140875306468 1.39060583659771 8.852425597653177
4.775140875306468 6.564317873471358 2.4406490171466806
4.775140875306468 0.6228525846697643 5.152154982276406
4.775140875306468 3.036380038968623 0.6827493023921533
4.775140875306468 4.26858735131007 2.094005499699655
4.775140875306468 5.021642228343827 5.900369847175897
4.775140875306468 3.859537579187465 0.6709638621070961
4.775140875306468 9.051909356612136 7.4417720546083235
4.775140875306468 5.117063332428289 8.738004430323484
4.775140875306468 6.773040753881744 6.880403472916578
4.775140875306468 3.060329358191627 1.1696315056880593
4.775140875306468 0.81844490830375 9.84413797145402
4.775140875306468 5.712087240462288 3.0081910964313416
4.775140875306468 1.9776957871135037 4.660324710131496
4.775140875306468 4.527182731389692 6.7564484773183
4.775140875306468 3.4718133510691715 1.3320139725704154
4.775140875306468 7.246646497460932 1.7676395836684684
4.775140875306468 2.587818278959265 6.354636277854543
4.775140875306468 3.3268918570814674 1.2740815470786777
4.775140875306468 0.6777528393329569 5.146565608950778
4.775140875306468 0.3429132832105928 6.405052769118591
4.775140875306468 5.190134024659236 4.351817273420979
4.775140875306468 8.437893006272292 9.013181477249328
4.775140875306468 1.0577755602534125 4.562193603633991
4.775140875306468 3.069868788354311 0.6919113729115829
4.775140875306468 7.908151176441878 4.422016929814486
4.775140875306468 0.7809598346720145 4.202891864169654
4.775140875306468 0.41098302750601967 3.439347105845423
4.775140875306468 0.9153335149222086 7.4996807258437865
4.775140875306468 6.362230023118334 9.358978232536106
4.775140875306468 7.61440517776451 2.0218852992404948
4.775140875306468 3.519060109890342 3.1206055630230614
4.775140875306468 6.660626086315028 2.4303095573837172
4.775140875306468 3.2356385054996655 1.0404461038044077
4.775140875306468 0.2148187947401397 9.025717267844408
4.775140875306468 1.6478710675223156 2.025817234811318
4.775140875306468 9.522172910478863 6.7986960086031925
4.775140875306468 3.6195462146382265 3.167355423638129
4.775140875306468 9.572589261410682 7.564144269874022
4.775140875306468 6.931726043992148 2.072290645048162
4.775140875306468 8.1271137875393 2.9660218450275173
4.775140875306468 2.1912152182491207 3.2061294293753315
4.775140875306468 0.4755552227895261 6.472388494806414
4.775140875306468 8.446655621625869 5.995510161024492
4.775140875306468 0.6911991495235901 7.3370508701817
4.775140875306468 1.8163938547834286 9.108704254211789
4.775140875306468 7.1385509998647825 1.4843361887617588
4.775140875306468 2.671580321832597 7.941186438093844
4.775140875306468 5.3397478166695045 6.237072337067835
4.775140875306468 5.342758032263752 7.473560397657919
4.775140875306468 3.895533591606568 6.958813378399626
4.775140875306468 2.7916600241123777 3.1927816714688637
4.775140875306468 3.3163486194682386 0.37198579069840576
4.775140875306468 0.9852227211314947 9.803879799891412
4.775140875306468 2.609537201320874 3.1539371337841886
4.775140875306468 5.870926392283791 5.314998414584058
4.775140875306468 9.445467336949408 9.305228119469346
4.775140875306468 3.0473621107417577 1.251869035528236
4.775140875306468 1.5200495382162647 9.115261562666984
4.775140875306468 7.7450087353596215 3.882943310355832
4.775140875306468 1.4219833233163963 3.9352131346822694
4.775140875306468 6.958117500605758 6.52040013624701
4.775140875306468 7.546492739436615 1.9620676005577573
4.775140875306468 5.282245339905345 7.468179349178398
4.775140875306468 7.7808956300905425 9.105329303756722
4.775140875306468 1.2173236050657679 5.475717410808987
4.775140875306468 6.935396238735546 7.70306441675238
4.775140875306468 9.516885827647767 1.247473483711844
4.775140875306468 7.830250767775183 9.340659469745074
4.775140875306468 4.4899425636269825 6.985551934748133
4.775140875306468 1.6450998019241077 7.370050203333029
4.775140875306468 0.7103147208116566 8.341449980307535
4.775140875306468 8.871526564594095 3.6359027691288333
4.775140875306468 1.720064773257099 7.726486845302443
4.775140875306468 5.2077389507749166 3.417000182318031
4.775140875306468 7.273378871438159 0.15489357317490426
4.775140875306468 9.876504461921568 1.431972742004657
4.775140875306468 4.154410968573679 5.509504810812521
4.775140875306468 7.135923170838243 4.998789902106339
4.775140875306468 7.890737701096868 5.64797654341757
4.775140875306468 8.848101367061192 3.0403904566820015
4.775140875306468 0.3181248418058841 5.371200355672321
4.775140875306468 8.495935040709433 9.151492499895443
4.775140875306468 4.6451889224336895 7.6487322601385825
4.775140875306468 4.425900444122547 3.187378632145715
4.775140875306468 8.275217292181303 4.598492897934211
4.775140875306468 3.0429005261473603 0.6689108402173952
4.775140875306468 0.8723188664784846 1.3778152956526313
4.775140875306468 0.6303838031193463 7.300278646748597
4.775140875306468 1.9608215615489244 5.412313917699425
4.775140875306468 7.864336702345262 9.56120677819752
4.775140875306468 8.579582210694245 6.7412487133675585
4.775140875306468 1.4326346765132294 3.0668546334862206
4.775140875306468 6.630829770853334 5.717289017495207
4.775140875306468 1.1358872850834 4.36066055218624
4.775140875306468 6.910098482425473 1.0296673708048716
4.775140875306468 6.043964258097903 1.7877432418575685
4.775140875306468 5.992282912115436 2.1449755368533236
4.775140875306468 7.924267567877907 1.6361821263286713
4.775140875306468 0.7467106851806729 4.1770520616486175
4.775140875306468 6.3113237043949795 6.9678416409702635
4.775140875306468 3.308861046319524 9.116328061202935
4.775140875306468 3.0451842208132693 6.700499049506099
4.775140875306468 0.7050523104519218 2.500237350073813
4.775140875306468 9.476109741004779 7.063082110103374
4.775140875306468 6.946467007962296 6.6220589913783705
4.775140875306468 5.600878348065687 2.284512954382606
4.775140875306468 3.749706402061592 5.7319395611175015
4.775140875306468 9.9444926858989 4.076901698218019
4.775140875306468 6.633272072219423 5.7952411209973445
4.775140875306468 5.740100666913663 4.973082132919538
4.775140875306468 8.88945316111777 7.929541082778865
4.775140875306468 3.768374181396885 5.723643732892483
4.775140875306468 6.125542117996491 2.9091022031366363
4.775140875306468 0.5700742580989334 6.515434012823431
4.775140875306468 6.2036397095681295 2.4997001561566266
4.775140875306468 7.821716373393182 7.925035185315214
4.775140875306468 0.8839404491661135 5.128732189115439
4.775140875306468 2.7998482150609445 7.5700688472775255
4.775140875306468 5.203784527770622 8.485448144229851
4.775140875306468 1.8086300188341218 6.858921368198153
4.775140875306468 4.824672130221907 7.433686120923696
4.775140875306468 0.20346759394427222 9.512758432945326
4.775140875306468 3.9156172142829533 3.4851413883546
4.775140875306468 3.2796248384890796 2.7830405889037415
4.775140875306468 6.458222711128645 1.3666969834098375
4.775140875306468 6.181276191618385 9.236592910617222
4.775140875306468 2.182260012809653 6.550253425009432
4.775140875306468 2.5048342260549443 1.9481440135016548
4.775140875306468 1.2405277564746464 1.0281586604930513
4.775140875306468 3.3714413325901025 8.596625927929248
4.775140875306468 6.042346591474625 9.148444432326247
4.775140875306468 5.135468425267222 2.1593790254585787
4.775140875306468 5.012935938955309 8.349563945973053
4.775140875306468 4.508041302337345 6.794571030815975
4.775140875306468 6.899778006551909 7.6764119056156455
4.775140875306468 5.962032255353211 1.3434021520001793
4.775140875306468 3.732412923992883 6.832528139678458
4.775140875306468 3.188695243564118 4.201377346056079
4.775140875306468 7.006391563528429 3.6470929671138164
4.775140875306468 4.330215565528043 3.967641788870474
4.775140875306468 2.176311129722154 3.05057916400419
4.775140875306468 2.677965096043042 4.047467091054071
4.775140875306468 6.937996494879393 8.442794011628951
4.775140875306468 4.803439922684221 1.3352399507932182
4.775140875306468 5.878623325584789 0.7249078544267766
4.775140875306468 4.312496033963911 3.0792879281045082
4.775140875306468 2.317497191727667 5.681004351841216
4.775140875306468 2.7342494597291256 5.2056576285300915
4.775140875306468 7.686124659357147 1.9515061022454754
4.775140875306468 2.13931805596783 4.306575925370336
4.775140875306468 6.478519782014687 0.18897522069322126
4.775140875306468 7.9146612654560995 0.6856963315472335
4.775140875306468 2.07724146489987 1.499629813362291
4.775140875306468 2.786845084913056 7.4819253364322424
4.775140875306468 1.7669346717309762 7.071076973406238
4.775140875306468 7.155411461306697 4.670577536538221
4.775140875306468 7.613244274685532 2.333851564669607
4.775140875306468 8.413565446224698 9.346627298547997
4.775140875306468 5.389750019213598 3.1406035050924297
4.775140875306468 9.132606404736336 6.387843457265977
4.775140875306468 8.447440804311947 7.2195694784700795
4.775140875306468 8.902844007545031 2.231879363849592
4.775140875306468 0.6572932263507186 9.887284776085682
4.775140875306468 2.734099468225837 5.213395264907146
4.775140875306468 2.0635948059821176 3.867475699624907
4.775140875306468 4.970273735629289 1.2871648582828006
4.775140875306468 7.94987714473559 7.423866442803503
4.775140875306468 7.069701986564847 0.2423904463616866
4.775140875306468 8.198170786425258 6.033626789365737
4.775140875306468 3.1886995301527175 9.862905058192762
4.775140875306468 7.5939815171622636 0.3246099760143662
4.775140875306468 4.850737020415206 7.397928190941296
4.775140875306468 3.2935096967645037 2.3648035046758626
4.775140875306468 3.1254236379863767 3.1366533285563754
4.775140875306468 8.788352466161529 1.6206756072649255
4.775140875306468 5.394586629168728 2.322763353678894
4.775140875306468 2.274258946399162 9.111229794142822
4.775140875306468 1.567487561300026 4.518270751114829
4.775140875306468 5.1170124633053105 1.3683754219971704
4.775140875306468 6.093385987271608 8.789452334866425
4.775140875306468 5.957290343243377 8.339919029048778
4.775140875306468 2.4956006024699238 8.064676317589084
4.775140875306468 1.1361064615385779 1.071154418901582
4.775140875306468 0.5355510880090357 1.1616648853077471
4.775140875306468 4.668507793556183 8.122214579813193
4.775140875306468 7.74655771826189 3.8870009193658848
4.775140875306468 0.21404903296339453 9.074696554442808
4.775140875306468 3.4721975525954605 8.4038998525972
4.775140875306468 3.418808027476213 8.243792018803134
4.775140875306468 6.405503093326642 7.009266413296234
4.775140875306468 7.990104778289271 5.567677290663161
4.775140875306468 5.549679812159851 4.983508363823338
4.775140875306468 2.379789668846119 8.604610438138108
4.775140875306468 2.752375586222357 5.3752133721981465
4.775140875306468 4.598209401738531 4.9475779385802205
4.775140875306468 6.8142251717389914 4.440210501187798
4.775140875306468 2.7627587106128315 1.4815976252042105
4.775140875306468 9.363901681412065 2.344071645669516
4.775140875306468 7.923735272909975 1.636653430072962
4.775140875306468 6.88822584381985 0.8406438363034904
4.775140875306468 6.334296821763335 6.4763090187725725
4.775140875306468 6.921466151742245 4.5137408897034295
4.775140875306468 7.736174354921879 6.403803572395176
4.775140875306468 6.670779834161884 9.486345156694355
4.775140875306468 4.985976662494187 4.28822355367177
4.775140875306468 9.547600500324329 6.6594771945155165
4.775140875306468 3.702261854944374 4.291147575416038
4.775140875306468 7.291507914954793 5.422659406663822
4.775140875306468 7.930417876615031 7.427662361688033
4.775140875306468 3.5435882358163586 4.452114743954704
4.775140875306468 5.90929114854771 7.839855652379958
4.775140875306468 9.653279429817372 4.489187298541676
4.775140875306468 4.881535613085139 8.274564894871741
4.775140875306468 8.716941727921693 1.79780229247162
4.775140875306468 5.1543208545479695 8.639097605952074
4.775140875306468 9.024954252258377 4.456662271662535
4.775140875306468 0.20318553069606365 9.49849770460205
4.775140875306468 2.3623365525444946 9.017234990541157
4.775140875306468 6.056893466798582 7.127692675926194
4.775140875306468 2.976451681353194 7.88800046921632
4.775140875306468 0.45714501305429317 9.717474304603176
4.775140875306468 7.113218636972362 3.2126766368090967
4.775140875306468 3.8991436182133397 1.9863532011162761
4.775140875306468 0.2721080033892734 5.43504896820026
4.775140875306468 4.647238776962461 3.6488038675026897
4.775140875306468 6.830663898162893 2.561384839603973
4.775140875306468 5.461721505454703 2.7498344321271535
4.775140875306468 8.828246287532599 7.499075258665441
4.775140875306468 8.858324353955062 7.751529681326539
4.775140875306468 7.929582884977687 1.6369023373281635
4.775140875306468 1.5944355329486564 3.641415269717818
4.775140875306468 1.8787141334379636 6.905871637034845
4.775140875306468 4.189061454136697 5.181636136300727
4.775140875306468 6.77872056175228 1.2723062698931988
4.775140875306468 6.120061948282576 8.700009113415838
4.775140875306468 0.8364941414831479 7.59073419780986
4.775140875306468 4.342948313600425 5.691351508126936
4.775140875306468 3.2381504418468756 4.83118635764568
4.775140875306468 4.401346311367907 5.7473233133752855
4.775140875306468 9.728571951055152 8.915377935685767
4.775140875306468 9.309738171767584 5.14331108860739
4.775140875306468 6.0543306596952675 1.7254891228486036
4.775140875306468 2.101821439673327 3.927430048407705
4.775140875306468 3.9757470367941807 7.020876012299371
4.775140875306468 5.493569828843694 3.0001181424269063
4.775140875306468 6.052107811833999 9.029277944422622
4.775140875306468 0.5889843193122898 6.749293018250599
4.775140875306468 1.8989093097639165 2.7286311152327647
4.775140875306468 4.6884325745181945 8.85473856816218
4.775140875306468 3.4899897699321434 5.873181180763383
4.775140875306468 8.016372538924648 6.111974523209799
4.775140875306468 1.0095600135829959 5.259785832599482
4.775140875306468 8.251695059789395 5.04214814587036
4.775140875306468 9.703593852631391 3.609786632321921
4.775140875306468 7.801774600206622 1.307802416515963
4.775140875306468 1.7250713704537854 1.2766557266651057
4.775140875306468 2.3475444483933985 5.962831698306678
4.775140875306468 0.6319762348588931 7.819919575755167
4.775140875306468 4.1731427241595975 5.332528860625061
4.775140875306468 4.898717021806311 1.2856926650386682
4.775140875306468 4.334695276771344 9.243263391284934
4.775140875306468 8.2429353348727 8.358417227128593
4.775140875306468 7.189926669616962 1.8263124878399886
4.775140875306468 5.293031500518755 6.061778751798804
4.775140875306468 7.064487699339632 3.591357069782779
4.775140875306468 2.367790074028684 8.557183233604004
4.775140875306468 7.041830621959503 2.7259498724821842
4.775140875306468 6.35194066896118 2.51500039327459
4.775140875306468 8.332050046893968 8.37522544465668
4.775140875306468 6.290561210417759 3.747012983505498
4.775140875306468 6.265831334111364 2.601184080642418
4.775140875306468 2.529775158138397 7.066400286832808
4.775140875306468 1.2341882692092845 9.73593718389092
4.775140875306468 9.307638460631424 7.376981543414031
4.775140875306468 3.2942208455565765 3.0153168040241933
4.775140875306468 1.379092269145306 4.043094497112008
4.775140875306468 1.971805376395613 3.476575675724444
4.775140875306468 6.990379442638831 6.5624818923927135
4.775140875306468 1.2885434766480997 7.475162501573364
4.775140875306468 2.5264664161628296 4.079969355540539
4.775140875306468 4.602322145677662 4.945178093556702
4.775140875306468 8.397399976036775 8.915835892608856
4.775140875306468 4.834378178547585 7.347178523989976
4.775140875306468 0.15809282194418914 5.964169280885914
4.775140875306468 0.44890595461166805 7.648054312603052
4.775140875306468 1.4252349278964296 1.1219511550730261
4.775140875306468 8.67240362950572 6.405521709253963
4.775140875306468 6.934525671080227 1.2249622951816002
4.775140875306468 7.2448455512946115 2.758173487412452
4.775140875306468 5.9515372601473615 4.487772837318979
4.775140875306468 1.8493414766893854 0.5593796788827164
4.775140875306468 8.060320818612315 3.576899738450158
4.775140875306468 2.785313693140687 2.139576824890576
4.775140875306468 2.027996531600577 4.783842809932548
4.775140875306468 3.642596872605556 1.6608980969418699
4.775140875306468 8.86432214893542 6.183006006262304
4.775140875306468 0.45227669985391783 5.168197557195706
4.775140875306468 6.298297216796529 3.6364202154354635
4.775140875306468 6.5474745804902 7.426054542388645
4.775140875306468 5.103770422076449 1.9581959894628975
4.775140875306468 2.3890720725999666 1.6604915206129927
4.775140875306468 7.482085693372114 2.643008220931008
4.775140875306468 2.6912285631325803 9.837732445722313
4.775140875306468 7.135255653113513 5.212696572774493
4.775140875306468 3.458370630519011 6.252829792947198
4.775140875306468 6.60323697279224 0.25609249345401497
4.775140875306468 8.744194602131548 4.207236218484887
4.775140875306468 2.7523580644700987 5.395638616571664
4.775140875306468 3.580944316581489 7.825760603870457
4.775140875306468 3.276215025931959 2.7088235037608053
4.775140875306468 0.17924587522826732 6.064249389052498
4.775140875306468 1.8831766421146776 0.9690518215003479
4.775140875306468 2.3304666629690045 9.627348768249137
4.775140875306468 5.954168656815897 3.0190132669493215
4.775140875306468 7.155273248490205 4.670636587346155
4.775140875306468 7.1497390903952835 2.804770010278832
4.775140875306468 4.795087002224772 5.91591681109542
4.775140875306468 2.935052369314775 4.005947959467075
4.775140875306468 2.358961113043494 5.648386602787513
4.775140875306468 2.2913223988398923 6.38172569934862
4.775140875306468 5.416606789518372 1.279637704584345
4.775140875306468 3.54488794902588 4.539414530552052
4.775140875306468 8.694345259541883 1.740029254823299
4.775140875306468 9.087833913123351 2.33446467325738
4.775140875306468 6.576582310634477 7.097166854947702
4.775140875306468 6.610037908387793 6.145894537793182
4.775140875306468 2.1521754115737535 8.157325348050787
4.775140875306468 1.852046481389206 6.80891112973217
4.775140875306468 5.218347785908258 6.507799314946822
4.775140875306468 1.0664620043416988 1.8094936679879947
4.775140875306468 0.9164682831426311 1.3136783350565795
4.775140875306468 7.413134796777994 0.10040779045211273
4.775140875306468 7.267481838866215 1.7746244973302328
4.775140875306468 4.3946981989912866 2.6906841151842698
4.775140875306468 9.310427885383618 5.012845841981219
4.775140875306468 0.9819775989103047 4.806867048094766
4.775140875306468 5.215336550668218 3.416198003582925
4.775140875306468 5.278600029535987 9.084775014168141
4.775140875306468 1.7662039655127988 7.8335295511021465
4.775140875306468 5.770569541336708 1.175474986937852
4.775140875306468 4.714679782190795 6.9227604662045845
4.775140875306468 8.851060973551684 5.790164296184342
4.775140875306468 3.477822507332259 9.463771767555594
POLYGONS 99 1787
10 243 290 92 386 11 737 273 485 177 414
21 126 833 20 31 598 56 89 121 71 423 780 482 634 424 246 219 738 95 476 217 742
15 336 639 797 641 389 158 623 447 632 702 525 753 771 538 840
6 58 131 852 64 169 200
17 456 711 47 233 234 166 172 253 835 340 309 715 714 104 250 516 141
16 262 270 225 392 729 287 384 258 284 617 134 687 404 693 735 366
18 134 617 284 813 390 110 686 475 732 562 630 256 800 533 754 374 358 223
23 565 789 542 349 572 148 186 814 760 144 651 86 768 622 314 623 158 389 490 182 527 558 458
13 243 290 92 386 57 129 825 44 851 716 626 202 745
17 474 628 437 24 449 831 315 776 138 181 834 120 845 673 783 317 543
20 140 237 856 487 4 286 613 857 159 709 655 812 418 782 33 520 372 440 76 355
21 409 518 865 599 238 596 681 758 82 97 444 12 798 281 680 644 489 573 708 486 853
19 601 858 697 365 678 338 429 493 478 98 148 186 814 621 726 197 379 153 694
19 495 614 570 481 554 805 26 238 596 681 646 105 201 337 183 433 333 640 773
15 98 148 572 349 542 859 468 477 245 725 624 162 781 493 478
22 239 295 221 198 151 304 282 547 125 346 22 420 139 78 334 816 190 244 483 636 87 718
12 160 614 570 481 554 762 43 784 306 811 305 439
20 47 233 609 647 698 589 575 111 177 485 273 737 55 521 52 311 645 659 739 711
20 34 376 779 193 278 168 271 369 352 276 492 767 861 298 476 217 742 126 188 611
6 245 477 468 588 556 675
20 25 676 213 539 820 100 67 65 674 467 764 327 848 228 736 292 664 844 668 806
6 681 758 82 854 105 646
18 382 509 529 536 583 723 59 319 827 679 372 520 33 838 524 39 294 154
10 159 857 613 286 207 323 710 75 209 247
16 76 440 372 679 827 319 371 654 88 505 113 32 438 561 140 355
18 489 573 708 486 792 719 357 301 83 432 170 656 714 715 309 340 378 746
17 56 89 84 606 417 277 499 326 566 450 488 818 196 117 236 31 598
15 190 816 334 78 203 796 264 3 408 422 522 128 722 297 176
20 11 386 57 129 400 661 592 463 387 116 669 441 30 344 102 77 707 521 55 737
15 673 845 120 834 720 690 674 65 67 100 18 395 615 345 425
17 668 806 25 769 691 124 351 803 567 514 580 577 171 484 500 199 844
21 449 831 315 776 633 638 331 603 763 765 230 127 457 540 204 660 165 770 576 663 216
20 59 319 371 654 88 289 819 394 385 699 308 37 195 821 269 541 544 398 583 723
23 262 270 225 257 94 804 631 535 851 44 825 129 400 661 592 463 279 175 60 285 1 735 366
21 171 577 580 514 667 178 774 174 32 113 505 88 289 819 394 385 836 650 801 446 700
18 86 768 622 314 623 447 632 702 106 658 826 461 705 847 163 866 80 662
22 525 702 106 658 399 54 466 40 443 330 860 672 610 393 497 224 600 863 274 685 771 753
18 518 865 599 238 26 805 554 762 43 784 79 597 515 479 435 210 108 9
13 351 803 114 508 63 618 231 410 494 757 383 460 124
19 706 772 657 7 50 10 133 864 367 534 741 645 311 52 521 707 77 102 761
21 650 801 557 563 415 248 164 672 860 330 443 40 445 530 335 749 37 308 699 385 836
20 488 818 61 377 459 585 115 187 791 748 135 842 815 828 339 45 455 498 566 450
20 126 833 20 31 236 117 196 818 61 377 459 324 712 214 551 74 13 34 611 188
15 282 547 125 346 362 38 863 600 224 497 751 299 85 321 731
14 258 284 813 390 110 822 506 145 569 695 454 777 287 384
13 256 800 533 754 755 637 155 260 401 266 28 564 342
17 409 518 9 108 210 526 21 584 571 370 703 744 357 719 792 486 853
19 116 669 469 62 496 426 325 152 405 451 293 157 36 642 60 175 279 463 387
23 172 253 835 340 378 746 489 644 680 281 130 53 628 437 24 449 216 663 576 770 136 419 123
21 673 783 317 846 653 444 97 82 854 105 201 337 183 396 268 218 72 406 615 345 425
14 361 786 670 23 0 353 54 399 658 826 461 705 81 692
21 239 295 221 198 375 807 721 759 785 69 603 763 765 230 843 531 436 8 259 99 14
22 131 852 64 635 619 430 261 255 48 581 316 259 8 436 790 574 442 35 503 149 192 727
20 336 639 797 794 182 527 558 752 793 842 135 748 791 665 422 408 3 264 824 434
18 422 522 128 722 728 73 841 682 167 397 712 324 459 585 115 187 791 665
19 538 840 336 434 824 264 796 203 78 139 420 22 346 362 38 863 274 685 771
14 233 234 166 172 123 419 107 595 194 867 809 698 647 609
12 33 838 524 817 473 251 275 254 655 812 418 782
21 177 414 243 745 202 291 149 503 35 442 855 288 519 343 211 867 809 698 589 575 111
16 189 578 222 313 185 532 241 215 229 41 269 541 544 559 550 412
16 405 451 403 411 808 548 608 684 421 513 206 616 594 431 590 152
15 58 131 727 192 149 291 202 626 716 851 535 631 804 587 200
22 64 169 200 587 804 94 257 225 392 729 287 777 454 68 605 17 734 471 491 501 619 635
19 368 593 328 602 119 205 307 380 354 724 850 240 688 740 849 701 300 96 150
12 14 239 718 87 636 15 101 48 581 316 259 99
10 509 612 412 550 559 544 398 583 536 529
10 381 795 788 157 293 451 403 411 808 112
17 565 789 542 859 468 588 556 683 310 339 828 815 842 793 752 558 458
22 546 568 640 333 433 183 396 268 218 591 778 643 545 528 823 607 750 391 810 510 837 388
21 90 263 6 91 678 338 429 493 781 162 624 756 42 329 849 701 300 96 303 226 332
6 214 551 296 167 397 712
20 34 376 779 193 208 717 605 17 734 471 830 604 512 841 682 167 296 551 74 13
20 18 100 820 539 27 704 173 620 179 549 464 862 643 778 591 218 72 406 615 395
14 204 660 165 770 136 419 107 595 194 867 211 343 70 452
19 46 829 227 517 839 212 462 703 744 357 301 83 432 627 465 869 143 252 696
23 430 619 501 491 471 830 604 512 841 73 728 722 297 176 190 244 483 636 15 101 48 255 261
10 567 803 114 508 63 427 774 178 667 514
19 312 730 142 555 652 657 772 706 761 102 344 30 441 669 469 62 496 220 413
14 168 271 868 506 145 569 695 454 68 605 717 208 193 278
23 228 848 327 272 360 283 759 721 807 375 198 151 304 282 731 321 85 666 511 341 184 733 736
14 146 318 2 242 335 530 445 40 466 54 353 0 23 670
20 231 410 494 757 586 802 173 620 179 552 625 51 19 553 93 267 472 191 502 356
15 393 497 751 299 85 666 511 341 147 649 415 248 164 672 610
18 104 714 656 170 432 627 465 869 66 523 16 787 103 347 402 137 516 250
6 134 687 404 280 358 223
6 641 797 794 182 490 389
21 232 832 677 348 265 507 671 470 132 866 80 662 86 651 144 760 814 621 726 197 379
15 456 711 739 659 645 741 534 367 249 775 347 402 137 516 141
19 140 237 856 487 504 322 629 5 502 356 231 618 63 427 774 174 32 438 561
20 181 834 720 690 674 467 764 327 272 360 283 759 785 69 603 331 638 633 776 138
13 269 821 195 37 749 335 242 2 318 480 215 229 41
19 664 844 199 500 484 171 700 446 801 557 563 415 649 147 341 184 733 736 292
24 161 584 21 526 210 435 479 515 49 363 302 560 713 118 743 648 448 747 453 689 537 579 799 350
12 474 628 53 130 281 798 12 444 653 846 317 543
20 109 416 582 122 766 29 235 428 180 401 260 155 156 381 112 808 548 608 407 359
15 25 676 213 539 27 704 173 802 586 757 383 460 124 691 769
20 404 693 735 1 285 60 642 36 157 788 795 381 156 155 637 755 754 374 358 280
25 320 373 364 240 688 740 849 329 42 756 624 725 245 675 556 683 310 339 45 455 498 566 326 499 277
17 457 540 204 452 70 343 519 288 855 442 574 790 436 531 843 230 127
CELL_DATA 99
SCALARS cell_scalars double 1
LOOKUP_TABLE default
0.00039474294231833795 -0.0006616540114885439 0.0021011475146517355 0.005900714974803378 -0.00041307637823173593 -0.00044593896522115983 -0.0003002769179305531 0.001007501869698224 0.00010455118330021662 -0.0038787957126160677 -0.00046520377534964297 -0.000516641381920202 -7.197216349652535e-05 -0.00036004483847307256 -0.0012662881589120545 0.016168525085566543 -0.0001894467002134803 -0.0012846596746625139 -0.0007133638959322397 -0.0008673964915733023 0.009338743163676 -0.00014379368854378072 -0.0003837876094117121 1.5166269651700759e-05 -2.6552859094586267e-05 0.0005189938200276245 -0.0010794974181038697 0.0526647055395939 -0.0005314331831218766 0.001574016128030209 -0.0015815312537679205 0.0024151677974737495 -8.681932207643683e-05 0.00016339484944261073 0.0021036349899592466 -0.0011017404639801498 0.0010163299152416982 0.00017617811993275723 -0.001421718346579226 -0.0002108689247819484 -0.001119559586926222 0.002274379386112635 -0.0019213384085894347 0.04999151212758424 0.00020549713173778628 -0.0005531203185249467 -0.00016366054683736309 -7.545458295776797e-05 0.0013089062898758996 -0.0007810113635526861 0.00013699496291685875 0.027059114145517427 -6.125199406614712e-05 -0.002628221596086888 0.002421423934169553 0.0669521947092857 0.0006398076976275036 -0.0001897587895456354 -0.002187387265273344 9.501160743141668e-05 -0.00012485940316597777 -0.000596077999809097 0.004840814842701491 -0.00026532172605708837 0.021958734073992403 -0.0003077859852238518 -3.0435730592692778e-05 -0.0012429753286165024 -0.000571283094672026 0.00012571169198594134 0.0026632482236381705 5.737470408995193e-05 -0.0004703165512207619 -0.0008686624220555217 -0.00025480575232084135 0.023762802655985737 -0.00016363675804331734 -0.00029272876871111464 0.0009874823261446508 0.05693748404288623 0.00016514594913186187 -0.001204667780995372 -0.0006038541072221904 -0.0004574022456003135 -0.0004067561211194004 -0.0027141056830011223 -0.00027938528234816573 -0.00027136239154401665 -0.0003297347236204118 -0.00015796122384603706 0.0001862350304682181 0.0006996036372362013 0.00013542255030607464 -0.0011056268989007023 9.939611255660452e-05 -0.00025124682340571525 0.0005802710859033056 0.0011623633311694803 -6.652908436866056e-05