# vtk DataFile Version 2.0
Really cool data
ASCII
DATASET POLYDATA
POINTS 1137 float
5.49817568979171 7.05158104058412 9.07508981287784
4.55062051438006 7.54505895067598 0.24234519632506
4.84464643778337 7.37851104121289 0.06066775816225
5.04314668476599 6.8791926125933 0.12025495185274
4.6345349085424 0.30134143770257 1.24585945811405
4.03080672544639 9.40767189751743 1.56309827382006
4.20156379948774 9.84839685428021 1.68442799761121
4.91020425114627 6.15521558276084 7.15520904998048
5.30568709028276 6.00480806016873 7.03415672598415
5.75468930090155 4.76531408092954 6.7600951647132
4.2562237693523 9.84872212302028 4.32968759371683
3.984243075415 9.05655374237273 3.66884362145878
5.13244116442403 6.07807609174875 3.37421478151116
5.309754437274 5.10938230477645 2.56478088478775
4.58108522833012 6.36134425872024 6.61309983693357
4.23485015735213 6.90343952591919 6.96546878386915
4.81592521589217 6.65343741343487 6.16848521481341
4.72507894930279 6.64866084918077 5.75806296620623
4.42536477841525 6.33129642534309 5.57316974360769
4.46620815686418 6.99797793415549 5.55595893493198
4.24561344320009 6.17378744336692 6.54068909222936
4.61496876977113 4.62761417579764 7.91033793233926
4.85312782826954 4.57618758869209 7.66234404774102
4.80702939211296 4.00662087853263 7.46272677338485
4.31625738678119 4.21193979817548 8.02025586736202
5.16538676309296 3.35982881854863 7.88433310375443
4.67289842981183 2.19037511777718 0.50085592426085
5.00237776327614 3.19192167702395 0.34476907208404
5.02059002427537 2.48481245659284 9.98970243064967
4.97317091710936 3.09598421389168 9.96112317409332
4.49613845732667 3.43148118867764 0.13884228573303
5.19139881445525 0.41911637215092 9.7028726576686
5.13897869297372 0.60831373861736 9.85266820971037
5.38216269924312 0.52740520157272 9.41262118137405
5.12599434390259 1.85991929399495 6.80830759136938
5.28177101362564 1.72981488950737 7.19247975826501
4.30807220689828 4.9476481178449 7.76645332005909
4.07881150782867 5.69104451408311 6.96200377969018
4.39416974027032 5.60100331510323 7.53140137694393
5.71618745056861 2.18871484302521 3.52519518018087
5.36410713868501 1.37932019919188 3.86224903164321
4.00432918933777 7.10565954374075 8.15344207906619
4.47136232445276 7.2190946656317 7.81439579398972
4.3371281816849 6.84307628999753 7.45920350541823
4.25360871626116 7.41153027551525 6.78335476507633
5.19722425220229 3.26768693490534 6.65224369700448
5.20095381282393 7.83461078894423 6.47935362714565
4.71679904416314 8.5335932960392 7.29084703483169
5.27545517432152 8.01484606424892 6.65626559874178
4.97431552339864 8.58503870733818 6.69044875232043
5.17534288910249 7.78020079772752 6.93173000883164
5.1021817251608 7.60756230528412 6.68873911761235
4.34913178980197 8.55145660869136 7.31759374475323
4.8283809207632 6.33751553842503 3.72537102442636
4.72639990952719 8.85382231368146 6.22983744856388
4.71545076714817 9.43022149124633 7.41026654860695
4.95485769691844 0.24846553596291 6.36158417565663
4.71196446871335 0.64082181536167 7.36193952460221
4.83006364077012 9.70867046704095 7.71427812452999
5.37060616580776 0.30185111407638 7.13575465828286
4.32850422073595 0.64191841352501 6.84634042612644
5.15194511693065 0.5910854249179 6.99244196551247
5.09128231119503 9.80664568755271 7.67176510354965
5.13045402529136 0.18599797557731 7.62749479831035
4.71887938673469 0.44978867164515 7.60700806926637
5.27779974215738 7.14880569624105 1.42521239467508
5.07426932846774 7.16300502931353 2.10975009864896
5.00795342573412 6.02258466172391 1.42445038225369
4.29997519694161 6.54900894194719 1.94754908709874
4.37365840013697 6.19911330869956 1.82275030379213
4.23714565811068 8.8970794607282 8.28031871192305
4.85961418801123 8.94645162558103 2.31226039632116
5.08441508744341 8.68809809322918 2.67889025378745
4.31039860506562 9.26384693311134 9.37336045127349
4.59006501877217 3.17719619742054 6.68312747086322
4.39925162504626 2.95584472129592 5.58108944121016
4.27420267388479 2.6777512586877 5.90298376482133
4.26277466638894 3.10622325911292 6.28675071828443
4.80204851699271 2.72861862948751 5.39604530487568
4.35006797393381 3.41019745344769 6.14964517504172
4.4569154056959 3.42596500269867 5.86999634937228
4.44576260869655 0.56725105327333 0.66497670916101
5.43200906332007 3.93600112181285 2.93316765269044
4.81958028239115 9.46253915921493 8.17508013398903
5.02422471346161 1.90748096693287 1.58787367399336
5.43713347269857 1.47582324962878 2.15650932667658
4.91977677741783 1.82574849437953 8.03872853724439
4.71725943838161 1.62181172235638 7.43972008114917
4.94674084290834 1.59788293790613 7.52289482165807
4.6634625470612 1.88308140181972 8.1109334241848
4.49428642528358 2.77950789029089 7.74668306194297
4.33685384689368 2.36432430889811 7.98940083477788
4.91066233790958 2.85729222959921 7.87748058405294
4.81298881753563 1.86401594176171 6.84507174403821
5.24088612076355 2.90657131608976 7.62948312344015
4.71106021635997 0.45050005337 0.87119402886698
4.22068398587332 9.32375287699322 5.03984646669086
4.36101842081557 1.23635307914665 5.96388423793614
4.6826376131406 1.34224399386714 5.58030402410866
4.41202344153673 1.78543942116828 4.95516778204534
4.38432012030789 1.41107537750597 6.49204931011135
5.62086028379682 2.51646737577536 1.30676944174
4.65240827210863 2.35716275891984 9.01357802670165
5.04105997450111 2.10755101675263 9.33808093440714
5.03364978864506 7.6412741064982 2.63108369799976
5.1368949016324 7.66980067941226 2.47827250540477
3.78749292973679 7.43008449163916 1.89084156238906
4.98757179785114 5.81515624777019 1.23289734945297
4.31812345160403 5.87740883938251 4.17911078842528
4.29002663927146 5.58422624467526 4.11307483706578
4.26208467430335 3.18603737570439 7.88646001307261
4.15727451481287 4.68745423910023 3.19125105277962
4.35126657204081 5.49215681967452 2.79424002340054
4.29568712003949 5.21454656099524 3.16559684243105
4.51813494521407 9.85246338570374 2.37730172535561
4.94297977775875 8.6447296172087 2.85718340152682
4.16198590212862 9.60997199462052 2.54913981046909
5.17579271837671 4.91466013977803 1.09759581624794
4.71701316308397 4.93894504256268 1.29582634777176
5.29073105021696 4.91282907916448 0.49928537790989
4.72679659351791 4.93619427510036 0.2187026825441
4.97325564665102 4.93386695816236 0.18553056846335
4.26738124933797 4.19453355778135 1.05904308530539
4.43231688270942 9.06599745188558 5.62174523224367
5.41831913272452 8.6174611422056 4.55554521146855
5.02706459074241 8.9342473828168 5.71226584072059
4.96700931438608 9.30891415492001 5.45507752573239
4.82529155325442 8.83529783337706 5.76386574768332
4.48448622378382 9.32361822416506 5.46420900460619
5.18908585581173 8.23570635810021 4.67167487614011
5.33930955076245 8.26172841817367 5.21349849154885
4.14478729623166 8.82706412181798 5.23656600760199
5.06573007346847 4.44188663022589 5.77351422587433
4.12755891939975 1.24845475260089 2.94078845394856
3.86850169459918 0.61256559424997 1.94471503297366
4.60208007658831 3.52006652886393 4.46002829942723
4.22554695823087 2.27987451920538 4.58050553608545
4.63800750284887 3.52204256487223 4.67029435277242
5.09524750795364 2.76619242509027 1.60268465036049
4.28777108091244 2.15351875327878 1.192749678978
4.99782725680269 3.16390843274709 8.7774281158924
4.2176585326623 3.40932064012597 8.92011841365036
4.7946821113854 8.14553495169613 2.97047771998604
4.30319809364273 6.91751227331084 3.41636831502847
4.18247287733518 9.90078701350507 2.16910983141021
4.19000320067032 3.07714601108433 5.26440940996874
5.33899074381626 6.11310144820959 5.15097813649066
5.09323716135121 6.11284751189592 5.4584363193956
4.90093096502477 6.63320536810087 5.72343497306173
4.59837420880298 4.60887752260091 6.69967297955154
4.76122420973552 4.53478874272982 6.80619617179559
4.54962371598119 3.7796774651672 1.49244189855659
5.12973221773251 2.81723217824444 1.66645653496204
4.81397492505672 3.48862899753582 1.33373318911432
5.05733477801163 3.39262434381716 1.60830188080439
5.10774076001462 0.36050252031285 8.96663754255113
4.34013479549206 7.89277036592351 4.84400827961163
4.65155045159529 8.07460688696854 4.49190601909846
4.55795029995895 4.49029633011135 3.38738795223504
4.78570583602375 5.20908925914802 3.41702639710337
4.91628721538098 4.83588455372412 3.46750083271902
5.33474267439467 0.67773742794603 3.46605202369638
5.35106281609158 1.00405086538547 3.36783316745006
5.3599546396958 0.63798027184844 4.0396323221656
4.97941138801943 1.12190789762962 3.05073371482278
5.39353622397509 1.27624911980368 2.64759466368308
5.16696775924948 5.39504411729575 9.44502530361369
4.06368786286005 7.40959533458836 2.79281427239204
4.43201699299742 0.10570169048063 5.67037323233751
4.33615562303965 7.0395010311741 2.93501896454432
4.77395829289605 7.76576947656171 3.88267293777057
4.88408311256566 7.7956368664773 4.36760720314866
3.83687674969119 5.60109164073975 3.68086984770231
4.94718693758802 1.32556436435585 5.64613976864613
5.23124871067914 4.63753006970458 4.14320009078317
5.24639794253596 0.84054384575785 5.23245226650242
4.36632776558744 4.50148941264681 8.98811500956493
4.58180105763533 4.08271400772775 9.57008449857111
4.3220027223788 4.20832373625927 9.39594155200875
4.6614583924427 5.93135668895698 0.38827009860299
4.21553675514374 1.65489252246449 2.43400138989452
5.44144002744255 5.30320311380764 6.81518910363903
5.14923473830849 3.77137800513656 0.55435647228952
4.46317169789381 6.03170416449181 8.83516395435054
5.11533573250739 9.28776073027099 2.26353479039645
4.9492137654138 9.76451013950176 2.25719297362395
5.24001555125217 7.96492964470888 0.83126859954856
4.25247739503902 1.45560496577139 9.03622426776115
4.3786501214088 7.72104542811849 2.59521255407671
4.95901340670981 3.79071551474181 0.94002197104162
4.5782507216387 7.62301020328992 9.70194457569408
4.40687083474258 7.71525726048373 9.84546311315866
4.54444792903142 8.62690245372169 4.03519340136461
3.87844318993382 6.10897714504251 3.77239293171029
5.50389625229527 5.26053292413997 8.46069287234578
4.92578143590767 0.54871281420951 6.51425597093771
4.85421172698859 2.16022694324653 3.13755657466792
4.46950110460743 0.62418154065812 6.53742734126116
4.51580704348222 1.18407714858212 6.24068577388077
4.7505751115285 8.26635467170581 4.61088681182404
4.5334407266972 6.34558011029996 0.19464990923524
4.6847890044978 8.61422113497837 6.37107266465325
4.49287284152874 4.85322490400048 4.74629120484875
4.51481253976182 7.81539547543848 0.86649875101893
4.96146741182424 2.1366297814411 4.14806874809857
4.89679447967793 7.20065866900697 2.76153858761832
4.41799312174435 4.12741981462498 8.3992474298611
5.24462083287949 7.30474780101812 3.21860076317215
5.18819711273073 0.2233739986527 6.05907538274286
5.04944737444873 0.10888602906127 5.69013515240622
4.22145685220467 2.79104041075367 2.35178831618595
4.15469741608525 2.50434173164745 2.62288255569303
5.26509767358183 5.6770024941986 1.93890565652001
4.77514766056953 9.88188711939014 1.4346105970914
5.29751643179253 5.16152522913714 9.26661034491187
4.95230012528111 6.74397637271259 0.29719020613451
5.15751120860109 0.54282638693621 4.15988097613791
4.97430115206904 8.05789955177334 9.13710023817711
4.47379767840482 6.21216074800007 1.51013738728832
4.63987398317881 0.32415679183058 0.92414506896261
5.05421049789125 2.16137537362769 9.75036041320172
4.60886538045758 4.08553706314164 3.86891530340865
4.77421643570853 1.74863670803979 1.29207749264573
4.55225369080007 1.35208960613619 1.38035442735643
4.60940195852723 4.25624966659162 3.16545776389452
5.42407514101051 1.61445918804699 2.48302130917096
4.72393211110955 1.60228474221912 0.22903311186174
4.16123935172775 4.55720689136705 2.42634271137852
5.0044583891594 2.90905987867897 0.54172509086304
5.62139877304052 2.61526084921243 0.8649608147334
4.585441091971 6.69214343589548 6.82050997462358
4.72655532999708 6.96542580625976 6.56094905779762
4.32819971583033 2.54804973105194 1.47268362145724
4.82878547294359 2.48512271554058 1.74873339089966
4.74921212053746 2.01719913542587 6.8136100545395
4.24748676388695 3.08644739033651 4.25674643305027
4.6717671221167 5.55433311867089 9.30703895566981
4.67876321095609 4.13027269016229 5.5295110383941
4.35642136273499 3.57008614733377 5.79939730665528
5.09877323843668 7.71639143351927 7.80416227040144
5.3953937040697 4.40562840350276 2.77946943687861
5.28254042807433 4.8206609829743 5.58915154326739
4.24553889318513 8.82056668196472 2.08950673870233
4.33298038653756 0.97764631265922 0.71690685255653
4.51238644798647 5.05921374364526 1.28330142186271
4.43457438095319 9.06400965653824 1.26687501031815
4.84155081475262 3.29372379144761 0.43207567843957
4.95301201639709 3.72560441169225 0.58807361470873
4.14932135422532 8.77325706757963 0.64290566236281
4.03422823523985 8.83932025747194 3.9325437169958
4.89210024205905 4.5467701473596 1.42307975618282
4.62422078509799 4.06325309987153 1.22794027800744
4.98082673756517 5.39481750131928 3.19778287149112
5.30757940235153 5.18940724155702 3.04927728467703
4.13168492410639 5.26237468893373 4.45080353280304
4.92853056032223 6.56980737909606 0.19085540069841
5.26014150814738 7.85745265697009 4.4505838541253
4.09568355525963 2.79686444161461 4.70960857837795
4.27589476542428 8.85220781261229 7.5429367695987
4.39605396209554 4.53704048254975 5.94085047728375
4.60437330825914 4.66668166175946 6.0572314341376
4.45782602102078 8.22637527088297 4.03329384547355
4.57865939952765 8.01254194481507 3.78673833887824
4.7973624402363 7.27121624062825 1.77113449569577
5.02428946601793 7.57053488570981 2.40334620742257
4.94656674348329 7.56449267683688 2.57644990010309
4.21826155471833 3.00053062573644 7.27426866757705
5.18582267927086 2.01820339172097 6.77036981834561
5.40073160882239 2.30618406405473 6.07613861994989
4.31055481839996 2.33624918765763 0.70432921858328
5.25482624254409 7.05736296194216 4.77548881049857
5.26225028992305 4.62461256736817 1.23068245330854
4.6859049604314 0.80422528589504 7.49113797379784
5.07995410761588 1.29845065594434 7.5592649161115
4.76925888620767 3.04356836091362 0.68102734553201
4.32785856524076 2.84491919199769 0.79359261290699
4.46432191004242 9.66924592239301 8.53859943928723
4.81172871754676 9.75815239240649 8.91802071864139
4.63733029540008 4.34557398590317 0.04948639047834
4.19074251622783 6.62290127678841 0.4460355133526
4.92171435130335 7.26821422028285 1.46387188407005
4.71169286342445 6.96265494977391 1.23518795539509
4.64319636676278 4.9493499129804 2.05822728698616
4.68277575808239 5.02362764303502 1.36587388524243
4.17234366476347 4.43160825391142 4.21605881074017
4.77791682016514 5.40937767025582 3.95193845938435
4.69044135086455 0.62496022949081 2.48242130881107
4.52077540601124 1.55147112109281 8.93087802139417
4.56731757592318 1.4160377701701 8.69390875409542
4.91630711582064 1.50809791267924 9.22536718481462
5.19542313841615 1.27203040534129 9.01665052655588
4.43313434205168 3.8148028513514 7.73958942628202
4.61027141047744 0.97231643310393 5.17292436406186
5.11309295819584 3.29726220528411 2.75059373793467
5.14670996716986 7.79107362415482 7.89510707062504
5.03133777892002 6.63218888263801 6.05837742306369
4.92212718197469 8.0501896084969 9.46400613919508
5.37255783334123 3.91417570154938 2.21900259565252
4.23363060219396 4.20570115464085 0.53068456561956
4.02642603097818 3.14023715624883 1.32415665646425
4.20810666591934 3.68926675365182 7.5439405756924
4.1430874246274 9.64533798382441 7.20184611881643
4.78669783463567 2.71828049745277 5.21486080274883
4.35148766401436 3.00087903745081 5.03325776696133
4.34155916924279 2.92881344010855 1.1932803612163
4.72000033515389 3.10028095649225 1.19355658576287
3.87112153199168 5.45969342553366 3.35323035043919
4.86008456133737 8.70563412905789 0.47211434857814
5.32602759579125 8.4326571403267 0.75571223629193
5.26635946709418 7.42054481622797 0.13436665518916
4.22938787485604 5.9965098271162 4.65478665434876
5.28227704253886 7.39226860563209 3.20880846743685
4.36187605184235 5.42223560952446 2.43006507723541
5.08455534049521 4.48029374287672 0.00321988257044
5.43285292028932 5.56685741916558 9.43712707037257
5.0029613435955 1.68812598146222 1.91943764275371
4.64384731242463 3.2786165314096 2.98949611258613
5.02045494329973 2.51457474015624 0.39214545922361
5.29476808386578 8.16969126309416 2.29401266622744
4.972355351809 4.69674756185341 4.01248848911168
4.57636153135069 4.33400523082897 3.86988016434537
4.2841211273072 3.88407567915818 4.16656949233667
4.69092950101985 0.60712603884019 7.72962007263432
4.93565344297896 8.12631250897512 3.4098830244829
5.13882865434886 7.81540346548308 3.54129091713493
4.01359731847022 3.31209746155634 0.24137032231309
4.95249708622362 6.8166371625799 2.43025867805795
4.66486628028501 6.58493107864908 2.41897254024276
5.05358169362745 8.91823804970624 4.32828963322605
4.34251133845664 4.33070270509511 2.44407620779573
4.25413339730948 6.71616350519784 2.77930888503703
4.441647988684 4.86948434673682 4.50679702880985
4.91430600936218 4.91328231630108 4.22078951126596
4.31917741326538 4.97967201874647 2.1862638502332
4.62171823772448 2.20061740591816 8.21030313763861
4.47315475575714 2.18437680069822 8.84493416573369
4.69054252560057 1.14923509752004 1.0908472048165
4.65371134447117 7.20901865892885 5.36522843719352
3.78651923919225 7.09271137023254 1.72466338338815
4.57438645153449 5.59234379012754 2.76913635231837
4.6720869222112 6.09791754068652 2.89259945634801
5.10655520972821 8.53674267427243 7.84037528057497
5.27194218033337 5.84024148595478 1.84088002632368
5.29864511386043 5.68723018738304 1.83553858136744
5.06884842706481 9.47345349484102 8.3047436146145
5.05562166671246 9.68704553398834 8.8154467016188
4.85236181764325 7.85078786633076 8.94797327526692
4.68901976550772 9.00341106394161 8.0691566500671
4.93380363825035 8.77106689537631 8.19121772975134
5.30476461379817 4.5508396647449 2.59328394110649
5.30078554458738 4.4803664593427 2.7991648388191
5.3124878236254 4.8409008542977 3.1949414819794
4.13256488845042 4.18953228727118 8.69421158324588
5.51374257199609 5.98095447976446 9.2932249061206
4.32438209411225 3.70232300525992 3.16050440896668
4.62430047586524 3.96922992789394 3.31121956778541
5.00553809044462 9.01010808645456 6.39627847409689
5.2571683099917 9.06890080701631 6.09922028462142
4.54375754198552 8.48931442042185 0.42032958915326
4.65981904069895 7.90764347974105 0.6529853914731
5.3521455968928 2.98441658873008 5.48891667772839
3.93408256624448 3.02507832999446 0.58079308972513
4.50711326788015 2.80295100205094 3.95465742551787
5.22623086319239 9.30123940591019 4.93974051815615
4.06804105941027 9.33750082811298 8.59922292706289
3.99315022227921 9.23883014915183 8.85661144376458
4.97776197053255 2.44176639563577 8.19846015732617
5.04860936803622 2.63536948857179 8.73735791871574
5.26682483152553 0.89655974963421 9.74476680819067
5.17635886730451 4.31576312699484 9.33383395612741
4.74572141674931 5.83496855335942 7.56006299039482
5.03724731517964 0.50750226395564 5.09852514066526
5.13362549628747 8.78772546797721 6.6739689354547
5.1619901933908 9.00390050009131 7.10503953579706
4.7760351430501 7.19290062024723 4.66719752333698
4.51566437178257 7.25321122689539 4.94504208642739
5.22496138337123 0.4264809151957 5.26856555347662
4.89437619767176 5.30685839849329 2.25158368835138
4.59472685682254 5.53394399598917 2.43347917943223
4.2850449474109 1.16806707783835 8.67352376563256
4.85999287794129 2.32278568061355 9.88859980237991
5.22556513835234 7.27734367717281 6.66954096299654
4.24201794435486 0.78239854154407 2.26943470462071
5.32149928465006 6.24841681790005 6.19202541549712
5.179199121536 3.79214746486235 7.52672505584336
5.36441392307532 3.64816741156907 7.01180953196
5.36669558738978 4.68462400570898 8.25578182163938
4.74931593424796 1.90546277557537 3.59503641237042
4.16765900625588 3.70334249470169 1.51926165525443
4.26264258826657 9.11841046856007 4.62094949832558
4.67543882264812 8.70668524838909 4.34270086855425
5.0965289551292 5.97423736371467 6.61223742759592
4.28900421248447 4.24320315595518 2.90577791143131
5.43438230606091 2.28229897528041 9.24350643821599
4.47929438501731 4.08596697299543 0.25997351761757
4.41211361148909 4.02712406913446 0.18214939678944
4.91902942424858 4.15256755751251 5.52116617501687
4.81415968421134 2.50404242639633 1.96881474091779
4.99299700719187 2.70880092401555 2.02304401005367
4.50583298879082 2.33421290747519 4.05766295292811
4.38959581373138 2.17814121352476 3.73776703517737
4.88987634909934 1.28656005207366 9.70567965727717
5.06163531666408 1.46506384946225 4.19446173500536
5.25040679643738 9.23090266358485 9.12140774184157
5.33702867360779 4.27917233332816 2.20681624977105
4.46455466612706 6.34308607993393 9.41619609388691
4.66230681740643 6.01484496002671 9.15107557766525
4.31623673563296 6.44955251466127 9.30294822788476
5.53562104802819 1.07554502250916 6.91032680572011
5.28267814746238 2.87318842686583 7.34455617475399
4.30337557488124 6.32461160599206 8.73071094534173
5.28923640572407 7.75807634673951 5.6917017693118
4.75425317157213 9.17553475729038 1.13461807191865
4.70972641951694 6.12209679390146 6.7481017977834
4.3182945105333 5.90606749526713 6.66938721981379
5.1136903432216 5.47275947420317 1.3921765834119
5.40787472834021 5.24663354329275 1.19026043010722
5.40641293461579 2.34075068442986 3.06376196027028
4.88818843217154 0.74710100278244 1.16923863823146
4.70398475860958 5.93089868551576 7.7103848314299
5.38127346024396 5.93798436466979 5.87401620479356
4.36165861539944 9.77976191219974 4.52581431933953
4.97347899833368 9.82237061853422 4.3933541690294
5.0303500353483 9.39686323221398 7.12231784030425
4.19439146344746 7.32657761322437 5.94033858025243
4.30731210340564 2.56083442691681 2.15247463874325
4.23404321266642 2.28358939083524 2.42181324138769
4.65975978461532 8.64131666754058 9.40207842212543
5.43720497710029 2.56960703922072 8.90986029087058
4.97330449926562 1.72166630408265 1.00959846696911
4.63172372852825 8.97909061178142 7.60221671048753
4.85710615357881 8.75072725540752 7.45127210511648
5.05508831669089 0.74225176509636 5.06985879897218
5.1320294093854 0.86930712339234 4.39721874295156
4.53846403680849 6.09778326447567 8.65694183127095
4.3755731507793 9.34032840488061 4.69856656670541
4.94422371069173 9.33687042464909 4.58897807515271
4.80309931676275 2.13700969644932 5.03694369227657
4.59199102067656 2.01273056772083 4.82818717498138
4.63472358183837 5.78243420416122 8.2552307186789
5.03546280649527 1.90121420996215 3.84367906173246
5.05576660028045 1.58038764866366 3.89824123376002
4.33382128354834 6.85822606103295 1.66741045142594
4.40996099228118 6.76059645757382 1.39411207147664
4.29807000340541 0.57100105289501 8.12097631701296
4.52293375823772 0.71508287155992 8.59276845706869
4.28785623365312 0.14722045052312 5.92890946878164
5.28144055939922 9.60135386759085 7.23040233347697
5.30021186267501 6.19328323807996 9.16520154139599
5.47140330353552 2.67104950867097 3.06627791495209
4.42790644989686 8.35403988650802 9.84822920452829
4.72019727040843 8.45820121562577 9.63105097587404
4.84213869741154 8.41898698560158 9.01576834169035
5.10815217112211 5.55003718343632 6.44508237799001
5.27253473414644 5.5336790466531 6.0312252856593
5.35878812858003 4.2996410867922 0.18574146888036
4.89844700311593 9.51244402059098 6.68271697895922
4.97048830638231 6.64375817398341 4.36490277968288
4.79904527212605 6.53647072904585 7.45949384984516
4.88713335519744 6.51832070912839 7.27325596523413
4.81085713661798 4.50632608603072 2.22630997790564
4.91552059110325 4.34793199201543 2.03752197468776
5.44212839520614 1.39410402633476 7.24012526031093
5.27625509212243 7.8665754361294 1.17848649073257
4.93610273788244 9.54409439997931 1.17053385568742
5.25353130223591 5.05278890394787 7.38681417356353
5.34235517793506 5.00824960894372 6.97498412440879
4.0806574887716 2.5705368905826 1.68241074813473
4.25838659678264 7.06177104487082 4.90590421254207
5.41852339909033 1.15136475910807 2.2087704995981
5.28265837447498 3.00748398180792 4.90701962384517
4.95892621071864 3.51066619174855 4.62297276376373
4.43464151631598 5.85700113454888 7.83626023032532
5.13177756520098 9.84511738709419 1.71554850634208
5.41720237599747 2.69758302865177 4.24214280150138
4.88917757557085 8.27626369021276 5.45718786727881
5.24714327716461 8.9769651716309 8.39315887132654
4.55659928354341 3.57027572217468 8.37566390749144
4.95883037120326 3.39598199672537 8.43900339708666
5.50324897734034 0.35233802165528 8.16059845716204
5.16805908862133 3.56062307528528 5.91113367628671
5.26346869517807 3.8005415966705 5.78213828651205
5.30130979669304 8.86292488847382 8.80938276515622
4.36164496282902 0.48402167879739 6.48053195548402
4.51612412880605 0.18785770796551 6.34633705604907
4.54179780997293 3.46095760759877 8.02214661962196
4.9241555065918 3.27834134473228 8.0412216586167
5.37265281797147 2.27369004770993 5.90089810150884
5.18297433604165 5.94465537786514 4.95722582253141
5.51933864640063 7.71353728818016 0.58541000970239
4.41900144611604 6.13219976425721 4.7753558365071
4.43022203964376 5.05566651216235 7.48052535725165
4.97837153906129 1.47116334793936 0.8899416634812
5.44216100915848 1.30297768686019 0.88206147344584
4.68240022235272 9.44476397289013 9.40134538183243
4.94311595976632 9.16977781543169 9.44833586032149
4.53890131439599 5.4246260228734 8.39809307244619
5.43765781723907 0.85404881881899 1.04222001609059
5.30801294220903 9.37324135993897 1.41171776901164
5.00106225935213 3.05983485285138 3.23617665133176
4.89426820148342 7.72700410522858 1.319629771407
5.33470480698134 4.60791806051658 7.83938478573902
5.19043303494093 0.92790099346482 6.23968615720682
4.99966943242053 1.21832214111143 6.13571660350777
4.86787148145413 0.67498518783627 1.34603139650924
5.29083379756455 0.61447145282588 1.5817532699792
5.3217536665275 6.72153610242417 4.52262838811212
4.59824494580256 2.05453976957328 0.22712345959255
4.81274306772926 4.83139296690587 7.39897714358924
4.77358591530886 4.70968568391507 6.90085147632349
5.47245225576775 6.20858395820806 3.26805749782269
5.30025335051277 0.78158103026614 1.98827913221678
5.1442339740667 0.8897289024031 2.06620960289683
4.11496154035313 9.67443411343496 7.10857266270733
5.17469804692453 2.06314181137669 4.70947032015052
4.97992261835213 1.93995390443004 4.48300122571085
4.45513441541631 3.25478566731341 9.11842578920628
4.70136739924499 3.47752775266698 9.49181462142291
4.95478682795958 2.40519698988704 6.40259757597119
4.91136560692468 2.94630427207491 6.73126249418626
5.01753205672967 7.8929027600584 7.89211992399592
4.62835110018639 3.26436158127571 9.79765174257872
5.6105187580434 7.78442697661889 3.66209118680921
4.69867091122813 9.9820678257537 4.02124498179613
4.93678827346183 3.3116822567457 3.03745952623232
5.05564489085092 3.71121240094323 3.2378930051431
5.05107186048753 9.00296797162898 1.34885937143606
5.40779968950818 8.61448165399767 1.1736327514706
4.95857590436493 6.67780640337127 3.84146280988385
4.67800679658928 7.03616869550063 3.66696518645511
4.44235993672167 9.66236177693518 6.61936641574079
5.25549115075676 3.85997207251039 0.84709973794149
5.45921835998647 5.62304991049925 8.22568798135295
4.62608151235041 5.30222992793469 6.37965861569292
4.26795158646507 5.56202476010675 6.48495060031012
5.46318023658669 5.72743979215305 7.16727322471287
5.70754583318843 7.79190446398636 3.92655103361015
5.3576694408389 4.21648637895005 6.02185483796683
5.31428380461993 4.22314065926949 6.50525997013548
4.92984741789257 2.72236507699507 7.06230783883395
4.96482406995867 2.1882703388133 6.74795238858422
4.60932628022418 8.07756320528348 8.61872294879962
4.60591342503908 8.35612325885048 8.67713444190934
4.22556891067821 5.29113508583681 7.98014075334729
5.6184039655093 2.39724925171818 0.76143401205045
4.29831644839165 2.39088688961431 7.37269044236901
4.43900485869118 2.72129667509859 7.41744342169227
4.60256633459801 4.76579178214947 6.77969821667156
4.6375198157064 9.0993976235483 0.71772933718458
4.93612255699087 5.87253493705593 8.15468065928682
5.08112057931192 6.20657430422612 8.37767295004257
5.40566974240116 3.38590628361308 5.77539517423176
4.50511406140707 2.36274079947772 5.94563092715019
5.171149852627 1.73664678617457 5.53417130917428
4.23744730757655 8.48079892874236 8.67170314511127
5.46234581889221 4.22550014059726 0.87259990484118
4.81651629182613 2.30867409502061 5.64866938394282
4.80520207969937 1.98404172031875 5.41786601375095
4.18832678900661 8.96188222982627 0.72488784925063
4.18312245942009 4.65172969026215 1.07333245711791
4.52260671224252 4.96829650461599 1.19505641126471
4.39860444756463 4.99927716851725 0.71305667119225
5.05410328595263 9.41685434465862 3.45057776058552
4.66620418933941 9.73289988901122 3.48617884433318
5.3298550567556 4.81301557149231 5.0723820127962
5.29079598056356 5.51929981457402 7.5038121207899
5.61519961993693 5.51529661877208 7.92634653247034
5.36149279057055 7.27200815660598 5.56156881115544
5.07881650589347 7.04551425139135 5.41372217918791
5.46345612048993 7.73461514644594 6.23525762867777
4.18393150828974 7.99130355975019 7.4605016634015
4.3229613316799 0.70206719003358 5.27171340735284
4.45255647126251 0.39780511129954 5.26622235981688
5.0129694520691 9.85924912323185 4.26420909399978
5.2634414479493 9.39849533118086 3.79008229267828
5.70072500769398 4.38999026896664 6.52681243896795
4.55747233759742 1.78344043258048 5.43397863055828
4.00347221877781 8.61070508960325 6.8658575467015
4.25817184629118 7.7097256706365 5.88587733129655
5.30097341371781 1.48972824999412 6.37236043885226
4.14213954563737 8.62920687462855 6.48056921100287
5.33992584233619 6.97899464207756 5.08182682905568
4.33661537815959 9.21666466245941 3.3643901101892
4.34572507398914 9.57850671222902 3.4165674341499
4.73486055121495 0.3871228129402 3.90931045081124
4.28291826785839 0.71659529629329 4.06318750661953
4.76322419324699 8.03246000150054 6.12294076422316
4.35703392553788 7.82964743276551 6.16950407588814
4.04144846243198 0.18789577435803 1.54731017736163
3.83934837962282 0.4364448971429 1.85137163015162
5.3393062739123 6.80848770900237 7.41350110362539
5.49164597727788 7.13008533966997 7.19496065248078
5.49886174053475 3.33634765195286 9.55337289399625
4.12566258865268 7.93545214806601 3.6637548564879
5.4429669374286 4.05069699368865 9.21989246196271
5.30401969560115 3.50744610003418 9.30518580494202
5.53350484441557 7.0806608835458 6.14450204113637
5.55331556932089 7.2291163048863 6.31228946731227
5.24297348417662 9.0086772368981 3.88804030648849
4.86268169171579 7.95877708889497 5.69578932213234
4.5571901778603 7.76242675071475 5.5654902291265
5.33940051231455 3.32403931507907 8.92582687304643
4.25109332791527 2.95204461574915 9.53464511530983
4.27765710889463 3.04450956447305 9.18844555563664
4.24754007721267 5.27090337304514 4.99100118178192
3.94966876141849 6.70372608753452 7.67252804015212
3.92748377440073 6.30438929806714 7.86702922393567
5.28959476993715 6.00019585907187 0.78972708533237
4.31315442588261 2.57218014903801 9.51692986751672
4.36011252933004 2.53371714067002 9.15468197020746
5.07957602060894 6.02973305578715 0.4109523076436
4.19363256439482 1.93784050243043 6.39337865659257
4.51186006523144 8.27379699520431 5.10798684540162
4.36170825185015 8.08506703280315 5.13579721193993
4.3366853328348 0.99461647091749 4.19977506592822
5.37287689944152 7.57583215096309 8.42222864066664
5.2172591053385 7.65048942025066 8.81752719364509
4.48195062121003 5.29118572027261 8.94797960465646
4.33020271116113 8.73757034295085 9.39166939163985
4.36500128298506 5.46466920606131 8.74120780272679
4.46660482512105 1.2139477304207 4.75876034223531
4.74988854178574 1.13800889453157 4.37066293472475
4.15817335202966 1.89138941591112 5.7847144732763
4.21120798589118 2.14960617177978 5.98284608196089
4.66988488436169 0.37391093870878 3.3309123032971
4.07688623828337 8.67129471530976 9.01440972683113
5.15586001259392 3.76165146433591 6.80789022441761
4.66099607470579 6.98280212657028 4.48580406654959
4.90417667331687 9.04511401664965 3.39544513109089
5.05715731675738 8.72752893077856 2.99755328541401
4.78979018927065 0.42794647140652 3.22418180322382
4.68935868056205 0.81202013380352 2.97050108823546
4.99816418748417 8.8431435755912 3.61504272703749
5.14939099039195 8.5467994735856 3.36792360182286
5.06597466965538 3.46722127131168 6.58698241003233
4.66295365161888 3.40787712233663 6.61755793012634
5.35069936499967 7.24718274696838 8.49801109093784
5.23208114291097 7.29990469359073 8.81997639994621
4.81761171859426 1.89061069479865 2.78294762446327
5.12588254084585 1.91969084390625 2.54302968005545
4.91711264542699 4.51328900985881 8.61721414571008
4.15470654905419 9.35717373915842 6.27386430637811
4.24537510354558 9.10458042655669 6.16034050586825
4.17119091511109 5.03965247060547 9.0720529303806
4.54360763290467 7.20461684013515 3.8712596776303
4.91061833362319 4.98877160033404 8.80160890219237
4.86005146878458 4.61589166405017 8.83375374072005
4.12790975541492 1.60184048441529 6.3449634075817
4.88777878380556 1.97999112929571 2.26464327280807
4.57067512329213 1.95071596899641 2.48107835594838
4.7850002749093 6.03457223344767 4.09828832667433
4.34955703499083 5.74996577677864 0.87717342057444
4.98677065444829 4.72962340510622 8.41710925017126
4.97168843611109 5.02625713642914 8.57043374690929
4.22289210147419 5.88782425714737 1.21487443498865
4.42546316746294 5.70855002773831 1.08752464978396
4.8812116454448 6.23280034298025 4.45585397577675
5.18709072080169 6.11270964757459 4.60940384549405
4.29218111070093 6.88321152803174 4.67722526243733
5.64088890325432 6.2700352642234 8.62518170045086
5.59779486963811 6.25672021749668 8.51742253563989
4.74721332927107 3.99373513724418 7.04895468260269
4.52945940148531 3.87031509341871 6.98649542054878
4.45214585919525 0.39648633995131 8.85426167134391
4.81104990134298 0.19921330069128 9.05019236125301
4.2223358492543 6.35854549185639 4.8449356766204
4.11999397723104 1.12878531985784 3.90110653255095
4.42916483005095 8.79544056922949 2.75278254717802
4.18528866906626 9.08354315331027 3.02301816781512
4.76271608665232 0.20045625714604 9.51116554175445
4.26304852249685 1.03747904335301 3.07133413180232
5.20862992191454 5.83556114572907 3.46127379379133
4.58580823471647 1.23093903800476 1.70755823139161
4.234515933875 1.21284054925418 1.91418112019685
4.6585591889314 0.99546385121664 1.74338718750545
4.25527563223358 0.91621128794805 1.97869267500502
4.37738718254592 1.12969148663477 7.37964279728943
4.19042228135617 1.04678633873281 6.984056552237
5.01420380947576 5.73651909576805 3.98667012983362
4.09556031813123 6.08491215303696 5.95673092397112
4.13633295240956 9.45743352780952 2.54824467939471
4.44885266142411 8.97352168321194 2.4213856089966
4.90796935913527 3.6385357261855 2.02100655550089
4.66689510050293 3.85806727649928 1.94549435007612
5.42166280441482 4.07108641046205 8.71775513913925
5.35925551409541 3.59259571154885 8.5854695493391
4.16429012017671 8.05546530201892 1.82849220710014
4.70453521874161 7.63890254859591 1.91028587140116
4.28381028165263 7.73464535427679 2.02023981435861
5.35146936989482 1.28242116127668 4.18044424333125
5.35850715973759 0.99447885921304 4.28298532869072
4.53399610478488 3.24807722565377 2.50592605282954
4.80096384894263 3.26016890918269 2.38021214335997
5.29347682720229 1.11166350950818 8.16580570913327
4.20944667538464 4.97697118791983 7.01560992999454
5.12959719182007 0.75145535488191 8.22299704604998
4.93248133101429 0.78421726813721 8.59187346168319
4.24306548937623 2.16846749219254 7.75951230669039
4.42807467270718 1.83206589193776 7.80773105713707
4.61836203394211 0.68416471273882 9.90869790210878
5.2132831673625 1.33060926019106 8.40450091023865
5.00524987606283 1.18874093821358 8.68055003404821
4.24597406484958 1.41779769395502 3.59683099611636
4.2780231152923 1.20532128392407 3.10916522702685
5.20576350331737 2.2734288206608 8.10975717170197
5.40159600268392 4.10154369765902 4.26661500472128
4.70533110212108 1.40995873464114 3.13894164832424
4.69863356253886 1.60203282981767 3.57484962766603
4.40844065567548 0.42001272552371 9.66890376619682
4.15665108064364 0.55255462400046 9.40266142433796
4.16343644088767 0.76052465648839 3.33747755733442
5.11297378491872 3.82044873312106 4.10007432626902
4.19754206897376 1.2015471100353 9.52557206006435
4.53062066085353 1.13432116752491 9.81492680776675
5.11173806625251 3.0841790554108 4.0746143410121
4.92395378863093 3.50973854973236 4.40344860685344
4.36942135220981 7.31359651185577 6.5656583808847
4.39319280255653 7.4056378810607 6.59320433030711
4.41186489062795 1.33650866934235 0.15474463387564
5.29539469163967 3.20988652928387 3.8085284945153
5.32004683625754 3.61093909842132 3.78864273590039
5.24132114566524 5.83834490419133 1.9306180711816
5.21696165673177 6.63188021917108 9.44610293285043
4.86356281765613 6.69401252873931 9.5344068165282
4.74962383554415 6.00663987464394 2.15630627420615
4.81892944876105 6.34152788934221 2.47027198525547
4.95743350435841 5.3192812511143 5.78420641222043
4.60668970332137 5.1978112150489 6.0185059145127
5.21102766660561 4.99713676242751 4.92791938883579
5.09190896575176 4.83486645721791 4.78518398354244
5.13656918352999 4.88250833542932 4.36010241207866
4.28550913689342 5.39627395723427 5.80044927973864
4.21167063459132 3.59168193352494 2.4073567666978
4.27289719530585 3.83862463114335 2.17870190835248
5.59913409047419 1.9467704254495 1.16366814172278
3.81976975476573 1.86769046970352 1.32924413380259
3.88800328599142 1.473827315278 1.41856295411923
4.76446731306005 5.86175131955677 5.19491462640371
4.76381819501475 5.90177491303832 5.32725676533532
4.602610892162 2.92266906023564 3.23332906869979
4.4661539893638 2.58254096493929 3.16553287403389
4.2852062065371 2.56532543122252 3.41684264372263
4.34126360981732 2.81790538875291 3.53461450109204
3.93805649782421 6.36212950867569 3.47417444948576
4.24110592197712 6.50579331203165 3.37722388068693
4.21905956439167 6.41275995381434 3.09806919827749
5.3547630352379 6.48294062284086 1.23492161770083
5.22545635266844 6.7732291803923 1.1643953209903
5.35407459757639 6.70898304256414 0.90123472750994
4.45501280498501 6.88701231623645 8.66583986821383
4.00280636668503 7.01847085516148 8.38461943504871
4.08758051745935 7.91874571893664 8.5590177754469
3.99634918427098 7.54215932450066 8.83088151680652
5.12774812170298 6.82655055339311 7.74000720752886
4.98664616434335 7.1296086100754 7.9214873344356
5.23654259095322 6.73784984098948 8.13658231698957
5.09329110771977 6.99662144021541 8.2340143525974
4.53853444907264 7.0111125667082 9.25582804927801
4.40064822971009 7.33568710672623 9.31104779865901
4.44781040332925 7.38081430620229 9.11819765260091
4.57624200814171 7.12712214767733 9.03808110915667
5.06117931881763 8.23666865408376 1.73997408340015
4.40180503322712 6.97581168278098 0.56013087617917
4.37276418152499 7.04972955577969 0.87208283467081
4.00579899466594 7.74319620536777 8.15829709754685
4.294801359693 7.33163103393468 0.45934175977313
4.26429360362235 7.41915989466627 0.72101313986563
4.77629463189807 7.92970932566026 1.63768495366281
4.42387703360527 8.1624383815519 1.5893076942273
4.32278578658763 4.44226965562341 5.00966575597661
5.45559996877996 5.28694817239686 4.76055156673934
4.40370740275947 3.89166196080949 5.00912692941829
4.63034714419608 4.15500104051693 5.2049399171088
4.81406617485298 8.70349786447711 1.74926665911906
4.55302102113181 8.68593716158148 1.69438750543573
4.916635940723 4.18033659263193 5.19615018522651
5.20420889279231 4.61818667573401 4.92899180397853
4.79253719161804 7.94472263463785 7.43232821897424
4.95691992870229 7.8122205961475 7.78979777247484
4.45808110376064 7.7767444196148 7.46892996452243
4.49849499631538 7.63729516182572 7.75992066407452
5.24821212849368 3.81689795520707 4.85000992631598
4.21013604833277 8.12093084737457 1.03793742828823
4.0117349206035 7.99766740278231 3.15176430512535
4.31933746894149 8.08516815578815 2.86715705975488
4.16550601522378 8.35987318640636 2.75199999571211
5.42904569030894 7.21631587408486 3.27332009672639
5.50953621691308 6.8595055260928 3.62003979154068
5.1619171835937 6.49407891547941 2.48745995496344
5.47892142665691 6.31755461534624 2.26934901379643
5.52567394096235 6.42836859098415 2.85270856315295
4.710545441582 5.584594194882 5.25746267535462
4.70530027648412 5.6134676747545 5.41478072761768
4.601363792351098 6.6516153643355995 0.337772381119986
4.681220025855108 7.142363615651735 0.2899884580711433
4.5457221671221975 6.6244409225106775 9.37734479689447
4.522074745985237 9.486932447499285 1.3756939677411484
4.80921781076573 6.195174851962052 7.431681337376898
4.98076064661577 6.351813175037709 7.929803635853812
5.143117795065718 5.848346360603212 7.284102822372445
4.902921223393556 8.820729312861264 4.041853387334177
4.4669792464411495 8.937949784711103 3.6685764513561288
4.66060034927653 9.858434320547959 4.306862031576334
5.130583485953347 6.274758831074851 2.8908853731756206
4.913674239529886 5.799743213922232 3.139001451091998
4.943608347203249 5.354458872043792 2.711006710176313
4.681950702974686 5.914474618157876 2.5443586495120463
4.677251716547592 6.6680877285775875 6.540761021042044
4.481437988878608 6.375573090513808 6.101706296293563
4.549596744618915 6.984279354685172 6.091575522481062
4.650620515634389 4.4419772407126255 8.272832925088743
5.031253529372016 4.645193447164302 8.016991567525988
4.6049035437973 4.247433058509848 7.759050809421834
4.841783822559722 3.618783160937676 7.779457106250553
4.938575623404707 3.878441444232456 8.522392261437938
4.674392112218382 2.7820281161934903 9.781442022088028
4.904411463348957 3.1095684270160375 0.49989929672966504
4.684247338686558 2.6397910795302217 0.6022792752282966
4.397081101373737 3.1584780540978934 0.4779502224416366
4.695824071409944 7.654399718973373 6.983047734220683
4.979747541657777 8.216235339402049 6.464016281416853
4.763317291865226 7.74198368191102 6.410748383035282
4.500096127526706 8.15956410374668 7.394040125296618
4.986889964520766 8.171680299998332 7.000323922739956
4.4784411877127885 8.587370285213153 6.836064825710495
4.557442784552433 9.553610436374308 7.024181094189161
4.578804432068197 9.25008172722955 6.3937340216011895
4.904933604831145 8.770183142085957 6.47232125501783
4.968767282163772 8.732197045370684 7.042315272704071
4.879324175598866 9.112160618148112 7.338222548062452
4.56613109629929 8.733415116906357 7.440973272957526
4.645581865813722 0.418647855518688 6.448027299877718
4.71753926937901 0.609344001734442 6.850481045687998
5.016769832695562 0.433909000315682 7.344927803194852
4.989717462772168 9.588750949128965 7.429805990093561
4.687131935950437 6.8738374190251506 2.0575125585283534
4.863937391291819 6.535694436717478 1.327200789184145
4.581410632333759 6.336244218656396 2.1631700381190497
4.853049444303111 6.019847497202265 1.7808570741742615
5.034165827388405 7.038226011672528 1.3221668887826301
4.734718069232354 6.369824156081282 6.922035324911033
4.568719611666305 6.698690137997287 7.19558641579805
4.5261546410074684 5.885066042412531 7.104361035767767
4.358658710759289 6.36259370411828 7.6674832801844
4.4758020124522435 8.805897094086788 0.595593357305884
4.585175456592222 9.051455146384919 9.403357901438538
4.583051475889538 2.7792354627768048 6.325392158546104
4.8855166398346785 3.25325715960982 6.654234800442525
5.009960321597328 2.331297199230006 5.994786921704586
4.93068166260836 3.1735623835184232 5.670429437284164
4.559426633831391 2.606725900793892 5.6948837644000365
4.74079415790506 3.4543767850159894 6.227063108171876
4.737167636869082 9.316786558645049 7.794199633536121
4.455621735092448 9.273955286878145 8.33247557246586
5.041203268849828 1.238574296970595 1.96697874847038
4.787892883656436 1.5854544601151663 1.5774602936281679
5.05235035850591 0.791246084909606 1.7451321178215
4.7072039256123634 1.0249689639160566 1.4062361809684483
4.877696607210686 2.124928503682796 8.133636485619189
4.967768406241042 1.9895216203433599 6.797062319375383
4.9769508912707625 1.734688957105308 7.161694799295968
4.735062855695232 1.7521180896799038 7.7840015842747
4.541486164488293 1.982407845548095 7.339722614320558
4.882894218000474 2.810036935823225 7.5129923674527115
4.668256563668774 2.528701646068428 8.004465555147714
4.917034085063758 7.856309628249278 0.9697738008360319
4.836348858950417 6.869064130667268 0.8383703201466366
4.613257623520063 7.373693033528297 1.0797140560712517
5.01346660960156 7.655037536791155 0.41784060173341997
4.74830580434137 0.499616894704372 1.111293718136868
5.101253016154268 0.9673720384938117 7.259206074342511
4.820238410271756 0.9006389276051999 6.333554369358846
4.8566255285611115 1.5045230254917168 6.4823652436266235
4.496475568025444 1.414676173398328 7.028108096965032
4.7614493063766306 1.290412417747332 7.478532118001202
4.551266499299588 1.356267054862885 9.373107999846368
4.713489762942488 2.3424620199369564 9.4437051690691
4.720741104839751 1.9417319220285478 9.070567666610255
4.81883496873255 7.56700928807917 1.620521395247358
4.282256898851321 7.3376310110676 1.8307625964431147
4.563877691016271 7.951095627050759 1.2902117197208542
4.7507789985361555 5.108145138314608 4.941571686872704
4.637054199085138 5.728420816705862 4.065816508276673
4.526544938586042 6.054698201436767 4.432679116346445
4.5111164763178335 5.2077490533805415 4.248680673865796
4.823979256739776 0.46641276123537 9.728861615487805
4.695624969058076 0.66438855269781 5.175848814173804
4.598495735301254 9.413159012385645 2.3898657120796534
4.642563774184967 8.918836824939346 3.0650621072023436
4.75300530893769 8.80964831769207 2.60450044156201
5.034621816441262 0.46934121251996797 7.869543688684611
4.6076617153838315 5.007817323981352 8.173761345878729
4.603826782462394 4.807701872280569 7.643727560196052
4.821197257865353 5.315853344342127 7.476932193755512
4.943702484033035 4.118076367566054 0.27347522442416
4.855484469016055 4.673982240510652 0.1142348810140575
4.829257190236246 4.943438452557308 0.7435791250562858
5.0117891033606945 4.75624697426712 1.261796093377765
4.534407435206932 4.560588007075549 1.2123797226083382
4.5860920741256885 4.01096245195387 0.7676228387167182
4.936001631780994 8.262770026679352 5.012246978438687
4.703034541451107 9.32245391525303 5.031069692840618
4.560686674599557 8.655684018499539 5.437470340041882
4.74723371297523 9.093615009432902 5.603432670197232
5.017400123268064 8.54888909402139 4.5018194802426
4.999660270162236 7.86921789275936 2.077262714586483
4.900114113365895 7.410914676061875 2.048629168292115
4.652952199574925 2.1406803360545075 4.419485127560872
4.475751058263307 2.49093979331562 4.9005605919052515
4.67847439264777 3.2006765052789086 4.229899021172182
4.780741894696687 3.5156284588042674 4.539186005704205
4.803555517338504 3.1518704546664558 4.889681062018296
4.900670822149038 2.6111111550059602 4.095429253811607
4.453612675638144 1.766394288307854 6.577814634572666
5.176839185672134 2.1541271678367497 0.76554040084536
4.603749052819676 2.030089214167206 0.9399221562873941
4.6486394837713 2.168561774968792 1.4588235715947981
5.13853736255199 2.8251383076938166 1.031787321498635
4.662758440224848 2.765691853656718 1.442187721939312
4.613706833873238 0.778346703921006 0.902632686726496
4.3093628211164985 0.5892725757792043 1.6653382225172386
4.264402849635638 1.7191525704872561 1.322597737380396
4.4718228930325 2.533717238097652 1.805023428030534
4.637209971925595 3.358854491817304 8.726127924665429
4.63195815843142 2.8315755087825334 8.998319562726694
4.626597350812249 3.112427289585108 7.9147983874614365
4.754730520831805 2.3638585699487558 8.600926681223171
4.5303340406720745 8.406149296065767 2.8399201448315736
4.777356995072489 8.397012537928608 3.708012489843275
4.460954988681613 8.050446185353797 3.308295884119218
4.601853527467452 6.694959244527884 3.605478243296144
4.331518376168614 6.204399429500843 3.7710935669014916
4.762334942989396 6.909030447912149 4.046078904040345
4.598105618090218 0.841752562520534 2.108029095767816
4.6263851022035505 9.848860316579184 1.9396986052390766
4.784634449109942 6.541742128689198 8.466960377409341
4.502241326253948 7.0594112385102 8.195633143891909
4.744386012862008 6.910960169628718 7.678917538243515
4.505897768271865 2.896153779354268 5.297932545152949
4.633957639254566 1.940532367647532 5.134428658722504
4.966975851002972 2.622845335728945 3.1504391739926216
4.809863797850629 2.982904314764257 3.640320080361477
4.548896734173766 2.278339465701694 3.4105471079944456
4.728334991017935 2.0911321775957137 3.876442842061386
5.152318170583244 2.099273891247824 3.43304583784439
4.9502758409541565 4.448643599255937 6.310621603243562
4.732789995805564 4.38568980444198 5.764454670141331
4.9946453390551095 4.128329000894849 6.792075262237843
4.807109531239161 3.7733426782771695 5.735557138706215
4.963257952781678 3.112991780235988 1.4809465682008223
4.436540530444775 3.3568300850423896 1.34273839106146
4.799159575737548 3.631506761840992 1.6801955748104622
4.802439330450092 7.502922093439919 7.817952767075225
4.7633832696553124 7.313913236326632 6.615618369919663
4.516232197831742 2.228670949077262 2.768635204365697
4.796077184350148 3.1432006753105797 3.1241153397125
4.805737699561962 3.279161425655174 2.7327375145885258
4.982963575530132 5.352804685048921 1.8070509469798866
4.744377502920908 5.415861427278389 1.272354777950794
4.6235356341854414 5.929255188475969 1.2939768407535182
4.5626705772729625 5.238411987146757 2.271923816447676
4.597574543440742 5.38059078625292 3.06875649734889
4.939382568415988 4.580739572813497 3.202890573929416
4.776220800745311 4.394614622960037 2.6890117734921315
4.542580997243208 4.887454188615792 3.32575261545362
4.992589750424939 4.884551273405153 2.3388371558274836
4.455396321366106 4.66465152284395 2.2682440068598497
4.662605497729784 1.054429185183832 8.646524894505614
4.873817988765508 1.5288435729547978 8.385724331962294
4.714802357099468 0.685776517262848 8.251647070889828
4.76502080889815 1.7936583956158718 3.2458663774983756
5.025718767956068 1.3496096958882402 3.4821414039443894
5.07430801909437 1.538812746471055 2.7743781067532964
5.0405655381411565 6.15299220186005 8.761237155830864
4.905764053598385 5.278171957142087 9.15365262220884
5.124641508955505 5.784219555500559 9.299782225806318
4.653631997665072 5.239101937194101 8.69186462578622
4.557345862259153 8.964924506375198 5.94394723358978
4.7380832565924145 0.17025090210769 6.009402411328988
4.968292490792068 8.940475284669239 6.04029355913722
5.069589272870091 4.126447996681184 3.0377287108685302
5.039994311538093 4.00757660591555 2.085968345137668
4.85677494743788 7.930006848958745 3.65514630456666
4.943549875359535 7.419829147388463 3.5649329915999846
4.694577246772807 7.8315030637875696 2.728076186384096
4.524370966093944 7.3870586279449615 2.732206855746896
4.691755165165816 7.099717694002132 3.199698363363674
4.947087207929712 8.045951488044391 4.518531752867314
4.669215455521085 7.974986089141117 4.112443668873897
5.229179359864964 7.801765651016239 3.971799522099803
4.309555782863785 5.413004133557958 3.6136227890210084
4.755738599624905 4.589233419129462 3.6843143596027774
5.115910444800142 7.863707874505037 6.045008622298144
4.791927321302173 8.428473677107528 5.9401156357557925
4.951679078075728 9.137487157000953 8.226671399949703
4.8392459074519065 0.309275201998556 5.398764287740498
4.841014622446808 1.387275629499404 8.90947090418166
5.122732979561432 2.390397855749078 9.048476721782219
4.398685640585402 7.754014084250767 8.814958633784174
4.529275462349468 7.846987274603252 8.129646030389775
4.941465285751427 7.11156866893766 8.65118456417039
4.617708891399786 2.9135385694651097 7.03368197863055
4.544988626168072 3.874948142839748 7.356341375702148
5.0507431557178535 3.8404644713088274 7.171621253641701
4.701263889489388 1.261312145412638 5.913346081615893
4.832729764130482 1.634387459459358 5.52249194924766
4.59646293835813 2.1768089896356897 6.381002614133092
5.019429342220976 5.1193251685743295 1.26834661255625
4.77691054295157 4.718825137330643 1.734473204796095
4.903353403496344 4.88926434822457 5.844521906002489
4.7861939300309375 4.154544470205915 5.36294182893657
4.776459928596586 4.513980887620778 4.978537141780273
5.0327837289766775 5.191359406274153 5.340983793348685
4.781686009821755 6.325557013511793 5.568072153521314
4.868318227284937 6.641873128338631 5.9270901442862645
4.926017147073085 6.331953588384883 6.398721185947852
5.028932888599814 5.736505793687655 5.648320285836982
4.687789192519506 5.736115587393503 6.556569673197694
4.620889373307138 6.871578289321578 2.665019531100076
4.618614898753444 6.2864124873412575 3.29349566824999
4.525815122591682 6.430659993537998 2.731844413032152
4.727736051224454 7.388345185998334 4.25490828168722
4.792487290404535 4.442068499669943 7.213341715906147
4.789350305010169 1.808005856318318 0.5713105252330901
4.627538290587383 1.307367633936018 0.616294693318322
4.982363523126167 5.106532883364484 6.7159106524543
5.0055366790187925 6.064089450136425 6.887426250335988
5.007790691256475 0.5079207182976967 3.6883283132220086
4.842801730712966 3.4070870054705598 0.8614147307665201
4.636421856996556 3.712780086789478 0.320222898657668
4.736708208211428 3.7805687693290904 1.2485343341799924
4.69591658439417 7.716398107136573 9.280044946598851
4.823704817295804 8.325318805807633 9.330000823412401
5.147700646149678 6.973028827989592 6.319024027853317
4.388340122782833 9.45205669967763 8.947860060310335
4.764949184311276 6.906875412351466 5.5632814981162735
4.967188152705891 7.5009702088792345 5.5489167913512505
4.558027820863265 4.88739817358182 8.928702037502882
4.661308376338132 4.344836389535768 9.224345751398449
4.584218587721052 8.825995003363257 2.053361381714976
5.028697549856783 5.986826114113148 5.21776233403134
4.800751425017768 6.219119308535038 0.29618192904506
4.854626121994299 8.32687975876822 8.243914065006239
4.986061766911724 8.677213439986618 8.617332429966758
4.908316444086582 1.0445840804362259 5.3403358444582505
4.633493574897136 7.6418251933023935 4.663152222324624
5.052584169429691 0.9793718403731333 2.5710384796745536
5.0288731496676755 0.808732559234232 3.2158603594857
4.936496575012932 7.122833726913758 5.041417644283341
5.130705959493527 1.149855977575176 4.285154596940728
4.710344294022716 1.5925240612889453 4.5983735324504975
5.021154170535328 3.336333459964282 9.621829647406644
5.041302791442916 3.88682959622248 9.384162268605232
5.2744772360324825 4.60519484079238 6.745699891057417
4.959549855875938 3.3455414535681456 9.123736240902009
4.452456122307209 1.559992326237608 2.8144871166009704
4.987592960717488 6.969268866078462 9.194914186772893
4.799306054956623 3.8461010509643665 4.925582345767622
4.7063988315805485 3.763973310803434 4.199807205659003
4.983900126983175 4.27930205938478 4.043528896439862
4.729672086948883 4.119139996182608 1.625295651502146
4.583034561698342 1.117337418670272 3.06813516204233
4.6097967708835075 1.3323846724579287 3.9622754465359558
4.94436627367 3.8394734447042382 3.661348987701314
4.538809977998755 4.3895244376903895 8.706508381820408
4.907908264086694 8.245151536093816 7.616123389328024
4.798870197215616 5.872492942683857 0.7977574852317217
4.888932513678846 0.9219838841177921 9.80534787701075
5.051013652341657 0.34133873037476203 9.328697856920249
4.765270321960972 0.491100460130514 8.811146698779988
4.844020200751521 9.61008730056876 8.550378121630189
4.99934620698472 8.864781804126503 9.159394626227014
4.540665958896875 8.701695921527792 8.377906135752422
4.948654672563128 9.458128475660299 9.140911280851137
5.006126115733811 8.838445545974986 0.93377768614666
5.0426078611180065 6.8986344461881295 6.988786286126341
4.582879362404733 1.6195841982462948 2.120150002165523
4.9259408582130515 8.300035762851273 0.626482033008998
4.667570366260851 7.645924178707576 2.3011068694724277
5.075903615573146 4.185137257074794 1.090237350220515
4.865150895472736 7.461823686810353 8.94835112612316
4.611070491732252 8.04013963488087 9.69813880169003
4.611814266790172 2.8454940538198037 2.2303766503483615
4.601736272397329 4.176330538156778 2.166420883763546
4.949029141857104 5.672557933503266 2.142178573938274
5.007425083603009 5.498239189193153 8.34413650850332
4.815460997771334 4.870673271937123 4.523832828109132
4.914178325059749 5.380607724837462 6.131735721215071
5.163957088211144 7.0189088600135365 3.5240777295556365
4.9968198866419575 6.91967199703345 4.563204313636028
4.732315551946729 0.7747461641685166 4.183339279528869
4.776808274477418 8.152272173567928 8.879339849168668
4.7937377380872155 1.488558212743606 1.132563851053794
4.676240983094306 2.4080036231894275 7.082800829203789
4.721397321799529 8.926389482303238 1.4388013236455302
4.562793781476218 2.2558346684880997 2.257764849961036
4.634910386158724 7.024181585858356 1.5063433716126982
5.064922945213854 5.535017165425655 5.019614815972974
4.975972517617899 0.914584169013932 7.833765143545382
4.661364920151529 9.398007925001583 3.4226318560697377
4.615402909193868 4.649025541926339 4.1652028008546065
4.802776500692104 0.9871663893089799 4.753885036589132
5.036011021091163 7.806441504506868 8.432279842166539
5.0873842646461895 1.104905190784204 1.0148617992131181
4.4587246940144984 8.551015149832601 9.028793911551228
4.716992609342974 3.594612824450478 3.147314524142728
4.8995524997158455 6.55929376151265 2.4517407896299055
4.6622919932026345 9.08410651923702 4.5158969283928
4.574369072100695 6.538886237946546 4.600679599595675
4.843641699118668 8.808207700155858 7.830847695199485
5.125173782139453 5.716008086629411 7.846829185954122
4.500652659404406 7.074779309323093 4.7362346302586715
4.884794725890635 1.7472743660047125 3.7279515838822324
4.6773681034387 5.860717240320447 7.989139109930235
4.90151956411928 6.375421405190198 9.342596592465355
5.012360178037783 9.27395962220941 1.2664322670134425
4.663733618801038 9.569832840065915 4.551678282556763
4.797607688737413 5.989831677479734 8.361131539819809
4.8874277506789925 2.0382089949942204 4.76440060327983
4.565712806532906 4.867901626610518 7.115132424766095
5.0455538658022725 4.900529290928132 7.165406729471263
4.74534574282785 3.426389167807775 8.219508895704191
4.6365235524457065 8.071266311565989 5.3924502951758395
4.886949092292847 6.056823290446792 4.798550821342603
4.939077857307714 9.67791330276725 3.8024585946785776
4.5089476847418055 2.0799821058480767 5.702284251773238
4.559660366930428 7.858607388902454 5.887920344533337
4.515103743515781 0.6823762487520441 3.1868813767786244
4.832292212924912 3.7001600177294214 6.8095761335455505
4.85048704163445 1.935252159249255 2.517924733318792
4.5182007167019345 0.35374464946255996 9.29743695297723
4.565732040543813 3.572525950364922 2.2397829628028
4.470561457214858 7.904232182420756 1.7972021081500038
5.09014260804421 6.199629239800626 2.2628010598806183
4.6387331552643305 5.381708524537992 5.754485583522362
4.725687636061152 8.343650277470903 1.6821241791690098
4.676508305099087 7.792745703056467 7.612744155011508
POLYGONS 979 3916
3 215 793 255
3 255 793 200
3 762 793 215
3 1 794 2
3 2 794 3
3 3 794 215
3 215 794 762
3 757 795 723
3 723 795 405
3 412 796 464
3 464 796 213
3 213 796 6
3 7 797 370
3 370 797 419
3 419 797 458
3 419 798 458
3 549 798 419
3 565 799 370
3 370 799 7
3 328 800 390
3 390 800 192
3 192 800 632
3 582 801 628
3 628 801 632
3 632 801 192
3 421 802 422
3 422 802 573
3 573 802 523
3 12 803 340
3 340 803 725
3 339 804 340
3 340 804 12
3 252 804 339
3 377 805 378
3 378 805 339
3 339 805 252
3 340 806 725
3 725 806 724
3 16 807 14
3 231 807 16
3 16 808 14
3 17 808 16
3 17 809 16
3 16 809 231
3 21 810 652
3 652 810 640
3 640 810 206
3 21 811 22
3 652 811 21
3 21 812 22
3 22 812 23
3 23 812 291
3 23 813 291
3 291 813 485
3 485 813 486
3 477 814 478
3 640 814 206
3 206 814 477
3 28 815 29
3 29 815 521
3 608 815 380
3 380 815 28
3 228 816 274
3 274 816 246
3 274 817 228
3 228 817 317
3 317 817 26
3 30 818 246
3 246 818 274
3 50 819 51
3 51 819 717
3 779 819 777
3 777 819 50
3 49 820 201
3 201 820 586
3 586 820 46
3 51 821 46
3 46 821 586
3 717 821 51
3 47 822 777
3 777 822 779
3 47 823 49
3 777 823 47
3 47 824 49
3 49 824 201
3 530 825 456
3 456 825 423
3 423 825 55
3 54 826 356
3 356 826 456
3 456 826 530
3 49 827 201
3 201 827 54
3 54 827 356
3 47 828 49
3 431 828 47
3 423 829 55
3 55 829 430
3 430 829 431
3 47 830 431
3 431 830 430
3 56 831 195
3 195 831 197
3 484 831 56
3 61 832 57
3 197 832 195
3 195 832 61
3 61 833 57
3 57 833 64
3 64 833 63
3 58 834 55
3 55 834 423
3 66 835 263
3 263 835 442
3 327 835 326
3 326 835 66
3 67 836 218
3 218 836 443
3 443 836 281
3 281 836 747
3 724 837 725
3 725 837 327
3 67 838 218
3 218 838 69
3 69 838 724
3 724 838 721
3 280 839 281
3 281 839 747
3 230 840 459
3 459 840 7
3 7 840 413
3 43 841 458
3 458 841 459
3 459 841 230
3 370 842 7
3 7 842 413
3 419 843 458
3 458 843 43
3 358 844 307
3 307 844 548
3 494 845 495
3 495 845 427
3 74 846 519
3 519 846 518
3 518 846 552
3 519 847 74
3 74 847 635
3 635 847 634
3 556 848 552
3 552 848 518
3 75 849 78
3 480 849 80
3 80 849 75
3 552 850 556
3 556 850 78
3 78 850 75
3 635 851 634
3 634 851 480
3 480 851 80
3 83 852 58
3 58 852 55
3 347 852 83
3 83 853 276
3 347 853 83
3 315 854 672
3 672 854 674
3 674 854 512
3 222 855 223
3 223 855 672
3 672 855 315
3 512 856 674
3 674 856 504
3 336 857 418
3 418 857 504
3 504 857 674
3 86 858 89
3 89 858 334
3 334 858 366
3 540 859 234
3 234 859 93
3 88 860 87
3 87 860 93
3 86 861 89
3 87 861 88
3 88 861 86
3 93 862 87
3 234 862 93
3 92 863 90
3 90 863 546
3 546 863 539
3 90 864 92
3 92 864 366
3 366 864 334
3 203 865 359
3 359 865 186
3 500 865 203
3 281 866 747
3 215 866 762
3 762 866 763
3 763 866 281
3 280 867 281
3 203 867 500
3 500 867 280
3 1 868 2
3 186 868 359
3 359 868 1
3 4 869 504
3 504 869 418
3 418 869 95
3 61 870 57
3 57 870 272
3 272 870 273
3 197 871 198
3 198 871 503
3 195 871 197
3 93 872 100
3 100 872 198
3 198 872 503
3 93 873 87
3 100 873 93
3 87 874 88
3 88 874 273
3 273 874 272
3 287 875 289
3 289 875 401
3 401 875 713
3 102 876 103
3 103 876 220
3 220 876 380
3 380 876 608
3 102 877 103
3 103 877 289
3 289 877 287
3 767 878 687
3 687 878 263
3 442 879 263
3 263 879 687
3 203 880 500
3 500 880 767
3 767 880 768
3 791 881 728
3 728 881 729
3 729 881 202
3 108 882 650
3 650 882 678
3 678 882 285
3 285 882 109
3 490 883 656
3 656 883 650
3 650 883 108
3 331 884 332
3 332 884 285
3 285 884 109
3 32 885 699
3 699 885 708
3 708 885 669
3 669 885 31
3 292 886 432
3 432 886 371
3 371 886 572
3 114 887 185
3 185 887 184
3 184 887 71
3 71 887 681
3 628 888 629
3 629 888 115
3 115 888 667
3 582 888 628
3 72 889 115
3 115 889 667
3 681 889 71
3 71 889 72
3 63 890 64
3 64 890 322
3 322 890 695
3 496 891 653
3 653 891 652
3 652 891 21
3 21 892 22
3 22 892 508
3 508 892 491
3 38 893 370
3 370 893 565
3 508 893 491
3 491 893 38
3 247 894 394
3 394 894 278
3 278 894 313
3 121 895 120
3 120 895 278
3 278 895 313
3 117 896 118
3 118 896 560
3 560 896 561
3 561 896 120
3 120 896 121
3 117 897 118
3 118 897 250
3 250 898 251
3 118 898 250
3 189 899 247
3 247 899 394
3 251 899 189
3 129 900 199
3 199 900 612
3 612 900 475
3 126 901 128
3 435 901 436
3 436 901 363
3 363 901 126
3 123 902 127
3 127 902 475
3 475 902 612
3 123 903 127
3 127 903 125
3 125 903 126
3 126 903 128
3 129 904 199
3 199 904 390
3 390 904 328
3 264 905 687
3 687 905 767
3 263 906 687
3 687 906 264
3 399 907 204
3 204 907 515
3 515 907 438
3 303 908 302
3 302 908 437
3 437 908 438
3 362 909 714
3 714 909 715
3 715 909 135
3 135 910 137
3 137 910 471
3 715 910 135
3 302 911 303
3 303 911 137
3 137 911 471
3 362 912 399
3 399 912 204
3 714 912 362
3 93 913 100
3 234 913 93
3 26 914 317
3 429 914 26
3 139 915 222
3 222 915 429
3 429 915 26
3 84 916 222
3 222 916 139
3 232 916 233
3 233 916 84
3 138 917 305
3 305 917 274
3 274 917 228
3 232 918 233
3 233 918 138
3 138 918 305
3 336 919 418
3 418 919 95
3 4 920 504
3 504 920 674
3 222 921 223
3 139 921 222
3 232 922 233
3 233 922 397
3 397 922 425
3 477 923 478
3 478 923 140
3 140 923 516
3 140 924 367
3 367 924 102
3 516 924 140
3 92 925 90
3 485 925 486
3 486 925 92
3 102 926 367
3 367 926 366
3 366 926 334
3 115 927 142
3 142 927 784
3 667 927 115
3 261 928 262
3 262 928 323
3 632 928 192
3 192 928 261
3 262 929 323
3 323 929 142
3 142 929 784
3 528 930 529
3 744 930 53
3 53 930 528
3 744 931 53
3 53 931 650
3 650 931 108
3 528 932 529
3 627 932 457
3 457 932 528
3 674 933 512
3 512 933 286
3 114 934 185
3 185 934 473
3 473 934 213
3 213 934 6
3 410 935 434
3 434 935 550
3 756 935 749
3 749 935 410
3 749 936 756
3 756 936 754
3 754 936 42
3 42 937 754
3 754 937 753
3 753 937 458
3 458 937 43
3 75 938 78
3 78 938 302
3 302 938 303
3 437 939 438
3 576 939 557
3 557 939 437
3 499 940 739
3 739 940 740
3 740 940 196
3 362 941 714
3 499 941 739
3 739 941 742
3 742 941 362
3 196 942 387
3 740 942 196
3 387 943 440
3 440 943 204
3 204 943 399
3 196 944 387
3 387 944 440
3 150 945 149
3 149 945 260
3 260 945 132
3 538 945 150
3 260 946 132
3 132 946 396
3 396 946 237
3 150 947 538
3 626 947 661
3 661 947 150
3 237 948 238
3 238 948 80
3 80 948 480
3 396 948 237
3 153 949 305
3 305 949 138
3 153 950 151
3 305 950 153
3 153 951 151
3 151 951 683
3 683 951 682
3 42 952 754
3 778 952 780
3 780 952 42
3 51 953 381
3 381 953 231
3 717 953 51
3 649 954 638
3 638 954 196
3 196 954 740
3 316 955 524
3 499 955 739
3 739 955 316
3 316 956 524
3 692 956 691
3 691 956 316
3 282 957 283
3 283 957 415
3 377 957 282
3 283 958 415
3 415 958 107
3 107 958 655
3 67 959 107
3 107 959 655
3 218 959 67
3 282 960 377
3 377 960 378
3 159 961 113
3 339 961 252
3 252 961 159
3 158 962 160
3 350 962 224
3 224 962 158
3 224 963 350
3 460 963 329
3 329 963 392
3 392 963 224
3 159 964 113
3 158 964 160
3 160 964 159
3 460 965 282
3 282 965 377
3 329 966 460
3 460 966 282
3 445 967 696
3 696 967 701
3 701 967 288
3 86 968 89
3 89 968 288
3 288 968 701
3 445 969 696
3 696 969 695
3 695 969 322
3 196 970 387
3 706 970 638
3 638 970 196
3 164 971 706
3 706 971 707
3 707 971 441
3 164 972 706
3 706 972 638
3 183 973 406
3 406 973 448
3 550 973 434
3 434 973 183
3 645 974 617
3 617 974 236
3 236 974 166
3 166 975 236
3 236 975 406
3 406 975 448
3 496 976 653
3 653 976 645
3 645 976 617
3 54 977 127
3 127 977 123
3 208 978 209
3 209 978 168
3 484 978 56
3 56 978 208
3 356 979 54
3 54 979 127
3 350 980 224
3 224 980 355
3 355 980 525
3 461 981 683
3 683 981 682
3 170 982 262
3 262 982 323
3 324 982 170
3 324 983 170
3 170 983 644
3 644 983 529
3 529 983 207
3 104 984 142
3 142 984 784
3 188 984 265
3 265 984 104
3 169 985 205
3 205 985 265
3 265 985 188
3 169 986 205
3 205 986 207
3 207 986 529
3 171 987 157
3 157 987 199
3 199 987 129
3 171 988 157
3 170 988 171
3 171 989 170
3 170 989 324
3 113 990 159
3 159 990 285
3 285 990 109
3 158 991 160
3 160 991 319
3 319 991 320
3 599 992 586
3 586 992 46
3 54 993 127
3 599 993 586
3 586 993 201
3 201 993 54
3 348 994 347
3 347 994 83
3 168 995 209
3 371 995 572
3 572 995 168
3 287 996 288
3 288 996 701
3 289 996 287
3 102 997 103
3 367 997 102
3 346 998 541
3 759 998 346
3 520 999 541
3 780 999 778
3 778 999 520
3 637 1000 760
3 760 1000 749
3 749 1000 756
3 546 1001 539
3 539 1001 519
3 519 1001 74
3 23 1002 291
3 661 1002 23
3 626 1003 661
3 661 1003 23
3 173 1004 98
3 198 1004 503
3 503 1004 173
3 173 1005 98
3 98 1005 576
3 576 1005 557
3 234 1006 540
3 540 1006 518
3 518 1006 552
3 117 1007 118
3 118 1007 283
3 283 1007 415
3 118 1008 250
3 460 1008 282
3 282 1008 283
3 283 1008 118
3 726 1009 727
3 727 1009 260
3 260 1009 132
3 237 1010 396
3 775 1010 772
3 772 1010 237
3 202 1011 729
3 775 1011 772
3 772 1011 769
3 769 1011 202
3 728 1012 791
3 791 1012 792
3 792 1012 726
3 148 1013 17
3 17 1013 18
3 18 1013 738
3 738 1013 147
3 16 1014 17
3 17 1014 148
3 16 1015 14
3 14 1015 413
3 413 1015 391
3 726 1016 792
3 792 1016 738
3 738 1016 147
3 533 1017 453
3 453 1017 391
3 391 1017 413
3 169 1018 205
3 205 1018 326
3 326 1018 327
3 12 1019 53
3 53 1019 744
3 340 1019 12
3 340 1020 725
3 725 1020 327
3 171 1021 170
3 627 1021 374
3 374 1021 171
3 508 1022 509
3 509 1022 150
3 150 1022 661
3 661 1022 23
3 26 1023 429
3 492 1023 226
3 226 1023 507
3 507 1023 26
3 336 1024 492
3 492 1024 226
3 453 1025 533
3 533 1025 547
3 547 1025 509
3 509 1025 466
3 391 1026 413
3 413 1026 7
3 216 1027 584
3 584 1027 624
3 624 1027 630
3 246 1028 274
3 274 1028 305
3 305 1028 153
3 246 1029 247
3 247 1029 394
3 30 1029 246
3 153 1030 151
3 251 1030 189
3 189 1030 153
3 217 1031 296
3 296 1031 190
3 759 1031 346
3 346 1031 217
3 296 1032 451
3 451 1032 427
3 427 1032 452
3 16 1033 231
3 231 1033 381
3 276 1034 277
3 277 1034 494
3 17 1035 148
3 148 1035 568
3 568 1035 337
3 568 1036 337
3 337 1036 600
3 600 1036 599
3 617 1037 645
3 645 1037 646
3 646 1037 176
3 177 1038 369
3 369 1038 646
3 646 1038 176
3 681 1039 71
3 71 1039 773
3 773 1039 774
3 488 1040 737
3 737 1040 738
3 738 1040 147
3 179 1041 200
3 200 1041 255
3 610 1041 179
3 348 1042 542
3 542 1042 541
3 541 1042 520
3 452 1043 542
3 542 1043 348
3 432 1044 292
3 292 1044 98
3 98 1044 173
3 157 1045 171
3 171 1045 374
3 374 1045 375
3 164 1046 631
3 631 1046 286
3 286 1046 512
3 164 1047 631
3 631 1047 630
3 374 1048 375
3 375 1048 337
3 337 1048 568
3 433 1049 621
3 621 1049 402
3 438 1050 515
3 515 1050 402
3 402 1050 621
3 517 1051 521
3 521 1051 29
3 595 1051 517
3 177 1052 369
3 595 1052 517
3 517 1052 177
3 466 1053 509
3 509 1053 150
3 150 1053 538
3 516 1054 517
3 517 1054 595
3 140 1054 516
3 649 1055 638
3 638 1055 706
3 637 1056 760
3 760 1056 757
3 757 1056 723
3 137 1057 471
3 775 1057 772
3 772 1057 771
3 771 1057 137
3 135 1058 715
3 715 1058 711
3 711 1058 221
3 319 1059 320
3 320 1059 221
3 221 1059 711
3 250 1060 251
3 683 1060 461
3 461 1060 250
3 164 1061 631
3 706 1061 164
3 402 1062 441
3 441 1062 707
3 621 1062 402
3 221 1063 355
3 355 1063 525
3 711 1063 221
3 206 1064 640
3 640 1064 646
3 646 1064 176
3 431 1065 47
3 47 1065 777
3 610 1066 179
3 179 1066 651
3 651 1066 655
3 655 1066 107
3 401 1067 713
3 713 1067 699
3 699 1067 32
3 31 1068 669
3 669 1068 664
3 663 1069 664
3 664 1069 155
3 155 1069 696
3 696 1069 445
3 276 1070 277
3 83 1070 276
3 427 1071 452
3 495 1071 427
3 347 1072 348
3 348 1072 542
3 495 1073 494
3 494 1073 277
3 526 1074 412
3 412 1074 548
3 548 1074 307
3 230 1075 231
3 231 1075 381
3 459 1075 230
3 648 1076 649
3 672 1076 315
3 315 1076 648
3 186 1077 359
3 359 1077 358
3 358 1077 307
3 264 1078 265
3 265 1078 188
3 687 1078 264
3 250 1079 251
3 251 1079 189
3 637 1080 760
3 760 1080 759
3 759 1080 346
3 451 1081 296
3 296 1081 190
3 397 1082 398
3 398 1082 692
3 692 1082 691
3 425 1082 397
3 460 1083 461
3 461 1083 683
3 329 1083 460
3 377 1084 378
3 378 1084 724
3 724 1084 721
3 439 1085 496
3 496 1085 653
3 549 1085 439
3 331 1086 332
3 729 1086 202
3 202 1086 331
3 726 1087 727
3 727 1087 533
3 533 1087 453
3 528 1088 529
3 529 1088 207
3 374 1089 627
3 627 1089 457
3 216 1090 433
3 433 1090 621
3 584 1090 216
3 346 1091 541
3 541 1091 542
3 542 1091 452
3 222 1092 223
3 223 1092 336
3 336 1092 492
3 539 1093 540
3 540 1093 234
3 546 1093 539
3 412 1094 526
3 526 1094 773
3 773 1094 774
3 649 1095 648
3 648 1095 397
3 397 1095 425
3 280 1096 281
3 442 1096 263
3 263 1096 280
3 488 1097 737
3 737 1097 791
3 791 1097 728
3 272 1098 273
3 695 1098 322
3 322 1098 272
3 562 1099 563
3 582 1099 628
3 628 1099 562
3 319 1100 320
3 331 1100 332
3 332 1100 319
3 433 1101 621
3 621 1101 620
3 620 1101 292
3 292 1101 432
3 520 1102 541
3 541 1102 346
3 336 1103 418
3 492 1103 336
3 427 1104 452
3 452 1104 542
3 355 1105 525
3 525 1105 524
3 524 1105 316
3 326 1106 327
3 327 1106 725
3 390 1107 328
3 328 1107 436
3 436 1107 435
3 457 1108 627
3 490 1108 656
3 656 1108 457
3 347 1109 348
3 431 1109 430
3 430 1109 347
3 370 1110 419
3 419 1110 549
3 565 1110 370
3 374 1111 375
3 627 1111 374
3 441 1112 707
3 707 1112 387
3 387 1112 440
3 439 1113 549
3 549 1113 419
3 405 1114 406
3 406 1114 448
3 723 1114 405
3 412 1115 464
3 526 1115 412
3 421 1116 422
3 422 1116 436
3 436 1116 435
3 434 1117 439
3 439 1117 549
3 550 1117 434
3 437 1118 438
3 438 1118 515
3 508 1119 509
3 491 1119 508
3 466 1120 509
3 509 1120 508
3 477 1121 478
3 478 1121 486
3 486 1121 485
3 599 1122 600
3 612 1122 475
3 475 1122 599
3 488 1123 737
3 737 1123 490
3 490 1123 656
3 562 1124 563
3 563 1124 523
3 523 1124 573
3 556 1125 557
3 557 1125 576
3 552 1125 556
3 600 1126 599
3 599 1126 586
3 630 1127 631
3 624 1127 630
3 634 1128 635
3 635 1128 662
3 662 1128 661
3 661 1128 626
3 648 1129 649
3 649 1129 638
3 663 1130 664
3 664 1130 669
3 682 1131 683
3 691 1131 692
3 692 1131 682
3 768 1132 767
3 767 1132 687
3 724 1133 725
3 721 1133 724
3 726 1134 727
3 792 1134 726
3 767 1135 768
3 774 1135 773
3 773 1135 761
3 761 1135 767
3 777 1136 778
3 778 1136 780
3 779 1136 777
CELL_DATA 979
SCALARS cell_scalars int 1
LOOKUP_TABLE default
0 0 0 0 0 0 0 0 0 0 0 0 0 0 0 0 0 0 0 0 0 0 0 0 0 0 0 0 0 0 0 0 0 0 0 0 0 0 0 0 0 0 0 0 0 0 0 0 0 0 0 0 0 0 0 0 0 0 0 0 0 0 0 0 0 0 0 0 0 0 0 0 0 0 0 0 0 0 0 0 0 0 0 0 0 0 0 0 0 0 0 0 0 0 0 0 0 0 0 0 0 0 0 0 0 0 0 0 0 0 0 0 0 0 0 0 0 0 0 0 0 0 0 0 0 0 0 0 0 0 0 0 0 0 0 0 0 0 0 0 0 0 0 0 0 0 0 0 0 0 0 0 0 0 0 0 0 0 0 0 0 0 0 0 0 0 0 0 0 0 0 0 0 0 0 0 0 0 0 0 0 0 0 0 0 0 0 0 0 0 0 0 0 0 0 0 0 0 0 0 0 0 0 0 0 0 0 0 0 0 0 0 0 0 0 0 0 0 0 0 0 0 0 0 0 0 0 0 0 0 0 0 0 0 0 0 0 0 0 0 0 0 0 0 0 0 0 0 0 0 0 0 0 0 0 0 0 0 0 0 0 0 0 0 0 0 0 0 0 0 0 0 0 0 0 0 0 0 0 0 0 0 0 0 0 0 0 0 0 0 0 0 0 0 0 0 0 0 0 0 0 0 0 0 0 0 0 0 0 0 0 0 0 0 0 0 0 0 0 0 0 0 0 0 0 0 0 0 0 0 0 0 0 0 0 0 0 0 0 0 0 0 0 0 0 0 0 0 0 0 0 0 0 0 0 0 0 0 0 0 0 0 0 0 0 0 0 0 0 0 0 0 0 0 0 0 0 0 0 0 0 0 0 0 0 0 0 0 0 0 0 0 0 0 0 0 0 0 0 0 0 0 0 0 0 0 0 0 0 0 0 0 0 0 0 0 0 0 0 0 0 0 0 0 0 0 0 0 0 0 0 0 0 0 0 0 0 0 0 0 0 0 0 0 0 0 0 0 0 0 0 0 0 0 0 0 0 0 0 0 0 0 0 0 0 0 0 0 0 0 0 0 0 0 0 0 0 0 0 0 0 0 0 0 0 0 0 0 0 0 0 0 0 0 0 0 0 0 0 0 0 0 0 0 0 0 0 0 0 0 0 0 0 0 0 0 0 0 0 0 0 0 0 0 0 0 0 0 0 0 0 0 0 0 0 0 0 0 0 0 0 0 0 0 0 0 0 0 0 0 0 0 0 0 0 0 0 0 0 0 0 0 0 0 0 0 0 0 0 0 0 0 0 0 0 0 0 0 0 0 0 0 0 0 0 0 0 0 0 0 0 0 0 0 0 0 0 0 0 0 0 0 0 0 0 0 0 0 0 0 0 0 0 0 0 0 0 0 0 0 0 0 0 0 0 0 0 0 0 0 0 0 0 0 0 0 0 0 0 0 0 0 0 0 0 0 0 0 0 0 0 0 0 0 0 0 0 0 0 0 0 0 0 0 0 0 0 0 0 0 0 0 0 0 0 0 0 0 0 0 0 0 0 0 0 0 0 0 0 0 0 0 0 0 0 0 0 0 0 0 0 0 0 0 0 0 0 0 0 0 0 0 0 0 0 0 0 0 0 0 0 0 0 0 0 0 0 0 0 0 0 0 0 0 0 0 0 0 0 0 0 0 0 0 0 0 0 0 0 0 0 0 0 0 0 0 0 0 0 0 0 0 0 0 0 0 0 0 0 0 0 0 0 0 0 0 0 0 0 0 0 0 0 0 0 0 0 0 0 0 0 0 0 0 0 0 0 0 0 0 0 0 0 0 0 0 0 0 0 0 0 0 0 0 0 0 0 0 0 0 0 0 0 0 0 0 0 0 0 0 0 0 0 0 0 0 0 0 0 0 0 0 0 0 0 0 0 0 0 0 0 0 0 0 0 0 0 0 0 0 0 0 0 0 0 0 0 0 0 0 0 0 0 0 0 0 0 0 0 0 0 0 0 0 0 0 0 0 0 0 0 0 0 0 0 0 0 0 0 0 0 0 0 0 0 0 0 0 0 0 0 0 0 0 0 0 0 0 0 0 0 0 0 0 0 0 0 0 0 0 0 0 0 0 0 0 0 0 0 0 0 0 0 0 0 0 0 0 0 0 0 0 0 0 0 0 0 0 0 0 0 0 0 0 0 0 0 0 0 0 0 0 0 0 0 0 0 0 0