# vtk DataFile Version 2.0
polydata
ASCII
DATASET POLYDATA
POINTS 24 double
 4.28596e+00  5.58375e+00  4.11738e+00
 4.31564e+00  5.88008e+00  4.18467e+00
 4.13107e+00  5.25962e+00  4.46029e+00
 4.23065e+00  5.99617e+00  4.66413e+00
 4.08827e+00  5.41737e+00  4.79733e+00
 4.49637e+00  4.85416e+00  4.75499e+00
 4.25330e+00  5.27085e+00  4.99806e+00
 5.20966e+00  5.00010e+00  4.93367e+00
 5.09233e+00  4.83750e+00  4.79252e+00
 4.71407e+00  5.58197e+00  5.25809e+00
 5.18221e+00  5.93961e+00  4.96367e+00
 5.18909e+00  6.11065e+00  4.61859e+00
 5.35913e+00  5.70178e+00  4.26646e+00
 5.45336e+00  5.28704e+00  4.76839e+00
 5.45653e+00  5.28433e+00  4.45973e+00
 4.78119e+00  5.40577e+00  3.95252e+00
 4.91759e+00  4.90913e+00  4.22931e+00
 5.02021e+00  5.73798e+00  3.98977e+00
 5.13904e+00  4.88101e+00  4.36911e+00
 4.44389e+00  4.86746e+00  4.51635e+00
 4.78771e+00  6.03875e+00  4.10313e+00
 4.42150e+00  6.13062e+00  4.78423e+00
 4.88394e+00  6.23368e+00  4.46459e+00
 4.76709e+00  5.85660e+00  5.19788e+00
POLYGONS 14 86
5      2      4      3      1      0      
5      8      7      9      6      5      
5      13     14     12     11     10     
6      17     12     14     18     16     15     
5      6      4      2      19     5      
5      0      1      20     17     15     
5      1      3      21     22     20     
6      4      6      9      23     21     3      
5      15     16     19     2      0      
5      19     16     18     8      5      
5      10     23     9      7      13     
5      21     23     10     11     22     
5      22     11     12     17     20     
5      8      18     14     13     7      
