# vtk DataFile Version 2.0
Really cool data
ASCII
DATASET POLYDATA
POINTS 878 double
4.776414299550988 9.069477387722443 5.6139413740842
4.776414299550988 2.2985405355632618 8.205709884906778
4.776414299550988 8.784551651551697 2.6309037451619437
4.776414299550988 8.739050277254773 7.448759710700289
4.776414299550988 1.8064515780049415 3.1778983087818538
4.776414299550988 9.108376246159134 5.587185334818107
4.776414299550988 0.5151287912134597 1.307770566367852
4.776414299550988 7.43785932095876 8.988649942803278
4.776414299550988 3.281272597170465 8.747048493620387
4.776414299550988 4.7171049361643655 1.7355097056778397
4.776414299550988 5.711146899817789 3.0149359613773123
4.776414299550988 5.011991168428699 8.3542713310822
4.776414299550988 2.178774376971912 0.5563249792928482
4.776414299550988 1.8404308942949583 2.215014785872245
4.776414299550988 7.878895368079153 7.343128212252175
4.776414299550988 7.286856152053444 5.427839430389831
4.776414299550988 3.3166521647559537 0.37734723810165377
4.776414299550988 3.223917752695753 6.662892278455481
4.776414299550988 6.935732119920982 8.452833777315309
4.776414299550988 4.39813951751012 2.677493103739814
4.776414299550988 7.749024370889602 3.8885830823464347
4.776414299550988 5.891173310178044 7.732247002136389
4.776414299550988 9.417658925053747 7.358508556795458
4.776414299550988 3.1659611468842086 3.1131277058011966
4.776414299550988 8.649208832328483 4.387956601393542
4.776414299550988 2.752365118356171 5.38180803325809
4.776414299550988 3.9861824887670165 7.448763320859718
4.776414299550988 8.970077471975324 3.2301941591990317
4.776414299550988 7.720720495191926 3.9133938684355547
4.776414299550988 0.7525644144655385 8.593281908913566
4.776414299550988 4.449655195763661 2.22243513697642
4.776414299550988 5.955472638265766 2.1612865413132245
4.776414299550988 0.5696966039279245 7.76470869422119
4.776414299550988 7.920303256749726 1.6444685674399822
4.776414299550988 9.401964991290077 6.569300351676213
4.776414299550988 0.41346620305547654 3.244965224048367
4.776414299550988 5.248671009313263 5.895400825780699
4.776414299550988 1.8983593344679373 2.731632634516
4.776414299550988 3.1973017325826074 8.920253497353954
4.776414299550988 0.8588460070212693 6.361521453523644
4.776414299550988 6.091397931674556 8.7977475453486
4.776414299550988 1.8784094418315929 3.621354213015412
4.776414299550988 7.303152188633119 6.614323798102554
4.776414299550988 7.921162773148932 1.6346429787150938
4.776414299550988 8.377471661151596 3.7196578451152558
4.776414299550988 3.713997516076557 0.4391201073327572
4.776414299550988 3.047880170502868 1.2563552642930553
4.776414299550988 3.732820865725459 6.841410505352951
4.776414299550988 8.82190934229719 2.5602722604322663
4.776414299550988 5.908956220504154 7.841123327620028
4.776414299550988 7.951096192179403 7.430445350671758
4.776414299550988 6.69095139093929 6.149809692724983
4.776414299550988 1.964095332166747 9.11555786822459
4.776414299550988 0.8789733638124768 1.3852384185152076
4.776414299550988 4.851437902120711 7.406369703494328
4.776414299550988 1.9751820971010923 5.364514677374439
4.776414299550988 8.793045588844475 2.612191356633136
4.776414299550988 5.6445070900582115 7.528853875698989
4.776414299550988 2.361169071063812 9.023980816509802
4.776414299550988 7.792356528394364 7.673754765168809
4.776414299550988 5.392798960269779 2.3284971226536686
4.776414299550988 3.0414919614945073 0.6778453706111839
4.776414299550988 9.578608483059844 2.3279052085469254
4.776414299550988 7.869814273058652 4.2365585254673075
4.776414299550988 9.169525452286289 4.545916262625464
4.776414299550988 5.517936456759766 9.337308083780544
4.776414299550988 8.016853521600474 6.129539463843977
4.776414299550988 1.9769043305056324 4.67025001486882
4.776414299550988 1.8244322830569661 0.5445310624043431
4.776414299550988 7.958172643010751 1.6461174437327886
4.776414299550988 7.093276257804581 8.043055799683602
4.776414299550988 0.21739681671156694 6.355774917271916
4.776414299550988 1.2317631900386314 9.743542854353548
4.776414299550988 8.143974225122774 8.874109511000484
4.776414299550988 6.401577997814948 7.010476656857142
4.776414299550988 9.432106297609398 8.197082977780312
4.776414299550988 3.114866108299937 5.637505280499411
4.776414299550988 3.472649244893981 8.411034041169774
4.776414299550988 0.939602122297549 8.625332372110645
4.776414299550988 2.279493777547271 0.47230848075033116
4.776414299550988 0.6907637787635803 7.7611992721962935
4.776414299550988 9.881807515866 3.9591037754624367
4.776414299550988 8.016584006651026 6.119994150464142
4.776414299550988 6.637791358801395 5.974585204687196
4.776414299550988 2.575097085655265 1.6503930407205958
4.776414299550988 5.461192336800517 1.271010036926613
4.776414299550988 6.604028562736999 0.2645841409644787
4.776414299550988 7.4784811269208555 2.649625170900257
4.776414299550988 2.816749206757773 7.046826190333887
4.776414299550988 6.227469314336786 0.2889323449501251
4.776414299550988 5.084573451862754 4.564130264380252
4.776414299550988 6.878375991836593 0.8013898787359147
4.776414299550988 6.668933028086479 9.4922085662254
4.776414299550988 4.424961294454293 3.194157601199481
4.776414299550988 8.120993861011204 2.9977911851419714
4.776414299550988 1.3938089711675863 3.2158140663591657
4.776414299550988 0.980341860127613 4.821683580871772
4.776414299550988 7.565716181075506 1.2200747222002042
4.776414299550988 1.540125551950464 3.5563524629934493
4.776414299550988 2.002389317064973 8.122816696704808
4.776414299550988 5.8539041637199665 4.259282000806614
4.776414299550988 5.082051952992287 8.850825602703313
4.776414299550988 8.792165075275536 2.980236516676118
4.776414299550988 5.870822964450999 5.320943670176415
4.776414299550988 2.460623954459231 2.0196553272699513
4.776414299550988 3.996290784033677 7.2238334405599085
4.776414299550988 3.0363768192089147 0.6887019406247704
4.776414299550988 0.4551204117963402 9.723447829295115
4.776414299550988 5.045804034486047 1.3420645594259553
4.776414299550988 8.918369248867581 8.112194926058626
4.776414299550988 2.7853263617257524 7.488866114599484
4.776414299550988 8.248644552229248 4.654785748670519
4.776414299550988 3.5789007665095562 7.835409896979745
4.776414299550988 5.214427780416706 3.422775248649057
4.776414299550988 6.366339170207638 7.52735918850779
4.776414299550988 8.736522985229348 8.26953899558566
4.776414299550988 2.3299920711813824 9.626318875254759
4.776414299550988 6.288873815389376 3.753294834467345
4.776414299550988 2.5891093242897534 6.361551613411763
4.776414299550988 1.8177301924802587 6.810677892586749
4.776414299550988 4.982195787087826 4.2940742961714795
4.776414299550988 3.4769065446092484 9.471456269953489
4.776414299550988 4.187936868228074 5.189138708151535
4.776414299550988 4.943479665439262 0.8268828889551192
4.776414299550988 9.025353287059126 4.465501207740727
4.776414299550988 4.803172813665341 1.3413266712930354
4.776414299550988 7.134612818403448 5.223055211406502
4.776414299550988 0.9206529137292441 1.32469249771855
4.776414299550988 4.465849855277425 7.693800443991176
4.776414299550988 4.267326098655404 2.1002739823986527
4.776414299550988 7.8869088287339775 5.653479341274937
4.776414299550988 1.0627348454120344 1.8138266437188335
4.776414299550988 1.9573929806934178 5.41968986545277
4.776414299550988 4.546171317744548 0.09238470490242862
4.776414299550988 2.191056968930458 3.215173454042648
4.776414299550988 4.171110455876816 1.7311014980905115
4.776414299550988 6.139492691041469 8.538371771517879
4.776414299550988 1.8571946391209921 0.5641963458144159
4.776414299550988 3.1879316051325217 4.208869104384645
4.776414299550988 8.861553580901752 6.192994619852876
4.776414299550988 8.227845399686577 4.605784113923058
4.776414299550988 4.585830826433036 5.939853587036302
4.776414299550988 6.51361417008499 8.478279643292803
4.776414299550988 6.296612266197557 3.64007239717157
4.776414299550988 2.295327254598415 9.426395228388417
4.776414299550988 5.415980124091314 1.2857955822180749
4.776414299550988 9.315910845448006 4.907361798389715
4.776414299550988 1.066044337767024 4.545185322901425
4.776414299550988 8.929334155418404 1.4290891198893045
4.776414299550988 6.59046849267561 6.238499143501361
4.776414299550988 2.7343885465965307 5.211765911568151
4.776414299550988 2.180967795674904 6.554985316731159
4.776414299550988 8.537128773105923 7.1598085317853295
4.776414299550988 6.175165436820918 9.241548782882054
4.776414299550988 7.027896694487716 8.658231087161015
4.776414299550988 6.629731606930308 5.724736417572071
4.776414299550988 8.056864078834966 3.5879367101132487
4.776414299550988 2.504405898221758 1.9533001178252405
4.776414299550988 0.19478761722323967 9.424842156058004
4.776414299550988 6.322171479412885 3.7138110254020926
4.776414299550988 8.15176592065855 8.87588154668863
4.776414299550988 5.338272799741351 6.246126712124423
4.776414299550988 7.637149002268507 6.926572008484389
4.776414299550988 9.309195808554326 5.020515758700898
4.776414299550988 5.982515299224762 7.5041369938154325
4.776414299550988 1.9060528479325953 3.618689227659308
4.776414299550988 7.822066918045961 9.3445539081137
4.776414299550988 6.928055061799897 2.0776987772111974
4.776414299550988 8.745781354307162 4.340208006723182
4.776414299550988 3.9537206266984573 8.484604396169802
4.776414299550988 4.736369348427019 4.113148353072984
4.776414299550988 9.742384943168107 8.876249747454498
4.776414299550988 2.979969235399165 3.5752187792673835
4.776414299550988 1.4191235246440388 3.942346831116893
4.776414299550988 7.113398755713264 8.832726248294014
4.776414299550988 7.227026274412423 1.739559524289169
4.776414299550988 9.443352463319943 9.315769110969521
4.776414299550988 2.2762942482759594 5.656342543570347
4.776414299550988 5.2908944417908765 6.068313021788377
4.776414299550988 8.247652627306937 4.617217615534846
4.776414299550988 1.7461935832882354 1.2926716989045974
4.776414299550988 9.289663603852299 8.138037771982551
4.776414299550988 1.2358933956989653 1.0366241479142626
4.776414299550988 7.3131195871087264 6.615378490463287
4.776414299550988 7.154524097525444 4.680428060460213
4.776414299550988 7.911318940217967 0.6907344238127282
4.776414299550988 6.887475763256662 0.8465053526413651
4.776414299550988 8.124415250764397 2.970781752059584
4.776414299550988 9.547286636847707 6.666040003078525
4.776414299550988 2.3326966719715547 6.969997934454138
4.776414299550988 6.8989853410485455 7.683540036942663
4.776414299550988 4.882848069016613 8.2805640335543
4.776414299550988 6.306990780535416 5.547344346517555
4.776414299550988 6.548187114331367 7.429915493532633
4.776414299550988 0.21443981364087478 9.084891874476059
4.776414299550988 2.360531839562583 5.656175663248378
4.776414299550988 0.8519840244947285 2.098193392040237
4.776414299550988 2.1004487612491296 5.05590263896031
4.776414299550988 2.5238141271696786 4.086769517886056
4.776414299550988 2.977470170205823 3.639069676365441
4.776414299550988 1.229358818849173 1.8178241973237848
4.776414299550988 0.699520252027254 2.5052349485540066
4.776414299550988 3.060494569019502 1.1763790133455099
4.776414299550988 7.471026687575934 7.817642600612486
4.776414299550988 8.720765702379447 3.8317236848392193
4.776414299550988 6.157253636894212 0.31769132666481403
4.776414299550988 6.6535531321983825 3.743899768696929
4.776414299550988 1.1151742429868141 3.0639895083397106
4.776414299550988 5.693731969583631 6.526929951630379
4.776414299550988 5.8785370459778346 5.300967820350618
4.776414299550988 9.001408714185272 3.4818790324459843
4.776414299550988 8.577966684772832 6.7494028645876085
4.776414299550988 5.219112437514284 3.4158907379034864
4.776414299550988 4.946147626166148 0.7425863868462411
4.776414299550988 8.7170464792872 1.8101389467180058
4.776414299550988 4.025699539074398 3.227652949754082
4.776414299550988 3.8191483950226175 4.866497549269731
4.776414299550988 4.099758781248078 1.1853059854377208
4.776414299550988 5.0222123166327615 5.908404826426042
4.776414299550988 1.6968822502599556 2.9278436527107274
4.776414299550988 5.599841089287538 2.2902597984157875
4.776414299550988 3.307798181422768 9.123509734633302
4.776414299550988 0.629420268421276 7.823373404762917
4.776414299550988 1.0030587202847125 4.756171156627674
4.776414299550988 6.313574194105012 6.9718147732526194
4.776414299550988 4.240073620663319 0.1516047432878603
4.776414299550988 5.81412113506333 7.555695472227651
4.776414299550988 8.668216639286692 6.410988586749999
4.776414299550988 0.5352194569409316 1.1237000702677413
4.776414299550988 1.884317938250526 0.9750746190027043
4.776414299550988 1.646070170240472 2.0334744662537645
4.776414299550988 7.147056906706039 2.8110274857323327
4.776414299550988 8.892132378358143 7.942165215217345
4.776414299550988 7.133811087245339 1.4906596666846021
4.776414299550988 2.1756204533278733 3.0540256234732728
4.776414299550988 0.8843099225491748 5.136847047278248
4.776414299550988 7.701980356951594 4.504867558183865
4.776414299550988 9.456693464656535 7.41473666336092
4.776414299550988 9.648063917851196 4.498296611866866
4.776414299550988 4.400246573743379 5.754415117673009
4.776414299550988 0.9313815390465375 1.7477061155909164
4.776414299550988 2.968806220243815 3.6830637512944304
4.776414299550988 6.828908103234075 2.5683852559738938
4.776414299550988 9.804103729614765 2.0854007465561644
4.776414299550988 0.6868620681723316 7.344945689295567
4.776414299550988 2.525443818492824 7.074150257455639
4.776414299550988 2.66686131595104 7.950026108151651
4.776414299550988 5.343683669449421 7.481750451546617
4.776414299550988 2.034268082054023 6.805488527357186
4.776414299550988 2.79153894015356 3.199860244113119
4.776414299550988 4.589493357490595 7.746098781776473
4.776414299550988 4.603062176494332 4.951586153098549
4.776414299550988 3.0988587876947267 1.261264206102445
4.776414299550988 5.781712146101612 6.5610103547496905
4.776414299550988 2.608364548965067 3.1607364152898
4.776414299550988 9.615601367846702 8.549638429744684
4.776414299550988 4.920745407604959 2.170760669137807
4.776414299550988 8.38788415104421 3.7223403385973035
4.776414299550988 1.6126565271751143 7.459945337279633
4.776414299550988 7.612295463387445 2.0217766855248835
4.776414299550988 5.086218705545544 4.543568416100154
4.776414299550988 6.454746239981006 1.373515599406129
4.776414299550988 1.965611304137429 2.3477797153731808
4.776414299550988 7.547763951329371 1.965118612480055
4.776414299550988 6.770662102351041 6.886803515471959
4.776414299550988 1.6573290521320523 3.6391438457731486
4.776414299550988 8.79755263592098 1.6101110638494718
4.776414299550988 4.931341992157021 0.21504391306613146
4.776414299550988 6.049745293783271 9.040283369535928
4.776414299550988 3.7572906160883988 1.9859885925523544
4.776414299550988 6.93086226982367 7.707402950366412
4.776414299550988 6.57622702497128 7.243374108953789
4.776414299550988 8.823340166638888 6.292286374233313
4.776414299550988 7.728183648444573 6.416832585264976
4.776414299550988 3.88453688820432 5.668070826599218
4.776414299550988 1.6424810551587183 7.380660725849916
4.776414299550988 4.5920934738651376 2.1981462559054323
4.776414299550988 8.147372267566006 6.063601897980501
4.776414299550988 8.450533407135108 7.2304638448875505
4.776414299550988 1.7210922662159116 7.737492539006906
4.776414299550988 1.2476733768245902 5.966727054865305
4.776414299550988 6.5623469279021185 2.4461856197836034
4.776414299550988 5.8766678100677066 1.2726765322814513
4.776414299550988 4.705838864289268 6.897525025640728
4.776414299550988 8.082500466508023 3.3810813944148683
4.776414299550988 4.551162144066625 3.9527902583377754
4.776414299550988 2.1520613403482844 8.165512596054246
4.776414299550988 7.061517867223256 3.599741910933249
4.776414299550988 9.074578885309956 3.391221296342808
4.776414299550988 4.646795871610191 7.656296719470988
4.776414299550988 7.243834476832141 2.763588426801581
4.776414299550988 8.086910360814809 7.396821375297431
4.776414299550988 5.116188954515361 1.3746899532497776
4.776414299550988 1.7450614647534726 1.2952464455777628
4.776414299550988 8.691487066159373 1.7448788020064774
4.776414299550988 6.5201470982797645 7.471499193530131
4.776414299550988 4.470581571542452 8.431787650729728
4.776414299550988 8.451610137551015 6.017387056823784
4.776414299550988 4.153599142116276 9.496093719308671
4.776414299550988 6.7848096950250545 1.2763327750255027
4.776414299550988 4.9351241304950415 0.46328516100238415
4.776414299550988 3.045961493330182 6.707758034764033
4.776414299550988 2.489398642317181 1.7611531458033036
4.776414299550988 4.397406186514701 8.555653801010493
4.776414299550988 5.87839946323271 0.7263679313992046
4.776414299550988 2.0126832455023176 6.8108574173680525
4.776414299550988 3.5190235482613375 3.1275030616325257
4.776414299550988 6.850892195728342 4.040179916992275
4.776414299550988 7.311453327964932 1.2822219111190263
4.776414299550988 4.461919694904243 8.653002015023707
4.776414299550988 8.871090175222294 3.642813443189882
4.776414299550988 0.44092719325230684 7.5607608375796875
4.776414299550988 1.1991648474967755 6.184412127755945
4.776414299550988 7.820360804902223 7.935694104172052
4.776414299550988 3.7021766282492456 4.2972528799697125
4.776414299550988 7.733892388051355 6.41059487400727
4.776414299550988 4.548974320396775 3.2914013944667335
4.776414299550988 1.7414368015414148 1.2960792199462983
4.776414299550988 4.792894680264144 5.924134712358604
4.776414299550988 9.874192336731108 1.4514826567627732
4.776414299550988 4.601950874549914 4.952151349367907
4.776414299550988 2.7986470113810276 7.579134042462138
4.776414299550988 3.0626245604334215 0.6958268526918924
4.776414299550988 2.167687579749692 5.02644451655148
4.776414299550988 2.5054586523127944 1.987506169752565
4.776414299550988 1.8028770636666387 6.868135349898236
4.776414299550988 0.19954845576127672 9.507380452115997
4.776414299550988 0.4094790702758437 7.6105236758824795
4.776414299550988 8.259113694359455 5.345123232523828
4.776414299550988 8.848916855255585 3.0469173738097277
4.776414299550988 0.19974628660138988 9.517404717393584
4.776414299550988 2.9902066689499587 3.2393909814277166
4.776414299550988 0.8166187276000219 1.531762234947382
4.776414299550988 3.8748964235199446 4.915039596114079
4.776414299550988 3.898230243326005 1.9924860193769351
4.776414299550988 7.775211047402636 9.121433367041837
4.776414299550988 3.5276959223951954 1.3609742673349392
4.776414299550988 6.332493241431932 5.56194452264463
4.776414299550988 7.046568369507051 9.115296953032797
4.776414299550988 8.859379619040412 7.75471937428137
4.776414299550988 6.129108646044657 2.2839532195826058
4.776414299550988 6.199737819123284 3.3411634859457378
4.776414299550988 4.3437511857496345 5.700250756834811
4.776414299550988 8.059338598017256 2.923208218439279
4.776414299550988 7.043700716997929 1.3054082482807747
4.776414299550988 6.576964687497242 7.100496791259447
4.776414299550988 4.621025921098192 3.736577665587699
4.776414299550988 7.161531213507611 7.8771652847293
4.776414299550988 0.4078758648236136 3.441328533501977
4.776414299550988 4.518198032023965 2.2360335754772134
4.776414299550988 2.760817020174059 8.911479263430394
4.776414299550988 9.144718452724087 1.1239465993095865
4.776414299550988 8.851546839694763 5.799736192256047
4.776414299550988 8.544259153819652 6.025014587757106
4.776414299550988 3.860391972851781 0.6783688389537728
4.776414299550988 7.680446867895922 1.9549414001406966
4.776414299550988 7.037345674650739 2.730869021858447
4.776414299550988 7.265809910602975 1.7809836794376914
4.776414299550988 0.3176049133493296 5.3769614243043256
4.776414299550988 6.933580806121852 1.2311443079965851
4.776414299550988 0.9789335659760222 1.125827625531718
4.776414299550988 1.413930807118238 1.1270428912007269
4.776414299550988 4.234837740299683 1.572516498830456
4.776414299550988 4.713184646900665 3.4471161900049574
4.776414299550988 2.9330717342174095 4.012501884376024
4.776414299550988 0.10111339314901674 5.681884039914016
4.776414299550988 3.766520437022939 5.7311391794576645
4.776414299550988 0.6562944777119885 9.894278755796304
4.776414299550988 8.25033413409635 5.050029919075744
4.776414299550988 4.861686329866039 3.4253215839327043
4.776414299550988 3.996997725310061 9.494665805184265
4.776414299550988 3.1891099847921978 9.868573818165144
4.776414299550988 2.3658265820360933 8.569497940970251
4.776414299550988 3.294052927658842 2.3706961517257206
4.776414299550988 1.7485329072123335 1.2973630641026188
4.776414299550988 7.59070262178938 0.3298141184254769
4.776414299550988 4.931453040392377 1.2733952852574446
4.776414299550988 6.053455624982936 1.7308751134109537
4.776414299550988 3.1228981033218997 3.143930943439704
4.776414299550988 6.350561871964563 2.5209413871670616
4.776414299550988 0.80622539821828 3.0335949251946004
4.776414299550988 6.181480042532224 6.628735585731555
4.776414299550988 4.533538536176543 6.8017734757657164
4.776414299550988 5.835321335913261 4.265406644091896
4.776414299550988 5.95496045247123 9.1889199316548
4.776414299550988 4.527483415874191 6.502017739674212
4.776414299550988 0.6022561377642652 6.868572854030458
4.776414299550988 0.5885378827475387 6.7619342334510195
4.776414299550988 9.228749090786767 3.4136020221066783
4.776414299550988 7.927238049238255 7.435099415072696
4.776414299550988 1.3896955740518435 8.856910505870603
4.776414299550988 4.667034182486114 8.126211146897809
4.776414299550988 4.525075032153301 6.796607891664158
4.776414299550988 5.4450284140764005 4.196867102283714
4.776414299550988 7.801375171345833 1.3134438463690248
4.776414299550988 7.607193965591747 5.553245498752713
4.776414299550988 3.41850474477644 8.248632786958968
4.776414299550988 4.382354613744944 0.03785962247252625
4.776414299550988 5.102924039324188 1.964371162974523
4.776414299550988 4.836578081508826 0.18335969471984434
4.776414299550988 4.153358011874088 5.516564144109369
4.776414299550988 0.7787458758734817 4.207796082110672
4.776414299550988 4.600279714732046 4.953127410123795
4.776414299550988 1.5541608808509881 1.5908816498958858
4.776414299550988 5.506123357895315 4.986177739801535
4.776414299550988 2.1382300804118017 4.3160280006666
4.776414299550988 6.549454937785951 8.476146718680878
4.776414299550988 1.1345991714710582 4.368442145585199
4.776414299550988 1.2764032356782207 5.836578953326499
4.776414299550988 4.705789135319239 6.89732551865353
4.776414299550988 7.004989675213402 3.6540190269253308
4.776414299550988 4.329191351989112 3.974762062665383
4.776414299550988 8.39436368998792 8.917471748236572
4.776414299550988 2.3166798388036094 5.690689153626216
4.776414299550988 3.4415416371616776 9.52301405359563
4.776414299550988 8.532933636050549 2.853622128372497
4.776414299550988 1.9594706343718424 6.8241665246548555
4.776414299550988 5.119225820419804 8.744509785179854
4.776414299550988 6.099644640399521 1.4656514737097281
4.776414299550988 3.985777080073475 7.488526026466348
4.776414299550988 3.2310794495313293 1.0507915143279913
4.776414299550988 7.743779147495836 3.8893926656064557
4.776414299550988 0.8139334888289969 9.852094153603334
4.776414299550988 9.79381018899341 2.3102240159727367
4.776414299550988 9.800236656898566 4.438141380345072
4.776414299550988 6.0158559683006265 2.171860838250326
4.776414299550988 3.275107032606813 2.7142459978657048
4.776414299550988 0.3939945301179009 3.9335324605419295
4.776414299550988 7.173499387988011 8.975381116317495
4.776414299550988 4.490573993976235 2.2478032584362535
4.776414299550988 5.672809005417982 8.289646369006748
4.776414299550988 1.8788531880352943 6.918971781040137
4.776414299550988 0.34347722051852025 6.413270124124196
4.776414299550988 3.54243719097733 4.459303377077292
4.776414299550988 2.2884546183842702 6.388949937272572
4.776414299550988 1.4719427347984744 1.1575037963139923
4.776414299550988 1.3046585448961594 8.688766611911142
4.776414299550988 2.063910179186232 3.874540894319986
4.776414299550988 5.2185551149672404 6.513582714522437
4.776414299550988 5.9733992318354785 4.546868214008767
4.776414299550988 7.827213438381756 8.926724319017248
4.776414299550988 8.854935838713768 0.5730854738065784
4.776414299550988 2.3880205710656766 6.213496542430354
4.776414299550988 1.4310093762533476 1.8063433617926155
4.776414299550988 0.48329799933007866 8.815773489131557
4.776414299550988 3.4885398833632224 5.8804119099304435
4.776414299550988 0.9859854322670691 9.81057498612289
4.776414299550988 4.172219628975916 5.3382468868621515
4.776414299550988 2.376179058847729 8.610419543445733
4.776414299550988 7.990394074176217 5.569776443283745
4.776414299550988 8.870952735936589 6.256924979172782
4.776414299550988 7.7508009021897175 8.984250869590099
4.776414299550988 0.84497531488817 2.8838353118719464
4.776414299550988 8.369547253788298 0.5466583902088318
4.776414299550988 2.6020960674749256 0.5494549319753791
4.776414299550988 9.484394084404425 8.225150454601238
4.776414299550988 2.3580286917845537 9.831821878946199
4.776414299550988 8.419142126740415 9.355390287569687
4.776414299550988 0.4725502667840553 6.478808027360244
4.776414299550988 5.229507284734809 4.810068994603986
4.776414299550988 5.374917525710883 6.394464823539697
4.776414299550988 4.526510438019793 6.77107495329896
4.776414299550988 3.4701603286801204 1.3381403463187087
4.776414299550988 0.7072514000408259 8.343107537253742
4.776414299550988 1.4223716819064331 6.4221042681800515
4.776414299550988 6.102602288127339 6.772307416586199
4.776414299550988 0.6232541988029092 5.1602020579528824
4.776414299550988 5.12122276368641 1.5061495331538348
4.776414299550988 5.5480588976793515 4.985034048077634
4.776414299550988 4.833951490641157 7.352102823992697
4.776414299550988 7.266803495425239 0.1661916949015836
4.776414299550988 1.519158676136227 9.119949007390085
4.776414299550988 7.1775150944124375 1.8397233719077741
4.776414299550988 2.719681945355915 7.1752246768814665
4.776414299550988 7.001958114910323 0.29574008275770297
4.776414299550988 4.560278025729843 6.1701537920968486
4.776414299550988 0.4470899005416663 7.65233509341658
4.776414299550988 8.441312432964999 7.386849390921772
4.776414299550988 2.0655544101201935 4.445694160610921
4.776414299550988 8.01409730369769 6.082707659821607
4.776414299550988 3.596343645895088 6.738695390096013
4.776414299550988 9.458380629777592 7.765073789456749
4.776414299550988 7.121148794476372 3.0335094458236003
4.776414299550988 5.431525058290524 9.243293685386343
4.776414299550988 5.951722424745451 8.3458465678905
4.776414299550988 7.599193047460176 2.5916925418
4.776414299550988 1.2204027734277676 5.486617415698495
4.776414299550988 7.877752761919387 0.7945158907274881
4.776414299550988 6.043012104642079 1.7936276747982787
4.776414299550988 5.187898615536533 4.357489894134964
4.776414299550988 2.6777294048953526 4.053739641931208
4.776414299550988 5.06531507521361 4.7030852256781985
4.776414299550988 1.2871469050234305 7.481506455709873
4.776414299550988 1.3056723176614633 9.592600100496274
4.776414299550988 7.125223847855609 5.371067894825626
4.776414299550988 0.49384011939512584 3.180813968180004
4.776414299550988 6.657189796282162 2.4359758685143698
4.776414299550988 8.721708297637589 0.5039487595196964
4.776414299550988 2.8285757470219255 7.8342905165504115
4.776414299550988 6.360700036763409 9.366938757828285
4.776414299550988 8.844052345954987 9.422670821353208
4.776414299550988 0.49834539145933054 8.803329835952203
4.776414299550988 0.2153024961324373 9.030529089885276
4.776414299550988 1.743831123472306 1.295611474797088
4.776414299550988 4.393977709737513 2.6967319317122413
4.776414299550988 4.49621520654425 6.959456246362257
4.776414299550988 6.983862709849519 9.226747217505936
4.776414299550988 6.841184794242551 2.191372658671214
4.776414299550988 7.820542741288214 0.5820796200308882
4.776414299550988 5.207282490653648 3.4235322007949875
4.776414299550988 3.286611915114798 9.734784079666262
4.776414299550988 9.094561544375743 2.3417557271405323
4.776414299550988 0.9656098240420131 1.8229403025014674
4.776414299550988 4.1923151831507965 3.9701223487102766
4.776414299550988 6.645636802970737 6.270658007410936
4.776414299550988 4.334507808852643 9.250121396662717
4.776414299550988 9.000665847018478 5.655834211301142
4.776414299550988 1.9177093049490357 3.588775755124387
4.776414299550988 8.34742841416248 9.591511813016485
4.776414299550988 2.761921731069502 1.487281471782461
4.776414299550988 7.348384468750102 8.979689268283458
4.776414299550988 8.028920243746905 6.136575765091934
4.776414299550988 6.11535524956766 4.526305459715176
4.776414299550988 9.393850814654023 3.433812076102562
4.776414299550988 1.8550458530951748 8.080474884480758
4.776414299550988 6.887141691956992 5.541778893923124
4.776414299550988 5.279603934970804 7.476058538757577
4.776414299550988 3.3704767833611835 8.606395523354117
4.776414299550988 0.439436257304547 3.2256294267584122
4.776414299550988 7.6023085393452225 2.4142204509179797
4.776414299550988 6.632089024919428 5.799659465407064
4.776414299550988 1.1354580010453992 1.0779694765241292
4.776414299550988 3.740721290279312 8.460097031295989
4.776414299550988 6.781193160565351 6.338691172903562
4.776414299550988 5.236920437856901 4.815401939529933
4.776414299550988 6.118362800025914 8.707184103359467
4.776414299550988 0.6902751407900801 8.248850033139806
4.776414299550988 3.633773308181655 1.293465018601943
4.776414299550988 1.7637099212197298 7.836385806224092
4.776414299550988 9.106959415676759 9.42911089289716
4.776414299550988 5.7694712046132866 1.1817214671227445
4.776414299550988 8.836105675904474 6.011067059381977
4.776414299550988 8.486719129669181 6.398164015773206
4.776414299550988 5.4920985656268195 3.007202289629533
4.776414299550988 8.498719498435502 9.167066963937904
4.776414299550988 1.8252175081287003 3.2398660922444784
4.776414299550988 8.740317577099075 4.2200539183591435
4.776414299550988 6.94572985729903 6.625996625580526
4.776414299550988 7.833699969302979 0.9367808523249609
4.776414299550988 4.705681420923244 6.897273341087278
4.776414299550988 6.777026575816176 9.459317824473372
4.776414299550988 5.818279684525608 8.211239172064362
4.776414299550988 3.055572962279258 0.6678759458578123
4.776414299550988 0.9411187159849549 6.319051202807796
4.776414299550988 5.830532846861833 7.539852793981124
4.776414299550988 9.304749341546955 5.459450191940804
4.776414299550988 2.026423510792963 4.79180533138834
4.776414299550988 1.9377602188310743 2.784222607873288
4.776414299550988 5.504111934679216 5.049535444858968
4.776414299550988 5.740191028556366 4.984146084994079
4.776414299550988 7.773221145601791 2.714083563539372
4.776414299550988 4.4929128371683875 9.007293176345707
4.776414299550988 0.6546853633718978 1.4042197983728135
4.776414299550988 8.164436960906485 5.424459121994512
4.776414299550988 6.127402964955678 6.878947963725693
4.776414299550988 5.96030385392309 1.3490027146046453
4.776414299550988 0.833868214344828 7.5939161982584675
4.776414299550988 4.246182030006887 7.139936928970611
4.776414299550988 6.51980774974243 4.4884073737299
4.776414299550988 7.069239271756696 0.250934704928563
4.776414299550988 6.690659011732719 0.3210393568753876
4.776414299550988 1.3058489060646061 7.4813436964250775
4.776414299550988 0.4415254987491253 8.84899192443364
4.776414299550988 4.936876018969355 1.0133599582707127
4.776414299550988 1.1595276357940172 4.360088649406984
4.776414299550988 9.562009382119411 7.561499236482294
4.776414299550988 8.63834662814792 0.46110741637654645
4.776414299550988 9.157627738766596 1.1498886570124511
4.776414299550988 8.560665988095764 8.43221617640793
4.776414299550988 5.850003172577636 4.274738034140516
4.776414299550988 4.067552208597121 1.991446871111905
4.776414299550988 3.3996289202564074 8.192758848088658
4.776414299550988 4.510815541485814 6.802446448146158
4.776414299550988 0.2687813425707312 5.444693811483812
4.776414299550988 4.646203668642461 3.6556350572257275
4.776414299550988 3.3465724597222763 8.033885615209035
4.776414299550988 4.102018860570508 0.27100915944144793
4.776414299550988 8.735050405230373 4.042362535439668
4.776414299550988 6.987415465486329 6.569441210806616
4.776414299550988 2.5332678898701046 9.840734405968604
4.776414299550988 7.735217192145795 7.777575913228233
4.776414299550988 8.898340920256521 2.233040595187777
4.776414299550988 8.43722270070491 9.020503132037954
4.776414299550988 4.546626429821434 1.3574089803255243
4.776414299550988 3.778042785962598 1.1994640937391325
4.776414299550988 4.311481806558338 3.086070118831727
4.776414299550988 4.969452684717274 1.2933956724795348
4.776414299550988 9.048227141233406 7.452655204377175
4.776414299550988 3.914379644608042 3.491479599715047
4.776414299550988 6.849110277126494 4.085728065090819
4.776414299550988 3.977871621452645 7.055667490615863
4.776414299550988 6.098612742117081 7.527005628578496
4.776414299550988 4.393776340448232 2.697342247169157
4.776414299550988 6.040309611198938 9.15606489438354
4.776414299550988 9.83747281094312 4.338983436869008
4.776414299550988 5.881987846847088 7.4922915126456235
4.776414299550988 7.61112273476501 2.3378141225181155
4.776414299550988 3.2625193751582278 5.73011822108368
4.776414299550988 6.969961567956149 1.2557903264192463
4.776414299550988 5.388685203084322 3.1472316136439598
4.776414299550988 5.155557862127001 8.648148217382081
4.776414299550988 7.911527606961347 4.430649866614252
4.776414299550988 3.559941368230806 9.470970862300367
4.776414299550988 8.789537427294567 5.6989524904881375
4.776414299550988 6.0538398389944446 7.135143139822627
4.776414299550988 8.597088130617946 6.467663423949709
4.776414299550988 0.6292967257251726 7.310128946447857
4.776414299550988 3.2583511700533765 2.398521168635789
4.776414299550988 8.268746714759198 4.606969134196026
4.776414299550988 8.856958598150415 5.745344022629149
4.776414299550988 2.8760731614713775 6.556894440414779
4.776414299550988 7.747139409207001 1.1786776344982481
4.776414299550988 6.333488732721862 6.485272414390238
4.776414299550988 5.847047624711317 4.267355005347342
4.776414299550988 0.5950195337066264 7.357632238751977
4.776414299550988 0.39668774020304937 3.883219589024789
4.776414299550988 8.397514756949922 5.448182509545639
4.776414299550988 6.089527708924428 6.714916456815857
4.776414299550988 4.005083010348339 7.018213115890644
4.776414299550988 0.7476446851819204 4.18432334615479
4.776414299550988 4.591712715173661 8.863127739489125
4.776414299550988 7.1485183595220985 4.6726483987447684
4.776414299550988 4.044463784311272 7.5135050331741935
4.776414299550988 2.2478568522776907 3.1483775546268604
4.776414299550988 7.911684690354582 7.4629885569176935
4.776414299550988 1.3327854757095166 5.603928075734646
4.776414299550988 8.237302385766144 8.371228110769717
4.776414299550988 9.36309008289389 2.3510165127701423
4.776414299550988 8.49061241469163 8.652812998345041
4.776414299550988 9.039842893469471 8.120550325360224
4.776414299550988 2.978005576169888 7.8958066958183615
4.776414299550988 2.4954591494779104 8.070278954879965
4.776414299550988 6.336866183059169 2.423462922172758
4.776414299550988 4.6904678229528285 8.863286483496765
4.776414299550988 1.5658106364113487 1.5683198470509354
4.776414299550988 3.8574231754121016 0.46655828042427294
4.776414299550988 1.5672362333599887 4.5289520922244275
4.776414299550988 5.514349153573721 5.369968890831927
4.776414299550988 9.344142415862233 9.41978514904165
4.776414299550988 3.6424091824416744 1.6664621067595897
4.776414299550988 6.8679989075535035 3.7535439610134285
4.776414299550988 6.178410574951232 5.475907660654287
4.776414299550988 1.5719549946256373 0.35866663372090113
4.776414299550988 3.7977091007473223 4.206854263705517
4.776414299550988 5.649334284761713 4.236453738967751
4.776414299550988 8.038865335957388 9.580160758192584
4.776414299550988 9.638910127408938 3.4801616937061435
4.776414299550988 6.573601628537613 1.344828978833014
4.776414299550988 2.073453829645304 2.2670107649518885
4.776414299550988 9.868820851625346 1.4368995112548097
4.776414299550988 6.708220674914235 7.5636586400513535
4.776414299550988 5.523265507223811 5.4953252518442675
4.776414299550988 2.077808049430543 1.505105779749369
4.776414299550988 1.116586417697867 4.375660442578754
4.776414299550988 7.025007296451202 8.214676968805838
4.776414299550988 1.4435588608861698 9.285179524449267
4.776414299550988 3.6702728510854365 1.734993960544218
4.776414299550988 5.134736672072586 2.165682961337237
4.776414299550988 5.437102618442175 2.586148545222187
4.776414299550988 8.319886726331985 1.6945279344613107
4.776414299550988 2.5696682606141907 2.025447138739811
4.776414299550988 9.313040540698756 7.385612685943665
4.776414299550988 2.488799137530331 1.7218870291066657
4.776414299550988 5.205779764781827 8.492259811242484
4.776414299550988 2.2178058500222098 4.11285867606532
4.776414299550988 5.449939795682921 4.200680622838585
4.776414299550988 3.648105748415566 7.7731203612378446
4.776414299550988 4.823568451055089 7.444586983964628
4.776414299550988 9.84087665515298 1.8788731891388926
4.776414299550988 7.737601986395499 3.8899404540608464
4.776414299550988 1.9939256393036846 5.448533576840772
4.776414299550988 0.23535351938939797 9.546279250393763
4.776414299550988 9.723829656578516 8.922473900461599
4.776414299550988 9.475709779862637 7.069331039894455
4.776414299550988 6.547223287857377 7.459401535299459
4.776414299550988 5.112527770511259 4.403049620200531
4.776414299550988 7.915771516628381 5.750393206149716
4.776414299550988 1.7576666553647813 7.098071018720052
4.776414299550988 2.1001257940743283 3.931348720481696
4.776414299550988 5.601195328035618 9.307710966715597
4.776414299550988 0.5158676315951246 9.776329827505647
4.776414299550988 4.542449660196645 8.326311416668235
4.776414299550988 7.902312294971221 1.6592891335038171
4.776414299550988 3.8956051649736003 0.8575616903003924
4.776414299550988 8.830080695679698 7.508511426460348
4.776414299550988 5.952570027801959 3.0253861944792257
4.776414299550988 1.593365213759295 3.6454108646684555
4.776414299550988 1.0928387639505934 8.65854495030897
4.776414299550988 8.043460537319097 4.505227449679685
4.776414299550988 0.5692151187276303 6.522851768572507
4.776414299550988 6.076333094096317 3.0288926317628615
4.776414299550988 7.923704932276036 1.6414576769977085
4.776414299550988 9.656317061968949 9.068146169702944
4.776414299550988 0.9097780889964153 7.506262531787792
4.776414299550988 2.692565686257344 9.843139121269605
4.776414299550988 7.936348766680639 3.70185755548823
4.776414299550988 8.570330847654436 7.235529677585434
4.776414299550988 2.734207116499808 5.221136951446724
4.776414299550988 3.976270773681453 7.029796567995708
4.776414299550988 6.813511523671577 0.3861173756900539
4.776414299550988 7.477370452694648 4.293081353159524
4.776414299550988 3.15762531679294 4.890865359330017
4.776414299550988 3.9368376099842406 1.10190967693492
4.776414299550988 2.275243064702805 9.115673073589411
4.776414299550988 9.52104030661519 6.809491134940401
4.776414299550988 7.165945166416802 4.652364511110027
4.776414299550988 2.437350695847145 8.93095571119951
4.776414299550988 8.613095043921787 7.355166184413437
4.776414299550988 7.58592222907142 1.7436594569109651
4.776414299550988 2.117428127670363 5.009393234416151
4.776414299550988 9.4707437303413 4.567759472663723
4.776414299550988 7.241900068575662 1.7729782136051921
4.776414299550988 0.7550976413276485 1.0587547322486899
4.776414299550988 4.011798650628136 3.9730038472519356
4.776414299550988 4.94495659933448 8.853436399362604
4.776414299550988 3.436561839621297 9.391160023571677
4.776414299550988 6.606906632381764 6.153079366531316
4.776414299550988 1.335580779446276 3.1216203378556653
4.776414299550988 0.16819651756761764 6.0137571392788525
4.776414299550988 1.9360317660005595 2.5119556653092494
4.776414299550988 9.850176778306508 4.295996798730837
4.776414299550988 5.727625672326662 4.9755975412868745
4.776414299550988 5.883568994009463 5.312518045548577
4.776414299550988 8.330529359567855 8.388833831573402
4.776414299550988 7.919446827588064 8.841341189279017
4.776414299550988 6.264150876758904 2.607323049986092
4.776414299550988 7.509711475681968 7.8122419216819505
4.776414299550988 5.860758333178278 0.8056590255256179
4.776414299550988 0.5281474616278854 1.1598928008291904
4.776414299550988 9.514119228172461 1.2553324073113974
4.776414299550988 7.666756310712041 6.974978865945016
4.776414299550988 5.995601976115002 8.39232989973331
4.776414299550988 0.17649427221812977 6.06528421120674
4.776414299550988 9.37265705064491 7.956974934241895
4.776414299550988 9.133299058855604 6.394899540593708
4.776414299550988 1.417607324815224 8.91543420712464
4.776414299550988 3.3326152729629457 6.633101588426347
4.776414299550988 5.8212691282323155 7.578787730999467
4.776414299550988 6.6091961084191295 9.510124153409643
4.776414299550988 3.457307650793934 6.258018312636212
4.776414299550988 1.376867798530914 4.04858095066905
4.776414299550988 6.815651432648641 4.447839327580282
4.776414299550988 4.70412414328181 6.896524483650718
4.776414299550988 7.733803338732796 2.689150246247041
4.776414299550988 3.9735521892153103 3.784898725914875
4.776414299550988 2.7156902838114063 5.203828039426784
4.776414299550988 8.06515298524157 0.6452988187441164
4.776414299550988 6.9205721080513545 4.519738327967994
4.776414299550988 9.874853084009928 1.4395838381288117
4.776414299550988 6.00403434012308 2.065749682689486
4.776414299550988 3.464105507101513 6.19949202667021
4.776414299550988 2.784728241942439 2.1466527238181725
4.776414299550988 5.27816631715125 2.2636233972611715
4.776414299550988 1.4849519795029866 6.483602211723495
4.776414299550988 9.20224789898876 1.140895993091002
4.776414299550988 1.6706785406922218 4.574204530310978
4.776414299550988 7.152547789102626 4.677965061642038
4.776414299550988 8.996943825140104 0.7993066223347305
4.776414299550988 3.2690450540301517 0.44182814617652083
4.776414299550988 3.2409179750524486 4.8358164954653295
4.776414299550988 9.30854876323159 5.143205246031709
4.776414299550988 4.898251673515721 1.2919320075691045
4.776414299550988 7.135341765497715 5.004863100533276
4.776414299550988 9.174087158177699 1.1462682465050136
4.776414299550988 8.520887894468654 1.7214497603836558
4.776414299550988 6.1240895929047365 2.9151131656826976
4.776414299550988 7.864077240451417 8.012641524365472
4.776414299550988 0.6754889535564977 5.1548906733627256
4.776414299550988 6.386669729654711 3.7177430112818644
4.776414299550988 1.821978543581069 9.113260530985347
4.776414299550988 8.708958230222516 9.324336579058775
4.776414299550988 6.40818476778232 2.4661055070782845
4.776414299550988 1.6954330825048718 8.253897604433513
4.776414299550988 6.201907767386805 2.5054861210195503
4.776414299550988 5.443511851323677 4.201535430274805
4.776414299550988 7.5047626448769185 6.642248786002027
4.776414299550988 2.8815938100487934 9.843149878788937
4.776414299550988 4.630345776620539 7.951348044311028
4.776414299550988 5.8600801561769025 8.050618060331603
4.776414299550988 1.0073129202482758 5.265162136181883
4.776414299550988 0.8948500179171623 2.996995053444747
4.776414299550988 4.717454899149355 1.7328228722108843
4.776414299550988 2.3063569899231418 9.49907593552288
4.776414299550988 8.385515749805583 9.484058173612205
4.776414299550988 6.9567867107359245 6.529488615079937
4.776414299550988 6.8568156195868335 5.56229385760337
4.776414299550988 5.348112381529513 5.7526809311053295
4.776414299550988 4.715915151723633 1.7404427405812015
4.776414299550988 1.847141245969235 2.7901254761433747
4.776414299550988 2.9554134624854718 8.91470490176625
4.776414299550988 8.9425403357367 2.3389249175590154
4.776414299550988 6.030254884056991 7.764528899178676
4.776414299550988 3.3197342965863843 1.277953034161756
4.776414299550988 5.460051566975268 2.7559539600796095
4.776414299550988 2.930214523838214 6.87170367928198
4.776414299550988 5.880451426392653 4.719909113152034
4.776414299550988 5.278102189914699 9.091073154105581
4.776414299550988 1.963336700512494 3.495779360646228
4.776414299550988 3.8826436310961037 3.29507054611288
4.776414299550988 4.210436413249219 3.1283536358909827
4.776414299550988 1.3700902592634834 0.7322334009887234
4.776414299550988 9.703023569766511 3.61094964353781
4.776414299550988 4.331362788838806 1.3411211976326138
4.776414299550988 7.162618427285842 3.6424708489704165
4.776414299550988 6.476419785852593 0.19593086986641983
4.776414299550988 0.15743579182495226 5.975067449183831
4.776414299550988 3.2786467808076565 2.7914869049299855
4.776414299550988 7.163583993221069 4.6770365672684076
4.776414299550988 3.7468188897692105 5.73990103387573
4.776414299550988 3.618132796994065 3.1736456982390955
4.776414299550988 3.544946565494162 4.627057693574796
4.776414299550988 3.293076750909997 3.021634460319988
4.776414299550988 5.216758505933184 3.4287185543376966
4.776414299550988 6.91047726628112 1.0458580812772333
4.776414299550988 4.9139870282513565 6.748254875142476
4.776414299550988 3.427907082234822 0.3978716320181497
4.776414299550988 2.3464694468541007 5.96995209950078
4.776414299550988 3.9027070755919535 6.972895477841388
4.776414299550988 2.3841864382660987 1.663154191153401
4.776414299550988 0.6674502094934033 2.4107617828257073
4.776414299550988 5.746211220848032 4.957662423096024
4.776414299550988 1.487157395007482 8.488329361561354
4.776414299550988 7.967988918534511 8.54941931590599
4.776414299550988 8.68522818691905 2.8253565678431416
4.776414299550988 3.543616490152298 4.539947564213633
4.776414299550988 7.3564862781547165 1.813895308009399
4.776414299550988 1.849957809101735 6.813948113431036
4.776414299550988 2.752346071200271 5.4041013486373615
4.776414299550988 3.9157233761748036 4.950642972702057
4.776414299550988 3.4247686525292407 6.606904184426383
4.776414299550988 5.952037125487582 4.494004384339198
4.776414299550988 3.1901685057806035 7.977085284000121
4.776414299550988 5.856580426081198 0.8206989830270093
4.776414299550988 7.751295355521294 3.896758566198125
4.776414299550988 8.149225988175541 2.96459843603237
4.776414299550988 6.53065847845835 8.475455502960289
4.776414299550988 8.368363161561337 3.715584454743327
4.776414299550988 0.4501292465200748 5.176469431568939
4.776414299550988 1.513682762297937 5.546686380822096
4.776414299550988 5.99129207295556 2.1509243670979252
4.776414299550988 3.352372441278714 4.326360488170988
4.776414299550988 0.8350482815194986 7.442786955730266
4.776414299550988 0.54633277516384 0.9755913090715016
4.776414299550988 3.5437458027441764 4.54746083497598
4.776414299550988 3.2019677769924844 2.365344653966125
4.776414299550988 3.036469360634646 0.6813891880983983
4.776414299550988 1.7514400523040874 0.48799932241690724
4.776414299550988 7.413040865061411 0.10930665236659215
4.776414299550988 9.944915164191146 4.080566779021377
4.776414299550988 7.300029780308411 3.701471964254291
4.776414299550988 5.736247419589402 4.975634703952823
4.776414299550988 7.803131235324759 9.243627917227244
4.776414299550988 4.168403317853589 5.374100177654771
4.776414299550988 7.997975070642211 8.329957270918651
4.776414299550988 5.4566328302890446 8.372753369598211
4.776414299550988 3.6106576680712457 2.1128586485577188
4.776414299550988 1.665498313776739 5.503423260763287
4.776414299550988 7.110446724350693 3.218527048836411
4.776414299550988 4.5503615886637245 8.801147033856433
4.776414299550988 2.710355021863708 0.5883375900893133
4.776414299550988 7.857193968663637 9.570941308698595
4.776414299550988 9.326976745475399 4.624577528717205
4.776414299550988 1.4302694381726717 3.0764224795590454
4.776414299550988 2.721397271016731 5.426546128136536
4.776414299550988 5.623863216159735 5.445600435804702
4.776414299550988 5.445919874080055 4.199969532145188
4.776414299550988 2.029789564498423 0.6732947746965383
4.776414299550988 5.953163003447922 0.39731155251642597
POLYGONS 100 1804
10 164 605 554 226 747 21 49 801 114 601
21 168 546 587 204 310 210 288 388 523 656 811 81 858 730 604 424 238 720 871 64 124
15 700 775 735 783 340 425 849 31 220 60 668 803 543 10 695
6 149 514 533 51 83 726
17 391 691 296 303 169 532 77 396 581 585 112 676 419 632 128 250 787
16 162 740 14 389 50 291 278 152 211 615 542 521 66 315 273 785
18 152 211 615 227 272 450 744 34 188 714 683 22 671 597 694 3 717 706
23 167 472 721 175 233 344 608 359 299 657 261 418 377 488 759 849 425 340 642 781 281 496 507
13 164 605 614 564 224 74 345 271 193 684 295 114 601
17 301 620 118 442 826 413 195 873 837 76 607 445 760 749 839 746 17
16 200 443 403 644 317 435 361 182 531 360 127 53 332 240 512 131
21 99 524 538 279 258 275 687 431 416 305 248 189 245 473 110 321 498 246 641 1 286
19 470 857 375 508 185 487 548 621 97 308 344 608 359 823 186 91 709 474 569
19 386 616 244 851 703 492 571 258 275 687 325 119 763 464 312 553 39 699 387
15 308 344 233 175 721 357 835 718 692 33 701 43 394 621 97
22 404 534 459 491 90 260 685 489 784 875 675 654 383 623 579 840 439 805 830 860 731 468
12 616 624 311 327 476 32 222 80 566 703 851 244
20 250 787 391 191 11 673 864 430 551 788 49 21 747 226 57 247 526 54 677 289
20 586 645 354 693 712 217 812 593 125 771 376 573 123 213 300 267 399 133 397 225
20 111 179 618 24 168 124 64 871 146 163 770 555 5 0 516 619 613 626 328 368
6 692 718 835 263 259 355
20 405 674 198 490 364 138 850 433 834 853 820 769 711 150 755 323 719 556 67 478
6 431 687 325 119 836 416
18 855 869 454 79 12 876 229 180 293 374 662 828 672 84 519 46 202 106
10 127 360 722 852 228 738 6 562 332 53
18 317 644 403 443 230 13 262 658 104 324 157 302 672 828 662 374 293 503
18 246 498 640 841 585 581 396 77 527 8 38 799 350 716 448 372 1 641
17 210 288 27 329 102 833 415 844 187 94 284 156 846 44 257 204 310
15 439 840 579 623 100 117 159 778 206 650 307 599 751 568 522
20 114 801 49 788 551 484 741 136 142 845 406 18 664 70 347 270 190 660 684 295
15 195 413 177 680 132 55 197 719 323 755 150 707 25 837 873
17 198 490 364 241 199 172 331 249 254 633 134 807 517 165 437 688 674
21 749 839 480 47 827 708 628 582 392 461 385 475 141 239 342 400 274 366 818 445 760
20 84 672 302 157 324 670 761 854 617 373 865 269 666 649 336 462 802 252 46 519
23 162 740 14 389 634 59 590 736 203 347 270 190 660 684 193 271 345 264 547 588 42 183 785
21 249 331 378 23 821 816 426 617 854 761 670 324 104 658 262 729 37 557 234 633 254
18 377 418 565 282 540 85 145 292 467 398 667 762 60 220 31 849 759 488
22 60 668 803 543 609 212 113 509 369 363 316 93 595 602 504 19 429 349 276 256 667 762
18 524 538 279 258 571 492 703 566 80 222 536 463 29 78 697 436 831 782
13 517 807 545 4 219 872 727 95 98 696 265 41 165
19 40 268 603 384 689 65 483 806 101 417 610 673 864 430 551 484 741 136 535
21 816 821 306 819 808 215 809 595 602 504 19 429 30 129 580 334 269 865 373 617 426
20 156 284 94 187 343 560 753 485 87 290 231 482 867 287 813 859 679 421 20 705
18 168 546 587 204 257 44 846 156 705 20 843 63 611 698 140 179 618 24
15 489 685 120 170 285 346 584 363 369 509 113 822 393 875 784
14 542 615 227 272 450 139 541 353 297 277 479 82 66 521
13 22 671 597 694 339 232 109 639 181 743 481 575 237
17 99 524 782 831 436 390 745 471 779 52 713 58 716 448 372 1 286
19 18 664 70 347 203 736 590 313 776 863 832 734 440 451 7 520 428 174 154
23 419 676 112 585 841 640 498 321 110 473 88 804 301 17 746 839 480 47 827 708 600 105 26
21 413 826 442 434 151 248 305 416 836 119 763 464 312 280 408 635 848 866 132 680 177
14 376 771 125 791 9 797 276 256 667 398 467 292 108 596
21 404 534 459 491 251 320 402 122 447 862 400 342 239 141 318 218 36 796 661 647 558
22 149 726 83 530 155 337 192 651 732 103 874 661 796 36 178 161 460 208 253 627 381 622
20 700 775 735 379 781 281 496 242 356 231 482 867 287 410 650 206 778 159 143 341
14 307 650 410 287 813 859 679 28 710 715 631 757 751 599
19 10 695 700 341 143 159 117 100 623 383 654 675 875 393 822 113 212 609 543
16 128 250 289 677 54 469 283 409 549 752 505 567 105 26 419 632
14 180 293 503 317 435 361 182 810 652 856 68 137 876 229
19 226 554 605 614 564 465 627 253 208 460 438 824 409 283 469 54 526 247 57
16 16 768 552 322 420 802 462 336 537 594 712 693 354 645 45 825
16 440 734 73 160 412 592 544 457 793 518 655 870 166 861 335 451
15 149 514 533 794 588 547 264 345 74 224 564 465 627 381 622
22 51 83 530 155 795 525 494 15 395 130 686 479 82 66 315 273 785 183 42 588 794 533
19 739 764 773 577 148 266 294 214 591 800 511 637 62 423 243 678 319 758 659
12 404 558 647 661 874 103 732 209 559 860 731 468
10 61 855 106 202 46 252 802 420 322 552
10 578 733 636 863 832 734 73 160 412 638
17 167 472 721 357 835 263 259 606 529 485 87 290 231 356 242 496 507
22 432 458 699 39 553 312 280 408 635 486 789 235 777 466 847 358 583 365 815 728 742 71
21 497 576 453 756 185 487 548 621 394 43 701 69 669 774 294 266 148 577 351 767 441
14 20 421 679 28 710 715 631 766 184 817 236 611 63 843
18 111 179 140 698 611 236 817 184 772 126 494 15 395 130 449 563 328 368
20 197 719 556 67 765 646 574 407 663 147 223 96 235 789 486 635 848 866 132 55
10 392 582 628 708 600 105 567 505 752 382
19 704 786 371 510 414 121 725 221 38 799 350 716 58 713 144 792 116 456 589
23 155 337 192 651 732 209 559 860 830 805 439 522 568 751 757 631 766 184 772 126 494 525 795
10 134 807 545 4 219 798 37 557 234 633
19 92 550 506 338 428 174 154 18 406 845 142 136 535 40 268 603 153 499 748
14 613 619 352 541 353 297 277 479 686 130 449 563 328 626
23 834 853 820 216 333 838 122 402 320 251 491 90 260 685 120 170 285 411 513 723 653 314 433
14 593 812 362 135 580 129 30 429 349 276 797 9 791 125
20 95 727 207 790 380 495 528 35 348 625 427 629 401 663 407 574 750 173 696 98
15 316 363 584 346 285 411 513 723 754 598 808 215 809 595 93
18 77 532 169 303 309 868 630 561 515 298 370 612 121 725 221 38 8 527
6 152 278 291 477 717 706
6 735 783 340 642 781 379
21 86 570 709 91 186 823 359 299 657 261 418 565 282 540 842 737 304 877 205 89 814
15 391 691 296 303 309 868 630 643 724 101 417 610 673 11 191
19 200 443 230 13 262 729 37 798 219 872 727 207 790 452 201 829 196 512 131
20 76 837 25 707 150 711 769 820 216 333 838 122 447 862 400 274 366 818 445 607
13 336 649 666 269 334 580 135 362 812 217 712 594 537
19 138 364 241 199 172 331 378 23 821 306 819 808 598 754 723 653 314 433 850
24 471 665 493 72 446 422 367 690 107 681 330 326 158 194 502 572 444 501 29 78 697 436 390 745
12 301 620 118 442 434 151 248 189 245 473 88 804
20 539 648 176 702 682 171 255 455 75 181 639 109 115 578 638 412 592 544 780 500
15 405 674 688 437 165 41 265 696 173 750 574 646 765 67 478
20 50 291 477 717 3 694 339 232 109 115 578 733 636 863 776 313 590 59 634 389
25 2 56 48 800 591 214 294 774 669 69 701 33 692 355 259 606 529 485 753 560 343 187 844 415 833
17 385 461 392 382 752 549 409 824 438 460 161 178 36 218 318 141 475
CELL_DATA 100
SCALARS cell_scalars double 1
LOOKUP_TABLE default
0.000388556200587864 -0.0006641796467974359 0.0021021728540286944 0.005891599158286631 -0.0004091674036077464 -0.0004389850857009492 -0.0002909747629296078 0.0010158521108909468 9.415803147749813e-05 -0.003897197537802377 -0.0004676313280054245 -0.0005217791687615048 -7.481361840433465e-05 -0.0003635633916410086 -0.0012727629953079855 0.015253207612727415 -0.00018725939271746483 -0.0012495751490959606 7.503401855402103e-06 -0.0007005602854777138 -0.0008844209531053693 0.009361251690671146 -0.0001427420104667121 -0.00038341676559472404 1.6737007276113047e-05 -2.552411514766817e-05 0.0005153979854402024 -0.0011028092037816961 0.05173848683447879 -0.00051813278183932 0.0015815402463879025 -0.001583934730729375 0.0023803321102322528 -8.945965364315356e-05 0.00017474356105218192 0.0021080306881584576 -0.001108228705108516 0.0010244181862519852 0.00018030586443273933 -0.0014250347356057347 -0.0002050686921792888 -0.0011354154799416705 0.002244504912957801 -0.0019288272280597596 0.048703165882294286 0.0002208750348344779 -0.0005401543249412555 -0.00016364397863899427 -7.117843043946692e-05 0.0012979683715697021 -0.0007871593862214255 0.00015332078179408626 0.028438633446607575 4.7465123963696954e-05 -0.0026581595875629915 0.002323444747958092 0.06620739155594091 0.0006318316657756284 -0.00018999628250693235 -0.0021298871740116354 9.477777812083588e-05 -0.00012203674041355583 -0.0005661084247732262 0.00479325183458279 -0.0002665732617144201 0.02381682208634306 -0.0003105059493089257 -2.913933726311768e-05 -0.0012450542316608804 -0.0005667294983870974 0.00012816525381165178 0.002491799812393225 5.907733982191132e-05 -0.00046587491965688343 -0.0008514941343555904 -0.0002566439198448123 0.02423727199597181 -0.00016565746905250478 -0.00028845794172926986 0.0009858454863609367 0.0569810303347662 0.00015920636060418047 -0.0012096126120368922 -0.0005810327314854646 -0.00045383547027100235 -0.00039720791666741917 -0.0026995495644248635 -0.0002862461362873603 -0.0002614896457080462 -0.0003333442416639798 -0.0001795041222534266 0.00018919394361205377 0.0006925867029980992 0.00013759018401948708 -0.0011059414237033494 9.875532330383407e-05 -0.0002584832561458583 0.0005679020238078536 0.0011727908270788845 -4.3185476233276177e-05