# vtk DataFile Version 2.0
polydata
ASCII
DATASET POLYDATA
POINTS 24 double
 4.46850e+00  5.55357e+00  4.28550e+00
 4.47810e+00  5.74688e+00  4.32018e+00
 4.36216e+00  5.34676e+00  4.49909e+00
 4.41446e+00  5.82981e+00  4.63190e+00
 4.32385e+00  5.44662e+00  4.71894e+00
 4.59202e+00  5.07615e+00  4.69117e+00
 4.43599e+00  5.35193e+00  4.84789e+00
 5.06653e+00  5.16593e+00  4.81320e+00
 4.98957e+00  5.05349e+00  4.71980e+00
 4.73623e+00  5.55355e+00  5.01070e+00
 5.04024e+00  5.78699e+00  4.82563e+00
 5.04886e+00  5.90438e+00  4.60161e+00
 5.14667e+00  5.62929e+00  4.37648e+00
 5.22402e+00  5.36005e+00  4.70074e+00
 5.22119e+00  5.35985e+00  4.49734e+00
 4.77904e+00  5.44465e+00  4.19947e+00
 4.86683e+00  5.12167e+00  4.35076e+00
 4.92914e+00  5.65032e+00  4.20545e+00
 5.01751e+00  5.08904e+00  4.43584e+00
 4.55936e+00  5.08846e+00  4.53450e+00
 4.78352e+00  5.85001e+00  4.26701e+00
 4.53921e+00  5.92203e+00  4.71257e+00
 4.84772e+00  5.98879e+00  4.49942e+00
 4.77011e+00  5.73408e+00  4.97998e+00
POLYGONS 14 86
5      2      4      3      1      0      
5      8      7      9      6      5      
5      13     14     12     11     10     
6      17     12     14     18     16     15     
5      6      4      2      19     5      
5      0      1      20     17     15     
5      1      3      21     22     20     
6      4      6      9      23     21     3      
5      15     16     19     2      0      
5      19     16     18     8      5      
5      10     23     9      7      13     
5      21     23     10     11     22     
5      22     11     12     17     20     
5      8      18     14     13     7      
