# vtk DataFile Version 2.0
polydata
ASCII
DATASET POLYDATA
POINTS 24 double
 4.30954e+00  5.53889e+00  4.13312e+00
 4.34726e+00  5.87439e+00  4.18616e+00
 4.14672e+00  5.22763e+00  4.49332e+00
 4.26777e+00  6.02639e+00  4.62707e+00
 4.11986e+00  5.41020e+00  4.82478e+00
 4.48641e+00  4.84024e+00  4.76273e+00
 4.32106e+00  5.24672e+00  5.05338e+00
 4.75052e+00  5.51727e+00  5.25334e+00
 5.18880e+00  4.95647e+00  4.91601e+00
 5.02072e+00  4.77691e+00  4.74638e+00
 5.17999e+00  5.91595e+00  4.96737e+00
 5.51193e+00  5.32572e+00  4.63302e+00
 5.18326e+00  6.10930e+00  4.56789e+00
 5.40326e+00  5.65717e+00  4.26534e+00
 4.91338e+00  5.28340e+00  3.97545e+00
 4.96593e+00  4.90266e+00  4.20371e+00
 5.14710e+00  5.62043e+00  4.00874e+00
 5.46517e+00  5.12814e+00  4.64837e+00
 5.14932e+00  4.84230e+00  4.38207e+00
 4.40854e+00  4.87447e+00  4.53037e+00
 4.80611e+00  6.03533e+00  4.11378e+00
 4.42391e+00  6.14301e+00  4.71583e+00
 4.87568e+00  6.22035e+00  4.40332e+00
 4.81829e+00  5.83502e+00  5.18766e+00
POLYGONS 14 86
5      2      4      3      1      0      
5      9      8      7      6      5      
4      10     11     13     12     
7      16     13     11     17     18     15     14     
5      6      4      2      19     5      
5      0      1      20     16     14     
5      1      3      21     22     20     
6      4      6      7      23     21     3      
5      14     15     19     2      0      
5      19     15     18     9      5      
6      23     7      8      17     11     10     
5      21     23     10     12     22     
5      22     12     13     16     20     
4      9      18     17     8      
