# vtk DataFile Version 2.0
Really cool data
ASCII
DATASET POLYDATA
POINTS 1137 float
5.50278822092068 7.05003435699882 9.08026524649154
4.55481538513619 7.54350208043271 0.24618707282418
4.84803093314107 7.37723523174876 0.06463945530867
5.0466626802311 6.87565320791363 0.124667349638
4.63901543894498 0.30050172250048 1.24881181422105
4.03634511207058 9.40640138326945 1.56572773760805
4.20757936748689 9.84727125449693 1.68702850096468
4.91340484323771 6.15467617469181 7.16023363337043
5.30854721530366 6.00429007257335 7.03923804865783
5.75629141853152 4.76596107675842 6.76554475087404
4.26140449569338 9.84812607110834 4.33339461822615
3.99094542977773 9.0565075914718 3.67079217139176
5.1334629975593 6.07680027091011 3.37795599419956
5.30937907703873 5.10810294860792 2.56797857705061
4.58389869657433 6.36104453521886 6.61738601158855
4.23863952856672 6.90272736415891 6.96959885064896
4.8185511184564 6.65270530301474 6.17319023643391
4.727547834316 6.64789972627618 5.76212668115885
4.42750298011752 6.33048251520699 5.57725670191556
4.46927287726531 6.99693445252053 5.56018212094634
4.24803873606134 6.17342988440074 6.54485845236589
4.61792735915453 4.62750796512486 7.9148868909231
4.85591430940868 4.57608944366516 7.66716965141105
4.80975304448094 4.00641831484968 7.46752302626087
4.31917839041503 4.21192137052948 8.02473790910227
5.16807252307859 3.35955169009242 7.8891994062262
4.67573150849553 2.190222031533 0.50417133767146
5.00500501541184 3.19168878461975 0.34816273894394
5.02325498904999 2.48462722388546 9.99364219887132
4.97583011611698 3.09585242144153 9.96502311973124
4.49833093926787 3.431666641738 0.14269970889043
5.1953170660149 0.41780564423771 9.70627253030353
5.14285906381994 0.60730703708928 9.85631930391637
5.38580152590606 0.52592473911817 9.41651086524126
5.12940050119986 1.85927382930363 6.8127587481934
5.28513793639091 1.72921909164194 7.19669282252196
4.31112855092616 4.94756180000995 7.77096222841777
4.08157167997083 5.69079368382631 6.96582286089302
4.39723941827248 5.60067721732794 7.5361728624593
5.71882225403717 2.18726652623993 3.5293310258898
5.36828254271072 1.37782394240486 3.86567433265544
4.00805897246573 7.10486672981989 8.15726243506165
4.47464817251347 7.21812422980484 7.81890185559862
4.34062201934542 6.84229062095006 7.46372319668629
4.25741488781015 7.40995381927193 6.78643492286649
5.19969001479197 3.2668792145493 6.65702763837404
5.20454841529828 7.83361250932303 6.48358201232635
4.72060959467976 8.53253120965761 7.29499168805782
5.27912568859686 8.01393049644069 6.66055292743916
4.97814007738804 8.58393816834082 6.6946422571762
5.17895149273129 7.77924600315865 6.93622604853111
5.10567354265211 7.60645072672802 6.69315479819905
4.35298656437149 8.55043708590772 7.32169622090443
4.82986737138813 6.33678532989801 3.72868790586911
4.73045960065954 8.85298497970026 6.23393351353538
4.7194115918804 9.42913119780128 7.41433962249213
4.95861627700113 0.24762970672469 6.36583393278088
4.71568573037244 0.63993217095284 7.36598462766595
4.8340208111704 9.70754415905516 7.71839748962653
5.37445474415535 0.30080284593495 7.13987713136432
4.33225823838722 0.64102073842466 6.85035079011201
5.15564550919008 0.59021693919366 6.99650728100777
5.09514654497394 9.80548024228953 7.67590115553259
5.1343240726619 0.18491206042545 7.63164924122195
4.72260136776082 0.44878544819914 7.61119031923817
5.2824275185223 7.14646766541393 1.42814879478496
5.07696802819122 7.16157798411175 2.11234942377503
5.01010445220966 6.02126366805225 1.42736220385948
4.30150513188643 6.54755619286446 1.95010881383463
4.37456926472522 6.19889296615674 1.82590687531777
4.24110794022611 8.89589794456755 8.28428640770988
4.86474950201833 8.94470895797178 2.31524317729258
5.08924113732014 8.68654167397932 2.68183514107512
4.31462386526737 9.26273743059324 9.37713734450174
4.59271553270655 3.17685592150418 6.68781899898571
4.40160143979068 2.95522174985281 5.58569395128469
4.27670669083867 2.67726710235973 5.90745033293668
4.26521067344866 3.10580611609207 6.29123298821652
4.80476641124325 2.7278187078625 5.40049539949712
4.35248306319844 3.40980041476477 6.15411978541118
4.45927630669122 3.42549337558348 5.87451040975599
4.4497659068067 0.56638456150013 0.66821908094846
5.43254595841091 3.93453279757778 2.9374371598666
4.82351220928121 9.4613515345785 8.17921367994326
5.02713661797672 1.9065273883763 1.59110675024698
5.44069594403936 1.47444142900169 2.16002753936479
4.92317480456192 1.8250837469249 8.04296730736523
4.72078060477167 1.62117006516041 7.44395663121415
4.95010699075774 1.59725303503243 7.52709962814045
4.66687079879721 1.88241945790973 8.11515027790387
4.497311398453 2.77908134809195 7.75109479586573
4.33999320174569 2.36419620669209 7.99357378368514
4.91374016071309 2.85693586566469 7.88197955193607
4.81647021570992 1.86334419089338 6.84952464352891
5.2435710547092 2.90622442855463 7.63434169814168
4.71528055726283 0.44951811419422 0.87451280997187
4.22563008904549 9.32313798340061 5.04452441776869
4.36477710125989 1.23568812860195 5.96808456149185
4.68626082007892 1.34151355903016 5.58471769692547
4.41550117185425 1.78518246546954 4.95937365742427
4.38794946025832 1.41055467602388 6.49653153560781
5.62325424909038 2.51579260307475 1.31050854780939
4.65571338488042 2.35686327844381 9.0175319996991
5.04444560875893 2.10710526487442 9.34223914710991
5.03764224766128 7.64020914894118 2.63497769259679
5.142078590755 7.66892035144519 2.48060488672577
3.79009788744419 7.42833536235429 1.89295699137763
4.98967288756097 5.81478122070617 1.2367018953246
4.31707403842684 5.87853113253192 4.18144845826635
4.28830879344342 5.58400958139041 4.11488398313267
4.26488608816649 3.18601649587267 7.89099908082351
4.15678343874376 4.6879822333944 3.19485437391696
4.35131217875554 5.49223415340263 2.79762197606525
4.29554726636969 5.21455173556097 3.16923556213257
4.52227519726788 9.85115575057156 2.38026872505243
4.94818976725614 8.64345823084066 2.85960236007361
4.16795825320164 9.61000971074856 2.55137707145972
5.17768505749575 4.91465287092314 1.10047919140466
4.71752805122013 4.93895196912882 1.2990872308808
5.29287855743796 4.91296114779806 0.50247451419167
4.72849680889833 4.93626225243545 0.22291362220425
4.97653828443195 4.93394660584061 0.18956568113062
4.26854534213508 4.19522119430297 1.0623905213861
4.43676993254059 9.06518458451153 5.62578763199131
5.42261318206415 8.616088283598 4.5591807370249
5.03131570966992 8.93337076787891 5.71626596099687
4.97139094031734 9.30799997974387 5.45911558733146
4.82945431680337 8.83445832941586 5.76785854441761
4.48901868113011 9.32287258457875 5.46823685116415
5.1932010588099 8.2345371806208 4.6752773162008
5.34343985208899 8.26056605562535 5.21755792398001
4.14934651868732 8.8265469540618 5.24074391119695
5.06721108420788 4.44186762493284 5.77797497467852
4.13161206307188 1.24840728593825 2.9443880878085
3.87365785875674 0.61228809634923 1.94862005224733
4.60377813726293 3.51941374036552 4.4640281880078
4.22791697881337 2.27952199478963 4.58453946595177
4.63974338854787 3.521362360106 4.67451056229779
5.09745232593434 2.76565356814224 1.60641514534109
4.2902982101379 2.15344025480537 1.19628069929481
5.00068059413679 3.16394759257749 8.78175939518846
4.22050483365176 3.40930571257593 8.92443467115604
4.7993136381934 8.14394595880842 2.97322926135599
4.30530395821141 6.91677859256953 3.41918919703491
4.18858788567845 9.89948338498138 2.17314231250979
4.19188276350689 3.07677946231682 5.2683243170925
5.34030924741395 6.11226267964836 5.15574522067944
5.0950959233571 6.1120132562795 5.4626558895005
4.90316190287262 6.63237283873683 5.72752736043616
4.60033570746337 4.60813511205784 6.70374873097159
4.76420497715477 4.53356763981751 6.81094712605342
4.55068631401922 3.77989151000769 1.49605331609428
5.1315650806325 2.81618559259253 1.66956682729643
4.81577329788034 3.48801744744108 1.33685288115429
5.05910287402608 3.39196185288753 1.6114614088837
5.11156616174507 0.35921340134041 8.97078211782434
4.34423392265363 7.89158252309763 4.84777079864643
4.65623435945056 8.07344790876722 4.49527191621724
4.55846692833164 4.49021563932452 3.39132442488764
4.78590514960247 5.2088706552943 3.42046047695396
4.91649128868556 4.83508584601837 3.47104458733193
5.33858963502921 0.67642440187391 3.4697561324232
5.35498399715535 1.00268708989416 3.37151584390976
5.36387335142376 0.63669376313308 4.04374632784259
4.98316194420809 1.12062743725354 3.05430489295186
5.39699995356816 1.27472499200277 2.65150954729973
5.16973469815471 5.39531303363954 9.45003913374891
4.06688045680734 7.40815760009535 2.79572719377767
4.43619880175905 0.10486681745937 5.67443359158255
4.33831377287346 7.0385358638996 2.93778533810226
4.77796709457655 7.76509110675881 3.88567488873681
4.88810296772942 7.79486586790953 4.37125739869002
3.8361323947741 5.60085011687386 3.68322846878121
4.95073980961731 1.32484243950145 5.65054178224035
5.23201706827348 4.63658319469297 4.14734779047973
5.25031710438619 0.83926478440822 5.23645157946845
4.36902499038346 4.50163438170675 8.99282931025961
4.58413680404321 4.08306006457057 9.57432004292777
4.32452009156074 4.20869590946699 9.40021345723822
4.66323175242019 5.93091680436234 0.39207065914478
4.21945619511901 1.65480028694603 2.43766507815179
5.4442042307688 5.30208547873871 6.82029280298232
5.15134494674501 3.77147623547518 0.55816801299852
4.46673431857143 6.03108277430004 8.83992770357722
5.12056080647047 9.28573782957087 2.26649661727025
4.95441396418201 9.76302386546521 2.25997360061616
5.24554003066763 7.96253954686293 0.83494190646093
4.25604540154843 1.45506728284777 9.03999421460163
4.38273507320281 7.71947725458966 2.59770549138338
4.96113938858343 3.79057687543202 0.94273624649276
4.58242061566586 7.62156530468636 9.70598486457325
4.41113157864906 7.71384647161307 9.84934619752394
4.54956098574746 8.62609174508507 4.0386277014058
3.87797203510758 6.10971242665563 3.77478965135696
5.50781918502516 5.26041615577548 8.46566964450416
4.92955101467093 0.54788156634716 6.51854118247249
4.85747725765679 2.1594340120814 3.14111145609491
4.47312474091995 0.62333022522174 6.54176835490531
4.51955795897472 1.18339099905099 6.24492844914449
4.75551899549654 8.26542359343303 4.6144941059456
4.53547101464189 6.3447606513341 0.19853319882835
4.68872372540213 8.61315247182754 6.3752972598619
4.49435724548969 4.85360937795344 4.74995119168727
4.51917798900247 7.81319424097634 0.86957766580149
4.96444654696236 2.13607453852335 4.1523190600094
4.89928260516416 7.19902613026773 2.76419383159491
4.42083854049904 4.12741173625565 8.40372433941058
5.24774568796633 7.30295224695299 3.22195689319804
5.19224237064609 0.22253657465219 6.06293321257534
5.05358005030683 0.108092876153 5.69420172158285
4.22379084716367 2.7914905643005 2.35540641157931
4.1570237725243 2.50457641576567 2.62672181252798
5.26534354486929 5.67568622335035 1.94216383361957
4.77985675928241 9.88074700954946 1.43756096954526
5.30058970214771 5.16099840618299 9.27116511635668
4.95676850389705 6.74212260921248 0.29964723308404
5.16174637806682 0.54174197559108 4.16380536818409
4.97861603975808 8.05602499569016 9.14151980470169
4.47477677464228 6.21179424937387 1.51324106861695
4.64424102073714 0.32334891264818 0.92736466524741
5.05746190979391 2.16079824687663 9.7539289585143
4.60940106484272 4.08489336337473 3.87323365716603
4.77743894825136 1.74793029615948 1.29563769230334
4.55584884727091 1.35188724559278 1.38376097614232
4.60994062062938 4.25581986409541 3.16893454261783
5.42752686570357 1.6131495219219 2.48679104189594
4.7271330493455 1.60152782392658 0.23260826260107
4.16094229460078 4.55848109691203 2.42913027212861
5.00709552566535 2.90832477863421 0.54536025669889
5.62393260311762 2.61459435352301 0.86858221865812
4.58843185486294 6.69174939147393 6.82483533788052
4.72948640378221 6.96469068952101 6.56552868928094
4.33073674253392 2.54795612196925 1.47613933416624
4.83140764238681 2.48507268173654 1.75224392291193
4.75257293655126 2.0167766072037 6.81802500301519
4.24962539938095 3.0862232104201 4.2609531937977
4.67489245194776 5.55456780868886 9.3117304489358
4.68095157940507 4.12997793388801 5.53359329942817
4.35853863223505 3.56997270938496 5.80370409326073
5.10259996692483 7.71560816945178 7.80899629689795
5.39673932027378 4.40262171517774 2.78455438397534
5.28383935569178 4.820242887073 5.59371226376178
4.2513507911275 8.81889764796199 2.09159824373336
4.33680472402427 0.97741734001711 0.72029596766677
4.51275194157108 5.05946034411836 1.28661510669006
4.43999185142334 9.06231838854363 1.26929526379925
4.84343385310422 3.29400957572245 0.43585426163087
4.95509088973682 3.72573429988125 0.59188293355426
4.15401912954173 8.77187939475879 0.64667315371645
4.04108505428354 8.83783712200332 3.93628523514798
4.89283206783275 4.54591097331267 1.42659250214354
4.62547629035869 4.06374535335397 1.23146437578225
4.9805972768133 5.39416065454286 3.20136094884554
5.30723807205434 5.18831966526354 3.05273318609439
4.13142627732692 5.26119198336534 4.45480461492688
4.93334929314901 6.57107130990418 0.19490109840116
5.26408858293236 7.85633554811234 4.45430164293771
4.09788748428292 2.79669005761449 4.71368403166532
4.27981027684986 8.85103511553543 7.54693825021121
4.39830276862872 4.53665534302948 5.94496843257513
4.60646475910409 4.66618527014448 6.0612441427256
4.46270659253351 8.22545416848899 4.03664777881299
4.58348578594307 8.01140798038615 3.78996141175656
4.80074426520999 7.26976366850613 1.77423736590801
5.02739621054931 7.56801139562942 2.40434138582175
4.94894515023908 7.56214134265281 2.57933816694134
4.22112055130043 3.00033865248844 7.27860880897621
5.18908782684058 2.01725981614331 6.77490134772449
5.40387761300743 2.30556863804835 6.08011873871035
4.3131311674087 2.33617806940224 0.70782128623352
5.25719239884081 7.05620923704346 4.77913122118784
5.26424294203822 4.6239981259542 1.23380778694859
4.68959450905004 0.80351485416001 7.49535100889371
5.08347762842817 1.29744208786767 7.56350595460624
4.77086365867044 3.04341096181178 0.68527707977698
4.33052874028416 2.84533828525454 0.79731978886465
4.46851320073926 9.66790882052506 8.54241304293596
4.81591152987241 9.75680057756584 8.92190613863335
4.63896266459368 4.34526775772885 0.05345060387607
4.19261345379853 6.62228074947777 0.44996408334338
4.92530852288867 7.26655516400234 1.46674207763177
4.71524833610806 6.96123371196114 1.23798320317909
4.64350991490774 4.94940131973621 2.06151884901959
4.68326483660568 5.02376661426644 1.36924557583394
4.17351529650132 4.4312143392223 4.2199585011905
4.77930888067998 5.40783348424396 3.95218385285411
4.69524445823687 0.62435890585466 2.48540924869213
4.52409544488526 1.55085779748272 8.9348007761063
4.57064385408413 1.41550467998153 8.69798558485314
4.91964131050731 1.50747654012996 9.22939553006807
5.1990468268602 1.27119345122361 9.02048512141762
4.43602749953758 3.8148111318901 7.74415393147616
4.61389445300688 0.97156102064991 5.17732945768391
5.11428475940448 3.2967764911659 2.75400259316196
5.15026637227303 7.7899052956176 7.89947103688936
5.03388035717708 6.63133186202724 6.06307806459052
4.92644098938815 8.04839858707446 9.46808180714365
5.37303996189576 3.91292544871202 2.22222034079134
4.23494194326548 4.20654044906003 0.53521323164295
4.02813028402577 3.1410502431389 1.32765275230501
4.21088402556338 3.6892094473625 7.54840151438114
4.14713730325945 9.64421193905071 7.20594784215574
4.78939050364453 2.71745126526315 5.2190119030752
4.35344566734605 3.00051351209523 5.03710135428772
4.34417727171422 2.92907556110509 1.19638330789782
4.72180526233551 3.10008234977525 1.19668628186703
3.87026963284215 5.46016241983679 3.35732141243368
4.86484048275179 8.70385809435418 0.47546600455125
5.33163689640612 8.43029216779298 0.75950812046734
5.27206702555116 7.41921891003916 0.13879085116046
4.22991455441476 5.99636443625273 4.65872984974056
5.28573681637232 7.39100310407911 3.21209228676153
4.3618617433609 5.42221175054018 2.433310394938
5.08779619042057 4.48052863823036 0.00706088743951
5.43772235166718 5.56835129671291 9.4421628120727
5.00587854737413 1.6870733090893 1.92258387693207
3.88475960264207 7.3493821663753 3.70532184046218
4.6456687703633 3.278272240316 2.99304295343223
5.02303714697644 2.51417293508288 0.39568779190049
5.29954637620051 8.16749503392836 2.29681834272316
4.97309655962805 4.69594174057147 4.01673705248162
4.57694628048874 4.33367060496566 3.87423703890806
4.28539003591542 3.88399525306592 4.17017924925622
4.69462030396679 0.60628827179587 7.73394319364684
4.94040278228947 8.12460276823237 3.41338057456868
5.14273108560886 7.81425312602155 3.54452329537631
4.01562729268043 3.31228866410131 0.24511768738045
4.95469454731016 6.81502987967359 2.43310198073047
4.66645496253309 6.58324865191153 2.42177293199382
5.05817632067851 8.91695120809172 4.33194913813506
4.34342288078958 4.33039863652882 2.44708775127673
4.25583206701228 6.71508207583364 2.7820806166498
4.44260548402284 4.86861999096391 4.51082343897798
4.91569835745562 4.91152114270181 4.2243884735893
4.31882556976726 4.97989445319708 2.18967257928923
4.62504294309654 2.20037033479284 8.21467690559919
4.47646077020425 2.18404894068505 8.84882387599874
4.6942140517811 1.14892920746982 1.09403351231717
4.65714291668901 7.20796015811256 5.36930555735536
3.78854723438874 7.09152091212325 1.72731719321408
4.57404418405272 5.59201480890764 2.77258992826676
4.67220779899979 6.09712080787438 2.89578300083614
5.11047478213273 8.53546547260618 7.84477766475267
5.27288521785175 5.83944352754786 1.84260237527154
5.29948198936347 5.68612716840637 1.83722350276154
5.07278652289893 9.47224940138501 8.30887614361791
5.05959943911617 9.68574862325568 8.81942835507805
4.85681465614532 7.84923599218219 8.95270294581347
4.69289273120612 9.00214039419508 8.0732256139361
4.93785559858647 8.76959740758197 8.19537772520969
5.30358309937844 4.55102487810126 2.59577956203796
5.29944178860539 4.47961250109329 2.80466123085249
5.31185004585442 4.8396395283062 3.19878238889821
4.13522469209319 4.18962753838689 8.69879198220362
5.51848787926494 5.98023020652875 9.29862744805869
4.32585915962877 3.70252700616768 3.16423305658559
4.62483699581008 3.96853316936351 3.3146919584999
5.00953830716745 9.00916738062064 6.40040360884263
5.26138736168744 9.06793997567988 6.1031185757078
4.54820350613753 8.48750240506398 0.42368260857706
4.66405489969688 7.90532903044512 0.65629174096131
5.35385689961011 2.98329123308139 5.49319094737134
3.93618344448315 3.02568122748779 0.58411538905565
4.50959243046038 2.80242945398989 3.95861070444754
5.23083512710771 9.30019535581109 4.94340110843016
4.07210589142708 9.33621916423476 8.60304635720914
3.99724434530175 9.23770917192693 8.86016941664781
4.98081878272504 2.44138801450812 8.20292484293996
5.05151586890055 2.63480494700366 8.7416142317867
5.27068087623917 0.8952288310625 9.74852745481347
5.17901844468963 4.31611702607789 9.33811558351181
4.74899577276027 5.83472387326867 7.5648418834953
5.04148847213684 0.50671514209026 5.10273013720265
5.13758189674557 8.78674893811798 6.67814394553273
5.16592462320534 9.00287805947701 7.10911984577925
4.77936385202148 7.19191994984531 4.67093158233543
4.51910686212923 7.25236907534218 4.9486101445808
5.2291015846346 0.42573090692655 5.27268001033212
4.8942698348118 5.30592663064638 2.25464582109174
4.59437759893401 5.53351432593539 2.4367297112592
4.28854107325386 1.16767435842591 8.67762975351686
4.86269135522715 2.32264308919428 9.89250708180974
5.22885961152037 7.27654554204846 6.67399426107275
4.24597956201892 0.78196911134319 2.27176141006356
5.32379240601318 6.24751904284762 6.19670129912256
5.18196346956651 3.79182013786991 7.53161157130834
5.36708102061081 3.64787488894789 7.01704968597746
5.36996312432716 4.68441180693001 8.26084456939226
4.75253248072567 1.90453770215788 3.59871201089236
4.1692202198648 3.70366487803813 1.52276747726066
4.26779992350489 9.11768095440968 4.6246656341588
4.68059502072608 8.70586268343923 4.34631307598174
5.098959280564 5.97365979035513 6.61666765338535
4.289835288111 4.24269008819647 2.9095670577288
5.43733782113496 2.28165367837931 9.247862727139
4.48130961623541 4.08634528808283 0.26352298856109
4.41435953462344 4.02770496738721 0.18594130630796
4.9202770343128 4.15212730569045 5.52521326365959
4.81681305674261 2.50401343951017 1.97212145418324
4.99472830525562 2.70773519408067 2.02610796261
4.50834768929432 2.33383634741186 4.061624803812
4.39220362257487 2.17769705714039 3.74158834229949
4.89312436808444 1.28599223773703 9.70944951721494
5.06466108207407 1.46395295212185 4.19901516946287
5.25458973088381 9.22911995664163 9.12562409147125
5.33776178747299 4.27848903300001 2.21000726144555
4.46786426603956 6.34241739703716 9.42048365452617
4.66560848039496 6.01428519385481 9.15576423317655
4.31960198166127 6.4488390511021 9.30710135435171
5.53920022808126 1.07451841280471 6.91446120525494
5.28542197786337 2.87280511265651 7.34913424783384
4.30709571969757 6.3238683709417 8.73535314754288
5.29244747675623 7.75718091784513 5.69595639113924
4.75894497316397 9.17350416617706 1.13719861206117
4.7125912462754 6.12151018101105 6.75251546111098
4.32068938887794 5.90529611412806 6.67374366035532
5.1151118189025 5.47316992866576 1.3956082574778
5.40962150452456 5.24630860721134 1.19333069124247
5.40865572531454 2.33955810518152 3.06739478316053
4.89233135274733 0.74591609338883 1.17251399677847
4.70743722293664 5.93037202645747 7.71462682598107
5.38343217185555 5.93688222834474 5.87860075752529
4.36701024755678 9.77904560523647 4.52969426883984
4.97860198294272 9.8217836504284 4.3969255085091
5.03431791600726 9.39580402267115 7.1264172805658
4.19760749590334 7.32584267414386 5.94432606491452
4.30984262995581 2.56085572683084 2.15579558353794
4.23657580151669 2.28347979287661 2.42533524545448
4.66422717944222 8.63964184764082 9.40590505337482
5.44021366533667 2.56901478299726 8.9142260724071
4.97641725470316 1.72102283023536 1.01325119906136
4.63562745640845 8.97785430761253 7.60628264889058
4.86089079445303 8.7496140902935 7.45542754102066
5.05932544800872 0.74114470261422 5.07412750512776
5.136299501596 0.86829725862812 4.40128188663049
4.54209069320552 6.09705343257649 8.66179920378278
4.38092131649359 9.33971455795173 4.70233667805048
4.94899512158992 9.33592235923052 4.5927615195677
4.80587716762882 2.13612214261281 5.04113575382912
4.59507161994585 2.01200542075843 4.83269503382585
4.63829525747247 5.78177946433897 8.26049474163738
5.03857401518503 1.90020771891112 3.84733201087066
5.05876145479468 1.57974103360426 3.9017305589757
4.33570111889115 6.856189070292 1.670250449346
4.41166581317202 6.75853357466701 1.39762831982033
4.30192647995738 0.57016871732929 8.12505311812661
4.52672208786445 0.71413518553598 8.59675581213892
4.29197893996367 0.14637965463663 5.93298360934282
5.2853012339961 9.60018492219125 7.23447970956359
5.30478765158876 6.19287146821099 9.17017090582915
5.47347053834156 2.66924988518821 3.0699249114248
4.43234804615555 8.35233517143484 9.85211209025714
4.72463178898225 8.45641624679077 9.63499974773916
4.84636436284124 8.41758014506535 9.0200718019474
5.11035192025225 5.5494952761782 6.44955810772813
5.2746594128374 5.53305145865859 6.0357073851625
5.36126795648427 4.30024281174739 0.18913753914311
4.90248448455945 9.51145576886982 6.6868784065269
4.97225560472709 6.64350557036839 4.36885388379917
4.80252774310889 6.53550571295765 7.46405972929115
4.89046376214493 6.51741701057542 7.27814399611608
4.8111512454514 4.50596479110207 2.22976322905735
4.91606810982111 4.34721486333022 2.04063327361583
5.44568283764617 1.39312695691145 7.24435891042889
5.28155932873206 7.86437431953536 1.18127444245621
4.9410150875636 9.54255313836132 1.17308142351487
5.25641055210636 5.05249545700628 7.39180592668198
5.34534966475591 5.00795635110045 6.97975505810604
4.08319712801582 2.57048034608184 1.68587018296313
4.26120964645615 7.06082742498583 4.90929562730957
5.422116010008 1.14969023496056 2.21225972809273
5.28451526495208 3.00623680363171 4.91167613411113
4.96034672660871 3.50998789024803 4.6272352581038
4.43785974082686 5.85647276733885 7.84057702848442
5.13686100604466 9.84383631796105 1.71856777118501
5.41939636532952 2.69601460694094 4.24648224444874
4.89324710667056 8.27531959715328 5.46116273260037
5.2511750988647 8.97547011958205 8.39730605061665
4.5594051032553 3.57027208916326 8.38019327416015
4.96182369671741 3.39586709549908 8.44365315449165
5.50707519292473 0.35116790086441 8.16467794091165
5.17048230143014 3.56012256702659 5.91546654163924
5.26559535923357 3.79912828347263 5.78686283792906
5.30540477724614 8.86134968020429 8.81374470958556
4.3655756957344 0.48359282423311 6.48503874930394
4.52024253591161 0.18701265139001 6.3505779321027
4.54463648585794 3.46096928606348 8.02670496752299
4.92721121419584 3.27820420928858 8.04581870679913
5.37589997617739 2.27318272453422 5.905569096846
5.18266572533717 5.94252041855844 4.95994045238379
5.52466630323223 7.71133969109171 0.58912429996243
4.42005201906884 6.13153465021393 4.77909954803324
4.43320397810256 5.05545603065892 7.48538035638624
4.98151104509552 1.47036975010363 0.89345109475013
5.44573561183169 1.30213622961797 0.88550788676986
4.68652479501068 9.44352646195886 9.40511859994101
4.94763594666453 9.16804699521678 9.45220231293244
4.54247117414022 5.42437140265599 8.40318117190121
5.44122108964426 0.8528023195063 1.04571188223894
5.31408508907977 9.37137514529393 1.4149686868692
5.00217337773299 3.05878696953162 3.24005427118301
4.89826157606062 7.72456938239616 1.32272112767497
5.33802189659141 4.6077486194216 7.84450120409185
5.19412185207461 0.92701359108537 6.24401106854146
5.00322069027856 1.21761888710898 6.13999737323168
4.87208474140883 0.67390949926854 1.34887640858871
5.29518955275649 0.61341527879069 1.58456297869551
5.32380715902516 6.72096686115182 4.52682607577141
4.60116863280341 2.05458968778038 0.23071877444326
4.81564754218574 4.8311846110939 7.40390446169822
4.77667445013123 4.7095753752942 6.90616113285705
5.47244221429361 6.20631219518495 3.27205216859502
5.30455998953552 0.7808388460783 1.99211577541965
5.1486348769327 0.88885799740537 2.06996787363732
4.11891987521865 9.67344059992463 7.11231691088385
5.17737538431126 2.06224267488762 4.71376039041366
4.98288165884531 1.93921652099586 4.48766472854316
4.45778285382666 3.25481278901247 9.12268194642803
4.70372869102498 3.4773198298994 9.49588609484342
4.95762988991041 2.40454874978095 6.40702552621123
4.9141678153278 2.94592669148577 6.73593748143723
5.02147469080147 7.89147901214703 7.89646680400379
4.63069462416676 3.26439841535139 9.80128833277979
4.70346161969331 9.98133424500278 4.02538604320406
4.93783581068396 3.31117656774367 3.04096108555519
5.05660716145489 3.71019808686756 3.24134862342033
5.05638121011902 9.00056784252656 1.35195311238617
5.41325435777313 8.61181125322696 1.17671794544658
4.96056444533001 6.67741298682692 3.84457189909357
4.68108592978882 7.03530280323549 3.67020370766382
4.44631536846438 9.66148576992147 6.62343996695381
5.2572336215226 3.859717288331 0.85009666314839
5.46330313709444 5.62228209308949 8.23104200340264
4.62828636235569 5.30193151471966 6.38427473195864
4.27034189435109 5.56170098739334 6.48955925572449
5.46604777533977 5.72680813993905 7.17247432964864
5.35988962004304 4.216018349589 6.02702711050724
5.31644030589277 4.22267456417428 6.51026471685245
4.93270835271892 2.72198658244167 7.06701298483479
4.96776102937954 2.18754604450724 6.75248392989299
4.61334233551638 8.07643064439104 8.62286136593629
4.60996981809709 8.35471812938073 8.68121676068546
4.22870560887102 5.29070253787897 7.98443795708777
5.62089869835969 2.39660244824347 0.76499083242868
4.30145571464354 2.3905027400906 7.37721681855345
4.4420766008576 2.72087111517439 7.42195962231836
4.60456499564289 4.76601501899461 6.78424850403833
4.64241393127376 9.09749253742165 0.72102330531562
4.94001679259843 5.87191291022135 8.15992395826654
5.08473645033533 6.20567159734791 8.38272201375885
5.40744059973484 3.38579283430461 5.78013081012325
4.50785514200971 2.36204861597237 5.95010456292157
5.17444375056284 1.73551012962709 5.53862736813308
4.24129046808197 8.47952448205092 8.67575415483991
5.46424636736615 4.22523748264313 0.87588934921805
4.81925975766997 2.30801373642753 5.65311483362855
4.80798874267665 1.98316940237792 5.42214661221221
4.19295225321391 8.95967857796571 0.7282659714421
4.18427814139763 4.65262207320974 1.07665901099944
4.52294924315064 4.96834699337162 1.19814834115404
4.39965074307704 4.99931934237881 0.71777797799773
5.05916316221433 9.41552386590151 3.45387576512662
4.67091685616353 9.73210470055218 3.48941354291949
5.33112264139567 4.81224161207621 5.07725748807346
5.29372593169529 5.51898092843772 7.50875270052197
5.61889498098981 5.51483729658455 7.9324648563494
5.36444213016938 7.27122199460805 5.56594657758955
5.08115334097287 7.04447862815775 5.41783518706488
5.46669318372224 7.73364231647168 6.23979716269371
4.18761532374513 7.99025643760535 7.46455457298409
4.32695360532611 0.70168932378374 5.27594865974932
4.45675544006887 0.39690722786123 5.27043578979981
5.0178290356485 9.85841121517331 4.26861272491862
5.2684407721816 9.39695502100685 3.793403914707
5.70221307116554 4.38935480600802 6.53163071237804
4.56097707623572 1.78314001303219 5.43821774604104
4.00731015525952 8.60978930128903 6.86971606823273
4.26164116437341 7.70892630844941 5.88985581902423
5.30446418430228 1.48893908419377 6.37659942876564
4.1459869676018 8.6282730124571 6.48468852983651
5.3422933180512 6.97772882170244 5.08586902531336
4.34255057223884 9.21608221569388 3.3675102901651
4.3518795536628 9.5786743258642 3.41989282505933
4.73979558533604 0.38643868503016 3.91351819285362
4.28736943724287 0.71634741766418 4.06739753940201
4.7670063120956 8.03154268004157 6.12722062594094
4.36046923472897 7.82881464141648 6.17365394750895
4.04760665074226 0.18720369188731 1.54986194010628
3.84472151299996 0.43732209152615 1.85594468439455
5.34303706265364 6.80763875254382 7.41837757878197
5.49533530895163 7.12904531667637 7.19989858126422
5.50133527982357 3.33627156287114 9.55755841503661
4.13093583513625 7.93496500877164 3.66712501193804
5.44581524287585 4.0507611057541 9.22415780163906
5.30677319664508 3.50728507194885 9.30940661506814
5.53645608695192 7.07975923603105 6.14914948996011
5.55634033588765 7.22821969800894 6.31690176538571
5.24782062892492 9.00743328912796 3.89120994762802
4.86658090059016 7.957772338593 5.69988692510161
4.56093371645743 7.76148648683905 5.56947298600514
5.34227099648359 3.32404128413988 8.93027452168196
4.25386732907352 2.9523954355089 9.53849610379264
4.28048177804948 3.04478914111104 9.19256033102426
4.24996978138628 5.27086325007362 4.9939761005878
3.95346201164887 6.7031721993421 7.67672551130391
3.93113040386205 6.3037099347274 7.87129253498849
5.29255149293831 5.99953507315511 0.79304812165774
4.31600539779147 2.572082885496 9.52078318044759
4.36299041873671 2.53369367869836 9.15880209460103
5.08364648287832 6.02927742394495 0.41519537156539
4.19700524312416 1.93740987375404 6.39778665927208
4.51637110970853 8.27300180724864 5.11218465817487
4.36589635831893 8.08407769263239 5.139975529891
4.34109040587699 0.99433165934924 4.20399767790496
5.376802498048 7.57432811447971 8.42751524019205
5.22139063832591 7.64900783456181 8.82234140028057
4.4851280455733 5.29130677814581 8.95260885046713
4.33430909589144 8.73608169011689 9.395460326743
4.36852303028344 5.46449082346554 8.74610664858152
4.470159854277 1.2133926998052 4.76281122129405
4.75355266950731 1.13743975722884 4.37472980980692
4.16156231938693 1.89103784746043 5.78907091699704
4.21453876143059 2.14927008434867 5.98724897136286
4.6748919039897 0.37328269899401 3.33467730560527
4.08091017250837 8.6698633145982 9.01811868976754
5.15815737317425 3.76159079693457 6.81274400455877
4.66408011021226 6.98185162710513 4.48937941093027
4.90936032329887 9.04467074785601 3.39873988732356
5.06247362017725 8.72629291148983 2.99998217334668
4.79451234608633 0.42716127757815 3.2282579569218
4.69404852849255 0.81178463911527 2.97428929491191
5.00341011504432 8.84228041000137 3.61873111587208
5.15476856469423 8.54531981605445 3.3712357052836
5.06818393356253 3.46683155792176 6.5916535329088
4.66560249817658 3.40757302774958 6.62222816510945
5.35466828394805 7.24627700699178 8.50313040442
5.23618382056152 7.29892220444513 8.8247762572342
4.82083800722558 1.88994095886365 2.78653473329843
5.12868977382044 1.91896390038276 2.54689653282828
4.92028308060884 4.51344458421927 8.62194247712232
4.15899446779101 9.35679937332679 6.27813556522576
4.24980959182594 9.1037359139871 6.16438374105967
4.17404890929716 5.03968023957443 9.0766583182518
4.00709427461273 7.17071475108237 3.75956853744723
4.54690436485451 7.20391555635339 3.87432690723763
4.91385799245839 4.98864556938132 8.80637619067112
4.86320400809328 4.61605026929577 8.8384887355326
4.13132989379374 1.60150704559882 6.34934611445468
4.89052344356302 1.97931827084712 2.26846056181286
4.57386942614151 1.95008136279001 2.48468030887347
4.7861524520694 6.03633124947626 4.10032235524511
4.3507501219264 5.74979075393241 0.88141683140558
4.98993735502347 4.72949530173467 8.42214276827537
4.97491562576642 5.02608626391704 8.57548523284386
4.22396749028249 5.88774069375419 1.21808367284829
4.4262757823705 5.7085282343445 1.09091509454859
4.88237438350626 6.2331750805729 4.45953491758458
5.18794977392398 6.11183829444664 4.61327500807406
4.29483232736771 6.88255063305034 4.68091542974775
5.64522745999848 6.26924785030522 8.63069655373476
5.60203206085007 6.25586959973185 8.52271911341859
4.74997370165214 3.993484203291 7.05350799207852
4.5321586286843 3.87005686234295 6.99106531959734
4.45597990729481 0.39568146830528 8.85805859817146
4.81526873904397 0.19814228001338 9.0541938108
4.22431653303169 6.35758226671997 4.84857427897424
4.12417581854211 1.12867316382382 3.90478054074909
4.43534241090957 8.79410715821913 2.75545239745301
4.19118404558768 9.08295752212108 3.02618405257222
4.76693660899295 0.19933285460138 9.51461460740876
4.26733521096997 1.03743183060849 3.07516187208533
5.2091485306189 5.83532051820157 3.46471314884434
4.58951817264179 1.23071344377519 1.71095877937992
4.23836249740569 1.21260041230862 1.91757783613437
4.66251255249713 0.99464919113128 1.74684909062462
4.25909968350731 0.91510302470459 1.98234164506153
4.38096640664865 1.12908346661195 7.38384617228913
4.19405461888021 1.04625024353302 6.98832580197275
5.01675364491413 5.73711848411057 3.9879720630732
4.09793993969947 6.08457441740548 5.96051149323054
4.14228322780133 9.45736866775717 2.55054970576613
4.45516630239782 8.97203264088006 2.42390286144776
4.90951070301102 3.63815287696681 2.02468104986825
4.66789409027168 3.8582203609999 1.94894467140396
5.4247177113726 4.07108787135909 8.72258941346622
5.36223190505691 3.59244137217445 8.5902207087768
4.169161478967 8.05363244799461 1.83087240132242
4.70847548991834 7.63668981653226 1.91291899881733
4.28813555959741 7.73295153285475 2.02261602265112
5.35563947213043 1.28054078962782 4.18501808977309
5.36259201291923 0.99338599930109 4.28720959609731
4.5359017112479 3.24781917575865 2.50926475727892
4.80239570440122 3.25983827236168 2.38382972419796
5.29703007537983 1.11062991578131 8.16998445261886
4.21219736121825 4.97670626505552 7.01982988358317
5.13320062642147 0.75053449404944 8.22715143307935
4.93620327070954 0.78325333604332 8.5958492430479
4.24624065905364 2.1683318373229 7.76362302427175
4.43156016989877 1.83140562013164 7.81194129620361
4.62222103500359 0.68328956139515 9.91237171391432
5.21679172030089 1.32972470803266 8.40888899746864
5.00901349910587 1.18800661178378 8.68460651139357
4.25024776041171 1.41761225858345 3.60043187719261
4.28230688018718 1.2052094174604 3.11300643776689
5.20925856556012 2.27280229923963 8.11406278366663
5.402395512536 4.10012762534415 4.27091506229583
4.70855748999313 1.40925085424475 3.1426675777953
4.70186969333575 1.60136565212046 3.5785275592773
4.41218861526085 0.41913053501747 9.67246360046821
4.16067137956709 0.55158768120927 9.40646141167336
4.1677046703299 0.76061751808096 3.34113438259404
5.11404237711634 3.81934078866651 4.10455122012295
4.20116042898997 1.20120325489174 9.52898481101299
4.53441897782847 1.13396479740016 9.81852121930851
5.11322120059114 3.08336618615197 4.07853784985858
4.92533320453974 3.50907662351141 4.40747719869719
4.37250530638422 7.31318323319058 6.57049946893496
4.39604139500193 7.40416047427092 6.59774213183593
4.41564776669675 1.33617210124485 0.15839370961812
5.29660389614201 3.20888691258568 3.81278325292179
5.32124223960507 3.60966784967875 3.79289340382788
5.24166346532136 5.83755551960936 1.93383280459922
5.22191016809951 6.63077431308548 9.45029466709286
4.86664683907323 6.69338604567838 9.53877395013393
4.7499205834572 6.00629209235531 2.1593302960129
4.81954113841112 6.34070088779056 2.47294898673999
4.95904741397581 5.31850099467518 5.78849684624303
4.60881900016249 5.19733357206128 6.02252152943659
5.21045292030961 4.99837578288359 4.93033082203479
5.09208645055038 4.83597139792278 4.78826693007403
5.13761326859467 4.8818701699038 4.36390244203327
4.28750715745739 5.39593988353264 5.80443965638485
4.21270841349525 3.59246179360647 2.41026046365487
4.27377742964129 3.83876800479156 2.18221917606197
5.60144970363429 1.94585280844046 1.16713546294281
3.82326855847628 1.86824581722252 1.33262360665842
3.89168480452951 1.47353774138581 1.42211337097111
4.76557799973644 5.8595726899675 5.19616971287143
4.76517123353223 5.90078271959398 5.33149505424088
4.60425494860995 2.92180480040123 3.23713689733357
4.46837333536976 2.58283839235204 3.1694327530795
4.2877287068385 2.56555795676247 3.42027638364542
4.34355796508765 2.81730754031219 3.53768498255584
3.93754276453546 6.36124652210214 3.47827185607966
4.24277530034586 6.50542519848132 3.38043650093477
4.22050106152644 6.4120193617132 3.10057245096211
5.35805821926362 6.48190843554228 1.2373558115825
5.22996523692757 6.77053027905462 1.16709220703103
5.35804734523163 6.7064970923771 0.90528755554985
4.4587418120146 6.88598385161796 8.67047428935495
4.00640974855199 7.01757563647152 8.38877478769773
4.09139495132324 7.9176736245167 8.563083651174
3.99994954255054 7.54106727115505 8.83491445810598
5.13146954655762 6.82571931218747 7.7449369190585
4.99048183751203 7.12849787339671 7.92627068814276
5.24021138778092 6.7370026257167 8.14155533958663
5.09710216441199 6.99551082991225 8.23885970907526
4.54216122464876 7.01079845338725 9.25985958004591
4.40496643450414 7.33420828015271 9.31472152316586
4.45198490788283 7.37912605078301 9.12290700427966
4.57987705313672 7.12625090051 9.04306362989175
5.06609140572645 8.23458175082834 1.74305394492163
4.40411865778538 6.97588878543153 0.56442005677117
4.37536559878805 7.04917915593097 0.87331718975633
4.00962595390019 7.74199449210074 8.16211389017774
4.29812368502711 7.32938597029799 0.46426169100038
4.26798597987831 7.41604919819565 0.7235033329736
4.78044044925176 7.92720553452469 1.64054330004814
4.42847906965692 8.16009902484224 1.59212491534033
4.32426356095382 4.44254175210318 5.01371647211417
5.45465552935881 5.2869739366209 4.76384835068182
4.40549258538343 3.89093013148104 5.01339925875551
4.63262920711362 4.15464536646325 5.20956807090398
4.81921725049398 8.70154060987317 1.75220259465989
4.55816986549053 8.68412115581235 1.69726894914258
4.9179598173657 4.17983032692942 5.20076270756044
5.20524945707605 4.61681117769994 4.93366825795851
4.79638377558225 7.94389103493309 7.43642774730937
4.9611836961729 7.81119507494853 7.79467323205685
4.46154091175223 7.77573546833344 7.47303996875791
4.50182179504529 7.63604339819239 7.76452508696195
5.24972770480614 3.81628065959713 4.85443825228159
4.21499035421502 8.11874160226849 1.04095002544124
4.01679485488398 7.99748018541021 3.15379173656608
4.32370558289568 8.08421424174173 2.86985979861194
4.170777198296 8.35810757633958 2.75501257293602
5.432339412474 7.21424036799441 3.27676271799006
5.51218814095076 6.85845801316774 3.62285284311709
5.16338118408953 6.49299356670462 2.49028507590733
5.47989070000546 6.31635456143629 2.27271540685181
5.52638222959728 6.42684804341888 2.8551021686216
4.71203538670975 5.58347511183189 5.25773126405354
4.70672549000644 5.61277188941092 5.41899202078781
4.604464184654371 6.651224821072013 0.34149313408562004
4.684753307536317 7.14063131417285 0.29397047643774
4.549068577855705 6.623860236801223 9.38155463476443
4.527288858498465 9.485465890066308 1.3783154179155466
4.812565868837688 6.194538959590204 7.436381213650806
4.984399857219638 6.351030697481424 7.93463746432379
5.14614430766734 5.84789583778212 7.289108119138834
4.907912614224258 8.81972386714907 4.04536619580454
4.472818746731794 8.937244972018576 3.67178106688438
4.665661476306939 9.857740157389859 4.310802632739554
5.1312362604917725 6.273462628647249 2.8940212324832735
4.913892157608801 5.799083412087311 3.142480604198468
4.9433176739508164 5.353673172317289 2.7143396954347065
4.682018260770969 5.913928584572656 2.547476384622998
4.6800920184189705 6.667547479807135 6.54523506879598
4.48391321753751 6.375022730253832 6.105888262782217
4.55249517268458 6.983542679777816 6.095975543611587
4.653632945140183 4.441956191572786 8.277486876966728
5.03435280890105 4.6450506273752605 8.021909016818727
4.607760120599353 4.247349645211856 7.763694281834691
4.844610706119567 3.618629128342361 7.784168601598949
4.941550006251684 3.878420791445133 8.527053894571287
4.677057301904312 2.781999911812927 9.785290002905386
4.906599513212963 3.1093585251970475 0.50366358426267
4.686731291250104 2.6396078436197747 0.6059395901909984
4.399161321415045 3.1587325593526447 0.4817306525998383
4.699334334254993 7.653239587782675 6.987170936249977
4.983508843756182 8.21523526519473 6.4682590165489104
4.766747779955378 7.740916206356005 6.415070703162245
4.503827234026172 8.15857024728744 7.398142039602725
4.99064212579564 8.170707382506171 7.004568133702733
4.482292847450457 8.58635354157997 6.840172004011599
4.561431089898265 9.552588216373177 7.0282233382630395
4.582933636744628 9.249271531071013 6.397862467024024
4.908888721472545 8.769198387721449 6.476484116989768
4.972629397294349 8.731142093177384 7.046465055513332
4.8832344763908955 9.111056335571094 7.3423173877496835
4.569984937352518 8.732294361801358 7.44506726981694
4.649422052847604 0.417889394783342 6.4523520303130635
4.721253046708124 0.6084763280280121 6.854630447232706
5.020542284828118 0.43292989294120804 7.349041720099632
4.99363961960562 9.587628908801673 7.433907051556128
4.68934467567034 6.872227574559909 2.06030349426466
4.866636472053869 6.534210653108528 1.3301104690148968
4.582398216202611 6.33533815821572 2.166013580779822
4.853986626367912 6.019207003849232 1.78371260394631
5.03823740361165 7.036196705108008 1.3249915706567124
4.737758080619062 6.369279458594213 6.926622888013313
4.572136981605779 6.697938020023193 7.200072222124601
4.529082058232438 5.884612874042307 7.108888393614059
4.362173190288122 6.361920543628922 7.671834137789221
4.480485860583744 8.804082201912863 0.5990222087204959
4.589464176455247 9.050006885105319 9.407164727498602
4.585714290706966 2.778742199532512 6.329928315118157
4.888071958913086 3.252813282642118 6.658933163363047
5.012904475754983 2.330672492952684 5.99918655166354
4.932903993083373 3.1729567446185634 5.674914676611938
4.562037888310456 2.606073982494988 5.699371816053722
4.743205620611782 3.4539641886092363 6.2315956869649325
4.741092959989317 9.315604318648509 7.798291810977719
4.459626394575956 9.272703571620191 8.336437020346867
5.044892683915518 1.2375709342272316 1.970441148005242
4.791164226702982 1.58482633659861 1.5808096150009256
5.056596342626134 0.7903341625348361 1.7484744253931617
4.711084953057848 1.02433411343774 1.4094987939718682
4.881033178948166 2.124412770675044 8.137956423494977
4.971058501936232 1.9888400976102516 6.801538734470995
4.9803792497660195 1.7340520424063581 7.166006494719774
4.738498673757461 1.7514663850318222 7.788223028165461
4.544846716771467 1.981921843467105 7.344047902797844
4.8858049242191965 2.8096507420973063 7.5175871501550775
4.671381297346672 2.5283943539499383 8.008849976005218
4.921718764831932 7.854001304043182 0.9729613766709819
4.83991894645629 6.867575272327973 0.8412912408952516
4.616891333787698 7.371796808910433 1.0823074328362081
5.018195762904193 7.6531940817700645 0.42166255444633
4.7525906222202225 0.49863886840005006 1.114415938961502
5.104881073794694 0.9664585703150567 7.263361497976251
4.823915251383754 0.899847053762848 6.337849285659086
4.860177168453943 1.5038536110957716 6.486723363078656
4.500044261253754 1.414080528444528 7.03243695692255
4.764985227931254 1.2896927017664939 7.4827518790287355
4.554747655307313 1.3557603184148965 9.376857678052074
4.716551345864764 2.34219774059725 9.447632077030278
4.724071303847234 1.941270364323192 9.074558265796423
4.822646060665876 7.564956713192316 1.623432574016044
4.285283592574969 7.335908393777113 1.833382836885695
4.568269887637358 7.948761957001584 1.293183406861234
4.7517803568891415 5.1084589841330645 4.944051261687486
4.637519561906754 5.728764786350624 4.067362142514288
4.5271134894972205 6.055187309809548 4.435827025773968
4.511469558585756 5.206635236533086 4.251416872696188
4.8279044778184455 0.465373126468198 9.732408351202238
4.699683483709483 0.6636034833998721 5.180114309912691
4.603915321905641 9.412005346137887 2.3925445369864327
4.6481834565780575 8.917928131036764 3.0679118601556965
4.7585378239804 8.80816973237819 2.6072071874684157
5.0383643127471425 0.46833763506686193 7.873722425619592
4.610847612313637 5.00762087855358 8.178516041574847
4.606764347955534 4.8075599701105585 7.648460717767276
4.824203865853783 5.315586352965572 7.481809698540501
4.9459620440359595 4.11826583852431 0.27720382759542667
4.857948487086133 4.674001313558818 0.1182476986626125
4.830818106530257 4.94349159741093 0.7472066512805385
5.013072029646712 4.755878484829708 1.2649916778443975
4.5352681893491535 4.560799759446632 1.2157236637243616
4.587750578385818 4.011360576685512 0.7712017162365683
4.940355624554904 8.26176964681622 5.01613534738033
4.70779854594736 9.32164047011943 5.035062693718774
4.565037796882074 8.654902254478221 5.441547495676223
4.751589916092267 9.092777249225785 5.60745291518028
5.022020915555036 8.547772589836555 4.50544287465762
5.004004753733562 7.867150647148044 2.0797134765096303
4.903395998467214 7.4090107161948895 2.05096179358053
4.655732898772241 2.140130964495826 4.4237686184284355
4.478264903610256 2.4903840655222904 4.9046945904391634
4.680310074447028 3.2001018428877783 4.233921426961762
4.782300364239812 3.51496015355774 4.543312801776645
4.8054883102198485 3.1511103662688242 4.893907042375128
4.9030008465275445 2.610344226603602 4.099514932515253
4.45706554988748 1.7659184786947641 6.582242791175733
5.179506862433822 2.1535746107070337 0.7690473248009599
4.60660341779933 2.02975869642709 0.9434324429128982
4.651403632257343 2.168185348609388 1.46228167978466
5.14073393746894 2.8246431024935403 1.0354715883585832
4.665115848980959 2.765568056545674 1.4455735984368219
4.617679318524446 0.777633063314022 0.9059150735365481
4.314099776979601 0.5887110453382257 1.66875794789201
4.267707873733192 1.7190082710331918 1.326083269074
4.4743994399269935 2.5336756632257282 1.8084340955524962
4.640039416317584 3.358841055765646 8.730544488284867
4.634860816421769 2.8314852378078044 9.002491666454597
4.629557069477272 3.112241440996274 7.919319420589486
4.757910349961359 2.363495103086696 8.605114371204738
4.535465719510158 8.404766633189904 2.842631278086114
4.782389137708677 8.395859481374734 3.7114307146166183
4.465773079890308 8.049436023891753 3.3112246324662156
4.603919401012846 6.694340982202254 3.608617842119236
4.331897326978878 6.204671976524214 3.7739927879586603
4.764978090982538 6.908397708777864 4.049467161744891
4.602294226638586 0.8409876460878181 2.111265853615832
4.63159569665705 9.847586263837599 1.9427569799788882
4.7883297045743225 6.540848451352168 8.471793950516892
4.505907117911636 7.058426525170528 8.200090627488494
4.747949863807486 6.910027549859346 7.683578477755463
4.50821735710628 2.895556939478102 5.302125385047446
4.6370831556682575 1.9399238888501782 5.138713760666498
4.969067530504265 2.621945360789337 3.154175845379387
4.81156730310402 2.982096977162097 3.644134659716722
4.5516630806331175 2.278013024098836 3.4142241892023364
4.73122087094845 2.09047067282892 3.8803152455767824
5.15521234658384 2.09820081291437 3.436776257381652
4.952424408977653 4.448074760119325 6.3152011336314695
4.734641445131712 4.385362695537053 5.768598822613402
4.997194089468483 4.12782930105434 6.796865959885791
4.809186868884642 3.77280369584102 5.739891740945463
4.9651397681617535 3.112380162167726 1.4841965089085076
4.438298774973311 3.3569636649176897 1.346066002763182
4.8005934558416685 3.631248809660602 1.6835986654808959
4.8061470936337045 7.50189374915885 7.8226734319316265
4.766513251868168 7.3130061331517995 6.620183869864727
4.519026266739105 2.228391822454897 2.7723027182214612
4.797483226847549 3.1425101444981296 3.127798801876
4.807217351220172 3.2787765494691796 2.736220222725252
4.98349698991008 5.352346314178585 1.8100676399673634
4.745415453402146 5.415941268420245 1.275817185974998
4.62495947741318 5.928821613246195 1.297260787039582
4.562568932356342 5.238189696011047 2.275175471119552
4.597481211118743 5.38036640154168 3.072253778452816
4.939238134421278 4.580074675767558 3.2069494349176195
4.776229153827532 4.39425179318622 2.692632228928527
4.542638814346623 4.887341221918512 3.3293838850446122
4.992378634317622 4.884084113638768 2.3419372076514504
4.455570381103351 4.664828059495242 2.2714345361543016
4.666224757003571 1.0537148343541038 8.650565380990077
4.877298935370004 1.52814784092652 8.389919735796889
4.718534553783926 0.68487600095078 8.255750560007924
4.768254985787384 1.792905835893628 3.24951066747166
5.029269520366287 1.3485826682536717 3.485736794260894
5.077629005753162 1.5377762774448949 2.778117387678257
5.044459587849222 6.152297416618187 8.766257103896843
4.908840578056374 5.2781663192077035 9.158383948035928
5.1285389188363855 5.784269834605978 9.304749163636965
4.656979173644354 5.238980167513139 8.696751618892966
4.56162336045736 8.964090951903687 5.947990857750992
4.7421431625980635 0.16941971350264837 6.013493999994523
4.972431059197544 8.93958428665911 6.044316040700059
5.070018640864071 4.125219689029215 3.0419379832054148
5.040854930494512 4.007000516601792 2.089297319424986
4.861146687104487 7.9288387453497196 3.65838504260959
4.947028496527898 7.41875299056689 3.5681296631623565
4.321857826294196 7.572579428287942 3.780329766263075
4.69846833843845 7.82999758934676 2.731022082177888
4.52723141165737 7.38546763830103 2.734950004359912
4.694346390800836 7.098519127385069 3.2026657935187877
4.951429192883756 8.044922019768583 4.522120475998275
4.673699360046623 7.97405340646214 4.1157626788427235
4.309245352951969 5.4127129988667155 3.6162189593813667
4.756250264283498 4.588728457720006 3.6883357759023125
5.119455257692502 7.862750152454882 6.04928862344037
4.79591199370356 8.427538399455251 5.944226600242968
4.955644432167486 9.136161771464522 8.23079984266472
4.843424869781238 0.308462594098082 5.402896250099997
4.844488187088554 1.38660781612032 8.91345470476774
5.125845269802307 2.3898883903396917 9.052694835628362
4.402697278683663 7.752706716605597 8.81929388506188
4.533140570459912 7.8458027077160715 8.133954005051772
4.945314626814576 7.110588958695423 8.656060857995232
4.62055777058226 2.9131957926188896 7.038267579310461
4.547759379983669 3.874795991947246 7.360930356758805
5.05338572189693 3.8402376683786104 7.176487256036792
4.70491127604188 1.260610802658706 5.917653972606767
4.836082039834288 1.6336351087137622 5.52685024111043
4.599560500400945 2.176266662594495 6.385445775445987
5.020642253749723 5.1193699980391 1.271550189367934
4.777392370973135 4.718535088479405 1.7378067767585084
4.9050763226284095 4.888826069777356 5.8487899513691035
4.787954409549298 4.154145233242782 5.367284335388045
4.777757623091543 4.5139015665120015 4.982655605049733
5.03387053468151 5.190934712991798 5.344420117492401
4.783695974839094 6.324710211218696 5.57221233745039
4.870785303205525 6.6410774325137485 5.93148058565486
4.928612184176731 6.331295119079107 6.403256454371978
5.0306886075940875 5.735667091160484 5.652657992243335
4.690203348779394 5.735598977297573 6.561053145043818
4.62291559097863 6.870184520317219 2.6677869398142517
4.619762905963904 6.285630193775403 3.296687170560338
4.5269074056965435 6.429634357024662 2.7346315974363717
4.731283677878844 7.387528821594434 4.2583140375860316
4.6864450325980656 4.6543232865410396 6.801276373480098
4.79536133750225 4.441719931335242 7.218202231726522
4.7923922980886235 1.8075464247157904 0.5748401337054561
4.6310621273886285 1.3068832445523981 0.619756509390652
4.9849052706511285 5.106176502504305 6.720715056278418
5.008375646345192 6.063534054657835 6.892163699131148
5.01223486665531 0.506957133700065 3.692293547305095
4.844684391718459 3.4069719183439715 0.864881614079365
4.638504966593552 3.713092154562348 0.323980239788922
4.73826882271042 3.78055779655869 1.251776704880895
4.70020727389073 7.714759868428147 9.284319658279598
4.828056072082388 8.323612364452313 9.334115642981343
5.150595652295938 6.972208721775239 6.323640417787323
4.392487271269758 9.450816937800782 8.951631816644834
4.7676557744231625 6.9059291607607705 5.567395381392318
4.970450080272514 7.500016754025924 5.553067270709296
4.561052789161119 4.887463447620815 8.93339228103645
4.663980867754065 4.345111530223594 9.228793425894002
4.589730742305632 8.824260202499868 2.056043165255234
5.0297640258753775 5.985430352809557 5.221201265935208
4.803924635772352 6.219006547386393 0.30017508198492
4.8586234450268275 8.32553813322139 8.248140064117582
4.990153931127128 8.675743096362877 8.621543409608952
4.912107527019605 1.043665301240792 5.3446336042891875
4.637408392796864 7.640837064992374 4.666768368093984
5.056700961907729 0.978340701098695 2.5746234309309473
5.0330592901943065 0.8077369691430061 3.219624824223706
4.939375448117434 7.1217776450339505 5.045280452972945
5.134548947645408 1.148723351381544 4.289450910354136
4.7136380094172985 1.5918649693966198 4.602714936726186
5.023672381555474 3.3362254603024626 9.62583251549184
5.04389447585575 3.886908619650162 9.38837722759804
5.27686231460529 4.6048483021921465 6.750717249520172
4.96224726642342 3.345481313515618 9.128001714642002
4.456106676956382 1.5596150277071816 2.818157037282397
4.991594554406736 6.968361045684176 9.199505555148365
4.800983238304245 3.845506122470811 4.929985684983852
4.7075889639354305 3.763343953796818 4.203893902650039
4.984649810480889 4.278426219602582 4.047836970242369
4.73059137446069 4.11899661220089 1.628737627807972
4.5870820107701835 1.11686083573649 3.0718860151022582
4.613479840648945 1.3318737824045601 3.966173313338493
4.94522596776582 3.8385266515902123 3.665343772607418
4.541715062335562 4.389633701972866 8.711155368905747
4.91183622230369 8.244029315764324 7.620460779533526
4.801021420015782 5.872138251740913 0.80155799560778
4.892660864195122 0.921156492936824 9.809037841833522
5.05497802034059 0.34008378386221 9.332474786315577
4.769148033331568 0.4900851342476741 8.815127916396525
4.848064580381596 9.608811791462017 8.554367472041706
5.003644399415588 8.863147724953773 9.163509593862294
4.544623311239552 8.70037567155525 8.381972132476207
4.95285228830952 9.456648522927757 9.14485589961122
5.011245308581298 8.836254343583233 0.9369778500380216
5.045935667319287 6.897847783806501 6.993463074066081
4.586268047040858 1.619097847626045 2.1236544068807466
4.930855163131989 8.297904248903837 0.629978076203578
4.671137496701389 7.64385426845178 2.303384013122984
5.077528446283639 4.184864349837832 1.0934311539555965
4.869250215210459 7.460508596496427 8.95315824749993
4.6153946037681735 8.038512356319899 9.702104941447427
4.613912042461139 2.8452920621404183 2.233754315564562
4.602462751195011 4.176113331350513 2.169729620283168
4.949115005478732 5.671794958379358 2.145340493316526
5.01113686201619 5.497808048333053 8.3492994587593
4.81647216122264 4.870318415889147 4.52746649527237
4.9162328219167275 5.380062563258582 6.136111720105778
5.1667847233019835 7.01767328363551 3.5272696122125162
4.999339824965359 6.918890649102822 4.567024434804824
4.736642329604338 0.77409945891527 4.1874550791303475
4.781021442471622 8.150797981341894 8.883674535816862
4.79708602942041 1.488027865912214 1.1360268949148637
4.679314926830172 2.40753661788352 7.0873396717229555
4.7265410301381685 8.924410432586555 1.441583706409812
4.565524871583928 2.2555497185709497 2.2612786307723978
4.637733611253978 7.022455037885723 1.5093682831770399
5.065077512290356 5.534183587972465 5.021604120405074
4.97958462864926 0.91368192473086 7.837987208568999
4.666774093515674 9.397411171173555 3.4258864621188203
4.6163723956193135 4.648193563685031 4.169228901029492
4.8066463852791825 0.986367087785258 4.7580559761086265
5.0400151985183514 7.805064482229898 8.436893132185922
5.09100263021998 1.10403072001731 1.018243674570914
4.462845182810388 8.549568268142151 9.032754464559687
4.7181615795882 3.594141414091684 3.1508555354986476
4.9010179580859745 6.557993246520075 2.4545272438429024
4.667297540598598 9.083226352624576 4.519605209178756
4.576318496318975 6.538366638005109 4.604392911511542
4.8475482725573595 8.806934334457853 7.83501823876194
5.128728973012481 5.715518188009875 7.851942038002819
4.503718559637366 7.073903742065758 4.739826438980764
4.887934411010282 1.74646302669843 3.731575535004005
4.6809022534586004 5.86013429208916 7.993905638592352
4.905363481039204 6.374746883573364 9.347097482151732
5.01760658998159 9.272000073089718 1.2693004587078525
4.668882167145753 9.56911654321178 4.55542949374178
4.801284798402938 5.9891043511211794 8.366234979361387
4.89030145768281 2.03739668981368 4.768813976652948
4.568457665456134 4.86778746021943 7.119904867712601
4.7482691250066225 3.4263281700036003 8.22409252574348
4.640605838349122 8.070331584493271 5.396536566354598
4.887723980314538 6.055728226751882 4.8016039277894205
4.943962289180254 9.676865809527325 3.8061383981751584
4.512030299901595 2.079446616603185 5.706650607193879
4.563326265649114 7.857708491067902 5.892018060716174
4.51969853197369 0.6820555928753761 3.1907041624236703
4.83481522704996 3.699907289647972 6.814239802850577
4.853480162687638 1.934576123220885 2.52164303420326
4.522209050031934 0.352774963829356 9.30115840570436
4.567031342011393 3.5725434140808443 2.243199973744322
4.474938409478286 7.902115671349709 1.799815127635868
5.090879414256934 6.1987793255792285 2.2658225140222497
4.640524765400533 5.3811365849200055 5.75861251321307
4.730479608123928 8.341509615176157 1.6850387408225138
4.680232544638168 7.791716244101862 7.61716650877152
POLYGONS 977 3908
3 215 793 255
3 255 793 200
3 762 793 215
3 1 794 2
3 2 794 3
3 3 794 215
3 215 794 762
3 757 795 723
3 723 795 406
3 413 796 465
3 465 796 213
3 213 796 6
3 7 797 371
3 371 797 420
3 420 797 459
3 420 798 459
3 548 798 420
3 564 799 371
3 371 799 7
3 329 800 391
3 391 800 192
3 192 800 631
3 581 801 627
3 627 801 631
3 631 801 192
3 422 802 423
3 423 802 572
3 572 802 523
3 12 803 341
3 341 803 725
3 340 804 341
3 341 804 12
3 252 804 340
3 378 805 379
3 379 805 340
3 340 805 252
3 341 806 725
3 725 806 724
3 16 807 14
3 231 807 16
3 16 808 14
3 17 808 16
3 17 809 16
3 16 809 231
3 21 810 652
3 652 810 639
3 639 810 206
3 21 811 22
3 652 811 21
3 21 812 22
3 22 812 23
3 23 812 291
3 23 813 291
3 291 813 486
3 486 813 487
3 478 814 479
3 639 814 206
3 206 814 478
3 28 815 29
3 29 815 522
3 607 815 381
3 381 815 28
3 228 816 274
3 274 816 246
3 274 817 228
3 228 817 318
3 318 817 26
3 30 818 246
3 246 818 274
3 50 819 51
3 51 819 717
3 779 819 777
3 777 819 50
3 49 820 201
3 201 820 585
3 585 820 46
3 51 821 46
3 46 821 585
3 717 821 51
3 47 822 777
3 777 822 779
3 47 823 49
3 777 823 47
3 47 824 49
3 49 824 201
3 530 825 457
3 457 825 424
3 424 825 55
3 54 826 357
3 357 826 457
3 457 826 530
3 49 827 201
3 201 827 54
3 54 827 357
3 47 828 49
3 432 828 47
3 424 829 55
3 55 829 431
3 431 829 432
3 47 830 432
3 432 830 431
3 56 831 195
3 195 831 197
3 485 831 56
3 61 832 57
3 197 832 195
3 195 832 61
3 61 833 57
3 57 833 64
3 64 833 63
3 58 834 55
3 55 834 424
3 66 835 263
3 263 835 443
3 328 835 327
3 327 835 66
3 67 836 218
3 218 836 444
3 444 836 281
3 281 836 747
3 724 837 725
3 725 837 328
3 67 838 218
3 218 838 69
3 69 838 724
3 724 838 721
3 280 839 281
3 281 839 747
3 230 840 460
3 460 840 7
3 7 840 414
3 43 841 459
3 459 841 460
3 460 841 230
3 371 842 7
3 7 842 414
3 420 843 459
3 459 843 43
3 359 844 307
3 307 844 547
3 495 845 496
3 496 845 428
3 74 846 520
3 520 846 519
3 519 846 551
3 520 847 74
3 74 847 634
3 634 847 633
3 555 848 551
3 551 848 519
3 75 849 78
3 481 849 80
3 80 849 75
3 551 850 555
3 555 850 78
3 78 850 75
3 634 851 633
3 633 851 481
3 481 851 80
3 83 852 58
3 58 852 55
3 348 852 83
3 83 853 276
3 348 853 83
3 315 854 672
3 672 854 674
3 674 854 513
3 222 855 223
3 223 855 672
3 672 855 315
3 513 856 674
3 674 856 505
3 337 857 419
3 419 857 505
3 505 857 674
3 86 858 89
3 89 858 335
3 335 858 367
3 539 859 234
3 234 859 93
3 88 860 87
3 87 860 93
3 86 861 89
3 87 861 88
3 88 861 86
3 93 862 87
3 234 862 93
3 92 863 90
3 90 863 545
3 545 863 538
3 90 864 92
3 92 864 367
3 367 864 335
3 203 865 360
3 360 865 186
3 501 865 203
3 281 866 747
3 215 866 762
3 762 866 763
3 763 866 281
3 280 867 281
3 203 867 501
3 501 867 280
3 1 868 2
3 186 868 360
3 360 868 1
3 4 869 505
3 505 869 419
3 419 869 95
3 61 870 57
3 57 870 272
3 272 870 273
3 197 871 198
3 198 871 504
3 195 871 197
3 93 872 100
3 100 872 198
3 198 872 504
3 93 873 87
3 100 873 93
3 87 874 88
3 88 874 273
3 273 874 272
3 287 875 289
3 289 875 402
3 402 875 713
3 102 876 103
3 103 876 220
3 220 876 381
3 381 876 607
3 102 877 103
3 103 877 289
3 289 877 287
3 767 878 687
3 687 878 263
3 443 879 263
3 263 879 687
3 203 880 501
3 501 880 767
3 767 880 768
3 791 881 728
3 728 881 729
3 729 881 202
3 108 882 650
3 650 882 678
3 678 882 285
3 285 882 109
3 491 883 656
3 656 883 650
3 650 883 108
3 332 884 333
3 333 884 285
3 285 884 109
3 32 885 699
3 699 885 708
3 708 885 669
3 669 885 31
3 292 886 433
3 433 886 372
3 372 886 571
3 114 887 185
3 185 887 184
3 184 887 71
3 71 887 681
3 627 888 628
3 628 888 115
3 115 888 667
3 581 888 627
3 72 889 115
3 115 889 667
3 681 889 71
3 71 889 72
3 63 890 64
3 64 890 323
3 323 890 695
3 497 891 653
3 653 891 652
3 652 891 21
3 21 892 22
3 22 892 509
3 509 892 492
3 38 893 371
3 371 893 564
3 509 893 492
3 492 893 38
3 247 894 395
3 395 894 278
3 278 894 313
3 121 895 120
3 120 895 278
3 278 895 313
3 117 896 118
3 118 896 559
3 559 896 560
3 560 896 120
3 120 896 121
3 117 897 118
3 118 897 250
3 250 898 251
3 118 898 250
3 189 899 247
3 247 899 395
3 251 899 189
3 129 900 199
3 199 900 611
3 611 900 476
3 126 901 128
3 436 901 437
3 437 901 364
3 364 901 126
3 123 902 127
3 127 902 476
3 476 902 611
3 123 903 127
3 127 903 125
3 125 903 126
3 126 903 128
3 129 904 199
3 199 904 391
3 391 904 329
3 264 905 687
3 687 905 767
3 263 906 687
3 687 906 264
3 400 907 204
3 204 907 516
3 516 907 439
3 303 908 302
3 302 908 438
3 438 908 439
3 363 909 714
3 714 909 715
3 715 909 135
3 135 910 137
3 137 910 472
3 715 910 135
3 302 911 303
3 303 911 137
3 137 911 472
3 363 912 400
3 400 912 204
3 714 912 363
3 93 913 100
3 234 913 93
3 26 914 318
3 430 914 26
3 139 915 222
3 222 915 430
3 430 915 26
3 84 916 222
3 222 916 139
3 232 916 233
3 233 916 84
3 138 917 305
3 305 917 274
3 274 917 228
3 232 918 233
3 233 918 138
3 138 918 305
3 337 919 419
3 419 919 95
3 4 920 505
3 505 920 674
3 222 921 223
3 139 921 222
3 232 922 233
3 233 922 398
3 398 922 426
3 478 923 479
3 479 923 140
3 140 923 517
3 140 924 368
3 368 924 102
3 517 924 140
3 92 925 90
3 486 925 487
3 487 925 92
3 102 926 368
3 368 926 367
3 367 926 335
3 115 927 142
3 142 927 784
3 667 927 115
3 261 928 262
3 262 928 324
3 631 928 192
3 192 928 261
3 262 929 324
3 324 929 142
3 142 929 784
3 528 930 529
3 744 930 53
3 53 930 528
3 744 931 53
3 53 931 650
3 650 931 108
3 528 932 529
3 626 932 458
3 458 932 528
3 674 933 513
3 513 933 286
3 114 934 185
3 185 934 474
3 474 934 213
3 213 934 6
3 411 935 435
3 435 935 549
3 756 935 749
3 749 935 411
3 749 936 756
3 756 936 754
3 754 936 42
3 42 937 754
3 754 937 753
3 753 937 459
3 459 937 43
3 75 938 78
3 78 938 302
3 302 938 303
3 438 939 439
3 575 939 556
3 556 939 438
3 500 940 739
3 739 940 740
3 740 940 196
3 363 941 714
3 500 941 739
3 739 941 742
3 742 941 363
3 196 942 388
3 740 942 196
3 388 943 441
3 441 943 204
3 204 943 400
3 196 944 388
3 388 944 441
3 150 945 149
3 149 945 260
3 260 945 132
3 537 945 150
3 260 946 132
3 132 946 397
3 397 946 237
3 150 947 537
3 625 947 661
3 661 947 150
3 237 948 238
3 238 948 80
3 80 948 481
3 397 948 237
3 153 949 305
3 305 949 138
3 153 950 151
3 305 950 153
3 153 951 151
3 151 951 683
3 683 951 682
3 42 952 754
3 778 952 780
3 780 952 42
3 51 953 382
3 382 953 231
3 717 953 51
3 649 954 637
3 637 954 196
3 196 954 740
3 317 955 524
3 500 955 739
3 739 955 317
3 317 956 524
3 692 956 691
3 691 956 317
3 282 957 283
3 283 957 416
3 378 957 282
3 283 958 416
3 416 958 107
3 107 958 655
3 67 959 107
3 107 959 655
3 218 959 67
3 282 960 378
3 378 960 379
3 159 961 113
3 340 961 252
3 252 961 159
3 158 962 160
3 351 962 224
3 224 962 158
3 224 963 351
3 461 963 330
3 330 963 393
3 393 963 224
3 159 964 113
3 158 964 160
3 160 964 159
3 461 965 282
3 282 965 378
3 330 966 461
3 461 966 282
3 446 967 696
3 696 967 701
3 701 967 288
3 86 968 89
3 89 968 288
3 288 968 701
3 446 969 696
3 696 969 695
3 695 969 323
3 196 970 388
3 706 970 637
3 637 970 196
3 164 971 706
3 706 971 707
3 707 971 442
3 164 972 706
3 706 972 637
3 183 973 407
3 407 973 449
3 549 973 435
3 435 973 183
3 645 974 616
3 616 974 236
3 236 974 166
3 166 975 236
3 236 975 407
3 407 975 449
3 497 976 653
3 653 976 645
3 645 976 616
3 54 977 127
3 127 977 123
3 208 978 209
3 209 978 168
3 485 978 56
3 56 978 208
3 357 979 54
3 54 979 127
3 351 980 224
3 224 980 356
3 356 980 525
3 462 981 683
3 683 981 682
3 170 982 262
3 262 982 324
3 170 983 644
3 644 983 529
3 529 983 207
3 170 984 262
3 644 984 170
3 104 985 142
3 142 985 784
3 188 985 265
3 265 985 104
3 169 986 205
3 205 986 265
3 265 986 188
3 169 987 205
3 205 987 207
3 207 987 529
3 171 988 157
3 157 988 199
3 199 988 129
3 171 989 157
3 262 989 170
3 170 989 171
3 113 990 159
3 159 990 285
3 285 990 109
3 158 991 160
3 160 991 320
3 320 991 321
3 598 992 585
3 585 992 46
3 54 993 127
3 598 993 585
3 585 993 201
3 201 993 54
3 349 994 348
3 348 994 83
3 168 995 209
3 372 995 571
3 571 995 168
3 287 996 288
3 288 996 701
3 289 996 287
3 102 997 103
3 368 997 102
3 347 998 540
3 759 998 347
3 521 999 540
3 780 999 778
3 778 999 521
3 636 1000 760
3 760 1000 749
3 749 1000 756
3 545 1001 538
3 538 1001 520
3 520 1001 74
3 23 1002 291
3 661 1002 23
3 625 1003 661
3 661 1003 23
3 173 1004 98
3 198 1004 504
3 504 1004 173
3 173 1005 98
3 98 1005 575
3 575 1005 556
3 234 1006 539
3 539 1006 519
3 519 1006 551
3 117 1007 118
3 118 1007 283
3 283 1007 416
3 118 1008 250
3 461 1008 282
3 282 1008 283
3 283 1008 118
3 726 1009 727
3 727 1009 260
3 260 1009 132
3 237 1010 397
3 775 1010 772
3 772 1010 237
3 202 1011 729
3 775 1011 772
3 772 1011 769
3 769 1011 202
3 728 1012 791
3 791 1012 792
3 792 1012 726
3 148 1013 17
3 17 1013 18
3 18 1013 738
3 738 1013 147
3 16 1014 17
3 17 1014 148
3 16 1015 14
3 14 1015 414
3 414 1015 392
3 726 1016 792
3 792 1016 738
3 738 1016 147
3 533 1017 454
3 454 1017 392
3 392 1017 414
3 169 1018 205
3 205 1018 327
3 327 1018 328
3 12 1019 53
3 53 1019 744
3 341 1019 12
3 341 1020 725
3 725 1020 328
3 171 1021 170
3 170 1021 644
3 626 1021 375
3 375 1021 171
3 546 1022 510
3 510 1022 150
3 510 1023 150
3 150 1023 661
3 661 1023 23
3 26 1024 430
3 493 1024 226
3 226 1024 508
3 508 1024 26
3 337 1025 493
3 493 1025 226
3 454 1026 533
3 533 1026 546
3 546 1026 510
3 392 1027 414
3 414 1027 7
3 216 1028 583
3 583 1028 623
3 623 1028 629
3 246 1029 274
3 274 1029 305
3 305 1029 153
3 246 1030 247
3 247 1030 395
3 30 1030 246
3 153 1031 151
3 251 1031 189
3 189 1031 153
3 217 1032 296
3 296 1032 190
3 759 1032 347
3 347 1032 217
3 296 1033 452
3 452 1033 428
3 428 1033 453
3 16 1034 231
3 231 1034 382
3 276 1035 277
3 277 1035 495
3 17 1036 148
3 148 1036 567
3 567 1036 338
3 567 1037 338
3 338 1037 599
3 599 1037 598
3 616 1038 645
3 645 1038 646
3 646 1038 176
3 177 1039 370
3 370 1039 646
3 646 1039 176
3 681 1040 71
3 71 1040 773
3 773 1040 774
3 489 1041 737
3 737 1041 738
3 738 1041 147
3 179 1042 200
3 200 1042 255
3 609 1042 179
3 349 1043 541
3 541 1043 540
3 540 1043 521
3 453 1044 541
3 541 1044 349
3 433 1045 292
3 292 1045 98
3 98 1045 173
3 157 1046 171
3 171 1046 375
3 375 1046 376
3 164 1047 630
3 630 1047 286
3 286 1047 513
3 164 1048 630
3 630 1048 629
3 375 1049 376
3 376 1049 338
3 338 1049 567
3 434 1050 620
3 620 1050 403
3 439 1051 516
3 516 1051 403
3 403 1051 620
3 518 1052 522
3 522 1052 29
3 594 1052 518
3 177 1053 370
3 594 1053 518
3 518 1053 177
3 510 1054 150
3 150 1054 537
3 517 1055 518
3 518 1055 594
3 140 1055 517
3 649 1056 637
3 637 1056 706
3 636 1057 760
3 760 1057 757
3 757 1057 723
3 137 1058 472
3 775 1058 772
3 772 1058 771
3 771 1058 137
3 135 1059 715
3 715 1059 711
3 711 1059 221
3 320 1060 321
3 321 1060 221
3 221 1060 711
3 250 1061 251
3 683 1061 462
3 462 1061 250
3 164 1062 630
3 706 1062 164
3 403 1063 442
3 442 1063 707
3 620 1063 403
3 221 1064 356
3 356 1064 525
3 711 1064 221
3 206 1065 639
3 639 1065 646
3 646 1065 176
3 432 1066 47
3 47 1066 777
3 609 1067 179
3 179 1067 651
3 651 1067 655
3 655 1067 107
3 402 1068 713
3 713 1068 699
3 699 1068 32
3 31 1069 669
3 669 1069 664
3 663 1070 664
3 664 1070 155
3 155 1070 696
3 696 1070 446
3 276 1071 277
3 83 1071 276
3 428 1072 453
3 496 1072 428
3 348 1073 349
3 349 1073 541
3 496 1074 495
3 495 1074 277
3 526 1075 413
3 413 1075 547
3 547 1075 307
3 230 1076 231
3 231 1076 382
3 460 1076 230
3 648 1077 649
3 672 1077 315
3 315 1077 648
3 186 1078 360
3 360 1078 359
3 359 1078 307
3 264 1079 265
3 265 1079 188
3 687 1079 264
3 250 1080 251
3 251 1080 189
3 636 1081 760
3 760 1081 759
3 759 1081 347
3 452 1082 296
3 296 1082 190
3 398 1083 399
3 399 1083 692
3 692 1083 691
3 426 1083 398
3 461 1084 462
3 462 1084 683
3 330 1084 461
3 378 1085 379
3 379 1085 724
3 724 1085 721
3 440 1086 497
3 497 1086 653
3 548 1086 440
3 332 1087 333
3 729 1087 202
3 202 1087 332
3 726 1088 727
3 727 1088 533
3 533 1088 454
3 528 1089 529
3 529 1089 207
3 375 1090 626
3 626 1090 458
3 216 1091 434
3 434 1091 620
3 583 1091 216
3 347 1092 540
3 540 1092 541
3 541 1092 453
3 222 1093 223
3 223 1093 337
3 337 1093 493
3 538 1094 539
3 539 1094 234
3 545 1094 538
3 413 1095 526
3 526 1095 773
3 773 1095 774
3 649 1096 648
3 648 1096 398
3 398 1096 426
3 280 1097 281
3 443 1097 263
3 263 1097 280
3 489 1098 737
3 737 1098 791
3 791 1098 728
3 272 1099 273
3 695 1099 323
3 323 1099 272
3 561 1100 562
3 581 1100 627
3 627 1100 561
3 320 1101 321
3 332 1101 333
3 333 1101 320
3 434 1102 620
3 620 1102 619
3 619 1102 292
3 292 1102 433
3 521 1103 540
3 540 1103 347
3 337 1104 419
3 493 1104 337
3 428 1105 453
3 453 1105 541
3 356 1106 525
3 525 1106 524
3 524 1106 317
3 327 1107 328
3 328 1107 725
3 391 1108 329
3 329 1108 437
3 437 1108 436
3 458 1109 626
3 491 1109 656
3 656 1109 458
3 348 1110 349
3 432 1110 431
3 431 1110 348
3 371 1111 420
3 420 1111 548
3 564 1111 371
3 375 1112 376
3 626 1112 375
3 442 1113 707
3 707 1113 388
3 388 1113 441
3 440 1114 548
3 548 1114 420
3 406 1115 407
3 407 1115 449
3 723 1115 406
3 413 1116 465
3 526 1116 413
3 422 1117 423
3 423 1117 437
3 437 1117 436
3 435 1118 440
3 440 1118 548
3 549 1118 435
3 438 1119 439
3 439 1119 516
3 509 1120 510
3 510 1120 546
3 492 1120 509
3 478 1121 479
3 479 1121 487
3 487 1121 486
3 598 1122 599
3 611 1122 476
3 476 1122 598
3 489 1123 737
3 737 1123 491
3 491 1123 656
3 561 1124 562
3 562 1124 523
3 523 1124 572
3 555 1125 556
3 556 1125 575
3 551 1125 555
3 599 1126 598
3 598 1126 585
3 629 1127 630
3 623 1127 629
3 633 1128 634
3 634 1128 662
3 662 1128 661
3 661 1128 625
3 648 1129 649
3 649 1129 637
3 663 1130 664
3 664 1130 669
3 682 1131 683
3 691 1131 692
3 692 1131 682
3 768 1132 767
3 767 1132 687
3 724 1133 725
3 721 1133 724
3 726 1134 727
3 792 1134 726
3 767 1135 768
3 774 1135 773
3 773 1135 761
3 761 1135 767
3 777 1136 778
3 778 1136 780
3 779 1136 777
CELL_DATA 977
SCALARS cell_scalars int 1
LOOKUP_TABLE default
0 0 0 0 0 0 0 0 0 0 0 0 0 0 0 0 0 0 0 0 0 0 0 0 0 0 0 0 0 0 0 0 0 0 0 0 0 0 0 0 0 0 0 0 0 0 0 0 0 0 0 0 0 0 0 0 0 0 0 0 0 0 0 0 0 0 0 0 0 0 0 0 0 0 0 0 0 0 0 0 0 0 0 0 0 0 0 0 0 0 0 0 0 0 0 0 0 0 0 0 0 0 0 0 0 0 0 0 0 0 0 0 0 0 0 0 0 0 0 0 0 0 0 0 0 0 0 0 0 0 0 0 0 0 0 0 0 0 0 0 0 0 0 0 0 0 0 0 0 0 0 0 0 0 0 0 0 0 0 0 0 0 0 0 0 0 0 0 0 0 0 0 0 0 0 0 0 0 0 0 0 0 0 0 0 0 0 0 0 0 0 0 0 0 0 0 0 0 0 0 0 0 0 0 0 0 0 0 0 0 0 0 0 0 0 0 0 0 0 0 0 0 0 0 0 0 0 0 0 0 0 0 0 0 0 0 0 0 0 0 0 0 0 0 0 0 0 0 0 0 0 0 0 0 0 0 0 0 0 0 0 0 0 0 0 0 0 0 0 0 0 0 0 0 0 0 0 0 0 0 0 0 0 0 0 0 0 0 0 0 0 0 0 0 0 0 0 0 0 0 0 0 0 0 0 0 0 0 0 0 0 0 0 0 0 0 0 0 0 0 0 0 0 0 0 0 0 0 0 0 0 0 0 0 0 0 0 0 0 0 0 0 0 0 0 0 0 0 0 0 0 0 0 0 0 0 0 0 0 0 0 0 0 0 0 0 0 0 0 0 0 0 0 0 0 0 0 0 0 0 0 0 0 0 0 0 0 0 0 0 0 0 0 0 0 0 0 0 0 0 0 0 0 0 0 0 0 0 0 0 0 0 0 0 0 0 0 0 0 0 0 0 0 0 0 0 0 0 0 0 0 0 0 0 0 0 0 0 0 0 0 0 0 0 0 0 0 0 0 0 0 0 0 0 0 0 0 0 0 0 0 0 0 0 0 0 0 0 0 0 0 0 0 0 0 0 0 0 0 0 0 0 0 0 0 0 0 0 0 0 0 0 0 0 0 0 0 0 0 0 0 0 0 0 0 0 0 0 0 0 0 0 0 0 0 0 0 0 0 0 0 0 0 0 0 0 0 0 0 0 0 0 0 0 0 0 0 0 0 0 0 0 0 0 0 0 0 0 0 0 0 0 0 0 0 0 0 0 0 0 0 0 0 0 0 0 0 0 0 0 0 0 0 0 0 0 0 0 0 0 0 0 0 0 0 0 0 0 0 0 0 0 0 0 0 0 0 0 0 0 0 0 0 0 0 0 0 0 0 0 0 0 0 0 0 0 0 0 0 0 0 0 0 0 0 0 0 0 0 0 0 0 0 0 0 0 0 0 0 0 0 0 0 0 0 0 0 0 0 0 0 0 0 0 0 0 0 0 0 0 0 0 0 0 0 0 0 0 0 0 0 0 0 0 0 0 0 0 0 0 0 0 0 0 0 0 0 0 0 0 0 0 0 0 0 0 0 0 0 0 0 0 0 0 0 0 0 0 0 0 0 0 0 0 0 0 0 0 0 0 0 0 0 0 0 0 0 0 0 0 0 0 0 0 0 0 0 0 0 0 0 0 0 0 0 0 0 0 0 0 0 0 0 0 0 0 0 0 0 0 0 0 0 0 0 0 0 0 0 0 0 0 0 0 0 0 0 0 0 0 0 0 0 0 0 0 0 0 0 0 0 0 0 0 0 0 0 0 0 0 0 0 0 0 0 0 0 0 0 0 0 0 0 0 0 0 0 0 0 0 0 0 0 0 0 0 0 0 0 0 0 0 0 0 0 0 0 0 0 0 0 0 0 0 0 0 0 0 0 0 0 0 0 0 0 0 0 0 0 0 0 0 0 0 0 0 0 0 0 0 0 0 0 0 0 0 0 0 0 0 0 0 0 0 0 0 0 0 0 0 0 0 0 0 0 0 0 0 0 0 0 0 0 0 0 0 0 0 0 0 0 0 0 0 0 0 0 0 0 0 0 0 0 0 0 0 0 0 0 0 0 0 0 0 0 0 0 0 0 0 0 0 0 0 0 0 0 0 0 0 0 0 0 0 0 0 0 0 0 0 0 0 0 0 0 0 0 0 0 0 0 0 0 0 0 0 0