# vtk DataFile Version 2.0
polydata
ASCII
DATASET POLYDATA
POINTS 24 double
 4.29557e+00  5.56576e+00  4.11349e+00
 4.33274e+00  5.87239e+00  4.17605e+00
 4.13976e+00  5.25331e+00  4.45827e+00
 4.25325e+00  6.00204e+00  4.65656e+00
 4.10264e+00  5.41196e+00  4.79208e+00
 4.50101e+00  4.84570e+00  4.75268e+00
 4.27111e+00  5.26065e+00  4.99532e+00
 4.72835e+00  5.56538e+00  5.24616e+00
 5.20828e+00  5.01618e+00  4.93969e+00
 5.06739e+00  4.82179e+00  4.77458e+00
 5.18336e+00  5.93144e+00  4.95703e+00
 5.19405e+00  6.11071e+00  4.57859e+00
 5.37524e+00  5.66822e+00  4.23939e+00
 5.45459e+00  5.29397e+00  4.77160e+00
 5.46491e+00  5.28031e+00  4.45119e+00
 4.80869e+00  5.36104e+00  3.94570e+00
 4.91838e+00  4.88724e+00  4.22503e+00
 5.05736e+00  5.68761e+00  3.97253e+00
 5.12742e+00  4.85812e+00  4.36352e+00
 4.44531e+00  4.85852e+00  4.51484e+00
 4.81243e+00  6.02283e+00  4.08495e+00
 4.42998e+00  6.12618e+00  4.76490e+00
 4.91268e+00  6.22350e+00  4.43234e+00
 4.78350e+00  5.85402e+00  5.18146e+00
POLYGONS 14 86
5      2      4      3      1      0      
5      9      8      7      6      5      
5      13     14     12     11     10     
6      17     12     14     18     16     15     
5      6      4      2      19     5      
5      0      1      20     17     15     
5      1      3      21     22     20     
6      4      6      7      23     21     3      
5      15     16     19     2      0      
5      19     16     18     9      5      
5      7      8      13     10     23     
5      21     23     10     11     22     
5      22     11     12     17     20     
5      9      18     14     13     8      
