# vtk DataFile Version 2.0
Really cool data
ASCII
DATASET POLYDATA
POINTS 880 double
4.775478745585568 3.8226728459216144 4.863197677896637
4.775478745585568 8.789027697699188 2.9729423760677376
4.775478745585568 2.1663676592167453 5.022019831945119
4.775478745585568 2.8159784032175392 7.0412329838381655
4.775478745585568 3.308571872923802 9.11808772684533
4.775478745585568 1.9202547604799438 3.5828194078834072
4.775478745585568 0.5226300289268196 1.3053517671170438
4.775478745585568 3.280328645193454 8.741818746762831
4.775478745585568 8.566997608012764 8.421560207396643
4.775478745585568 4.717711093278793 1.7310365021990766
4.775478745585568 5.954134383952493 3.0205708184278253
4.775478745585568 1.5390191832543163 3.550715349354504
4.775478745585568 5.9953378098609 8.382393966580901
4.775478745585568 5.012663602298787 8.351161662817658
4.775478745585568 7.890184623671513 7.353496988619906
4.775478745585568 4.713956690969858 6.922643110989951
4.775478745585568 3.3161469776363233 0.37362252174644894
4.775478745585568 3.225197761719339 6.656815950608462
4.775478745585568 7.705449580894985 4.495834162176154
4.775478745585568 6.937705054872226 8.444653722685496
4.775478745585568 2.317259213043714 5.682910661833115
4.775478745585568 2.7521942947805424 5.376929324257954
4.775478745585568 3.9878413584602344 7.443726924033467
4.775478745585568 2.7865513024715844 7.483654432652005
4.775478745585568 3.159124306665859 4.885030927452154
4.775478745585568 5.861901706966931 0.8003690895162265
4.775478745585568 3.5458380303442056 4.6215393371005895
4.775478745585568 1.7447720682415437 1.2888307047972416
4.775478745585568 3.619233522702615 3.169081477947032
4.775478745585568 0.4365766250502699 3.2209593632514784
4.775478745585568 3.1972287672361652 8.913323253440666
4.775478745585568 8.858180501490152 7.753127782466496
4.775478745585568 6.093089497422349 8.791230928719123
4.775478745585568 3.4249373776013066 0.39372416888066375
4.775478745585568 5.339431889283714 6.238951990102065
4.775478745585568 2.4953796393929926 8.066343760624338
4.775478745585568 8.381470258988664 3.7104426843482745
4.775478745585568 4.012761721204266 3.9675639161798077
4.775478745585568 3.0472345945347565 1.253469742498338
4.775478745585568 0.202849470680868 9.500351236693366
4.775478745585568 7.949720920467535 7.425607842386617
4.775478745585568 4.946317914791818 0.7377101657854059
4.775478745585568 5.116942389959621 8.739700848091493
4.775478745585568 6.6891559421820865 6.1445228106925285
4.775478745585568 2.294064399306034 9.420382640206535
4.775478745585568 1.333724101726687 3.115811601960886
4.775478745585568 4.850559157486209 7.399717066605514
4.775478745585568 9.14139408413822 1.116737051694392
4.775478745585568 2.3620634530457885 9.018984686530661
4.775478745585568 9.616657862242977 8.544605563983351
4.775478745585568 7.135673167432948 5.00053257640157
4.775478745585568 3.042567836060808 0.6708720877193951
4.775478745585568 5.517214578612531 9.332073874904973
4.775478745585568 0.9730154595182865 1.1227667006492559
4.775478745585568 0.535071225293207 1.1631291488481066
4.775478745585568 7.095149745349841 8.035326605415953
4.775478745585568 0.21902767326412687 6.3504654044150115
4.775478745585568 9.435437934140907 8.190273593263909
4.775478745585568 3.1164893737631494 5.632123337962362
4.775478745585568 3.4719991625326942 8.405637582058365
4.775478745585568 8.713558727695196 9.316395815831944
4.775478745585568 9.877431703381296 3.949943023618772
4.775478745585568 4.737419578716901 4.107974356193844
4.775478745585568 6.638903582218401 5.978654112466845
4.775478745585568 7.155001886193869 4.6723935521816955
4.775478745585568 5.9090628133909595 7.84133126354401
4.775478745585568 5.462683540287827 1.2662161091059643
4.775478745585568 6.603008578931354 0.25792066534123104
4.775478745585568 7.302976645258115 3.6949434625342574
4.775478745585568 2.7184226496712323 5.200710490221653
4.775478745585568 1.2401001595927739 1.0300221628285868
4.775478745585568 4.425481303389994 3.189136558473185
4.775478745585568 8.124084774516257 2.98954504184634
4.775478745585568 6.888019448501862 0.8424152526452852
4.775478745585568 0.9817044642535339 4.808954211684492
4.775478745585568 5.711725203584374 3.009737746064789
4.775478745585568 1.3943685203277376 3.213939220645102
4.775478745585568 2.026605816566897 0.6728544377061421
4.775478745585568 5.870755801111014 5.316537779870698
4.775478745585568 3.2382852726377256 4.832706088821973
4.775478745585568 9.309484639002251 5.14482881972055
4.775478745585568 4.898546826258433 1.2874762095238996
4.775478745585568 9.178079314437804 1.1446654299018102
4.775478745585568 5.046114074463088 1.3374828168452568
4.775478745585568 7.125409095541426 5.366084056401073
4.775478745585568 8.54179285156451 1.7207962749640464
4.775478745585568 7.997959063935649 8.318238506499943
4.775478745585568 3.580602871663281 7.827641919954389
4.775478745585568 5.2150177084533125 3.4179020534523237
4.775478745585568 6.290335810532476 3.7487998372704174
4.775478745585568 2.5877051184931648 6.35636868530056
4.775478745585568 1.8219080176004419 6.807539399672029
4.775478745585568 7.879600056994215 0.7949917703993593
4.775478745585568 2.358874194327258 5.650174183245053
4.775478745585568 4.188790803795029 5.183435380884882
4.775478745585568 7.5071072573981175 6.6369431928218505
4.775478745585568 4.803510850704116 1.3368982694716804
4.775478745585568 5.954419877786001 0.39230934246607907
4.775478745585568 3.0688696111965177 0.6933042717069292
4.775478745585568 0.6316631196193994 7.821511114200587
4.775478745585568 4.469359763262881 7.686928268085255
4.775478745585568 8.495852221928434 9.153567462433998
4.775478745585568 3.875626066445333 4.909290435833894
4.775478745585568 8.944240246168706 2.3335478657513304
4.775478745585568 4.239441294342208 0.14761845137689641
4.775478745585568 2.1910133846338504 3.2080233313259066
4.775478745585568 5.8816880513758 4.715733591064739
4.775478745585568 3.7141814700094704 0.43552215145744577
4.775478745585568 7.00618778736761 3.648886802795123
4.775478745585568 8.864004174934308 6.184885691975203
4.775478745585568 9.003491116521026 3.4743455021722975
4.775478745585568 1.2338630851713732 9.737742155566915
4.775478745585568 4.585792155575484 5.933607204875053
4.775478745585568 6.298065242196006 3.6377550575213426
4.775478745585568 8.07387854977147 2.9289622414210794
4.775478745585568 1.7096581155402815 2.914267792272422
4.775478745585568 8.648288344544927 4.385313023627361
4.775478745585568 1.936884704429536 2.507417338722949
4.775478745585568 6.594080186988552 6.2283961427187835
4.775478745585568 2.7340808606818565 5.207357395362085
4.775478745585568 8.539171109498621 7.146592998943741
4.775478745585568 2.504587999559395 1.9498343403950498
4.775478745585568 2.3574807591640154 9.828274070980989
4.775478745585568 6.688139036220782 7.545342433616302
4.775478745585568 7.030778650687256 8.65214360993945
4.775478745585568 6.630566589516788 5.719057706701901
4.775478745585568 7.175618055980811 8.968155315856432
4.775478745585568 6.323064125919217 3.710098273529531
4.775478745585568 6.909946646637332 1.031905016426627
4.775478745585568 2.9706397592430145 3.676704892604859
4.775478745585568 7.638219275920892 6.918942943709309
4.775478745585568 0.9375439959051314 8.619485899506019
4.775478745585568 6.931355563019925 2.0740268683130987
4.775478745585568 3.9529021080573816 8.47939660343987
4.775478745585568 0.690809144958332 7.3388505079640085
4.775478745585568 5.749567193065802 4.9544577570178765
4.775478745585568 3.996271901046954 9.488451922756141
4.775478745585568 9.745024920774844 8.875257587678895
4.775478745585568 2.9814069055811343 3.5726546865599538
4.775478745585568 8.382549946538408 9.467354815063548
4.775478745585568 8.685364216209944 2.8226960439876745
4.775478745585568 8.973485511299408 3.2322088364260235
4.775478745585568 6.226777814009126 0.2847516612894141
4.775478745585568 7.114523282453275 8.82310913009955
4.775478745585568 5.783680230245606 6.555517311134976
4.775478745585568 7.233182716131229 1.7399859075955444
4.775478745585568 3.5445130923298107 4.53504882701135
4.775478745585568 7.346324719022846 1.8051216013564737
4.775478745585568 1.8517420038876524 6.810561001168146
4.775478745585568 8.248571635757575 4.613060083347405
4.775478745585568 5.084887214500209 4.559132160845002
4.775478745585568 8.242518527712171 8.36040518558024
4.775478745585568 0.4164972196716656 3.235914841911325
4.775478745585568 7.316663828648971 6.61019765691262
4.775478745585568 4.5524087003608456 8.796288981084965
4.775478745585568 7.614180636785294 2.023408176398598
4.775478745585568 1.9604351940007587 5.414085234590782
4.775478745585568 8.126851866774219 2.9677443388383016
4.775478745585568 5.951668602358191 4.489414218628804
4.775478745585568 8.01654448659986 6.126783248374734
4.775478745585568 4.535482366559146 6.795517936256672
4.775478745585568 6.899544758392198 7.6781471723939925
4.775478745585568 6.307840201150684 5.541898201228134
4.775478745585568 2.3302248457602177 9.628658571967831
4.775478745585568 6.575733705986062 7.238103541758496
4.775478745585568 0.6774579129519056 5.148369686577002
4.775478745585568 2.529325635467647 7.068173847403141
4.775478745585568 0.8373845998583134 7.435606818359409
4.775478745585568 0.8534468118317321 2.09331065302808
4.775478745585568 7.29105753807294 5.424322410515046
4.775478745585568 1.6447705101420682 7.371971918503354
4.775478745585568 2.978986572634064 3.6343856047832155
4.775478745585568 4.397371997919086 2.6789727503122025
4.775478745585568 6.564078149321653 2.4423826491899003
4.775478745585568 4.154144346768811 5.511268786892463
4.775478745585568 2.15195625655829 8.159131189834591
4.775478745585568 9.94429263781633 4.078544600180726
4.775478745585568 0.9164372307668545 1.3156332559333
4.775478745585568 0.8476145349850223 2.874399166340945
4.775478745585568 7.475137078685429 7.811759333959166
4.775478745585568 0.19614128373098613 9.384163643343586
4.775478745585568 9.521926998052354 6.800607059428986
4.775478745585568 7.606363486730174 5.547844414119646
4.775478745585568 8.579318365264712 6.74305358727459
4.775478745585568 5.220158509638694 3.4103513795505194
4.775478745585568 8.195802976239586 6.036359055430144
4.775478745585568 8.781976437659795 2.633711842617672
4.775478745585568 3.293450004541481 2.3664792303219033
4.775478745585568 5.956554950154336 2.1570965781186695
4.775478745585568 9.11338449843586 5.579319394194351
4.775478745585568 1.066107462808939 1.8111652318189446
4.775478745585568 5.021530453713509 5.902187425726493
4.775478745585568 0.42072526373128954 8.861974200576242
4.775478745585568 6.311234767291021 6.969400050469619
4.775478745585568 3.2350077258541674 1.042612049999585
4.775478745585568 6.36195373729075 9.36076396956415
4.775478745585568 8.672031858917533 6.407213207319305
4.775478745585568 5.394426823445028 2.3246175063607035
4.775478745585568 5.834097904837401 4.262873810636017
4.775478745585568 2.0130799000026034 6.805044995245476
4.775478745585568 7.149449116925642 2.8065673794138983
4.775478745585568 8.224000556924826 4.598874004799496
4.775478745585568 2.1791833724312584 0.5530128453506911
4.775478745585568 7.138161407119024 1.4861181167728652
4.775478745585568 3.293944396032753 3.0170554976684403
4.775478745585568 4.471561410675308 8.429294768800174
4.775478745585568 2.176081165678712 3.052175788997077
4.775478745585568 9.132427457298347 6.389603088497333
4.775478745585568 3.4775531523968404 9.465579696431046
4.775478745585568 5.890494410346734 7.727628012544601
4.775478745585568 9.46014086252026 7.409720983768585
4.775478745585568 1.001867125688661 4.750793850525247
4.775478745585568 5.820968633462222 7.574897820503621
4.775478745585568 4.4010647913121606 5.749069236957789
4.775478745585568 0.812356976443293 1.520561327721915
4.775478745585568 2.1819914563399774 6.551865310631266
4.775478745585568 7.829765884114453 9.34229696493722
4.775478745585568 9.804568865175868 2.08597793818874
4.775478745585568 7.923624409664905 1.6366292116477947
4.775478745585568 8.871299107118748 3.6376779827468866
4.775478745585568 3.895778075501547 6.960990790452075
4.775478745585568 6.547312623802882 7.427642010615713
4.775478745585568 2.7915257585524182 3.194578256151373
4.775478745585568 0.4833479665990704 8.812159324227228
4.775478745585568 9.31731965526442 4.894352513580377
4.775478745585568 3.3318249791584877 6.627594206644683
4.775478745585568 4.621730137104015 3.7312221885428705
4.775478745585568 4.589424174541175 7.737708499797511
4.775478745585568 1.9663849736153585 9.112759191793963
4.775478745585568 8.847915885895018 3.042174424828219
4.775478745585568 2.7602670369075417 8.904570214228649
4.775478745585568 8.793003171922102 2.6094410701184283
4.775478745585568 3.099567842470206 1.2585170571970603
4.775478745585568 2.6092640334507347 3.155703260181598
4.775478745585568 4.9213166098344745 2.1660670864143654
4.775478745585568 8.384722753545331 3.711278471537813
4.775478745585568 1.6133079104739918 7.455630323284831
4.775478745585568 9.39522681531116 3.429713459112247
4.775478745585568 7.914383257654516 0.687408969087747
4.775478745585568 3.8988246716787027 1.9880649761312648
4.775478745585568 8.331802915869304 8.377245418280824
4.775478745585568 3.859391755853986 0.6728004003856273
4.775478745585568 5.292654569346789 6.063444327144223
4.775478745585568 6.457835783229762 1.3685283842786593
4.775478745585568 8.788457695091255 1.6219242484750278
4.775478745585568 4.931607253597447 0.2094732946414603
4.775478745585568 8.073725016319045 0.6403218249807329
4.775478745585568 1.9668246908578528 2.3411883985719495
4.775478745585568 1.4244831107848919 1.1236500114105292
4.775478745585568 6.889318707937614 5.535347175341025
4.775478745585568 7.930536162233914 1.6387899149414904
4.775478745585568 6.934995085716064 7.704674001973849
4.775478745585568 8.822848736810393 6.291858615224307
4.775478745585568 2.3316357389259763 6.961325842027165
4.775478745585568 4.102231921430851 0.2662129948104526
4.775478745585568 7.728338875862863 6.413771395061506
4.775478745585568 3.8806511593680257 5.665297361833924
4.775478745585568 8.447377373140474 7.221491483124516
4.775478745585568 0.6570533406059027 9.889060418245522
4.775478745585568 1.2482360276909417 5.963601115327025
4.775478745585568 5.877033243351025 1.2677986477984657
4.775478745585568 4.5518852062781265 3.947487998383433
4.775478745585568 0.704645996388189 2.5019586381508976
4.775478745585568 7.135003763888745 5.214637922916669
4.775478745585568 0.3178972593908468 5.372909040271906
4.775478745585568 8.4375749813487 7.387252343867843
4.775478745585568 3.611420204843607 2.1074841960534902
4.775478745585568 7.123924529742932 3.0250099742032233
4.775478745585568 6.654319048872496 3.7407547684412013
4.775478745585568 2.1199761357485998 5.006281221610129
4.775478745585568 7.572496584329025 1.2189060563588752
4.775478745585568 0.5432953472176387 1.1209334729099878
4.775478745585568 5.879278901412652 5.294619875689105
4.775478745585568 8.061562066638574 7.397918033164879
4.775478745585568 5.461548172394888 2.751605689876965
4.775478745585568 1.9356747078574128 2.7795482464256716
4.775478745585568 1.4323229087873153 3.0687618588287964
4.775478745585568 8.694075988052978 1.7417535135237703
4.775478745585568 8.251435226735246 5.043946290297025
4.775478745585568 8.446656111601817 5.997879635920388
4.775478745585568 8.716762906997129 1.799757599111447
4.775478745585568 6.77887579498144 1.27397713182012
4.775478745585568 6.520668247146016 8.469751521070002
4.775478745585568 4.100117801985764 1.180432147581854
4.775478745585568 4.668203470343821 8.123772522776553
4.775478745585568 7.801613972614828 1.3095460830835475
4.775478745585568 3.9973259396376215 7.2336414917876555
4.775478745585568 3.036208562216884 0.6843684299224746
4.775478745585568 0.7806636943540699 4.204570213554826
4.775478745585568 0.6226606461797933 5.153948534471408
4.775478745585568 2.278964314715799 5.650337454530622
4.775478745585568 6.660253706211093 2.432056577903962
4.775478745585568 4.833797118756405 0.17680675440014665
4.775478745585568 3.0450270414418705 6.702239949050145
4.775478745585568 2.4894958673999024 1.75612944449405
4.775478745585568 7.747149197248903 3.8845533728072783
4.775478745585568 3.279366157128534 2.7850505561512806
4.775478745585568 0.8180515931763865 9.845954672596166
4.775478745585568 5.523590672203517 5.490683084491287
4.775478745585568 1.6475874854769261 2.02764818801103
4.775478745585568 8.24979996334553 4.6596230094759195
4.775478745585568 8.724184819836683 3.8226256375534327
4.775478745585568 3.6692984830612283 1.7286302242451366
4.775478745585568 9.22251508099587 3.408600460120466
4.775478745585568 0.8837560858902324 5.130526851945741
4.775478745585568 0.4420867065747794 7.552514663672109
4.775478745585568 4.490123038777186 6.985390920944662
4.775478745585568 1.2003998798007083 6.178280168821058
4.775478745585568 1.907251338378614 3.6161985614193854
4.775478745585568 7.821462963736497 7.926913138492232
4.775478745585568 7.735875631073195 6.405539447479637
4.775478745585568 4.549575908091092 3.286367710950096
4.775478745585568 8.749596335456534 4.335234616286227
4.775478745585568 4.794706503849912 5.917761576056001
4.775478745585568 4.602253797501413 4.946909849167209
4.775478745585568 0.8999438689737108 2.993175252083507
4.775478745585568 2.67777696990137 4.049176005633682
4.775478745585568 5.21816402052029 6.509407718933232
4.775478745585568 4.193353172715775 3.9647153155433568
4.775478745585568 1.4216393541120693 3.9369934032240654
4.775478745585568 0.4087186850337779 7.605321261326724
4.775478745585568 5.506381778881076 4.985130552516378
4.775478745585568 2.9917524102492665 3.2343734769534547
4.775478745585568 5.6264101091442695 7.519820573504739
4.775478745585568 9.073912806034082 3.387058590209388
4.775478745585568 7.780502702294864 9.10740568678591
4.775478745585568 4.549163564491539 0.08770540317599484
4.775478745585568 4.462975786419934 8.64650014046871
4.775478745585568 3.5271945965467864 1.3558677929620093
4.775478745585568 7.604025472812056 2.4131853107756154
4.775478745585568 6.323887075075131 5.551088421237778
4.775478745585568 6.200842640551135 3.3367883634243825
4.775478745585568 2.347289256341219 5.964579538091482
4.775478745585568 7.0500341678353085 1.304792536019165
4.775478745585568 1.8785154413700762 6.9079059773974905
4.775478745585568 0.9850494415529947 9.805643346184073
4.775478745585568 1.726784425740895 1.2796263655855016
4.775478745585568 7.162370222192705 7.871944386577219
4.775478745585568 3.54332054537805 4.453900494660074
4.775478745585568 6.089493257222606 6.70835749450117
4.775478745585568 4.604710825499203 4.945660608597214
4.775478745585568 2.0634256586973008 3.8692519097284426
4.775478745585568 8.850870949849446 5.792028836693266
4.775478745585568 8.522376812461403 6.004038481294452
4.775478745585568 6.7727071083357435 6.88210515884465
4.775478745585568 8.916729300274536 8.108643938735804
4.775478745585568 5.4933750417513325 3.0016740647969407
4.775478745585568 7.041396922789405 2.727643635383333
4.775478745585568 7.685748657261026 1.9531776121398232
4.775478745585568 6.934317309954595 1.2267432713529554
4.775478745585568 6.946229168592184 6.6236164068073276
4.775478745585568 5.348905797469559 5.74723796951561
4.775478745585568 7.829888134627388 8.922022860873755
4.775478745585568 4.7137245062048105 3.4421234693917997
4.775478745585568 4.593239305075793 2.1933546867142053
4.775478745585568 0.10225862344193049 5.676758835243935
4.775478745585568 3.76804695384794 5.725429256587364
4.775478745585568 1.5672799218417834 4.520202931334139
4.775478745585568 5.7432765501675025 4.982800221270964
4.775478745585568 7.773026540694353 2.7087423642286694
4.775478745585568 4.8626347840723065 3.420343344881296
4.775478745585568 2.0372937509103424 6.799021317576781
4.775478745585568 3.18851088634696 9.864595640650396
4.775478745585568 2.3793886736010506 8.606301838771294
4.775478745585568 7.757296221202339 8.97667090542149
4.775478745585568 7.244680734454617 2.759908212677341
4.775478745585568 4.931799055732688 1.2688947289104524
4.775478745585568 6.054140756880695 1.7271445611279725
4.775478745585568 8.643351896794425 0.45725920754918464
4.775478745585568 2.6019221347590573 0.5433614126517424
4.775478745585568 3.1249924161068514 3.1385009260442076
4.775478745585568 5.116597119934362 1.3701331817858144
4.775478745585568 8.889378087199168 7.93153235114327
4.775478745585568 1.5941843760371568 3.643038574129351
4.775478745585568 4.527795861867834 6.49476893859345
4.775478745585568 0.603309654506698 6.864319100270405
4.775478745585568 0.5887642908569934 6.751295329278522
4.775478745585568 4.154377544787757 9.489871268529855
4.775478745585568 5.236335746757636 4.812152952643438
4.775478745585568 7.930075755801862 7.429440020724842
4.775478745585568 3.7987664200608227 4.20135564111923
4.775478745585568 1.3903586369497054 8.854067879705182
4.775478745585568 5.446797455104341 4.197365713862858
4.775478745585568 6.990017684833123 6.564207201724949
4.775478745585568 4.383350550771285 0.03257791366107311
4.775478745585568 5.103334596782253 1.960074206124384
4.775478745585568 9.652896477139517 4.4910252687190235
4.775478745585568 8.902520000074917 2.2334941612275006
4.775478745585568 7.989912524389013 5.569239854954971
4.775478745585568 2.301042753414017 8.200027072440147
4.775478745585568 3.915410568848269 3.486747345867982
4.775478745585568 3.166061655266901 3.109118088432108
4.775478745585568 5.878423349765084 0.7262286799532238
4.775478745585568 4.598506226397769 4.9490964195236105
4.775478745585568 0.45686592716772867 9.719211704168844
4.775478745585568 3.0601672432010463 1.1714520625449647
4.775478745585568 0.8069366338288956 3.0315866751468845
4.775478745585568 0.5056999583931614 8.793669601242451
4.775478745585568 6.7751906810651095 9.45623794381342
4.775478745585568 9.406198172430086 6.567263848963116
4.775478745585568 9.157534726978216 1.1491774410186275
4.775478745585568 6.849215651402423 4.033469955167669
4.775478745585568 6.547308997314706 8.468170569525135
4.775478745585568 6.141273596042759 8.530607612984975
4.775478745585568 1.2782461774646507 5.82764329868635
4.775478745585568 1.8763843702665537 3.619175085247082
4.775478745585568 4.329955800531744 3.969374935235177
4.775478745585568 3.562777959582852 9.46506736430599
4.775478745585568 8.537358453097497 2.8500814724149666
4.775478745585568 1.9532443577962246 6.820014151778831
4.775478745585568 4.342892103810609 5.693314091193948
4.775478745585568 9.876365101265534 1.4337198782783673
4.775478745585568 6.100472856877884 1.4612944568684298
4.775478745585568 4.705657483935509 6.890060665872102
4.775478745585568 3.9874550129538955 7.480890930803494
4.775478745585568 4.399656764848683 8.550947085337572
4.775478745585568 9.794682022679536 2.304988734921119
4.775478745585568 9.801511320767178 4.432265315445798
4.775478745585568 5.847740462612486 4.2714419121613805
4.775478745585568 7.046505668981147 9.110591785713996
4.775478745585568 4.491229285948891 2.243278019665725
4.775478745585568 6.5764009029963395 7.098701866217489
4.775478745585568 7.820233074073354 0.5748058073723475
4.775478745585568 0.3427329796635345 6.406855021041246
4.775478745585568 2.290961599505303 6.383480309126012
4.775478745585568 1.4744258066905334 1.1498728087219878
4.775478745585568 8.932812305168321 1.4237859914254056
4.775478745585568 8.39709574201212 8.917381636280602
4.775478745585568 0.9659869800097176 1.820605784202379
4.775478745585568 8.260323817336944 5.343383004236507
4.775478745585568 4.2365606709290455 1.5673811955274215
4.775478745585568 1.1358627802811128 1.0729421705358957
4.775478745585568 9.547385959059303 6.661216663108784
4.775478745585568 4.946132894914976 8.846541777836205
4.775478745585568 3.85634569679049 0.4627636173115397
4.775478745585568 0.39968900726367707 3.8742853857194453
4.775478745585568 2.671113796531958 7.943026128557476
4.775478745585568 5.342590996185692 7.475336143693995
4.775478745585568 3.489697654488682 5.874940872700484
4.775478745585568 9.703365629810538 3.6113717970180255
4.775478745585568 7.167840699118782 3.6369895902750256
4.775478745585568 4.270131301541841 7.14265950277381
4.775478745585568 1.378786966888437 4.044776938365946
4.775478745585568 4.172892915890317 5.334132986490315
4.775478745585568 2.526097276407052 4.081716687487414
4.775478745585568 8.495438064718915 8.646915256902492
4.775478745585568 8.033002310106998 6.13638371197981
4.775478745585568 8.74386394785609 4.209195074469513
4.775478745585568 6.35172196078655 2.516892639390828
4.775478745585568 9.483889304195364 8.216278075135769
4.775478745585568 0.47522166427274404 6.474113032902743
4.775478745585568 2.5665583365402966 2.0182487567790184
4.775478745585568 4.526989094204815 6.758601559835622
4.775478745585568 5.250049415236334 5.889105033883353
4.775478745585568 3.471502272391825 1.333781049942042
4.775478745585568 2.934718696817659 4.007681207459024
4.775478745585568 0.6920262664359317 8.243328802914338
4.775478745585568 5.228752323316573 4.806655158388304
4.775478745585568 0.9391931619456171 6.314578592009113
4.775478745585568 4.984935992136845 4.28974793584565
4.775478745585568 2.027720598568856 4.785635702732547
4.775478745585568 1.7199102910440422 7.72843298412891
4.775478745585568 2.217590773201743 4.107984898587253
4.775478745585568 3.458101982079531 6.25442669119278
4.775478745585568 8.168610765824493 5.420167861243147
4.775478745585568 5.121676013454868 1.5017686487182496
4.775478745585568 5.549246177899742 4.9839133250457435
4.775478745585568 4.834135339498691 7.348765482833224
4.775478745585568 9.02476044160094 4.458496773774172
4.775478745585568 6.5211329522162025 4.482536287485195
4.775478745585568 7.272901897897217 0.15686016508309852
4.775478745585568 1.5198033541286913 9.11691088035792
4.775478745585568 4.707949140208984 6.893305866691109
4.775478745585568 7.189114739559562 1.8284672257867944
4.775478745585568 6.9990860444144225 0.29118356024091474
4.775478745585568 4.560101103371126 6.165889907588636
4.775478745585568 7.064178427878102 3.593251147050151
4.775478745585568 1.230296235599038 1.8150509609393923
4.775478745585568 4.645060815246911 7.650479436010479
4.775478745585568 1.3119828275845802 7.476677297927625
4.775478745585568 6.546471398847211 7.453631328111731
4.775478745585568 9.474556797267788 7.756790810927032
4.775478745585568 8.828133677635671 7.5009359149892365
4.775478745585568 5.428634244157281 9.235661179123765
4.775478745585568 6.921265922240306 4.515545559095958
4.775478745585568 7.600956959549675 2.587649209365778
4.775478745585568 3.7021827104907836 4.292749021139915
4.775478745585568 9.876539103843138 1.4338961874963723
4.775478745585568 6.043754621270736 1.7895189147469348
4.775478745585568 5.648702414178454 4.234504641680943
4.775478745585568 4.707500886276543 6.891169246479551
4.775478745585568 4.525270665686166 6.789284638483545
4.775478745585568 3.4412207563382027 9.518559966880103
4.775478745585568 5.416321496139483 1.281356461088945
4.775478745585568 9.63662574614994 3.475328568980832
4.775478745585568 8.4376797463803 9.014945809908731
4.775478745585568 4.518958960519787 2.2314537652300563
4.775478745585568 4.935498972166453 0.46418380454268293
4.775478745585568 7.745080221724964 3.884998356518993
4.775478745585568 6.84722384004729 4.08444738602323
4.775478745585568 8.722713403188157 0.49801632130164875
4.775478745585568 2.8297718985390037 7.829457423544166
4.775478745585568 6.180786334238694 9.238234294820984
4.775478745585568 3.2759394819449508 2.7104611293915757
4.775478745585568 7.312478430929972 1.282226687464374
4.775478745585568 6.842690953517969 2.189905594442728
4.775478745585568 6.106865268725167 7.513457358181547
4.775478745585568 4.3944117393296445 2.6924236727379993
4.775478745585568 9.310172927685334 5.014633237262216
4.775478745585568 5.999515046883249 7.4923922333868065
4.775478745585568 5.207185440052961 3.4187290448099192
4.775478745585568 2.7995725349186817 7.571920472178841
4.775478745585568 5.861157853568472 8.046518208912307
4.775478745585568 4.334440788203952 9.244992729440634
4.775478745585568 0.2529003147425572 9.554806031935291
4.775478745585568 1.8081533447449936 6.860769536797089
4.775478745585568 3.4360569447469955 9.383008204018461
4.775478745585568 6.646267246594293 6.258726280195304
4.775478745585568 0.20312833407425945 9.5144500901835
4.775478745585568 2.7204158954224136 7.167633740968179
4.775478745585568 8.79328470434727 5.6984473061140735
4.775478745585568 0.930702668911042 1.7431004397426122
4.775478745585568 8.01278008418875 6.062871648656062
4.775478745585568 1.855383334962947 8.074239700890873
4.775478745585568 4.545080022913978 8.321441011175366
4.775478745585568 3.3711612069866397 8.59852020987369
4.775478745585568 6.113739747241974 4.521147314861457
4.775478745585568 8.274794438647113 4.600321929909397
4.775478745585568 6.633002345981666 5.796786003698457
4.775478745585568 3.7430415122844143 8.455240852731672
4.775478745585568 5.2783396748567455 9.086463520893966
4.775478745585568 0.3966631972692609 3.9307860243355743
4.775478745585568 6.7741485254538745 6.322684429786309
4.775478745585568 4.688302651694589 8.856545343515373
4.775478745585568 2.1043199245991477 5.04917063629334
4.775478745585568 9.110199544962098 9.424581677456997
4.775478745585568 8.394332622107026 5.443179034008391
4.775478745585568 8.874131768052436 6.253786409555864
4.775478745585568 8.836545449739702 5.988571934269993
4.775478745585568 8.483403946050352 6.393826294198089
4.775478745585568 4.592507165934629 8.85639632697553
4.775478745585568 7.546410222735427 1.9637167225890284
4.775478745585568 1.837662047334573 3.231741149174577
4.775478745585568 7.267239948310504 1.7763990551275672
4.775478745585568 7.917284925258227 7.452367142053894
4.775478745585568 4.671803431706362 6.931371534484802
4.775478745585568 3.7570367211019327 1.9814940919365562
4.775478745585568 3.0600604857033855 0.6584800210758743
4.775478745585568 6.265316794483295 2.6033756808179813
4.775478745585568 8.849396379213832 0.5637618134948924
4.775478745585568 9.305779670418858 5.454157133052509
4.775478745585568 0.7099830829551369 8.342975764493362
4.775478745585568 7.746270552588025 3.888116965650764
4.775478745585568 5.693722153395153 6.520676397970564
4.775478745585568 1.7453350967856442 1.2907132042388445
4.775478745585568 2.3892191256625623 6.210243148791594
4.775478745585568 5.50428905629676 5.049390601803255
4.775478745585568 4.915886236891454 6.742074678514213
4.775478745585568 5.9617314912931745 1.345116886333384
4.775478745585568 0.836173600669918 7.592316972204259
4.775478745585568 7.069544816298379 0.24422013214096672
4.775478745585568 1.6751987806536164 4.5674355355914935
4.775478745585568 6.692979214539058 0.316372999572247
4.775478745585568 7.593682025051883 0.3263120669228674
4.775478745585568 5.857969508124421 0.8145040016265632
4.775478745585568 9.571960507486775 7.565506550363467
4.775478745585568 1.2172594115838322 5.477637284242651
4.775478745585568 9.328103642467983 4.618757891173878
4.775478745585568 5.438509681363212 2.580995013918425
4.775478745585568 4.5080416583714955 6.796337704755446
4.775478745585568 0.2717710596104227 5.43690930619105
4.775478745585568 1.4456982712620248 9.278885883164715
4.775478745585568 4.646718961522692 3.6508257138847156
4.775478745585568 3.3457987227161876 8.028249769110001
4.775478745585568 3.204926505824192 2.3614131355883146
4.775478745585568 3.4185661708119746 8.245399632669658
4.775478745585568 8.738789242213258 4.037796182483624
4.775478745585568 7.73796886304615 7.771813978042846
4.775478745585568 5.203655760886224 8.487148388820852
4.775478745585568 5.450166371394125 4.199977164625276
4.775478745585568 9.051564402667239 7.4436922815137
4.775478745585568 4.8243908888751665 7.435616810573717
4.775478745585568 1.0092611105288398 5.261461280639279
4.775478745585568 4.969922725724609 1.2889446779243678
4.775478745585568 6.957846361265112 6.522243861505701
4.775478745585568 9.475895540379852 7.064810833969212
4.775478745585568 6.853437662359938 5.55961879567533
4.775478745585568 1.1637372584620458 4.353022378092172
4.775478745585568 1.560079985732772 1.584507379930363
4.775478745585568 2.1390573747789303 4.308469196959132
4.775478745585568 6.984512239747047 9.2207734561104
4.775478745585568 3.8949897562104896 0.8538934730592562
4.775478745585568 5.851323446181953 4.257145907252816
4.775478745585568 1.971183429559218 3.478986098857044
4.775478745585568 3.262440978688793 5.723723018663958
4.775478745585568 6.972583967179855 1.2526727762270098
4.775478745585568 3.2873336515501617 9.728957364907139
4.775478745585568 6.4089341892259055 2.4623789038922883
4.775478745585568 5.389455764228317 3.1422953014964237
4.775478745585568 1.3723994039055512 0.7298315167788592
4.775478745585568 5.080509170661874 8.84397337350922
4.775478745585568 7.908084081399948 4.423872883476012
4.775478745585568 8.341571352014508 9.583072920835956
4.775478745585568 1.812520231748373 3.148859763569917
4.775478745585568 7.353946301764493 8.972546284338973
4.775478745585568 6.056521258336419 7.129429575421704
4.775478745585568 8.598120975459866 6.466081080958633
4.775478745585568 7.918133999864256 5.742937404421301
4.775478745585568 1.8506424628432208 2.785086751372242
4.775478745585568 0.6301368391747405 7.302164744479025
4.775478745585568 8.369769681047883 0.5443369177486526
4.775478745585568 3.259065514290222 2.393280236524118
4.775478745585568 7.155050966447799 4.672336642305872
4.775478745585568 8.855885261194707 5.741527327672709
4.775478745585568 2.8779696081919406 6.553907090691583
4.775478745585568 6.051788067094048 9.03119215956666
4.775478745585568 7.748982304903699 1.178771917328597
4.775478745585568 6.129789859407792 2.27970767851078
4.775478745585568 7.746201650158342 3.8854829538561155
4.775478745585568 8.41358853329371 9.348451780337225
4.775478745585568 9.468044233980365 4.5634414317898715
4.775478745585568 6.334037169674288 6.4781595464759585
4.775478745585568 5.831204413498181 7.5318868393712135
4.775478745585568 3.6298835677147845 1.2904262184610262
4.775478745585568 6.1030011893465685 6.767693501587608
4.775478745585568 0.5940207999819996 7.35222148750561
4.775478745585568 1.3040313241310921 8.683422036079037
4.775478745585568 0.7465327059445857 4.178819529067008
4.775478745585568 3.975567689783661 7.02272532631944
4.775478745585568 4.042301740997983 7.50423300928249
4.775478745585568 2.2459452638535704 3.1433818512269287
4.775478745585568 5.973329713554276 4.541658773091989
4.775478745585568 8.085005799032617 3.377519136298507
4.775478745585568 1.3336298750233595 5.599121596172788
4.775478745585568 3.9142523560174585 4.942964893562305
4.775478745585568 2.9763217871567393 7.889781494786685
4.775478745585568 5.956836625164732 8.341582869792704
4.775478745585568 1.4351104325783617 1.8033341623540942
4.775478745585568 5.514611778354035 5.364035646843598
4.775478745585568 6.1286952646336905 6.878229532064204
4.775478745585568 9.341873608134513 9.415476838310944
4.775478745585568 0.6954187177343093 7.756882889600701
4.775478745585568 6.52260373856302 7.4643014862399015
4.775478745585568 3.642425798585626 1.6625505697275387
4.775478745585568 6.612537196846128 9.505378102043375
4.775478745585568 6.223006886868162 5.494755331952789
4.775478745585568 1.5716561550138044 0.36100554805016233
4.775478745585568 6.574533476344872 1.340324054093692
4.775478745585568 0.5539759158371079 0.9773837991524519
4.775478745585568 6.866092575587342 3.7506213282222314
4.775478745585568 1.7605434397063373 0.4969729455848475
4.775478745585568 9.85124301052619 4.290182339069014
4.775478745585568 7.809884270497384 9.23614741547721
4.775478745585568 5.4578172860540155 8.366058930851487
4.775478745585568 7.112923781897221 3.214414392763713
4.775478745585568 7.026033211517515 8.209060454573882
4.775478745585568 8.147448155992207 8.8744350415975
4.775478745585568 1.4263143860185756 6.418823605651956
4.775478745585568 5.671312848233256 8.283968812586348
4.775478745585568 9.30766597248288 7.378807474936817
4.775478745585568 2.488925957075437 1.7183765962796653
4.775478745585568 3.647437637120908 7.767480954898814
4.775478745585568 1.4865267657166308 6.477981900093668
4.775478745585568 9.842455711644863 1.872545032016497
4.775478745585568 2.4632048083647873 2.012596773058926
4.775478745585568 3.7784791761933563 1.193482509633432
4.775478745585568 7.155013288579493 4.6724085863198175
4.775478745585568 4.312181955634111 3.081142912010864
4.775478745585568 5.1144719260867895 4.397964557482853
4.775478745585568 0.44863247586179406 7.649689335880234
4.775478745585568 2.065019656303131 4.440542124272161
4.775478745585568 3.425715395953023 6.600905202448221
4.775478745585568 1.766292509572253 7.0737667227837475
4.775478745585568 7.440303614961952 8.981179786521244
4.775478745585568 2.101531044905802 3.9290164212272396
4.775478745585568 5.602786809482375 9.301717646219126
4.775478745585568 5.813073392085275 7.549387010403215
4.775478745585568 6.125240516678763 2.9108369740914757
4.775478745585568 3.9773086467460077 7.050846728123847
4.775478745585568 4.068746280079721 1.9870756324228638
4.775478745585568 5.992071711596934 2.146802728272975
4.775478745585568 1.1152258364643348 4.370633306107416
4.775478745585568 0.5135477631384061 9.768544271384346
4.775478745585568 6.386890868030269 7.513629500293979
4.775478745585568 8.7388918532295 8.262533639348689
4.775478745585568 5.888069436973872 7.47932711600628
4.775478745585568 7.6130211537560575 2.335562470508565
4.775478745585568 0.5698353433711427 6.517201710929379
4.775478745585568 7.924105396182656 1.6379185759153638
4.775478745585568 1.816462670154623 9.110346506866783
4.775478745585568 9.666959543631755 9.049239806329435
4.775478745585568 5.064333158724984 4.698636441865397
4.775478745585568 6.119780200946526 8.701738277477983
4.775478745585568 5.154154724228072 8.640913935927824
4.775478745585568 0.9148816554832577 7.501415199784938
4.775478745585568 1.7458320159691951 1.2924045340141113
4.775478745585568 1.2882759991486157 7.47688496024745
4.775478745585568 7.936611393001032 3.6955599222909377
4.775478745585568 2.6910954606866344 9.839404250213391
4.775478745585568 8.574361197766537 7.226856802121068
4.775478745585568 2.7339288113094233 5.215200428134418
4.775478745585568 9.41868991751139 7.3500245866656
4.775478745585568 5.445752342546 4.200562235562465
4.775478745585568 2.5055791083654366 1.982221525027407
4.775478745585568 4.268246384051457 2.095835193682836
4.775478745585568 6.813687436817464 0.38030199069564996
4.775478745585568 2.3056247841307878 9.496401817049906
4.775478745585568 7.487118122091156 4.290689734538946
4.775478745585568 3.936023907024773 1.096554134342215
4.775478745585568 2.274092787125169 9.11286538691085
4.775478745585568 6.016523148099041 2.1676354012704255
4.775478745585568 6.035778347600375 7.761343943225709
4.775478745585568 4.172171887276789 1.7273289370339826
4.775478745585568 7.586304404916239 1.7310297753524537
4.775478745585568 3.8836420863558847 3.290371662159819
4.775478745585568 9.08784834059243 2.3362673658375415
4.775478745585568 4.006935336289742 7.010117244012922
4.775478745585568 6.609635678016223 6.1476133439712966
4.775478745585568 8.989025848599296 5.658589231785063
4.775478745585568 0.16976928800783903 6.008905450946109
4.775478745585568 2.76249906596734 1.4833045063810317
4.775478745585568 2.3674750203883184 8.559214354219229
4.775478745585568 5.729851495420113 4.97373095731484
4.775478745585568 5.884790794083484 5.30726536453982
4.775478745585568 0.7544105338475138 8.588111581307148
4.775478745585568 9.516604115502457 1.2493048039964132
4.775478745585568 7.867781734293098 4.236445054816921
4.775478745585568 5.28188212012082 7.469937679458976
4.775478745585568 7.509648083679894 7.806937144559815
4.775478745585568 6.184613157593967 6.619197078524976
4.775478745585568 6.3380801579011345 2.4198863198307348
4.775478745585568 1.8218811194584563 0.5444417045116364
4.775478745585568 5.954230212549692 9.183928204193094
4.775478745585568 4.4964313952702515 8.996628084934493
4.775478745585568 7.668986101183744 6.9692724113401185
4.775478745585568 0.17892857962704883 6.065765602530067
4.775478745585568 9.380314842076235 7.96772161356913
4.775478745585568 5.376486982457397 6.388875734722692
4.775478745585568 1.417075090139168 8.910079284255431
4.775478745585568 2.528217744080061 9.836951031113694
4.775478745585568 2.282208276355452 0.46702056821081667
4.775478745585568 8.041039474046121 9.572042074074465
4.775478745585568 1.057930641002218 4.562899325386763
4.775478745585568 1.7658801897953835 7.8350829563312665
4.775478745585568 5.770277428788322 1.177203228500749
4.775478745585568 0.41066406871791156 3.4409470171013945
4.775478745585568 2.3885500731658658 1.6620122347030448
4.775478745585568 7.481766440061593 2.6448160104507155
4.775478745585568 2.0723938738068375 2.262162231486786
4.775478745585568 7.836725596213708 0.9335019711439845
4.775478745585568 7.155018869631647 4.672415536370607
4.775478745585568 7.9175885734884 8.840840629893904
4.775478745585568 6.533339776152729 8.467655549293415
4.775478745585568 5.134997701067261 2.1610373640660647
4.775478745585568 8.149090166950145 8.874808783777931
4.775478745585568 9.837915209341384 4.335263397837982
4.775478745585568 3.465325282565549 6.192373651844808
4.775478745585568 2.7851089839424303 2.141420899203885
4.775478745585568 1.7286723891594784 1.31930387665004
4.775478745585568 6.0420397337237635 9.15020199805905
4.775478745585568 0.6565992071710541 1.397895356114116
4.775478745585568 3.7322335274704255 6.8343777791445675
4.775478745585568 9.213193996722808 1.1379728560245153
4.775478745585568 3.1884730277407494 4.203197667158901
4.775478745585568 5.189540293248241 4.3533143668796415
4.775478745585568 3.2695548275998036 0.43671430755840845
4.775478745585568 3.5446215165674806 4.541310013009558
4.775478745585568 9.728199681219799 8.917147613230433
4.775478745585568 4.937228833688275 1.0057848042682134
4.775478745585568 6.8141947656140776 4.442127206638445
4.775478745585568 1.660523132264213 3.6365372346193365
4.775478745585568 1.8830411463424557 0.9707840631945839
4.775478745585568 3.6005296665633657 6.735222999415491
4.775478745585568 7.866043410932723 8.005442678772564
4.775478745585568 7.9200423044304555 1.6413068325421476
4.775478745585568 6.385959614359672 3.714025263982865
4.775478745585568 3.3979925832173246 8.184511039688552
4.775478745585568 1.0951542071502824 8.653634828196056
4.775478745585568 8.044475653271425 4.500975647824299
4.775478745585568 6.077607657642289 3.0242510570567047
4.775478745585568 1.6914010417572793 8.252427884291127
4.775478745585568 1.8443482645533438 2.2113246699450193
4.775478745585568 0.7560128945000507 1.0577958422382883
4.775478745585568 4.026859467994413 3.2227472704520177
4.775478745585568 8.996094294859047 0.7975165628374246
4.775478745585568 2.884317764202267 9.839423013434384
4.775478745585568 4.630918087877745 7.946118965015909
4.775478745585568 4.547470094268526 1.3529529979704757
4.775478745585568 4.718054209734807 1.728390898483976
4.775478745585568 9.068390585801644 5.610268124407947
4.775478745585568 5.600557428406201 2.286395817598371
4.775478745585568 8.740687022945949 7.443550375924668
4.775478745585568 0.478629243922585 3.186300145228522
4.775478745585568 9.876048509449504 1.433298897400737
4.775478745585568 2.4399815786273797 8.923835809131603
4.775478745585568 8.619682355836035 7.3536501853745495
4.775478745585568 0.21463803382096913 9.027394963021106
4.775478745585568 1.664871396138058 5.498857179389567
4.775478745585568 4.716540903145614 1.7359071879330137
4.775478745585568 6.670481732516766 9.488032117739419
4.775478745585568 2.957994644964187 8.907829703912789
4.775478745585568 9.043223010456703 8.117341531581687
4.775478745585568 3.326017359201418 1.2756232788655861
4.775478745585568 1.1356210886623885 4.3624533828972
4.775478745585568 7.246251121938625 1.7693628225666151
4.775478745585568 2.931178110118297 6.863472024792871
4.775478745585568 1.8495707813113438 0.561049972752956
4.775478745585568 4.881379642895985 8.276229027869125
4.775478745585568 4.2114779930036725 3.1234192604131894
4.775478745585568 0.21386499609327567 9.076582442327098
4.775478745585568 4.332867578685724 1.3367806690613322
4.775478745585568 1.9943125477345875 5.440831105152027
4.775478745585568 0.15785981241829736 5.966084021000444
4.775478745585568 6.478170142884065 0.19073841998279006
4.775478745585568 7.155044350141469 4.672405965592347
4.775478745585568 0.569599196667416 7.760550359108108
4.775478745585568 3.7492922507628217 5.733763769517234
4.775478745585568 3.5189971439097776 3.122446702359409
4.775478745585568 8.060028929237294 3.578823516371646
4.775478745585568 7.923461410163612 1.638488776798973
4.775478745585568 5.820227020238983 8.203695609174147
4.775478745585568 6.8304432605050485 2.5632467649295245
4.775478745585568 5.217576318651999 3.4244378300936287
4.775478745585568 7.304130206610666 6.608868639354552
4.775478745585568 0.8625002059704603 6.3541699086640735
4.775478745585568 5.844943892847626 4.264640151116339
4.775478745585568 0.6709223533688781 2.4025323329035984
4.775478745585568 5.279078942007201 2.2593596093117365
4.775478745585568 1.4892363203087837 8.479999107188194
4.775478745585568 4.94371218258416 0.8208810219974201
4.775478745585568 8.830337029923967 2.5423527013795413
4.775478745585568 7.7327721665387275 2.6832511677538506
4.775478745585568 3.9744893063271802 3.779481518030287
4.775478745585568 0.8723845856247914 1.3796296376672619
4.775478745585568 7.890373474837063 5.649678126960127
4.775478745585568 9.445196069474331 9.307133393890867
4.775478745585568 2.752176651869393 5.3974728731527435
4.775478745585568 9.363679268123184 2.3458657691268034
4.775478745585568 9.30336019454324 8.135536308484687
4.775478745585568 3.192085229756719 7.972428835042333
4.775478745585568 5.086706856573687 4.538830419037407
4.775478745585568 7.746174731361688 3.8860448256447473
4.775478745585568 8.146870592336128 2.9627696448607774
4.775478745585568 9.174782273262002 4.542176348526437
4.775478745585568 7.793936871049659 7.6701627393467415
4.775478745585568 1.8986865095873782 2.7302070222384303
4.775478745585568 9.585153899619888 2.3221615743364077
4.775478745585568 8.37862192447123 3.709171287709408
4.775478745585568 6.004808673611167 2.0616047227688123
4.775478745585568 1.977461108173006 4.662218045500408
4.775478745585568 1.5206006500839886 5.539960510789781
4.775478745585568 1.5695498835657578 1.5661450638919059
4.775478745585568 6.405091182750174 7.010682822356885
4.775478745585568 7.9672824622087095 8.542351516521515
4.775478745585568 3.354839252687341 4.322070202066488
4.775478745585568 3.0363232143714054 0.6752805160412548
4.775478745585568 1.305968131422761 9.590475421635025
4.775478745585568 1.976921000391352 5.362950233794554
4.775478745585568 7.412954591334826 0.1022583458608099
4.775478745585568 2.572028142838922 1.6495466786976738
4.775478745585568 4.450142560408139 2.217790476618245
4.775478745585568 5.739081589246622 4.973759268258984
4.775478745585568 4.169438880243368 5.3665604143786485
4.775478745585568 2.0770858442640505 1.5013391788793216
4.775478745585568 8.853609507387866 9.418298963259495
4.775478745585568 4.710958227837661 6.888613085328937
4.775478745585568 6.162817686353586 0.31094264038430774
4.775478745585568 2.712775038579397 0.5831078795455916
4.775478745585568 7.863886628602195 9.563068982021734
4.775478745585568 6.879262206754581 0.7989703749451097
4.775478745585568 1.1163994054952802 3.058980225628593
4.775478745585568 0.4519872522710695 5.170000155013493
4.775478745585568 4.3945453366924205 2.6920194666886132
4.775478745585568 8.320963254849358 1.691152684694329
4.775478745585568 6.202912376041402 2.5015385902312057
4.775478745585568 2.723619843067495 5.418174369933896
4.775478745585568 2.006596117381699 8.117677783100065
4.775478745585568 5.6254494955226155 5.440322930205119
4.775478745585568 8.01617754066592 6.113769261331333
4.775478745585568 5.447411207131824 4.199502551685352
POLYGONS 100 1808
10 509 685 622 676 212 209 65 711 683 506
21 312 447 576 301 219 110 324 303 237 494 439 61 176 651 755 417 386 620 567 843 468
15 677 779 10 75 346 274 568 197 790 188 680 710 617 874 548
6 118 517 532 43 63 717
17 284 524 205 415 133 529 59 575 776 573 87 661 414 629 100 227 786
16 130 734 14 379 40 273 257 120 183 606 539 446 159 310 255 95
18 120 183 606 196 252 537 207 399 432 181 585 701 659 580 482 791 795 699
23 132 473 804 145 203 333 595 349 281 647 243 412 367 488 848 680 710 617 730 597 173 291 505
13 509 685 605 639 193 852 421 164 221 480 642 683 506
17 293 614 90 555 332 20 93 875 836 58 594 438 756 463 671 225 17
20 477 637 588 851 758 695 554 27 336 425 248 70 431 53 177 833 214 521 428 190
21 523 876 175 389 35 436 501 511 23 519 166 253 361 199 409 334 672 170 236 461 743
19 470 858 563 422 238 92 749 616 270 504 333 595 349 128 73 869 705 474 560
19 375 609 134 167 694 696 479 236 170 672 515 91 662 657 307 458 824 687 376
15 333 504 270 616 285 218 688 819 774 713 147 543 804 145 203
22 321 378 457 691 150 840 668 764 702 879 579 489 198 825 418 158 631 106 135 861 722 466
12 609 625 305 320 669 815 99 641 559 694 167 134
20 227 786 284 807 13 578 653 658 820 512 65 209 212 676 323 437 727 46 581 478
20 254 434 241 591 708 283 810 787 96 81 366 768 829 41 497 245 292 326 384 104
20 149 300 278 429 536 520 613 718 789 189 550 80 508 224 567 843 468 312 116 527
6 713 774 348 155 541 147
20 462 589 670 849 460 269 2 69 119 24 79 26 766 146 338 854 763 455 316 444
6 334 672 515 91 148 409
18 855 867 369 740 202 77 771 27 554 695 863 746 660 859 720 38 395 287
10 53 177 833 214 760 6 54 271 648 782
16 758 851 588 637 299 781 247 748 664 703 121 294 660 746 863 695
18 436 501 635 839 573 776 575 59 525 7 30 800 230 794 363 721 389 35
17 110 324 141 229 1 140 408 842 157 72 632 818 847 36 235 301 219
15 158 631 526 469 769 499 401 649 268 775 127 89 592 825 418
20 683 711 65 512 820 636 12 403 282 752 402 19 655 55 337 251 161 123 480 642
15 20 93 875 836 21 700 119 69 2 269 534 857 156 811 290
17 316 444 462 674 341 308 5 593 105 630 233 222 322 138 171 129 455
21 463 671 772 761 220 628 716 569 491 452 374 475 112 213 410 174 256 356 816 438 756
20 660 859 720 38 232 802 454 328 643 302 546 266 187 611 574 757 451 703 121 294
23 130 734 14 379 544 844 577 728 179 337 251 161 123 480 221 164 421 344 350 383 823 153 95
21 222 322 370 391 204 296 503 611 574 757 451 703 664 748 247 117 845 275 206 630 233
18 367 412 558 260 744 66 493 371 465 385 753 827 197 790 188 680 848 488
22 197 568 274 346 598 184 88 510 360 353 311 71 667 507 872 172 420 496 354 234 753 827
18 523 743 461 236 479 696 694 559 641 99 456 551 724 131 777 626 828 780
13 5 593 542 603 115 276 45 76 11 373 770 405 308
19 32 615 759 732 675 52 483 530 600 42 693 578 653 658 820 636 12 403 692
21 204 296 503 611 187 266 546 239 679 704 860 420 172 872 507 667 808 783 714 28 817
20 632 818 697 295 618 498 68 440 476 654 267 200 365 747 485 831 359 114 157 72
20 312 447 576 301 235 36 847 818 697 295 618 841 552 726 601 778 201 149 527 116
15 668 764 702 879 382 822 88 510 360 353 572 226 261 62 459
14 539 606 196 252 537 109 538 343 279 185 522 878 159 446
13 659 701 210 565 481 736 838 801 345 372 31 482 580
17 523 876 175 389 721 363 794 48 709 228 689 471 738 381 626 828 780
19 19 655 55 337 179 728 577 309 773 86 853 751 352 364 673 604 126 143 124
23 414 661 87 573 839 635 501 511 23 519 3 805 293 17 225 671 772 761 220 628 678 286 22
21 20 332 555 424 215 361 199 409 148 91 662 657 307 259 404 633 850 797 156 811 290
14 81 366 583 83 371 465 385 753 234 354 798 9 788 96
21 321 378 457 691 340 314 393 94 443 862 174 410 213 112 313 191 453 351 298 638 556
22 118 717 63 528 125 330 162 645 723 78 877 298 351 453 242 34 737 553 144 339 729 621
20 677 779 331 113 127 775 268 649 108 476 654 267 200 347 821 291 173 597 448 548
16 401 649 108 476 440 68 498 618 841 552 707 612 64 484 769 499
19 10 75 346 598 184 88 822 382 879 579 489 198 825 592 89 127 113 331 779
14 100 227 478 581 46 467 15 545 306 441 286 22 414 629
12 27 771 77 806 731 650 646 599 70 248 425 336
21 622 676 323 437 727 46 467 15 472 490 865 557 317 737 553 144 339 624 639 605 685
16 16 765 547 98 194 802 454 328 623 665 708 591 241 434 107 33
16 352 751 656 754 427 495 101 619 139 602 741 868 216 652 325 364
15 118 517 532 584 383 350 344 421 852 193 639 624 339 729 621
22 43 63 528 125 586 249 84 169 182 834 607 522 878 159 310 255 95 153 823 383 584 532
19 725 762 82 400 426 244 277 280 387 103 715 837 846 416 217 663 487 411 793
12 321 556 638 298 877 78 723 272 358 861 722 466
10 51 855 287 395 38 232 802 194 98 547
10 8 240 151 86 853 751 656 754 427 445
17 132 473 804 543 147 541 155 686 329 485 747 365 200 347 821 291 505
22 423 450 687 824 458 307 259 404 633 566 582 304 165 289 871 264 570 355 812 719 735 56
21 368 500 549 784 47 400 426 244 277 85 873 250 688 218 285 616 749 92 238 246 610
10 601 726 552 707 612 64 666 750 814 18
18 149 300 278 429 464 388 834 182 169 84 263 50 750 814 18 601 778 201
20 269 534 857 156 797 850 633 566 582 304 74 211 742 681 803 587 357 561 849 460
14 491 569 716 628 678 286 441 306 545 15 472 490 413 160
19 698 785 362 596 492 208 516 4 30 800 230 794 48 709 44 706 163 122 739
23 125 330 162 645 723 272 358 861 135 106 631 526 469 769 484 64 666 750 50 263 84 249 586
10 105 593 542 603 115 608 845 275 206 630
19 398 799 644 195 502 759 615 32 692 403 282 752 402 19 124 143 126 419 590
14 520 613 342 538 343 279 185 522 607 834 388 464 429 536
23 146 766 26 0 102 634 94 393 314 340 691 150 840 668 459 62 261 406 318 37 380 486 338
14 787 810 430 712 679 704 860 420 496 354 798 9 788 96
20 45 76 11 373 319 442 587 803 681 288 627 531 435 745 152 29 792 396 315 870
15 311 353 572 226 261 406 318 37 832 390 714 783 808 667 71
18 59 529 133 415 327 154 540 733 513 377 136 407 208 516 4 30 7 525
6 120 257 273 265 795 699
6 548 874 617 730 597 448
21 67 562 705 869 73 128 349 281 647 243 412 558 260 744 564 25 392 97 866 142 813
15 284 524 205 415 327 154 540 533 433 600 42 693 578 13 807
19 477 637 299 781 247 117 845 608 115 276 45 870 315 178 262 826 168 428 190
20 58 836 21 700 119 24 79 26 0 102 634 94 443 862 174 256 356 816 438 594
13 328 643 302 546 239 679 712 430 810 283 708 665 623
19 455 763 854 338 486 380 37 832 390 714 28 817 204 391 370 322 138 171 129
24 471 571 856 111 335 297 258 682 394 514 518 39 180 809 796 192 223 397 724 131 777 626 381 738
12 293 614 90 555 424 215 361 253 166 519 3 805
20 535 640 835 690 767 137 49 449 57 838 801 345 684 8 445 427 495 101 60 864
15 462 589 670 849 561 357 587 442 319 373 770 405 308 341 674
20 40 273 265 795 791 482 31 372 345 684 8 240 151 86 773 309 577 844 544 379
25 186 231 830 103 387 280 277 85 873 250 688 819 774 348 155 686 329 485 831 359 114 157 842 408 140
17 374 452 491 160 413 490 865 557 317 737 34 242 453 191 313 112 475
CELL_DATA 100
SCALARS cell_scalars double 1
LOOKUP_TABLE default
0.0003915166815948723 -0.0006633199079679741 0.002099928209144508 0.0058933103657263786 -0.00041228890611400004 -0.0004442013948073864 -0.0002978901826624636 0.0010099504354039723 0.0001026057807935743 -0.003878345260829974 -0.0004648329363288184 -0.0005150986500979116 -7.260476491488532e-05 -0.0003591349228289076 -0.001270456159429223 0.015914980382428112 -0.00018784727283538416 -0.00127489949079429 7.323707195361351e-06 -0.00071170151084754 -0.0008712744973777831 0.009338205390740484 -0.00014300894494656546 -0.00038407145258290143 1.4520065914958025e-05 -2.643193820350831e-05 0.0005177711652688544 -0.0010855691903746134 0.052472030964497485 -0.0005270691405563355 0.0015749238418161227 -0.0015817574058196726 0.0024036155876832055 -8.635051638261615e-05 0.00016492703314163748 0.00210483641599879 -0.001106593335192585 0.0010190393697300237 0.0001765111780560602 -0.0014218695732202136 -0.00020957454330705616 -0.001123625958378227 0.0022750492964673796 -0.0019237925641615305 0.0496487135411261 0.00020807309575854305 -0.0005488713286716518 -0.00016340354832955484 -7.396179206509146e-05 0.0013059584101613453 -0.0007800103552657589 0.00013772167084358244 0.0274252731250888 -3.6085636144100874e-05 -0.00264604350151032 0.0024048120977235854 0.06672756286987092 0.0006371768541217904 -0.0001904019482203978 -0.002172325075383341 9.521573774229353e-05 -0.000123483025100235 -0.0005903215652649507 0.004828904747579799 -0.0002669971975697294 0.02236878735137804 -0.00030927979738226696 -2.9241504232224713e-05 -0.0012496608157972489 -0.0005704863625419776 0.00012735711091504953 0.0026340619877958105 5.7336367696336765e-05 -0.00046972969586445146 -0.0008621361126657234 -0.00025471694100165365 0.02388499418972767 -0.00016349458196174282 -0.0002900796948832607 0.0009868140758815258 0.05695047070958381 0.00016663295132435252 -0.001205652151483605 -0.0006086385285648532 -0.0004550187110003989 -0.00040391398847905435 -0.0027256863981000024 -0.00028182109494157004 -0.00026835628898425057 -0.0003300993305446198 -0.00017088376115914627 0.00018685847247823517 0.0006971196561691428 0.00013554898435597096 -0.0011036571095077718 9.942169503407428e-05 -0.00025208233610918285 0.0005769586255155446 0.0011662879425573536 -6.348838365077825e-05