# vtk DataFile Version 2.0
Really cool data
ASCII
DATASET POLYDATA
POINTS 874 double
4.7861671525827 2.4667657307668467 1.9852921554267406
4.7861671525827 3.0298680011762062 0.6906238925205921
4.7861671525827 8.907162869534107 8.120553285870198
4.7861671525827 5.435780171343562 3.0366140134941317
4.7861671525827 3.8610018248887856 0.6623347142342529
4.7861671525827 8.239210698697246 8.365612200283575
4.7861671525827 5.341795489796427 5.768181382118792
4.7861671525827 4.555814761017667 8.797417318906533
4.7861671525827 3.052882358035379 1.155939720123077
4.7861671525827 5.8545333398243375 5.179958954763639
4.7861671525827 8.939989280374833 2.3372453657636876
4.7861671525827 8.248041111525117 4.628104549478203
4.7861671525827 2.3560190267911794 9.830400042749323
4.7861671525827 2.5458111433075192 7.087794393387354
4.7861671525827 2.330055434477626 9.641236206672207
4.7861671525827 5.81693461469991 8.208838094334444
4.7861671525827 6.153511340815789 2.577422374765142
4.7861671525827 4.526372875413329 6.796475699693076
4.7861671525827 6.812310030891916 6.374629581184174
4.7861671525827 3.475686138130409 8.406152398739325
4.7861671525827 4.473908567745305 8.426436932234092
4.7861671525827 3.442591683526719 6.255520981944495
4.7861671525827 7.161693699122455 5.223494143509518
4.7861671525827 1.8220756405711536 3.0278259002226124
4.7861671525827 3.11256634649321 0.7115963903506258
4.7861671525827 1.4881944210453546 8.485457655796854
4.7861671525827 0.904762524905351 1.3117831409383078
4.7861671525827 8.866577868526598 6.262542706113461
4.7861671525827 7.506359899355595 7.811965071393442
4.7861671525827 7.6574880796837155 3.8707035362733158
4.7861671525827 5.9006560814478135 5.325243341586791
4.7861671525827 3.2561595458935577 1.008770423591374
4.7861671525827 7.754895124590292 8.983544012829467
4.7861671525827 6.9581840755331115 4.456926748977088
4.7861671525827 8.149482942348211 8.888097714756473
4.7861671525827 1.9614066718993175 4.647025579819722
4.7861671525827 6.909001000644155 3.9144030226431337
4.7861671525827 8.378247962630658 3.7224608165403192
4.7861671525827 9.291229935325752 7.388714375905432
4.7861671525827 7.128014154486528 1.496572973939866
4.7861671525827 8.69464580307265 1.7485201933547243
4.7861671525827 9.671312955253606 9.044729013186657
4.7861671525827 4.354220988639007 1.331847727415318
4.7861671525827 4.334220945720855 5.730967151334756
4.7861671525827 8.430865707402361 9.023223660761726
4.7861671525827 8.675882801867614 2.82977952541656
4.7861671525827 4.5107886113122255 2.2203185807939585
4.7861671525827 6.9567932189234405 6.531640500837105
4.7861671525827 8.081262761856522 3.384221631947111
4.7861671525827 6.176938730820138 9.243276092663189
4.7861671525827 7.077258688928325 2.7292010056367997
4.7861671525827 7.01682139240068 3.5570211099941975
4.7861671525827 1.739296517234869 1.2793782275911008
4.7861671525827 6.022761510619273 7.760596362761681
4.7861671525827 5.015982938820191 8.34893469915958
4.7861671525827 7.825131388191166 8.930743920840596
4.7861671525827 7.82810978684019 9.351695829421402
4.7861671525827 5.096083416608082 4.941549778074078
4.7861671525827 9.30528538717448 5.020209882903281
4.7861671525827 1.4347808640722293 1.8018083857762952
4.7861671525827 6.325767464156584 3.657931955716635
4.7861671525827 4.52229207093314 6.8222360038425744
4.7861671525827 6.28446478413992 2.437705494258352
4.7861671525827 8.546613511556643 2.8537214233436936
4.7861671525827 7.9319329883448155 1.6415729747012358
4.7861671525827 4.174487709433044 3.974550594220176
4.7861671525827 5.1426406195331476 3.4329779768522544
4.7861671525827 1.0010404809395104 4.683563217717908
4.7861671525827 6.639923539002957 5.939590220619063
4.7861671525827 5.621179649164754 5.462853534826758
4.7861671525827 0.14492956260027942 5.964522681997731
4.7861671525827 7.22640349427588 1.7428720859409927
4.7861671525827 2.3710721418256253 8.559069005181028
4.7861671525827 3.260715881881001 2.7155517627210704
4.7861671525827 4.4378047247367025 3.1845157512254176
4.7861671525827 0.20722079399444263 9.041075565305423
4.7861671525827 5.972585254101208 2.2007814447795573
4.7861671525827 6.809458907463724 0.3918568784653138
4.7861671525827 5.671443199981599 3.032545216857534
4.7861671525827 0.3252498382771771 6.418001356284976
4.7861671525827 5.283735902716954 9.088206476182979
4.7861671525827 5.362145582719633 3.9309064780198995
4.7861671525827 6.519270893564958 2.4030328201277786
4.7861671525827 0.8311142443807951 7.446319514244721
4.7861671525827 2.528352302932327 4.086529016833269
4.7861671525827 8.027197877479628 6.13545813829411
4.7861671525827 4.517118039548385 3.9606888972243386
4.7861671525827 2.89515101888677 5.085966776837232
4.7861671525827 0.6996729795390892 2.5045976260470324
4.7861671525827 6.9472012473694775 6.612065171703453
4.7861671525827 8.32578681479886 8.38194140363268
4.7861671525827 6.530174415921507 8.474700257654733
4.7861671525827 7.9096248940329765 8.852668581409937
4.7861671525827 9.324790184410007 4.6229727079210905
4.7861671525827 1.8260686190858717 6.836711551924094
4.7861671525827 5.524172545676339 5.509386146128714
4.7861671525827 0.0919785105511818 5.686121769239047
4.7861671525827 7.878249584631439 0.8033922214254807
4.7861671525827 0.44749829674085206 5.173236040326244
4.7861671525827 9.538867052211742 6.6719829291530335
4.7861671525827 5.956275296664552 5.356262308619996
4.7861671525827 7.619285623582652 5.544865926590492
4.7861671525827 2.968483296170911 3.626927624235282
4.7861671525827 4.531721404278642 3.2618613960397944
4.7861671525827 1.7611845773395516 7.861775836921403
4.7861671525827 7.111604396121954 8.830054974967934
4.7861671525827 5.274533840232278 6.074436494039676
4.7861671525827 4.707315784922947 6.905439500464375
4.7861671525827 8.879112374544468 7.936759670764693
4.7861671525827 0.5402658247511374 1.1255376132961765
4.7861671525827 7.082658205070854 3.188154360913644
4.7861671525827 1.1253546256654798 4.362340571457423
4.7861671525827 8.236267697666715 4.599477154616944
4.7861671525827 7.305022141015308 1.2924440110253135
4.7861671525827 4.524334453624421 6.800481281841059
4.7861671525827 5.344298097624547 7.478962139341417
4.7861671525827 5.427979855182326 1.2968846063114214
4.7861671525827 5.16062700935545 8.64434986994544
4.7861671525827 0.38360397218961995 8.899308378930854
4.7861671525827 9.650500444208674 4.495062051750395
4.7861671525827 3.253119144719885 2.3631328933988582
4.7861671525827 1.0605485357590005 1.8100716483633472
4.7861671525827 1.3207658996987877 7.494186282729515
4.7861671525827 9.485322625318462 7.765399161307285
4.7861671525827 6.5824153671376235 6.254188257945567
4.7861671525827 7.788979870943428 7.676086477181321
4.7861671525827 8.532756960554995 7.154644824181371
4.7861671525827 2.4972754577482026 1.963445864192348
4.7861671525827 7.607244587876429 2.0244323053789612
4.7861671525827 2.4966243546193208 1.940561980778031
4.7861671525827 6.084967005604272 7.537361485735898
4.7861671525827 6.928427855716634 7.705021734294442
4.7861671525827 1.1762656306810078 5.466492517614919
4.7861671525827 0.19135352671735711 9.352490369842478
4.7861671525827 6.032176876435043 1.8144946875898502
4.7861671525827 2.708285813440793 5.218185859629273
4.7861671525827 2.7141839483152115 5.220165453297333
4.7861671525827 5.950922002683073 7.510955185051047
4.7861671525827 7.604872686811094 2.3114812512834932
4.7861671525827 5.0741737988764735 4.925122878710079
4.7861671525827 5.328442949556497 3.1813704364709983
4.7861671525827 1.585189646408556 3.6563562232280993
4.7861671525827 2.292601250787194 6.396009296415405
4.7861671525827 5.215039962215842 6.500832634461213
4.7861671525827 4.835728599444332 3.4285481164526255
4.7861671525827 7.033235028797828 1.3131511727497671
4.7861671525827 2.8899492883722857 9.840988132896403
4.7861671525827 4.6321622517338445 7.94601936174728
4.7861671525827 4.000442415330847 9.486004514956432
4.7861671525827 7.914118783474264 5.744396602538623
4.7861671525827 0.9225773158577467 1.7412143672413818
4.7861671525827 4.654867390588982 7.647602946505086
4.7861671525827 7.023564800186831 8.215242838034586
4.7861671525827 8.075414120428698 0.6460150902023785
4.7861671525827 6.670044211583176 9.496696725737406
4.7861671525827 3.376282800380177 8.597202621981262
4.7861671525827 5.967049601369691 4.080359735282075
4.7861671525827 8.402507540560155 9.355235319101105
4.7861671525827 6.0915957671944225 8.796933701421306
4.7861671525827 9.462859592005818 4.56843105553709
4.7861671525827 2.470979860385381 5.149434019018547
4.7861671525827 2.8010244532429134 7.58208908993424
4.7861671525827 8.740099609879548 4.335475757862565
4.7861671525827 6.576282623956172 7.240960709069767
4.7861671525827 2.119482904351436 5.047867242608989
4.7861671525827 4.669163571710407 8.120515951785489
4.7861671525827 3.4812426977481934 9.463404663767612
4.7861671525827 6.648079134979649 6.292387293575844
4.7861671525827 1.9136030636486296 6.844611478006378
4.7861671525827 7.436712712806853 8.988160798393197
4.7861671525827 6.097069289564047 1.4819134454956273
4.7861671525827 2.1483344483414837 8.172487192750339
4.7861671525827 3.0384725044677285 6.7118471774655974
4.7861671525827 7.1895698296228785 1.8260215925916419
4.7861671525827 7.351231021007734 8.979661140213134
4.7861671525827 9.793822882160827 2.312917195694859
4.7861671525827 3.716005408002407 5.756986790264109
4.7861671525827 8.562330994720751 1.7295248276658324
4.7861671525827 6.635358660578373 5.795512137569423
4.7861671525827 8.013176170119756 6.083726285726206
4.7861671525827 4.691438583031738 6.880145021468829
4.7861671525827 7.12203815085718 2.9360369008107443
4.7861671525827 0.6869461325872005 8.255746656179582
4.7861671525827 1.8805222067793164 2.7454933686239165
4.7861671525827 4.894247074214525 6.747838433822821
4.7861671525827 8.050418641673023 7.406642529878865
4.7861671525827 0.39667566349349614 3.8731321014316813
4.7861671525827 4.135929787885118 5.349983275664298
4.7861671525827 4.107448550615504 1.1645436562520286
4.7861671525827 9.70060324111153 3.616643690086679
4.7861671525827 1.6938738084165865 4.56423869878729
4.7861671525827 6.5708615384415605 1.3638223102192883
4.7861671525827 1.2242723757559995 1.813979765415621
4.7861671525827 3.2613150312920793 2.729946845701593
4.7861671525827 4.1207845555820635 5.530981293869803
4.7861671525827 3.829978244965271 4.943933334233876
4.7861671525827 6.163062539095528 4.429085951108751
4.7861671525827 2.0039628780134957 6.821952497301449
4.7861671525827 1.9544142275413015 2.3224119712659235
4.7861671525827 5.974698278786402 2.111882342398864
4.7861671525827 0.26934316553166826 5.436835367153183
4.7861671525827 2.0191874571159536 4.788562790374015
4.7861671525827 5.965663689454185 1.3692866587385888
4.7861671525827 4.274873013088116 3.9799726007468523
4.7861671525827 3.8592679356579462 0.46015627589509234
4.7861671525827 7.763341110761973 3.859435523808767
4.7861671525827 7.591863229360712 0.3347944148592801
4.7861671525827 3.0301705149925526 0.6675917113785724
4.7861671525827 5.963886350128231 0.40357117031630524
4.7861671525827 2.134645255983062 5.0412408622591665
4.7861671525827 2.803730922700692 7.06233643221333
4.7861671525827 9.474732703203845 8.22192374093369
4.7861671525827 7.092716055882494 8.041908582734553
4.7861671525827 2.065445297220131 1.4967437440070388
4.7861671525827 7.77747647066918 9.110599947703816
4.7861671525827 2.93422733795271 6.860529960330465
4.7861671525827 7.5891987346899805 2.456168779665948
4.7861671525827 4.096725007561358 1.9739919463733542
4.7861671525827 8.84947750671279 7.765809139736632
4.7861671525827 6.032049192112576 4.066532573701716
4.7861671525827 6.9821163712456 6.564681458181309
4.7861671525827 5.85846084011781 5.172379759662832
4.7861671525827 0.8604599781704609 5.135707128545068
4.7861671525827 5.6974126366510625 4.031432703908323
4.7861671525827 6.118930360736189 8.705400498177559
4.7861671525827 4.973796806793144 1.2860598907608758
4.7861671525827 1.6705323403771075 1.2445560387693646
4.7861671525827 1.1881769182697024 6.1889780024587875
4.7861671525827 4.59192751437933 7.74619712155918
4.7861671525827 3.570355871286955 9.462817423670126
4.7861671525827 7.161092150245269 7.876253427096293
4.7861671525827 1.2990012214783424 8.694422636300853
4.7861671525827 6.461291870420996 1.3893450059732626
4.7861671525827 6.764364291848931 6.8840432077085625
4.7861671525827 9.39396297147681 3.434566912852846
4.7861671525827 1.6035200018350806 7.474220705836678
4.7861671525827 6.887285063787073 0.856025120245063
4.7861671525827 8.735521900010653 4.222102671143822
4.7861671525827 7.262247076391528 1.7794974702333128
4.7861671525827 6.9811610843987015 9.229116346113136
4.7861671525827 7.992166481703166 8.323083947386877
4.7861671525827 2.600673727211931 5.264509103125746
4.7861671525827 3.248086376771899 5.746431328385938
4.7861671525827 5.8264103987547005 7.539715159786351
4.7861671525827 8.843638936092947 0.5668905115934768
4.7861671525827 3.871747176304128 5.674232377509755
4.7861671525827 3.4734190625640116 1.3216186653437587
4.7861671525827 6.025291146217935 3.0136539674764373
4.7861671525827 8.127411410818704 2.9718899788859816
4.7861671525827 2.7288438405406374 5.4040456950051405
4.7861671525827 0.26610660559696486 9.577358876570333
4.7861671525827 6.691592974707671 0.3299164633547404
4.7861671525827 8.97058751417368 3.2405631871366305
4.7861671525827 5.681230857574068 7.531628533100133
4.7861671525827 9.070398102333531 3.3932806507805195
4.7861671525827 2.7593357639448985 1.4761940943740886
4.7861671525827 2.5982083193957317 0.535601520078631
4.7861671525827 1.640349255296326 2.0178268018232575
4.7861671525827 7.216134707543244 2.7567689303424516
4.7861671525827 9.58022685102765 2.3297478241538316
4.7861671525827 9.512988669215542 1.2567210712658479
4.7861671525827 7.0437117520562085 9.118161743124254
4.7861671525827 7.579624706395096 1.7239794152680388
4.7861671525827 5.689952407451838 6.532390377207266
4.7861671525827 6.549185137515734 8.47541236902558
4.7861671525827 1.4447965385869972 9.284010953745273
4.7861671525827 8.851957427683624 5.743919903271384
4.7861671525827 6.333842538317071 6.492917736582892
4.7861671525827 0.5770440780299113 7.368271472667295
4.7861671525827 4.950478722136674 8.84918058625624
4.7861671525827 1.9050797241714779 2.778180878425535
4.7861671525827 4.541361634050819 2.2054787051064046
4.7861671525827 8.731231058535567 4.041125371441584
4.7861671525827 4.053145541864184 7.516828906439701
4.7861671525827 6.088920942544369 6.723656741246697
4.7861671525827 5.123312199194625 1.954962168412056
4.7861671525827 2.40030674676656 1.6704459085474397
4.7861671525827 2.521493258976952 9.838695143200418
4.7861671525827 3.6516985010460603 7.770473273489216
4.7861671525827 6.703364455233223 6.147393460205071
4.7861671525827 9.84657058352209 4.293331449259578
4.7861671525827 1.9721621243828866 5.4082875291877075
4.7861671525827 8.392144307477526 8.930105365254468
4.7861671525827 3.907314331123917 3.734542994954643
4.7861671525827 1.515808137710877 9.1283125170681
4.7861671525827 3.8665661472687956 3.5253249499959916
4.7861671525827 2.364137685182447 9.02511169398494
4.7861671525827 3.4993681930562235 4.561758981977566
4.7861671525827 8.492062786603665 8.655556921716084
4.7861671525827 2.210886246163054 3.1329488383707527
4.7861671525827 3.8592714347904176 4.968595360574725
4.7861671525827 2.975798637820242 7.897353878461934
4.7861671525827 7.340368550921775 1.807529494598784
4.7861671525827 1.2421489235699685 1.0274292989110847
4.7861671525827 6.913475994728348 1.068706883633852
4.7861671525827 6.857400092403864 2.532820472669112
4.7861671525827 2.7676603303779044 2.118066920161421
4.7861671525827 5.140287959948622 1.3794535904197633
4.7861671525827 9.431063649817828 8.19854550691351
4.7861671525827 9.222335836874283 3.414643538649145
4.7861671525827 3.092066953920337 5.649225686190337
4.7861671525827 3.763675725283433 4.176512927056067
4.7861671525827 3.9258928378717326 6.9936231619027796
4.7861671525827 2.284560461247837 0.4606766445532028
4.7861671525827 5.559791562089082 5.207930035539711
4.7861671525827 9.83873847041227 1.8778977151121605
4.7861671525827 4.766561265873185 5.948324191749481
4.7861671525827 6.578836090891715 4.467133992951882
4.7861671525827 8.15788845671955 5.418151699094845
4.7861671525827 4.829712957447204 7.334849484633534
4.7861671525827 3.153610150486812 4.895255294766682
4.7861671525827 4.373634039256133 5.767552511881848
4.7861671525827 9.3039681044125 5.151396431913116
4.7861671525827 1.770842470541046 0.5181074878656013
4.7861671525827 9.869197230184472 1.4392532295905693
4.7861671525827 7.027485460801851 8.658504050178598
4.7861671525827 1.563328731559361 1.5759677680639854
4.7861671525827 0.39563061178775283 7.619338504945715
4.7861671525827 1.319217853227143 5.61683460860172
4.7861671525827 3.576586866183534 6.731234322118963
4.7861671525827 1.3791253365823193 3.2238486083921276
4.7861671525827 4.466090625680311 8.647313104514717
4.7861671525827 8.718122723776446 3.833676846707028
4.7861671525827 7.172948170748872 8.975326533434796
4.7861671525827 8.039651699108092 4.490166135199488
4.7861671525827 1.4793512051849729 6.495464242934719
4.7861671525827 3.4990354543514592 4.524842411518273
4.7861671525827 6.121215977179994 6.863673767608453
4.7861671525827 6.972189423295453 3.5992348205699747
4.7861671525827 4.575747611689513 5.963577894192656
4.7861671525827 3.469372738944172 5.894100695946987
4.7861671525827 3.4433843572605096 9.518677168304981
4.7861671525827 1.4720491340166748 1.1435851458813249
4.7861671525827 4.897825844639758 1.2827344665475697
4.7861671525827 9.038700420446736 8.12968999326724
4.7861671525827 2.884474710164245 6.579010002319489
4.7861671525827 4.2676719774250795 1.541692538480056
4.7861671525827 9.15790162397726 1.158834629398472
4.7861671525827 1.0943793926070113 8.66552104975587
4.7861671525827 2.713847729900371 5.223266767403846
4.7861671525827 6.293348923208923 3.700956371211661
4.7861671525827 7.578386545639351 1.2270446592118613
4.7861671525827 5.813216441890663 7.552458668959962
4.7861671525827 1.094632222741665 4.374589413699339
4.7861671525827 1.1311613941167977 1.073404827091986
4.7861671525827 0.5553403095287313 6.530793928108516
4.7861671525827 2.9681407511243183 3.6349885461499087
4.7861671525827 1.5470607733566535 4.5011957057558885
4.7861671525827 2.6891760460539036 9.841097083486702
4.7861671525827 8.567941101269538 7.234872202719395
4.7861671525827 0.6519563333468863 9.895630504925226
4.7861671525827 1.4112436440154323 8.918367714277169
4.7861671525827 5.859017346024328 8.046358822381787
4.7861671525827 4.526224965363378 6.7997056268823854
4.7861671525827 7.310876477255765 4.622994257144928
4.7861671525827 3.438371456783871 9.378483605390302
4.7861671525827 3.1375825226035365 3.110614920195959
4.7861671525827 0.44207912269783056 7.670900873100642
4.7861671525827 6.042023896878835 1.7616927025452116
4.7861671525827 0.958986390063135 1.126412848698874
4.7861671525827 6.724444164711711 7.573254763682982
4.7861671525827 4.932512385098391 1.2638633389265368
4.7861671525827 5.954967226021089 9.1889647578384
4.7861671525827 6.025467822142828 4.118542901179218
4.7861671525827 1.8321228601957156 0.5625340016316704
4.7861671525827 2.9671466110828604 3.640108210735036
4.7861671525827 5.868080220359041 7.5011895013638705
4.7861671525827 3.0899734805173416 0.6254342794280695
4.7861671525827 5.177997958238357 3.4501804725550618
4.7861671525827 8.856691213554383 6.194452860174147
4.7861671525827 4.694199513316819 8.858975410369421
4.7861671525827 1.4317734534484516 6.448680383350329
4.7861671525827 4.777496822727977 4.202263422117313
4.7861671525827 5.398536245761471 2.60526377162822
4.7861671525827 6.291017094208915 3.580515723591204
4.7861671525827 5.14408187465706 1.5309999086816726
4.7861671525827 6.602417820151811 6.152133217109491
4.7861671525827 6.099841905084494 6.771721761009736
4.7861671525827 8.141535969347387 8.886721597486495
4.7861671525827 2.0411655503877344 6.812629322686346
4.7861671525827 5.499222075117441 5.2092393446088225
4.7861671525827 9.4090525661435 7.358119625496986
4.7861671525827 8.593940956738807 6.470776770341779
4.7861671525827 7.925808998799382 1.6349066190333097
4.7861671525827 5.8820708227709595 0.7577049733953961
4.7861671525827 2.7177690932062255 7.177035688251509
4.7861671525827 2.0511847524072238 2.250200278385083
4.7861671525827 7.296596292499777 3.6912826467119535
4.7861671525827 8.254388335284158 5.3382256132372925
4.7861671525827 6.222946645183623 2.3996663320559293
4.7861671525827 9.169909000730227 4.545092517221722
4.7861671525827 0.8015753199263047 1.5147493977497828
4.7861671525827 7.664183275554833 6.973811522982039
4.7861671525827 5.607123360745182 9.305444658548438
4.7861671525827 0.1722492046650283 6.0957464609573035
4.7861671525827 9.380748625417722 7.997757001521323
4.7861671525827 5.9486560432784135 8.341377060102733
4.7861671525827 6.053139460492977 2.8772346682766665
4.7861671525827 7.634778138700775 6.925489556555242
4.7861671525827 1.8032670019125263 9.12157143630141
4.7861671525827 1.2344484772346638 9.741720578180429
4.7861671525827 4.147247005998971 5.212482055788053
4.7861671525827 0.6510556518519921 1.397256943887712
4.7861671525827 9.082935595680183 2.3407094416385625
4.7861671525827 3.498030033866805 4.4265111720727095
4.7861671525827 2.5486560530020737 1.6600230673719785
4.7861671525827 1.9220866575842168 2.5018820614571475
4.7861671525827 2.306774325293033 5.682406546537826
4.7861671525827 4.702409126267391 1.6997614569195882
4.7861671525827 7.933125146783485 3.6958362621012233
4.7861671525827 2.037588913767751 4.45219063544905
4.7861671525827 0.2007829894302345 9.524573839248474
4.7861671525827 1.3032792605483912 9.600736320089334
4.7861671525827 1.000360351088691 5.2826577074130165
4.7861671525827 1.8458558333385071 6.838645314167497
4.7861671525827 5.866512806632778 0.8238841772294251
4.7861671525827 1.8743173970385008 0.9686834743153758
4.7861671525827 8.666120291288358 6.413707377224242
4.7861671525827 1.8137447469900758 0.5514139581601
4.7861671525827 2.71471176355452 0.5775609982872558
4.7861671525827 4.391162055502142 2.675144025506682
4.7861671525827 3.4013656176849327 8.186860582319783
4.7861671525827 7.861765535097994 8.012487560701649
4.7861671525827 3.349728597654116 4.3245515009665985
4.7861671525827 5.674167992045833 8.286076177826768
4.7861671525827 7.816810635116552 0.5800446346199681
4.7861671525827 3.4228760877531985 8.249738985320102
4.7861671525827 7.733126876192968 7.777268375728902
4.7861671525827 9.21427328900253 1.1477074613539133
4.7861671525827 8.993523702465875 0.8040104456346437
4.7861671525827 2.5908068228027346 3.144333566443694
4.7861671525827 5.897796738355817 5.3270899563959375
4.7861671525827 2.031505608199661 3.8659530067539976
4.7861671525827 8.846396418444193 5.797904014962101
4.7861671525827 8.73361112748495 7.452587649346715
4.7861671525827 6.88977407260133 5.552026374436327
4.7861671525827 0.1603088517851556 6.020256476210261
4.7861671525827 2.9642427237646922 8.90925993743346
4.7861671525827 4.401434577142359 8.549815208793307
4.7861671525827 6.406484431898102 3.6578174706333706
4.7861671525827 1.6726771386401356 8.276670058893131
4.7861671525827 3.5144809173763782 1.337958700720668
4.7861671525827 4.499012572913531 2.2249388858269197
4.7861671525827 6.794714740892223 1.2925148469363685
4.7861671525827 3.2777622996865787 3.0095547845973982
4.7861671525827 0.20659516930804012 9.08379382260882
4.7861671525827 5.37002910627104 3.9530655525065943
4.7861671525827 1.3874362151045607 8.868610954528197
4.7861671525827 6.577046235251856 7.090761071363883
4.7861671525827 3.6324046461940203 1.6562132504150353
4.7861671525827 1.3712843662579028 0.7337137946572966
4.7861671525827 1.9779662442706607 5.434055996360242
4.7861671525827 1.3724343358314277 4.059416523388408
4.7861671525827 0.627519859351528 7.845020307125201
4.7861671525827 6.547523898675832 7.4586474112286325
4.7861671525827 6.34971496588758 4.492084766707544
4.7861671525827 1.4348286399010826 1.1242439427757014
4.7861671525827 7.8365221048760505 0.9392479318448838
4.7861671525827 7.302795153335732 6.610950415500296
4.7861671525827 7.867246561581802 1.636812785051654
4.7861671525827 0.907608524711451 6.335864202832931
4.7861671525827 4.70758966171319 3.4455483184262548
4.7861671525827 5.236567840908729 5.916470704596807
4.7861671525827 2.1757697254964263 0.5515615883123395
4.7861671525827 6.139997515966187 8.537333829414823
4.7861671525827 8.870416236068001 3.64196274513624
4.7861671525827 1.6696566139357758 1.4082499624936655
4.7861671525827 5.269430358539888 2.2698796926684572
4.7861671525827 1.7432285217051273 1.292549085324077
4.7861671525827 0.697936230622965 7.773781776189685
4.7861671525827 9.45361600146895 7.422365205120296
4.7861671525827 6.968479453721724 1.270472071656824
4.7861671525827 9.312992400149296 4.89890267267135
4.7861671525827 8.395177450129415 5.444402398618675
4.7861671525827 6.477783251172053 0.20552192219708107
4.7861671525827 6.991783524768196 0.303135868410028
4.7861671525827 9.141088018650642 1.1253980085391257
4.7861671525827 4.554869130091559 6.169663090004879
4.7861671525827 3.2745325755051664 0.4292084863337201
4.7861671525827 0.8592589860536591 1.3782840122116846
4.7861671525827 2.4455884880779046 8.92515933555215
4.7861671525827 8.61380592483736 7.363281922863202
4.7861671525827 5.436123514124082 9.239683295985746
4.7861671525827 3.447374226252458 6.210499883052779
4.7861671525827 7.872146434434255 4.1861917100319435
4.7861671525827 5.496079555469383 5.26479126667871
4.7861671525827 7.8161378224751195 7.931800713345058
4.7861671525827 2.3374861965131704 5.980168096224292
4.7861671525827 8.4482664295229 6.01579449016438
4.7861671525827 4.162040470938645 9.487353100901808
4.7861671525827 5.35600983537813 6.393366800801896
4.7861671525827 9.870151578049066 3.950001153173422
4.7861671525827 1.9687807786902334 9.124030032416742
4.7861671525827 2.1943860145868386 4.117264472194966
4.7861671525827 6.22907528654083 0.29880918893619846
4.7861671525827 7.716615331593288 3.865985753939237
4.7861671525827 4.553638102329287 1.3483680489421639
4.7861671525827 4.30477155642904 3.045869602384545
4.7861671525827 3.9023155364931674 1.9731644904272037
4.7861671525827 7.91252704220798 7.458605277139748
4.7861671525827 4.8535653348904955 4.544881762730026
4.7861671525827 4.879215032768337 4.306025255770548
4.7861671525827 2.8332626144271544 7.839870643767837
4.7861671525827 1.551835119530166 5.543448673613347
4.7861671525827 5.458944557343116 8.368993264682246
4.7861671525827 9.299071131245038 5.46081544043414
4.7861671525827 4.387358986241525 2.685578634659358
4.7861671525827 6.653623356050827 3.6626981207108797
4.7861671525827 6.897286036175873 7.681706702582347
4.7861671525827 8.816419285951042 6.299513099128728
4.7861671525827 2.381843059187177 6.2365924762690135
4.7861671525827 3.2300905624711778 2.362098644976148
4.7861671525827 8.015332802914392 6.119251418115456
4.7861671525827 8.24780622916242 5.046603033953229
4.7861671525827 7.15113885478438 4.631528583691145
4.7861671525827 4.175326368770824 3.096899287041096
4.7861671525827 8.830493237189355 6.00505809171109
4.7861671525827 5.875156893303726 1.2850096587056157
4.7861671525827 8.836287295130692 2.524000101700028
4.7861671525827 4.340012368043359 9.245336348858176
4.7861671525827 1.9064767655958101 3.5761210227256885
4.7861671525827 9.178966392477392 1.1543217821482343
4.7861671525827 8.988668597033817 5.659523863252957
4.7861671525827 3.283779977710453 8.743890196617041
4.7861671525827 1.4228268783287115 3.054632397547498
4.7861671525827 1.8459364542620835 8.087257988797809
4.7861671525827 8.25962238544125 4.600455660852396
4.7861671525827 1.8481395687316868 2.7823505610102384
4.7861671525827 8.365304555237437 0.5513972773626199
4.7861671525827 9.796038080744317 4.437561522121991
4.7861671525827 6.095477849205796 2.483737726767644
4.7861671525827 2.7153489781267157 5.423831892350463
4.7861671525827 2.926533334067289 4.014497357874702
4.7861671525827 2.0097875552380855 8.133558566046828
4.7861671525827 3.349876711208204 8.034609134260695
4.7861671525827 0.7331726790131562 4.181624816803462
4.7861671525827 4.817248992479217 7.453818298167
4.7861671525827 1.8794186011842973 3.2109885374628093
4.7861671525827 7.372490984621877 4.230208098528207
4.7861671525827 8.331135987742295 9.587945399943807
4.7861671525827 8.77714455195648 1.644526977443861
4.7861671525827 2.788250745887179 7.4995206696121475
4.7861671525827 7.1523162672280405 5.364256427271454
4.7861671525827 2.4961780053139884 8.082811777060318
4.7861671525827 8.36475043279236 3.7163960382739134
4.7861671525827 8.641468306178023 0.4628529389573395
4.7861671525827 1.7413749541566355 1.2862836445887347
4.7861671525827 3.220840318420919 6.6633810811300185
4.7861671525827 1.5685333482428154 1.5658407559454188
4.7861671525827 7.885146908680779 7.360511220921551
4.7861671525827 7.92276782481278 4.422343698529402
4.7861671525827 4.48358073239331 4.9929988476749605
4.7861671525827 0.20039568361298432 9.506036388211813
4.7861671525827 3.9835848970637042 7.440122609449013
4.7861671525827 8.036388512425708 9.577750355906705
4.7861671525827 5.124199983319909 8.74085626945111
4.7861671525827 1.75105581458981 2.8709693774556344
4.7861671525827 3.1979203005867287 7.980558904380487
4.7861671525827 6.693366621683715 2.3979016143060057
4.7861671525827 3.5004563301682836 4.664420063960059
4.7861671525827 9.574590491381732 7.591074194207545
4.7861671525827 6.16800470225396 6.6495214468793
4.7861671525827 0.5050281543814079 9.77262262919565
4.7861671525827 7.807757334535494 9.243156241396713
4.7861671525827 8.719203567812029 0.5025492620850094
4.7861671525827 4.131363225007647 5.403364223267307
4.7861671525827 0.5318044725592574 1.169788190121091
4.7861671525827 3.149447987974836 4.184306362187546
4.7861671525827 4.500850209394808 8.99861223950491
4.7861671525827 6.864308795355404 2.1733726068765353
4.7861671525827 8.714157530749988 1.7991688790020848
4.7861671525827 6.179162077292731 3.320055348568465
4.7861671525827 0.40722649614849826 3.448859856726301
4.7861671525827 2.2919679089182265 9.423160039585762
4.7861671525827 7.924902430806723 7.436485547710145
4.7861671525827 4.833663454385541 4.763705466641018
4.7861671525827 4.496971007948474 4.9843215914272925
4.7861671525827 3.7806060031100244 1.1676493130614964
4.7861671525827 8.53675084362708 6.022455543648226
4.7861671525827 9.04616382012338 7.450956559527658
4.7861671525827 6.197993627586781 4.519506919600757
4.7861671525827 2.7142786321674 5.274161223192891
4.7861671525827 0.9584739870948232 1.819627549614583
4.7861671525827 2.127136730443785 4.29085583354901
4.7861671525827 5.060384307120237 1.3417107318877353
4.7861671525827 6.77070489534092 9.466125950010602
4.7861671525827 1.6418762262942121 5.517930963817895
4.7861671525827 9.832220590023757 4.341459504902488
4.7861671525827 5.884765651069609 3.022002642513576
4.7861671525827 0.9272587713922124 8.629552617884446
4.7861671525827 3.895941018251954 0.8431763962753155
4.7861671525827 0.4704034546622333 6.491864291882073
4.7861671525827 8.733225132313777 8.271018485557779
4.7861671525827 4.523810930629512 6.520801854501811
4.7861671525827 9.334521191841711 9.424541523517204
4.7861671525827 3.729366287391232 6.8443949364896275
4.7861671525827 6.902445812637669 3.658533696930367
4.7861671525827 5.489790177224388 1.2773497546884829
4.7861671525827 5.413159987071855 3.9629522711649847
4.7861671525827 3.954104149177851 3.9752459830279347
4.7861671525827 9.106858169310835 9.43349555431851
4.7861671525827 8.785212205837245 5.697487174822886
4.7861671525827 4.4609941393755195 2.3846461133215957
4.7861671525827 7.07959813354529 4.536385107727919
4.7861671525827 9.63397180951911 3.4791307463962995
4.7861671525827 9.311119559282941 8.148957980819864
4.7861671525827 4.596733963671645 8.858748611653441
4.7861671525827 4.480792001725482 2.213463260394005
4.7861671525827 0.8435903637448818 2.870028828147786
4.7861671525827 0.6182989541598871 7.310692064663286
4.7861671525827 6.878720751750918 0.8149460947550033
4.7861671525827 3.24389289311337 2.370286209898396
4.7861671525827 9.402098890838536 6.580404298446455
4.7861671525827 1.5205194542001537 3.548653615237244
4.7861671525827 3.7388623729535393 1.9644709772497833
4.7861671525827 0.591338202972846 6.883639522263992
4.7861671525827 6.034622795041519 2.2684303115260898
4.7861671525827 1.2712435082994697 5.814802904148037
4.7861671525827 0.7498433835058498 1.0635772878595071
4.7861671525827 0.5499896712938928 0.9834891749649689
4.7861671525827 3.592961417624792 1.2885778383539372
4.7861671525827 1.988616521604007 3.40776135023422
4.7861671525827 5.7745289519114005 1.1977241534320402
4.7861671525827 5.185731880880697 3.4057321582263396
4.7861671525827 1.5670409381636528 0.3704643992346125
4.7861671525827 8.13541765197462 8.886019616202475
4.7861671525827 3.046119944526158 0.6563690136748302
4.7861671525827 7.783259889676261 3.931308606922428
4.7861671525827 6.33801421337763 7.5375095679561515
4.7861671525827 6.067909092871488 4.778493822532352
4.7861671525827 9.124152662843306 6.398697179010286
4.7861671525827 5.99691831876388 8.39243293734106
4.7861671525827 2.0142818622945304 0.6785264906772552
4.7861671525827 7.79720131017123 1.3121311215550389
4.7861671525827 5.89148214805907 7.729647810070775
4.7861671525827 4.49275397878339 4.987055081693405
4.7861671525827 7.670531436558327 4.510173681885372
4.7861671525827 0.9788125378815326 4.7569627904686165
4.7861671525827 4.455828810516767 7.6887715546494375
4.7861671525827 5.819057558387014 7.571175653228236
4.7861671525827 5.9328336183106964 2.1938713010650757
4.7861671525827 6.599806523436913 0.27079593315395456
4.7861671525827 7.502755235090617 2.6274869573129687
4.7861671525827 8.486322348195884 9.155339350511634
4.7861671525827 0.8183828668640525 9.850794811970443
4.7861671525827 0.46359927007007096 3.1944132408323456
4.7861671525827 3.609083726608487 3.1645026004974026
4.7861671525827 0.4296886121630621 3.2225842152636344
4.7861671525827 5.168811916893006 3.4303615933985854
4.7861671525827 4.640405961837602 3.6274864068951285
4.7861671525827 2.539345861912701 1.9885366363778376
4.7861671525827 3.720175521828723 0.43358105161219707
4.7861671525827 3.316944903065549 0.37150194597790726
4.7861671525827 4.702252932370185 6.885309936355418
4.7861671525827 3.0376983895126024 1.2511647998341757
4.7861671525827 5.76866238081698 6.563053078848488
4.7861671525827 9.609688203820076 8.555372443904517
4.7861671525827 5.087129373729827 8.846685190708408
4.7861671525827 0.830369094890611 7.619113940501148
4.7861671525827 9.725409060647046 8.928035204792504
4.7861671525827 9.46589736512419 7.076333319269215
4.7861671525827 2.7606914987880455 8.906155564846037
4.7861671525827 0.6645520769138921 2.4038455597099397
4.7861671525827 4.6229729537967845 1.9475012811314822
4.7861671525827 8.13700256752519 2.969540262429758
4.7861671525827 2.091034566393863 3.9587254709670106
4.7861671525827 5.523527725066678 9.335042054446202
4.7861671525827 7.922576683261029 1.652289275178873
4.7861671525827 1.7896571630107319 7.010978401534192
4.7861671525827 6.894570189191621 5.548789191423893
4.7861671525827 5.27018880132013 7.472506643688707
4.7861671525827 6.945867064447773 2.064402856035511
4.7861671525827 5.960012686392181 2.1876528543508433
4.7861671525827 5.155774066243865 2.1871505863948637
4.7861671525827 0.6888530142412596 7.353096550385411
4.7861671525827 2.306514336699395 6.958572017940344
4.7861671525827 2.6804108135058895 7.951017213183653
4.7861671525827 7.960580660365518 8.549799437774688
4.7861671525827 0.9798542778076393 9.81156195123902
4.7861671525827 0.8468399135222504 2.0933167926386766
4.7861671525827 9.740174482745893 8.891231624055996
4.7861671525827 0.6070012859882876 5.15838959085471
4.7861671525827 2.306479300266707 8.215110870598117
4.7861671525827 7.309181989359802 6.611639384357634
4.7861671525827 2.3042255379602907 9.503214056755343
4.7861671525827 1.3081591463610514 3.1096150093344126
4.7861671525827 7.419573411933497 4.167253159718012
4.7861671525827 7.535793789371382 1.9623654250950318
4.7861671525827 4.2737852468992585 2.07265061530085
4.7861671525827 1.6612190435969332 3.649064760444129
4.7861671525827 6.905927772362669 4.112138964999743
4.7861671525827 3.582164908670508 7.833689814876204
4.7861671525827 7.182757913903042 4.671122990405378
4.7861671525827 0.4131797080139705 3.234946654763105
4.7861671525827 9.513707518643363 6.806829260957311
4.7861671525827 6.231823127095059 2.4900031028537013
4.7861671525827 8.247614212660734 4.606205674855503
4.7861671525827 1.1694557661409886 4.347599933550336
4.7861671525827 1.1062078058441445 3.0572670634408157
4.7861671525827 6.317746731275231 5.558389846066994
4.7861671525827 2.5654757977528924 6.368535800876982
4.7861671525827 6.63348738624394 5.735016178218928
4.7861671525827 2.2720499252195063 9.123724503261721
4.7861671525827 2.1665329549882504 3.185708773088434
4.7861671525827 6.03987579986865 9.156362626921858
4.7861671525827 1.8428152556447672 2.2050490240990945
4.7861671525827 4.188731014279123 1.7403826710637986
4.7861671525827 0.7067151106809175 8.364877985077113
4.7861671525827 2.3325307930351245 5.662381292562324
4.7861671525827 8.141045609330398 6.064482420384621
4.7861671525827 1.6418844999498823 7.37267577632937
4.7861671525827 6.0145930996997805 4.089936577830562
4.7861671525827 0.669908541566707 5.1520810824645835
4.7861671525827 3.800375697416002 4.918887701449745
4.7861671525827 1.7048318825337596 7.731823302354833
4.7861671525827 6.512405408714133 8.477633328533816
4.7861671525827 5.516243434559127 5.4055592162041375
4.7861671525827 5.347245704135893 3.9696862493757745
4.7861671525827 0.7754886963210907 4.213944095991029
4.7861671525827 7.272483649107383 0.1636928613675917
4.7861671525827 9.106745527074576 5.584873170375224
4.7861671525827 2.4815421187416544 1.7458534893612416
4.7861671525827 6.89885604194434 4.417675772856796
4.7861671525827 0.9173997708491647 7.518911159464704
4.7861671525827 7.4696746285186855 7.8170577733336275
4.7861671525827 3.3133649728490657 9.119690304884488
4.7861671525827 9.938809666796113 4.084038644483357
4.7861671525827 8.429745157497239 7.396852057682582
4.7861671525827 8.854249365175061 9.427287650847939
4.7861671525827 5.855311320802908 5.18178479736009
4.7861671525827 8.052071174160597 3.5869189017761123
4.7861671525827 8.015540523675664 6.128559439565601
4.7861671525827 8.574198741899021 6.7505009712454225
4.7861671525827 7.585365664371362 2.589176870415985
4.7861671525827 3.8267447557528103 3.2649220070940994
4.7861671525827 6.934528398299515 8.451922556809002
4.7861671525827 7.100787055736904 3.6002698355013902
4.7861671525827 3.9573541851488074 8.479350153646807
4.7861671525827 5.211200535472771 8.487491171178306
4.7861671525827 5.0237825229795385 5.929680153313473
4.7861671525827 4.589856674972483 3.7634504588466084
4.7861671525827 6.31820100591836 6.96271853133668
4.7861671525827 7.692887727213625 2.665655073059928
4.7861671525827 1.4241902282336723 3.9310134034047772
4.7861671525827 8.482193627664373 6.399436136208743
4.7861671525827 3.0984896137777698 1.2571156555796703
4.7861671525827 4.910433344460797 2.1838527782736534
4.7861671525827 2.1694464753842473 6.590664089877379
4.7861671525827 5.869399702928716 0.813721002678969
4.7861671525827 0.558678280136876 7.777464599368956
4.7861671525827 0.509746122996801 8.797775335419509
4.7861671525827 4.854573240293797 4.525336645190869
4.7861671525827 5.362725242575682 2.324351003038789
4.7861671525827 5.3239384008137325 6.261770953941339
4.7861671525827 8.322254373371596 1.6958157391579383
4.7861671525827 6.937275668555778 1.2497890957405227
4.7861671525827 6.548659463108212 7.424525798374575
4.7861671525827 3.3249022038738003 6.633480177505871
4.7861671525827 4.796496719023994 1.334037259358866
4.7861671525827 8.105363052529789 2.9559099079692834
4.7861671525827 9.441089172148567 9.312717646327355
4.7861671525827 8.769621680174595 2.6482644361941725
4.7861671525827 4.647763546429306 4.09517833411351
4.7861671525827 1.817076224243252 6.8715168592279605
4.7861671525827 7.163188278576755 4.980305133117339
4.7861671525827 3.993853308557476 7.171342334728759
4.7861671525827 4.687523545643459 1.7534212254053716
4.7861671525827 0.5204314906332459 1.3076635687514726
4.7861671525827 8.710230184016728 9.322615512107152
4.7861671525827 3.2014856302316033 8.914716633431244
4.7861671525827 7.861775258686588 9.569229202624498
4.7861671525827 3.7382007919349776 5.7469437767261145
4.7861671525827 0.9712729169486878 4.778425217627756
4.7861671525827 4.020599269744909 3.177175086007213
4.7861671525827 2.481139830363927 1.7159876984078986
4.7861671525827 2.7587821294884027 3.1790801320918467
4.7861671525827 7.50249360207383 6.638961283311966
4.7861671525827 1.2315778115450766 5.994340880829789
4.7861671525827 8.373858809392102 9.466303296282838
4.7861671525827 4.9865037884250505 4.233836557996323
4.7861671525827 7.883821656470612 5.641301331974887
4.7861671525827 8.852666118951436 3.0630741196822373
4.7861671525827 7.6874428891490325 1.9521234859112886
4.7861671525827 0.3067613403563437 5.385118067916638
4.7861671525827 5.586550680379855 2.2954314918675354
4.7861671525827 7.913104658319042 0.6943717370601891
4.7861671525827 2.3860944794473857 8.617564515155502
4.7861671525827 9.062839958278492 5.614811686519642
4.7861671525827 2.98200925637367 3.2227699610371157
4.7861671525827 4.852623312679865 7.405241965565403
4.7861671525827 0.7494535460913238 8.599373416914913
4.7861671525827 3.6066816287174395 2.077480241436933
4.7861671525827 8.125953282457223 2.9826515077740297
4.7861671525827 1.9667240712779086 5.425104756971035
4.7861671525827 3.3651295267110735 1.2781369587207478
4.7861671525827 0.5730807366527662 6.743541820444785
4.7861671525827 7.727089981868184 6.413752123585909
4.7861671525827 8.81937103847579 7.509064083838491
4.7861671525827 4.527355034494539 6.800393640204333
4.7861671525827 9.870130261812111 1.440189759379435
4.7861671525827 8.440617244428868 7.229395143758358
4.7861671525827 7.296741549794927 5.416181938236106
4.7861671525827 7.784911998743036 2.7239570002323856
4.7861671525827 4.162395450764451 7.1073929269109835
4.7861671525827 8.998107536620186 3.4833324395051806
4.7861671525827 2.155276188126153 3.060436385509259
4.7861671525827 9.023277307714924 4.462946024955753
4.7861671525827 7.06577396498881 0.2534886666909806
4.7861671525827 7.99183202573334 5.554968936516595
4.7861671525827 5.908551654427342 7.832720745340606
4.7861671525827 2.28296819998475 5.6619195415848145
4.7861671525827 8.788689849637866 2.6075570889514244
4.7861671525827 8.649077923120023 4.379927523765791
4.7861671525827 5.8510347074688465 5.179953763354506
4.7861671525827 4.548612319867722 6.812231665337121
4.7861671525827 3.1376177464657804 4.905385928793011
4.7861671525827 0.8006578010550942 3.0364067977397338
4.7861671525827 3.9338707102347126 1.0747688227957344
4.7861671525827 3.449411547063127 3.0896616118646807
4.7861671525827 9.867490594965256 1.4370021062507423
4.7861671525827 5.899937986504726 5.323437158576689
4.7861671525827 2.123325753638476 5.037411235068705
4.7861671525827 0.20945255261625423 6.3649797329938185
4.7861671525827 8.564724811043655 8.426804411089323
4.7861671525827 0.8631376396521976 6.358915083409432
4.7861671525827 1.8368693262208866 3.6350341570497986
4.7861671525827 3.417069990206846 0.38999635919650727
4.7861671525827 7.240150268462503 1.7722262781580678
4.7861671525827 9.80205134662274 2.0917694637233044
4.7861671525827 3.1262259343115155 3.118846298102629
4.7861671525827 2.643002703267944 4.061582487633499
4.7861671525827 8.900273707368573 2.24022886790882
4.7861671525827 1.2808265419353329 7.49454513081195
4.7861671525827 6.61417441166988 9.513429837932364
4.7861671525827 3.1902803233802723 9.865637569672241
4.7861671525827 3.4125336611206607 6.607391082372289
4.7861671525827 8.392491363138554 3.726082542355723
4.7861671525827 3.9796408782965162 7.051467492382693
4.7861671525827 2.728878402324353 5.414137991344377
4.7861671525827 6.3619189985493465 9.368244247913957
4.7861671525827 3.6427991979436434 1.6820940235269164
4.7861671525827 4.545136254760815 8.3213304275165
4.7861671525827 7.149744996731361 2.787569237053185
4.7861671525827 7.339796657593788 4.264446151675922
4.7861671525827 0.4340080637317533 7.558284994359308
4.7861671525827 6.049593160255675 9.03984999590635
4.7861671525827 0.39315229864946494 3.938344715731442
4.7861671525827 4.886650122269836 8.275409788599099
4.7861671525827 3.7471125444159883 8.455473422882157
4.7861671525827 3.62426007403892 4.302582605632565
4.7861671525827 7.731893666263847 6.408542623913256
4.7861671525827 7.747791617904913 1.189411087417816
4.7861671525827 6.392218395144574 6.9954254092234205
4.7861671525827 1.885402639975495 3.630444759639507
4.7861671525827 6.912761905281424 3.99317595059905
4.7861671525827 8.773353126723972 2.968908933054579
4.7861671525827 7.9119161702424154 1.6197625836550305
4.7861671525827 8.93638445946394 1.4276208339269663
4.7861671525827 0.9003485514043025 2.995589528692846
4.7861671525827 7.409247605331261 0.10975830731069758
4.7861671525827 6.044855082665672 7.13253570568571
4.7861671525827 3.9833746432998485 7.487184752881981
4.7861671525827 0.45302018946070954 9.72749055979078
4.7861671525827 3.9782715891600997 7.033386064627924
4.7861671525827 9.364381612669927 2.3519240038878224
4.7861671525827 6.395788618328202 5.603516782652587
4.7861671525827 6.172746186989253 0.3218882510721179
4.7861671525827 5.414849948932213 2.760327252694517
4.7861671525827 1.863633559541877 6.902606776545447
4.7861671525827 3.9982288716372136 7.025350471937565
4.7861671525827 7.943741392844049 7.432848103912336
4.7861671525827 6.516270769924797 7.472635277877685
4.7861671525827 3.2914950744032256 9.726660976071212
4.7861671525827 0.4762072883192878 8.825559337148784
POLYGONS 100 1798
10 137 366 243 342 639 634 809 53 628 130
21 162 237 272 322 465 804 254 299 234 604 189 491 726 280 587 529 119 159 93 390 806
15 247 397 16 530 616 76 672 640 784 752 373 867 3 78 588
6 124 167 18 279 68 376
17 165 841 20 438 737 848 19 426 421 534 691 278 861 273 638 228 147
16 392 398 776 796 850 731 85 744 382 732 126 800 185 870 574 549
18 126 732 382 417 509 27 630 612 99 694 660 381 38 579 797 434 481 349
23 173 671 569 558 82 62 389 616 76 672 199 134 358 170 232 191 443 755 471 145 39 71 827
13 137 366 860 327 741 852 448 163 756 454 871 628 130
17 172 335 700 510 487 407 708 531 838 300 242 330 483 21 835 757 547
20 59 192 121 582 150 391 479 26 359 344 293 456 332 226 52 546 468 466 548 316
21 525 533 171 682 543 676 502 161 541 385 13 675 379 197 168 868 668 710 235 714 104
19 719 859 206 425 785 97 457 851 341 113 145 471 755 294 236 610 77 475 807
19 609 615 795 345 824 460 227 371 325 94 763 668 710 235 122 832 723 83 674
13 113 145 39 71 827 238 292 262 459 856 633 851 341
6 135 160 241 581 339 136
22 57 380 304 813 9 221 629 580 196 363 711 156 223 598 446 717 779 501 751 500 575 139
12 268 609 674 83 723 658 469 453 749 357 317 844
20 147 228 151 536 789 670 115 253 342 639 634 809 352 15 424 504 738 54 847 165
20 11 696 526 812 162 806 390 93 472 58 312 505 720 787 522 266 601 473 388 513
10 459 856 383 64 667 782 128 687 292 262
22 135 160 209 821 201 35 410 583 493 84 830 532 567 423 404 326 287 559 310 815 87 136
6 668 868 168 414 94 763
18 207 419 256 303 463 632 416 52 546 468 213 276 774 405 255 654 8 1
10 26 359 618 619 109 566 767 402 391 479
16 466 548 316 59 257 705 198 386 0 127 129 721 774 276 213 468
18 502 676 543 682 72 786 480 661 437 769 523 155 19 426 421 534 557 291
17 254 804 465 322 836 37 544 730 48 792 248 664 63 45 855 781 252
16 196 580 455 307 722 690 854 36 596 507 439 60 340 219 711 363
20 53 628 871 454 360 508 131 230 212 152 735 264 91 715 464 631 396 15 352 809
15 407 708 531 838 249 581 241 160 209 821 164 281 793 451 810
17 84 830 532 365 346 102 788 775 430 289 703 621 520 853 432 665 493
21 21 835 319 595 302 863 869 114 353 17 593 477 329 311 43 194 245 771 176 330 483
20 405 774 721 129 127 650 296 511 611 120 791 614 840 449 441 246 794 745 654 255
23 392 398 776 683 458 220 89 233 448 163 756 454 360 508 131 230 724 28 427 125 499 574 549
21 775 788 829 356 444 193 73 611 511 296 650 127 0 386 198 406 183 270 805 289 430
18 170 358 134 199 672 640 784 752 467 673 275 375 297 116 597 622 517 202
22 373 752 467 673 746 271 46 442 602 420 506 497 74 103 461 144 66 648 623 140 3 867
18 104 525 440 25 231 338 589 790 707 182 453 469 658 723 832 122 235 714
13 520 621 537 23 556 524 685 320 613 141 689 825 853
19 158 845 704 362 393 666 482 80 657 555 117 738 504 424 15 396 631 464 224
21 193 444 818 646 734 773 515 497 506 420 602 442 607 688 217 498 614 791 120 611 73
20 48 730 409 205 495 29 387 736 51 110 181 842 258 642 733 742 802 759 248 792
18 162 237 272 322 836 37 544 730 409 205 627 484 550 324 112 696 526 812
15 501 779 717 446 81 368 648 66 144 461 649 740 86 762 372
14 382 744 85 731 512 179 709 488 578 516 369 27 509 417
13 38 381 470 560 123 395 605 334 2 108 218 797 579
17 525 533 171 682 72 786 480 286 702 492 399 284 351 447 231 25 440
19 152 735 315 105 323 174 169 32 55 92 677 240 422 486 427 28 724 230 212
23 278 861 553 765 837 863 302 595 319 835 757 547 172 215 210 385 541 161 502 291 557 534 691
21 407 487 510 142 747 379 197 168 414 94 325 371 227 777 617 318 503 586 793 451 810
14 333 361 225 584 297 375 275 673 746 271 663 766 408 758
21 57 380 485 716 95 6 462 739 306 329 311 43 194 565 187 401 551 635 576 575 139
22 124 376 68 178 701 865 699 100 30 431 69 95 6 462 106 753 490 263 655 274 561 267
20 247 397 16 695 62 82 558 295 50 842 181 110 51 328 596 507 439 60 374 571
15 36 596 328 51 736 387 29 686 538 843 603 33 722 690 854
19 78 588 247 571 374 60 340 219 711 156 223 598 446 81 368 648 623 140 3
16 228 638 273 861 553 765 803 61 814 180 653 107 309 789 536 151
12 52 416 632 364 418 313 624 450 293 456 332 226
19 243 342 253 115 670 789 309 107 653 184 143 490 263 655 274 377 327 860 366
16 478 652 826 651 204 4 590 817 577 620 441 246 794 31 24 367
17 55 92 625 378 34 282 44 643 157 778 539 554 770 56 563 214 32
15 124 167 18 47 220 89 233 448 852 741 327 377 274 561 267
22 68 279 18 47 220 458 683 776 796 850 731 512 179 149 780 101 801 542 669 435 701 178
19 260 428 521 337 857 540 40 570 831 10 403 864 259 175 828 305 799 314 819
12 380 485 716 95 69 431 30 820 729 9 813 304
10 207 626 367 24 31 794 745 654 8 1
11 90 823 288 282 34 378 625 92 677 240 5
17 173 671 569 558 295 50 842 258 642 733 216 138 128 687 292 238 827
22 79 591 345 824 460 227 777 617 318 132 413 222 712 681 98 783 200 96 70 436 394 822
21 545 564 244 429 476 337 857 540 40 177 754 64 383 856 633 851 457 97 785 153 528
14 205 495 29 686 538 843 603 514 692 354 636 550 484 627
18 11 696 112 324 550 636 354 692 764 22 542 801 101 780 808 308 388 513
20 164 821 201 35 190 347 697 111 343 67 637 772 222 413 132 318 503 586 793 281
10 114 353 798 814 61 803 765 837 863 869
19 146 348 277 12 14 684 573 702 286 480 661 437 769 725 355 166 331 872 834
23 701 865 699 100 30 820 729 9 221 629 580 455 307 722 33 603 514 692 764 22 542 669 435
10 621 703 289 805 270 183 527 556 23 537
19 154 585 239 261 323 105 315 735 264 91 715 464 224 158 845 704 49 839 833
14 266 601 473 388 308 808 780 149 179 709 488 578 516 433
23 287 559 713 195 290 401 551 635 576 575 500 751 501 372 762 86 203 65 599 301 849 404 326
14 42 496 758 408 766 663 271 46 442 607 688 217 706 336
20 320 685 698 858 816 645 647 693 572 186 846 535 718 343 111 697 452 743 141 613
15 103 461 649 740 86 203 65 599 283 285 734 773 515 497 74
18 19 848 737 438 321 7 606 568 519 489 148 229 166 355 725 769 523 155
6 126 800 185 727 481 349
6 16 530 616 389 62 695
21 251 641 474 494 866 208 384 748 415 622 517 202 170 232 191 443 755 294 236 610 77
15 165 841 20 438 321 7 606 370 269 657 555 117 738 54 847
19 59 192 121 582 679 662 88 608 858 698 685 524 556 527 183 406 198 705 257
22 300 838 249 581 339 136 87 815 310 559 713 195 290 401 187 565 194 245 771 176 330 242
13 441 449 840 614 498 217 706 336 42 188 817 577 620
19 532 567 423 404 849 301 599 283 285 734 646 818 444 356 829 788 102 346 365
24 265 284 351 447 231 338 589 790 750 873 118 75 445 133 552 411 250 862 562 350 644 678 400 412
12 172 335 700 510 142 747 379 675 13 385 210 215
20 594 600 728 768 643 44 282 288 823 592 2 334 605 298 211 656 680 659 41 760
15 493 583 410 35 190 347 697 452 743 141 689 825 853 432 665
20 185 870 574 499 125 427 486 422 240 5 90 823 592 2 108 218 797 434 481 727
23 761 811 518 10 831 570 40 177 754 64 667 782 128 138 216 733 742 802 759 248 664 63 45
17 17 593 477 329 306 739 462 106 753 490 143 184 653 180 814 798 353
CELL_DATA 100
SCALARS cell_scalars double 1
LOOKUP_TABLE default
0.0336940731955071 -0.009928966126223848 -0.024330043525428557 0.008438467664825922 -0.021983071082440908 -0.01660869571664314 -0.006283041189782068 0.011363062205103525 -0.037593355592221656 0.020785758466637105 -0.002861758586969465 -0.00852964635558795 -0.016629672340154222 0.0004977924967626279 0.009967482287734697 -0.0016793763790445837 -0.03851509366060668 -0.00012268625051881088 -0.009697596380190632 0.0042712434388541 -0.011260425411049546 0.004970836117698774 -0.0010076923282777983 -8.486111499994564e-05 0.003049671661540465 0.0025207550522621247 -0.0019397657883395425 -0.04243316440290634 -0.011743211148903754 -0.06857419987945157 -0.008498306438173842 0.004537520726308308 0.0243092251540995 0.0024570383398181406 -0.012035926820286313 0.0062189644896983864 0.014471980840751186 -0.029174207102926175 0.005080892278694016 -0.003497176658425083 0.014910818708110618 -0.0006845089845981533 0.008117678764527625 -0.0157836835150702 -0.028329699523896856 0.00428661451573209 -0.012463897623239184 -0.0013610823078531453 -0.060557333764491794 -0.010396741489513417 0.0029190337661422205 -0.006019061267748427 0.04109197953596411 -0.011456262780116688 -0.01646582971473798 0.012410424329335257 -0.044737596112018 -0.0019866393100453905 0.00012501492332628317 0.00572967385175982 0.0029503036478200073 -0.031733143289637056 -0.01301416725162774 -0.0012125456074763008 -0.07197618561452668 0.003384352197969065 0.0017294624307107043 -0.012860512446670747 0.021020946984001476 0.0018077553114856926 -0.04233486655201357 -0.005825384282909241 0.0062484391754331625 -0.004777506786436625 -0.0010579343716576872 -0.01060137638621228 -0.010748875828026527 -0.0008292699935870118 -0.03386864534727341 0.006166554523362677 -0.09730754017336007 -0.00616054502241159 0.0011348137930005109 0.01131878669039299 0.008483624327673134 0.020457409697003825 -0.005234445098035501 -0.0013419012708038025 -0.017447173208920752 0.000725632670654619 0.0021240515935634363 -0.006569664894492178 -0.007858937677831968 0.0020592699757422395 -0.01423501498297064 -0.017151770559791224 -0.0006754723522126582 -0.07394161722468695 -0.08065140210149746 0.007238534765276583