# vtk DataFile Version 2.0
Really cool data
ASCII
DATASET POLYDATA
POINTS 1132 float
5.50780887890933 7.04523311567483 9.08010989515139
4.55925389862413 7.53750899655618 0.24953187079322
4.8550133201978 7.37033271127034 0.06735058536496
5.05229610421805 6.87515056375233 0.12818980647648
4.64409819191215 0.29170585314688 1.2469126743445
4.03712937362635 9.39527545009765 1.56719969414519
4.20794862430011 9.83945078241696 1.68854815397171
4.92819994800823 6.1445634625011 7.15114883732724
5.32807514985475 5.99206465257795 7.02884477678743
5.79226400311244 4.73556739005159 6.74259648927466
4.262615624876 9.83354691541667 4.32894057917481
3.99987614795778 9.04581522069346 3.66516151252077
5.11636612778776 6.04959287837262 3.38941076997745
5.28776665566209 5.07255872830044 2.57236538315341
4.599102546067 6.34956317500749 6.60966794053688
4.24785849911316 6.89603349716422 6.96250313689007
4.83482207013045 6.64297949212058 6.16172910723536
4.74320405396472 6.63722508174968 5.74343790193066
4.45084863954858 6.3246241465114 5.56480885572189
4.48956662623896 6.98147594938201 5.54381427176982
4.26904067448559 6.16521924424678 6.53949374337891
4.63033073021707 4.6260490811741 7.90782078334149
4.87661609965179 4.57212303130609 7.65238920549087
4.82780689875917 4.00429527637538 7.45636063105478
4.33059270432065 4.21107521815464 8.01814858948747
5.18093407335664 3.3620006831685 7.88135370581371
4.67772092511027 2.18335993205382 0.49424555397115
5.00911470945654 3.1900799489096 0.33499566559722
5.02815713686806 2.47990052393098 9.98715498070921
4.98055964288335 3.09560009727582 9.95811478558866
4.50409076812354 3.42885627771773 0.1300128407719
5.19875859761687 0.4121618560076 9.70905990938493
5.14650342688857 0.59981450704206 9.85719225076382
5.38832476795261 0.51990617086712 9.41998244336679
5.11618618080511 1.84801687797849 6.82164169759955
5.27422584832617 1.71522507875726 7.21073505514388
4.32594452422236 4.94414308804909 7.76397642336795
4.10113096458125 5.68332932532325 6.96212253305054
4.41392369303203 5.59347162489463 7.5263557002245
5.70924386320013 2.17797139820018 3.51946118763012
5.36623068531955 1.36272700172008 3.8524938243646
4.02055475623936 7.09714933525065 8.15161263907772
4.48683684451817 7.21213245160573 7.81391372752712
4.35193932066924 6.83585081068418 7.4590619616224
4.26739998940827 7.40306535334929 6.78419417512155
5.20900523546902 3.27460432634856 6.64625235138061
5.21291418144603 7.82196743009544 6.47664973691019
4.72598746586822 8.52042331937718 7.2941503896914
5.28782548807535 8.00476726995919 6.65697602030079
4.98578162694096 8.5736673313968 6.69190844834318
5.18748267808612 7.76933229943607 6.93116639546651
5.11437048254091 7.59521093437962 6.68427860585511
4.35889062314507 8.53801251282635 7.32030833026703
4.84960067373824 6.30865456176624 3.69286952586626
4.73719867918696 8.83895885789375 6.23313730932582
4.72109916733147 9.41558451115862 7.41753137930849
4.95172060970314 0.23361397310867 6.37090678228823
4.71289501488166 0.62652451881105 7.3722231979968
4.83589093947632 9.69610000861818 7.72369249968668
5.37016369409848 0.288948117756 7.14908764932602
4.32543390561475 0.6251972742592 6.84933226351085
5.1498884754487 0.57746742733249 7.00525283611472
5.0953444982292 9.79414138263918 7.68106614376395
5.13339745092329 0.17412201645248 7.6363630298006
4.72016692558603 0.43773413110536 7.61610254739736
5.27612740210534 7.13932600540627 1.43779671894869
5.06885983306651 7.17579849054713 2.10357328144712
5.00472541675551 6.0206045151734 1.44785273655324
4.30686700491711 6.51536924462092 1.95861709166052
4.37771165198433 6.18626614111006 1.83869119682408
4.24387200936002 8.88585739661939 8.28693490952242
4.86653386923599 8.93548995551638 2.31489150938994
5.08906773588151 8.68666161903688 2.65490713309276
4.31665228554148 9.25464035807027 9.37917780457292
4.60280914764548 3.17328703810268 6.68211280185533
4.4073735621447 2.94750774534246 5.59162080982832
4.28255231711827 2.67646200645409 5.90857076853764
4.27676095764435 3.10325855474949 6.28850999810603
4.79863833266705 2.72168037686318 5.40829465014995
4.36654379518519 3.40210492458117 6.15087844883033
4.47046955260047 3.41527083146262 5.87764682827378
4.45134268870132 0.56164169133392 0.6645268698942
5.4188925217549 3.92768836504053 2.91215454359835
4.82591962287406 9.45163867672387 8.18131875501784
5.02683751717079 1.89788576520925 1.57922587336582
5.44441624242634 1.46475244580597 2.15666388427355
4.92254506305059 1.81533328553842 8.04874098123786
4.71474218955858 1.61103623882805 7.44851848468246
4.94901209378572 1.58638339973737 7.53282033985024
4.66624823672282 1.87284622874556 8.12112650733508
4.49850697676309 2.78127720471903 7.74984008453417
4.33690458076597 2.3619609267345 7.9982152640071
4.9176227939558 2.85701903241499 7.88101302600243
4.81125920862188 1.85240786038034 6.85726771242909
5.25804537697344 2.90139848565205 7.62478956612514
4.72276703588833 0.44267998847799 0.87590599056077
4.23122373794951 9.30515611315085 5.03985282175699
4.35427181205218 1.22226819839748 5.96701878538232
4.672739764184 1.32650612372506 5.58837124767706
4.40036238977907 1.7776414918935 4.95803105319726
4.37934839322663 1.39902918281711 6.50343349369288
5.62506580940746 2.5128181098522 1.29830020671559
4.65656252583795 2.3549909437995 9.01549330879395
5.04771212579891 2.10467313453014 9.3421374223775
5.02872612151137 7.68359028075637 2.68264921503026
5.18161054761967 7.72633977346778 2.46196772561945
3.78449525868657 7.41393266388996 1.88864235969671
4.98690117363648 5.81230217406667 1.25165319669878
4.33274328971876 5.87238963584884 4.17604558366374
4.29556785890587 5.56575569838219 4.11348513601717
4.27076440734769 3.18453540208203 7.88565096488588
4.13481701799241 4.67536221404535 3.19991892938042
4.30709040400996 5.45126001269431 2.82141065062009
4.26208578839496 5.19164692140166 3.17195311246086
4.53879622102573 9.84561850678379 2.38395693646064
4.92724306946543 8.63330201329009 2.85989089847915
4.18303025223412 9.60188273344835 2.56101578489134
5.17773787091239 4.91678390692378 1.09711835269522
4.72531619957819 4.93495662528652 1.28977587744367
4.26828541521801 4.19602599548748 1.04175369450126
4.44473526552385 9.05186886058135 5.62015946577152
5.43129639839719 8.61311969048721 4.54937757189311
5.03665389497877 8.92018471083377 5.71274237913356
4.97487308492982 9.29463717506162 5.45724726083735
4.83818516384831 8.82150041542804 5.76277511883886
4.49613263237639 9.30588596922219 5.46629960960939
5.20504187291947 8.22201178108897 4.66601836790665
5.34740433823507 8.24561795254649 5.21454213755632
4.15860469118228 8.81389860189182 5.23468672735668
5.09610325537677 4.4213194476101 5.77290609163942
4.13012465449547 1.22946981336183 2.93972000305174
3.87364385095364 0.59885556215825 1.94417432900314
4.58499609773498 3.50582163437219 4.4647909125281
4.21210404772522 2.26708310148429 4.58605564503936
4.62640705814183 3.50694560950596 4.69078486548782
5.09711295691554 2.7614875619378 1.59258408138368
4.29124153526011 2.14595010626574 1.185384574551
5.0053281404902 3.16420833717327 8.77659817990411
4.22664699504381 3.41192388027957 8.91596134580149
4.79472968955385 8.12851848768591 2.97380132880832
4.31491455674667 6.87565550198555 3.38803296027415
4.18783533378598 9.89532820577943 2.16782465623822
4.19521851272944 3.07083380284935 5.27263173850593
5.34178052712777 6.10286045510778 5.15315968516148
5.10621714842349 6.10403020110193 5.44846302359162
4.91629036910617 6.62216695133032 5.70950913116474
4.62562523688518 4.59971782934152 6.69660379604283
4.78452138160594 4.52717266044716 6.80060612370888
4.54865271038103 3.77499260435245 1.4788274107495
5.12667966559015 2.80620927353911 1.64852544286906
4.81455495578266 3.4833444760189 1.32112202678934
5.05104387018302 3.38994061107351 1.59029064126846
5.113824240878 0.35193787661583 8.97410364689223
4.36779820561151 7.87222596101415 4.83326247340925
4.6768290303252 8.05439220233233 4.48348475956278
4.52072197224692 4.47156129850372 3.38426478822327
4.8095775403631 5.16779189147893 3.44190453912777
4.91373341531054 4.82101894362486 3.47499963829906
5.3415968884914 0.67201074758643 3.46795274487088
5.35541753014331 0.99315489674605 3.37115843279344
5.36595916648245 0.631422232089 4.03915310941406
4.97745494811436 1.10872526099439 3.04890588806737
5.40098340574162 1.27019510991891 2.63604834424843
5.1771366579119 5.39695728148595 9.44549314736229
4.05814059298915 7.39069422538468 2.79145046076772
4.42915339363711 0.08775781658641 5.67536996468177
4.33412430451195 7.00556828286151 2.92845275710204
4.8149847427291 7.72735795118071 3.87189543247592
4.93581545222007 7.74261689593329 4.33866148748757
3.82982407550942 5.58652251806729 3.67933000395724
4.93172900648754 1.30986478444531 5.65336176172626
5.23044791763776 4.59042350034481 4.15267450175087
5.2353935068333 0.82227949166066 5.23534257194001
4.37652786459034 4.50220204832004 8.98593374120451
4.58838413358587 4.08461542132151 9.5656344737408
4.33127091781404 4.20927007835713 9.39291504193226
4.67129874847781 5.93666079808527 0.39708740138646
4.21639971909803 1.64139171798771 2.4274608227607
5.46285907154597 5.28863812775823 6.80732128380975
4.47762919629173 6.02507318301604 8.83648893737275
5.12568215595305 9.29043864427985 2.2647279415802
4.95959727390938 9.75750931287436 2.26311170406947
5.24948105010422 7.96080382965997 0.83604056295526
4.2568478214495 1.44849890540993 9.03914831765396
4.38040444383434 7.70523761190774 2.59470538594508
4.96403159666189 3.7902856462156 0.9227009327731
4.58740048984461 7.61438971133857 9.70729504467565
4.41454174415401 7.7072594871396 9.85203938774533
4.56959575330239 8.61146180685172 4.03700511289338
3.88597493278906 6.10531050877193 3.76258140577688
5.51718338811762 5.25967708305986 8.45730905985436
4.92181025568274 0.53332172750172 6.52350016507076
4.8492505560053 2.14283901432213 3.12922040289024
4.46278928370616 0.60783337381912 6.54818251251373
4.51149882569637 1.16882419944161 6.24882471663605
4.77584451733892 8.24824515205535 4.60473166703565
4.54587292240796 6.34216341248627 0.20743747681008
4.69652581015845 8.60304528144926 6.37147264656869
4.50100532331998 4.84569883049317 4.7526827017836
4.52159180772332 7.80729351830421 0.87479786397015
4.94525841136325 2.12574092329113 4.14842567766605
4.86396172841092 7.17455717183308 2.76332380604999
4.43063805714541 4.12713222463375 8.39416291859908
5.14265072674972 7.19645331350849 3.20894104230226
5.18691862710519 0.21066772151121 6.06557725532213
5.04865492064989 0.09508169778346 5.69402683482887
4.21636104145655 2.7780041943425 2.33889428242516
4.14939598483771 2.4832198355133 2.61459124712672
5.24549685249255 5.66557450519005 1.98950825496808
4.78485293280016 9.87026189701008 1.43914690922161
5.30933730548807 5.16153558627096 9.26566504735198
4.95837103069292 6.73667968932037 0.31046727393762
5.1582815934591 0.53215874494747 4.16160895492868
4.98204292027336 8.04844158477473 9.14227304025182
4.48002822653936 6.20417502633724 1.5296229608295
4.64957101883881 0.31241282604806 0.93066394623979
5.06063920504804 2.15848184838617 9.75001343025179
4.56303090374075 4.07353414481829 3.87610573213432
4.78110927118728 1.73997827526982 1.28652434191532
4.55894052409517 1.3409878512636 1.37522920858828
4.56959870087991 4.23269126397267 3.15588084191192
5.42931490081881 1.60089963171262 2.4756636828378
4.73142921522074 1.59519511199468 0.22777261575426
4.14170853462396 4.5797382119118 2.39790218855829
5.01129274758506 2.90199973005043 0.53516226827649
5.62720886964532 2.60996772002994 0.85972841224073
4.60326225489538 6.68157612652976 6.81649198650323
4.74481958725267 6.95620926794942 6.55555510113298
4.32941011480453 2.53647744579132 1.46217273635372
4.82848827430468 2.47601248745598 1.73950508952727
4.74648703128056 2.01037604570332 6.82459713895272
4.23157023037048 3.07697328739266 4.26588358186804
4.68499783938392 5.55627975476154 9.30646115220175
4.69706564704 4.11374661068269 5.53459840938771
4.37119491104797 3.55985553973441 5.80737679994453
5.10927228971011 7.70241448462081 7.80408376616
5.38618541787329 4.38089955591113 2.77314262828104
5.31383990352045 4.79514765862625 5.5884842549213
4.25364919240128 8.8060736315163 2.0952776046853
4.33916630612662 0.9685596962063 0.7166114661031
4.50668113893702 5.07063393606866 1.28585078072734
4.43957504051208 9.05569029894528 1.27595781471716
4.84614795256668 3.29314803757532 0.42285225573689
4.9589364564274 3.72766177258732 0.58062260930313
4.15593821014922 8.76258925971171 0.64646727715834
4.05137351586119 8.82425551762756 3.93491030948988
4.89434262885336 4.55035486643494 1.41272125414723
4.62575144035676 4.06336989389043 1.21191865626001
4.98457551642112 5.31859147900766 3.26439074375209
5.30063185901292 5.11400956685444 3.10095789547372
4.13976343279386 5.25330897201027 4.45826757805176
4.93433066873092 6.56140536787676 0.20434080641819
5.29594531728 7.80175261607177 4.41651448173828
4.08283748881453 2.78919810231948 4.71685484394758
4.28477759965065 8.84140318520134 7.5479156271261
4.42097941770885 4.52470402540919 5.94388588631822
4.63028661828529 4.65341634569712 6.05947515233556
4.48429591715422 8.20515532901803 4.03422360163324
4.60521353038407 7.98928932611593 3.78119630969922
4.80740437214203 7.25971110938884 1.77725094629825
5.0012763510759 7.55918415103452 2.34267333591441
4.89170073657838 7.55418853554383 2.58773897569234
4.22585013353806 3.00076722756849 7.2787611594924
5.17292371700039 1.99899570473956 6.78576139323008
5.37613187779747 2.2920972977736 6.10415247354396
4.31499594531712 2.32852041259847 0.69654926625331
5.25981425989249 7.0533336979593 4.71136923026648
5.26275310081783 4.63058844205166 1.22538683107108
4.68648570517855 0.79166423359683 7.50205320597103
5.08149598722499 1.28991973977879 7.56885665974978
4.77105263289621 3.03877566649574 0.67648278138248
4.33150529061791 2.84089665754437 0.78672681828098
4.4695093832966 9.65869367104771 8.54537242645604
4.81790258307214 9.74834048682563 8.92589362066297
4.20181686593281 6.61847001273035 0.45697908177259
4.93079423676642 7.25194871023401 1.47312285456551
4.73507237288462 6.95596646300318 1.2566353556299
4.6348126991574 4.94153167570267 2.06019875508996
4.6840257581511 5.03267399795383 1.37204020153396
4.15342527780939 4.41009172815322 4.21629732769678
4.80869345215723 5.361042147045 3.94569974574259
4.69896522122486 0.61315898901698 2.48401393116602
4.52481773212134 1.54412424082308 8.93394758752862
4.57053559516927 1.41066085135554 8.70086891250638
4.9222840899552 1.50106044388721 9.22954235295154
5.19971648243333 1.26652110442893 9.02205642821008
4.44666414729125 3.81280161022607 7.73850429626858
4.60108014551183 0.95491185465152 5.1778293855721
5.09405120190499 3.27961707968541 2.72593828909059
5.15929916311738 7.78046944386406 7.89925137834801
5.04999583693233 6.6217016249577 6.05176813339359
4.93005275262829 8.04085568108961 9.46928444199074
5.36093865305651 3.90511991690311 2.19892417947969
4.2361446755816 4.20980832914501 0.5249431614956
4.02874680715301 3.13251084432339 1.30580908748591
4.22132695073366 3.68805994535528 7.54259307969549
4.1509195313186 9.62565442043956 7.21011728836491
4.7814265502677 2.7114650469411 5.22317380820483
4.34887324981339 2.99649534303457 5.04776136266738
4.34323103812653 2.92320753701268 1.17790994857224
4.7213624007019 3.0952639649227 1.18000901795891
3.85609613032493 5.43997232283211 3.35805274600328
4.86851923118623 8.69797362384526 0.47612984055345
5.33389721176481 8.42778066216437 0.75882836631614
5.27656369346798 7.41334738055883 0.14084379029745
4.25324627342845 6.0020391396052 4.65656337614139
5.25873158477583 7.46252290048758 3.21078732040816
4.31294112386621 5.37693561344732 2.42995207855342
5.44545177593652 5.57020085551071 9.43890858841745
5.00549874323315 1.67718668655879 1.91401403801631
3.8940713426172 7.35586013231511 3.70808256023735
4.64063760243843 3.26027004487267 2.98525426111544
5.02739919062635 2.5096748841057 0.38600464698784
5.30430662510391 8.17934261983775 2.29045640389448
4.96592891138631 4.66893543063772 4.02044352591836
4.53709980145506 4.30676876556826 3.87789638793044
4.25514867691165 3.88731660394815 4.16211159019327
4.69196321293518 0.59622010532326 7.7392280822711
4.94076065739768 8.10570738110722 3.42094253152012
5.15163840048741 7.7959486311129 3.53575020859745
4.01766755394595 3.30821677522821 0.2317394052398
4.97387256139383 6.86060257792373 2.40831841634108
4.62585984175074 6.55054097489469 2.38900528290944
4.72835464152153 5.56538007571754 5.2461565567731
5.0715266715496 8.90363868898005 4.32560770107979
4.35678805928167 4.32551463326145 2.41418512218399
4.2419268647469 6.68052835343513 2.76604844110081
4.44530622953527 4.85852047175049 4.51484045524396
4.91838171346225 4.88724212567505 4.22502914258596
4.27329059679076 4.96718780082488 2.19705814060264
4.62400970925508 2.19677976146471 8.22131857204683
4.47740188341205 2.18211350784181 8.84713800276705
4.69607718083856 1.14116171292394 1.09048648732602
4.67925554362631 7.19349590958108 5.35179356077394
3.78345372319633 7.07671496476933 1.72247901702213
4.57185742776891 5.56236090574369 2.79058220598262
4.67458752009195 6.01707919358839 2.88667960026974
5.11527771242663 8.52458916234173 7.84424852508639
5.26045205050924 5.83978849285123 1.85890559452415
5.29154913591278 5.68567944687901 1.85299056531392
5.07567717557546 9.46295913966282 8.31130270823082
5.0622651293762 9.67721853462999 8.82309411001847
4.85996595966377 7.84072765955432 8.95251521558389
4.69605867689117 8.99259939222622 8.07560455111335
4.94082365876442 8.76052500890587 8.19770046011139
5.27960087207518 4.54805076702848 2.57929423488937
5.27605116900021 4.4678192344054 2.79702103996928
5.30250574038239 4.81323366277252 3.19659085735611
4.14263981583134 4.19024587841942 8.6911604990574
5.52569138105386 5.97930971034411 9.29741532451222
4.30106510683774 3.69856554916185 3.153585592717
4.57992169489939 3.95045985264119 3.2980785881739
5.01467133321163 8.995457920462 6.39975866636459
5.26673201150264 9.05593068000486 6.10340530041831
4.55053381082751 8.47979009410799 0.4248638469478
4.66781881017378 7.90092043960107 0.6581840232761
5.40686975213095 2.98749382067559 5.50279851068709
5.5201601289517 3.08518357289382 5.10226866673706
3.93717606524431 3.02057513806302 0.57216248801155
4.49344890473439 2.78988486793256 3.95789922302318
5.23569582924101 9.29114963603916 4.94291860151123
4.07414431822106 9.32736253534887 8.60610177794622
3.99949472947685 9.22901138364235 8.86309944278376
4.98520049873237 2.44112539378413 8.20749148806543
5.05542627116221 2.63380873553801 8.73748666811895
5.27454306862032 0.89010935745326 9.74812535335668
5.18568833771569 4.31843887024973 9.3292249309047
4.76444698417291 5.82579940370808 7.55471898482135
5.03400890330715 0.49521186404063 5.10308137584042
5.14231420289061 8.77377975943507 6.67646211605002
5.16964465807532 8.99098447385702 7.11146709713847
4.83851529140845 7.17093309597099 4.6148070100162
4.54190526910427 7.23793374946592 4.93389923705635
5.22199546104147 0.41491829640886 5.27383854291402
4.88081549583759 5.28974889725007 2.26653893760789
4.59832234969541 5.50755849302369 2.4390883102321
4.28688557989544 1.16198905233865 8.68080877746439
4.86833900412334 2.31847598803239 9.88640145587469
5.23837649949115 7.26545673647253 6.66449444420689
4.24525523402291 0.76903150459514 2.2678972189471
5.3424585061612 6.23546316574402 6.18685596456475
5.19567775331361 3.79062616182901 7.52163760702515
5.38614885354137 3.63379529273744 6.9930000751799
5.3831867655887 4.68256595050235 8.25127681874993
4.74407155350285 1.88570374470346 3.59363191857
4.16650766063726 3.69907443267159 1.50266766207921
4.27558588703083 9.1036406632674 4.62296791592911
4.69763523769064 8.68936211254682 4.33853729219093
5.11836943583873 5.96157124388236 6.60714864140979
4.28645131493243 4.22106910673968 2.91450456385146
5.44227760058074 2.28037811189074 9.24676294284842
4.48453123433537 4.08903760516185 0.24983550544107
4.41865116054384 4.03104160392504 0.17309522589498
4.94636212687018 4.13343802754446 5.52447810715195
4.8137969696307 2.4943353922242 1.95347272733866
4.98765810791978 2.69557566257646 2.00768785235561
4.49302373756082 2.32087226305301 4.05984647036375
4.37559422674153 2.16243925905629 3.73642675664208
4.89617466336059 1.28101853529749 9.70830521665755
5.04804742965202 1.44955953445428 4.20054419493197
5.2569172139171 9.22300273027316 9.12779186073828
5.32432347708733 4.27684991671717 2.18910658645606
4.47566867821311 6.34033484377378 9.42146183118562
4.67627382933009 6.00866835231376 9.15359263509716
4.32779722637515 6.44675615003691 9.30834384359919
5.52937350578448 1.06029976227878 6.92300380237272
5.29204586374545 2.87048564725128 7.37599034171343
4.31523805970682 6.32289858165063 8.73022999629743
5.3011237471157 7.74805096070447 5.67976982340055
4.76453346995655 9.17033744367429 1.14335180102545
4.72720564396695 6.11152382859704 6.74433538699533
4.34142471723474 5.89907806500004 6.66773556191445
5.11008062668641 5.48155618411743 1.40296312406423
5.4133728959329 5.25599525656438 1.19636127566819
5.39886820123892 2.32641113457526 3.05680446526572
4.89626856184921 0.73634496402827 1.17031943386468
4.72154233826917 5.92463148458308 7.70932606142325
5.40103883992045 5.92676100910832 5.87115234623306
4.36885407959522 9.76433884429624 4.52658404345446
4.97946348687876 9.81072093302482 4.39632694751312
5.03667031640747 9.38390543909016 7.12939220692552
4.21319207672577 7.31705147636453 5.9365748808518
4.30286839023966 2.54870287134596 2.1378952530425
4.22825243563629 2.26321998634586 2.41393386047472
4.66701175741106 8.63155568504389 9.40785963800772
5.44535122197854 2.56797767035571 8.91106478608541
4.97923352951924 1.71327286356151 1.00660109149603
4.6389445004801 8.96811804275418 7.6074412438839
4.866400718394 8.73830672950867 7.45545038898852
5.05006404792135 0.7257905739982 5.07564925073934
5.12891834165171 0.8577999711517 4.39978547224566
4.5542990023619 6.09259856611773 8.65589700626577
4.38540689209839 9.32325449987306 4.69971513702392
4.95460613728082 9.32543563050266 4.59071797082284
4.79294210849102 2.12729430583811 5.04404997976998
4.57744429008613 2.00106258524539 4.83288476785841
4.65061958037137 5.77657292524785 8.25418005492392
5.02131922068766 1.8837206256784 3.83608658205171
5.04136762593077 1.57202618777871 3.88823176255633
4.34675999108632 6.83542809831628 1.66826374394917
4.41932018298134 6.74446598459391 1.41971064102837
4.30200179808485 0.56071228803608 8.12782144153663
4.52688562167146 0.70541237724697 8.60007400944854
4.28783600976527 0.12733501516182 5.92712765363617
5.28674038598838 9.5890862976267 7.23776892458493
5.31298961695217 6.18948256341839 9.16964181328349
5.45835391206211 2.64607823543462 3.05773672571517
4.43461485293025 8.34431970832091 9.8545703000305
4.72767228423832 8.44914576992505 9.63618550952311
4.84956747875192 8.40904644378934 9.02097809419978
5.43203111002835 6.42273207906036 2.43218100779864
5.13014123693509 5.53282510097787 6.43902341565044
5.29121351472385 5.51635135982023 6.03137257775276
4.90460457143097 9.50033358173703 6.68878339156204
5.01134603740456 6.64355342387626 4.32929160038344
4.81583999036289 6.52782115956308 7.4586190830431
4.90516561980394 6.50903877892809 7.26920134889207
4.80006123121619 4.50462671215292 2.21881515476954
4.91142964198962 4.34450856291627 2.02283903417235
5.43331874249579 1.38343695133234 7.25736788337862
5.28589704101738 7.86699920334997 1.17449548563229
4.94396416098934 9.53474322814424 1.17947783449585
5.2753412499382 5.03923864152522 7.38121159368656
5.36309960280787 4.99247859068596 6.96858261815351
4.07912654612529 2.558250491639 1.67280209065026
4.28868485763814 7.05107393272225 4.89637912388846
5.42801689083113 1.14803749888229 2.209195273712
5.26560770198217 2.98915988638162 4.91591564835687
4.94007211843356 3.49420487971467 4.63902151939237
4.45109234534779 5.85085011215618 7.83577436166981
5.3502234127923 9.45281478594072 1.57665802057418
5.14048486564439 9.83464100581227 1.7213453833439
5.46909806285636 2.62848762648867 4.57195276658442
5.39114912578754 2.67611836565278 4.23793594989552
4.90637504362281 8.255330842375 5.4501187213175
5.25456104540029 8.96689832375306 8.40004092560618
4.56782606266988 3.57071168096578 8.37128262327397
4.9663433415618 3.39727057205174 8.43492711657376
5.50829298588588 0.34237398113639 8.17124400637266
5.19430587727739 3.5393165190816 5.91537250976127
5.29232063135584 3.77704806119408 5.78509536149787
5.30852579818698 8.85351097237358 8.81416794318529
4.36082811964707 0.4756932905057 6.49488948127584
4.52030646039649 0.17065196162864 6.35546154197901
4.55352200863905 3.46136627897485 8.02197407656348
4.93221666945404 3.27988600677099 8.04254114625561
5.3443206108742 2.25585527022597 5.89614205538564
5.18335925663158 5.93144055754883 4.95702984171584
5.52924209201425 7.70849788040496 0.5905189693486
4.42998398027513 6.1261785533368 4.76490306668994
4.44890085969931 5.05184911243905 7.47676238750063
4.98484088631201 1.46485413492175 0.88837045786219
5.4513531107419 1.29620006099708 0.8816103617815
4.68938282127956 9.436400177322 9.40714426400162
4.95055518376687 9.16147989872486 9.45409074084671
4.55585475047895 5.42348860273893 8.39549240771858
5.4481002961557 0.84565612777507 1.0431425820928
5.29625578119767 9.36954001320695 1.40786006860318
4.96799452067675 3.04426454391264 3.22528729142858
4.89682165137317 7.72290587895118 1.32099314610117
5.3507001484906 4.60300884305611 7.82673752521262
5.17943957393376 0.90451921480437 6.2532171650367
4.98304996524236 1.20204898629691 6.14607975660267
4.87596429917302 0.66500149031077 1.34606222349497
5.30210365777915 0.60632920768828 1.58499084082049
5.33191155986239 6.71992051991873 4.47391925135241
4.60513239582789 2.05002000449828 0.22560431970872
4.83838547364419 4.82177754779 7.39416858991574
4.79766780839512 4.69843276707044 6.89347100834863
5.49416816976793 6.2073395016332 3.25187815111028
5.31004672059613 0.77433014330064 1.98887523094117
5.15395149355634 0.88130843389413 2.06572607997145
4.11937975855191 9.65841288451642 7.10499551367393
5.16258080535363 2.05168834672958 4.71462363961219
4.96516496774823 1.92739831381896 4.48763533291799
4.46610632275713 3.25592506976788 9.11642364010333
4.70905566450276 3.47736924886917 9.48708107042104
4.94715232501432 2.39484993547328 6.40194168996705
4.90649809075534 2.94999881433811 6.73136072591627
5.02615482400735 7.88526628937292 7.89615877430952
4.63542750876469 3.26369912437161 9.79392707012073
4.70567319406778 9.96981100266495 4.02170428093318
4.90496931237927 3.292041995113 3.02939236858623
5.02094226213634 3.68591631884242 3.2271789215354
5.05204773379038 9.00506389283463 1.34912046642845
5.41526001451253 8.61048162572625 1.17211918226453
4.98517228282666 6.64848119828518 3.7786238279
4.72191376337314 6.98444413695947 3.61975983257843
4.4462907235278 9.64944543589651 6.62377112898404
5.25577211996908 3.85906421051425 0.83348436390321
5.47398036354922 5.61822269818522 8.22371525543405
4.65449136357219 5.28832366172123 6.37588911554241
4.29017891562958 5.55432399534687 6.48376554537362
5.4853671651451 5.71515175302749 7.16145809931707
5.55047406802492 6.28948838731252 2.63833312103721
5.3944736344674 4.18986389527262 6.02651929647879
5.35520331992794 4.19855314109212 6.48835291129159
4.92022743400291 2.71615736651825 7.08103038691592
4.95187695618009 2.16974688045136 6.76265002781752
5.39678723918032 8.23536805521235 1.43846550107716
4.61707362098126 8.06748756358495 8.62389225481642
4.61348975729983 8.34610957785721 8.68260401810618
4.24318885368476 5.29014046618576 7.97825747029859
5.6247493126376 2.39318403468845 0.75707386091194
4.29787613963278 2.38554050761635 7.37708568700792
4.44352985847482 2.72188841673262 7.42241035344805
4.63033049846034 4.75401709158132 6.77472544672133
4.64561852839231 9.09224297348756 0.72178991014643
4.95378406049943 5.86684551663552 8.15276863393097
5.10072656404624 6.20430037840815 8.37648740399604
5.46668826031698 3.33319768980497 5.75585347624276
4.50827823606056 2.35939088732633 5.95117045169186
5.16081639028669 1.72580470031603 5.54044779488239
4.24465951985473 8.47063511717122 8.67730787882443
5.46738028677609 4.23272127663905 0.86333431787591
4.81170650655753 2.30193860525236 5.65770582584953
4.79602853739756 1.97464446111697 5.42447492069654
4.19524995237887 8.95397494707574 0.72951583759243
4.18333820716655 4.65567378093209 1.05901516975745
4.51782469860112 4.96703906234179 1.18140333707657
5.06441128748297 9.41210303455407 3.45588213367204
4.67639921842947 9.72149953796431 3.48830237616519
5.36037999136524 4.78737592710687 5.1228233138691
5.31369295997428 5.50760936892164 7.49756153707579
5.63488771807487 5.50533535655527 7.9144116753111
5.37553693014286 7.26175356328457 5.54960162876281
5.09297083393901 7.03414326436918 5.40002104964515
5.47552199448528 7.72310142735349 6.23396951976711
4.19546127706633 7.98435907214967 7.46110664287581
4.31997842052656 0.69013622273758 5.27322261921539
4.45115361496543 0.38300274291784 5.2680657542911
5.01989902463968 9.84879048520067 4.26504014763794
5.27357513045253 9.39678122932995 3.79831981888698
5.73337763103961 4.35646009257933 6.50733656118271
4.54675294030401 1.77443323891919 5.44039589085879
4.01389030129372 8.59781158111885 6.86830478432033
4.27612206881278 7.69761657129553 5.88249293329802
5.29132636789317 1.47995137182939 6.388179086763
4.15422147400463 8.61697565378283 6.47984247668062
5.35425163772278 6.9680729833578 5.06936899978557
4.34879403294151 9.20283299816459 3.36612535237283
4.35771451592804 9.5661295421933 3.41774072594587
4.73987931970313 0.37586109344853 3.91057256647648
4.28443020865011 0.70457697507899 4.06383244448056
4.7773035308411 8.01956107581733 6.12132953398008
4.3750956137194 7.81767618174985 6.16690854246051
4.04778731599079 0.17827242571346 1.54993311615833
3.84546616816142 0.42674583572986 1.85333602946267
5.35568945476635 6.79846167918359 7.40897647036697
5.50583746989084 7.11601211556671 7.19380908030729
5.50746246160009 3.33711001781364 9.55047317105992
4.13895299758137 7.91468141964763 3.66351739543672
5.45260566998451 4.05310810192121 9.21581433978649
5.3132091885655 3.5077169681106 9.30158102531775
5.54609737764358 7.06717452835768 6.13765151670269
5.56519249473329 7.21918810219433 6.31017532687927
5.25684290183351 8.99670364050794 3.89709835840437
4.88085814067181 7.94496556197505 5.68200689422647
4.58253692329229 7.75233345734164 5.55376519847415
5.34932864322859 3.32531234373483 8.92607779550539
4.25796253821689 2.95021791739038 9.53011100956094
4.28448749779626 3.04045026375903 9.1885830393435
4.27111361803801 5.2606479107614 4.99531986723441
3.96512136802208 6.69698544946374 7.67286864347603
3.94277439556403 6.30052702963968 7.86626789662817
5.29536455234254 6.00329503706953 0.80408282885198
4.32003026467428 2.56898970861879 9.51272040010646
4.36641727763899 2.53070783396331 9.15527243866729
5.08236898060705 6.03409067086323 0.42029033886812
4.18883379631346 1.93432577775866 6.40299982447021
4.53500804858057 8.25241908655678 5.10443919101264
4.39009735017694 8.06887406248003 5.13130685060299
4.33646121348101 0.98040090720118 4.19998548904088
5.38316989028619 7.56602455551176 8.42403531952502
5.22621254243917 7.64046276640347 8.82163478999426
4.49488178516705 5.29299744387853 8.94579400506992
4.33681446495685 8.72777046361361 9.39762733993041
4.38018378917642 5.46387968938873 8.74229988626315
4.45702569657099 1.19827642017011 4.75967351689492
4.74366733153285 1.12399850543421 4.37146519994449
4.15157407619115 1.88248017477314 5.78772860182793
4.20764018436825 2.14587422489237 5.98970183156707
4.67631755520661 0.36293062426022 3.33259230262053
4.08370287341516 8.66145090418746 9.02103141823837
5.18910707177778 3.74104260507361 6.79646946062332
4.72337759337464 6.97004539376052 4.44232108200717
4.91826797562287 9.03039848197992 3.4014824288699
5.06641152208977 8.73735623146186 3.03991530247696
4.79824766387938 0.41870576034766 3.22420825079814
4.69528240675271 0.80134451282804 2.97025783538295
5.01346120865953 8.83006452455558 3.62028160389037
5.1576119056221 8.55873628377394 3.38541233569962
5.09646217555154 3.45372079332812 6.58440030357231
4.67680323469805 3.39801719836356 6.61549421474202
5.36120355145122 7.23963642043181 8.49951763550256
5.24110423762145 7.29331679313611 8.82431563679574
4.81439927524485 1.87383317699212 2.77999319733419
5.13073932186989 1.90417671266383 2.53476257178295
4.93056179023997 4.51283977381213 8.61303185218919
4.16195183105732 9.34562921797879 6.27825255689492
4.25478190877978 9.08953136679699 6.16291716772809
4.18183598988417 5.04014714200996 9.069905226119
4.03501389038739 7.14806453998833 3.7674072796865
4.58945884353219 7.18055769772161 3.86256767600926
4.92366694132352 4.98995038940572 8.79990137469332
4.87252350224117 4.61666230398294 8.83193662403209
4.12036014972679 1.59327205313053 6.35471963015217
4.89001981801838 1.96425943420825 2.2520655224689
4.563419339393 1.93329779065195 2.47329416162148
4.81242537766869 6.02282824316625 4.08494991999827
4.35373691494392 5.75062975564789 0.88970610468365
5.00054528452407 4.72847450685939 8.41311245901919
4.98551339789787 5.0274552019685 8.56712043951911
4.22881484189767 5.88245377876704 1.22744014278213
4.42871554149119 5.70726532094024 1.1016914864276
4.91268289069957 6.22350223617093 4.43234256964316
5.19405453969037 6.11071037237954 4.5785903217678
4.32043184654304 6.86517940551955 4.65927711903228
5.65257861005726 6.27014514579013 8.63438567489873
5.60380127812498 6.2551907286755 8.51164695408005
4.76760676024601 3.9891989329365 7.04429901941827
4.54714156778036 3.86636985798147 6.98198294229457
4.45653511422401 0.38805769863062 8.86101630278057
4.81704953059157 0.19027864943005 9.05794485458015
4.249361851172 6.33708725574171 4.82955395270073
4.1197592574364 1.11390287319061 3.89941307260129
4.43916572188336 8.78061786142416 2.75571522185633
4.19843946612343 9.06834523926244 3.02296963537356
4.7689326029146 0.19195338421505 9.51686758557524
4.26480869298531 1.02631675134077 3.06986736539596
5.21278751117641 5.72992077732168 3.54220728027778
4.59237279233234 1.2205988524868 1.70266706952613
4.23623842990148 1.20162479867496 1.91161495607847
4.66649794345548 0.98358201833657 1.73955231743582
4.25791789743415 0.90199818492556 1.97753002142869
4.37431400001696 1.1212869336206 7.3890779890195
4.18588431991417 1.03837785921369 6.9913865772464
5.05735812864392 5.6876083857444 3.97252889128479
4.11746432542643 6.07557198388621 5.95788478629482
4.15369359017038 9.4267069444416 2.55999734805365
4.45735810144402 8.95839763148186 2.42870300655859
4.9017540744813 3.63312034992511 2.00064862550031
5.57481739916146 6.76593349875019 3.42563450057132
5.57846616984669 6.87041801641199 3.30127918074688
4.66246515552674 3.85202828486206 1.92575338477592
5.43263673884353 4.07269994832204 8.71466786938305
5.37032595009634 3.59485070504647 8.58316177677802
4.71150617658591 7.62392559987677 1.91397591342345
4.28929717801631 7.72129817334355 2.02309444991037
5.35405444312507 1.25908555472541 4.18919104900665
5.36228458631136 0.99077040467922 4.28441279836164
4.5262294480207 3.23062604662788 2.49347930452888
4.79253911520231 3.24421810891855 2.36726632559457
5.29599931828912 1.10327756869281 8.17604241028423
4.22915534925573 4.97238689373064 7.01459153349819
5.13252596402013 0.74259939470937 8.23398566671515
4.93780746804463 0.77521094081743 8.59896367668993
4.24087284381824 2.16286865936191 7.76476142262443
4.4277022793757 1.8208288614453 7.81413608555874
4.6243108750005 0.67537746109289 9.91289624578717
5.21564482309772 1.32279305045524 8.41463429855918
5.01052875954662 1.18282094484002 8.68771537644634
4.24502649447596 1.40269417417318 3.59565247950401
4.27839154846247 1.18754315945733 3.10580326850462
5.21366274062561 2.27193716088347 8.11896323741924
5.37769273945693 4.08007706306403 4.27198342407768
4.70401901446341 1.39380560548424 3.13568641271425
4.69669649974471 1.58980461918571 3.57506305159451
4.41541027973561 0.41104794270832 9.67376365170826
4.16278785644078 0.54383244495334 9.4059651929316
4.16612260753049 0.74835061728559 3.33719001227601
5.08039311561134 3.79662455693686 4.10597165375809
4.20196857561166 1.19556268021285 9.52721288760009
4.535837211288 1.12847498671095 9.81775961796247
5.08188857310929 3.0645837590585 4.07167616705547
4.89883912180302 3.49366611097052 4.40507143889829
4.38783432691891 7.30308141023436 6.55916836477895
4.41196327237946 7.39678112951806 6.58729234400466
4.41833715461314 1.32824852722807 0.15294262331792
5.2653585183444 3.19305135209993 3.80052898017034
5.28904836521207 3.58121892127687 3.78313993883645
5.37623035004994 6.29812829152501 2.44867392589424
5.2135644091358 5.83052272825883 1.99308047807731
5.22813694870996 6.62652377842211 9.4496584855993
4.87052349089922 6.68857124495801 9.53841573941602
4.76815695134621 5.96546929653258 2.19585198899202
4.83159732023182 6.2090603257238 2.45150685337695
4.97857224782734 5.30321723313898 5.78737234339893
4.63430714721533 5.18396332412632 6.01836446057817
5.20827633896989 5.01617957629287 4.93969397969883
5.06738839709538 4.82179439233079 4.77457591048404
5.12742411964435 4.85812035899428 4.36351717426388
4.72330875485224 5.59635824792332 5.41856855666014
4.3117592906914 5.38323842068805 5.79887596671648
4.22833569123576 3.54714144916067 2.40584574938521
4.30073270848366 3.83446914679416 2.13929731031192
5.61302786161755 1.98809792615955 1.29811803136852
5.60526502459202 1.94052848528225 1.16221986237047
4.78349764707278 5.85401645079413 5.18145724863589
4.78396683457199 5.89925790071292 5.32439621617166
4.60512267791372 2.92002202119558 3.22026346950579
4.46194627269972 2.56061901554565 3.1521113528594
4.27053894058982 2.5428356135357 3.41805686092005
4.32692522267407 2.80544665890618 3.53922556823528
3.94561512298266 6.34045860203267 3.46714317587798
4.24434919290773 6.47193746525928 3.35951240356763
4.21174589942779 6.37587879030431 3.09659085950365
5.35399752539543 6.48610425493579 1.26178401985309
5.22451878572133 6.77692386120696 1.19105375680505
5.36068537383898 6.70678455264629 0.91431960188873
4.46507825059981 6.87862917401871 8.66727192263785
4.01877628281422 7.00717972746686 8.38912759274263
4.09642932248792 7.9088102974387 8.56407818561962
4.00601403738056 7.53486279497636 8.83347193234003
5.14284543597406 6.81635308055836 7.7359587484756
4.99832997896448 7.12491521024199 7.92043928632955
5.25329603195129 6.72662461014528 8.13879512067282
5.10616282566567 6.99023729944212 8.23730640271326
4.54861044092899 7.00200227370589 9.26254996508752
4.41028250160408 7.32776089307567 9.31799160656234
4.45844159580075 7.37373021930678 9.1213366175583
4.58695316948227 7.1202395358746 9.04145322039959
5.06714436341507 8.24146832426911 1.74314425260302
4.40958066506691 6.96861717048036 0.56984488678279
4.38049672558186 7.04339184407866 0.8762738817728
4.01486751174124 7.73404937025526 8.16276094363609
4.30226460032775 7.32195821296093 0.46872836850154
4.27184478993829 7.40839445848392 0.72807614115738
4.77904309775352 7.92408485468956 1.63899767917923
4.43235895976123 8.14991011697086 1.59387153822489
4.32832939786693 4.44087124826641 5.02138698308105
5.45459267575615 5.29397487163449 4.77159634589108
4.407036996987 3.86642466803009 5.0226058285563
4.64784501908407 4.13712694076043 5.22003079211015
4.8190329040913 8.69717206956465 1.75532061577419
4.55983946048857 8.67724884610365 1.70168956144113
4.94190847362754 4.15864151163191 5.20398269175074
5.20574058322884 4.54906448385646 4.95175661891652
4.80126484274277 7.9325053492455 7.43486420351521
4.96270223663594 7.80090108664495 7.78871476429783
4.473346396656 7.76737166497094 7.47007943600031
4.51381141320589 7.62856581799129 7.75960905526802
5.24562744826025 3.80769191537812 4.86810553780264
4.21876610334947 8.10845718163996 1.04532052401433
4.01978431906236 7.98225403026741 3.14733908526777
4.32205919321944 8.06740545844403 2.8682906934085
4.17184461374197 8.33927260398073 2.75511648813301
4.609994430566303 6.645467130578821 0.34981390514425403
4.689463269854594 7.13504122405675 0.29901879864276837
4.555649959104118 6.619416128118647 9.382692844822088
4.529667267030765 9.47762651671475 1.3822803679294953
4.827038976123428 6.186370857856686 7.428602863101402
4.998005736850513 6.3444293716489115 7.928659175256963
5.163956441431054 5.837037728147253 7.2787464470657754
4.921812354607134 8.806246154688422 4.043706013691768
4.483561439057545 8.924138091645473 3.6708277200061885
4.667301082011488 9.84544163612067 4.307719199742701
5.173903925992387 6.178448096359257 2.8444137369443117
4.912034820649231 5.735509046806807 3.1746541200519363
4.937328217399673 5.310804678363332 2.7389872460336377
4.688904313826859 5.85230564292243 2.552741791770686
4.695501614586375 6.657582015401813 6.535861033852113
4.5024137182704616 6.365863853920357 6.0961703891830865
4.568906456871914 6.973003779633431 6.083379937949928
4.664533713289434 4.441114160926802 8.269255320527284
5.048275805694446 4.642444282579608 8.010267358362821
4.6224021160479865 4.245268843447256 7.754644701128638
4.856136925135626 3.6184960028908004 7.777061910496884
4.949721990092822 3.8792508174719846 8.518539026132844
4.681746015921768 2.7794805599366614 9.778071616993449
4.909402010626122 3.106000845757772 0.49237324274827
4.68899445535882 2.633871213808088 0.5958618891920416
4.401273377232433 3.155078092104065 0.4699960982372667
4.709304610302255 7.644044455149913 6.981979193327226
4.9920701274923776 8.204601677743604 6.463667277220585
4.77832941618538 7.730239350312059 6.407291752642109
4.510990121095678 8.148534383713928 7.396101800469952
4.997668420342684 8.160139113882948 7.0018130914634185
4.489216216901841 8.574989279991877 6.837664512645209
4.563160678094703 9.538889378806383 7.029098484803154
4.58658317453241 9.23655939679418 6.397770036809916
4.9152983304777225 8.756981830127376 6.47454783733046
4.978025734433823 8.719432322714948 7.045887688042318
4.886551872137672 9.09937983927373 7.344256463248979
4.575000181507608 8.721252757933545 7.44505319599139
4.64349094582712 0.40422286531277 6.4585880966255145
4.714563387066802 0.5940688643447161 6.859698195041372
5.017302312187632 0.42095924229147597 7.355805852127101
4.995149061486568 9.575763527826568 7.437890230853914
4.6882706007260895 6.86624174928193 2.05083812710093
4.869610418379598 6.5313733508750795 1.3511099117831915
4.582038554046042 6.285341196576411 2.1667344827526023
4.850773117711742 6.007804366710556 1.8106674926333834
5.041628199369427 7.031041259962604 1.3396521714872875
4.7525872025483 6.359253074312695 6.91816910005095
4.584813136968922 6.690064074573866 7.193175503390174
4.5460553251660185 5.876294285004023 7.101069500722235
4.374718293039201 6.356111007681657 7.666986334643794
4.483171946586828 8.79731417964565 0.59975334247969
4.592083302591163 9.042369316554925 9.409179957471874
4.587341845706387 2.7762078727406636 6.327277739345695
4.898315576823886 3.2499256340962064 6.651924079493308
4.997517911260816 2.320826399210308 6.002222499287608
4.957390889522924 3.157411163871737 5.675264464157195
4.561709790909623 2.601395924247684 5.70347250121146
4.760916927062528 3.4416860533634135 6.228758461035942
4.743582581410624 9.304808126296212 7.801117685802052
4.461900802128582 9.263230334393212 8.339066484011175
5.0484590176391295 1.2292443226607583 1.9646364438225434
5.2010946408173755 1.8559526630964762 1.266537840103232
4.7929517696037465 1.575327486157652 1.571532106282372
5.061712822912023 0.782110258706078 1.7450413385327799
4.71435355029063 1.0146128148916584 1.4040527900393167
4.882333249677293 2.1196043660832578 8.143528157220889
4.959746618777606 1.9759086738506142 6.810383594005792
4.973085104219491 1.722613891136302 7.174196657941044
4.736049972498682 1.7412856028589403 7.7930684797328755
4.539823282047957 1.9738430288892115 7.347727755209227
4.888329717319252 2.8080376922147035 7.52251229312319
4.672448911894462 2.5276324638234717 8.011575686931192
4.924322072078374 7.851784573973279 0.972902216386994
4.84478749229777 6.864727263455969 0.8530991261361484
4.622770264044613 7.364983478842526 1.0883165405328181
5.02289547743036 7.648568539675225 0.42374496700593167
4.7577338215323035 0.48962902440239403 1.113972853700942
5.098909571835695 0.9548854388550466 7.2714595975972784
4.811717580852278 0.8833095003727459 6.343960863171983
4.848778156914253 1.4917130797906415 6.4942377439538745
4.493109622267644 1.404427614971958 7.0379368514140666
4.76120999515296 1.280058109112328 7.488265335854602
4.556321682297715 1.3497899653902516 9.375985996725705
4.719950067186918 2.3393865762217168 9.443673076011946
4.725755671425089 1.9373924541763479 9.07365173488373
4.82511390692421 7.556515230628072 1.624868107913522
4.2871527832855785 7.321835101597454 1.8322844050500133
4.569716323992142 7.942530310111155 1.294796150297954
5.094331045790176 2.501619042475816 4.8939431685056585
5.154540493199915 2.898996540751062 5.23049025682716
4.796148407076172 2.367404559202344 5.351539836934166
4.755227663788958 5.101940157119154 4.941685803194796
4.661357621418894 5.701924822037337 4.058541855341312
4.54821636235812 6.049387561625605 4.422960903227301
4.5215425373708955 5.185173882972601 4.251464411528288
4.83078315643123 0.45807103021318396 9.733955928643883
4.691257026446464 0.649810651669154 5.179569677131669
4.612098780567524 9.402291961260886 2.39662917585769
4.6497202980210615 8.908808804263844 3.074349806571455
4.755873699582062 8.798893816149874 2.602821553875354
5.037269307870102 0.45860992574537207 7.879384666511373
4.6235629235041795 5.006625157829295 8.17096333054415
4.624035537486945 4.803188372151666 7.6390234779233355
4.842448536743487 5.306624283213103 7.471796465537428
5.015037450040442 4.758170960174225 1.2562505788393
4.535809764962331 4.561236704062209 1.1994313315310317
4.589613469763505 4.012698207081282 0.7552957599623616
4.953934764139367 8.244724962924519 5.007970016965753
4.7129897189793235 9.307586503974923 5.032791900260286
4.576581642551564 8.639003561366598 5.434435844859439
4.758116008331427 9.078815426225395 5.603844766838135
5.036268939579164 8.535275485031681 4.496854520021226
5.00748119359233 7.875724220529249 2.06520255177234
4.897261683217588 7.404654837711815 2.0343683692708074
4.638599090896731 2.1284314373785564 4.422969578769112
4.465937955866331 2.482099747477157 4.908463401247923
4.658148585550431 3.1861859319452863 4.233064264674615
4.762578599028348 3.500159558640835 4.549917184076644
4.79247733572773 3.1396541531155835 4.903331440821853
4.8809537505110585 2.5954400357975964 4.095156697600794
4.449257715833864 1.7578821839579923 6.588603559939415
5.182873596497096 2.148004039938346 0.761229003147486
4.608860241278803 2.022216317949872 0.933860965637362
4.651417342545479 2.159260815998422 1.4505625231426262
5.142182569525248 2.8200521255481346 1.0237111279929798
4.663920956970636 2.7584897994240962 1.430436174759164
4.621124354680807 0.7700776105940841 0.9035700495497541
4.31591080958295 0.57802305290305 1.6653572444754456
4.470738059020972 2.522755737691292 1.7931695793824822
4.646450172504563 3.3600079080476477 8.723038581131332
4.63905467261379 2.8300151973335 8.998309545821854
4.634526571231934 3.1128167849923782 7.916203859648313
4.759720177679933 2.361763668485632 8.605785607958442
4.53100845757281 8.389823284964985 2.842562926137062
4.795156495419998 8.383402441903737 3.7131769158893246
4.470250064533128 8.031309350544689 3.3091812240234417
4.623190093918488 6.657834572851144 3.5677597100372935
4.3451180983008575 6.186929836140869 3.7571836691251264
4.806253704102238 6.885416370120609 4.006512803775659
4.604517557938747 0.8298158261536761 2.1069439137898156
4.636585875244291 9.840468285112815 1.9439889572175915
4.799133455721955 6.53588143496377 8.467664642097194
4.515956489800285 7.05170719967101 8.196611928504689
4.7591583140977685 6.903414542530669 7.677598561399554
4.506306041524455 2.889596463006132 5.308696473871281
4.622706053211558 1.931015216602632 5.1399673224761955
4.95692269009942 2.6067056608309795 3.140237284610817
4.790123069575437 2.9695422005175645 3.635813449903107
4.540280309907844 2.258887329432646 3.405889458376354
4.715853429971221 2.075695363156458 3.8748834810587183
5.144550678926972 2.0833291834958856 3.4270409112815576
4.981035574424754 4.431673886576773 6.307410561916178
4.758159413056218 4.369324891388712 5.7670687293665726
5.0241096333894175 4.113991834887347 6.782431878760516
4.828619791031975 3.756445931616644 5.740761336002851
4.962150769834654 3.1072491774984043 1.4665062420538901
4.437175928797065 3.351398976550285 1.3277241922725185
4.79569415327095 3.626685265246406 1.663328417816706
4.814190552606918 7.493785810220953 7.817352119916504
4.7794728337166195 7.303347895710798 6.610157771995718
4.511110643969478 2.2095048032285014 2.760524037051125
4.779681028352043 3.1291496512734724 3.11504934765901
4.79168533598914 3.261354655043502 2.7202661097831418
4.9744634280396385 5.34946078451551 1.8240399730963401
4.74328084778044 5.420886322629366 1.282839757890382
4.625837040064042 5.925360163056918 1.31165210465825
4.540036453069473 5.216592496049726 2.278567244417202
4.58703733539161 5.33833024206525 3.0980482503886857
4.916522199563994 4.561264880655834 3.201751433151928
4.761425224564264 4.3832952862601 2.679950159595927
4.528187146861586 4.865476253810904 3.3346082014982756
4.9766113907896905 4.871303356086917 2.3394424931020343
4.441332224213996 4.663719806770745 2.2576318722408844
4.666528604865484 1.047218833319722 8.653686150511117
4.8771004955174035 1.520890872186956 8.394617215216968
4.7182368129512495 0.6760310212266221 8.260014575332269
4.761687379792224 1.777197232137532 3.2427189966206376
5.023531050619352 1.3367072619848634 3.4785898953484167
5.076151811042156 1.5252725829610183 2.7685100161641647
5.054042585309196 6.1493512739628144 8.762591489284855
4.918004105854893 5.27954409116054 9.152662945335852
5.137090183428076 5.783483086305743 9.301918776812395
4.6680201328087625 5.239554265476082 8.690121622652814
4.5687252543347245 8.950464875175033 5.944747265416073
4.737431670209515 0.15418469763003498 6.014745005456031
4.978688216545661 8.926406516924484 6.042363754816227
5.041931961090674 4.10757909846889 3.0272427605783148
5.0321822004283 4.002325406264744 2.067454362076866
4.878149332749565 7.90457582237919 3.6524461205731775
4.9465630102745655 7.391214105161793 3.5516169187285804
4.346282557871887 7.552635177828221 3.775777775590828
4.683524036939476 7.827788074867575 2.7414371197769
4.505666361264948 7.366049165506167 2.7331342771114335
4.6755130159584795 7.04733568142962 3.181702079661374
4.977895238016733 8.013803729496342 4.501882152746186
4.703427734562533 7.943762340916058 4.101892318171746
4.310307474275919 5.385455249867864 3.6184042138848187
4.7343710250997075 4.56707110958364 3.6894010850927823
5.129544318911984 7.8515292911891565 6.038745101656881
4.806074394721573 8.41389367248974 5.936806704042904
4.958608035901079 9.126924108254368 8.233193480015917
4.83699325872021 0.29519448354744 5.4028764945112355
4.845576531845152 1.3810375170669562 8.914826131528592
5.12946594907167 2.38836571922282 9.050589025644845
4.407584907262852 7.7451237069722225 8.819058841183653
4.5385064881766 7.837513404214678 8.13253566299125
4.9521004069640835 7.104411844580669 8.6539729636098
4.619782932883322 2.9124197726520302 7.039135085525594
4.56210926496209 3.87214512457494 7.3527479937463385
5.073269467527588 3.8317916537903884 7.162353358660283
4.69065787473249 1.245902458461274 5.920731253604872
4.82161332773196 1.622250661704512 5.529410323168207
4.591711421536207 2.169093958600887 6.388843494077737
5.022106670252198 5.124393194169188 1.271651766281054
4.7749980264909775 4.718108740074525 1.7293983795261185
4.930621834445036 4.871412801839754 5.845320460574676
4.808295316655447 4.135738272654873 5.370772500100138
4.782036199037123 4.4921995678898625 4.987402616354351
5.052121979676115 5.177276453134305 5.3505165008869
4.80010540912299 6.317460856281249 5.558123025716114
4.886078082533418 6.63101828753957 5.916611068431088
4.945325673182777 6.3204670883848655 6.393584195689283
5.04738622338656 5.72432932530095 5.646887510634696
4.710301885529547 5.724607649254235 6.552982944481006
4.607949060162868 6.854359472189628 2.6510297407006718
4.619329882790694 6.244628577858168 3.2850126318369455
4.51714348924984 6.3666175275892645 2.717966207432118
4.780430384652891 7.358302206913423 4.226050537599224
4.709536231336646 4.64483508711011 6.791351593705418
4.815434070383703 4.435500035987595 7.206882429656194
4.79567139039803 1.801340409406008 0.56851880775847
4.633970148622214 1.299603836654948 0.615236730072698
5.006431596952763 5.092452556632508 6.709835481371012
5.025462544417165 6.052430796889612 6.882869410629947
5.013380364537011 0.4988482004465516 3.6893479881847946
4.846014332506123 3.404746593969264 0.8506316039906417
4.642471514399366 3.713949059393452 0.311283687429594
4.738247675795585 3.777998155119345 1.2336422566429874
4.704697703302476 7.707650958189947 9.285115994437122
4.831269438660589 8.315809032924523 9.335316144794636
5.163217311030578 6.962118292008707 6.313562271591796
4.394514353481282 9.442408102042805 8.954464889403923
4.784257485375034 6.893701431282454 5.549715183056863
4.9853803531313305 7.4891237862093325 5.536159692547177
4.56988721664125 4.888391865519438 8.926694194223767
4.6708789511894215 4.3462377444462685 9.221128962362872
4.591282705532231 8.814876426836568 2.05917645956983
5.039764282765522 5.978321113053117 5.2129012030552975
4.8084678300559345 6.218580062327882 0.3072890058707125
4.862563914695898 8.316795520412537 8.24892080648598
4.993393547680688 8.667218065335812 8.623098288241763
4.898201294187603 1.02787056569615 5.346110843530954
4.672172649733899 7.615620380943336 4.64082299350643
5.059109061036836 0.9704616342557899 2.5690245587580365
5.033599887476232 0.798788235700514 3.2164966303825557
4.961118805948885 7.109652116784045 5.013543181257282
5.127394426454602 1.1362427940889641 4.289079742898082
4.698618684228215 1.579656141836075 4.601705677624174
5.029142893263279 3.3362990912881676 9.618235424501622
5.049788598870865 3.888249722094444 9.379867168034156
5.304355624481487 4.5847774403211 6.733490951993331
4.968605591908836 3.34610639353115 9.121552342250325
4.451125591859538 1.5432235439891968 2.81032631099783
4.997189527758537 6.962647790295258 9.199417157074928
4.8014828524223745 3.828505920836863 4.940755205850003
4.6764815831603475 3.7513926102092015 4.202810265502414
4.959098898214692 4.252727243561662 4.050845870928293
4.728528315421502 4.11705084249123 1.610411948021002
4.5839913221556525 1.103547058020954 3.06610415401303
4.604432264607674 1.3189124002025543 3.9614793214533544
4.9066672683199775 3.8175507589031263 3.6580949668876324
4.550578206009646 4.389816445833657 8.703245127016453
4.916297966679152 8.233665322748491 7.618931174314812
4.803064318583165 5.874040626112138 0.8107518928194316
4.895473849031596 0.9149589695193301 9.808855736905537
5.057377947990729 0.33324758742712995 9.335591687959868
4.770420395081935 0.48217950854818004 8.818420498078284
4.8502547788388926 9.599770101778002 8.557396324077228
5.006515486406785 8.855719146040965 9.164977655395555
4.547780724434034 8.69114529855598 8.384030363535555
4.955404586282374 9.449288365555129 9.14760291925361
5.013312698267136 8.833980036955394 0.9368899277890751
5.058858481016721 6.887792450771684 6.984754738568238
4.5839914736627305 1.6063932134280765 2.1135194284119985
4.93405002281131 8.293453729875733 0.63080932800975
4.654836977218168 7.632766814341283 2.2924376121771295
5.078338528905835 4.187730722624322 1.0782577260050898
4.874535501001482 7.453695394855056 8.952251096066355
4.618856424759096 8.031194071562748 9.703874936793067
4.606575512078283 2.831910379339258 2.2164492908808966
4.606295359299576 4.172229467997372 2.1441780012427443
4.941271211701512 5.651774784051044 2.17681359397548
5.02282259015241 5.495377004639313 8.341764308563498
4.811901156611446 4.854275235848756 4.526129076872287
4.937745102054761 5.364936135956926 6.130404382584542
5.200604068391534 6.893146032783065 3.4668476768197776
5.0329929483885065 6.91155722629716 4.51434163480514
5.103156230684772 9.612400186022853 1.464897643247744
4.731939668079652 0.7624660328770134 4.184541687852792
4.784427947394027 8.142362565912109 8.884452524591618
4.800040278390452 1.4800509675881242 1.129442317437568
4.671999483914232 2.40074184340438 7.093554718828426
4.727005721767776 8.9211025102245 1.445088051877276
4.559671390583606 2.240763094955244 2.246132304989252
4.6478702311721465 7.009504073107243 1.5189967082942402
5.0716161119903855 5.5321983063975715 5.019186794542948
4.977694037529593 0.9047362084202121 7.844033204998257
4.673117406080972 9.386592718971238 3.425906603405166
4.604028386729656 4.626311704356948 4.1709013678751
4.796151112637746 0.972155465081148 4.756880565079301
5.0453126667491865 7.796739713048581 8.43624795542952
5.095328007179476 1.096843400129222 1.0147858645854382
4.465874308614925 8.541094698610456 9.034568064551149
4.689507195738234 3.577450752126226 3.1386979464255935
5.047918236690936 6.468212849825518 2.4259370972640695
4.676952165130055 9.069066319033999 4.515509203409318
4.607864033244824 6.527591044734296 4.57628156507612
4.851501053391264 8.796827667147333 7.83608903383671
5.14372240408998 5.708073971431468 7.8420836913327525
4.542582971613708 7.059033115487847 4.709336714400092
4.875863724966497 1.73281379433657 3.7232533286931373
4.6942595811219405 5.854725009655658 7.9880122779869875
4.91271851282091 6.370716156577211 9.346554100916318
5.014200286483486 9.269921144465027 1.2699525426382325
4.672082648963298 9.555937476924194 4.553336024703585
4.814857301819735 5.985079346602312 8.359833274779174
4.874533042919753 2.0268608879080103 4.769798430039643
4.588887997890938 4.85969268252229 7.110743793196905
5.085138678547892 7.9981652632944344 1.4632192129185742
4.754977020581192 3.42730863469084 8.217681240666705
4.658975101268884 8.0547846021457 5.38432737112675
4.900715662873887 6.049169634046046 4.782864609690526
4.9479915710144855 9.669797057942787 3.8058497514590663
4.503663413479845 2.0731269320467267 5.708529587081952
4.578383255467476 7.8464305696358805 5.881300620487846
4.5201557852709 0.671529653212456 3.1868231532947178
4.855424162010748 3.6896698775366517 6.804529188130099
4.84964443863153 1.9188917786290374 2.51002886330188
4.524143076781314 0.345034023987476 9.303111517515166
4.568676032158412 3.5569338977147384 2.222048450016135
5.047387257690943 6.075795160510055 2.27227831158513
4.661986860146578 5.366694306469167 5.7557953318384305
4.731483757101938 8.337976842319566 1.6866047294444921
4.68778122231015 7.782335979713171 7.613316864770342
POLYGONS 973 3892
3 211 787 251
3 251 787 196
3 763 787 211
3 1 788 2
3 2 788 3
3 3 788 211
3 211 788 763
3 758 789 724
3 724 789 402
3 409 790 461
3 461 790 209
3 7 791 367
3 367 791 416
3 416 791 455
3 416 792 455
3 548 792 416
3 563 793 367
3 367 793 7
3 324 794 387
3 387 794 188
3 188 794 630
3 580 795 626
3 626 795 630
3 630 795 188
3 418 796 419
3 419 796 571
3 571 796 521
3 12 797 336
3 336 797 726
3 335 798 336
3 336 798 12
3 248 798 335
3 374 799 375
3 375 799 335
3 335 799 248
3 336 800 726
3 726 800 725
3 16 801 14
3 227 801 16
3 16 802 14
3 17 802 16
3 17 803 16
3 16 803 227
3 21 804 651
3 651 804 638
3 638 804 202
3 21 805 22
3 651 805 21
3 21 806 22
3 22 806 23
3 23 806 286
3 23 807 286
3 286 807 484
3 484 807 485
3 476 808 477
3 638 808 202
3 202 808 476
3 28 809 29
3 29 809 520
3 606 809 377
3 377 809 28
3 224 810 270
3 270 810 242
3 270 811 224
3 224 811 312
3 312 811 26
3 30 812 242
3 242 812 270
3 50 813 51
3 51 813 717
3 780 813 778
3 778 813 50
3 49 814 197
3 197 814 584
3 584 814 46
3 51 815 46
3 46 815 584
3 717 815 51
3 47 816 778
3 778 816 780
3 47 817 49
3 778 817 47
3 47 818 49
3 49 818 197
3 528 819 453
3 453 819 420
3 420 819 55
3 54 820 352
3 352 820 453
3 453 820 528
3 49 821 197
3 197 821 54
3 54 821 352
3 47 822 49
3 428 822 47
3 420 823 55
3 55 823 427
3 427 823 428
3 47 824 428
3 428 824 427
3 56 825 191
3 191 825 193
3 483 825 56
3 61 826 57
3 193 826 191
3 191 826 61
3 61 827 57
3 57 827 64
3 64 827 63
3 58 828 55
3 55 828 420
3 66 829 259
3 259 829 439
3 322 829 321
3 321 829 66
3 67 830 214
3 214 830 440
3 440 830 276
3 276 830 748
3 725 831 726
3 726 831 322
3 67 832 214
3 214 832 69
3 69 832 725
3 725 832 722
3 275 833 276
3 276 833 748
3 226 834 456
3 456 834 7
3 7 834 410
3 43 835 455
3 455 835 456
3 456 835 226
3 367 836 7
3 7 836 410
3 416 837 455
3 455 837 43
3 354 838 302
3 302 838 547
3 493 839 494
3 494 839 424
3 74 840 518
3 518 840 517
3 517 840 551
3 518 841 74
3 74 841 633
3 633 841 632
3 555 842 551
3 551 842 517
3 75 843 78
3 479 843 80
3 80 843 75
3 551 844 555
3 555 844 78
3 78 844 75
3 633 845 632
3 632 845 479
3 479 845 80
3 83 846 58
3 58 846 55
3 343 846 83
3 83 847 272
3 343 847 83
3 309 848 671
3 671 848 673
3 673 848 511
3 84 849 218
3 218 849 426
3 218 850 219
3 219 850 671
3 671 850 309
3 84 850 218
3 511 851 673
3 673 851 503
3 332 852 415
3 415 852 503
3 503 852 673
3 86 853 89
3 89 853 330
3 330 853 363
3 538 854 230
3 230 854 93
3 88 855 87
3 87 855 93
3 86 856 89
3 87 856 88
3 88 856 86
3 93 857 87
3 230 857 93
3 92 858 90
3 90 858 545
3 545 858 537
3 90 859 92
3 92 859 363
3 363 859 330
3 199 860 355
3 355 860 182
3 499 860 199
3 276 861 748
3 211 861 763
3 763 861 764
3 764 861 276
3 275 862 276
3 199 862 499
3 499 862 275
3 1 863 2
3 182 863 355
3 355 863 1
3 4 864 503
3 503 864 415
3 415 864 95
3 61 865 57
3 57 865 268
3 268 865 269
3 193 866 194
3 194 866 502
3 191 866 193
3 93 867 100
3 100 867 194
3 194 867 502
3 93 868 87
3 100 868 93
3 87 869 88
3 88 869 269
3 269 869 268
3 282 870 284
3 284 870 398
3 398 870 713
3 102 871 103
3 103 871 216
3 216 871 377
3 377 871 606
3 102 872 103
3 103 872 284
3 284 872 282
3 499 873 768
3 768 873 687
3 687 873 259
3 439 874 259
3 259 874 687
3 199 875 499
3 499 875 768
3 297 876 434
3 467 876 297
3 78 877 297
3 297 877 467
3 78 878 297
3 297 878 434
3 323 879 729
3 729 879 730
3 730 879 198
3 108 880 649
3 649 880 677
3 677 880 280
3 280 880 109
3 489 881 655
3 655 881 649
3 649 881 108
3 327 882 328
3 328 882 280
3 280 882 109
3 32 883 699
3 699 883 708
3 708 883 668
3 668 883 31
3 287 884 429
3 429 884 368
3 368 884 570
3 114 885 181
3 181 885 180
3 180 885 71
3 71 885 680
3 626 886 627
3 627 886 115
3 115 886 666
3 580 886 626
3 72 887 115
3 115 887 666
3 680 887 71
3 71 887 72
3 63 888 64
3 64 888 317
3 317 888 695
3 495 889 652
3 652 889 651
3 651 889 21
3 21 890 22
3 22 890 507
3 507 890 490
3 38 891 367
3 367 891 563
3 507 891 490
3 490 891 38
3 117 892 118
3 118 892 246
3 246 893 247
3 118 893 246
3 185 894 243
3 243 894 391
3 247 894 185
3 126 895 195
3 195 895 610
3 610 895 474
3 123 896 125
3 432 896 433
3 433 896 360
3 360 896 123
3 120 897 124
3 124 897 474
3 474 897 610
3 120 898 124
3 124 898 122
3 122 898 123
3 123 898 125
3 126 899 195
3 195 899 387
3 387 899 324
3 260 900 687
3 687 900 768
3 768 900 762
3 259 901 687
3 687 901 260
3 396 902 200
3 200 902 514
3 514 902 435
3 297 903 434
3 434 903 435
3 359 904 714
3 714 904 715
3 715 904 132
3 134 905 468
3 468 905 715
3 715 905 132
3 297 906 298
3 298 906 134
3 134 906 468
3 467 906 297
3 359 907 396
3 396 907 200
3 714 907 359
3 93 908 100
3 230 908 93
3 26 909 312
3 426 909 26
3 218 910 426
3 426 910 26
3 84 911 218
3 228 911 229
3 229 911 84
3 135 912 300
3 300 912 270
3 270 912 224
3 228 913 229
3 229 913 135
3 135 913 300
3 332 914 415
3 415 914 95
3 4 915 503
3 503 915 673
3 228 916 229
3 229 916 394
3 394 916 422
3 476 917 477
3 477 917 137
3 137 917 515
3 137 918 364
3 364 918 102
3 515 918 137
3 92 919 90
3 484 919 485
3 485 919 92
3 102 920 364
3 364 920 363
3 363 920 330
3 115 921 139
3 139 921 785
3 666 921 115
3 257 922 258
3 258 922 318
3 630 922 188
3 188 922 257
3 258 923 318
3 318 923 139
3 139 923 785
3 526 924 527
3 745 924 53
3 53 924 526
3 745 925 53
3 53 925 649
3 649 925 108
3 526 926 527
3 527 926 643
3 643 926 625
3 625 926 454
3 673 927 511
3 511 927 281
3 114 928 181
3 181 928 471
3 471 928 209
3 407 929 431
3 431 929 549
3 757 929 750
3 750 929 407
3 750 930 757
3 757 930 755
3 755 930 42
3 42 931 755
3 755 931 754
3 754 931 455
3 455 931 43
3 75 932 78
3 78 932 297
3 434 933 435
3 574 933 556
3 556 933 434
3 498 934 740
3 740 934 741
3 741 934 192
3 359 935 714
3 498 935 740
3 740 935 743
3 743 935 359
3 192 936 384
3 741 936 192
3 384 937 437
3 437 937 200
3 200 937 396
3 192 938 384
3 384 938 437
3 147 939 146
3 146 939 256
3 256 939 129
3 536 939 147
3 256 940 129
3 129 940 393
3 393 940 233
3 147 941 536
3 624 941 660
3 660 941 147
3 233 942 234
3 234 942 80
3 80 942 479
3 393 942 233
3 150 943 300
3 300 943 135
3 150 944 148
3 300 944 150
3 150 945 148
3 148 945 684
3 684 945 681
3 42 946 755
3 779 946 781
3 781 946 42
3 51 947 378
3 378 947 227
3 717 947 51
3 648 948 636
3 636 948 192
3 192 948 741
3 311 949 522
3 522 949 498
3 498 949 740
3 311 950 522
3 692 950 691
3 691 950 311
3 277 951 278
3 278 951 412
3 374 951 277
3 278 952 412
3 412 952 107
3 107 952 654
3 67 953 107
3 107 953 654
3 214 953 67
3 277 954 374
3 374 954 375
3 156 955 113
3 335 955 248
3 248 955 156
3 155 956 157
3 346 956 220
3 220 956 155
3 220 957 346
3 346 957 345
3 345 957 457
3 457 957 325
3 156 958 113
3 155 958 157
3 157 958 156
3 457 959 277
3 277 959 374
3 325 960 457
3 457 960 277
3 442 961 696
3 696 961 701
3 701 961 283
3 86 962 89
3 89 962 283
3 283 962 701
3 442 963 696
3 696 963 695
3 695 963 317
3 192 964 384
3 706 964 636
3 636 964 192
3 161 965 706
3 706 965 707
3 707 965 438
3 161 966 706
3 706 966 636
3 179 967 403
3 403 967 445
3 549 967 431
3 431 967 179
3 644 968 615
3 615 968 232
3 232 968 163
3 163 969 232
3 232 969 403
3 403 969 445
3 495 970 652
3 652 970 644
3 644 970 615
3 54 971 124
3 124 971 120
3 204 972 205
3 205 972 165
3 483 972 56
3 56 972 204
3 352 973 54
3 54 973 124
3 346 974 220
3 220 974 351
3 351 974 523
3 458 975 684
3 684 975 681
3 167 976 258
3 258 976 318
3 167 977 643
3 643 977 527
3 527 977 203
3 167 978 258
3 643 978 167
3 104 979 139
3 139 979 785
3 184 979 261
3 261 979 104
3 166 980 201
3 201 980 261
3 261 980 184
3 166 981 201
3 201 981 203
3 203 981 527
3 168 982 154
3 154 982 195
3 195 982 126
3 168 983 154
3 258 983 167
3 167 983 168
3 113 984 156
3 156 984 280
3 280 984 109
3 155 985 157
3 157 985 314
3 314 985 315
3 597 986 584
3 584 986 46
3 54 987 124
3 597 987 584
3 584 987 197
3 197 987 54
3 344 988 343
3 343 988 83
3 165 989 205
3 368 989 570
3 570 989 165
3 282 990 283
3 283 990 701
3 284 990 282
3 102 991 103
3 364 991 102
3 342 992 540
3 760 992 342
3 519 993 540
3 781 993 779
3 779 993 519
3 635 994 761
3 761 994 750
3 750 994 757
3 545 995 537
3 537 995 518
3 518 995 74
3 23 996 286
3 660 996 23
3 624 997 660
3 660 997 23
3 170 998 98
3 194 998 502
3 502 998 170
3 170 999 98
3 98 999 574
3 574 999 556
3 230 1000 538
3 538 1000 517
3 517 1000 551
3 117 1001 118
3 118 1001 278
3 278 1001 412
3 118 1002 246
3 246 1002 458
3 458 1002 457
3 457 1002 277
3 727 1003 728
3 728 1003 256
3 256 1003 129
3 233 1004 393
3 776 1004 773
3 773 1004 233
3 198 1005 730
3 730 1005 777
3 777 1005 776
3 776 1005 773
3 729 1006 323
3 323 1006 732
3 732 1006 727
3 145 1007 17
3 17 1007 18
3 18 1007 739
3 739 1007 144
3 16 1008 17
3 17 1008 145
3 16 1009 14
3 14 1009 410
3 410 1009 388
3 727 1010 732
3 732 1010 739
3 739 1010 144
3 531 1011 451
3 451 1011 388
3 388 1011 410
3 166 1012 201
3 201 1012 321
3 321 1012 322
3 12 1013 53
3 53 1013 745
3 336 1013 12
3 336 1014 726
3 726 1014 322
3 168 1015 167
3 167 1015 643
3 625 1015 371
3 371 1015 168
3 546 1016 508
3 508 1016 147
3 508 1017 147
3 147 1017 660
3 660 1017 23
3 26 1018 426
3 491 1018 222
3 222 1018 506
3 506 1018 26
3 332 1019 491
3 491 1019 222
3 451 1020 531
3 531 1020 546
3 546 1020 508
3 388 1021 410
3 410 1021 7
3 212 1022 582
3 582 1022 622
3 622 1022 628
3 242 1023 270
3 270 1023 300
3 300 1023 150
3 242 1024 243
3 243 1024 391
3 30 1024 242
3 150 1025 148
3 247 1025 185
3 185 1025 150
3 213 1026 291
3 291 1026 186
3 760 1026 342
3 342 1026 213
3 291 1027 448
3 448 1027 424
3 424 1027 449
3 16 1028 227
3 227 1028 378
3 272 1029 273
3 273 1029 493
3 17 1030 145
3 145 1030 566
3 566 1030 333
3 566 1031 333
3 333 1031 598
3 598 1031 597
3 615 1032 644
3 644 1032 645
3 645 1032 173
3 174 1033 366
3 366 1033 645
3 645 1033 173
3 680 1034 71
3 71 1034 774
3 774 1034 775
3 487 1035 738
3 738 1035 739
3 739 1035 144
3 176 1036 196
3 196 1036 251
3 608 1036 176
3 344 1037 541
3 541 1037 540
3 540 1037 519
3 449 1038 541
3 541 1038 344
3 429 1039 287
3 287 1039 98
3 98 1039 170
3 154 1040 168
3 168 1040 371
3 371 1040 372
3 161 1041 629
3 629 1041 281
3 281 1041 511
3 161 1042 629
3 629 1042 628
3 371 1043 372
3 372 1043 333
3 333 1043 566
3 430 1044 619
3 619 1044 399
3 435 1045 514
3 514 1045 399
3 399 1045 619
3 516 1046 520
3 520 1046 29
3 593 1046 516
3 174 1047 366
3 593 1047 516
3 516 1047 174
3 508 1048 147
3 147 1048 536
3 515 1049 516
3 516 1049 593
3 137 1049 515
3 648 1050 636
3 636 1050 706
3 635 1051 761
3 761 1051 758
3 758 1051 724
3 134 1052 468
3 776 1052 773
3 773 1052 772
3 772 1052 134
3 132 1053 715
3 715 1053 711
3 711 1053 217
3 314 1054 315
3 315 1054 217
3 217 1054 711
3 246 1055 247
3 684 1055 458
3 458 1055 246
3 161 1056 629
3 706 1056 161
3 399 1057 438
3 438 1057 707
3 619 1057 399
3 217 1058 351
3 351 1058 523
3 711 1058 217
3 202 1059 638
3 638 1059 645
3 645 1059 173
3 428 1060 47
3 47 1060 778
3 608 1061 176
3 176 1061 650
3 650 1061 654
3 654 1061 107
3 398 1062 713
3 713 1062 699
3 699 1062 32
3 31 1063 668
3 668 1063 663
3 662 1064 663
3 663 1064 152
3 152 1064 696
3 696 1064 442
3 272 1065 273
3 83 1065 272
3 424 1066 449
3 494 1066 424
3 343 1067 344
3 344 1067 541
3 494 1068 493
3 493 1068 273
3 524 1069 409
3 409 1069 547
3 547 1069 302
3 226 1070 227
3 227 1070 378
3 456 1070 226
3 647 1071 648
3 671 1071 309
3 309 1071 647
3 182 1072 355
3 355 1072 354
3 354 1072 302
3 260 1073 261
3 261 1073 184
3 687 1073 260
3 246 1074 247
3 247 1074 185
3 635 1075 761
3 761 1075 760
3 760 1075 342
3 448 1076 291
3 291 1076 186
3 394 1077 395
3 395 1077 692
3 692 1077 691
3 422 1077 394
3 457 1078 458
3 458 1078 684
3 325 1078 457
3 374 1079 375
3 375 1079 725
3 725 1079 722
3 436 1080 495
3 495 1080 652
3 548 1080 436
3 327 1081 328
3 730 1081 198
3 198 1081 327
3 727 1082 728
3 728 1082 531
3 531 1082 451
3 526 1083 527
3 527 1083 203
3 371 1084 625
3 625 1084 454
3 209 1085 461
3 471 1085 209
3 212 1086 430
3 430 1086 619
3 582 1086 212
3 213 1087 342
3 342 1087 540
3 541 1087 449
3 449 1087 213
3 218 1088 219
3 219 1088 332
3 332 1088 491
3 426 1088 218
3 537 1089 538
3 538 1089 230
3 545 1089 537
3 409 1090 524
3 524 1090 774
3 774 1090 775
3 648 1091 647
3 647 1091 394
3 394 1091 422
3 275 1092 276
3 439 1092 259
3 259 1092 275
3 323 1093 729
3 487 1093 738
3 738 1093 323
3 268 1094 269
3 695 1094 317
3 317 1094 268
3 560 1095 561
3 580 1095 626
3 626 1095 560
3 314 1096 315
3 327 1096 328
3 328 1096 314
3 430 1097 619
3 619 1097 618
3 618 1097 287
3 287 1097 429
3 519 1098 540
3 540 1098 342
3 332 1099 415
3 491 1099 332
3 424 1100 449
3 449 1100 541
3 351 1101 523
3 523 1101 522
3 522 1101 311
3 321 1102 322
3 322 1102 726
3 387 1103 324
3 324 1103 433
3 433 1103 432
3 454 1104 625
3 489 1104 655
3 655 1104 454
3 343 1105 344
3 428 1105 427
3 427 1105 343
3 367 1106 416
3 416 1106 548
3 563 1106 367
3 371 1107 372
3 625 1107 371
3 438 1108 707
3 707 1108 384
3 384 1108 437
3 436 1109 548
3 548 1109 416
3 402 1110 403
3 403 1110 445
3 724 1110 402
3 409 1111 461
3 524 1111 409
3 418 1112 419
3 419 1112 433
3 433 1112 432
3 431 1113 436
3 436 1113 548
3 549 1113 431
3 434 1114 435
3 435 1114 514
3 507 1115 508
3 508 1115 546
3 490 1115 507
3 499 1116 768
3 768 1116 762
3 476 1117 477
3 477 1117 485
3 485 1117 484
3 597 1118 598
3 610 1118 474
3 474 1118 597
3 487 1119 738
3 738 1119 489
3 489 1119 655
3 560 1120 561
3 561 1120 521
3 521 1120 571
3 555 1121 556
3 556 1121 574
3 551 1121 555
3 598 1122 597
3 597 1122 584
3 628 1123 629
3 622 1123 628
3 632 1124 633
3 633 1124 661
3 661 1124 660
3 660 1124 624
3 647 1125 648
3 648 1125 636
3 662 1126 663
3 663 1126 668
3 681 1127 684
3 691 1127 692
3 692 1127 681
3 722 1128 725
3 725 1128 726
3 727 1129 728
3 732 1129 727
3 775 1130 774
3 774 1130 762
3 762 1130 768
3 778 1131 779
3 779 1131 781
3 780 1131 778
CELL_DATA 973
SCALARS cell_scalars int 1
LOOKUP_TABLE default
0 0 0 0 0 0 0 0 0 0 0 0 0 0 0 0 0 0 0 0 0 0 0 0 0 0 0 0 0 0 0 0 0 0 0 0 0 0 0 0 0 0 0 0 0 0 0 0 0 0 0 0 0 0 0 0 0 0 0 0 0 0 0 0 0 0 0 0 0 0 0 0 0 0 0 0 0 0 0 0 0 0 0 0 0 0 0 0 0 0 0 0 0 0 0 0 0 0 0 0 0 0 0 0 0 0 0 0 0 0 0 0 0 0 0 0 0 0 0 0 0 0 0 0 0 0 0 0 0 0 0 0 0 0 0 0 0 0 0 0 0 0 0 0 0 0 0 0 0 0 0 0 0 0 0 0 0 0 0 0 0 0 0 0 0 0 0 0 0 0 0 0 0 0 0 0 0 0 0 0 0 0 0 0 0 0 0 0 0 0 0 0 0 0 0 0 0 0 0 0 0 0 0 0 0 0 0 0 0 0 0 0 0 0 0 0 0 0 0 0 0 0 0 0 0 0 0 0 0 0 0 0 0 0 0 0 0 0 0 0 0 0 0 0 0 0 0 0 0 0 0 0 0 0 0 0 0 0 0 0 0 0 0 0 0 0 0 0 0 0 0 0 0 0 0 0 0 0 0 0 0 0 0 0 0 0 0 0 0 0 0 0 0 0 0 0 0 0 0 0 0 0 0 0 0 0 0 0 0 0 0 0 0 0 0 0 0 0 0 0 0 0 0 0 0 0 0 0 0 0 0 0 0 0 0 0 0 0 0 0 0 0 0 0 0 0 0 0 0 0 0 0 0 0 0 0 0 0 0 0 0 0 0 0 0 0 0 0 0 0 0 0 0 0 0 0 0 0 0 0 0 0 0 0 0 0 0 0 0 0 0 0 0 0 0 0 0 0 0 0 0 0 0 0 0 0 0 0 0 0 0 0 0 0 0 0 0 0 0 0 0 0 0 0 0 0 0 0 0 0 0 0 0 0 0 0 0 0 0 0 0 0 0 0 0 0 0 0 0 0 0 0 0 0 0 0 0 0 0 0 0 0 0 0 0 0 0 0 0 0 0 0 0 0 0 0 0 0 0 0 0 0 0 0 0 0 0 0 0 0 0 0 0 0 0 0 0 0 0 0 0 0 0 0 0 0 0 0 0 0 0 0 0 0 0 0 0 0 0 0 0 0 0 0 0 0 0 0 0 0 0 0 0 0 0 0 0 0 0 0 0 0 0 0 0 0 0 0 0 0 0 0 0 0 0 0 0 0 0 0 0 0 0 0 0 0 0 0 0 0 0 0 0 0 0 0 0 0 0 0 0 0 0 0 0 0 0 0 0 0 0 0 0 0 0 0 0 0 0 0 0 0 0 0 0 0 0 0 0 0 0 0 0 0 0 0 0 0 0 0 0 0 0 0 0 0 0 0 0 0 0 0 0 0 0 0 0 0 0 0 0 0 0 0 0 0 0 0 0 0 0 0 0 0 0 0 0 0 0 0 0 0 0 0 0 0 0 0 0 0 0 0 0 0 0 0 0 0 0 0 0 0 0 0 0 0 0 0 0 0 0 0 0 0 0 0 0 0 0 0 0 0 0 0 0 0 0 0 0 0 0 0 0 0 0 0 0 0 0 0 0 0 0 0 0 0 0 0 0 0 0 0 0 0 0 0 0 0 0 0 0 0 0 0 0 0 0 0 0 0 0 0 0 0 0 0 0 0 0 0 0 0 0 0 0 0 0 0 0 0 0 0 0 0 0 0 0 0 0 0 0 0 0 0 0 0 0 0 0 0 0 0 0 0 0 0 0 0 0 0 0 0 0 0 0 0 0 0 0 0 0 0 0 0 0 0 0 0 0 0 0 0 0 0 0 0 0 0 0 0 0 0 0 0 0 0 0 0 0 0 0 0 0 0 0 0 0 0 0 0 0 0 0 0 0 0 0 0 0 0 0 0 0 0 0 0 0 0 0 0 0 0 0 0 0 0 0 0 0 0 0 0 0 0 0 0 0 0 0 0 0 0 0 0 0 0 0 0 0 0 0 0 0 0 0 0 0 0 0 0 0 0 0 0 0 0 0 0 0 0 0 0 0 0 0 0 0 0 0 0 0 0 0 0 0 0 0 0 0 0 0 0 0 0 0 0 0 0 0 0 0 0 0 0 0 0 0 0 0 0 0 0 0 0 0 0 0 0 0 0 0 0 0