# vtk DataFile Version 2.0
polydata
ASCII
DATASET POLYDATA
POINTS 24 double
 4.47364e+00  5.55406e+00  4.28006e+00
 4.48131e+00  5.74332e+00  4.31292e+00
 4.36301e+00  5.35023e+00  4.48685e+00
 4.41275e+00  5.83021e+00  4.61945e+00
 4.31971e+00  5.44830e+00  4.70684e+00
 4.58745e+00  5.07490e+00  4.67965e+00
 4.42850e+00  5.35191e+00  4.83864e+00
 5.06834e+00  5.16191e+00  4.80543e+00
 4.98898e+00  5.04991e+00  4.70982e+00
 4.73170e+00  5.55683e+00  5.00990e+00
 5.04128e+00  5.79352e+00  4.81723e+00
 5.04625e+00  5.90706e+00  4.58941e+00
 5.14023e+00  5.63017e+00  4.36486e+00
 5.22697e+00  5.35985e+00  4.69031e+00
 5.21947e+00  5.36114e+00  4.48458e+00
 4.77512e+00  5.44888e+00  4.19880e+00
 4.86259e+00  5.12702e+00  4.33982e+00
 4.92158e+00  5.64838e+00  4.20153e+00
 5.01417e+00  5.09104e+00  4.42382e+00
 4.55648e+00  5.09109e+00  4.52199e+00
 4.78001e+00  5.84451e+00  4.26066e+00
 4.53584e+00  5.92412e+00  4.70068e+00
 4.84409e+00  5.98759e+00  4.48773e+00
 4.76669e+00  5.74077e+00  4.97612e+00
POLYGONS 14 86
5      2      4      3      1      0      
5      8      7      9      6      5      
5      13     14     12     11     10     
6      17     12     14     18     16     15     
5      6      4      2      19     5      
5      0      1      20     17     15     
5      1      3      21     22     20     
6      4      6      9      23     21     3      
5      15     16     19     2      0      
5      19     16     18     8      5      
5      10     23     9      7      13     
5      21     23     10     11     22     
5      22     11     12     17     20     
5      8      18     14     13     7      
