# vtk DataFile Version 2.0
Really cool data
ASCII
DATASET POLYDATA
POINTS 1137 float
5.5023879639467 7.04588330764106 9.0765516930775
4.55479187079006 7.5387262430167 0.2443356709242
4.84882568176423 7.37200711505452 0.06246248556978
5.04673952584085 6.87209013472132 0.12220066330732
4.63876737400748 0.29565341131153 1.24704308172672
4.03681046594617 9.40016707849546 1.5637936133831
4.20796434289299 9.84156491897269 1.68529460512367
4.9125147393787 6.15003031434555 7.15245255003115
5.30840143550353 5.99946064455209 7.03126334300042
5.75346982850537 4.76513370396789 6.75743521947267
4.26286303926085 9.84029063910695 4.33040580983432
3.99301897434467 9.04659780720786 3.66661179105676
5.12988647722558 6.05747444009416 3.39672656742327
5.30650919683531 5.10502667325518 2.56866029247765
4.58136206887355 6.34892883338987 6.60532745215169
4.23584082433028 6.89781387064591 6.95817818465883
4.81630881867185 6.64099164961334 6.16029047746905
4.72425226968953 6.63441586317231 5.73307679949377
4.42581964090927 6.31395325474688 5.55042224157348
4.47969382874184 6.96961071896747 5.53750893658808
4.25438312945519 6.16558198471434 6.53534148552092
4.61780670915455 4.62394863603481 7.90902600671976
4.8562686774174 4.5724468758152 7.6606921997573
4.81042630283581 4.00380988686983 7.46123765556684
4.31925915263394 4.20839473065558 8.01895314027013
5.16737504004394 3.35584830061021 7.88340044008188
4.67574389166761 2.18637079313498 0.50187105535648
5.004725969388 3.18794125164675 0.34569104711887
5.02307118566854 2.48031483357372 9.9900641765551
4.97560254324397 3.09185535589064 9.96154126665381
4.498250823675 3.42775520143097 0.1397145959739
5.19485373067782 0.41363733996634 9.70300661104022
5.14238859027885 0.60315529424405 9.85307352927021
5.3856926537056 0.52194268309509 9.4126838461381
5.12896711348888 1.85707003136505 6.80595668455729
5.28480317850444 1.72670314820498 7.19050999340775
4.3110241330851 4.94354584891371 7.76516216203084
4.08222333501716 5.68657325572865 6.95852803847474
4.39797789526041 5.5961037950491 7.52812338487403
5.71403757379657 2.18872978883926 3.52727701630171
5.36707413319282 1.3762495948857 3.86446317929464
4.00850333516678 7.10018718099333 8.1524240806035
4.47567758192505 7.21381752328132 7.81305000943323
4.34046014514265 6.83718457144479 7.45772934114926
4.25612966932928 7.40496144719361 6.78303506792093
5.1998052391111 3.26796221071218 6.64802880798882
5.20243705900896 7.82444243893096 6.47534826931541
4.71964342703993 8.5263288819228 7.28918695961057
5.27820156770214 8.0077212497547 6.65479388195163
4.97741515595991 8.57724201476558 6.6884294027464
5.17763026235033 7.77252608137674 6.93135508321094
5.10343901209677 7.59758277122173 6.68491390116461
4.35322576185984 8.54430446746355 7.31581672625997
4.82593958081631 6.3075385662551 3.7417954649084
4.72948617177833 8.84526250954749 6.22744288675344
4.71897065783508 9.42400039912757 7.40881883589981
4.95826711395395 0.24290275344547 6.36036295028884
4.71557074004335 0.63644236314932 7.35893340568724
4.83392895713106 9.70326625060261 7.71350742607338
5.37382814415998 0.29678523324563 7.13473876871323
4.33249894181586 0.63743464210111 6.84433389444056
5.15464778185414 0.5866524031963 6.99093187226074
5.09454024758925 9.80103985632483 7.67100342679016
5.13365154106295 0.18095428685766 7.62653284310727
4.72254836142812 0.44391859613587 7.60610053062384
5.2812409029783 7.14054305933293 1.42757255247995
5.07572541816959 7.15357999598806 2.11488160185999
5.00972470289946 6.01685508030544 1.42638215583287
4.30119714651562 6.53911929382351 1.95349094160343
4.37326822180199 6.19362961271077 1.8295933756782
4.24103808581222 8.89162767128304 8.27998194528919
4.86333315089613 8.9370198865152 2.31401557374437
5.08872677169391 8.67764014886153 2.68273439131884
4.31479929206847 9.25870473730384 9.37393187418791
4.59430294142296 3.17663001865551 6.67910191836323
4.40459832186337 2.96296692457575 5.57307325092956
4.27752727738931 2.68144711348142 5.89952933938064
4.26677376541764 3.10671370188007 6.28284032422261
4.80434023105243 2.73652490116309 5.38927733786601
4.35437572128656 3.41152237513274 6.14782405636906
4.46393669516418 3.42890494780114 5.86009737536749
4.4496723327511 0.56206953038817 0.66534829811386
5.43066018942757 3.94088484727885 2.94357208907214
4.8234420890834 9.4570356780677 8.17476307479869
5.02724466240267 1.90311544481281 1.58959352498153
5.4399998832224 1.47144673957126 2.15856868618219
4.92236566479508 1.82254861982546 8.037445215115
4.72072835019273 1.61874886427 7.43812864453898
4.94924940645306 1.59475592315931 7.52115256051984
4.66711244049757 1.87971133098116 8.10937074623778
4.49808979436248 2.77690768915523 7.74516412878832
4.34053170585014 2.36090361524747 7.98787941897951
4.91371617556704 2.85464395913158 7.87587708779026
4.81686064635382 1.86127840005013 6.84263649560104
5.24231213526116 2.90420105986541 7.62921340849344
4.71532839216805 0.44515013493562 0.87178458122502
4.22648019285635 9.31371614263928 5.04046239048652
4.36574121866131 1.23345576691766 5.96247231072071
4.68671373901448 1.33873692796929 5.57989053068677
4.416194958248 1.78554480307351 4.95542605658272
4.38832855653673 1.40868745521869 6.48972906315617
5.62293017371963 2.5122364115602 1.30917927768607
4.65531335741184 2.35298496474033 9.01318802520976
5.04430685367992 2.1032222214245 9.33806641994611
5.03389528913116 7.62858877549511 2.63911603038971
5.14013328465329 7.65795182779971 2.48206383537722
3.79157366845981 7.42097267860941 1.89505679943419
4.98937433236318 5.81012046218532 1.23529716779841
4.47893014986384 5.74594065572545 4.31827815040489
4.4698440739134 5.55367260681286 4.28407207348824
4.26579605254421 3.18305970750915 7.8851849405206
4.15792500290398 4.69073013572808 3.19699825125334
4.34869166843613 5.49089922787291 2.82052675561501
4.29689563733879 5.22501866883329 3.17160960270567
4.52354789419476 9.8455761611199 2.37862623888515
4.94936429501781 8.63478440036727 2.8584857763372
4.16808807666253 9.60370522582777 2.54981611852726
5.17706621421808 4.91039233271891 1.09876217850692
4.71731362508526 4.93488089656839 1.29691369050977
5.29279538735639 4.90867240414799 0.49969437023351
4.72903368224158 4.93210375537908 0.2195925275853
4.97625959039599 4.92975889123437 0.18639870856403
4.26853865325575 4.19098535932468 1.06028935842165
4.43762837270382 9.05609176268499 5.6210745781509
5.42300748216116 8.60404225871064 4.5557779475836
5.02939426453667 8.92489986294673 5.71120556049719
4.96931425290517 9.29913350974722 5.45393646295345
4.82842059650519 8.82640183169875 5.76258228190242
4.48984003061524 9.31379832352828 5.46320384762906
5.19133068852104 8.21866540626401 4.67324736940412
5.33944438416207 8.24530055359684 5.21157428559654
4.14881991305346 8.81707425839941 5.23459672911971
5.06169600376431 4.44823423325327 5.76092450219619
4.13114240339174 1.2477224493371 2.94150264468377
3.87421741933512 0.60888115239979 1.94595084223079
4.63367150206203 3.5472820295116 4.48220586220251
4.22911462559072 2.27918392265017 4.58127396405563
4.66080083627223 3.54921407895502 4.64278558690124
5.09692227780138 2.7622597042359 1.60501625886977
4.29041993483763 2.14950015551948 1.19436172585845
5.00080136789737 3.15995520822856 8.77735499693137
4.22051999185624 3.40526888986237 8.92022055008654
4.79761042927091 8.12736862831885 2.97374929925517
4.30690620960576 6.89358731073972 3.44255434898673
4.18901858665024 9.89384088366474 2.17118121820363
4.19621051945748 3.08420750445059 5.25740161603954
5.33272598934428 6.08647387289808 5.14220880472433
5.09244746298208 6.09046176371181 5.43754939963362
4.89342124248361 6.62009608692038 5.70027240809422
4.60272180860964 4.6054915772866 6.6959961213601
4.76386060006805 4.53212860468897 6.80148365589618
4.55061360505512 3.77604878919744 1.49425145907379
5.13159032948212 2.8136124611085 1.66915297494904
4.81563182491121 3.48428160248674 1.33541086961856
5.05945216294985 3.38823504195567 1.61074925572399
5.11123452058398 0.35512915659565 8.96668987492955
4.34745435787608 7.87577866169265 4.84278428228297
4.65712919785146 8.0551848134058 4.49267827430323
4.55601542104658 4.49991627026644 3.39646108908236
4.78121471714692 5.21464531930084 3.42384007477861
4.90968662796936 4.84340039926157 3.47517336121295
5.33807742815361 0.67117771883704 3.46776748314463
5.35437992018671 1.00033938585147 3.36872751088206
5.36346395992919 0.63134433843897 4.03978939411623
4.98409639123763 1.1176461641903 3.05288836294757
5.39620138487789 1.27135174088878 2.6516374702756
5.17040685150109 5.39120756357333 9.44580398563316
4.06906349528425 7.39768673762242 2.79984950326157
4.43651252092186 0.09967817116626 5.66919613664624
4.34320372036548 7.02303607798967 2.9427854194058
4.77901015573117 7.745368578461 3.88834936095907
4.88915516890791 7.7751188755024 4.36807005596456
3.85603274385976 5.59679320957855 3.68719683855329
4.95009658276431 1.32204219281257 5.64563082696051
5.21557160616934 4.6682462137568 4.14925026836037
5.24989476164376 0.83596276168627 5.2315934726316
4.36928663960726 4.4978684115708 8.98837418906941
4.58449405308512 4.07889638935253 9.5703306606218
4.32474601184634 4.20459404335301 9.39614126057024
4.66357819502228 5.92713461416838 0.38937123787427
4.21966469121693 1.65199542914012 2.43657545088909
5.44329035602919 5.29768769938487 6.81164842366575
5.15116923127227 3.76713526330928 0.55527995971198
4.46696425615533 6.02655632043523 8.83551104362955
5.12005715554095 9.27920777283592 2.26552227839518
4.95348453053962 9.75789707682607 2.25908444787878
5.24488620098943 7.95763263118506 0.83317301961924
4.25625493912098 1.45145440234935 9.0357060894638
4.38502457565552 7.7088789184624 2.60305424839314
4.96086179608813 3.78663062936782 0.94131653644834
4.58232723396644 7.61720520205984 9.70294570329209
4.41085668153635 7.70954868455709 9.84649485329636
4.55245951300458 8.6144051660386 4.03624299104688
3.90084586726769 6.09737820072211 3.78161713313877
5.50727960154107 5.25635632959729 8.46027848541697
4.92899860072939 0.54420399069337 6.51333667038815
4.85707888283363 2.15978331199268 3.14114559555831
4.47300078064227 0.6196042412792 6.53639184573185
4.51984070823856 1.18141895751347 6.23818239934838
4.75749223186903 8.24924163717248 4.61288632086493
4.53600932697182 6.3404507748355 0.19628283693865
4.68786062599009 8.60620640117047 6.36865116741903
4.59084121389158 5.07580967221501 4.68816225196909
4.51823928440165 7.80790669646602 0.86908361008452
4.96406187192195 2.13645487435654 4.14788371429849
4.89604335366485 7.1818018056423 2.7722681908269
4.4212263826077 4.1236133959648 8.39895681008705
5.24522144954701 7.2872722650534 3.23002847377383
5.19142342869513 0.21763552501002 6.05815501011442
5.05252647481833 0.10282862419984 5.68899676613282
4.2238842823291 2.79078910343489 2.35567128089468
4.15733804434375 2.50384085637829 2.6270923048903
5.26355322467224 5.66946661392713 1.94508671075566
4.77991580164733 9.87538728277298 1.43607399686284
5.30099279329182 5.15751432886944 9.26734682531776
4.95622475777306 6.73767537558702 0.29810317861603
5.16104223674974 0.53608369348657 4.16013211589432
4.9784333345601 8.05167028487407 9.13783740943479
4.47466764847188 6.20700345793066 1.51228353172411
4.64407027483033 0.31853668932077 0.92480972724278
5.05734051179853 2.15715701806825 9.75084957940167
4.6093323806661 4.09842712735549 3.89301058613519
4.77729506442483 1.74421841411314 1.29375944516744
4.55573797957346 1.34819903143677 1.3818846635264
4.60940487120709 4.2581007504452 3.17150654525299
5.42671163922264 1.61071825656881 2.4861279305699
4.7269567423738 1.59749611968363 0.22969106115274
4.16197932455676 4.55493302343604 2.42843750388164
5.0068137115306 2.90474091747789 0.54290704290817
5.62356433486047 2.61124704172782 0.86623393251688
4.58596754568491 6.68606024513919 6.81443348292773
4.72568404839858 6.95634010506299 6.55678138437605
4.33095795731909 2.54495155730969 1.47473297299421
4.83124778434878 2.48216349947971 1.75063810097264
4.75252274389454 2.01602167475292 6.8108455202196
4.2511999351727 3.09364260507785 4.26185199923403
4.67535427503658 5.55063220327252 9.30746882409898
4.68789735713425 4.14549448836841 5.51797565968872
4.35985686201143 3.57950757320517 5.78659427042751
5.10139637404761 7.70883750942981 7.80220108882969
5.39722674021386 4.39704659842721 2.79283284650751
5.2781901937593 4.83247784585892 5.57752987835323
4.25254545302925 8.81148783820619 2.0903515634843
4.33665397812379 0.97333526125756 0.7175331284557
4.51295869687792 5.05552490400934 1.28473907172854
4.43972501413115 9.05670387565504 1.26784119943684
4.84359515110771 3.28995398359871 0.43308846001122
4.95496009241078 3.72140836927668 0.58893285866584
4.15446187665076 8.76665585664239 0.64440137234454
4.04341162368553 8.8262444020305 3.93371405035557
4.89246485532209 4.54219235686646 1.42442964401693
4.62533393855747 4.05969602673366 1.2294785561728
4.97224695483843 5.39493991498233 3.21182185323649
5.30246883831922 5.18670257613726 3.060645748512
4.36237883184781 5.34763455231559 4.49589719130702
4.9326673104008 6.56577662241855 0.19282669234212
5.26330377120811 7.83580476941164 4.45017249964766
4.09885040605991 2.80745946053834 4.71291578076585
4.2799081614342 8.84639147354243 7.54176521569934
4.40740744199049 4.54264058102831 5.92749415464264
4.60899326531606 4.66663502060752 6.04178497872713
4.46351050273274 8.20621296097185 4.03354064121854
4.58123746801472 7.99584453124237 3.79161114542196
4.79945037070201 7.26309405675814 1.77656000468519
5.02612255822179 7.5577800340325 2.40618592303918
4.94643833089583 7.55173827511766 2.58426295337878
4.22179187813202 2.99805178767227 7.27162646948703
5.18929470220768 2.01661741434858 6.7677066732836
5.40271592551443 2.30699729110121 6.07199387946432
4.31325290234016 2.33232391315542 0.70541481565386
5.24615211143406 7.02074019151746 4.77841184330237
5.2634275720838 4.62013109556933 1.23205019193113
4.68923901039386 0.8015819592286 7.48945851361793
5.08273612688875 1.29417666628994 7.55772049110566
4.7711722822552 3.03949257533704 0.68243308549617
4.33055745974844 2.84119693347834 0.79470123881359
4.46809565145242 9.66386635485954 8.53823449316287
4.81565000457404 9.75287225409713 8.91789561336418
4.63959301199561 4.34160921692943 0.05016276688959
4.19289398904439 6.61793031692715 0.44782918666307
4.92506064772511 7.26040670741637 1.4662709546398
4.71545420765639 6.95626114545565 1.23775256191008
4.64252262762308 4.94553117083753 2.06123623774285
4.68295432391632 5.01985684759861 1.36719792449849
4.18132809247079 4.45655312737082 4.22885961668974
4.77803038127842 5.44572356909622 4.19929254737773
4.69487303236839 0.62040583049657 2.48329400293661
4.52409069169402 1.54715008679166 8.9306216753432
4.57066211605817 1.41156860689048 8.69332109796663
4.91955942495366 1.50367309000603 9.22517840846535
5.19881533033398 1.26745910721527 9.01635831239803
4.43615131244799 3.81143517236646 7.73834182467992
4.614138426166 0.96838074143204 5.172517908439
5.11300906127858 3.29704638258958 2.75443162909905
5.15048187308584 7.78529580302723 7.89519523631109
5.03059233047906 6.62002690252518 6.05139576443307
4.92612469470698 8.04397312860117 9.46539630653179
5.37149085594801 3.91078261933652 2.22279548334857
4.23503233561072 4.20214762654389 0.53206954832985
4.02869251723797 3.1371124287434 1.32630306345436
4.21091111897893 3.68574677476812 7.5425396397653
4.14800685646884 9.63807735358256 7.20103987575382
4.78933860857358 2.72596181901553 5.21563318205734
4.35307104885929 3.0090279831999 5.03260080730443
4.34427659955859 2.92536284207796 1.19529757520034
4.72182000172798 3.09637185924843 1.19554455317034
3.88847699600318 5.46025154863139 3.35469682546525
4.86418882169977 8.69898767276223 0.47383837075836
5.33102936339618 8.42515161562303 0.75797519158379
5.27118669030635 7.41393317424328 0.13638804656113
4.41400418667628 5.82991078977331 4.62866008307163
5.28419374334467 7.37758981341358 3.21997412917876
4.36022362893039 5.41735436162519 2.4320843642701
5.08747196056571 4.47649897916787 0.00399317897043
5.43755809701463 5.56366219119004 9.43808838717885
5.00590248905903 1.68350488468459 1.92151565879541
3.88932604148453 7.34097396822123 3.71151663065746
4.64946365439559 3.27883804259535 2.99906515327406
5.02287249420001 2.51016607689042 0.39330392835517
5.29882915529582 8.15990635351333 2.2972833285673
4.9513813607179 4.72194802166598 4.00715255517572
4.57449380832537 4.35572679405032 3.88664634519279
4.30404705639473 3.90958846370858 4.17980673698907
4.69428009939934 0.6028765824241 7.7299253459007
4.93891520212873 8.10844061457775 3.41417068804981
5.14430838598704 7.79338349359086 3.54657433478989
4.01579386831229 3.3084456261647 0.24208085078152
4.95088967622242 6.79790522957682 2.44136809443859
4.67161928752378 6.57372813008024 2.4300580651922
5.05887586746686 8.90444742543881 4.32786467053437
4.34396363353403 4.32857258705327 2.44702285222517
4.2620733561785 6.70432827990508 2.78820993181262
4.55862411765849 5.0891259133047 4.53123948320678
4.86573682037362 5.12304872200445 4.34791955472586
4.31925412085317 4.97596789504601 2.18824325986081
4.62548068926541 2.19700683496589 8.20883647647764
4.47649356800775 2.18060739046762 8.84482964849866
4.69439056201885 1.14500791295796 1.09175492107579
4.66086003169693 7.17021401376189 5.3554764140326
3.78970818203897 7.08588163562012 1.72943210952794
4.57513576578552 5.59208294703421 2.79464206171225
4.66870887508073 6.08235325767464 2.91538072305707
5.11029561265475 8.53037526051282 7.83975508342548
5.27215265216263 5.83540231238615 1.84172179238116
5.29906506689477 5.68041744384724 1.83619886182421
5.07233614393138 9.46795610350986 8.30422418337053
5.05915137870161 9.68187151370016 8.81548363769835
4.85644476008309 7.84460695255182 8.94865944686597
4.6927386256317 8.99765791943205 8.06892202989849
4.93743792523946 8.76530219379354 8.19104252445044
5.29934661504642 4.55154281949541 2.59653795089415
5.29415181941059 4.478869760456 2.81302910135784
5.30596585679033 4.84474603425885 3.20590491031087
4.13545328166292 4.18582581459105 8.69425142385974
5.51843378913402 5.97603255664409 9.29475018205447
4.32520610214957 3.70595731963 3.16842680216962
4.62434389953899 3.97330119541892 3.3182713559101
5.0090677347447 9.00182266159567 6.3943280690208
5.25968268830837 9.06002888949844 6.09879515401401
4.54814671747477 8.48299884862999 0.42198628288009
4.66401358735257 7.90064545589909 0.65458013124098
5.34950219396619 2.99083285826522 5.48111033921692
3.93624663121747 3.0215129146076 0.58150926006493
4.51019731990241 2.80982998072633 3.95712287484404
5.22882696176945 9.29102225077683 4.93900374007696
4.07197251627463 9.33234811822694 8.59884242345917
3.99703725471324 9.23370192266356 8.85633166517315
4.98073761182264 2.43750997415115 8.19729599251012
5.05158849293946 2.63120321989988 8.73720306397279
5.27028883383797 0.89126349515567 9.74523000114861
5.17936812570383 4.31202254342551 9.33418284210554
4.74918912764212 5.82992489939562 7.55672898368106
5.04119949102607 0.50023458399118 5.09857252784342
5.13678322567846 8.77995523750757 6.6718153009494
5.16517698905449 8.99708347249291 7.10406772270135
4.77887825267405 7.15413512463947 4.67549745487095
4.52656992972463 7.21323656443716 4.9479303315179
5.22804169273264 0.41969759158333 5.26776122446973
4.89405506164033 5.30286897111371 2.25494310451434
4.59641891879814 5.53022866192309 2.43595393530693
4.28872185588461 1.16401123846489 8.67298582204078
4.86287168036478 2.31870104532752 9.88917223964312
5.22629987282183 7.26912596211315 6.66562611480678
4.24652206859872 0.77778928094439 2.27055697662497
5.31931124807856 6.23951945361721 6.18514272672755
5.18163616398995 3.78969433930454 7.52502907115762
5.36793416821371 3.64544927624392 7.00817883544603
5.3695593973514 4.68121241297584 8.25567681718363
4.75235008158675 1.90669077225619 3.59644764213902
4.16964652484636 3.69970625016375 1.52098717988833
4.26765663540403 9.10588165769305 4.62035127908958
4.68198825817882 8.69349177949466 4.34194206561744
5.09595575391083 5.96756311174135 6.60211448310166
4.29033390479148 4.24249848911004 2.91308246535688
5.43695372515555 2.27763193742556 9.24383503704025
4.48142949473228 4.0819582985003 0.26064868177289
4.41439177223078 4.02324779150396 0.18294379118093
4.91630097780605 4.16649458504031 5.509931777848
4.81655455188705 2.50119668711652 1.97101956178594
4.9949107526635 2.70544278558177 2.02514827727426
4.50862815741463 2.3340932536682 4.05881928668201
4.3922860999564 2.17938609468249 3.7400054039487
4.89302061676364 1.28171493878501 9.70616324225307
5.06492786477353 1.46236871007114 4.19484869531352
5.25439007565267 9.22474709508489 9.12203002376456
5.3366230632078 4.27509718500155 2.21000016363671
4.46793700137422 6.33841538820208 9.41708289677753
4.66604909506249 6.00984927755533 9.15182535728289
4.31965097210031 6.44487725290288 9.30374579353737
5.53901067258995 1.07153921685746 6.90895800261275
5.28467746817543 2.87083837167773 7.3417459191393
4.30705292915042 6.32017788521486 8.73031343834106
5.28834441116978 7.74677902981659 5.68782277008064
4.75880441922116 9.1678829528503 1.13576632793019
4.70649964149254 6.11637395768345 6.73732697505705
4.32566185236471 5.90610390570169 6.66097140675696
5.11456141585625 5.46854578677158 1.39392960004455
5.40898789224587 5.24188714534065 1.19187591752385
5.40709083875745 2.33954562390316 3.06825070799218
4.89255766034335 0.74204674527556 1.1702782631732
4.70727791057708 5.9265074260602 7.70815238398552
5.38209906815905 5.92038357532498 5.86082553372514
4.36738672644108 9.7718974434684 4.52482085350772
4.97865591463361 9.81473995102284 4.39246295409743
5.03338184019423 9.39069630787819 7.12124562209645
4.19812734197509 7.31289136668991 5.9366251549559
4.31047829005624 2.55809928648339 2.15429846847808
4.2372696489585 2.2807048648616 2.42410505135131
4.66390636215453 8.63560443623983 9.40262070811765
5.43993463559365 2.56544188099716 8.9097522269679
4.97645398202094 1.71722814974852 1.01119989559982
4.63528400579233 8.97304136511523 7.60086920782409
4.86060604557932 8.74447845264113 7.45005682999201
5.05915550955113 0.73792616960222 5.06950333814948
5.13538364497097 0.86424311148373 4.39864228119794
4.54263869979551 6.09290709163821 8.65658915904246
4.381505704323 9.32993490173913 4.69852651750707
4.94869279919715 9.32610386957403 4.58962825606166
4.80568415907453 2.13527454120945 5.03701466348034
4.59520065595604 2.01117376663528 4.82923049292157
4.63871779321614 5.77756591903064 8.25529929440161
5.03812680217611 1.90256814746271 3.84469219693426
5.05929921505195 1.5766975388962 3.90036377954428
4.33538785653169 6.85100615322361 1.67191851003025
4.41164001019827 6.75324351003411 1.39731712522494
4.30196060970405 0.56670181295091 8.12016633921214
4.52679071555978 0.71080587017139 8.59208377364728
4.29234657048254 0.14143281594894 5.92743267707889
5.28481717371043 9.59553880358848 7.22940174382196
5.30459438058607 6.18873144128385 9.16634201221793
5.4720509300812 2.6715774727651 3.07020750774306
4.4321897786961 8.34770475142994 9.84941387924786
4.72445525414059 8.45179345283507 9.63235719854076
4.84617775154608 8.41335179191478 9.01642613536173
5.10790241136084 5.54623883816996 6.43782807282304
5.27667966062131 5.52846608400495 6.01522564852829
5.36122216632957 4.29597997469136 0.18634620771565
4.90161508254779 9.50623502511528 6.68177965615337
4.96690097559604 6.60613195463929 4.37005932534591
4.80147954003586 6.5305419560399 7.45765999034538
4.88999575450038 6.51195625319784 7.26952247759262
4.80948971486907 4.50351098451969 2.23045040652581
4.91541014137124 4.34338549350532 2.04075850723199
5.44558245425185 1.3897646096532 7.23833864642534
5.28104301912861 7.85861663805149 1.18154888196051
4.94114290021666 9.53740464913055 1.17167757971833
5.25512224196241 5.04954369270583 7.38421539696146
5.3450281812027 5.00513377783971 6.97008513050751
4.08351211064084 2.56755691886431 1.6844757473437
4.28106213373478 7.03160384097046 4.91132112068206
5.42144140365359 1.14605363178691 2.21090088810846
5.28385148972475 3.01388063098991 4.90593555207127
4.93008427473685 3.53988820750406 4.60192670655395
4.43753535195992 5.85238964500704 7.83445496949765
5.13648179660059 9.8387079058877 1.71684782372836
5.42245585619035 2.70390923101216 4.24512418549783
4.89359649443779 8.26028903617028 5.45261282301513
5.25071602163854 8.97120165357206 8.39281685811968
4.55970589693995 3.56665797335052 8.37525066977042
4.96188274844632 3.39235172823537 8.43856600787473
5.50659359802203 0.34758527677362 8.1597456169189
5.16946229702226 3.56439557916947 5.90209708067792
5.26552564767887 3.80923955248093 5.77130963348609
5.30511727001009 8.85694808040572 8.8101480917068
4.36556744657253 0.48003857258846 6.47983338201979
4.52055698076857 0.18240744518515 6.34509127733565
4.5448475494994 3.45728730904516 8.02072266214344
4.92719253704326 3.27458856493306 8.03961169445405
5.37491814574878 2.27478583630623 5.89838270758751
5.04053167763424 5.78868180170958 4.82344286101452
5.5240110149221 7.70649686726929 0.58739117180501
4.53832989634176 5.92257722361884 4.70947816038138
4.43398292695944 5.05212214978072 7.47735797965163
4.98156683748207 1.46626471918927 0.89130545545373
5.44523627336956 1.29823727433765 0.88342040163327
4.68612077516128 9.43918164844199 9.4018484874797
4.94723558040399 9.16369114832838 9.44888478931418
4.54309268852835 5.42038729080517 8.39786972325347
5.44068802810078 0.84873755806724 1.04371405966814
5.31566872667116 9.36604683536903 1.4145621126445
4.99485521572407 3.06539929207834 3.23979644440374
4.89798218597423 7.7187923737054 1.3227836470749
5.33746112214102 4.60423430807841 7.83765087488822
5.193786871343 0.92336218118606 6.23840224595987
5.00197457818192 1.21538812706637 6.13360857804762
4.87218565337292 0.66972086289576 1.34739138475082
5.29450386307499 0.60922944667099 1.58265991132069
5.31358562383349 6.68285212841462 4.52357588925317
4.60101044027984 2.05034468546604 0.22776186853383
4.81556819212799 4.8285035610261 7.39622186427386
4.77604376009598 4.70605831939671 6.89572156452126
5.46273595986585 6.18392402628454 3.294950546262
5.30384697435735 0.77649942365846 1.99020001962526
5.14747898977322 0.88484060147968 2.06828703515117
4.11925314469547 9.66786702520884 7.10557240003531
5.17659434895852 2.06136294735489 4.71033194108011
4.98268202181277 1.9383243504395 4.48454594211118
4.45758406333556 3.25090737724818 9.11827899684864
4.70395301131251 3.47365538109768 9.49196296594667
4.95805901975819 2.40554111564164 6.39699283644527
4.91430802986757 2.94689857839588 6.72651247658056
5.02063502417839 7.8877429244301 7.8921543993324
4.63075545615032 3.2603403523679 9.79795751451878
4.70384523841219 9.97332292148654 4.02307291808308
4.93272425667931 3.31141216017357 3.0456744130185
5.05343627679247 3.71753004604242 3.24763992048361
5.05667721014545 8.9945084783245 1.35103731807282
5.41271636134543 8.60665496340794 1.17593923439149
4.95432705315013 6.64127426278459 3.86045053968085
4.66540261709357 7.00866063707137 3.68466927697621
4.44616688802077 9.65609033070054 6.61832360576838
5.25755127930798 3.85592732722796 0.8485307995286
5.4628503646031 5.61875465939411 8.22537910136844
4.62989944301842 5.29998708604871 6.37294988046018
4.27459496277 5.55723503020068 6.47580888288896
5.46483414015377 5.72353217548703 7.16411298567793
5.35788946256109 4.21838162270158 6.00965470717242
5.31433995425447 4.22262405286182 6.50122281275544
4.93285349359134 2.72055204113874 7.06002214921681
4.9679856908962 2.18678956441961 6.74526295198163
4.61285519674394 8.07194587809838 8.61873671872739
4.60947091311287 8.3504358694878 8.67714973497896
4.22869232218184 5.28643847982226 7.97846759930189
5.62058837582908 2.39287927309282 0.76253679274388
4.30229327478636 2.38915144639641 7.36937741510264
4.44261861048976 2.71875337669122 7.4143878574027
4.60669028729315 4.76160160347782 6.77564791494906
4.64218456049081 9.09191911319028 0.71900331124009
4.94071654386004 5.86788171989373 8.15449165535963
5.08559299919187 6.20206714209888 8.3773834100247
5.40386116095769 3.392584105705 5.76760552923277
4.5110297877249 2.36325097541442 5.94234993430661
5.17595368323938 1.73550121352442 5.53271759856993
4.241206568557 8.47512318227517 8.67172862539671
5.46394624482558 4.2206684729743 0.87408047896666
4.81970403900115 2.30931859946026 5.64702313191685
4.80807494081138 1.98373460575402 5.41580955183768
4.19350376103469 8.95477284827942 0.72617666324242
4.18426963069825 4.64843892067194 1.07445231298825
4.52316624175854 4.9642961933037 1.19613806266944
4.39971424451511 4.99528503182096 0.71488501093492
5.05935172170138 9.40805669531842 3.45227881341884
4.67135869139936 9.72446557259951 3.4880245835282
5.31708086857525 4.83477837378914 5.07507684914088
5.29206824994848 5.51539001498528 7.50085713562305
5.6185193434521 5.51128673506165 7.92661678725047
5.3603130337624 7.25742568846638 5.56006808422425
5.0599821206746 7.01532516359574 5.40356104583034
5.46275141998187 7.7242902026782 6.2336888917215
4.18792886301707 7.98530968792682 7.45903632674644
4.32630506704506 0.69808340751143 5.2714653788722
4.45705945711688 0.39056314518419 5.26618124955199
5.01746780039013 9.85096630477627 4.26554472921072
5.26807423222961 9.38972738816143 3.79094962838606
5.69975245302945 4.38913767764507 6.52293823552505
4.56087493709054 1.78352087628764 5.43203408780135
4.00758990019365 8.60331256501091 6.86419366896306
4.26242648499613 7.69797142331409 5.88134482950579
5.30378083311036 1.48726855298047 6.37061954250522
4.14680564832116 8.62135054221007 6.47753580451168
5.32685940139994 6.94671015093615 5.06674103692295
4.34212470639354 9.20557897193893 3.36562491661044
4.35196689690833 9.57092225679235 3.41855161464536
4.74011150580172 0.38110773125685 3.9105255504655
4.28800003810702 0.71038129618781 4.0644975567748
4.76673303707042 8.02131609195589 6.12029716230117
4.36185029912457 7.81935522553172 6.16705468703034
4.04711851813399 0.18246686851127 1.54763506817329
3.84485528836943 0.43139828535409 1.85184970255552
5.34446001200583 6.80292852585188 7.40933831156671
5.49441860604072 7.11977526582104 7.19392649427784
5.50159437434085 3.33221024586376 9.55388414355018
4.13588288635459 7.92117922135954 3.67149064164834
5.44592553424876 4.04693786448782 9.22028224032447
5.30676767808567 3.50346453669034 9.30549221867032
5.52956519115959 7.06753572850522 6.13657979764503
5.55035698946688 7.22238045407792 6.31142302737888
5.24724727320426 8.99429347959055 3.89047151194105
4.8670527075952 7.94586753427936 5.69040377511857
4.56211347076773 7.74961728742966 5.56097182871189
5.34227287491328 3.31998065816291 8.92586112288126
4.2538107081424 2.94839841640987 9.5351527519681
4.28054387408723 3.04127859636237 9.18793963022414
4.43404017799633 5.35189744260164 4.84547846177441
3.95359528174229 6.69797105189765 7.67114941190806
3.93151922214173 6.29896023710487 7.86545009450568
5.292530204709 5.99542603195397 0.79170444458287
4.31597824294765 2.56796314916684 9.51742516383751
4.36320715053961 2.52931929249575 9.15405636686423
5.08280920234975 6.02543840597192 0.41251211514637
4.19765372649527 1.93695798357598 6.39096309674652
4.5200978618433 8.25752082517013 5.10585418194266
4.36931016202215 8.0685212280207 5.1339583516865
4.34248711344697 0.99210815010693 4.20308751918137
5.3765510096085 7.56989613173506 8.42309579350009
5.22084592241554 7.64460930993344 8.81841244055921
4.48549604001951 5.28732787072022 8.94814525786058
4.33449522129975 8.73190590347123 9.39217993921942
4.36884892916481 5.46052768311382 8.74163330915966
4.47050809083554 1.20994875964941 4.75755482623379
4.75136908942109 1.13413178057067 4.37219485264711
4.16225773572192 1.89123684522747 5.78237013472797
4.21515021175328 2.14866391231293 5.98007492561114
4.67513877689462 0.36826182668836 3.33287078347042
4.08076745265933 8.66560686647808 9.0143210803312
5.15711645847225 3.76058977952095 6.80263741871677
4.66131648667773 6.94173041469487 4.49167519986133
4.90867276742329 9.03485253288501 3.39674432409365
5.06207959582741 8.71638507128174 2.99677101190385
4.79474784719501 0.42226633215427 3.22642919572437
4.69381027766503 0.80740436810238 2.97247903457648
5.0040170403738 8.82990354151215 3.61938709190693
5.15535137417163 8.53361944969575 3.37200877482125
5.06785357756256 3.46836274776018 6.5828502108956
4.66746161933779 3.40894375221663 6.61345185852541
5.35437730849971 7.24215143331412 8.49870596691844
5.23564029814855 7.29491182765208 8.82084447491762
4.820497452453 1.8878669252815 2.78439621732417
5.12738880456985 1.91662985546069 2.54575029027537
4.92051516567242 4.50946404162366 8.61708296605079
4.15942761633034 9.35199999449609 6.27323375059191
4.2518792500445 9.09466301978936 6.15770115449331
4.17435390444576 5.03563313630634 9.07221277861627
4.03230827207791 7.1319736945269 3.77401104037384
4.54026633755598 7.16496483156074 3.87649245024925
4.91396664472837 4.98493141571382 8.80199346405075
4.8633098063481 4.61225841885331 8.83409068798406
4.13167662166034 1.59970672289406 6.34244468384779
4.89018121137131 1.97640619883003 2.26799136924123
4.57452365371201 1.94742555348007 2.4835138287518
4.78262205086517 5.8485686562131 4.26534582278361
4.3508696417736 5.74543575399237 0.87863019409996
4.99034462579835 4.7261862459074 8.41667341795386
4.97533360205613 5.02253558955903 8.56989176334221
4.22376697030094 5.88358332572763 1.21732599486247
4.42687580020726 5.70380849192271 1.08955528683471
4.84678924716088 5.9884768080822 4.49636498018769
5.04820612049181 5.90507466789834 4.59842529218371
4.31456587979668 6.84732710787215 4.67450173109015
5.64475158680157 6.26597380228077 8.6275607013803
5.60036220988734 6.25229848764535 8.51650637331847
4.75011593617425 3.99118394303668 7.04333867883476
4.53457180725803 3.86895299269389 6.98140627389621
4.45586112018616 0.39159349143116 8.854019472489
4.81500698681856 0.19411129869265 9.05010800665476
4.2440656265872 6.3251317102035 4.83976045098871
4.12471883361232 1.12658815134961 3.90193617506706
4.43629319842233 8.78484549230779 2.75528490602321
4.19162291499509 9.07393639473794 3.02738326653499
4.76663931760268 0.19532904735668 9.51149327560047
4.26855107053188 1.031514576203 3.07359438621794
5.20305328605288 5.82824582539024 3.47705579581499
4.58933712889494 1.22673362288201 1.70970559984218
4.23910772720337 1.20866973216542 1.91554202562406
4.66224854682271 0.99071230494731 1.74557459003048
4.25987126458113 0.91158570244816 1.98015702770644
4.38069434450732 1.12672892150146 7.37776642411989
4.19400815988202 1.04393443462759 6.98278146102904
4.92718683423545 5.64978895041289 4.2044237643116
4.09833326274155 6.07206785853829 5.93593712223536
4.14231375113777 9.45081358215311 2.54890459028278
4.45609935169594 8.96407899567048 2.42182608879248
4.90888141249118 3.63646322309077 2.02615267433741
4.66841753112385 3.85553650116839 1.95034972426898
5.42470610129525 4.06745500250136 8.71751775340931
5.36226114076508 3.5889520594888 8.58511256371029
4.16869492525466 8.04682461401427 1.83171449017153
4.70788207455805 7.62746993265626 1.91506362105827
4.2886433776745 7.72373033165112 2.02465524399632
5.35444288902203 1.27993500652893 4.18070215909462
5.36178012411353 0.98944302369707 4.28414893175834
4.53673882226168 3.24776024965477 2.50960122426486
4.80190874307873 3.25984582315189 2.38449865122721
5.29648507971802 1.10711478975062 8.16495871801566
4.21290971371253 4.97294809443553 7.01111845451853
5.13260617033641 0.74704545806607 8.22219456428972
4.93556498869662 0.77982877775411 8.59114942376736
4.24678173025645 2.16516538685887 7.75788691369063
4.43157239291135 1.82892739347458 7.80591812433954
4.62238524595501 0.67899075136208 9.90903188905067
5.21637439902933 1.32610564958969 8.40379333592852
5.00836919403388 1.18422642107579 8.6798385815243
4.25097112719044 1.41494152617106 3.59732137685623
4.28393210222925 1.20398008333451 3.11261660773543
5.20824765443491 2.26942403166397 8.10864939576366
5.38923199250699 4.13258029445385 4.28662452754338
4.70806346031723 1.40700397453668 3.14167009852431
4.70076214120147 1.59816130944907 3.57555593248172
4.4124405936448 0.4149139967803 9.66921088399228
4.160299510027 0.54772764419406 9.40260916797534
4.16833367398027 0.75518188536852 3.33913358188278
5.09626904571252 3.8460778714477 4.12170892133583
4.20118877716304 1.19704895594774 9.52552634640033
4.53454691693432 1.12975919925418 9.81516765889252
5.11186106342589 3.08954559788673 4.0785212877306
4.90344622492402 3.53863127144936 4.43542850750972
4.37294371573082 7.29987444469712 6.56005715141692
4.39842681415263 7.39845733386317 6.58931572515482
4.41557865554833 1.33221704397483 0.15548747729793
5.2918383658248 3.21494679467615 3.81660310298518
5.31564860084934 3.62117080099596 3.79482169077812
5.23955213770236 5.83341520405898 1.93659715561749
5.22154282594585 6.62652197342658 9.44659544498383
4.86623770406557 6.68901698147922 9.53515460659844
4.74899232538628 6.00077063108816 2.16157288394142
4.81980738146566 6.33896161226891 2.47885843425112
4.96205095575079 5.3128737490957 5.76894335040817
4.61076246055807 5.19228601972518 6.00456966300368
5.06700268700852 5.16487145315678 4.81116194041654
4.98941511545677 5.05254921115973 4.71718495089791
5.01664257387279 5.08955270147189 4.4327069266253
4.28638552835555 5.39189737824878 5.78394445125858
4.21444445635429 3.59028007139179 2.41144777745328
4.27507338029046 3.83624570611939 2.18321440559528
5.60118545480712 1.94203657740281 1.16499477218109
3.82383573130411 1.86466917824029 1.3306234725407
3.89229856846082 1.46969123719908 1.42016702733743
4.7692299033365 5.73581469077566 4.97898172693268
4.76563891100279 5.87710403494972 5.30672066287894
4.61116622760503 2.93415196524658 3.23599249422275
4.46929461905717 2.58201527317178 3.16723739685915
4.28739909861078 2.56505956081601 3.42028723706429
4.34525443536287 2.82641328196634 3.54212630584856
3.95951831350959 6.34507920266774 3.48915219919563
4.24584108207004 6.47928231468049 3.39802028824739
4.22422524206212 6.38905657613352 3.11880158792588
5.35720519909395 6.47692642727124 1.2372263996934
5.22882202378026 6.76629251266736 1.16695724578997
5.3576990312864 6.70198286727156 0.90368468742562
4.45847418819777 6.88148121444601 8.66558025244469
4.00694272494345 7.01266053487496 8.38448836016414
4.09149112251618 7.91331023698576 8.55907044263956
4.00016118321724 7.53686380787399 8.83075500394728
5.13108528087896 6.82119001719635 7.73828006440543
4.98946247140615 7.12488143717797 7.91978261492144
5.24044802691664 6.73194726430077 8.13679979085175
5.09674224051151 6.99119925755265 8.23431148210483
4.54208434817595 7.00598469250678 9.25673102280588
4.40472098537771 7.32994153757826 9.31173699913786
4.4520498943802 7.37513654376707 9.11859230938101
4.57997084616409 7.12220049775098 9.03875216616166
5.06530179725905 8.2274896233458 1.74277143638724
4.40408966118554 6.97082814279494 0.56228048247061
4.37512945123061 7.04439937126225 0.87296281809059
4.00959138998879 7.73745391457587 8.15749642438511
4.29800165688311 7.32463787117284 0.46215276063975
4.26758656390015 7.4118267578641 0.72314764226202
4.78046009662731 7.92099180169171 1.64033621587277
4.42882621717613 8.15368627575868 1.59204739490215
4.33558965478683 4.47130612139138 4.99791339621709
5.22479496336762 5.359981791033 4.69801543037328
4.4184716787772 3.91926577965692 4.99304126972304
4.64123435551526 4.17621647394544 5.19140144364071
4.81838840740857 8.69462437922736 1.75209238832105
4.55832770285736 8.67721130396603 1.69722472575244
4.91074555113891 4.20016467192347 5.18338529256497
5.1847694854195 4.63578738118296 4.9252929568388
4.79514375120758 7.93720430976841 7.4312324913777
4.95856652892528 7.80528853382495 7.78756681545884
4.46246345727778 7.77034905473917 7.46765256759892
4.50301792053075 7.63130973684883 7.75829807066523
5.2295922404306 3.84952634537134 4.83705452631783
4.21500995524219 8.11245590761255 1.03993704618392
4.02025997822055 7.98281720756652 3.15709464827428
4.3283250155485 8.06892557938929 2.87179620687986
4.17201733447029 8.34977334068343 2.75436432067195
5.42559422291073 7.20149478628255 3.28323850670691
5.51154715617653 6.82709480173666 3.64060337078373
5.15292486412533 6.48756334935362 2.49569272150283
5.47653281384261 6.30952732098271 2.2747083742617
5.52064865441163 6.41784136347722 2.86193651721704
4.73505496548725 5.55438270286966 5.0104991246912
4.7094595404332 5.59898910987841 5.39523522548354
4.604377009075122 6.646532246512632 0.339464475406096
4.684778859039475 7.13599414705789 0.291922540254615
4.548977506429013 6.61957357877274 9.378178579929806
4.527393824009243 9.479851792979503 1.3767412204091618
4.812091414426828 6.189792169807823 7.428903277127145
4.984433383576742 6.34668925426497 7.928794549162068
5.14540153852532 5.843667609753114 7.281082999602722
4.908917590445664 8.807308278414954 4.043181666209334
4.473950770870902 8.926263736935509 3.6697208608450382
4.666043743827571 9.8502434519722 4.307261452946654
5.125785368695797 6.261353008192182 2.9072575849522218
4.9098062717966275 5.791019277035117 3.159125400248814
4.941139122702825 5.35197495740763 2.721111165959943
4.6818126533032665 5.908879421997802 2.5572816076537586
4.677330620407222 6.658080208301348 6.534208199231131
4.4834098650568235 6.362656574029171 6.086732596407379
4.552835003867952 6.969020691367191 6.080723317383295
4.653830407173392 4.438321410037251 8.272138468216317
5.034288106372545 4.6416056957623315 8.015943863300553
4.6079824308979385 4.244007060348376 7.757650165398791
4.844604817643392 3.6154439288548765 7.778057224680624
4.9417162392877865 3.874749033527418 8.522081128483764
4.67701496941961 2.7779288587894144 9.781885518862737
4.906576778570377 3.1055321820150974 0.5010299088836075
4.686735456957003 2.6357152015790146 0.6034385277639066
4.399269369386018 3.1547262057695598 0.478921248523555
4.698872161069061 7.646846833027138 6.98125080607132
4.9825294891463034 8.20738563931552 6.461503976746728
4.76657724429067 7.732230772300693 6.40738594899327
4.50368105208044 8.15269928036415 7.392585014318721
4.989606832851978 8.164204507517647 6.9989995637794475
4.482090086560763 8.579790812090563 6.8339689549184515
4.561232411627031 9.547161073602163 7.022796665951191
4.582940457244406 9.242678923540739 6.392134853796868
4.9081225828302975 8.762097764917355 6.470133365377814
4.971924968662423 8.725017611865999 7.0407112431999455
4.88268390769109 9.105859999451006 7.337011643702742
4.569733480341124 8.726908928137028 7.439538987877197
4.649278184533342 0.41383140063832996 6.447003225152857
4.720943369017002 0.60486752808386 6.848785537701708
5.020049313709707 0.428950576516956 7.343447484078465
4.9931277752920105 9.582908323504336 7.428795410936351
4.689044959277518 6.86307214324173 2.064712869634942
4.866252298683368 6.529430355610743 1.3296531700292282
4.582976872538665 6.329241855994318 2.170714740133274
4.853059614737433 6.01451271641336 1.7846918158625416
5.037644445535015 7.030875856218078 1.3246383287049501
4.7352679499860155 6.36266992075118 6.915812587552049
4.570748761938816 6.6927113792935256 7.191504695334764
4.529011098525941 5.88085168798401 7.099021889812498
4.361977908599921 6.357259147925741 7.665766031898592
4.48049714747016 8.799066867900862 0.5970812000931
4.589311446217605 9.045817574757054 9.403893159663772
4.587000136930095 2.7800802505781568 6.321221138216487
4.888746281460396 3.253759461548076 6.6499890544707245
5.01328538354949 2.331978763584752 5.991348497944112
4.93261681667102 3.1793682194466117 5.662210152215111
4.563439931406232 2.6107017028189885 5.690250598879933
4.74461798207467 3.456425880416032 6.221264116367095
4.740872867094714 9.311000322469031 7.7933761148988925
4.459457393650874 9.268507148373853 8.332148793321682
5.044401406904314 1.2338819642252934 1.9690920763516484
4.791103464870986 1.581154279585864 1.579291778462592
5.056052805480238 0.78620052793044 1.7468225881756845
4.711076255171038 1.0204034133992284 1.4077649037331452
4.880788812163122 2.121240158317526 8.13231956522084
4.971126179368224 1.987555416987258 6.7944816651286315
4.9801217389985855 1.7317112734098938 7.159676875724981
4.738205650969958 1.748938426342102 7.782403058150228
4.545126523065875 1.979882194300485 7.337465518915406
4.885711279574536 2.807649416276652 7.511068425138471
4.6717111953735415 2.525394414530264 8.003010620909171
4.921232855569298 7.848718759061413 0.9722338579960299
4.839569855485377 6.862906569173131 0.8402901623838167
4.616575390148022 7.366598842028298 1.0820002056769848
5.017952507687457 7.6482402477779905 0.4197217542867233
4.752581870944426 0.49422156874784806 1.112261407623708
5.104464464336983 0.9633595363958033 7.257390155284942
4.823520307827028 0.8967954995476941 6.331984347895174
4.859958739318379 1.50185192069903 6.48012212720262
4.500124011494524 1.411875615133574 7.026208417689024
4.764529447687144 1.2871984668898622 7.47684532678046
4.554776894438277 1.3518001121889949 9.373060570136376
4.7165029661237226 2.338224615203865 9.443792965817066
4.723952779149438 1.9375275506860283 9.070376835492615
4.822167075117342 7.558150974445576 1.624202888666186
4.285440921660838 7.32869246475311 1.8354477147886932
4.568103547884301 7.942766611046872 1.292837582823652
4.763270831968089 5.239902096400564 4.81449734594983
4.687322698031256 5.6487388876521045 4.254282471673214
4.612135106181586 5.86709482668258 4.48362543936584
4.606922845014347 5.311841072706764 4.371684170021125
4.827741495631831 0.46120528594189 9.72916323779077
4.699571590181028 0.659037609544212 5.175648080571218
4.603846272952529 9.405471242992636 2.391113619500857
4.648359579679911 8.90839714391978 3.0667157002505565
4.758763353545224 8.799673784744453 2.60646934724322
5.03793595404977 0.464476040051464 7.868899780168087
4.611049013467387 5.0038403485070635 8.172848445433672
4.606930127748896 4.804113414314108 7.641692042486677
4.823984772316808 5.311931352157107 7.473917457510848
4.945974326217704 4.114098350312487 0.27422727562106336
4.858089561299723 4.669992710677688 0.1150367955023375
4.83076414079585 4.939341357881915 0.7446263641434131
5.012568066677307 4.7518991704307725 1.2630389262411874
4.535181157446227 4.556748292244805 1.2136169374631398
4.587692718442522 4.007137718291172 0.7687892566352282
4.940392332166646 8.246203491674748 5.011234996164676
4.70744332361106 9.312284833000795 5.030793535785787
4.565712647708712 8.643475542824714 5.435344118826164
4.750919503453218 9.084065058121194 5.602400546226605
5.022538905639381 8.533977701416122 4.502343674800892
5.003121494435885 7.858598262173218 2.080617393383663
4.902295105412859 7.40048100485874 2.0531727876606576
4.655937466539221 2.139846033549938 4.420350680013776
4.478543250685679 2.494680248874778 4.901444815097528
4.68207520909741 3.215786296930374 4.24302610630418
4.7820007094987815 3.54375389685501 4.540586665791855
4.80342925163334 3.167594543932884 4.879776366977646
4.9034408537710465 2.6147665875299917 4.097494269810594
4.457408458988139 1.764530447298356 6.575323771914225
5.179368839704952 2.1497361740539103 0.766781288847288
4.606633155058234 2.025928285134308 0.9413213875272101
4.6514330806665996 2.1647898142469666 1.460617153994854
5.140537130315877 2.821058084931213 1.0335523584412332
4.6650449241511645 2.7622218924703383 1.44424589224146
4.617720585081028 0.773521916962974 0.9033398384087141
4.3141805806603974 0.5843455125525585 1.6665145281677227
4.267917455720171 1.715255603301752 1.324159266886084
4.474550138850399 2.5307935898507243 1.8070329703149142
4.640098813695088 3.3550282353850003 8.72593424430234
4.634839717701845 2.8276081098291783 8.998003513341823
4.629928421803278 3.1092974459548364 7.913312102739335
4.75792274388942 2.3598624768449743 8.600270641333795
4.536722054545968 8.393139488213325 2.842736101833478
4.7825818500710335 8.381404377339745 3.7111602220775617
4.467038496589667 8.034095963742386 3.313318771588237
4.599683308547162 6.666068618306253 3.625497983759916
4.3656161740654404 6.137297932710665 3.832368176446449
4.75764269401469 6.872552420150173 4.05666935842271
4.602198780428834 0.837066744063222 2.109573926489934
4.631735492087588 9.842162371540681 1.9411847217804048
4.7884915139606195 6.53662997587523 8.466829588801582
4.505967090358451 7.054037858054373 8.194939466611972
4.747633003877734 6.905523101028066 7.677300404050948
4.5095117459612295 2.9037378264809717 5.293597238839377
4.637205930236098 1.93984971859198 5.133902970524732
4.968589452343092 2.625412156526273 3.153771691129865
4.810862104640845 2.9900478187634114 3.6450270850058115
4.551681756408946 2.2785870025838304 3.413024655113894
4.731090602611167 2.0918386284852257 3.8775696488004963
5.153736835830102 2.0994635288908 3.4355626317850962
4.95158351576227 4.44891585189996 6.30184446301791
4.736459009202232 4.393899781659564 5.751622214620536
4.996358237242255 4.1266315950271055 6.787170641550788
4.810496639469506 3.782339454344239 5.724667632915955
4.965083319374509 3.108952133807048 1.48317478246634
4.438446845556205 3.3531472953196206 1.34463245006762
4.800599307306242 3.628113031579802 1.6833827966045463
4.805624175366968 7.4968269481125756 7.816179719861685
4.765358692640126 7.304276123391633 6.611338855383837
4.5193337168930094 2.22693946419432 2.771248399122507
4.7970523386009996 3.14745036502346 3.1301321262297623
4.806768907538778 3.2789805316330325 2.738654214176736
4.982785286767165 5.347781139015967 1.80976540656335
4.745344913844186 5.4115712984975115 1.2741438101809401
4.624881890848544 5.924274163614353 1.2961688274105139
4.5624948715690214 5.234390212109106 2.2744921803390064
4.594836948709157 5.383517215604716 3.0844880696096064
4.93504491928479 4.585006642937612 3.2124150014434023
4.7744484264764475 4.393849231846602 2.69527155360214
4.540347481281126 4.894742158678044 3.332816475806586
4.990384643202842 4.881696123844304 2.3423655984309604
4.455441884287222 4.661703132178507 2.271078052047256
4.6660217740466114 1.050088182871332 8.645875739789272
4.876976762882807 1.524832125672516 8.384753795354445
4.71824051673924 0.681451700273316 8.25110388936344
4.767750403678416 1.7919012587032241 3.247843097205506
5.028945876864635 1.3460163279682364 3.4839448106124298
5.077159855446374 1.5352028194877934 2.7770783949861535
5.044421889640026 6.148340508991088 8.761674008128043
4.909243320915474 5.2743226764298665 9.154151671392246
5.128732748055814 5.780019205586526 9.30071312474438
4.657347580899433 5.235141969982412 8.691906703533334
4.56185359775796 8.955604780930148 5.942200225325017
4.741938848273397 0.16448088915927997 6.008205802932809
4.971210291174652 8.931683151057417 6.0388707904375725
5.068203966098428 4.1276221996780995 3.047808643097365
5.040164600828416 4.00425300442051 2.090011310564732
4.860867802965416 7.9107593044679945 3.6601763823051825
4.943067114876573 7.396206603191826 3.5743480043211684
4.326338526869816 7.55005080422863 3.7855785448849866
4.6982587281003845 7.8171000353566615 2.734395747659332
4.527954695173187 7.37262836296689 2.740444063053238
4.691355470055334 7.078871619299292 3.214461141993894
4.95168221167151 8.026803100351266 4.5194109040369
4.6740084986476 7.955545951916683 4.114849895573472
4.345082424923412 5.416017487042192 3.6867846603947982
4.747894304514802 4.605247871311078 3.6913583376659553
5.117463726965246 7.8525390595322 6.041512173707458
4.79552493889617 8.417557234137039 5.936998349418293
4.955334161104896 9.131830709675041 8.226353734127565
4.8430679273231565 0.30260042322496 5.39814158092884
4.844299351414742 1.3828154623958462 8.909063615139502
5.125619412956084 2.386096844897486 9.04840895462736
4.402600431388129 7.748372683855405 8.81516278431224
4.532692863813889 7.841175204127315 8.128887145201421
4.945040976304326 7.106388846143169 8.651638868509448
4.62117499070073 2.9121771605107236 7.030330174210066
4.548435295539003 3.8722257539469958 7.353372814548605
5.053445805937194 3.8381454449951837 7.168084331944404
4.704873365372115 1.258208394455872 5.911956929152798
4.836342776584018 1.632707163269588 5.521216519171248
4.600400196753729 2.1762042043529166 6.3777482108851276
5.0201766942643555 5.115112601799628 1.269735862216716
4.776692548031177 4.714892958316 1.7368310684209733
4.904338575829706 4.890501373708117 5.8307504745376795
4.789044560398617 4.172092554819407 5.3506735434356
4.775432562701474 4.601972255302999 4.950556715354762
5.011473201835718 5.216395539108102 5.273074394748927
4.780315905413456 6.30720620070022 5.545608302334807
4.866143665331013 6.628882625557803 5.911258862372528
4.925004976917731 6.322233984761733 6.390266313156677
5.031395933158204 5.721379719494261 5.630749970109616
4.6900856774862225 5.732250321590974 6.547833283514641
4.624765878791006 6.856159904638822 2.674937940335222
4.618920251450956 6.263141030967582 3.3141449263124017
4.5292868284621575 6.417685571212478 2.7462617484477776
4.729725280309369 7.356263564971696 4.2600169043810325
4.7953805781199135 4.4390218651389155 7.2097826031417
4.792346378764853 1.8035408934444876 0.57236586721932
4.631029355109368 1.30286421141265 0.617154408687178
4.984809073166713 5.102784554052963 6.710646831154466
5.005842892571399 6.05835700708061 6.8807893377975695
5.012096959120648 0.5017069401436766 3.6895857538025787
4.844673524750168 3.4030231698859033 0.8627877272350783
4.63852546683131 3.7088647288621237 0.321065677520956
4.738110291152983 3.776664261946415 1.2501143553283725
4.700016817179086 7.710422274905373 9.280861362440584
4.827819479421656 8.319278618892984 9.330927551597345
5.146467875166299 6.962733466982968 6.313682761018143
4.392279249040681 9.446779172598832 8.947847426137828
4.763641898657302 6.881932369283558 5.545979120807802
4.966444295944441 7.480871452891603 5.543050652999715
4.5612826070298 4.883603850632897 8.928963275516214
4.66424092731813 4.341127961311033 9.22462392807021
4.58973881317745 8.816884480717054 2.055102068018928
5.000114788859977 5.915707232808971 5.137780691036818
4.803766008686162 6.214700104348587 0.2977482205753525
4.858138934385882 8.321160425264527 8.243767692182933
4.989783976309408 8.67144791783478 8.617516668923521
4.9119998038279356 1.040609758700478 5.3398272153734725
4.639837381406826 7.614690807935498 4.665392079787922
5.0563169132626244 0.9746170561574368 2.573247798999315
5.033022372887598 0.8037667938270922 3.2176583174550224
4.933216974600702 7.086726868147978 5.037936354412852
5.13358072246023 1.146024326470308 4.286107384002305
4.713480446841162 1.590248695073252 4.598966810968315
5.023734612626664 3.332305174382064 9.62216762186795
5.044101680487178 3.8829953430107755 9.38445018553376
5.27541579619267 4.603369356066696 6.74148110311302
4.962275799108879 3.341592632285534 9.123790060255653
4.4563039605533605 1.5576657358516632 2.8167124746514283
4.991310664407785 6.964086546742782 9.195771568090821
4.798488156145175 3.8723792595593753 4.908265804283624
4.70935324195188 3.7880013526945455 4.222432122834464
4.9727133656830365 4.3038343871216895 4.057398867290547
4.730448014285954 4.115371833494254 1.627853578152898
4.587690660396204 1.113509833273374 3.070649698000346
4.613505054956824 1.3292853095163828 3.963615475870184
4.9398060407118844 3.851301408252098 3.6750904949285697
4.541958255179679 4.385806016520723 8.70655121541021
4.910815064930875 8.23856972718337 7.614992096532833
4.801006229404178 5.867893960032446 0.7995117410560985
4.892526040753959 0.916976735760198 9.805733264123015
5.054685441877728 0.336029905141282 9.32879632287262
4.76889166636902 0.4862937189289919 8.810810110297592
4.84773505354857 9.604720380846876 8.550120200478924
5.003365407953472 8.85886851039472 9.160021949652982
4.54437842367065 8.696029367254319 8.377764972002756
4.952509562898717 9.45247273193051 9.141228510324193
5.010933456049799 8.830850799359713 0.9355932923294569
5.044470973242041 6.891031059531016 6.984938044257954
4.586452816909598 1.6157892368637068 2.1224739888572954
4.930452938182545 8.29308324481988 0.628310599216492
4.670822183401138 7.633919498383987 2.3066443979731384
5.077264281030842 4.180874318123255 1.09164770117741
4.868990344238294 7.456293026331079 8.949052167577094
4.615190728609292 8.034045043896622 9.699321588181771
4.614079240379383 2.8438556559038717 2.2333729106541713
4.60247088023773 4.173450254473211 2.170359179169446
4.94851433363987 5.667350016422214 2.146830758027168
5.0113317656341385 5.4939135847133285 8.343868337190388
4.804251968250649 5.086017244031156 4.543442633484988
4.917458986261886 5.3759703554089 6.119903323044672
5.160418499775594 6.993159350585714 3.539798033584306
4.993366690043073 6.881117962781142 4.567843942526746
4.736398938082918 0.7696759605154266 4.18484664602684
4.780676391209216 8.14640215538537 8.879761889073768
4.79708888510403 1.484183645489132 1.133980876164636
4.67965476273164 2.40625362067978 7.079979178784676
4.726384550752738 8.918186198004648 1.440792391902668
4.565801471197022 2.252766518154322 2.260185655921672
4.637398618562694 7.016802314577577 1.5099638312980521
4.967322839366827 5.520746487908936 4.8644202166856445
4.979069297347276 0.910559091151866 7.8328515265859355
4.66669495676518 9.388775205906844 3.424244850459298
4.626312839909234 4.749280515679255 4.200363510998178
4.806110952188947 0.9829261125476141 4.754082641333464
5.039635631019216 7.800682833296006 8.43270900588269
5.090887872262922 1.100058841965536 1.016094620200826
4.462670711554927 8.545338008311147 9.029071037234278
4.717034837911187 3.597407752772052 3.1558155289711776
4.898810302334297 6.549539580319898 2.461494328846185
4.667743852913972 9.071971926787937 4.515662557762025
4.595328018693382 6.438562536518474 4.596973307975861
4.847272442979511 8.802171038298955 7.830129135118102
5.128436923347153 5.711624242465098 7.845371007878029
4.5124785365215745 7.037606610522822 4.740185167604478
4.88763456000407 1.7460294420160425 3.72926488777482
4.681061899903295 5.856086177497903 7.988099575811102
4.905272201406841 6.370507012389412 9.343400063572123
5.0180733140636065 9.266460728918595 1.26826083459146
4.66906028614871 9.5606690414511 4.55135964529347
4.801916509015889 5.985105468165365 8.3609408797071
4.890040296450465 2.03653390140978 4.7652807598983
4.5690389760378185 4.864246745623376 7.111213555582869
5.047940593847271 4.897309837742087 7.1615609890660235
4.748407182982232 3.4227213938910275 8.218537758560661
4.6424341393332345 8.056363182214024 5.388760192094951
4.848617368993038 5.868125038416924 4.721338604139996
4.944019536826533 9.669307776468434 3.8039741345253804
4.5128486086838615 2.079954302409457 5.699943627700267
4.56403519991081 7.846825512502145 5.884014456533552
4.520116329253362 0.6769257977033061 3.1889013963743977
4.835423879760976 3.6996066430456658 6.80473688817375
4.853147780526543 1.9320821332630724 2.5204129263981425
4.522049505655841 0.34873509569097 9.29748816134237
4.567577390933365 3.5710219290961667 2.244210742857837
4.47490133825813 7.894540591154408 1.8007633932002078
5.087561904504449 6.1940476235504764 2.269485913914912
4.642164621274403 5.374011564237017 5.738173172538493
4.730260844265684 8.334800676797917 1.68489443224713
4.679797914485348 7.786037908795341 7.611187486275172
POLYGONS 979 3916
3 215 793 255
3 255 793 200
3 762 793 215
3 1 794 2
3 2 794 3
3 3 794 215
3 215 794 762
3 757 795 723
3 723 795 406
3 413 796 465
3 465 796 213
3 213 796 6
3 7 797 371
3 371 797 420
3 420 797 459
3 420 798 459
3 548 798 420
3 564 799 371
3 371 799 7
3 329 800 391
3 391 800 192
3 192 800 631
3 581 801 627
3 627 801 631
3 631 801 192
3 422 802 423
3 423 802 572
3 572 802 523
3 12 803 341
3 341 803 725
3 340 804 341
3 341 804 12
3 252 804 340
3 378 805 379
3 379 805 340
3 340 805 252
3 341 806 725
3 725 806 724
3 16 807 14
3 231 807 16
3 16 808 14
3 17 808 16
3 17 809 16
3 16 809 231
3 21 810 652
3 652 810 639
3 639 810 206
3 21 811 22
3 652 811 21
3 21 812 22
3 22 812 23
3 23 812 291
3 23 813 291
3 291 813 486
3 486 813 487
3 478 814 479
3 639 814 206
3 206 814 478
3 28 815 29
3 29 815 522
3 607 815 381
3 381 815 28
3 228 816 274
3 274 816 246
3 274 817 228
3 228 817 318
3 318 817 26
3 30 818 246
3 246 818 274
3 50 819 51
3 51 819 717
3 779 819 777
3 777 819 50
3 49 820 201
3 201 820 585
3 585 820 46
3 51 821 46
3 46 821 585
3 717 821 51
3 47 822 777
3 777 822 779
3 47 823 49
3 777 823 47
3 47 824 49
3 49 824 201
3 530 825 457
3 457 825 424
3 424 825 55
3 54 826 357
3 357 826 457
3 457 826 530
3 49 827 201
3 201 827 54
3 54 827 357
3 47 828 49
3 432 828 47
3 424 829 55
3 55 829 431
3 431 829 432
3 47 830 432
3 432 830 431
3 56 831 195
3 195 831 197
3 485 831 56
3 61 832 57
3 197 832 195
3 195 832 61
3 61 833 57
3 57 833 64
3 64 833 63
3 58 834 55
3 55 834 424
3 66 835 263
3 263 835 443
3 328 835 327
3 327 835 66
3 67 836 218
3 218 836 444
3 444 836 281
3 281 836 747
3 724 837 725
3 725 837 328
3 67 838 218
3 218 838 69
3 69 838 724
3 724 838 721
3 280 839 281
3 281 839 747
3 230 840 460
3 460 840 7
3 7 840 414
3 43 841 459
3 459 841 460
3 460 841 230
3 371 842 7
3 7 842 414
3 420 843 459
3 459 843 43
3 359 844 307
3 307 844 547
3 495 845 496
3 496 845 428
3 74 846 520
3 520 846 519
3 519 846 551
3 520 847 74
3 74 847 634
3 634 847 633
3 555 848 551
3 551 848 519
3 75 849 78
3 481 849 80
3 80 849 75
3 551 850 555
3 555 850 78
3 78 850 75
3 634 851 633
3 633 851 481
3 481 851 80
3 83 852 58
3 58 852 55
3 348 852 83
3 83 853 276
3 348 853 83
3 315 854 672
3 672 854 674
3 674 854 513
3 222 855 223
3 223 855 672
3 672 855 315
3 513 856 674
3 674 856 505
3 337 857 419
3 419 857 505
3 505 857 674
3 86 858 89
3 89 858 335
3 335 858 367
3 539 859 234
3 234 859 93
3 88 860 87
3 87 860 93
3 86 861 89
3 87 861 88
3 88 861 86
3 93 862 87
3 234 862 93
3 92 863 90
3 90 863 545
3 545 863 538
3 90 864 92
3 92 864 367
3 367 864 335
3 203 865 360
3 360 865 186
3 501 865 203
3 281 866 747
3 215 866 762
3 762 866 763
3 763 866 281
3 280 867 281
3 203 867 501
3 501 867 280
3 1 868 2
3 186 868 360
3 360 868 1
3 4 869 505
3 505 869 419
3 419 869 95
3 61 870 57
3 57 870 272
3 272 870 273
3 197 871 198
3 198 871 504
3 195 871 197
3 93 872 100
3 100 872 198
3 198 872 504
3 93 873 87
3 100 873 93
3 87 874 88
3 88 874 273
3 273 874 272
3 287 875 289
3 289 875 402
3 402 875 713
3 102 876 103
3 103 876 220
3 220 876 381
3 381 876 607
3 102 877 103
3 103 877 289
3 289 877 287
3 767 878 687
3 687 878 263
3 443 879 263
3 263 879 687
3 203 880 501
3 501 880 767
3 767 880 768
3 791 881 728
3 728 881 729
3 729 881 202
3 108 882 650
3 650 882 678
3 678 882 285
3 285 882 109
3 491 883 656
3 656 883 650
3 650 883 108
3 332 884 333
3 333 884 285
3 285 884 109
3 32 885 699
3 699 885 708
3 708 885 669
3 669 885 31
3 292 886 433
3 433 886 372
3 372 886 571
3 114 887 185
3 185 887 184
3 184 887 71
3 71 887 681
3 627 888 628
3 628 888 115
3 115 888 667
3 581 888 627
3 72 889 115
3 115 889 667
3 681 889 71
3 71 889 72
3 63 890 64
3 64 890 323
3 323 890 695
3 497 891 653
3 653 891 652
3 652 891 21
3 21 892 22
3 22 892 509
3 509 892 492
3 38 893 371
3 371 893 564
3 509 893 492
3 492 893 38
3 247 894 395
3 395 894 278
3 278 894 313
3 121 895 120
3 120 895 278
3 278 895 313
3 117 896 118
3 118 896 559
3 559 896 560
3 560 896 120
3 120 896 121
3 117 897 118
3 118 897 250
3 250 898 251
3 118 898 250
3 189 899 247
3 247 899 395
3 251 899 189
3 129 900 199
3 199 900 611
3 611 900 476
3 126 901 128
3 436 901 437
3 437 901 364
3 364 901 126
3 123 902 127
3 127 902 476
3 476 902 611
3 123 903 127
3 127 903 125
3 125 903 126
3 126 903 128
3 129 904 199
3 199 904 391
3 391 904 329
3 264 905 687
3 687 905 767
3 263 906 687
3 687 906 264
3 400 907 204
3 204 907 516
3 516 907 439
3 303 908 302
3 302 908 438
3 438 908 439
3 363 909 714
3 714 909 715
3 715 909 135
3 135 910 137
3 137 910 472
3 715 910 135
3 302 911 303
3 303 911 137
3 137 911 472
3 363 912 400
3 400 912 204
3 714 912 363
3 93 913 100
3 234 913 93
3 26 914 318
3 430 914 26
3 139 915 222
3 222 915 430
3 430 915 26
3 84 916 222
3 222 916 139
3 232 916 233
3 233 916 84
3 138 917 305
3 305 917 274
3 274 917 228
3 232 918 233
3 233 918 138
3 138 918 305
3 337 919 419
3 419 919 95
3 4 920 505
3 505 920 674
3 222 921 223
3 139 921 222
3 232 922 233
3 233 922 398
3 398 922 426
3 478 923 479
3 479 923 140
3 140 923 517
3 140 924 368
3 368 924 102
3 517 924 140
3 92 925 90
3 486 925 487
3 487 925 92
3 102 926 368
3 368 926 367
3 367 926 335
3 115 927 142
3 142 927 784
3 667 927 115
3 261 928 262
3 262 928 324
3 631 928 192
3 192 928 261
3 262 929 324
3 324 929 142
3 142 929 784
3 528 930 529
3 744 930 53
3 53 930 528
3 744 931 53
3 53 931 650
3 650 931 108
3 528 932 529
3 626 932 458
3 458 932 528
3 674 933 513
3 513 933 286
3 114 934 185
3 185 934 474
3 474 934 213
3 213 934 6
3 411 935 435
3 435 935 549
3 756 935 749
3 749 935 411
3 749 936 756
3 756 936 754
3 754 936 42
3 42 937 754
3 754 937 753
3 753 937 459
3 459 937 43
3 75 938 78
3 78 938 302
3 302 938 303
3 438 939 439
3 575 939 556
3 556 939 438
3 500 940 739
3 739 940 740
3 740 940 196
3 363 941 714
3 500 941 739
3 739 941 742
3 742 941 363
3 196 942 388
3 740 942 196
3 388 943 441
3 441 943 204
3 204 943 400
3 196 944 388
3 388 944 441
3 150 945 149
3 149 945 260
3 260 945 132
3 537 945 150
3 260 946 132
3 132 946 397
3 397 946 237
3 150 947 537
3 625 947 661
3 661 947 150
3 237 948 238
3 238 948 80
3 80 948 481
3 397 948 237
3 153 949 305
3 305 949 138
3 153 950 151
3 305 950 153
3 153 951 151
3 151 951 683
3 683 951 682
3 42 952 754
3 778 952 780
3 780 952 42
3 51 953 382
3 382 953 231
3 717 953 51
3 649 954 637
3 637 954 196
3 196 954 740
3 317 955 524
3 500 955 739
3 739 955 317
3 317 956 524
3 692 956 691
3 691 956 317
3 282 957 283
3 283 957 416
3 378 957 282
3 283 958 416
3 416 958 107
3 107 958 655
3 67 959 107
3 107 959 655
3 218 959 67
3 282 960 378
3 378 960 379
3 159 961 113
3 340 961 252
3 252 961 159
3 158 962 160
3 351 962 224
3 224 962 158
3 224 963 351
3 351 963 350
3 350 963 461
3 461 963 330
3 159 964 113
3 158 964 160
3 160 964 159
3 461 965 282
3 282 965 378
3 330 966 461
3 461 966 282
3 446 967 696
3 696 967 701
3 701 967 288
3 86 968 89
3 89 968 288
3 288 968 701
3 446 969 696
3 696 969 695
3 695 969 323
3 196 970 388
3 706 970 637
3 637 970 196
3 164 971 706
3 706 971 707
3 707 971 442
3 164 972 706
3 706 972 637
3 183 973 407
3 407 973 449
3 549 973 435
3 435 973 183
3 645 974 616
3 616 974 236
3 236 974 166
3 166 975 236
3 236 975 407
3 407 975 449
3 497 976 653
3 653 976 645
3 645 976 616
3 54 977 127
3 127 977 123
3 208 978 209
3 209 978 168
3 485 978 56
3 56 978 208
3 357 979 54
3 54 979 127
3 351 980 224
3 224 980 356
3 356 980 525
3 462 981 683
3 683 981 682
3 170 982 262
3 262 982 324
3 170 983 644
3 644 983 529
3 529 983 207
3 170 984 262
3 644 984 170
3 104 985 142
3 142 985 784
3 188 985 265
3 265 985 104
3 169 986 205
3 205 986 265
3 265 986 188
3 169 987 205
3 205 987 207
3 207 987 529
3 171 988 157
3 157 988 199
3 199 988 129
3 171 989 157
3 262 989 170
3 170 989 171
3 113 990 159
3 159 990 285
3 285 990 109
3 158 991 160
3 160 991 320
3 320 991 321
3 598 992 585
3 585 992 46
3 54 993 127
3 598 993 585
3 585 993 201
3 201 993 54
3 349 994 348
3 348 994 83
3 168 995 209
3 372 995 571
3 571 995 168
3 287 996 288
3 288 996 701
3 289 996 287
3 102 997 103
3 368 997 102
3 347 998 540
3 759 998 347
3 521 999 540
3 780 999 778
3 778 999 521
3 636 1000 760
3 760 1000 749
3 749 1000 756
3 545 1001 538
3 538 1001 520
3 520 1001 74
3 23 1002 291
3 661 1002 23
3 625 1003 661
3 661 1003 23
3 173 1004 98
3 198 1004 504
3 504 1004 173
3 173 1005 98
3 98 1005 575
3 575 1005 556
3 234 1006 539
3 539 1006 519
3 519 1006 551
3 117 1007 118
3 118 1007 283
3 283 1007 416
3 118 1008 250
3 461 1008 282
3 282 1008 283
3 283 1008 118
3 726 1009 727
3 727 1009 260
3 260 1009 132
3 237 1010 397
3 775 1010 772
3 772 1010 237
3 202 1011 729
3 729 1011 776
3 776 1011 775
3 775 1011 772
3 728 1012 791
3 791 1012 792
3 792 1012 726
3 148 1013 17
3 17 1013 18
3 18 1013 738
3 738 1013 147
3 16 1014 17
3 17 1014 148
3 16 1015 14
3 14 1015 414
3 414 1015 392
3 726 1016 792
3 792 1016 738
3 738 1016 147
3 533 1017 454
3 454 1017 392
3 392 1017 414
3 169 1018 205
3 205 1018 327
3 327 1018 328
3 12 1019 53
3 53 1019 744
3 341 1019 12
3 341 1020 725
3 725 1020 328
3 171 1021 170
3 170 1021 644
3 626 1021 375
3 375 1021 171
3 509 1022 510
3 510 1022 150
3 150 1022 661
3 661 1022 23
3 26 1023 430
3 493 1023 226
3 226 1023 508
3 508 1023 26
3 337 1024 493
3 493 1024 226
3 454 1025 533
3 533 1025 546
3 546 1025 510
3 510 1025 467
3 392 1026 414
3 414 1026 7
3 216 1027 583
3 583 1027 623
3 623 1027 629
3 246 1028 274
3 274 1028 305
3 305 1028 153
3 246 1029 247
3 247 1029 395
3 30 1029 246
3 153 1030 151
3 251 1030 189
3 189 1030 153
3 217 1031 296
3 296 1031 190
3 759 1031 347
3 347 1031 217
3 296 1032 452
3 452 1032 428
3 428 1032 453
3 16 1033 231
3 231 1033 382
3 276 1034 277
3 277 1034 495
3 17 1035 148
3 148 1035 567
3 567 1035 338
3 567 1036 338
3 338 1036 599
3 599 1036 598
3 616 1037 645
3 645 1037 646
3 646 1037 176
3 177 1038 370
3 370 1038 646
3 646 1038 176
3 681 1039 71
3 71 1039 773
3 773 1039 774
3 489 1040 737
3 737 1040 738
3 738 1040 147
3 179 1041 200
3 200 1041 255
3 609 1041 179
3 349 1042 541
3 541 1042 540
3 540 1042 521
3 453 1043 541
3 541 1043 349
3 433 1044 292
3 292 1044 98
3 98 1044 173
3 157 1045 171
3 171 1045 375
3 375 1045 376
3 164 1046 630
3 630 1046 286
3 286 1046 513
3 164 1047 630
3 630 1047 629
3 375 1048 376
3 376 1048 338
3 338 1048 567
3 434 1049 620
3 620 1049 403
3 439 1050 516
3 516 1050 403
3 403 1050 620
3 518 1051 522
3 522 1051 29
3 594 1051 518
3 177 1052 370
3 594 1052 518
3 518 1052 177
3 467 1053 510
3 510 1053 150
3 150 1053 537
3 517 1054 518
3 518 1054 594
3 140 1054 517
3 649 1055 637
3 637 1055 706
3 636 1056 760
3 760 1056 757
3 757 1056 723
3 137 1057 472
3 775 1057 772
3 772 1057 771
3 771 1057 137
3 135 1058 715
3 715 1058 711
3 711 1058 221
3 320 1059 321
3 321 1059 221
3 221 1059 711
3 250 1060 251
3 683 1060 462
3 462 1060 250
3 164 1061 630
3 706 1061 164
3 403 1062 442
3 442 1062 707
3 620 1062 403
3 221 1063 356
3 356 1063 525
3 711 1063 221
3 206 1064 639
3 639 1064 646
3 646 1064 176
3 432 1065 47
3 47 1065 777
3 609 1066 179
3 179 1066 651
3 651 1066 655
3 655 1066 107
3 402 1067 713
3 713 1067 699
3 699 1067 32
3 31 1068 669
3 669 1068 664
3 663 1069 664
3 664 1069 155
3 155 1069 696
3 696 1069 446
3 276 1070 277
3 83 1070 276
3 428 1071 453
3 496 1071 428
3 348 1072 349
3 349 1072 541
3 496 1073 495
3 495 1073 277
3 526 1074 413
3 413 1074 547
3 547 1074 307
3 230 1075 231
3 231 1075 382
3 460 1075 230
3 648 1076 649
3 672 1076 315
3 315 1076 648
3 186 1077 360
3 360 1077 359
3 359 1077 307
3 264 1078 265
3 265 1078 188
3 687 1078 264
3 250 1079 251
3 251 1079 189
3 636 1080 760
3 760 1080 759
3 759 1080 347
3 452 1081 296
3 296 1081 190
3 398 1082 399
3 399 1082 692
3 692 1082 691
3 426 1082 398
3 461 1083 462
3 462 1083 683
3 330 1083 461
3 378 1084 379
3 379 1084 724
3 724 1084 721
3 440 1085 497
3 497 1085 653
3 548 1085 440
3 332 1086 333
3 729 1086 202
3 202 1086 332
3 726 1087 727
3 727 1087 533
3 533 1087 454
3 528 1088 529
3 529 1088 207
3 375 1089 626
3 626 1089 458
3 216 1090 434
3 434 1090 620
3 583 1090 216
3 347 1091 540
3 540 1091 541
3 541 1091 453
3 222 1092 223
3 223 1092 337
3 337 1092 493
3 538 1093 539
3 539 1093 234
3 545 1093 538
3 413 1094 526
3 526 1094 773
3 773 1094 774
3 649 1095 648
3 648 1095 398
3 398 1095 426
3 280 1096 281
3 443 1096 263
3 263 1096 280
3 489 1097 737
3 737 1097 791
3 791 1097 728
3 272 1098 273
3 695 1098 323
3 323 1098 272
3 561 1099 562
3 581 1099 627
3 627 1099 561
3 320 1100 321
3 332 1100 333
3 333 1100 320
3 434 1101 620
3 620 1101 619
3 619 1101 292
3 292 1101 433
3 521 1102 540
3 540 1102 347
3 337 1103 419
3 493 1103 337
3 428 1104 453
3 453 1104 541
3 356 1105 525
3 525 1105 524
3 524 1105 317
3 327 1106 328
3 328 1106 725
3 391 1107 329
3 329 1107 437
3 437 1107 436
3 458 1108 626
3 491 1108 656
3 656 1108 458
3 348 1109 349
3 432 1109 431
3 431 1109 348
3 371 1110 420
3 420 1110 548
3 564 1110 371
3 375 1111 376
3 626 1111 375
3 442 1112 707
3 707 1112 388
3 388 1112 441
3 440 1113 548
3 548 1113 420
3 406 1114 407
3 407 1114 449
3 723 1114 406
3 413 1115 465
3 526 1115 413
3 422 1116 423
3 423 1116 437
3 437 1116 436
3 435 1117 440
3 440 1117 548
3 549 1117 435
3 438 1118 439
3 439 1118 516
3 509 1119 510
3 492 1119 509
3 467 1120 510
3 510 1120 509
3 478 1121 479
3 479 1121 487
3 487 1121 486
3 598 1122 599
3 611 1122 476
3 476 1122 598
3 489 1123 737
3 737 1123 491
3 491 1123 656
3 561 1124 562
3 562 1124 523
3 523 1124 572
3 555 1125 556
3 556 1125 575
3 551 1125 555
3 599 1126 598
3 598 1126 585
3 629 1127 630
3 623 1127 629
3 633 1128 634
3 634 1128 662
3 662 1128 661
3 661 1128 625
3 648 1129 649
3 649 1129 637
3 663 1130 664
3 664 1130 669
3 682 1131 683
3 691 1131 692
3 692 1131 682
3 768 1132 767
3 767 1132 687
3 724 1133 725
3 721 1133 724
3 726 1134 727
3 792 1134 726
3 767 1135 768
3 774 1135 773
3 773 1135 761
3 761 1135 767
3 777 1136 778
3 778 1136 780
3 779 1136 777
CELL_DATA 979
SCALARS cell_scalars int 1
LOOKUP_TABLE default
0 0 0 0 0 0 0 0 0 0 0 0 0 0 0 0 0 0 0 0 0 0 0 0 0 0 0 0 0 0 0 0 0 0 0 0 0 0 0 0 0 0 0 0 0 0 0 0 0 0 0 0 0 0 0 0 0 0 0 0 0 0 0 0 0 0 0 0 0 0 0 0 0 0 0 0 0 0 0 0 0 0 0 0 0 0 0 0 0 0 0 0 0 0 0 0 0 0 0 0 0 0 0 0 0 0 0 0 0 0 0 0 0 0 0 0 0 0 0 0 0 0 0 0 0 0 0 0 0 0 0 0 0 0 0 0 0 0 0 0 0 0 0 0 0 0 0 0 0 0 0 0 0 0 0 0 0 0 0 0 0 0 0 0 0 0 0 0 0 0 0 0 0 0 0 0 0 0 0 0 0 0 0 0 0 0 0 0 0 0 0 0 0 0 0 0 0 0 0 0 0 0 0 0 0 0 0 0 0 0 0 0 0 0 0 0 0 0 0 0 0 0 0 0 0 0 0 0 0 0 0 0 0 0 0 0 0 0 0 0 0 0 0 0 0 0 0 0 0 0 0 0 0 0 0 0 0 0 0 0 0 0 0 0 0 0 0 0 0 0 0 0 0 0 0 0 0 0 0 0 0 0 0 0 0 0 0 0 0 0 0 0 0 0 0 0 0 0 0 0 0 0 0 0 0 0 0 0 0 0 0 0 0 0 0 0 0 0 0 0 0 0 0 0 0 0 0 0 0 0 0 0 0 0 0 0 0 0 0 0 0 0 0 0 0 0 0 0 0 0 0 0 0 0 0 0 0 0 0 0 0 0 0 0 0 0 0 0 0 0 0 0 0 0 0 0 0 0 0 0 0 0 0 0 0 0 0 0 0 0 0 0 0 0 0 0 0 0 0 0 0 0 0 0 0 0 0 0 0 0 0 0 0 0 0 0 0 0 0 0 0 0 0 0 0 0 0 0 0 0 0 0 0 0 0 0 0 0 0 0 0 0 0 0 0 0 0 0 0 0 0 0 0 0 0 0 0 0 0 0 0 0 0 0 0 0 0 0 0 0 0 0 0 0 0 0 0 0 0 0 0 0 0 0 0 0 0 0 0 0 0 0 0 0 0 0 0 0 0 0 0 0 0 0 0 0 0 0 0 0 0 0 0 0 0 0 0 0 0 0 0 0 0 0 0 0 0 0 0 0 0 0 0 0 0 0 0 0 0 0 0 0 0 0 0 0 0 0 0 0 0 0 0 0 0 0 0 0 0 0 0 0 0 0 0 0 0 0 0 0 0 0 0 0 0 0 0 0 0 0 0 0 0 0 0 0 0 0 0 0 0 0 0 0 0 0 0 0 0 0 0 0 0 0 0 0 0 0 0 0 0 0 0 0 0 0 0 0 0 0 0 0 0 0 0 0 0 0 0 0 0 0 0 0 0 0 0 0 0 0 0 0 0 0 0 0 0 0 0 0 0 0 0 0 0 0 0 0 0 0 0 0 0 0 0 0 0 0 0 0 0 0 0 0 0 0 0 0 0 0 0 0 0 0 0 0 0 0 0 0 0 0 0 0 0 0 0 0 0 0 0 0 0 0 0 0 0 0 0 0 0 0 0 0 0 0 0 0 0 0 0 0 0 0 0 0 0 0 0 0 0 0 0 0 0 0 0 0 0 0 0 0 0 0 0 0 0 0 0 0 0 0 0 0 0 0 0 0 0 0 0 0 0 0 0 0 0 0 0 0 0 0 0 0 0 0 0 0 0 0 0 0 0 0 0 0 0 0 0 0 0 0 0 0 0 0 0 0 0 0 0 0 0 0 0 0 0 0 0 0 0 0 0 0 0 0 0 0 0 0 0 0 0 0 0 0 0 0 0 0 0 0 0 0 0 0 0 0 0 0 0 0 0 0 0 0 0 0 0 0 0 0 0 0 0 0 0 0 0 0 0 0 0 0 0 0 0 0 0 0 0 0 0 0 0 0 0 0 0 0 0 0 0 0 0 0 0 0 0 0 0 0 0 0 0 0 0 0 0 0 0 0 0 0 0 0 0 0 0 0 0 0 0 0 0 0 0 0 0 0 0 0 0 0 0 0 0 0 0 0 0 0 0 0 0 0 0 0 0 0 0 0 0 0 0 0 0 0 0 0 0 0 0 0 0 0 0 0 0 0 0 0 0 0 0 0 0 0 0 0 0 0 0 0 0 0 0 0 0