# vtk DataFile Version 2.0
polydata
ASCII
DATASET POLYDATA
POINTS 24 double
 4.28831e+00  5.58401e+00  4.11488e+00
 4.31707e+00  5.87853e+00  4.18145e+00
 4.13143e+00  5.26119e+00  4.45480e+00
 4.22991e+00  5.99636e+00  4.65873e+00
 4.08644e+00  5.41812e+00  4.79204e+00
 4.49436e+00  4.85361e+00  4.74995e+00
 4.24997e+00  5.27086e+00  4.99398e+00
 5.21045e+00  4.99838e+00  4.93033e+00
 5.09209e+00  4.83597e+00  4.78827e+00
 4.71204e+00  5.58348e+00  5.25773e+00
 5.18267e+00  5.94252e+00  4.95994e+00
 5.18795e+00  6.11184e+00  4.61328e+00
 5.35622e+00  5.70221e+00  4.26119e+00
 5.45466e+00  5.28697e+00  4.76385e+00
 5.45579e+00  5.28492e+00  4.45411e+00
 4.77931e+00  5.40783e+00  3.95218e+00
 4.91570e+00  4.91152e+00  4.22439e+00
 5.01675e+00  5.73712e+00  3.98797e+00
 5.13761e+00  4.88187e+00  4.36390e+00
 4.44261e+00  4.86862e+00  4.51082e+00
 4.78615e+00  6.03633e+00  4.10032e+00
 4.42005e+00  6.13153e+00  4.77910e+00
 4.88237e+00  6.23318e+00  4.45953e+00
 4.76558e+00  5.85957e+00  5.19617e+00
POLYGONS 14 86
5      2      4      3      1      0      
5      8      7      9      6      5      
5      13     14     12     11     10     
6      17     12     14     18     16     15     
5      6      4      2      19     5      
5      0      1      20     17     15     
5      1      3      21     22     20     
6      4      6      9      23     21     3      
5      15     16     19     2      0      
5      19     16     18     8      5      
5      10     23     9      7      13     
5      21     23     10     11     22     
5      22     11     12     17     20     
5      8      18     14     13     7      
