# vtk DataFile Version 2.0
Really cool data
ASCII
DATASET POLYDATA
POINTS 880 double
4.77611492826278 3.819867174670306 4.865127123051069
4.77611492826278 9.069664346574786 5.6122448443069475
4.77611492826278 8.385564802456376 9.481707810035973
4.77611492826278 2.2989837565888998 8.203943138980948
4.77611492826278 8.784662891036124 2.6294119511238243
4.77611492826278 5.600210147558042 2.2883965431600743
4.77611492826278 8.739374950511749 7.4470016630968034
4.77611492826278 3.3081424193059483 9.121757246380534
4.77611492826278 1.8071193077883823 3.174350590792862
4.77611492826278 9.108876739791429 5.58527277343712
4.77611492826278 0.5157614925692562 1.3060898454656122
4.77611492826278 3.28146880282302 8.745324323189402
4.77611492826278 4.716772161520029 1.734553369936708
4.77611492826278 5.711549874270861 3.0135246784958247
4.77611492826278 5.012311601926041 8.352758110945105
4.77611492826278 2.1790696165217764 0.5546669203027287
4.77611492826278 7.134273162223751 1.4888942635561389
4.77611492826278 7.879812913120046 7.342290137711602
4.77611492826278 4.706278795768718 6.896622771369401
4.77611492826278 3.3168803181261985 0.37576325687472456
4.77611492826278 3.224255674764298 6.661125394845256
4.77611492826278 7.702381075501199 4.502875331829379
4.77611492826278 6.936083540670145 8.45095485974159
4.77611492826278 4.3990645511200945 2.673165480810279
4.77611492826278 7.749035337845407 3.88693319403481
4.77611492826278 9.417947376514242 7.35655236950368
4.77611492826278 9.648523868177524 4.496414979271057
4.77611492826278 3.166089447914664 3.1115385395375568
4.77611492826278 8.649402804439093 4.386276350285907
4.77611492826278 7.163288294860586 4.675296618747028
4.77611492826278 2.7525329725880083 5.380117436762373
4.77611492826278 3.9865771103743075 7.447111250994318
4.77611492826278 8.97045835732769 3.228685680515113
4.77611492826278 7.722510703433401 3.9101828762437236
4.77611492826278 0.7529051000458022 8.591513884435779
4.77611492826278 3.6185040832849498 3.1719420751746528
4.77611492826278 0.5699192370263537 7.763019352275868
4.77611492826278 7.920615654845704 1.642617554818688
4.77611492826278 9.402441598265334 6.567712000628599
4.77611492826278 0.4138534118816325 3.2430108602294867
4.77611492826278 5.2490469979501695 5.893659705014722
4.77611492826278 1.8986134449120025 2.730106207747638
4.77611492826278 3.1975749947531193 8.918368545439707
4.77611492826278 0.8593072691040213 6.359629070283545
4.77611492826278 6.091755326493744 8.795981270659084
4.77611492826278 7.303455881171711 6.6126056689790795
4.77611492826278 3.4278007381897493 0.39622624728179767
4.77611492826278 7.921437350526035 1.6332258155767574
4.77611492826278 8.377853606640404 3.7176942119844845
4.77611492826278 3.0480101294805215 1.2548143512951575
4.77611492826278 3.7329910048488726 6.839564888332954
4.77611492826278 7.968177456894576 8.547574050491058
4.77611492826278 8.82246402826996 2.557941630532937
4.77611492826278 5.909219718728028 7.839770119598972
4.77611492826278 7.9512734021539595 7.428709300587177
4.77611492826278 6.6910336750990975 6.1481522172968655
4.77611492826278 1.9645070424718396 9.11396380731689
4.77611492826278 0.8788354600971291 1.3833925604166544
4.77611492826278 4.851624168640246 7.40461077459403
4.77611492826278 1.9755262036589265 5.363080634838859
4.77611492826278 8.793256480174879 2.6104798482194815
4.77611492826278 5.643451595550261 7.526917533396091
4.77611492826278 2.3614899947939696 9.022234780084204
4.77611492826278 9.615878448332886 8.54787792572455
4.77611492826278 5.8569771767908 0.8188086511138859
4.77611492826278 7.792689169447212 7.672128099382457
4.77611492826278 5.392961632585116 2.326669748068441
4.77611492826278 3.041903207237547 0.6758113579239963
4.77611492826278 5.0863733467754 4.542044744253257
4.77611492826278 9.579113352154438 2.326062134534581
4.77611492826278 7.869917089725706 4.235025617804424
4.77611492826278 1.6577863519131621 3.637536176820786
4.77611492826278 5.518183668308489 9.335624906711217
4.77611492826278 8.017076867394445 6.127942377139706
4.77611492826278 1.9771605203727398 4.668297967695843
4.77611492826278 7.956810447358389 1.6441931050307002
4.77611492826278 7.093620945049274 8.041198538606238
4.77611492826278 0.21772775339809522 6.354007674510004
4.77611492826278 1.2321590289373219 9.741711837262793
4.77611492826278 6.402080391271366 7.009189341911816
4.77611492826278 9.432522229683578 8.195227174814091
4.77611492826278 3.115228020506013 5.635790446247937
4.77611492826278 3.472864793763972 8.409320285999474
4.77611492826278 0.9397025053666158 8.623523135746517
4.77611492826278 2.2799950811886487 0.4704792455263929
4.77611492826278 3.202719689157772 2.363745205627645
4.77611492826278 9.88184319036878 3.9571449597674078
4.77611492826278 8.016801380812582 6.118189698620705
4.77611492826278 6.638120518308875 5.9737596989028034
4.77611492826278 2.575064542566875 1.6490015976672046
4.77611492826278 5.461824926062656 1.2692455821169686
4.77611492826278 6.60428670106516 0.26275411376578794
4.77611492826278 7.47884029995515 2.6478288750923586
4.77611492826278 2.816917513934341 7.045090488800173
4.77611492826278 4.550813283325804 8.799484386188697
4.77611492826278 6.878632096279892 0.7997806645077234
4.77611492826278 6.66929048486943 9.4905630840461
4.77611492826278 4.425458851240737 3.192449457851801
4.77611492826278 8.12130355606915 2.995829866941792
4.77611492826278 1.3940699567734667 3.214258359510546
4.77611492826278 7.566269902586024 1.2185089168952792
4.77611492826278 1.5402674377137446 3.554521516060336
4.77611492826278 2.0029221607114835 8.121077601520508
4.77611492826278 5.8530741006339015 4.258589470450084
4.77611492826278 5.082221334596509 8.849014835925022
4.77611492826278 8.792267762391567 2.978336730887661
4.77611492826278 5.870965455418386 5.319493746305898
4.77611492826278 3.996626818482462 7.223489336031594
4.77611492826278 3.0365695999440354 0.6871315788198266
4.77611492826278 0.4554507586893205 9.721710486743271
4.77611492826278 5.046172075795618 1.3402731845601175
4.77611492826278 8.918487438233475 8.110532101229065
4.77611492826278 2.7856615066035975 7.487155058464011
4.77611492826278 8.24893229638419 4.653445765211262
4.77611492826278 3.579307592736496 7.833502515703033
4.77611492826278 5.214754548721778 3.421184135313602
4.77611492826278 6.36790038138249 7.525107255889464
4.77611492826278 2.330273200761765 9.625183726448563
4.77611492826278 6.2891119985584565 3.7515989070471933
4.77611492826278 2.5891917053165723 6.359839130030196
4.77611492826278 1.8182451162264364 6.809081326463604
4.77611492826278 1.8409752110546216 2.213341797417355
4.77611492826278 7.287382321176131 5.426222365444098
4.77611492826278 3.477223784338016 9.469640870416644
4.77611492826278 4.18820167794438 5.1873896509364235
4.77611492826278 5.891385495718011 7.730580304446177
4.77611492826278 4.943774945071428 0.8248439431683051
4.77611492826278 4.803048548910146 1.3397230058197827
4.77611492826278 3.063938461974988 0.6945611682289273
4.77611492826278 0.9206469214114539 1.3226552696945015
4.77611492826278 4.466417311349357 7.691992944625426
4.77611492826278 5.955446132795574 2.1595688702978757
4.77611492826278 7.887342557868902 5.651805089349721
4.77611492826278 1.0631672099611993 1.812173927663429
4.77611492826278 1.9578493581414282 5.417907190855435
4.77611492826278 3.875139673544633 4.913256905775456
4.77611492826278 4.54679114762721 0.0906976253593974
4.77611492826278 2.1912794060145186 3.213223561989511
4.77611492826278 6.139847095445508 8.53652766340734
4.77611492826278 3.714318849838513 0.4375374483374358
4.77611492826278 8.85952656181907 7.7531741517857995
4.77611492826278 3.188164075850406 4.20703146668492
4.77611492826278 8.861933113450236 6.191067193749225
4.77611492826278 8.227909922005173 4.6039220874393
4.77611492826278 4.586009259657573 5.9381013340141555
4.77611492826278 6.5142923251084435 8.476382359596771
4.77611492826278 6.296853130374716 3.6388701025028864
4.77611492826278 2.2954888383190903 9.424566327302987
4.77611492826278 5.416319476913513 1.284126599306453
4.77611492826278 9.31621841840619 4.905215946024479
4.77611492826278 0.40825128142303263 3.439767445250804
4.77611492826278 9.144743221648769 1.1220229797373746
4.77611492826278 6.591026536931729 6.2364258885940576
4.77611492826278 2.7345418208484187 5.210085298524941
4.77611492826278 2.1812642617591123 6.553429120731806
4.77611492826278 8.53748270804499 7.1575756256243555
4.77611492826278 7.028305511386946 8.656479032182713
4.77611492826278 6.630025804792615 5.72301985510995
4.77611492826278 8.05719148315323 3.58596614515447
4.77611492826278 2.5046963133242293 1.951629297257966
4.77611492826278 0.19509048071889756 9.421104235902856
4.77611492826278 6.322289634585788 3.7122686194318444
4.77611492826278 8.144378396997425 8.872667096032783
4.77611492826278 7.637440989598825 6.924672066368673
4.77611492826278 9.309484331539883 5.01870387262673
4.77611492826278 5.98396881207855 7.502012221146722
4.77611492826278 1.9063479397612346 3.6170913592714085
4.77611492826278 6.928486645440969 2.0760095096859565
4.77611492826278 8.746177386553072 4.338426273933206
4.77611492826278 3.9539287988160305 8.482907361149257
4.77611492826278 3.997220786707694 9.492832862084068
4.77611492826278 9.742747636215338 8.874708321290976
4.77611492826278 2.980321914003728 3.573854874133779
4.77611492826278 6.227686304658007 0.28726994804387185
4.77611492826278 7.113705248112542 8.830764779171048
4.77611492826278 2.276737179169806 5.654540539539871
4.77611492826278 8.247929139729381 4.61547734400665
4.77611492826278 1.7461664528244876 1.2913223172913504
4.77611492826278 5.084671431552153 4.562523123147027
4.77611492826278 9.29069697145493 8.136438488585522
4.77611492826278 1.2364308860028392 1.0347111923921672
4.77611492826278 7.313607856805817 6.6136796912231945
4.77611492826278 7.1547824138347895 4.67848118687658
4.77611492826278 7.911643286773307 0.6890463838998574
4.77611492826278 6.887703319073625 0.8447541172229073
4.77611492826278 8.124691659079131 2.9690793633572015
4.77611492826278 9.547528116618054 6.664294145815792
4.77611492826278 4.533835180156946 6.800046291991177
4.77611492826278 6.899259039863435 7.681829828387204
4.77611492826278 4.8830078712720875 8.278958800604055
4.77611492826278 6.307286157029024 5.545665350182052
4.77611492826278 6.548369505949875 7.428401103494774
4.77611492826278 0.21463863850697423 9.082949371290553
4.77611492826278 9.228734875394391 3.4118093845671393
4.77611492826278 2.3605822024293617 5.654375885535283
4.77611492826278 0.8523041304686968 2.0964055463165367
4.77611492826278 2.1009759750020454 5.05401930991868
4.77611492826278 2.5242502684519907 4.085021702270825
4.77611492826278 2.9778361682971557 3.637347848260502
4.77611492826278 0.7790894241754472 4.206128427509595
4.77611492826278 1.229667607221693 1.8161688790082464
4.77611492826278 3.060672003355303 1.1745390730704695
4.77611492826278 7.471515594044512 7.8158998097179415
4.77611492826278 8.721141020791821 3.829775213246458
4.77611492826278 4.983138702144424 4.292685940258274
4.77611492826278 6.653733681144485 3.7423844666833985
4.77611492826278 5.693950207552583 6.525183003882337
4.77611492826278 1.1349017493492493 4.366621221597645
4.77611492826278 9.001741035739103 3.4799818417261927
4.77611492826278 8.57827784661333 6.747576711859406
4.77611492826278 9.025555858343038 4.463629335653219
4.77611492826278 5.219266101204352 3.4145545060207176
4.77611492826278 4.946433988580484 0.7408557066243275
4.77611492826278 4.0260688565235885 3.2257908485438915
4.77611492826278 7.134884265124973 5.221101111032087
4.77611492826278 5.022310216727234 5.906668538722197
4.77611492826278 1.6980496721696392 2.9254275582352984
4.77611492826278 0.6297926981832491 7.821831280575045
4.77611492826278 6.313666576806892 6.97034687525293
4.77611492826278 3.2318959368107385 1.0484831830633925
4.77611492826278 0.8144220171301892 9.850247488106056
4.77611492826278 4.240231560916001 0.15000474379719106
4.77611492826278 5.814324550739928 7.553957843330835
4.77611492826278 8.668668769775506 6.409312935354057
4.77611492826278 0.5358865174450598 1.1220153371635215
4.77611492826278 1.884456949505764 0.9733453639871091
4.77611492826278 7.147360491057889 2.8092587781430565
4.77611492826278 2.175881921845064 3.052474186377051
4.77611492826278 0.8845003089028902 5.135022854016428
4.77611492826278 5.672972369219334 8.287958114611792
4.77611492826278 9.457122564577523 7.412982677483411
4.77611492826278 1.4723662652313771 1.155524293727034
4.77611492826278 5.218743689257457 6.512074094955781
4.77611492826278 4.4005247433048424 5.752756436032447
4.77611492826278 0.9315788255629718 1.7459354419758673
4.77611492826278 7.822681034724444 9.342967826080018
4.77611492826278 2.9692204345049067 3.6810953178246115
4.77611492826278 6.829124803958151 2.566541759375265
4.77611492826278 9.804349746525345 2.0838368441772652
4.77611492826278 0.6873378485551339 7.343124835682835
4.77611492826278 4.736684818400067 4.11132565337054
4.77611492826278 2.667436456313761 7.948163751962924
4.77611492826278 5.343863443534803 7.480008507748368
4.77611492826278 2.0347199595079357 6.8036645359123495
4.77611492826278 0.4835262126900003 8.814099094863828
4.77611492826278 2.791670372655448 3.198048080713675
4.77611492826278 0.9861713944588657 9.808801231827614
4.77611492826278 4.589758060486433 7.744164150504348
4.77611492826278 7.2276280608831245 1.738170171952952
4.77611492826278 4.603409092995773 4.949812519844445
4.77611492826278 3.099179701752413 1.2597419106671492
4.77611492826278 5.782127817397291 6.559338864248409
4.77611492826278 5.291317654055903 6.066750691150086
4.77611492826278 2.608682973860284 3.1589626226774494
4.77611492826278 4.9210160746001455 2.169200650037475
4.77611492826278 8.387952189694621 3.720295731802235
4.77611492826278 1.6129337025177128 7.4582511255015955
4.77611492826278 7.612527959835113 2.0203634741643315
4.77611492826278 6.455212143293037 1.371692153307165
4.77611492826278 1.9659337282145017 2.345872748242817
4.77611492826278 7.547803964614394 1.9635355908569436
4.77611492826278 4.9316572037757 0.2132711579060853
4.77611492826278 0.8453688645127553 2.8818363148984827
4.77611492826278 8.369752665187924 0.5450169391696763
4.77611492826278 6.050135347265839 9.038333230115313
4.77611492826278 3.7574193881221634 1.9842998558704545
4.77611492826278 6.931358445278316 7.705859206521621
4.77611492826278 8.419060043824517 9.35354235229694
4.77611492826278 6.57643467769698 7.241692209142913
4.77611492826278 8.82355434488714 6.290791423382843
4.77611492826278 7.7284184367835715 6.415243694081044
4.77611492826278 3.8841825586859455 5.666702989103325
4.77611492826278 1.642868990544654 7.378672654919664
4.77611492826278 4.591865699436026 2.196626454350304
4.77611492826278 8.150431956006084 6.060568925918468
4.77611492826278 8.450578959482268 7.2284849625038134
4.77611492826278 1.7212429977165156 7.735475265688957
4.77611492826278 1.2479405710990645 5.965106526676215
4.77611492826278 5.548436543759799 4.98467551669577
4.77611492826278 4.834223715885082 7.350610604947704
4.77611492826278 5.876910188308167 1.2709123202046866
4.77611492826278 4.7061083788982145 6.895791147179678
4.77611492826278 0.7000220393768225 2.503512956199703
4.77611492826278 8.082791267249535 3.3793761762056755
4.77611492826278 4.551641818539695 3.951112780504684
4.77611492826278 2.152303769709879 8.163690765613534
4.77611492826278 7.061859559779669 3.597858826440519
4.77611492826278 9.07479817810957 3.3894631740983048
4.77611492826278 4.646919682523381 7.654584304119852
4.77611492826278 8.441325731675041 7.385428773464841
4.77611492826278 7.243975762967188 2.7618994455650134
4.77611492826278 5.878828765744035 5.299172687892795
4.77611492826278 8.08568509179875 7.3954318600043205
4.77611492826278 5.9522936386713505 8.344239033244714
4.77611492826278 5.116704497967486 1.3729678460210284
4.77611492826278 1.7452007761394317 1.293518515130448
4.77611492826278 8.691793842890876 1.7431735207305963
4.77611492826278 6.52054142170649 7.469670250544834
4.77611492826278 4.470942856727893 8.430307885012072
4.77611492826278 8.451567411133137 6.014817875324113
4.77611492826278 8.717228223629824 1.8081138014302855
4.77611492826278 4.153991001349344 9.494262709876894
4.77611492826278 6.7845622657639 1.2747209152539938
4.77611492826278 4.100125670396275 1.1834929898698283
4.77611492826278 1.003217288632302 4.754392983566323
4.77611492826278 4.935453345549833 0.462580198925248
4.77611492826278 3.046107314169183 6.706038389369284
4.77611492826278 2.4896799936526057 1.7593547556931726
4.77611492826278 4.397871458878656 8.55399829486495
4.77611492826278 1.6464081491912428 2.0316068748642526
4.77611492826278 2.012949530895592 6.809079495429346
4.77611492826278 6.361029461370215 9.365160657765385
4.77611492826278 8.892186032168212 7.940085060728496
4.77611492826278 0.4990148945513663 8.801290490454337
4.77611492826278 6.850831199824861 4.038240846874482
4.77611492826278 7.3116793809154 1.2807337797934712
4.77611492826278 8.871333629265157 3.6410281072129234
4.77611492826278 0.44122352770953377 7.558808507306942
4.77611492826278 4.495930592694473 6.960222005677921
4.77611492826278 1.1994749850501014 6.18259706058769
4.77611492826278 7.820663000422694 7.93379431342798
4.77611492826278 7.734248590198013 6.408873131595004
4.77611492826278 4.549327593608872 3.2895869450310555
4.77611492826278 1.7421089947971984 1.2942288490551277
4.77611492826278 4.793310189896388 5.922370733693271
4.77611492826278 9.874535052937707 1.4490302520919849
4.77611492826278 4.6020286251931095 4.950514600613082
4.77611492826278 2.7989574803183386 7.577256796930468
4.77611492826278 2.1677600850607384 5.024760934169359
4.77611492826278 4.192703788741785 3.9684605889052906
4.77611492826278 2.50574366921229 1.985665042247886
4.77611492826278 1.8034662079376742 6.866251603433925
4.77611492826278 0.40965446015766205 7.608762852119875
4.77611492826278 8.259418313400717 5.343542147294234
4.77611492826278 8.849104462119135 3.045117015892805
4.77611492826278 0.20015981512506295 9.515731119417572
4.77611492826278 2.9905754663009945 3.2376278203831306
4.77611492826278 0.8166119061171566 1.5296066676348277
4.77611492826278 6.114975443664505 4.5246414070756025
4.77611492826278 9.394148295613292 3.432056954316712
4.77611492826278 3.898620580686717 1.9908105390275204
4.77611492826278 6.887546903352836 5.539984710553748
4.77611492826278 3.5277870405993 1.3590956078244332
4.77611492826278 7.602524071619429 2.412702116248686
4.77611492826278 6.331724773171947 5.559655747935989
4.77611492826278 1.1357431985571285 1.0761601364982472
4.77611492826278 2.5259907045139256 7.07237622450015
4.77611492826278 6.13029986098381 2.2830952049836486
4.77611492826278 6.1998693475322915 3.3395505083845496
4.77611492826278 4.343755968504653 5.698328445247524
4.77611492826278 8.060239643367073 2.921963326302407
4.77611492826278 7.044281766156636 1.3038864572725228
4.77611492826278 6.5771709466987955 7.099058325841714
4.77611492826278 4.621432443912154 3.7351542918677563
4.77611492826278 7.161811864396451 7.875462239565135
4.77611492826278 4.518423176361756 2.23428022521829
4.77611492826278 2.761028088894171 8.90959380325212
4.77611492826278 8.851753981928143 5.7978268418186865
4.77611492826278 8.5432676964305 6.022365351319245
4.77611492826278 3.86054763387908 0.6765160454606554
4.77611492826278 7.6808860567682595 1.953324793404493
4.77611492826278 6.771064329119792 6.885143959896826
4.77611492826278 8.79734546318398 1.6090577984135335
4.77611492826278 7.037839538039929 2.7292396876646516
4.77611492826278 7.266072149625357 1.7792334395258562
4.77611492826278 0.3178575185874977 5.375253119600622
4.77611492826278 6.9338140153559165 1.2293872247063804
4.77611492826278 0.9788262090919015 1.1241380483583918
4.77611492826278 6.946008462286594 6.624514140630606
4.77611492826278 4.713676073294229 3.445445942722405
4.77611492826278 2.933456023905772 4.010777388616946
4.77611492826278 0.10141498480116361 5.680112028076904
4.77611492826278 3.766864328734651 5.729392346253371
4.77611492826278 5.741179115706045 4.983717137930441
4.77611492826278 0.6565713556838111 9.89248880146207
4.77611492826278 8.250627014459393 5.048218100384787
4.77611492826278 4.861968173982113 3.4236899175564517
4.77611492826278 6.562602698874863 2.4445170547596486
4.77611492826278 4.248411971210561 7.1389403247383045
4.77611492826278 3.1893207872812064 9.86691111379934
4.77611492826278 2.3662021686268857 8.567368936087682
4.77611492826278 3.2940982557794114 2.3690565846993312
4.77611492826278 1.7481618726794332 1.2953239749025054
4.77611492826278 7.591057923299841 0.32814457244913264
4.77611492826278 0.4405277972885025 8.84829247752748
4.77611492826278 4.931748865338264 1.271570565951536
4.77611492826278 6.053655037275764 1.7292985414677569
4.77611492826278 3.1234253526291185 3.1420557818022443
4.77611492826278 6.350801197649452 2.5190742009879115
4.77611492826278 6.181960478908194 6.626754263146609
4.77611492826278 5.8349241060145305 4.264590407558555
4.77611492826278 5.955175985767141 9.187243630811599
4.77611492826278 4.527669469184421 6.500092746884809
4.77611492826278 0.6025503811696075 6.866867979767242
4.77611492826278 0.588780924927326 6.7598320569139565
4.77611492826278 7.927660434873221 7.433315666109402
4.77611492826278 1.3899801180707836 8.855305291409854
4.77611492826278 4.66739402299199 8.124748364141471
4.77611492826278 4.525238663536757 6.79479949074468
4.77611492826278 5.445592143127768 4.1970251044593585
4.77611492826278 7.801535306866708 1.3117206550888727
4.77611492826278 3.4187796080551967 8.247095999749837
4.77611492826278 4.382726150164197 0.036089409264471004
4.77611492826278 5.10346063279018 1.962504960659574
4.77611492826278 4.836482272107478 0.18144925057188402
4.77611492826278 4.1536054697810965 5.514868827510027
4.77611492826278 8.898722322843307 2.2314774043749352
4.77611492826278 8.437464326994771 9.018736229917886
4.77611492826278 5.878623771955778 0.7252260916913265
4.77611492826278 4.599945992633495 4.951730839173996
4.77611492826278 1.554825571369937 1.5889797788245354
4.77611492826278 3.519069902230387 3.125646468666439
4.77611492826278 5.506202473342655 4.985842298222903
4.77611492826278 2.1385233830326675 4.314080654753977
4.77611492826278 4.462294784670382 8.651210559789098
4.77611492826278 6.549562875374708 8.474283302376756
4.77611492826278 1.2767532109236601 5.83458461522376
4.77611492826278 3.7022261387508015 4.295695965768376
4.77611492826278 8.394729317026075 8.916003762093796
4.77611492826278 2.316934603380669 5.688727396655975
4.77611492826278 0.1999575649292198 9.505483247875942
4.77611492826278 3.56049610403119 9.469154326565326
4.77611492826278 8.533328892655856 2.8518732174017707
4.77611492826278 1.9592785773408767 6.822503011741333
4.77611492826278 5.119340581849367 8.742856591399784
4.77611492826278 6.099875235402882 1.4638873170056388
4.77611492826278 4.706043684645977 6.895699582892151
4.77611492826278 3.986174081493507 7.486640969136724
4.77611492826278 7.744119351982096 3.887692052502618
4.77611492826278 7.775699618043072 9.119253801768851
4.77611492826278 9.79406892866314 2.308401203265156
4.77611492826278 9.800544300552817 4.436319081673236
4.77611492826278 7.046805132624605 9.11362560436801
4.77611492826278 6.0162539332955625 2.1702177310797666
4.77611492826278 3.275436386262081 2.712651979652909
4.77611492826278 0.39436327339058624 3.9318751216976793
4.77611492826278 7.173867241060379 8.973564892373098
4.77611492826278 4.490969191656132 2.2459770535813086
4.77611492826278 1.8790626838440787 6.916834625903088
4.77611492826278 0.3436669676902854 6.411438292906962
4.77611492826278 3.5427143531757794 4.457507007541996
4.77611492826278 2.2888754742902737 6.387202931405892
4.77611492826278 0.3970717624689555 3.881279174452926
4.77611492826278 1.304857763592298 8.686992616984595
4.77611492826278 2.064083673903746 3.872748441719643
4.77611492826278 0.7478285695109383 4.182535148261246
4.77611492826278 5.97337787126849 4.54519354971687
4.77611492826278 1.4149141875077427 1.1253571193883989
4.77611492826278 8.237821938419703 8.369159053326301
4.77611492826278 4.235677697994076 1.5705154444033154
4.77611492826278 7.8275736172626855 8.925030718305342
4.77611492826278 8.854872076168926 0.5711006067392715
4.77611492826278 2.3883287264028934 6.211949926816723
4.77611492826278 1.4315387729318154 1.804676090618641
4.77611492826278 4.690595508679763 8.861480286411542
4.77611492826278 1.567458097856934 4.526945429345899
4.77611492826278 3.488856317093175 5.878681242147011
4.77611492826278 4.1724532928164875 5.336741287124371
4.77611492826278 2.376671658173159 8.608753414307483
4.77611492826278 7.990602165644993 5.568282092114827
4.77611492826278 8.871373692014487 6.255276083056674
4.77611492826278 7.751350380372691 8.982415261848562
4.77611492826278 0.8065217660844464 3.031968054854148
4.77611492826278 2.6023314528567423 0.5475633419996374
4.77611492826278 9.48458262287014 8.22317236907867
4.77611492826278 2.3582428812166873 9.830199930425755
4.77611492826278 0.47294769618453913 6.477081538021171
4.77611492826278 5.229261197316144 4.808970388763771
4.77611492826278 5.375312600351561 6.392795356338725
4.77611492826278 4.526696575365898 6.76886780489132
4.77611492826278 3.4705429300925 1.3363769956879592
4.77611492826278 0.7076499255137908 8.341659430658828
4.77611492826278 1.4228607518509113 6.420480629324216
4.77611492826278 7.607377327709219 5.5514866312359015
4.77611492826278 0.6234570447155088 5.158378940446279
4.77611492826278 5.121746341858491 1.504708252655505
4.77611492826278 7.267398684033936 0.16416645762787757
4.77611492826278 1.5194430748292074 9.118336732307158
4.77611492826278 7.178544864677308 1.8374643979298346
4.77611492826278 2.71997696968885 7.173320436664842
4.77611492826278 7.001967915481955 0.2940022003852566
4.77611492826278 4.560427708862967 6.168646655097473
4.77611492826278 0.4474101465938345 7.650735303500584
4.77611492826278 2.0657258562811953 4.443961857396933
4.77611492826278 8.014260146147468 6.080093551565964
4.77611492826278 3.5969710197153377 6.737192461722472
4.77611492826278 9.459558679348547 7.763128366300143
4.77611492826278 7.121494107126995 3.031352917397821
4.77611492826278 5.431596579724318 9.241418973840021
4.77611492826278 7.59941207864776 2.589963913280194
4.77611492826278 7.8780147549220665 0.7930200271369703
4.77611492826278 6.04323789496147 1.7918927296202913
4.77611492826278 7.005193711437339 3.6522682354359377
4.77611492826278 4.3294533350805455 3.9730994439956846
4.77611492826278 5.188423583089548 4.356148746310632
4.77611492826278 2.6779249739557516 4.052044271934791
4.77611492826278 5.064997243200529 4.70165320862858
4.77611492826278 3.441758293097626 9.52134494892667
4.77611492826278 1.2874525338183294 7.47978988359395
4.77611492826278 1.3059381686920344 9.591034432300406
4.77611492826278 7.125486601027533 5.369361862664248
4.77611492826278 0.4933622168179873 3.179550389472849
4.77611492826278 6.657609309750113 2.434289980929438
4.77611492826278 8.72196019200075 0.5021279494663031
4.77611492826278 2.8289078456574406 7.8326020046606235
4.77611492826278 8.844745777575492 9.420942949097427
4.77611492826278 0.21549672928587235 9.028873495940768
4.77611492826278 1.744151312497739 1.2938298760782554
4.77611492826278 4.39434989397734 2.6949580838114895
4.77611492826278 9.47086800131463 4.566010418142912
4.77611492826278 6.841402501715746 2.189960226635051
4.77611492826278 7.820702390422357 0.5801945876684984
4.77611492826278 5.207872133331063 3.4219128673003354
4.77611492826278 9.094474841563155 2.339929618310612
4.77611492826278 0.9658679697538054 1.8213037593466725
4.77611492826278 3.436763935347572 9.389114654071227
4.77611492826278 6.645933832371004 6.2684312370858715
4.77611492826278 9.000299343447178 5.654475255345593
4.77611492826278 1.9181042405789632 3.5869221469324333
4.77611492826278 8.347326137454218 9.58958847141924
4.77611492826278 2.7622316168814955 1.4855927355790592
4.77611492826278 8.029405586619713 6.135131350613471
4.77611492826278 5.728339664319588 4.9749999652936765
4.77611492826278 8.330817031706856 8.386720256609848
4.77611492826278 1.8553007569697106 8.078655906698362
4.77611492826278 5.28004169278854 7.474339756175083
4.77611492826278 3.3708046490941777 8.604465436360542
4.77611492826278 0.4395442076598353 3.2238830478960585
4.77611492826278 6.632393412044047 5.79820404310978
4.77611492826278 3.7411916979673188 8.45843019088901
4.77611492826278 6.780854969771748 6.336142090801228
4.77611492826278 5.995833159446445 8.39036180460895
4.77611492826278 5.236729229311113 4.814356299598779
4.77611492826278 6.118699875207968 8.705484408485066
4.77611492826278 0.690613174200795 8.247066126673266
4.77611492826278 1.7640910600674056 7.834903400916917
4.77611492826278 9.107336740080411 9.42737465274802
4.77611492826278 5.769814530470179 1.1800422206118548
4.77611492826278 5.8215258000788195 7.577221963949602
4.77611492826278 1.3772241252623612 4.04690946035687
4.77611492826278 8.836373288662358 6.008349563042753
4.77611492826278 8.486758259645208 6.396460891912828
4.77611492826278 5.49230826789583 3.005778004023381
4.77611492826278 8.498782905352675 9.164874458460002
4.77611492826278 1.8263489343827701 3.2378521751159512
4.77611492826278 8.740701049168907 4.218021013771346
4.77611492826278 7.834022341161279 0.935089468484554
4.77611492826278 4.705075505425212 6.896877450063244
4.77611492826278 8.065759213400819 0.6435275229987837
4.77611492826278 6.777141967504006 9.457745856189295
4.77611492826278 5.818655931030934 8.209435923226556
4.77611492826278 3.0565858236329424 0.6654160543126264
4.77611492826278 0.9412261530260344 6.317341556674583
4.77611492826278 6.920775104474238 4.518008726740281
4.77611492826278 5.830858826422915 7.537996635563457
4.77611492826278 9.305042549246728 5.457670662577318
4.77611492826278 6.102881531716955 6.770690591864587
4.77611492826278 1.937836072903325 2.782458622287042
4.77611492826278 5.504177113882537 5.049502813292821
4.77611492826278 7.773371871965962 2.712294112735001
4.77611492826278 0.6550219430918012 1.4023342397296383
4.77611492826278 8.164902413854271 5.42274565967461
4.77611492826278 6.12774689561234 6.8776035190773905
4.77611492826278 5.960656013032747 1.3473392184181678
4.77611492826278 7.069401399972726 0.24909543078287233
4.77611492826278 1.6712346186201488 4.572344783272402
4.77611492826278 6.691019475416079 0.3192759050033696
4.77611492826278 1.306488212076614 7.479624239244913
4.77611492826278 4.937192749770338 1.0106636517561882
4.77611492826278 1.1600360090528112 4.358198818175941
4.77611492826278 7.1356020104096824 5.0031638642209115
4.77611492826278 9.562819809606355 7.560275558030719
4.77611492826278 8.63879639942904 0.4593883490643362
4.77611492826278 9.15780750957281 1.1482765354241324
4.77611492826278 8.561234478727526 8.430152767721387
4.77611492826278 5.84927576057714 4.273677089610752
4.77611492826278 4.06825568583919 1.9897711085519438
4.77611492826278 1.2204299057310055 5.484625224767073
4.77611492826278 3.3997641068469595 8.19080820635906
4.77611492826278 4.510755942588946 6.800729255217635
4.77611492826278 0.2691824606607011 5.44277981505023
4.77611492826278 4.646787622656625 3.6536502761820664
4.77611492826278 8.70940462490602 9.322429417993407
4.77611492826278 3.346779100409837 8.032147990399771
4.77611492826278 4.102346438589346 0.269262304277501
4.77611492826278 8.735439948060796 4.040596580916244
4.77611492826278 4.706095727542386 6.895730865863215
4.77611492826278 6.987849428601236 6.567746150682683
4.77611492826278 2.533065721040578 9.83909146832609
4.77611492826278 7.735608351722103 7.7758444015636545
4.77611492826278 5.860404228616807 8.049011527221278
4.77611492826278 1.0076587561208326 5.263500420230913
4.77611492826278 4.546932517219757 1.3557781965074738
4.77611492826278 4.311849678208352 3.084230807432282
4.77611492826278 4.969873142966172 1.2916370758155518
4.77611492826278 6.957106348550511 6.527646050055126
4.77611492826278 9.048647582624675 7.450669859033638
4.77611492826278 6.849034205194895 4.084333797011517
4.77611492826278 6.85676741155288 5.5608081735947055
4.77611492826278 1.8476268808999612 2.7883344455036005
4.77611492826278 3.9780667162270325 7.0540308709713635
4.77611492826278 6.099421563037349 7.524753537448703
4.77611492826278 4.394121862090562 2.695649159687375
4.77611492826278 6.040683135140397 9.154327588145648
4.77611492826278 9.837742619419787 4.337261021175693
4.77611492826278 6.984157281681964 9.22497336295102
4.77611492826278 5.8826973610376845 7.4900801186785175
4.77611492826278 3.262693642101918 5.7282887476026
4.77611492826278 6.9703093120062185 1.254111075001346
4.77611492826278 3.286959495816735 9.732934406862004
4.77611492826278 5.389003778839907 3.1456491693417985
4.77611492826278 1.370494800198369 0.7306240481719581
4.77611492826278 5.155733775422298 8.646334288958366
4.77611492826278 7.9115636056891 4.428777669527083
4.77611492826278 4.334806921462577 9.248417651427651
4.77611492826278 8.789980848540479 5.697428521338508
4.77611492826278 7.348933547912009 8.977876951846167
4.77611492826278 6.0542922042443905 7.133448996517505
4.77611492826278 8.597378248099659 6.466117454835603
4.77611492826278 0.6295768420225457 7.308189795834793
4.77611492826278 3.2586702258451945 2.3966677260302243
4.77611492826278 8.269247748554037 4.605119378888529
4.77611492826278 8.85714472932328 5.743642153221829
4.77611492826278 2.8764659899276896 6.555393880571674
4.77611492826278 7.747390981059681 1.1771820331865805
4.77611492826278 4.914476311283218 6.746522714890318
4.77611492826278 6.3338000529622995 6.483445781433788
4.77611492826278 5.846369674352177 4.266479989168443
4.77611492826278 3.6333247750805087 1.2919306470756338
4.77611492826278 0.5951835591796804 7.355854100167172
4.77611492826278 8.397585677611998 5.446425405018875
4.77611492826278 6.089774016420608 6.713157739802415
4.77611492826278 4.0054849076444485 7.016291698093458
4.77611492826278 4.592068631388526 8.861321660078879
4.77611492826278 7.149142488512543 4.671176657881402
4.77611492826278 4.044519912378208 7.511475385934382
4.77611492826278 2.2479394661139103 3.1465932003543897
4.77611492826278 7.912266099937342 7.460920010522258
4.77611492826278 1.333070161083692 5.602205046639033
4.77611492826278 9.363334901136305 2.34920157893635
4.77611492826278 3.915607589872419 4.948548825460783
4.77611492826278 9.040258914700296 8.118907927000194
4.77611492826278 2.978118763637868 7.894028345839733
4.77611492826278 2.49570289577956 8.068649404395673
4.77611492826278 2.0267348028671646 4.789990791656455
4.77611492826278 6.337168431153457 2.42200953418328
4.77611492826278 4.493499588714639 9.005149561794518
4.77611492826278 1.566319231615502 1.566720505469013
4.77611492826278 3.8575824868346085 0.46494501544842487
4.77611492826278 5.514549476510931 5.3682739366716845
4.77611492826278 9.344232860600611 9.418059717420055
4.77611492826278 0.8342475873176266 7.592389727277339
4.77611492826278 3.6426023208910494 1.6648586837636923
4.77611492826278 6.867882670539652 3.7520265075375705
4.77611492826278 6.520092574368729 4.486569477730217
4.77611492826278 6.18409861339604 5.477231801884301
4.77611492826278 1.5721589562957066 0.3574305499111987
4.77611492826278 5.6491275969268155 4.235825915836414
4.77611492826278 9.639036709951267 3.478373398924377
4.77611492826278 1.7523950891382918 0.4873048474620968
4.77611492826278 6.573806475034361 1.3430691096069325
4.77611492826278 9.869433819514605 1.4351809404526077
4.77611492826278 6.707178223541287 7.56112242675838
4.77611492826278 5.523487215591967 5.493851641130908
4.77611492826278 7.803693784850129 9.24176938339478
4.77611492826278 2.077974917008038 1.5034072461910089
4.77611492826278 1.1167401962832972 4.373899120871419
4.77611492826278 5.456978131945027 8.370995580226017
4.77611492826278 7.025303216697037 8.212943380379462
4.77611492826278 1.443951636697588 9.283330541519772
4.77611492826278 3.6702392807013346 1.7328337847648576
4.77611492826278 5.135318142171615 2.1641165922498815
4.77611492826278 5.437308435574611 2.5846009128786385
4.77611492826278 8.320113964577075 1.6928155445339417
4.77611492826278 9.312953180597098 7.383754465036901
4.77611492826278 2.4890828585576514 1.720232850071303
4.77611492826278 5.2059043679604065 8.490607268012957
4.77611492826278 2.218015655120348 4.111128888236965
4.77611492826278 5.450010596283204 4.200453756798486
4.77611492826278 3.6483079352030536 7.771397706967699
4.77611492826278 4.823891406974522 7.442640046597837
4.77611492826278 9.841174243844046 1.8770145940064205
4.77611492826278 3.7783646687619097 1.197428969206069
4.77611492826278 7.738330067962065 3.8882055731372964
4.77611492826278 3.914606249858895 3.489939523747361
4.77611492826278 1.9941509622164306 5.446568761440063
4.77611492826278 0.23656063355976836 9.545249123274672
4.77611492826278 9.475951535711545 7.0676023104710906
4.77611492826278 6.547412983547601 7.45766380592502
4.77611492826278 5.113149338896856 4.401416133365668
4.77611492826278 7.916144296206944 5.748507762434225
4.77611492826278 1.7584821443871157 7.0950361177362895
4.77611492826278 7.438215044020159 8.986818019271132
4.77611492826278 2.1004612212598857 3.9298108910326337
4.77611492826278 5.601612092195872 9.305967410334368
4.77611492826278 0.5159565585240977 9.774382222148263
4.77611492826278 4.542927431550083 8.324660430532067
4.77611492826278 7.903418962101049 1.6567838510637967
4.77611492826278 3.8957982867441987 0.8559025070732422
4.77611492826278 8.830184830367497 7.506608360948514
4.77611492826278 5.952567397501378 3.0239661085398817
4.77611492826278 1.5936503256486119 3.6438199372963362
4.77611492826278 1.0932247771108263 8.656797616673558
4.77611492826278 7.611355679818049 2.336143382901618
4.77611492826278 8.043719920161893 4.503477014514455
4.77611492826278 0.5694836449080809 6.521066443910385
4.77611492826278 6.0765591003007176 3.027483863189007
4.77611492826278 7.9238672261783805 1.6397395069959988
4.77611492826278 9.657127208064459 9.06560832574542
4.77611492826278 0.9103365485748263 7.504529327865869
4.77611492826278 2.6927012678224895 9.841501544932036
4.77611492826278 7.936547699583015 3.7000128113963644
4.77611492826278 8.57080399803234 7.233567366385918
4.77611492826278 2.7343629177081525 5.219317502258031
4.77611492826278 3.976453701908102 7.02796280137354
4.77611492826278 4.450299853020306 2.2207627281389613
4.77611492826278 6.813731227517476 0.3842794232558084
4.77611492826278 7.478138770240541 4.291457355768655
4.77611492826278 3.157977447388533 4.889045202665102
4.77611492826278 3.936984693099216 1.0999830357432787
4.77611492826278 2.2754213755748207 9.114078710519921
4.77611492826278 9.521324587064735 6.807513693164328
4.77611492826278 7.165498556523874 4.6521396091020595
4.77611492826278 2.437797760824375 8.929056032410685
4.77611492826278 8.613722503559744 7.353633570890189
4.77611492826278 7.5860836587672384 1.7414077807937085
4.77611492826278 2.117840564708048 5.00782464142516
4.77611492826278 1.8784680823763777 3.6197790805670915
4.77611492826278 7.242372164213069 1.771298093841904
4.77611492826278 0.7553821185343874 1.05718202443906
4.77611492826278 4.0119940143747375 3.9713429314151374
4.77611492826278 6.607385747871853 6.151409171661356
4.77611492826278 1.3356674724391833 3.119782393268979
4.77611492826278 0.16852244512308406 6.012003637551393
4.77611492826278 1.9363242189586287 2.510211215691485
4.77611492826278 9.850469860104571 4.29419516136353
4.77611492826278 5.8839433273596855 5.3109144457406305
4.77611492826278 8.491095609646115 8.651019963154523
4.77611492826278 7.919577724718847 8.839859066004946
4.77611492826278 6.26475936637764 2.6050855567554243
4.77611492826278 7.509941303089231 7.810535276425244
4.77611492826278 9.169998818451207 4.544193514612732
4.77611492826278 0.528752541470075 1.158525222334616
4.77611492826278 9.514449114781515 1.2534692710856892
4.77611492826278 1.824477804542532 0.5431323484576689
4.77611492826278 7.667123905927564 6.973200636905405
4.77611492826278 0.17687017124560303 6.063840469068603
4.77611492826278 9.373330895662681 7.956159077433446
4.77611492826278 9.133492576058748 6.393129094750411
4.77611492826278 3.7980223605968897 4.205052499884657
4.77611492826278 1.4178084622044573 8.91365413402349
4.77611492826278 0.6912898566193304 7.759501419862198
4.77611492826278 8.039183334528625 9.57825331378034
4.77611492826278 3.332746484350981 6.631392041094863
4.77611492826278 6.609686996436483 9.50843873549668
4.77611492826278 3.4575890408898213 6.256498038375415
4.77611492826278 6.815656672048128 4.445987956651464
4.77611492826278 2.073586726834248 2.265246534730621
4.77611492826278 7.733853636023668 2.6872977236848135
4.77611492826278 2.7161212809646873 5.202265136439531
4.77611492826278 9.875162518030443 1.4377301793278396
4.77611492826278 6.004352170737114 2.063348018040641
4.77611492826278 3.4644304968647726 6.197601832103363
4.77611492826278 0.9806533743124274 4.819463842194202
4.77611492826278 2.569634659262651 2.0234183979986025
4.77611492826278 5.2785102145066665 2.261896956874218
4.77611492826278 1.4852896561833049 6.481829995257548
4.77611492826278 9.202963911239397 1.1391756030616957
4.77611492826278 3.269416799041521 0.44004913370976784
4.77611492826278 2.461131685713151 2.017654155385229
4.77611492826278 3.240677311891334 4.8343910011901965
4.77611492826278 9.724288765093176 8.920692564235704
4.77611492826278 9.308836101698123 5.141756229827301
4.77611492826278 4.898439229860356 1.2901673727470855
4.77611492826278 8.522022309700604 1.7198585298842202
4.77611492826278 6.124415487940745 2.9134719086343592
4.77611492826278 7.864406667881778 8.010787135808824
4.77611492826278 0.6758303341295616 5.153053430290361
4.77611492826278 8.736870620604877 8.267678821809321
4.77611492826278 6.38649167148525 3.7161852065365086
4.77611492826278 1.821832191878387 9.111657553226845
4.77611492826278 6.4081812426738844 2.4644699109583756
4.77611492826278 1.6953888325444075 8.252403335583692
4.77611492826278 6.202787236464506 2.503689099013065
4.77611492826278 5.444224829548858 4.201222375021053
4.77611492826278 7.505132524911811 6.640529441619296
4.77611492826278 2.8821197416987347 9.84151250529087
4.77611492826278 4.630660238759021 7.949666418462605
4.77611492826278 0.8953670415957116 2.9952774440316645
4.77611492826278 4.717032932832868 1.7325516884434335
4.77611492826278 2.306556171154697 9.497496694927404
4.77611492826278 4.2677440886848625 2.098446229607054
4.77611492826278 5.34841050466008 5.751057982946155
4.77611492826278 4.715885887211648 1.738227676827689
4.77611492826278 2.9559068162116717 8.912824736824692
4.77611492826278 8.942815199701878 2.3371056058638793
4.77611492826278 6.030867854617846 7.762953209176108
4.77611492826278 3.3208801386592306 1.2764941725100774
4.77611492826278 4.1716681162055 1.7297992800866133
4.77611492826278 5.46023524195933 2.7542648969535115
4.77611492826278 2.9305296953682154 6.8697426974972515
4.77611492826278 5.880848453566435 4.7185672672461925
4.77611492826278 1.856832077211069 0.5625527570714178
4.77611492826278 5.278408509401703 9.089430777722724
4.77611492826278 1.9641220168620193 3.4931314273112886
4.77611492826278 4.94532605431773 8.851621472633282
4.77611492826278 3.882834311091571 3.2932888435580248
4.77611492826278 4.21068983162445 3.126559455000082
4.77611492826278 9.703273959453446 3.609412331553768
4.77611492826278 4.332039172438161 1.339517926850234
4.77611492826278 7.163185648140777 3.640681215253197
4.77611492826278 1.065779866630216 4.54482569121607
4.77611492826278 8.929677630541212 1.4272784563728658
4.77611492826278 6.476845352483047 0.1941907583440768
4.77611492826278 0.15769686893857854 5.9730810502297835
4.77611492826278 3.2789527648806773 2.7894003359420805
4.77611492826278 5.861122361883041 0.8038867714239311
4.77611492826278 3.7472757277534052 5.738103421933937
4.77611492826278 6.175786818837407 9.23996830463461
4.77611492826278 3.5452205010189997 4.625288763799669
4.77611492826278 3.2934025582855657 3.0199050514916292
4.77611492826278 5.217000007456094 3.4269147424855886
4.77611492826278 6.91063469973138 1.0434953832952722
4.77611492826278 8.151838267810337 8.874363651565965
4.77611492826278 5.338622321293005 6.244283223236436
4.77611492826278 2.346745835926252 5.968210853002153
4.77611492826278 3.9023209884637025 6.970620877808432
4.77611492826278 2.384853783671668 1.6617149884338946
4.77611492826278 0.6678713615696646 2.4088010531186423
4.77611492826278 5.7472895506163315 4.9566371501428526
4.77611492826278 1.4875372512082983 8.486357373791996
4.77611492826278 1.4195325017748264 3.9405435039902756
4.77611492826278 8.685455719265908 2.8236378078020254
4.77611492826278 3.97370839181991 3.7830312674236604
4.77611492826278 3.543893895020895 4.538270084693319
4.77611492826278 7.3559523126865525 1.8118565352924414
4.77611492826278 9.443671776620844 9.31380321228381
4.77611492826278 1.8503115317230812 6.812335250360848
4.77611492826278 2.752513704258791 5.402254949616158
4.77611492826278 3.425068128209171 6.605147570176869
4.77611492826278 5.951918370092917 4.492528020963782
4.77611492826278 3.190583178047663 7.975422849154624
4.77611492826278 7.751163832762354 3.8945946963912395
4.77611492826278 8.149266414269706 2.962954666032339
4.77611492826278 6.531065532280435 8.473603101658071
4.77611492826278 8.369020692472807 3.7137442019500395
4.77611492826278 0.4504653442265051 5.1746338866448225
4.77611492826278 1.514379898520614 5.544833656081008
4.77611492826278 2.3328326410791824 6.968000963860215
4.77611492826278 2.784963931004213 2.144777769192215
4.77611492826278 5.991517702754897 2.149134181905531
4.77611492826278 3.352932754990161 4.3247597863369975
4.77611492826278 0.835430017852039 7.440903803286339
4.77611492826278 7.15292639179126 4.676168450840042
4.77611492826278 0.5469804742844282 0.974162688174291
4.77611492826278 8.997098557234628 0.7976692439991552
4.77611492826278 3.5440190575065342 4.545549711347858
4.77611492826278 3.0366661209831496 0.6795064870645118
4.77611492826278 7.413234596265174 0.10743736891743147
4.77611492826278 9.945127645339792 4.07894696769606
4.77611492826278 9.174464658245274 1.1446125389533777
4.77611492826278 7.300361903816953 3.6995803245179033
4.77611492826278 5.7371563383837625 4.97503450258583
4.77611492826278 4.168692527891949 5.372059748381337
4.77611492826278 7.998197931933253 8.327840439877425
4.77611492826278 4.706193563506119 6.895658472481204
4.77611492826278 3.6110067093135103 2.1109767645516193
4.77611492826278 1.665680832533905 5.501717814860277
4.77611492826278 7.110763677086289 3.216843448646153
4.77611492826278 6.1579797925886295 0.31582022950217437
4.77611492826278 2.7108386312750823 0.5865355609535969
4.77611492826278 7.8577607090898605 9.56904666348968
4.77611492826278 1.115475963084417 3.0622071698195636
4.77611492826278 9.3272695367419 4.62276270195887
4.77611492826278 1.4306404004215625 3.07444917479283
4.77611492826278 2.721782711649668 5.424541143831311
4.77611492826278 5.624329499268968 5.443997425089985
4.77611492826278 5.446394498676439 4.199819472796127
4.77611492826278 2.0297803263090444 0.671874873994466
4.77611492826278 5.953522899866158 0.3955830845339978
POLYGONS 100 1808
10 165 606 554 222 538 125 53 796 116 601
21 168 545 585 203 316 208 287 193 339 658 808 86 859 735 604 431 26 509 873 741 210
15 706 775 739 783 347 433 850 131 5 66 672 799 542 13 700
6 152 516 530 55 88 731
17 397 696 298 308 169 529 82 401 578 583 114 679 427 635 130 247 787
16 163 745 17 395 54 292 275 155 209 618 541 521 73 321 270 785
18 155 209 618 223 269 460 748 38 186 721 687 25 674 596 699 6 724 712
23 167 478 728 248 16 351 608 366 302 660 258 425 386 491 761 850 433 347 645 781 377 502 510
13 165 606 617 562 218 79 352 268 191 688 297 116 601
17 306 623 119 452 825 419 194 875 838 81 607 456 762 755 839 753 20
16 200 453 410 647 323 231 447 180 345 367 129 57 337 234 514 133
21 102 524 535 276 256 272 691 438 423 310 243 848 346 479 112 327 504 241 643 3 285
19 476 858 383 511 183 490 546 624 100 315 351 608 366 822 184 95 716 480 564
19 393 619 239 852 709 498 567 256 272 691 331 120 766 472 319 552 43 705 394
15 315 351 16 248 728 364 835 725 697 37 707 47 400 624 100
22 412 532 467 496 178 68 689 494 784 877 678 657 390 627 575 840 446 801 829 862 522 278
12 619 629 317 332 482 36 217 751 651 709 852 239
20 247 787 397 189 14 676 667 229 550 590 53 125 538 222 61 242 525 58 680 288
20 584 648 359 698 719 303 809 592 127 773 385 568 126 212 305 261 404 136 402 221
20 113 176 621 28 168 210 741 873 149 164 772 555 9 1 517 622 615 630 333 375
6 697 725 835 260 257 360
20 413 677 197 495 370 141 851 440 834 856 819 770 718 153 759 328 726 644 74 483
6 438 691 331 120 837 423
18 857 870 463 84 15 878 225 177 295 382 665 827 675 89 520 49 201 108
10 129 367 729 854 224 742 10 560 337 57
18 323 647 410 453 309 121 259 757 769 330 159 307 675 827 665 382 295 507
18 241 504 642 841 583 578 401 82 526 11 42 794 356 723 458 380 3 643
17 208 287 32 334 105 832 422 843 185 98 283 158 845 48 255 203 316
15 446 840 575 627 103 118 161 779 205 653 314 597 756 654 338
20 116 796 53 590 550 293 531 138 145 844 415 22 668 76 354 266 188 662 688 297
15 194 419 175 685 134 59 196 726 328 759 153 713 30 838 875
17 197 495 370 236 198 172 336 245 253 636 137 804 518 166 444 693 677
21 755 839 485 50 826 714 632 579 398 469 392 481 144 233 349 405 271 372 817 456 762
20 89 675 307 159 330 764 849 85 620 381 866 265 670 652 342 470 797 250 49 520
23 163 745 17 395 637 65 589 740 202 354 266 188 662 688 191 268 352 361 368 587 45 181 785
21 245 336 387 27 820 815 434 620 85 849 764 330 769 757 259 734 41 557 227 636 253
18 386 425 563 280 537 90 148 294 475 403 671 765 66 5 131 850 761 491
22 66 672 799 542 610 211 115 512 376 369 322 97 593 602 508 23 437 355 273 254 671 765
18 524 535 276 256 567 498 709 651 751 217 534 471 34 83 702 443 830 782
13 518 804 544 8 216 874 732 99 101 701 71 727 166
19 44 264 603 391 694 72 488 803 104 424 612 676 667 229 550 293 531 138 533
21 815 820 411 35 806 213 807 593 602 508 23 437 715 791 576 340 265 866 381 620 434
20 158 283 98 185 350 559 758 489 92 290 226 487 868 286 810 861 683 428 24 711
18 168 545 585 203 255 48 845 158 711 24 842 70 613 704 143 176 621 28
15 494 689 204 240 284 353 581 369 376 512 115 821 399 877 784
14 541 618 223 269 460 142 540 358 299 274 484 87 73 521
13 25 674 596 699 140 312 111 641 179 747 486 571 230
17 102 524 782 830 443 396 750 477 780 56 720 62 723 458 380 3 285
19 22 668 76 354 202 740 589 320 776 864 51 738 450 461 692 616 436 174 156
23 427 679 114 583 841 642 504 327 112 479 93 800 306 20 753 839 485 50 826 714 600 107 31
21 419 825 452 441 154 243 310 423 837 120 766 472 319 277 416 638 847 867 134 685 175
14 385 773 127 789 12 793 273 254 671 403 475 294 110 594
21 412 532 467 496 249 326 409 124 457 863 405 349 233 144 324 215 40 792 663 649 558
22 152 731 88 528 157 344 190 655 736 106 876 663 792 40 252 824 468 206 251 631 389 626
20 706 775 739 388 781 377 502 237 363 226 487 868 286 492 653 205 779 161 146 348
14 314 653 492 286 810 861 683 33 717 722 634 553 756 597
19 13 700 706 348 146 161 118 103 627 390 657 678 877 399 821 115 211 610 542
14 130 247 288 680 58 279 18 547 318 378 107 31 427 635
14 177 295 507 323 231 447 180 611 656 659 744 802 878 225
21 222 554 606 617 562 556 631 251 206 468 232 625 865 586 281 18 279 58 525 242 61
16 19 768 551 128 219 797 470 342 628 682 719 698 359 648 139 46
16 450 738 162 823 418 407 543 267 2 519 752 871 235 664 429 461
15 152 516 530 595 587 368 361 352 79 218 562 556 631 389 626
22 55 88 528 157 598 341 500 122 473 132 690 484 87 73 321 270 785 181 45 587 595 530
19 743 767 860 573 812 362 296 300 406 795 513 639 69 430 238 681 325 760 661
12 412 558 649 663 876 106 736 291 373 862 522 278
10 67 857 108 201 49 250 797 219 128 551
10 523 574 737 418 823 162 738 51 864 448
17 167 478 728 364 835 260 257 703 343 489 92 290 226 363 237 502 510
22 439 466 705 43 552 319 277 416 638 577 591 228 777 474 846 365 580 371 814 733 746 77
21 503 572 263 548 183 490 546 624 400 47 707 75 673 774 296 362 812 573 151 855 451
14 24 428 683 33 717 722 634 853 182 29 21 613 70 842
18 113 176 143 704 613 21 29 182 570 214 500 122 473 132 459 561 333 375
20 196 726 644 74 565 455 569 207 666 811 304 763 228 591 577 638 847 867 134 59
14 398 579 632 714 600 107 378 318 547 18 281 586 426 187
19 710 786 379 609 497 123 515 7 42 794 356 723 62 720 147 790 117 465 588
23 157 344 190 655 736 291 373 862 829 801 446 338 654 756 553 634 853 182 570 214 500 341 598
10 137 804 544 8 216 599 41 557 227 636
19 96 549 605 432 436 174 156 22 415 844 145 138 533 44 264 603 818 311 754
14 615 622 357 540 358 299 274 484 690 132 459 561 333 630
23 834 856 819 0 135 640 124 409 326 249 496 178 68 689 204 240 284 493 329 730 749 417 440
14 592 809 449 798 576 791 715 437 355 273 793 12 789 127
20 99 732 872 788 462 501 527 39 150 442 435 445 199 666 207 569 539 831 701 101
15 322 369 581 353 284 493 329 730 833 684 806 213 807 593 97
18 82 529 169 308 414 94 633 646 614 301 170 421 123 515 7 42 11 526
6 155 275 292 289 724 712
6 739 783 347 645 781 388
21 91 566 716 95 184 822 366 302 660 258 425 563 280 537 64 816 408 879 869 173 813
15 397 696 298 308 414 94 633 454 805 104 424 612 676 14 189
19 200 453 309 121 259 734 41 599 216 874 732 872 788 262 282 828 195 514 133
20 81 838 30 713 153 718 770 819 0 135 640 124 457 863 405 271 372 817 456 607
13 342 652 670 265 340 576 798 449 809 303 719 682 628
19 141 370 236 198 172 336 387 27 820 411 35 806 684 833 730 749 417 440 851
24 477 669 499 78 246 220 374 695 109 686 335 420 160 192 506 384 244 313 34 83 702 443 396 750
12 306 623 119 452 441 154 243 848 346 479 93 800
20 536 650 836 708 771 171 63 464 80 179 641 111 778 574 737 418 407 543 582 505
15 413 677 693 444 166 727 71 701 831 539 569 455 565 74 483
20 54 292 289 724 6 699 140 312 111 778 574 523 448 864 776 320 589 65 637 395
25 4 60 52 795 406 300 296 774 673 75 707 37 697 360 257 703 343 489 758 559 350 185 843 422 832
17 392 469 398 187 426 586 865 625 232 468 824 252 40 215 324 144 481
CELL_DATA 100
SCALARS cell_scalars double 1
LOOKUP_TABLE default
0.0003876290396487292 -0.0006636158948163384 0.002112845766735205 0.005881046679166779 -0.00040881925921176787 -0.00043837071595120847 -0.00029059926810237613 0.0010192170241509757 9.888553464154626e-05 -0.0038866572078717354 -0.0004698278603934014 -0.0005192145663812653 -7.597467534736779e-05 -0.0003618360472437132 -0.00127486705355917 0.015458455187635778 -0.00018687585823862207 -0.0012467570538916561 9.051000497528605e-06 -0.0007009527552837014 -0.0008845011787590451 0.009359455990925802 -0.0001413422849569912 -0.000386190351687965 1.760481905588307e-05 -2.442072826092101e-05 0.0005132881469744888 -0.0010996612856049026 0.051963264395536335 -0.0005161739903307705 0.0015813849657924095 -0.0015850937189512138 0.0023800286867965426 -8.751697716125051e-05 0.0001740940310135386 0.002113355826265817 -0.0011105917761025097 0.0010261523739210077 0.00017914154522280512 -0.0014268643405959125 -0.00020412282069770527 -0.0011425035273520123 0.0022501425243888207 -0.0019281445860821478 0.04903266870800671 0.00021780596412934727 -0.0005391568137111946 -0.00016460122865069593 -7.04965844207095e-05 0.0012944806898582684 -0.0007852413513109724 0.0001525760821561306 0.02809754229283712 2.3161667485283033e-05 -0.002649228337125109 0.0023445855062531606 0.0664539024875852 0.0006297026611328249 -0.00019199416702342376 -0.0021268061939982985 9.52398717757319e-05 -0.00012132345061388605 -0.0005678466789342806 0.004797179394542717 -0.00026736951731365366 0.023434134375514226 -0.00031617939162309483 -2.8132005672532046e-05 -0.0012458223248943412 -0.0005663615606295025 0.00012883753317982638 0.002525009487940544 6.376587305290116e-05 -0.00046621781963018805 -0.000846399170193024 -0.00025752100392306687 0.02414538335017813 -0.00016633176383518133 -0.0002876388712707012 0.0009850507954887178 0.05694924017479952 0.00016385923448858364 -0.0012104680532951662 -0.0005809340210340963 -0.0004517391001810367 -0.00039563489267013807 -0.002696971478734156 -0.0002872179310662304 -0.00026035716329975145 -0.00033325603258393954 -0.00016903410391400087 0.00018990356007542175 0.0006945697715297072 0.00013578438481953725 -0.0011022981530430798 9.890069530893442e-05 -0.000258438392619631 0.0005671487702914035 0.001173641914132162 -4.796689593344894e-05