# vtk DataFile Version 2.0
Really cool data
ASCII
DATASET POLYDATA
POINTS 1127 float
5.49730545161079 7.04772154601554 9.07016695973134
4.55013591479409 7.54057845375783 0.23930066988175
4.84498611003538 7.37357419279754 0.05729315980643
5.0427612021834 6.87592295319928 0.11659048068397
4.63383012504405 0.29678948800803 1.24291274710593
4.03080654498154 9.40173810551903 1.55998602686729
4.2014841756731 9.84299013321193 1.68151708340248
4.90883630373211 6.15082889750184 7.14616847160566
5.30510003486487 6.00023022815484 7.02490831472754
5.75139123750437 4.76480251233135 6.7507134365539
4.25720901813829 9.84117321576374 4.32553648030723
3.98584123494657 9.0469432196997 3.66350046764014
5.12855618951751 6.05918341804148 3.39175338422599
5.30646041384239 5.10664207804855 2.56419749061984
4.57805178401533 6.34934945778846 6.59974712013952
4.23154965903078 6.89878910684709 6.95280440086157
4.81320254129587 6.64189517543295 6.15424212937431
4.72128420148899 6.63535970329497 5.72773101584827
4.4230429333414 6.31488512922658 5.54503839786267
4.47615162731468 6.97083528635018 5.53202009229877
4.25157907341464 6.16614082907892 6.52992427159461
4.61439702436861 4.62435574127654 7.90326726127274
4.85304226279704 4.5728405993226 7.65463652327264
4.80726856514143 4.00431790538847 7.45522501686354
4.3158876822221 4.20870716261514 8.01327494347879
5.1642386908916 3.35643264230805 7.87733810136495
4.6724535522323 2.18681864726498 0.49737321375817
5.00164646412295 3.18847544679297 0.34110401794133
5.01995132630168 2.48079574529977 9.9849378906075
4.97248912373728 3.09228867245601 9.95645432167526
4.49560768942149 3.42786869226291 0.1346706318675
5.1904761908401 0.41524199441338 9.69842756286351
5.13804864218668 0.604457559069 9.8482448989338
5.38159320553766 0.52371672677861 9.40761572156792
5.12511035943343 1.85800389167352 6.80033420766903
5.28098124226351 1.72759320563606 7.18511829329845
4.30751460390356 4.94392044961381 7.75944401762854
4.07902127114823 5.68708815515848 6.95348734130427
4.39446801811178 5.59669533708977 7.52208510653484
5.71098286215303 2.19044630260871 3.5219553576345
5.36244306974105 1.37802599774769 3.85986347406163
4.00431949217676 7.1012549468194 8.14739687467249
4.47193644976423 7.21506593081231 7.80732685817429
4.33649246488194 6.83823453173274 7.45199139500101
4.2518519036096 7.40677633849428 6.7787348429353
5.19691381353089 3.26909339103263 6.64205113446671
5.19834101460496 7.825672976509 6.46990252859549
4.7153509903367 8.52764692725561 7.28384676009407
5.27404094878075 8.00889134153714 6.64931532007158
4.97310362324663 8.57859560765689 6.68305097958567
5.17353334572461 7.77373132328599 6.92566400062859
5.09944987973466 7.59893183796466 6.6792700849227
4.34889952870539 8.545582008009 7.31051895833416
4.82389277025524 6.30879977495397 3.73733422687271
4.72494106661563 8.84635763167512 6.22216273325955
4.7145405622794 9.42536345612822 7.40356171688821
4.95404873175678 0.24401228015444 6.35494359103604
4.71138950539164 0.6376161951194 7.3537102763684
4.82950890503155 9.70467400747991 7.70821212328862
5.36951007540634 0.29811846371295 7.12944389384503
4.32828895982603 0.63861839197893 6.83916001501739
5.15048295980214 0.58780242654945 6.98569498734973
5.09020782277975 9.80248419510047 7.66569089012043
5.1293146318759 0.1823270677804 7.62120034567743
4.71836659350115 0.44520410675251 7.60074243502881
5.27617164503181 7.14318679031733 1.42343307677717
5.072558331071 7.15532558186178 2.11106699976708
5.00711907299376 6.01847988946708 1.422262626255
4.29921359374537 6.54085485632434 1.94974940037549
4.37189828215662 6.19415295383212 1.82526090455669
4.23660984662967 8.89309229292653 8.27483248760696
4.85774413546375 8.93906623387454 2.30985033858211
5.08343782965067 8.67950815522456 2.67857377520494
4.31011064423457 9.26010507571032 9.36897185279195
4.59121396502781 3.17726496351555 6.67322496133842
4.40182978424415 2.96386458000371 5.56729108271278
4.27459943934958 2.68220829695992 5.89389128470006
4.26391173864561 3.10741973559374 6.27718524028998
4.80119644487513 2.73759578480134 5.383657984653
4.35153771395431 3.41221755951886 6.14216580241984
4.46115687879477 3.42967060580629 5.85440360564491
4.44521139858032 0.56322929158383 0.66093353998492
5.42970295877411 3.94261828274239 2.9380677426108
4.81904834644582 9.4585094196155 8.16944664453209
5.02387794483599 1.90436069521164 1.5851756674461
5.43598507270536 1.47311562201614 2.15386920014979
4.91851009622638 1.82350923562129 8.03202707268897
4.71675723922186 1.61968483367998 7.43271886172318
4.94542464211648 1.59568105056308 7.51577231910377
4.66324843238844 1.88066952328538 8.10397415829822
4.49461666547327 2.77763591137683 7.73956757149392
4.3369417583552 2.36132416716813 7.98253014229812
4.91018339142886 2.85530199396512 7.87018995155734
4.81292842050614 1.86223894334114 6.83701208609659
5.23918121051548 2.90485059598367 7.62315954467618
4.71064949956619 0.44642515442182 0.86729161735894
4.22105977230072 9.31460468348914 5.03462562407177
4.36153083689362 1.2344033739613 5.95711166054793
4.68264018426533 1.33974834208662 5.5743131301305
4.41226807780617 1.78607078496488 4.95005174036177
4.38424491375326 1.40949288748312 6.48407562991942
5.62008280390857 2.51320485165471 1.30425158056904
4.65154981169247 2.35358271796177 9.00805338640441
5.04046329873162 2.10396851689087 9.33272650871885
5.0294529517221 7.62998828709996 2.63402326097883
5.13451230691526 7.65917085527075 2.47851261810066
3.78850681577627 7.42302350539129 1.8917435987531
4.98681720297499 5.81080184997046 1.23028739764409
4.48030092924307 5.7444203575559 4.3151715448839
4.47204110169009 5.55388128052247 4.28174587376451
4.26254829968235 3.18337943531359 7.87945680999345
4.15801955355546 4.69040869609158 3.19215215548462
4.34821820242518 5.49113510239976 2.81599634812343
4.296657634842 5.22535840825043 3.16675752753905
4.51895253913143 9.84718104656562 2.37448783023964
4.94366177174229 8.6363580242621 2.85488567313245
4.16165410509482 9.60396184833551 2.54640732339355
5.17473214432851 4.91071294930723 1.09464716727612
4.71631214153079 4.93519547563141 1.29244769496251
4.26692566508865 4.19059657618869 1.05575229420565
4.43270023241645 9.05716263927965 5.61587102835842
5.41822177889805 8.60570803131871 4.55096716672807
5.02465812257052 8.92603759879866 5.70603653138217
4.96445036527488 9.30031294671121 5.4487307299393
4.82376888637943 8.82750225747823 5.7574207534838
4.484833350819 9.31481267564291 5.45801002810424
5.18670228988649 8.22009126678418 4.66846991799644
5.33479470022259 8.24670481229873 5.20634235428839
4.14378233964364 8.81785570073199 5.22925441724793
5.05971504459081 4.44856930608227 5.75514356208201
4.12663968134635 1.24804406804707 2.93673558953753
3.86860039910414 0.60944238077855 1.94087888798496
4.63157692328711 3.54818746604707 4.47699948104415
4.22630878528734 2.27980714795152 4.57606987985364
4.658678337607 3.55013987169779 4.63740928302474
5.09427124375294 2.76309419727089 1.60009643092811
4.28743939909779 2.14987267652808 1.18965271354197
5.51704380296229 7.4210804509676 4.66443718016037
4.9974947832966 3.16021758246307 8.77183419977306
4.21722317336601 3.40558381915529 8.91471733874142
4.79251845217573 8.1293025301824 2.96979738864732
4.30432938276152 6.89467342400904 3.43855582387317
4.18243950417279 9.89544340414064 2.16597403741913
4.19393071925385 3.08483689357525 5.25233274954954
5.33083192861606 6.08751980464195 5.13614395224759
5.0901737289926 6.09134329680566 5.43193946629117
4.89063140240416 6.62111576053078 5.69489714276051
4.60038185300471 4.60656939333818 6.69073025437929
4.76040491464581 4.53374056475444 6.79547779869933
4.54910660573879 3.77612758205789 1.489450486425
5.12930869260619 2.81494955210827 1.66484590375785
4.81338593960043 3.4851867146944 1.3310994654744
5.05723436327377 3.38919493074789 1.60639116618777
5.10694720317763 0.35671159415808 8.96136711983572
4.34285948845692 7.87722954646846 4.83785260108231
4.65195983012805 8.05661908426906 4.48813946009965
4.55508775846888 4.50018194460629 3.39121586934527
4.78076834178007 5.21521868307584 3.41913168609756
4.90920965468372 4.84450096779539 3.47032720530311
5.33377429993379 0.67277898291296 3.46289214600031
5.35000310610202 1.00198465704254 3.36387506806505
5.35908934324481 0.63291935514911 4.03451054150724
4.97988425323855 1.11921090848277 3.04814139538363
5.39228540185897 1.2731601949543 2.64653880174123
5.1671913312518 5.39124239498846 9.43956948969357
4.06539989765896 7.39942885217723 2.79574015859346
4.43186709272803 0.10079251133227 5.66397320008284
4.34057292061145 7.02434348835137 2.93881610344043
4.77449263370155 7.7463821075824 3.88418063032161
4.88460780114952 7.77621265105714 4.36325602135818
3.85634017154 5.59707397991063 3.68358626414979
4.94609238170251 1.32304448044992 5.64006472304696
5.21436912988072 4.66960896805963 4.14378797364793
5.24551885687066 0.83752577635555 5.22643389229718
4.36613810562069 4.49802379611983 8.9824598246587
4.58170262392343 4.0788539263111 9.56489788167561
4.32178075109834 4.20451958167947 9.39067914147033
4.66134904014547 5.92788539248733 0.38436018665076
4.21529365778688 1.65237472768856 2.43173448604713
5.44006159240001 5.29908467141082 6.8052488179955
4.46294692595365 6.02746048908173 8.82953895939841
5.11437158407071 9.28152972225625 2.26138099867639
4.9478247742573 9.75967851509907 2.25513129464061
5.23890203864418 7.96032329405239 0.82830448955152
4.25222914087979 1.45228725636579 9.0307635384722
4.38047643467642 7.71076261845853 2.59934115111049
4.95828982107271 3.78706878738003 0.93739515879397
4.57769838839559 7.61894202714666 9.69770980063133
4.40613334083935 7.71125360779807 9.84142069550044
4.54686091351909 8.61550750601478 4.03164850696584
3.90087187233056 6.0968857015489 3.77808921576143
5.50288737067862 5.25676926610959 8.45406883268549
4.92476913059414 0.54531747890038 6.50788524733797
4.85337096753621 2.16085233305681 3.13639876954093
4.46892245186523 0.62073970147451 6.53088277322929
4.515634026827 1.18238983556542 6.2327708314854
4.75206152629102 8.25043592813427 4.60810841752304
4.53352189101604 6.3415652128292 0.19119599390225
4.68343929049022 8.60753079741359 6.36324223887063
4.58888678648521 5.07527340822767 4.68323738542151
4.51341470811981 7.81040532341627 0.86481002627454
4.96064338249178 2.13727710636383 4.14245125726006
4.89309981020112 7.18377641757914 2.76838459758261
4.41793301339052 4.12391979847002 8.39327905916413
5.24168944029223 7.28944793311421 3.2254726055543
5.18691063127896 0.21874601426999 6.05313708406224
5.04792390920088 0.10389636116805 5.68376771616995
4.22110852999617 2.7906254620738 2.35086709360457
4.15456822344321 2.50388620679278 2.6220736186825
5.26287814518188 5.67113753200253 1.94055859815562
4.77474592900406 9.87682428445154 1.43194450408213
5.29746536092417 5.15835152952174 9.26157829215666
4.95129990283303 6.73982820094269 0.29443709815544
5.15634544889058 0.53745471285788 4.15504609222826
4.97365194782005 8.05383408587149 9.13222773846813
4.47323032949669 6.20767454522027 1.50797971881396
4.63924618614284 0.31964153271241 0.92041435939406
5.05363236502053 2.15803618738565 9.74609949103194
4.60839751668863 4.09930477143985 3.88753337198578
4.77361819965269 1.74521841573854 1.28901911087561
4.55168677832848 1.34869349190436 1.37729999463462
4.60844139493146 4.25881560148889 3.16679593503154
5.42280912520084 1.61231390870953 2.48117364136833
4.72329803442341 1.59854706447458 0.22493789971661
4.16184778453357 4.55394949560227 2.42447084338402
5.00372617940915 2.9057674030068 0.53808445261047
5.62057698180699 2.61220448483677 0.86142134734346
4.58249040241298 6.68669413064716 6.80886061388921
4.72225327003276 6.95730561053506 6.55096158741957
4.32797014315773 2.5453370011456 1.47009738683736
4.82817391994902 2.48250445395165 1.74594352410358
4.74871069855523 2.01673346155785 6.80525765493667
4.2486442671164 3.0941218827552 4.25644764035956
4.67177882983275 5.55070036587955 9.30156037675578
4.6853644284576 4.14612961419799 5.51264375446503
4.35733886299488 3.57988447406376 5.78111683657817
5.0970875463975 7.70986112009908 7.79613953644638
5.39551891535003 4.40027825912753 2.7865307975438
5.27633563931997 4.83319136476132 5.57160220742159
4.24626351587753 8.8134618157577 2.0870791121718
4.33237246534769 0.97385794674414 0.71297097439667
4.51215163271627 5.05556997685142 1.28022520026426
4.43384399812797 9.05869481071048 1.26423939386317
4.84125930645629 3.28997059844167 0.42811832444496
4.95243190643709 3.72157999246823 0.58393109189012
4.14929926535918 8.7683309650984 0.63944763713217
4.03608192474553 8.82801676072948 3.9288181567617
4.89127631825249 4.5433376134884 1.41971733567981
4.62363065049374 4.05950386833219 1.22475967912605
4.97210840224415 5.3959361263248 3.20695712519248
5.30244067316032 5.18811609752663 3.0558203850993
4.36274144350345 5.34911497938603 4.49066588165967
4.92739301247052 6.56481939921616 0.18757583782509
5.25884385372863 7.83723980706883 4.44530132350583
4.09622439212079 2.80787998752777 4.70766119733056
4.27551883850123 8.84784381656991 7.53658192871928
4.40478864494462 4.54335364622115 5.92211372932841
4.60646979832681 4.66742269413403 6.03645835974786
4.4581455910781 8.20742673432458 4.02901912290759
4.57591836439754 7.99729261620845 3.78723278897792
4.79561071381431 7.26485723104223 1.77225853021533
5.02254331753189 7.56060889385858 2.40395040563468
4.94357815004873 7.55439461807507 2.58015613759282
4.21848893783503 2.99853822632217 7.26611155129422
5.18558574990478 2.01786463267748 6.76199844400351
5.3991362733791 2.30790019018026 6.0668391975044
4.31022170925667 2.33268986219973 0.70074068815423
5.24321662391372 7.02207036130931 4.77358429141332
5.26100113039216 4.62103760385669 1.22770591848737
4.68508936788536 0.80258404626369 7.48407221932326
5.07875563838508 1.29547599331421 7.55230586388928
4.76911253438307 3.03994525925171 0.6770004436265
4.32743450488165 2.84107520055928 0.78979277082474
4.46344066440177 9.66549319794509 8.53324226158779
4.81100539037357 9.7545130940539 8.91283096714296
4.19055695940915 6.61884815027897 0.44270371287272
4.92100739047993 7.26237664273411 1.46219909445426
4.71143494648307 6.95798548854548 1.2337521281103
4.64176656083435 4.94578501400734 2.05672834535589
4.68198834379813 5.02001907141458 1.36260596892942
4.17981567566907 4.45703265256855 4.22384513652174
4.77635581736743 5.44753080750537 4.19900505240794
4.68961285184183 0.6212937487944 2.47913446997936
4.52031701511767 1.54805997020711 8.92552368981769
4.56688134890246 1.4123976054897 8.68806879561555
4.91576602174609 1.50459191545821 9.2199688539497
5.19473001665117 1.26859438076229 9.01134357953609
4.43280780921795 3.81171745486148 7.73258474449541
4.61006272064836 0.96941513941509 5.16694774574865
5.11137543148156 3.29782195891519 2.74982433903563
5.14646697846631 7.7867387561478 7.88964405707097
5.0274952913718 6.62107123714948 6.04539378745032
4.92134765191058 8.04605222375072 9.4601258648692
5.37058163061874 3.91232671338372 2.21835877949148
4.23326905517245 4.20160658379768 0.52635444948501
4.02654051389802 3.13659566660058 1.32162417969014
4.20768790296666 3.68609334951608 7.53689258733957
4.14349562115029 9.63947207337015 7.19576272992094
4.78621975229576 2.72706057194792 5.21030555717612
4.3507141512402 3.00965247156924 5.02759760215427
4.34120806324264 2.92539792352626 1.1910097434082
4.71956526397982 3.09686652847737 1.19122626287628
3.88890407794238 5.46001355867758 3.34950324403622
4.85897454072349 8.70105756704581 0.46929414664689
5.32495848916741 8.4278144050265 0.7529832626651
5.2650170148761 7.4155497526701 0.13076216440565
4.41326911614574 5.83008090406123 4.62333665160595
5.28029385268193 7.37916431254884 3.21549852935122
4.35978857346025 5.41768534765805 2.42764618215781
5.43223173399447 5.56246526629633 9.43182996612301
5.00253183914073 1.68484648896582 1.9171895158384
4.64720813318444 3.27947861215144 2.99430382734479
5.01983772377101 2.51086557301512 0.38857687167063
5.29359327112172 8.16241172590561 2.29327234265206
4.95052874001994 4.72302949723203 4.00187565543453
4.57352617387632 4.35614070984189 3.88117585653974
4.30242189130264 3.90991996555888 4.17503895305213
4.69012884867019 0.60400463117315 7.72443247021267
4.93371053341909 8.11048764193482 3.40948672995124
5.13995771236491 7.7948623799188 3.54214693961157
4.01331138665768 3.3085526084667 0.2371505601276
4.94824565974478 6.79984264100428 2.43730314797314
4.66956751509982 6.57572052161543 2.4260442976982
5.05380456800792 8.90602193127089 4.32304111249629
4.3426206841976 4.32916392484119 2.44282173141942
4.25989646919629 6.70572373517225 2.78424286636881
4.55739246736381 5.09025282675267 4.52588875179729
4.86392227785084 5.1253369417899 4.34324078895545
4.31915754460163 4.97604386831827 2.18364066471299
4.62169998360933 2.19755118987019 8.20328172303435
4.47273255718163 2.1812358662668 8.83976332261261
4.69026052418538 1.14560602025157 1.08739147856452
4.6569381534789 7.17141332030252 5.35015307060866
3.7872179256498 7.08736598272466 1.72558003362598
4.57506356169283 5.59274500366484 2.79001351926531
4.66817046555974 6.08347536319506 2.91099866534589
5.10590260692993 8.53192788591104 7.834158926943
5.27075739627555 5.83650696104033 1.83878558719607
5.29777304488452 5.68186556667514 1.83330390597273
5.06793329965375 9.46944567735444 8.29890626502909
5.05471023278434 9.68345717280548 8.81032262766404
4.85151728376652 7.84643685326051 8.942728000932
4.68839916263885 8.99920853430676 8.06367007704113
4.93291304163492 8.76705498646573 8.18569643377987
5.30005177489513 4.55171099135641 2.59274041458816
5.29504000866862 4.47991353436335 2.80636963908965
5.30622956556432 4.84623963221487 3.20075260298805
4.1323428892162 4.18603093818064 8.68847691828355
5.51323096432846 5.97705318571681 9.28812948083156
4.32334377654915 3.70601025694009 3.1634948624407
4.62339898251479 3.97423820482214 3.31357889223625
5.00458948010429 9.00302192493395 6.38902371164093
5.25497755202443 9.06124618290528 6.09372962314375
4.54323981425693 8.48510331491755 0.41744140212363
4.65931716868263 7.90325723721466 0.65008014209321
5.34737656444106 2.99223181332611 5.47566697661511
3.93369400361 3.02120681618169 0.57700799972827
4.50729441900754 2.81060863130932 3.95198298532197
5.22374066165166 9.29233527067771 4.93417749965199
4.06744065695117 9.33391974358218 8.59384198469727
3.99247811402893 9.23511586344429 8.85159008208327
4.97722847955844 2.43818900089754 8.19164859439414
5.04823002798983 2.63207051696725 8.73176025792666
5.26597344688047 0.89289192537866 9.74029114411411
5.1762591421635 4.31197345645533 9.32869801840514
4.74546620086829 5.83043127890223 7.55067617531542
5.03649577924083 0.50129773479385 5.09320479018828
5.13234610112186 8.78119085215692 6.66645590589235
5.16076446943351 8.99836678361769 7.0988083020352
4.77501294572901 7.15530965411285 4.67060845075433
4.52264729366169 7.21424963421751 4.94317077823422
5.2234356783164 0.42072347664761 5.26248137068637
4.89373025782654 5.30412487688342 2.25065057813215
4.59633040087259 5.53098592985248 2.43149585008155
4.2847674596905 1.16469714975791 8.66770538786594
4.85972060447049 2.31914308072118 9.8840812734614
5.2225126505837 7.27014818820616 6.65993117679305
4.24210009250665 0.77850586136652 2.26705357467426
5.31649012074502 6.2406302028077 6.179157004619
5.17842052169384 3.79034426561074 7.5189228456342
5.3648253599522 3.6460512187725 7.00171010667175
5.36583109222432 4.68173711418555 8.24939166329372
4.74868937838924 1.9078840022951 3.59159776158368
4.16763825256652 3.6996752275747 1.51629590079975
4.26202214159274 9.10688556368465 4.61546846182778
4.67634354355726 8.69459698218243 4.33716162637346
5.09303421915634 5.96837449241984 6.59631038052828
4.28908678457223 4.24329430310263 2.90807830183034
5.43354063845839 2.27857820020045 9.23829679585579
4.4789641247584 4.08187697335401 0.2559116423977
4.41169324821619 4.02296146639347 0.17796227482314
4.91457904416415 4.1672733275814 5.50462949473112
4.81345098481213 2.50151665374099 1.96652881715285
4.99272961619181 2.70679815787925 2.02089827447266
4.50568422515133 2.33473541532501 4.05367305969517
4.38924880650242 2.1800954796151 3.7350046152453
4.88931468232607 1.28257903538412 9.70121639226166
5.06145642533364 1.46375578540495 4.18912327882037
5.24974132076291 9.2268239560216 9.11662917494105
5.33547560911079 4.2761011819024 2.20558354729786
4.46416500189683 6.33938143440102 9.41159378972039
4.66229314648366 6.01069508888667 9.14592402210868
4.3158263273564 6.44588406059915 9.29839516645985
5.53497779260922 1.07285520358193 6.90364978081472
5.28148696511908 2.87152416139115 7.3359833613402
4.30286854241477 6.32121745878146 8.7244560236415
5.28461644702084 7.74791748204504 5.6823737148501
4.75365248842839 9.1702153299891 1.13200344412097
4.70306702841649 6.11721269690347 6.73154383624586
4.32286675656502 5.90721670090304 6.65530340423038
5.11267931234673 5.46846826780055 1.38928104999818
5.40680132789344 5.24252887941521 1.18757263268332
5.40440777052664 2.34101178678088 3.06341837097986
4.88795649087386 0.74352096478113 1.16582545264208
4.70336790993431 5.92731964239197 7.70267872364624
5.37949723073357 5.9215970177873 5.85480381986632
4.3615636673197 9.77289756074952 4.51977899444714
4.97305547085059 9.81560332233345 4.3877347923827
5.02893454623499 9.39202821332503 7.11596774371148
4.1944168144242 7.31383643516973 5.93143538552724
4.30750214703362 2.55836965819074 2.14979489771771
4.23428997344813 2.28109928790696 2.41940702557659
4.65897320293092 8.63756875695803 9.39760862588015
5.43646880086091 2.56633916928561 8.90419792678993
4.97288588807361 1.71816444208897 1.00636585965736
4.63091084213058 8.97455625339692 7.59561862576942
4.85635224756933 8.74586377092398 7.44471474059061
5.05445655461019 0.73931549125079 5.06407067055726
5.13065295507907 0.86553539241193 4.39341423343831
4.53855910128549 6.09392530021677 8.65051306016429
4.37568402904636 9.33082570619045 4.69359336002299
4.94344538787423 9.32732628645286 4.58468274009379
4.80247327663662 2.13644107145401 5.03165218047733
4.59167854366056 2.01217373887267 4.82354788344366
4.63469117640486 5.77850356526334 8.24881217032346
5.03457052225486 1.90384187111173 3.83986307062394
5.0558574512386 1.57762333879646 3.89569896854612
4.33304482338568 6.85334132234738 1.66788217563526
4.40947024680303 6.75560628331566 1.39260238834319
4.2976446866646 0.56782637128514 8.11491854451405
4.52254346812998 0.71204509765422 8.58692189659777
4.28776084193679 0.14255358901896 5.92219633273874
5.2804866525585 9.59698719335514 7.22414807086378
5.29956067962379 6.18943572624656 9.16015714508426
5.46954601303521 2.67365168204306 3.06535831888699
4.4272857725857 8.34970327506739 9.84434008557803
4.71955536160353 8.45387157268466 9.62721766571404
4.84148522405361 8.41504681704964 9.01093348067159
5.10522383935361 5.54706075444817 6.43202691946664
5.2741697144658 5.52934528205115 6.00925430517116
4.89710011717267 9.50749455283417 6.67644852535768
4.96448004675619 6.60673038766444 4.36487792736364
4.79751675530401 6.53176430446479 7.4518664844089
4.88619490520994 6.513107972011 7.26336198250168
4.80877498512282 4.50417141336322 2.22577897416424
4.91443040143445 4.34441022717347 2.03643507690427
5.44157485421886 1.39103142836988 7.23292886331684
5.27528033659508 7.86112204784619 1.17755684182067
4.93576777929239 9.53924007063692 1.1679494775752
5.25177053217627 5.05014225950323 7.3779632345142
5.34157671850041 5.00572538398787 6.9640102408586
4.08052485502435 2.56790599704843 1.67983636774458
5.4173956110465 1.14801086705407 2.20623066825887
5.28158021993076 3.01539027085597 4.90008166489837
4.92830732787298 3.54080239134578 4.59649876007981
4.43385451803623 5.85319877980871 7.82891713141464
5.35447631402104 9.43855821446289 1.55370209750129
5.13093939441406 9.84028275446794 1.71265085906354
5.41982107271982 2.70573696177438 4.2395897208383
4.88903946168773 8.26147382017927 5.44744752102194
5.24621888330707 8.97298179713592 8.38748589716697
4.55645323201085 3.56696079396206 8.3695215686033
4.95843216578962 3.39277250352229 8.43271373500445
5.50230677481278 0.34904252247812 8.15449188765286
5.16658871702005 3.56519043898966 5.89659142247762
5.26296766505637 3.81104021745332 5.76535715989284
5.30055645012637 8.85881080842456 8.80459414518612
4.36117385684853 0.48074189660273 6.47415466167099
4.51597292659095 0.1835295426371 6.3396808972295
4.54156103221471 3.45757463149392 8.0149722385358
4.92368006011853 3.27503159873658 8.03382388276928
5.37123828486141 2.27557845933614 5.89254171874255
5.04097775813781 5.7914712190444 4.81985193363697
5.51822588231782 7.70899348403421 0.58247973216867
4.53688769337881 5.9234716914425 4.704395112685
4.43056078211389 5.05263041192118 7.47124473262219
4.97797103218673 1.46735281545688 0.88661586969148
5.44120544352001 1.29937260649603 0.87879270384292
4.68153603090272 9.44071048839756 9.39689177611308
4.94225261349043 9.16571575735692 9.44383305419069
4.53907593309775 5.42093612507301 8.39155696359911
5.43666832850328 0.85027312896821 1.03904293633355
5.3091027636725 9.36820789829763 1.41011066481064
4.99333549536097 3.06670503088443 3.23472898247672
4.8935270989419 7.7215287929474 1.31849199514484
5.33367988064346 4.60470569094347 7.83128922858316
5.18964300358445 0.92453371201141 6.23290781144465
4.99797058448121 1.21637457532523 6.1281577702873
4.86751475393102 0.6710871747863 1.34336674430425
5.28969259305693 0.61057642632519 1.57867026469167
5.31097152670487 6.68375633699886 4.51822636358535
4.5976296304849 2.05059135700862 0.22298881221001
4.81220921032056 4.82901826178311 7.39004113599299
4.77246931316352 4.70643926225795 6.88908295284815
5.4623335438876 6.18659867333631 3.28972168652195
5.29908566612176 0.77753780809299 1.98519127400752
5.14263219448602 0.88600181579137 2.06335235047877
4.1148315295876 9.66913030365774 7.10064896508932
5.17348462451685 2.06253608750537 4.70486758350884
4.97928334545192 1.93933143092917 4.47870278542362
4.4544857278013 3.25118279263592 9.11283470319484
4.70113944482978 3.47416644202256 9.48669637051708
4.9547793983425 2.4064811325265 6.39139050562129
4.91106636597758 2.94757403569782 6.72065512025824
5.01620953222092 7.88946024714418 7.88662102782663
4.62795957344456 3.26060224863263 9.79313650186122
5.5982574443212 7.76429902173738 3.65921694110436
4.69858616000771 9.97434232674209 4.01776616431792
4.93125554103621 3.31221060175173 3.04095866689588
5.05204551444785 3.7188077079501 3.24295663036969
5.05089870664181 8.99721656264478 1.34675032274518
5.40680068151256 8.60962455894056 1.17165790402701
4.9517014208396 6.64205895323776 3.85611400063017
4.66179775798245 7.00983595226861 3.6802448916912
4.44174286288452 9.6572374821136 6.61308294112109
5.25534590686316 3.85647826483136 0.84432834637939
5.45829611830128 5.61982213049187 8.21878721062005
4.6272668697636 5.30057871110113 6.36703347804597
4.27178730946736 5.55783936383304 6.46989472306076
5.46149615668654 5.72446490413252 7.15761820202643
5.69834670450674 7.77214807923589 3.9304795867478
5.35522011927882 4.21916519864744 6.00318962543096
5.31175476021392 4.22342575932131 6.49495767618965
4.92955276055816 2.72123157007736 7.05413584032888
4.96461070086624 2.18781285667142 6.73955352569402
4.60836921874117 8.07335392988972 8.61340547585269
4.60494512959523 8.35212984644248 8.67187834051405
4.22510506821803 5.28715971682118 7.97295531293316
5.61763832182036 2.3938221621597 0.75779147255596
4.29870322669287 2.38982910295567 7.36367665245881
4.43909938120726 2.71948049156166 7.40869623428408
4.60431178601859 4.76161303212602 6.76984956011695
4.63682770259132 9.0941267135481 0.71452382118976
4.93637535260493 5.86879101362385 8.14801695360396
5.0815381417988 6.20327196904553 8.37110448229339
5.40167257950805 3.39296819389053 5.76168594075306
4.50785680251891 2.3642287859484 5.9367077380767
5.17221416013129 1.7369222907592 5.52709429982282
4.23689875840665 8.47668556385993 8.66649086490164
5.46159484799699 4.22124261918884 0.86958688959358
4.8165300909563 2.310260755936 5.6414084175047
4.80485560651237 1.98488687669744 5.41036404950834
4.18841418962616 8.957276270481 0.72161414701036
4.1826627178892 4.64784440363366 1.06993958390193
4.52238123158804 4.96455793076817 1.1918675872574
5.05381871533407 9.40968171118821 3.4478149444123
4.66617842576707 9.72554988836487 3.48362060092155
5.31504557689634 4.83568174958489 5.06853658756893
5.28865656594963 5.5159954520449 7.49464345416319
5.61435979542962 5.51203987157543 7.91924806684072
5.35684279146058 7.25843451244023 5.55448879598527
5.0570364595121 7.01650653232917 5.39819537202145
5.45899773914898 7.72549672850035 6.227943598994
4.18377652744705 7.98662946131772 7.45378980785632
4.32185291114399 0.69873562881876 5.26606807982698
4.45239706265115 0.39174125368989 5.26080516157273
5.01213570959952 9.85208543629016 4.25997097099621
5.26260057310583 9.39155966979762 3.78646520677679
5.69780044868959 4.39009561230908 6.51686128771464
4.55692372771816 1.78409223523822 5.42663323534303
4.00328347322418 8.60448799789107 6.85915050153927
4.25846906871766 7.69901011955458 5.87616153628688
5.29983930947431 1.48834272758284 6.36521040703058
4.14248581542113 8.62254239981291 6.47223203488595
5.32389324086974 6.94814425153542 5.06142454741215
4.3357320680311 9.20646999106975 3.361335783597
4.34535014214325 9.57104718737187 3.41405575001254
4.73470945939486 0.38207861857685 3.90515309982083
4.28309000886409 0.710913235575 4.05912131057666
4.76246535911556 8.02246679357112 6.11482022319065
4.3579357441558 7.82042877820985 6.16170938220072
4.04049762391366 0.18345519078576 1.54390944982621
3.83902294971225 0.43082192369107 1.84611684615636
5.34029908194617 6.80404414577003 7.40318081890942
5.49025630165297 7.12100503168402 7.18776254433279
5.49867000480921 3.33258944465558 9.54850586917208
4.1301341418501 7.92198839817976 3.66695624553235
5.44262277898223 4.0471833042246 9.21481654547788
5.30355973494235 3.50392921701693 9.30007503255355
5.52607691036245 7.06864705215707 6.13066009227041
5.5467999100414 7.22352552016669 6.30559632772811
5.24192843724659 8.99583467429174 3.88613347839115
4.86266425235322 7.94711081940792 5.68511142498105
4.55786895052673 7.75079456436512 5.55579126142765
5.33894803939125 3.32028158416079 8.92022204902038
4.25058406956027 2.94834530066093 9.53012098820509
4.27726521747285 3.04129594700855 9.18264056860247
4.43083840612006 5.3518869267522 4.84152413789647
3.94933873156633 6.69879486130258 7.66574080364599
3.92741278840951 6.29991860726832 7.85997383705603
5.28911515353608 5.99639579254769 0.78716888451024
4.31267448639187 2.56835866475387 9.51239206727091
4.35987531697138 2.52963880607871 9.14875362533189
5.0782778923688 6.02620250759237 0.40705777122987
4.19383708228446 1.93767517287407 6.38538706109341
4.51510951327335 8.25856887385812 5.10047563847034
4.36463092673558 8.06975062474061 5.12859791669942
4.337623424202 0.99266794034463 4.19769319823569
5.3721552612258 7.57168085300414 8.41660088094652
5.21624560947705 7.64636689402742 8.81239153677608
4.48186907941296 5.28750924125025 8.94230698947918
4.32992477078785 8.73368395525382 9.38720526886215
4.3648769784773 5.46100243385847 8.73552975596192
4.46650057983381 1.21078249576731 4.7523419317136
4.74725631092055 1.13497788839194 4.36696097873032
4.15842375718084 1.89186407735084 5.77685019305039
4.21137601111933 2.14927942321522 5.97450770856195
4.66966546095576 0.36917698347526 3.32793749907833
4.07627865280074 8.66732841138559 9.00943071501623
5.15438809779861 3.76094609414421 6.79656358006055
4.65770358609601 6.94292344785612 4.4869353980563
4.90302362762625 9.03560352238321 3.39228353480734
5.05629699326234 8.71794104607737 2.99319632379765
4.78956517326061 0.42334057537293 3.22118013162258
4.68866208769583 0.80792798293959 2.96751691015963
4.99830419200706 8.83107245764775 3.61452993491588
5.14950345462494 8.53541423868698 3.36752578313934
5.06522048293414 3.46906659879769 6.57698253036493
4.66437832193813 3.40955679106106 6.60758818105152
5.34993802983536 7.24334427563551 8.49237822262661
5.23106803466676 7.29618278654561 8.81483768526828
4.81682526722319 1.88882058510026 2.77962887370567
5.1241366986518 1.91764022388592 2.54070051822423
4.91689280116431 4.5096058206914 8.61114645994748
4.15467055199653 9.35265125456772 6.26779305246327
4.2469836551074 9.09575967139449 6.15247580496139
4.17104301787849 5.03590222403992 9.06640474359474
4.53645605373425 7.16598017233802 3.87222446313151
4.91027389408881 4.98536315837307 8.79601857013918
4.85970476757533 4.61240068993947 8.82815181136567
4.1278102441476 1.60031826826919 6.33689478182524
4.88698786195489 1.97736472584509 2.26299096013912
4.57087962113261 1.94834593239548 2.47873263700758
4.78112157905624 5.84621831169687 4.26262869262126
4.34921625373611 5.745913808431 0.87319423826682
4.98672817199254 4.72662518548431 8.41041516090135
4.97165707040089 5.0230130618288 8.5636094222148
4.22223270299763 5.88396758065261 1.21291796174795
4.42560324857518 5.7041345940157 1.08496415766987
4.8452394682752 5.98796376885411 4.49136530410808
5.047090675364 5.90622057274386 4.59320973381747
4.31140219005088 6.84825705306682 4.66964101873967
5.63993981031121 6.2670689643848 8.62085156349892
5.59562822491527 6.25345193544319 8.50995641847712
4.74691298151231 3.99173496718999 7.03757189598268
4.53143740192112 3.86951130563143 6.97562753234274
4.45156832671481 0.39269127819948 8.8490475883056
4.81032731499515 0.19547630280515 9.04492896256625
4.24147472174531 6.32622893028207 4.83487192800181
4.12007946633495 1.12697630586271 3.89709649374556
4.42964817415785 8.78648166244114 2.7514323977886
4.1852634862447 9.07482398992994 3.02302815162203
4.76195935643534 0.19674649859841 9.50686584195133
4.26380585861048 1.03185355491616 3.06859152608227
5.20228412772123 5.82902363406661 3.47236688679666
4.58517261222172 1.22725133468667 1.70512696749631
4.23480204269999 1.209202929137 1.9109727125474
4.65784138424852 0.9918169579315 1.74093439611109
4.25558647767504 0.91297917148992 1.97533781700479
4.37665884771789 1.12762420535731 7.3723904454152
4.1899209563454 1.04475731433025 6.97734563911587
4.92395687665631 5.64895872919739 4.20274574928823
4.09545677917292 6.07260650904686 5.93088086099851
4.13590145004365 9.45117190406862 2.54542733473016
4.4493174606724 8.96587258723222 2.4181316027596
4.90689979884228 3.63714492723824 2.02127638364734
4.66698273778551 3.85567728573573 1.94570429945863
5.42119445049735 4.0677602341812 8.71147498659974
5.35882959633387 3.58941537001762 8.57915722673376
4.16336022552498 8.04895493397154 1.82814092455534
4.7034862654732 7.62998607381018 1.91122864652792
4.28385639563245 7.72573054000216 2.02107848938957
5.34981821283427 1.28209504421598 4.17495878148665
5.3572413964544 0.99082067094929 4.27875686028512
4.53440104190469 3.24831408785986 2.50507671496715
4.80003521724028 3.26046874749332 2.37969494723779
5.29247320484867 1.10844372438886 8.15960195268836
4.20972297092024 4.97349910486255 7.00567285794799
5.12854055443539 0.74825573269461 8.21686473510357
4.93138163823235 0.78108307539196 8.58599806721223
4.24315671252506 2.16559485798644 7.75260377301056
4.42763603371135 1.82988440604062 7.80053618387331
4.61806642834959 0.68016166283864 9.90418209180205
5.21240717455525 1.3272880831294 8.39822783715277
5.00414591863379 1.18525924129166 8.67460702577943
4.24624064318356 1.41540665600929 3.59255104054351
4.27918873378552 1.20436707837695 3.10759555391434
5.20429964078989 2.270352370149 8.10316240822245
5.38806512415768 4.13420894651661 4.28105288690715
4.70438855807782 1.40798966242949 3.13676463225862
4.69708202114549 1.5991104995305 3.57070660530624
4.40823073314055 0.41609144676581 9.66447447363618
4.15582088206111 0.54898787571369 9.39763783224738
4.16360643633238 0.7553733220703 3.33430768445604
5.09482278134049 3.84741321670641 4.11600118251999
4.19711320585101 1.19768857559098 9.52094167027455
4.53028899157359 1.13041166262603 9.81039779317639
5.10996498961136 3.09061449596828 4.073407409636
4.90169655891444 3.5395338843045 4.43017814448484
4.36937304636466 7.30050742845483 6.55400259380606
4.39509272334228 7.40017084181541 6.58356641640728
4.41133814501911 1.33284894012447 0.15066159296189
5.29022149995679 3.21620916104036 3.81113736642909
5.31404362707074 3.62269683103083 3.78935839476226
5.23878314898144 5.8345109167434 1.93211668963309
5.21613288530094 6.62792323317172 9.44119170380234
4.86268140315513 6.68993913149792 9.52957907637921
4.74822414375306 6.00144235828158 2.15733304775064
4.8187208030443 6.34012346829979 2.47496508937678
4.96014291660265 5.31394180273109 5.76321927089526
4.60818561461899 5.19304016222729 5.99925166557103
5.06777743362765 5.16314800876338 4.80783759653667
4.98916333833061 5.05101673199821 4.71291784514945
5.01521421803153 5.09040620205381 4.42756684272069
4.28387639990726 5.39248203713889 5.77866922270157
4.21297956961353 3.58979827689578 2.40735999138259
4.27375924776732 3.83639566640839 2.17851432192709
5.60719477174678 1.99295314531484 1.30313088939324
5.59841262099077 1.94324479990723 1.16034366768922
4.76776473091708 5.73867529430982 4.97733379304542
4.76362863918025 5.8776574367467 5.30095727006096
4.60906889460848 2.93525626387128 3.23100016519691
4.46663154460348 2.58199863162546 3.16216554895557
4.2844506200588 2.56511032242616 3.41566291690947
4.34253363886909 2.82726183787831 3.53784881240248
3.95959881912113 6.34627494686167 3.48387261699609
4.24372707464422 6.4799595253631 3.3936320543232
4.22233726927361 6.39009030568296 3.1151491116729
5.35345845269422 6.47826821493029 1.23357431538118
5.22387157533415 6.76927982178278 1.16304862472628
5.3532750900198 6.70476384731577 0.89843705792629
4.45427416143098 6.882789881712 8.65973157529754
4.00288785089971 7.01382689760121 8.37913463178923
4.08721451605929 7.91466033496845 8.55381517668497
3.99610264426677 7.538242229592 8.82552541018533
5.12689807251767 6.82228961483734 7.73212163969169
4.98514853419518 7.12627795915706 7.91377541270927
5.23632107263841 6.73305664249571 8.13061120648938
5.09245791230498 6.99259236960075 8.22825637983301
4.53799435138242 7.00658431595235 9.25150041667972
4.39993949879677 7.33170885869552 9.30686512789103
4.44741150415858 7.37711395621066 9.11267868666835
4.57587075935515 7.12336124098363 9.03256550139824
5.05993150508163 8.22988461199632 1.73849379971559
4.40131181367192 6.97105878455179 0.55679746785459
4.37206535549537 7.04525278760941 0.87052440840836
4.00529788971291 7.7389332230647 8.15248284161078
4.29421825237245 7.32717530590448 0.45604481747645
4.26343349385471 7.41522667945451 0.7194609311659
4.77585231788781 7.92379771485824 1.63627961207554
4.42376125940067 8.15632673598575 1.58803417287553
4.33378521312303 4.47122882035416 4.99268936624381
5.22605637619502 5.35989329842379 4.69355344966047
4.41631139834872 3.9202522073061 4.98760221789252
4.63863820307247 4.17688627985827 5.1856572426881
4.81277747558875 8.69688577702398 1.74796180712838
4.55271645488303 8.67933133362157 1.69314953307099
4.90892600845603 4.20099424113127 5.1776950833921
5.18337103739643 4.6378310377136 4.91938187949434
4.79080980688468 7.93827740387799 7.42594544681167
4.95378900402216 7.80657224854592 7.78145777760686
4.45855404551691 7.77161810093124 7.46235219583615
4.49924012194684 7.63284033166655 7.75247011935179
5.22773116115216 3.85037359332614 4.83144538050899
4.20969187353127 8.11494690846605 1.03573353922894
4.01472718294587 7.98334232138149 3.15386760986292
4.32348269181919 8.07022648191887 2.86789221591834
4.1662802387549 8.35184273482772 2.75017100319227
5.42177425130266 7.20400649895928 3.2785616135223
5.50839543759457 6.82857592674522 3.63651374023708
5.15100369746116 6.4889883068658 2.49165016066706
5.47514265410337 6.31106279915639 2.27009451100312
5.51949786744995 6.41971327419819 2.85833908387559
4.7331207772297 5.5557827730165 5.01015667827715
4.707711808845 5.60033195844082 5.38917944816804
4.600816715880132 6.647223949563762 0.334542022122018
4.680785532648379 7.138022981858935 0.28674394897643835
4.545166770947695 6.62044723561261 9.372767112309791
4.521716819251242 9.481617122419834 1.3729399883185398
4.808276415009732 6.190690419054366 7.422950367495579
4.980336217466355 6.347748864476531 7.922733248355594
5.141911052420288 5.844390152147267 7.274802923567648
4.903448330867584 8.808606710281518 4.038502931828523
4.467640660145933 8.92726890959078 3.6653527307813167
4.660510005183162 9.851220372375792 4.30215748049024
5.124713761153377 6.263013750656104 2.902904678335543
4.909236549347091 5.792072709058557 3.154417916165266
4.941022284939803 5.353091685383453 2.7165224913984383
4.681301874984504 5.9097544246587494 2.5529612343640338
4.673999499439235 6.658811093600907 6.528452862705652
4.480436218788192 6.36337280064479 6.081260632636315
4.549446916820194 6.969956606539621 6.075065467379036
4.650367738627616 4.438642741707481 8.2662765769529
5.030735686405194 4.642052866242494 8.009799967464723
4.604680668749427 4.244387772692846 7.751797697876624
4.841329446546344 3.61590308306654 7.77214447161053
4.938289209864419 3.8750724201407656 8.51621550600881
4.6738965306510245 2.778255618754065 9.776853840513562
4.903936121092865 3.106039676873287 0.496076809655815
4.683797700655641 2.6361936575496037 0.5985947401074566
4.396736570901696 3.1547698625273264 0.473956788436595
4.694881950802123 7.648250974394929 6.975922164590281
4.978278047247624 8.208631503337548 6.456066258062803
4.762656944190652 7.733534245614008 6.401853727063367
4.499478179778146 8.153950780278311 7.387290633786473
4.985367742994674 8.165428520722724 6.993564501438316
4.477760453570709 8.581064289673177 6.828673578884957
4.556774206551578 9.548454346904819 7.01757877034812
4.57833795564684 9.243753752919842 6.386831128133985
4.903683912315726 8.763339362767294 6.464787113849826
4.9675834863416055 8.72633278832222 7.0353753376395805
4.878300533529562 9.10723569547837 7.331734225798985
4.565406489448646 8.728298555231083 7.4342562027015076
4.644977419531126 0.41486817995383196 6.441509434100759
4.716770601495836 0.606018838804534 6.843466659860556
5.0158127531954335 0.43021365198294204 7.33815838765388
4.988735697776837 9.584307413077754 7.423516108974505
4.686373439476827 6.864990359032574 2.0607174252774167
4.86309743730082 6.531215707210261 1.325536633604985
4.581524867559834 6.3304588316706525 2.1666705479515596
4.851668728942854 6.01546127076413 1.7806230957009082
5.03312138933224 7.033207185844924 1.3206082310170024
4.7317280847573695 6.363438630970386 6.909936404876386
4.56684883736793 6.693718009140556 7.185776975332473
4.525620929806987 5.881578844409805 7.093210722539404
4.357997194688721 6.358205121161518 7.660194729195468
4.475351102511416 8.80117896621817 0.592464230820562
4.584559452469298 9.047556806735331 9.398902115567605
4.583904618310331 2.7808628250403213 6.315509141714116
4.88575858988171 3.25451115602095 6.644100385495963
5.009908170011643 2.33288986478546 5.985777515489927
4.929970161480536 3.1802535694696066 5.656549502142746
4.560402512388814 2.611631640729874 5.684591301529447
4.741776422928281 3.4571403988347122 6.2155463083917635
4.73648156370524 9.312462334185463 7.788101837503895
4.454987735413456 9.270044637675213 8.327006691093048
5.040259785641474 1.2351738477409284 1.9644505163888717
5.195197885059968 1.8607882996522438 1.268807039012306
4.787377474835921 1.582074085301406 1.574762251258208
5.05135331836885 0.78740403658547 1.7423030059186602
4.706738757298163 1.0213293240569217 1.4033241722921448
4.876997326514497 2.12205426396468 8.126818791327626
4.967389185853163 1.9885307571842823 6.788831183679965
4.976240380708284 1.732640384978756 7.1541911535782035
4.734315288732903 1.74988580983807 7.77700571913749
4.541315388535419 1.9806609342602834 7.331967535349853
4.882353395717018 2.8083374540592985 7.505288750613434
4.66813405568502 2.5260004526555617 7.997443596555574
4.91608827019672 7.851327339095382 0.967848698976956
4.83554311397289 6.86469482179132 0.8361661308635434
4.612480498895798 7.3687959524511975 1.0782064305930334
5.012764021558367 7.650379402421122 0.41470339298453834
4.747839411111592 0.49549286294193795 1.107962184161052
5.100378353048717 0.96456088219976 7.252060331843705
4.819387839470406 0.89787106065539 6.3265208867569225
4.855954602412559 1.5028071434952117 6.474593488748053
4.49610207550891 1.41275963683836 7.0207085324540515
4.7605371470653335 1.2882100258356541 7.471451941890938
4.550838176249037 1.3526030692720399 9.368135322992032
4.712985980546393 2.3387879956320083 9.438684392036565
4.720165740893895 1.9382877973569521 9.065207152300651
4.81789675731943 7.560509291078432 1.620091575683578
4.281953823288617 7.3307174425529835 1.8316285790245266
4.563249451576292 7.945401095134743 1.2886698691198781
4.761957348358646 5.239421569751592 4.811134728656251
4.686755260802628 5.6482018972956 4.252259382593168
4.611363757219811 5.866431006722122 4.479379461180837
4.606490621555125 5.313223367191288 4.368109269716972
4.823356270190452 0.46253983233704804 9.724438973837373
4.695053005658904 0.660101049593676 5.17021928957878
4.59796657839058 9.40692312249026 2.387259531860294
4.6422710201774215 8.909613039360584 3.0626936441241788
4.752761874337392 8.801457332606912 2.60257475749354
5.033731480659082 0.465766812175758 7.863546374735068
4.607412978663564 5.004335046682941 8.166874689758282
4.603544776700732 4.804553092783448 7.635726734157821
4.820521884923403 5.312485500207402 7.467775639857138
5.010830433625987 4.752570910570933 1.2586295291014524
4.533864787473818 4.556839311340419 1.2090806958555584
4.585585203837173 4.007038796920138 0.7640173859830833
4.9355414982722365 8.247454940250915 5.00616876986003
4.702202261161142 9.313369594860713 5.025636663647346
4.56088008668012 8.644512658305453 5.430093871716485
4.7460821914920555 9.085165623582132 5.597213814253586
5.017426741328148 8.535370827938097 4.49754964822346
4.998319830668585 7.860976645949947 2.0769562374510753
4.8985496569726 7.402694445143192 2.0496261455362523
4.652719656408586 2.1406649678884397 4.41488897313523
4.4756031502068785 2.495502498220522 4.8961390500725965
4.67983543158737 3.2166132720768736 4.237803132169304
4.7800647869203825 3.5446659033487853 4.535271417158386
4.80109995778934 3.1686091154833402 4.874378573466663
4.900681617796367 2.615794522148164 4.0922208865503
4.453506271849338 1.7652917467050742 6.569725442774266
5.17624562137761 2.1505831248872 0.762090217066268
4.6033237496626125 2.02655280876406 0.936630317197468
4.648215921338644 2.1654586485151017 1.4559776805609237
5.137889167873423 2.821847120749709 1.0286800863256433
4.66223772681643 2.762640020874354 1.4396746696307061
4.6132900757106885 0.774527875556498 0.898882612589426
4.308984816232668 0.5851988982101615 1.6619224126419412
4.47152440999537 2.5311267528154824 1.802440198711216
4.636817816452876 3.355343498347726 8.720324309063415
4.631483480870738 2.827998060519212 8.992646123538888
4.626517889783544 3.1097847141772084 7.907602090869958
4.754288172006341 2.3605258583927102 8.594901456874434
4.531118265729992 8.394842286726446 2.838835735735796
4.777073841507637 8.382866865802894 3.7065738111429685
4.4617485611012535 8.035439998300966 3.3092054964816815
4.597089681296606 6.667065525966495 3.62117619947809
4.3649188407750765 6.137093102996734 3.8284547252430983
4.7544277730817 6.87350578267299 4.052079336174564
4.597554600151612 0.838119511074742 2.105162521649654
4.62606438610879 9.843733356322792 1.9369509348079215
4.784336488645572 6.53780893697537 8.460778787953187
4.5018374001286405 7.0553013309504555 8.189270288745972
4.743598455332606 6.906726468200847 7.671416357997032
4.506778170381818 2.904602060379492 5.288236995249141
4.633639846466776 1.9407329414454442 5.1284498178268265
4.966060114278498 2.626579288043653 3.1488450260061636
4.808736489569038 2.9911092368253303 3.640017620243862
4.548478263418031 2.2791881538037257 3.4081659224469902
4.727767262957926 2.0927667749421537 3.87251795288163
5.150404300171996 2.1008072591706464 3.430646666072582
4.948991081676813 4.449815486046279 6.295992879421518
4.7341833920967975 4.394549717643367 5.7461977800708866
4.993365188542662 4.127461846352488 6.781142737733052
4.807999266081303 3.7831981130154033 5.719123712298281
4.96275310064263 3.109858384659764 1.4787318458448822
4.436240773171036 3.3533082738218667 1.340117673112295
4.7987218890481556 3.6286662880948297 1.6787843602386279
4.801440331265182 7.498123518056184 7.810233940857718
4.761736314011612 7.305412781395224 6.605546371869733
4.516094266231138 2.2275004961462916 2.7664010789114735
4.795217016047525 3.1484126271647197 3.125247910478575
4.804855072969437 3.279658801634308 2.733971699096248
4.981802610812025 5.348566721463926 1.8055214077573318
4.7438479480822595 5.411798752010542 1.269472754901164
4.62300051140765 5.925011691865224 1.291682372426174
4.562154667519072 5.234925007343913 2.270032324088078
4.594563228596845 5.384078664743133 3.0797712412435656
4.934801676463399 4.585930336093758 3.2070922503515242
4.7740026053979765 4.394511628085948 2.6904308326872246
4.539948588666026 4.895133739963906 3.327916888753922
4.9901567985042465 4.8824868747317876 2.338019160572056
4.454833511857994 4.661822743226457 2.266688111807312
4.661943966717816 1.0510964339170898 8.640660234614185
4.8730385941412635 1.525824737763486 8.379380977906987
4.714047839226501 0.6826429816398161 8.245827142728057
4.76407123847439 1.7929314164824324 3.243019328479028
5.024943076590589 1.3473241773382416 3.479175023936882
5.073388217375195 1.5365225805937117 2.7721579771136184
5.04006657576741 6.149329924757892 8.755435093003582
4.905715699102098 5.274633338002614 9.148206743644874
5.124381114252488 5.780265338002397 9.29452841343281
4.653550591095542 5.235564804076719 8.685804340278839
4.557098460129727 8.956695549956873 5.9369825800157905
4.737414022248732 0.16558838309680166 6.002949803553218
4.966587021538859 8.932833119158246 6.03367467058204
5.067357962447811 4.129111931749066 3.042383272813622
5.0388740355583534 4.005132067086712 2.085471617359916
4.856019810970772 7.912256186411118 3.655761772215585
4.9391145751262195 7.397612142961813 3.5699613432769017
4.693901736088434 7.818934907146966 2.73024203084956
4.524625442639336 7.374541198928267 2.7364876296639618
4.688297862369754 7.080415443064474 3.2102948044283424
4.946835060236742 8.028119747462696 4.514655028096628
4.669024844090953 7.9567866386883255 4.11036560473299
5.225751024962091 7.781857341100074 3.970763573774892
4.345177857526996 5.416512786323719 3.683288274665845
4.747088081762215 4.6059632798689005 3.686148646655662
5.113416962448712 7.853732960006686 6.036030298122258
4.7910530527736315 8.418740353287541 5.9317008158012685
4.950902546736081 9.133440082975671 8.221041063509832
4.838423904427458 0.303690267526334 5.392846447740034
4.840368064210237 1.383780622641794 8.903902388939692
5.122050515546644 2.3869078242611903 9.043006975139129
4.398123033398466 7.7499614607842675 8.809630550064668
4.5283533804505485 7.842636719213253 8.123375403155622
4.940721779518646 7.1076541108955 8.645553872884737
4.617884282121168 2.912817857434912 7.024564741500768
4.545222932151893 3.8726749965174903 7.347580355404789
5.050363105219678 3.838678890221182 7.1619986890425436
4.700773602833934 1.259192121477698 5.906483623099618
4.8325452120659325 1.63373884504628 5.515693887570331
4.5968617822811115 2.17703513879891 6.372134032330674
5.01850265397952 5.115384928713796 1.26531090276991
4.775758125162173 4.715486469179737 1.7322855659993568
4.902169802691846 4.891233065987199 5.82513501314355
4.786876921037562 4.172820865692232 5.345156393819087
4.77379509781063 4.602205086547197 4.945263133731552
5.0100223587535515 5.217012942883 5.268421964811274
4.77775218108148 6.30807226532094 5.540112658564715
4.863153359140205 6.629860469102045 5.9055660188583525
4.9218901641668085 6.3230888770836495 6.384399043059549
5.029220673136645 5.722369465760454 5.624892263408818
4.687207670453737 5.733047119934781 6.542018790262982
4.622276474970692 6.857881360744495 2.670958202612638
4.617336753850063 6.264301677447314 3.3097734884881382
4.527738504434752 6.419026678793098 2.7422800060925163
5.135745005496633 7.442382584903146 4.583437453438405
4.725654604082068 7.357361606589306 4.255440992724386
4.792051207930112 4.43968192678276 7.203672553943221
4.788847627480189 1.804294865258806 0.567656331006726
4.627048040232464 1.303642557410328 0.612515563066234
4.981818353199956 5.1034169692219935 6.704541994888635
5.002509396542453 6.059161578744998 6.874732750776834
5.007191530946735 0.5029582047241651 3.6844532517095914
4.842340795321568 3.4034363134522354 0.8581284578510383
4.635991255057891 3.708851544584058 0.31611879308468394
4.736103254226418 3.776971738116127 1.2456761974548551
4.695261045808015 7.712348000822594 9.27538920324334
4.823002677663738 8.321274691262909 9.325622675120623
5.14305676228133 6.963765463941235 6.307797516839295
4.387668583482122 9.448309577188889 8.942894820736052
4.760408368839766 6.883046120561525 5.540599338707532
4.962661175725395 7.482029538481666 5.537685606645696
4.557805772915256 4.883839821944508 8.923068387847495
4.661117078076257 4.3411542901010405 9.21897733551509
4.583763808497092 8.818923549502001 2.051234478742576
4.99867535716876 5.917333410309706 5.1332452830564215
4.800135459000208 6.215118128031264 0.2925474474019925
4.853667905824434 8.322785379170629 8.238352040983248
4.98522374574344 8.673204851103666 8.61211765946372
4.907754139619411 1.0418098459115939 5.33436603235611
4.635417471825038 7.615924114025003 4.660605462305737
5.05174540002795 0.9759342530027499 2.5684857660002485
5.028377784046159 0.805048621350158 3.2127211302462397
4.929790786194193 7.087948958967797 5.032856085074022
5.129285060124386 1.147436956274818 4.280642826552154
4.709740547167774 1.59118202072182 4.593454766415557
5.020763576352636 3.3327152049567426 9.61697361915584
5.041056744968257 3.8832212692061043 9.379036769725852
5.272566232119604 4.6040381824936665 6.735183898810711
4.959125546052255 3.341955523659854 9.118332471011783
4.4522025865587285 1.5583236756729686 2.811865295411812
4.986842147578532 6.965285375694461 9.189973557209855
4.796432072751561 3.8732414307775582 4.90271799459771
4.707783134306662 3.788871860811342 4.217150226617378
4.9716182443272965 4.304951018299404 4.051904487839187
4.729085342740996 4.1158113153575355 1.6232133755187519
4.58318589828164 1.114269837428992 3.0657220035596984
4.60937082033697 1.3300740591914972 3.9585472234182584
4.938541684412501 3.852492146389866 3.669885694374794
4.53860231539341 4.385996208680273 8.700702814683908
4.90640236466062 8.239958080609787 7.6094574466454725
4.798396465222772 5.868555657507425 0.7945054393286083
4.888338438263281 0.91810036905929 9.800866464057602
5.050260654197176 0.337578623350726 9.323841041756946
4.764553590249983 0.487601469641778 8.805652726903514
4.8432275867318495 9.606283712354882 8.544949753191194
4.998601762272848 8.86079321916215 9.154719696173919
4.539953187781064 8.697634244800287 8.372513640768728
4.947849117662794 9.454244093727093 9.136101520010365
5.005352101510829 8.833342522865808 0.931202150232485
5.040667768639754 6.8920508464755725 6.9790097873076204
4.58261127248947 1.6165643564531031 2.1177912131793235
4.925078410294928 8.295511163651383 0.62362068861607
4.666788112672538 7.636296548840905 2.303150966051096
5.075189779178541 4.181444792846251 1.0872488880100284
4.864422638284813 7.457892346205566 8.94304028220859
4.61040410306695 8.0359645412895 9.694162822458608
4.611537922863117 2.8443487945396604 2.2288101241921217
4.60131361126154 4.1739637035044 2.16585088077473
4.9479892193231025 5.668440322752682 2.14243095275061
5.007163836914722 5.494639193731743 8.337475258841145
4.8029158176124 5.086457222164452 4.538570322808878
4.91499779096093 5.376793342511766 6.114157127830012
5.157071661602301 6.994785052865017 3.53538137032701
4.990276945839961 6.882158037588316 4.562846486234588
5.10100643608081 9.612622644463384 1.45527152060656
4.731612934558525 0.770604631359705 4.179564818838345
4.775993760795316 8.148160306502769 8.874234607287693
4.793284484485378 1.485007037088064 1.129338462684718
4.676135353575952 2.4070174965647917 7.074263981540493
4.7207778247339895 8.920468762797983 1.436820900185738
4.562622117676275 2.253339251615852 2.25549086751877
4.634113624193203 7.018833393596973 1.505738863351668
4.967139415221451 5.521794118711578 4.861746690231336
4.974997522844937 0.911752825566904 7.827455448243429
4.660820595780348 9.389670460075582 3.4198221227501464
4.625037066955995 4.750358525637008 4.19520523784975
4.801785824218396 0.9840052814474121 4.748747112037629
5.035160647316295 7.802339588912294 8.426898496567482
5.086812363853852 1.101225107190764 1.01153368821491
4.4580842897625 8.547073891824915 9.023924549307635
4.715450389546488 3.5981490767230992 3.1510585758574625
4.896884418837515 6.551168734446325 2.457490673928795
4.662259934015703 9.073131293956257 4.510789460162862
4.5928646177170664 6.439262546527676 4.592014448159083
4.842895580180722 8.803722286200886 7.824771760824805
5.12442032384801 5.712399898171708 7.8390084306982635
4.884049843257047 1.7471149279334477 3.724466601514995
4.677072239245082 5.8569532502719674 7.982106244747075
4.900966623292069 6.371474922840778 9.337689147418976
5.012355434508772 9.268719965392108 1.2642034773129975
4.66343713877272 9.561663218931571 4.546447471736655
4.79779094302352 5.986122962037372 8.354611666596274
4.886729947566487 2.037620582190305 4.759692608213362
4.56585481250736 4.864640014590162 7.105178247905654
5.04450644354019 4.8978312918830404 7.155274391053485
4.7450316225334275 3.4230848819287125 8.212757856228208
4.637862620915323 8.057539740510208 5.38348475252008
4.847592065214579 5.869560509278938 4.717231175458588
4.93866391676284 9.67064380647659 3.799127577484954
4.509327666000985 2.080768692397687 5.694411890340851
4.559880674973795 7.8479622150217185 5.87871876561739
4.515061003371011 0.6775344837548479 3.18390675027977
4.8324674572208615 3.700163151364876 6.798866743960484
4.849707362240622 1.9330428668066872 2.51551324726915
4.5175813226693915 0.349998680416508 9.292590939741348
4.565842935525602 3.5712998319385534 2.2396044431034317
4.470063292783822 7.896959199725575 1.7969523690847802
5.086374889468666 6.195225569869391 2.265231899686138
4.639979184993475 5.374948990134523 5.732579901833975
4.725007802568378 8.337245234697171 1.680783784973206
4.675598244592647 7.787327021255425 7.605556384901618
POLYGONS 968 3872
3 212 785 252
3 252 785 197
3 754 785 212
3 1 786 2
3 2 786 3
3 3 786 212
3 212 786 754
3 749 787 716
3 716 787 400
3 407 788 458
3 458 788 210
3 7 789 365
3 365 789 414
3 414 789 452
3 414 790 452
3 543 790 414
3 558 791 365
3 365 791 7
3 323 792 385
3 385 792 189
3 189 792 625
3 575 793 621
3 621 793 625
3 625 793 189
3 416 794 417
3 417 794 566
3 566 794 517
3 12 795 335
3 335 795 718
3 334 796 335
3 335 796 12
3 249 796 334
3 372 797 373
3 373 797 334
3 334 797 249
3 335 798 718
3 718 798 717
3 16 799 14
3 228 799 16
3 16 800 14
3 17 800 16
3 17 801 16
3 16 801 228
3 21 802 645
3 645 802 633
3 633 802 203
3 21 803 22
3 645 803 21
3 21 804 22
3 22 804 23
3 23 804 287
3 23 805 287
3 287 805 479
3 479 805 480
3 471 806 472
3 633 806 203
3 203 806 471
3 28 807 29
3 29 807 515
3 601 807 375
3 375 807 28
3 225 808 271
3 271 808 243
3 271 809 225
3 225 809 312
3 312 809 26
3 30 810 243
3 243 810 271
3 50 811 51
3 51 811 710
3 771 811 769
3 769 811 50
3 49 812 198
3 198 812 579
3 579 812 46
3 51 813 46
3 46 813 579
3 710 813 51
3 47 814 769
3 769 814 771
3 47 815 49
3 769 815 47
3 47 816 49
3 49 816 198
3 524 817 450
3 450 817 418
3 418 817 55
3 54 818 351
3 351 818 450
3 450 818 524
3 49 819 198
3 198 819 54
3 54 819 351
3 47 820 49
3 426 820 47
3 418 821 55
3 55 821 425
3 425 821 426
3 47 822 426
3 426 822 425
3 56 823 192
3 192 823 194
3 478 823 56
3 61 824 57
3 194 824 192
3 192 824 61
3 61 825 57
3 57 825 64
3 64 825 63
3 58 826 55
3 55 826 418
3 66 827 260
3 260 827 437
3 322 827 321
3 321 827 66
3 67 828 215
3 215 828 438
3 438 828 277
3 277 828 739
3 717 829 718
3 718 829 322
3 67 830 215
3 215 830 69
3 69 830 717
3 717 830 714
3 276 831 277
3 277 831 739
3 227 832 453
3 453 832 7
3 7 832 408
3 43 833 452
3 452 833 453
3 453 833 227
3 365 834 7
3 7 834 408
3 414 835 452
3 452 835 43
3 353 836 303
3 303 836 542
3 488 837 489
3 489 837 422
3 74 838 513
3 513 838 512
3 512 838 546
3 513 839 74
3 74 839 628
3 628 839 627
3 550 840 546
3 546 840 512
3 75 841 78
3 474 841 80
3 80 841 75
3 546 842 550
3 550 842 78
3 78 842 75
3 628 843 627
3 627 843 474
3 474 843 80
3 83 844 58
3 58 844 55
3 342 844 83
3 83 845 273
3 342 845 83
3 310 846 665
3 665 846 667
3 667 846 506
3 84 847 219
3 219 847 424
3 219 848 220
3 220 848 665
3 665 848 310
3 84 848 219
3 506 849 667
3 667 849 498
3 331 850 413
3 413 850 498
3 498 850 667
3 86 851 89
3 89 851 329
3 329 851 361
3 534 852 231
3 231 852 93
3 88 853 87
3 87 853 93
3 86 854 89
3 87 854 88
3 88 854 86
3 93 855 87
3 231 855 93
3 92 856 90
3 90 856 540
3 540 856 533
3 90 857 92
3 92 857 361
3 361 857 329
3 200 858 354
3 354 858 183
3 494 858 200
3 277 859 739
3 212 859 754
3 754 859 755
3 755 859 277
3 276 860 277
3 200 860 494
3 494 860 276
3 1 861 2
3 183 861 354
3 354 861 1
3 4 862 498
3 498 862 413
3 413 862 95
3 61 863 57
3 57 863 269
3 269 863 270
3 194 864 195
3 195 864 497
3 192 864 194
3 93 865 100
3 100 865 195
3 195 865 497
3 93 866 87
3 100 866 93
3 87 867 88
3 88 867 270
3 270 867 269
3 283 868 285
3 285 868 396
3 396 868 706
3 102 869 103
3 103 869 217
3 217 869 375
3 375 869 601
3 102 870 103
3 103 870 285
3 285 870 283
3 759 871 680
3 680 871 260
3 437 872 260
3 260 872 680
3 200 873 494
3 494 873 759
3 759 873 760
3 783 874 721
3 721 874 722
3 722 874 199
3 108 875 643
3 643 875 671
3 671 875 281
3 281 875 109
3 484 876 649
3 649 876 643
3 643 876 108
3 326 877 327
3 327 877 281
3 281 877 109
3 32 878 692
3 692 878 701
3 701 878 662
3 662 878 31
3 288 879 427
3 427 879 366
3 366 879 565
3 114 880 182
3 182 880 181
3 181 880 71
3 71 880 674
3 621 881 622
3 622 881 115
3 115 881 660
3 575 881 621
3 72 882 115
3 115 882 660
3 674 882 71
3 71 882 72
3 63 883 64
3 64 883 317
3 317 883 688
3 490 884 646
3 646 884 645
3 645 884 21
3 21 885 22
3 22 885 502
3 502 885 485
3 38 886 365
3 365 886 558
3 502 886 485
3 485 886 38
3 117 887 118
3 118 887 247
3 247 888 248
3 118 888 247
3 186 889 244
3 244 889 389
3 248 889 186
3 126 890 196
3 196 890 605
3 605 890 469
3 123 891 125
3 430 891 431
3 431 891 358
3 358 891 123
3 120 892 124
3 124 892 469
3 469 892 605
3 120 893 124
3 124 893 122
3 122 893 123
3 123 893 125
3 126 894 196
3 196 894 385
3 385 894 323
3 261 895 680
3 680 895 759
3 260 896 680
3 680 896 261
3 394 897 201
3 201 897 509
3 509 897 433
3 299 898 298
3 298 898 432
3 432 898 433
3 357 899 707
3 707 899 708
3 708 899 132
3 132 900 134
3 134 900 464
3 708 900 132
3 298 901 299
3 299 901 134
3 134 901 464
3 357 902 394
3 394 902 201
3 707 902 357
3 93 903 100
3 231 903 93
3 26 904 312
3 424 904 26
3 219 905 424
3 424 905 26
3 84 906 219
3 229 906 230
3 230 906 84
3 135 907 301
3 301 907 271
3 271 907 225
3 229 908 230
3 230 908 135
3 135 908 301
3 331 909 413
3 413 909 95
3 4 910 498
3 498 910 667
3 229 911 230
3 230 911 392
3 392 911 420
3 471 912 472
3 472 912 138
3 138 912 510
3 138 913 362
3 362 913 102
3 510 913 138
3 92 914 90
3 479 914 480
3 480 914 92
3 102 915 362
3 362 915 361
3 361 915 329
3 115 916 140
3 140 916 776
3 660 916 115
3 258 917 259
3 259 917 318
3 625 917 189
3 189 917 258
3 259 918 318
3 318 918 140
3 140 918 776
3 522 919 523
3 736 919 53
3 53 919 522
3 736 920 53
3 53 920 643
3 643 920 108
3 522 921 523
3 620 921 451
3 451 921 522
3 667 922 506
3 506 922 282
3 114 923 182
3 182 923 467
3 467 923 210
3 405 924 429
3 429 924 544
3 748 924 741
3 741 924 405
3 741 925 748
3 748 925 746
3 746 925 42
3 42 926 746
3 746 926 745
3 745 926 452
3 452 926 43
3 75 927 78
3 78 927 298
3 298 927 299
3 432 928 433
3 569 928 551
3 551 928 432
3 493 929 731
3 731 929 732
3 732 929 193
3 357 930 707
3 493 930 731
3 731 930 734
3 734 930 357
3 193 931 382
3 732 931 193
3 382 932 435
3 435 932 201
3 201 932 394
3 193 933 382
3 382 933 435
3 148 934 147
3 147 934 257
3 257 934 129
3 532 934 148
3 257 935 129
3 129 935 391
3 391 935 234
3 148 936 532
3 619 936 654
3 654 936 148
3 234 937 235
3 235 937 80
3 80 937 474
3 391 937 234
3 151 938 301
3 301 938 135
3 151 939 149
3 301 939 151
3 151 940 149
3 149 940 676
3 676 940 675
3 42 941 746
3 770 941 772
3 772 941 42
3 51 942 376
3 376 942 228
3 710 942 51
3 642 943 631
3 631 943 193
3 193 943 732
3 311 944 518
3 493 944 731
3 731 944 311
3 311 945 518
3 685 945 684
3 684 945 311
3 278 946 279
3 279 946 410
3 372 946 278
3 279 947 410
3 410 947 107
3 107 947 648
3 67 948 107
3 107 948 648
3 215 948 67
3 278 949 372
3 372 949 373
3 157 950 113
3 334 950 249
3 249 950 157
3 156 951 158
3 345 951 221
3 221 951 156
3 221 952 345
3 345 952 344
3 344 952 454
3 454 952 324
3 157 953 113
3 156 953 158
3 158 953 157
3 454 954 278
3 278 954 372
3 324 955 454
3 454 955 278
3 440 956 689
3 689 956 694
3 694 956 284
3 86 957 89
3 89 957 284
3 284 957 694
3 440 958 689
3 689 958 688
3 688 958 317
3 193 959 382
3 699 959 631
3 631 959 193
3 162 960 699
3 699 960 700
3 700 960 436
3 162 961 699
3 699 961 631
3 180 962 401
3 401 962 443
3 544 962 429
3 429 962 180
3 638 963 610
3 610 963 233
3 233 963 164
3 164 964 233
3 233 964 401
3 401 964 443
3 490 965 646
3 646 965 638
3 638 965 610
3 54 966 124
3 124 966 120
3 205 967 206
3 206 967 166
3 478 967 56
3 56 967 205
3 351 968 54
3 54 968 124
3 345 969 221
3 221 969 350
3 350 969 519
3 455 970 676
3 676 970 675
3 168 971 259
3 259 971 318
3 319 971 168
3 319 972 168
3 168 972 637
3 637 972 523
3 523 972 204
3 104 973 140
3 140 973 776
3 185 973 262
3 262 973 104
3 167 974 202
3 202 974 262
3 262 974 185
3 167 975 202
3 202 975 204
3 204 975 523
3 169 976 155
3 155 976 196
3 196 976 126
3 169 977 155
3 168 977 169
3 169 978 168
3 168 978 319
3 113 979 157
3 157 979 281
3 281 979 109
3 156 980 158
3 158 980 314
3 314 980 315
3 592 981 579
3 579 981 46
3 54 982 124
3 592 982 579
3 579 982 198
3 198 982 54
3 343 983 342
3 342 983 83
3 166 984 206
3 366 984 565
3 565 984 166
3 283 985 284
3 284 985 694
3 285 985 283
3 102 986 103
3 362 986 102
3 341 987 535
3 751 987 341
3 514 988 535
3 772 988 770
3 770 988 514
3 630 989 752
3 752 989 741
3 741 989 748
3 540 990 533
3 533 990 513
3 513 990 74
3 23 991 287
3 654 991 23
3 619 992 654
3 654 992 23
3 171 993 98
3 195 993 497
3 497 993 171
3 171 994 98
3 98 994 569
3 569 994 551
3 231 995 534
3 534 995 512
3 512 995 546
3 117 996 118
3 118 996 279
3 279 996 410
3 118 997 247
3 454 997 278
3 278 997 279
3 279 997 118
3 719 998 720
3 720 998 257
3 257 998 129
3 234 999 391
3 767 999 764
3 764 999 234
3 199 1000 722
3 722 1000 768
3 768 1000 767
3 767 1000 764
3 721 1001 783
3 783 1001 784
3 784 1001 719
3 146 1002 17
3 17 1002 18
3 18 1002 730
3 730 1002 145
3 16 1003 17
3 17 1003 146
3 16 1004 14
3 14 1004 408
3 408 1004 386
3 719 1005 784
3 784 1005 730
3 730 1005 145
3 527 1006 448
3 448 1006 386
3 386 1006 408
3 167 1007 202
3 202 1007 321
3 321 1007 322
3 12 1008 53
3 53 1008 736
3 335 1008 12
3 335 1009 718
3 718 1009 322
3 267 1010 369
3 369 1010 169
3 169 1011 168
3 369 1011 169
3 502 1012 503
3 503 1012 148
3 148 1012 654
3 654 1012 23
3 26 1013 424
3 486 1013 223
3 223 1013 501
3 501 1013 26
3 331 1014 486
3 486 1014 223
3 448 1015 527
3 527 1015 541
3 541 1015 503
3 503 1015 460
3 386 1016 408
3 408 1016 7
3 213 1017 577
3 577 1017 617
3 617 1017 623
3 243 1018 271
3 271 1018 301
3 301 1018 151
3 243 1019 244
3 244 1019 389
3 30 1019 243
3 151 1020 149
3 248 1020 186
3 186 1020 151
3 214 1021 292
3 292 1021 187
3 751 1021 341
3 341 1021 214
3 292 1022 446
3 446 1022 422
3 422 1022 447
3 16 1023 228
3 228 1023 376
3 273 1024 274
3 274 1024 488
3 17 1025 146
3 146 1025 561
3 561 1025 332
3 561 1026 332
3 332 1026 593
3 593 1026 592
3 610 1027 638
3 638 1027 639
3 639 1027 174
3 175 1028 364
3 364 1028 639
3 639 1028 174
3 674 1029 71
3 71 1029 765
3 765 1029 766
3 482 1030 729
3 729 1030 730
3 730 1030 145
3 177 1031 197
3 197 1031 252
3 603 1031 177
3 343 1032 536
3 536 1032 535
3 535 1032 514
3 447 1033 536
3 536 1033 343
3 427 1034 288
3 288 1034 98
3 98 1034 171
3 155 1035 169
3 169 1035 369
3 162 1036 624
3 624 1036 282
3 282 1036 506
3 162 1037 624
3 624 1037 623
3 369 1038 370
3 370 1038 332
3 332 1038 561
3 267 1038 369
3 428 1039 614
3 614 1039 397
3 433 1040 509
3 509 1040 397
3 397 1040 614
3 511 1041 515
3 515 1041 29
3 588 1041 511
3 175 1042 364
3 588 1042 511
3 511 1042 175
3 460 1043 503
3 503 1043 148
3 148 1043 532
3 510 1044 511
3 511 1044 588
3 138 1044 510
3 642 1045 631
3 631 1045 699
3 630 1046 752
3 752 1046 749
3 749 1046 716
3 134 1047 464
3 767 1047 764
3 764 1047 763
3 763 1047 134
3 132 1048 708
3 708 1048 704
3 704 1048 218
3 314 1049 315
3 315 1049 218
3 218 1049 704
3 247 1050 248
3 676 1050 455
3 455 1050 247
3 162 1051 624
3 699 1051 162
3 397 1052 436
3 436 1052 700
3 614 1052 397
3 218 1053 350
3 350 1053 519
3 704 1053 218
3 203 1054 633
3 633 1054 639
3 639 1054 174
3 426 1055 47
3 47 1055 769
3 603 1056 177
3 177 1056 644
3 644 1056 648
3 648 1056 107
3 396 1057 706
3 706 1057 692
3 692 1057 32
3 31 1058 662
3 662 1058 657
3 656 1059 657
3 657 1059 153
3 153 1059 689
3 689 1059 440
3 273 1060 274
3 83 1060 273
3 422 1061 447
3 489 1061 422
3 342 1062 343
3 343 1062 536
3 489 1063 488
3 488 1063 274
3 520 1064 407
3 407 1064 542
3 542 1064 303
3 227 1065 228
3 228 1065 376
3 453 1065 227
3 641 1066 642
3 665 1066 310
3 310 1066 641
3 183 1067 354
3 354 1067 353
3 353 1067 303
3 261 1068 262
3 262 1068 185
3 680 1068 261
3 247 1069 248
3 248 1069 186
3 630 1070 752
3 752 1070 751
3 751 1070 341
3 446 1071 292
3 292 1071 187
3 392 1072 393
3 393 1072 685
3 685 1072 684
3 420 1072 392
3 454 1073 455
3 455 1073 676
3 324 1073 454
3 372 1074 373
3 373 1074 717
3 717 1074 714
3 434 1075 490
3 490 1075 646
3 543 1075 434
3 326 1076 327
3 722 1076 199
3 199 1076 326
3 719 1077 720
3 720 1077 527
3 527 1077 448
3 522 1078 523
3 523 1078 204
3 267 1079 369
3 369 1079 620
3 620 1079 451
3 210 1080 458
3 467 1080 210
3 213 1081 428
3 428 1081 614
3 577 1081 213
3 341 1082 535
3 535 1082 536
3 536 1082 447
3 219 1083 220
3 220 1083 331
3 331 1083 486
3 424 1083 219
3 533 1084 534
3 534 1084 231
3 540 1084 533
3 407 1085 520
3 520 1085 765
3 765 1085 766
3 642 1086 641
3 641 1086 392
3 392 1086 420
3 276 1087 277
3 437 1087 260
3 260 1087 276
3 482 1088 729
3 729 1088 783
3 783 1088 721
3 269 1089 270
3 688 1089 317
3 317 1089 269
3 555 1090 556
3 575 1090 621
3 621 1090 555
3 314 1091 315
3 326 1091 327
3 327 1091 314
3 428 1092 614
3 614 1092 613
3 613 1092 288
3 288 1092 427
3 514 1093 535
3 535 1093 341
3 331 1094 413
3 486 1094 331
3 422 1095 447
3 447 1095 536
3 350 1096 519
3 519 1096 518
3 518 1096 311
3 321 1097 322
3 322 1097 718
3 385 1098 323
3 323 1098 431
3 431 1098 430
3 451 1099 620
3 484 1099 649
3 649 1099 451
3 342 1100 343
3 426 1100 425
3 425 1100 342
3 365 1101 414
3 414 1101 543
3 558 1101 365
3 436 1102 700
3 700 1102 382
3 382 1102 435
3 434 1103 543
3 543 1103 414
3 400 1104 401
3 401 1104 443
3 716 1104 400
3 407 1105 458
3 520 1105 407
3 416 1106 417
3 417 1106 431
3 431 1106 430
3 429 1107 434
3 434 1107 543
3 544 1107 429
3 432 1108 433
3 433 1108 509
3 502 1109 503
3 485 1109 502
3 460 1110 503
3 503 1110 502
3 471 1111 472
3 472 1111 480
3 480 1111 479
3 592 1112 593
3 605 1112 469
3 469 1112 592
3 482 1113 729
3 729 1113 484
3 484 1113 649
3 555 1114 556
3 556 1114 517
3 517 1114 566
3 550 1115 551
3 551 1115 569
3 546 1115 550
3 593 1116 592
3 592 1116 579
3 623 1117 624
3 617 1117 623
3 627 1118 628
3 628 1118 655
3 655 1118 654
3 654 1118 619
3 641 1119 642
3 642 1119 631
3 656 1120 657
3 657 1120 662
3 675 1121 676
3 684 1121 685
3 685 1121 675
3 760 1122 759
3 759 1122 680
3 717 1123 718
3 714 1123 717
3 719 1124 720
3 784 1124 719
3 759 1125 760
3 766 1125 765
3 765 1125 753
3 753 1125 759
3 769 1126 770
3 770 1126 772
3 771 1126 769
CELL_DATA 968
SCALARS cell_scalars int 1
LOOKUP_TABLE default
0 0 0 0 0 0 0 0 0 0 0 0 0 0 0 0 0 0 0 0 0 0 0 0 0 0 0 0 0 0 0 0 0 0 0 0 0 0 0 0 0 0 0 0 0 0 0 0 0 0 0 0 0 0 0 0 0 0 0 0 0 0 0 0 0 0 0 0 0 0 0 0 0 0 0 0 0 0 0 0 0 0 0 0 0 0 0 0 0 0 0 0 0 0 0 0 0 0 0 0 0 0 0 0 0 0 0 0 0 0 0 0 0 0 0 0 0 0 0 0 0 0 0 0 0 0 0 0 0 0 0 0 0 0 0 0 0 0 0 0 0 0 0 0 0 0 0 0 0 0 0 0 0 0 0 0 0 0 0 0 0 0 0 0 0 0 0 0 0 0 0 0 0 0 0 0 0 0 0 0 0 0 0 0 0 0 0 0 0 0 0 0 0 0 0 0 0 0 0 0 0 0 0 0 0 0 0 0 0 0 0 0 0 0 0 0 0 0 0 0 0 0 0 0 0 0 0 0 0 0 0 0 0 0 0 0 0 0 0 0 0 0 0 0 0 0 0 0 0 0 0 0 0 0 0 0 0 0 0 0 0 0 0 0 0 0 0 0 0 0 0 0 0 0 0 0 0 0 0 0 0 0 0 0 0 0 0 0 0 0 0 0 0 0 0 0 0 0 0 0 0 0 0 0 0 0 0 0 0 0 0 0 0 0 0 0 0 0 0 0 0 0 0 0 0 0 0 0 0 0 0 0 0 0 0 0 0 0 0 0 0 0 0 0 0 0 0 0 0 0 0 0 0 0 0 0 0 0 0 0 0 0 0 0 0 0 0 0 0 0 0 0 0 0 0 0 0 0 0 0 0 0 0 0 0 0 0 0 0 0 0 0 0 0 0 0 0 0 0 0 0 0 0 0 0 0 0 0 0 0 0 0 0 0 0 0 0 0 0 0 0 0 0 0 0 0 0 0 0 0 0 0 0 0 0 0 0 0 0 0 0 0 0 0 0 0 0 0 0 0 0 0 0 0 0 0 0 0 0 0 0 0 0 0 0 0 0 0 0 0 0 0 0 0 0 0 0 0 0 0 0 0 0 0 0 0 0 0 0 0 0 0 0 0 0 0 0 0 0 0 0 0 0 0 0 0 0 0 0 0 0 0 0 0 0 0 0 0 0 0 0 0 0 0 0 0 0 0 0 0 0 0 0 0 0 0 0 0 0 0 0 0 0 0 0 0 0 0 0 0 0 0 0 0 0 0 0 0 0 0 0 0 0 0 0 0 0 0 0 0 0 0 0 0 0 0 0 0 0 0 0 0 0 0 0 0 0 0 0 0 0 0 0 0 0 0 0 0 0 0 0 0 0 0 0 0 0 0 0 0 0 0 0 0 0 0 0 0 0 0 0 0 0 0 0 0 0 0 0 0 0 0 0 0 0 0 0 0 0 0 0 0 0 0 0 0 0 0 0 0 0 0 0 0 0 0 0 0 0 0 0 0 0 0 0 0 0 0 0 0 0 0 0 0 0 0 0 0 0 0 0 0 0 0 0 0 0 0 0 0 0 0 0 0 0 0 0 0 0 0 0 0 0 0 0 0 0 0 0 0 0 0 0 0 0 0 0 0 0 0 0 0 0 0 0 0 0 0 0 0 0 0 0 0 0 0 0 0 0 0 0 0 0 0 0 0 0 0 0 0 0 0 0 0 0 0 0 0 0 0 0 0 0 0 0 0 0 0 0 0 0 0 0 0 0 0 0 0 0 0 0 0 0 0 0 0 0 0 0 0 0 0 0 0 0 0 0 0 0 0 0 0 0 0 0 0 0 0 0 0 0 0 0 0 0 0 0 0 0 0 0 0 0 0 0 0 0 0 0 0 0 0 0 0 0 0 0 0 0 0 0 0 0 0 0 0 0 0 0 0 0 0 0 0 0 0 0 0 0 0 0 0 0 0 0 0 0 0 0 0 0 0 0 0 0 0 0 0 0 0 0 0 0 0 0 0 0 0 0 0 0 0 0 0 0 0 0 0 0 0 0 0 0 0 0 0 0 0 0 0 0 0 0 0 0 0 0 0 0 0 0 0 0 0 0 0 0 0 0 0 0 0 0 0 0 0 0 0 0 0 0 0 0 0 0 0 0 0 0 0 0 0 0 0 0 0 0 0 0 0 0 0 0 0 0 0 0 0