# vtk DataFile Version 2.0
polydata
ASCII
DATASET POLYDATA
POINTS 24 double
 4.47128e+00  5.55380e+00  4.28255e+00
 4.47983e+00  5.74494e+00  4.31624e+00
 4.36262e+00  5.34860e+00  4.49247e+00
 4.41352e+00  5.83002e+00  4.62518e+00
 4.32161e+00  5.44750e+00  4.71240e+00
 4.58956e+00  5.07546e+00  4.68494e+00
 4.43194e+00  5.35188e+00  4.84289e+00
 5.06751e+00  5.16374e+00  4.80898e+00
 4.98925e+00  5.05154e+00  4.71439e+00
 4.73379e+00  5.55529e+00  5.01028e+00
 5.04083e+00  5.79051e+00  4.82109e+00
 5.04748e+00  5.90582e+00  4.59501e+00
 5.14321e+00  5.62973e+00  4.37020e+00
 5.22562e+00  5.35992e+00  4.69509e+00
 5.22026e+00  5.36052e+00  4.49044e+00
 4.77694e+00  5.44690e+00  4.19910e+00
 4.86455e+00  5.12454e+00  4.34486e+00
 4.92508e+00  5.64924e+00  4.20332e+00
 5.01571e+00  5.09011e+00  4.42934e+00
 4.55782e+00  5.08986e+00  4.52774e+00
 4.78164e+00  5.84703e+00  4.26356e+00
 4.53738e+00  5.92316e+00  4.70615e+00
 4.84578e+00  5.98814e+00  4.49309e+00
 4.76827e+00  5.73769e+00  4.97791e+00
POLYGONS 14 86
5      2      4      3      1      0      
5      8      7      9      6      5      
5      13     14     12     11     10     
6      17     12     14     18     16     15     
5      6      4      2      19     5      
5      0      1      20     17     15     
5      1      3      21     22     20     
6      4      6      9      23     21     3      
5      15     16     19     2      0      
5      19     16     18     8      5      
5      10     23     9      7      13     
5      21     23     10     11     22     
5      22     11     12     17     20     
5      8      18     14     13     7      
