# vtk DataFile Version 2.0
polydata
ASCII
DATASET POLYDATA
POINTS 24 double
 4.28750e+00  5.58392e+00  4.11574e+00
 4.31658e+00  5.87907e+00  4.18256e+00
 4.13130e+00  5.26064e+00  4.45670e+00
 4.23017e+00  5.99630e+00  4.66060e+00
 4.08707e+00  5.41786e+00  4.79387e+00
 4.49506e+00  4.85380e+00  4.75169e+00
 4.25112e+00  5.27085e+00  4.99539e+00
 5.21018e+00  4.99897e+00  4.93148e+00
 5.09217e+00  4.83650e+00  4.78973e+00
 4.71274e+00  5.58295e+00  5.25786e+00
 5.18251e+00  5.94151e+00  4.96123e+00
 5.18835e+00  6.11143e+00  4.61511e+00
 5.35723e+00  5.70206e+00  4.26301e+00
 5.45421e+00  5.28699e+00  4.76541e+00
 5.45605e+00  5.28472e+00  4.45605e+00
 4.77996e+00  5.40711e+00  3.95230e+00
 4.91635e+00  4.91069e+00  4.22609e+00
 5.01795e+00  5.73741e+00  3.98859e+00
 5.13811e+00  4.88157e+00  4.36570e+00
 4.44305e+00  4.86822e+00  4.51273e+00
 4.78669e+00  6.03717e+00  4.10129e+00
 4.42055e+00  6.13122e+00  4.78087e+00
 4.88292e+00  6.23335e+00  4.46128e+00
 4.76610e+00  5.85854e+00  5.19676e+00
POLYGONS 14 86
5      2      4      3      1      0      
5      8      7      9      6      5      
5      13     14     12     11     10     
6      17     12     14     18     16     15     
5      6      4      2      19     5      
5      0      1      20     17     15     
5      1      3      21     22     20     
6      4      6      9      23     21     3      
5      15     16     19     2      0      
5      19     16     18     8      5      
5      10     23     9      7      13     
5      21     23     10     11     22     
5      22     11     12     17     20     
5      8      18     14     13     7      
