# vtk DataFile Version 2.0
polydata
ASCII
DATASET POLYDATA
POINTS 24 double
 4.29285e+00  5.58463e+00  4.11012e+00
 4.31986e+00  5.87558e+00  4.17529e+00
 4.13211e+00  5.26438e+00  4.44423e+00
 4.22855e+00  5.99675e+00  4.64831e+00
 4.08294e+00  5.41971e+00  4.78184e+00
 4.49041e+00  4.85263e+00  4.74030e+00
 4.24355e+00  5.27102e+00  4.98612e+00
 5.21197e+00  4.99513e+00  4.92400e+00
 5.09161e+00  4.83307e+00  4.78015e+00
 4.70809e+00  5.58647e+00  5.25701e+00
 5.18344e+00  5.94818e+00  4.95277e+00
 5.18564e+00  6.11415e+00  4.60306e+00
 5.35052e+00  5.70316e+00  4.25107e+00
 5.45714e+00  5.28695e+00  4.75517e+00
 5.45436e+00  5.28616e+00  4.44330e+00
 4.77559e+00  5.41198e+00  3.95153e+00
 4.91200e+00  4.91620e+00  4.21486e+00
 5.00997e+00  5.73558e+00  3.98454e+00
 5.13485e+00  4.88357e+00  4.35386e+00
 4.44005e+00  4.87094e+00  4.50019e+00
 4.78308e+00  6.03169e+00  4.09497e+00
 4.41729e+00  6.13328e+00  4.76920e+00
 4.87927e+00  6.23218e+00  4.44982e+00
 4.76263e+00  5.86534e+00  5.19284e+00
POLYGONS 14 86
5      2      4      3      1      0      
5      8      7      9      6      5      
5      13     14     12     11     10     
6      17     12     14     18     16     15     
5      6      4      2      19     5      
5      0      1      20     17     15     
5      1      3      21     22     20     
6      4      6      9      23     21     3      
5      15     16     19     2      0      
5      19     16     18     8      5      
5      10     23     9      7      13     
5      21     23     10     11     22     
5      22     11     12     17     20     
5      8      18     14     13     7      
