# vtk DataFile Version 2.0
polydata
ASCII
DATASET POLYDATA
POINTS 24 double
 4.46984e+00  5.55367e+00  4.28407e+00
 4.47893e+00  5.74594e+00  4.31828e+00
 4.36238e+00  5.34763e+00  4.49590e+00
 4.41400e+00  5.82991e+00  4.62866e+00
 4.32277e+00  5.44703e+00  4.71579e+00
 4.59084e+00  5.07581e+00  4.68816e+00
 4.43404e+00  5.35190e+00  4.84548e+00
 5.06700e+00  5.16487e+00  4.81116e+00
 4.98942e+00  5.05255e+00  4.71718e+00
 4.73505e+00  5.55438e+00  5.01050e+00
 5.04053e+00  5.78868e+00  4.82344e+00
 5.04821e+00  5.90507e+00  4.59843e+00
 5.14501e+00  5.62950e+00  4.37345e+00
 5.22479e+00  5.35998e+00  4.69802e+00
 5.22075e+00  5.36016e+00  4.49402e+00
 4.77803e+00  5.44572e+00  4.19929e+00
 4.86574e+00  5.12305e+00  4.34792e+00
 4.92719e+00  5.64979e+00  4.20442e+00
 5.01664e+00  5.08955e+00  4.43271e+00
 4.55862e+00  5.08913e+00  4.53124e+00
 4.78262e+00  5.84857e+00  4.26535e+00
 4.53833e+00  5.92258e+00  4.70948e+00
 4.84679e+00  5.98848e+00  4.49636e+00
 4.76923e+00  5.73581e+00  4.97898e+00
POLYGONS 14 86
5      2      4      3      1      0      
5      8      7      9      6      5      
5      13     14     12     11     10     
6      17     12     14     18     16     15     
5      6      4      2      19     5      
5      0      1      20     17     15     
5      1      3      21     22     20     
6      4      6      9      23     21     3      
5      15     16     19     2      0      
5      19     16     18     8      5      
5      10     23     9      7      13     
5      21     23     10     11     22     
5      22     11     12     17     20     
5      8      18     14     13     7      
