# vtk DataFile Version 2.0
polydata
ASCII
DATASET POLYDATA
POINTS 26 double
 4.28579e+00  5.56908e+00  4.12418e+00
 4.32608e+00  5.87874e+00  4.18934e+00
 4.13585e+00  5.25452e+00  4.47611e+00
 4.25476e+00  6.00116e+00  4.67378e+00
 4.10724e+00  5.41476e+00  4.80825e+00
 4.50062e+00  4.85033e+00  4.76983e+00
 4.27788e+00  5.26654e+00  5.00710e+00
 5.20302e+00  5.02241e+00  4.95434e+00
 5.06513e+00  4.82561e+00  4.79140e+00
 4.72837e+00  5.56804e+00  5.25877e+00
 4.74026e+00  5.55675e+00  5.25018e+00
 5.17596e+00  5.92715e+00  4.96999e+00
 5.19216e+00  6.11212e+00  4.59615e+00
 5.38173e+00  5.67265e+00  4.25282e+00
 5.45061e+00  5.29674e+00  4.78878e+00
 5.46833e+00  5.28079e+00  4.46801e+00
 4.80779e+00  5.35931e+00  3.94603e+00
 4.91891e+00  4.88003e+00  4.23745e+00
 5.06209e+00  5.69414e+00  3.97673e+00
 5.12929e+00  4.85390e+00  4.37861e+00
 4.44249e+00  4.85812e+00  4.53242e+00
 4.81133e+00  6.03264e+00  4.09531e+00
 4.43163e+00  6.12256e+00  4.78080e+00
 4.91152e+00  6.22722e+00  4.44924e+00
 4.78193e+00  5.84737e+00  5.18547e+00
 4.72879e+00  5.57922e+00  5.23868e+00
POLYGONS 15 93
5      2      4      3      1      0      
6      8      7      10     9      6      5      
5      14     15     13     12     11     
6      18     13     15     19     17     16     
5      6      4      2      20     5      
5      0      1      21     18     16     
5      1      3      22     23     21     
7      4      6      9      25     24     22     3      
5      16     17     20     2      0      
5      20     17     19     8      5      
6      11     24     25     10     7      14     
5      22     24     11     12     23     
5      23     12     13     18     21     
5      8      19     15     14     7      
3      9      10     25     
