# vtk DataFile Version 2.0
polydata
ASCII
DATASET POLYDATA
POINTS 24 double
 4.28671e+00  5.58383e+00  4.11657e+00
 4.31610e+00  5.87958e+00  4.18363e+00
 4.13118e+00  5.26012e+00  4.45853e+00
 4.23041e+00  5.99623e+00  4.66240e+00
 4.08768e+00  5.41760e+00  4.79563e+00
 4.49573e+00  4.85398e+00  4.75337e+00
 4.25223e+00  5.27085e+00  4.99675e+00
 5.20992e+00  4.99954e+00  4.93259e+00
 5.09225e+00  4.83701e+00  4.79115e+00
 4.71342e+00  5.58245e+00  5.25798e+00
 5.18236e+00  5.94054e+00  4.96247e+00
 5.18873e+00  6.11103e+00  4.61688e+00
 5.35820e+00  5.70192e+00  4.26476e+00
 5.45377e+00  5.28702e+00  4.76693e+00
 5.45629e+00  5.28452e+00  4.45792e+00
 4.78059e+00  5.40643e+00  3.95241e+00
 4.91698e+00  4.90989e+00  4.22773e+00
 5.01911e+00  5.73770e+00  3.98919e+00
 5.13858e+00  4.88128e+00  4.36744e+00
 4.44348e+00  4.86783e+00  4.51457e+00
 4.78721e+00  6.03797e+00  4.10222e+00
 4.42103e+00  6.13091e+00  4.78258e+00
 4.88344e+00  6.23352e+00  4.46296e+00
 4.76660e+00  5.85755e+00  5.19733e+00
POLYGONS 14 86
5      2      4      3      1      0      
5      8      7      9      6      5      
5      13     14     12     11     10     
6      17     12     14     18     16     15     
5      6      4      2      19     5      
5      0      1      20     17     15     
5      1      3      21     22     20     
6      4      6      9      23     21     3      
5      15     16     19     2      0      
5      19     16     18     8      5      
5      10     23     9      7      13     
5      21     23     10     11     22     
5      22     11     12     17     20     
5      8      18     14     13     7      
