# vtk DataFile Version 2.0
Really cool data
ASCII
DATASET POLYDATA
POINTS 1150 float
5.54548874208053 7.03243682644301 9.02716154665798
4.48033308643726 7.05620554317673 0.65789131310653
4.29818890173665 6.9972553921293 0.64571902212192
4.60198126900968 7.2250235545033 9.28290455203381
4.42243399402212 7.33721066477481 0.54580648333471
4.61274631371341 7.49213838172837 0.29843629533637
4.9689615285245 7.32089210227845 0.08816797309811
5.13895438179331 6.87866957261092 0.1398916543708
4.14143643735738 8.93802751661586 0.97301856254073
4.65736916588446 0.26817793019222 1.24297331408719
4.07604349150438 9.36037395192383 1.56928668104293
4.23133111314922 9.83378111503093 1.67927424718583
5.0432257135444 6.86030221850997 7.87605460216006
4.97474499165604 6.15098832130385 7.16913954029024
5.42079801729486 5.97624519723135 7.05717176447434
4.26862767334529 9.83760965502542 4.34135240751413
4.00124935419186 9.05361786281868 3.70809157790196
5.14219405651751 6.05022764788063 3.39003884683793
5.31551392231598 5.07285475567262 2.58632043010897
4.64793362945628 6.30105408929092 6.61602453084941
4.28051608206301 6.84277702401782 6.97421145861869
4.88894575171077 6.628902421796 6.13862217523933
4.18876211510402 6.65955792083359 5.36350998479053
4.76132515465111 6.6316731067558 5.71038887445982
4.47892765817424 6.3598900668814 5.5528978549562
4.51640701824294 6.93775827970424 5.54095621130088
4.33215338935574 6.13770378541898 6.55326463728
4.63665346567636 4.66291032550037 7.82061060461661
4.85106124104657 4.62039228630923 7.6056222381336
4.80562262301261 4.06889502659993 7.42067650471651
4.41185838520035 4.33295130519568 7.88986014944803
5.22015750208126 3.39197103532046 7.88615020286832
4.19648879955388 4.44662569455051 6.47587449219589
4.12981816498347 4.15336149245136 6.56613519528488
4.68923310343 2.19407348732348 0.46789426650073
5.01429978829461 3.19190968726338 0.31393341720227
5.03780932498498 2.49709201011787 9.97740577854321
4.98896151228933 3.10114619441638 9.94767684664045
4.49410775422217 3.43445167881294 0.09095316451916
5.20822550654762 0.38810084692824 9.69417044620519
5.15441571270977 0.58119835760077 9.84764781815052
5.39555816232711 0.49602310306117 9.40716801454843
5.13159624771485 1.84525512082644 6.83080269422065
5.28856294007725 1.71210578603638 7.21622146184528
4.38021659547115 4.94065698821716 7.71458657652542
4.13966460857424 5.70416172610973 6.94969664760711
4.46237883819485 5.59856058589335 7.51854964359513
5.73624190016681 2.16827388040273 3.51987713161479
5.38293066590612 1.35576919771741 3.85182477904138
4.17917060952133 7.20116180282341 8.09028028044712
4.58134523709184 7.62008895247302 7.51003020242138
4.52204716792543 7.12461051077079 7.74087048441602
4.38297246407876 6.79237888138234 7.49764358349528
4.29939547781728 7.40117403811169 6.73983160629132
5.2206697850055 3.26200455133884 6.65182113508057
5.21924276353481 7.8097685655841 6.49422059276551
4.69796351878096 8.48685767172531 7.38000630722004
4.76750969921056 7.93697826287822 7.60530461432605
5.28804333520457 7.97580749841036 6.66648876162821
4.8585914554574 7.77136885726044 7.49037963022678
4.99443120785463 8.52770173520997 6.71172530236387
5.22042622112959 7.76613488645934 6.89041035028035
5.15435798530038 7.61972310823202 6.65177854632731
4.41102940427613 8.50962921793985 7.38296949814289
4.84860637296862 6.30617538055151 3.68551892413133
4.7558378451746 8.81896066520941 6.23622292736304
4.71627488839254 9.39339348632472 7.43001164999585
4.96257064533343 0.22546855986449 6.38182681615785
4.72582662544871 0.61181806036424 7.36508243802629
4.82616569455259 9.66715780036965 7.72963722760458
5.37331470653837 0.2750606022558 7.15355400008118
4.34524508835904 0.61587611633897 6.85586379500214
5.15607399524775 0.56218475659163 7.00975380296312
5.09642655336774 9.77109497348149 7.68539468634451
5.13353800071473 0.15881136982861 7.64122543201353
4.73288940213872 0.41030450792863 7.62334730255697
5.31362913128235 7.14523454295223 1.47482040512824
5.04477130078006 7.18261651078139 2.0758081285002
5.01066252797125 6.0170706768193 1.44935662657748
4.32295538279119 6.47501624494759 1.96409275024506
4.39535181062041 6.16737225394657 1.86063414986864
5.44650207177627 7.09472386062558 1.89309393630735
4.21123128178067 8.79985271491169 8.29674496256073
4.86204915590997 8.91935918908361 2.33190871490529
5.12662129001531 8.6871673769626 2.63821451907998
4.82269695072033 8.23853317641812 1.72482947548433
4.68695285893093 8.7144267223551 1.93191784541363
4.3201003490184 9.195812320248 9.35128016334748
4.63890349497781 3.16390526967102 6.69496502560567
4.43508784791089 2.99883143044739 5.57374281605853
4.30103478175229 2.69005160971884 5.91737481320055
4.30184065465596 3.09728514378076 6.305262577406
4.80988596042647 2.77963960972465 5.39281578472222
4.38367089126277 3.39808033161448 6.19616910790428
4.50235024579711 3.43508270149117 5.85942369729787
4.4791201159972 0.54001258446226 0.64823357680231
5.44111345791749 3.91208282901685 2.90600460810774
4.81860158108061 9.40948965322765 8.20157896133563
5.04839031900605 1.89886622023773 1.55632145938025
5.46251695343308 1.46090704908849 2.13970932365492
4.93665343684541 1.80778337686401 8.05364723443103
4.7350263665779 1.60818928535705 7.45995362323583
4.95934078969525 1.58270841790899 7.54168908972167
4.68301281268182 1.86686157270586 8.12658017712114
4.50973341832713 2.78964114133761 7.75428507361036
4.34951681559398 2.3756713570868 8.00914422444284
4.94278113560849 2.86123782351443 7.88588978336638
4.83282053584195 1.85120241428217 6.86644728488768
5.30297514440603 2.89777814900117 7.61433140016542
4.74133042205858 0.42572489084759 0.8521945855348
4.24824740209083 9.29550728074023 5.03242502570145
4.37764770932824 1.22484833378199 5.96866585349079
4.68938980220787 1.32639346132231 5.59714877397987
4.41593208191481 1.79533105199013 4.96973636343784
4.40253015146273 1.40493583540631 6.5149406150151
5.64162086284645 2.5203951143222 1.27809882705063
4.67855751601224 2.36702776765105 9.01105562190227
5.06522172996282 2.11341170725809 9.3379576157128
5.00752355058634 7.66743126544818 2.79079590713877
5.22748338564013 7.74583223689908 2.4454362015995
4.05263894106641 8.08238910865817 1.10043633424715
5.00082655669927 5.79050335903778 1.25033458660039
4.34726401728845 5.87439345127223 4.18615952803915
4.30954213277308 5.53889108735208 4.133117579852
4.32750997148777 3.14677308217756 7.85957701098533
4.17616064654632 4.66151688060236 3.20943608428617
4.34951070209031 5.43306671359851 2.82287420766246
4.29780461244006 5.15297397366989 3.19013520542478
4.59505677973583 9.85446303776787 2.4018794644945
4.95116167792711 8.63410737728682 2.91466455324363
4.22533426378902 9.59789985957145 2.60072003313998
5.20524184392562 4.90351429876145 1.09638704411123
4.75983308400311 4.92298715296744 1.28599628750594
4.29485020326723 4.18198320801974 1.03307281519049
4.46746533259301 9.03125573634195 5.6359965766583
5.44475840951295 8.61020916856224 4.55951419432368
5.05712298044387 8.90314586402181 5.72698188448087
4.99468152626811 9.28770286947932 5.46494180170571
4.8551382547212 8.80282698824401 5.77754922551133
4.52177478257122 9.2978041297171 5.47447584230462
5.21493467625277 8.20945323442664 4.67615292629035
5.35643216685422 8.22546075287084 5.22634683690348
4.18410923788253 8.79435471862813 5.2510723309887
5.09428883824574 4.4033557279328 5.80493983046597
4.15889629521437 1.21282694394592 2.94746805918875
3.90467171453002 0.60392537533111 1.93018804157603
4.51393914375047 3.47712245162953 4.43882890494068
4.23097622223823 2.2754889178386 4.6046322746477
4.59874518741959 3.50468012630122 4.73131700911105
5.12114353770254 2.76362208178675 1.56941066694418
4.32144996428174 2.13750145543158 1.1720313378997
5.03002935669084 3.17748512188507 8.76927184199914
4.25474711409413 3.47265163015628 8.83631226434347
4.79731461222341 8.0916546428407 3.07034370144934
4.15263729430913 8.15304012853184 2.9594074569859
4.22646783817637 6.85055763619228 3.29146404377685
4.20273207400301 9.90301222689131 2.16431872214042
4.38905394746995 7.15132489702711 8.75427249772991
4.21435678789354 7.22654934600494 8.62261669352455
4.23958762398507 3.11960303472787 5.28739027042756
5.14702775013593 6.05979512353303 5.38239892032942
4.94806699716588 6.61508478341446 5.66899590442593
4.59586134900187 4.64597163193171 6.6042389788154
4.80122394855262 4.53074510937583 6.77076590634469
4.57516889999946 3.76279592842159 1.45726407286588
5.14992708516257 2.80692392383887 1.62415269208965
4.83153026601393 3.48370189990251 1.30137313307415
5.07286880694571 3.38505847764804 1.57183576388179
5.12337288258053 0.33073689821333 8.96826730131438
3.90021261409174 8.45345771568072 0.92478749471897
4.3625535629001 7.83668186861615 4.83176150546555
4.67563712092215 8.03098763362979 4.47930439748123
4.54665283512364 4.46044637615334 3.38376734039885
4.95105622421107 5.10558140594683 3.51379941198649
5.02003008639089 4.87308864028863 3.52176705443548
5.35274844230148 0.66897337018725 3.46762586283616
5.36792134278907 0.98345574840183 3.36975162615048
5.37857350837157 0.63321039438059 4.04960576864772
4.99499466597646 1.09861506869412 3.04969947844195
5.41683413838767 1.25263679105841 2.64369482075037
5.23134518313822 5.41698139423426 9.40874847786655
4.00431740848916 7.37424558277121 2.75177302171049
4.06191017949551 8.40143773782887 2.21354522058927
4.10048197950988 8.09657106039931 2.88600136499371
4.4382727427615 0.07941630757331 5.68636812564958
4.26133563863005 6.97270261651778 2.92599647145747
4.79488452359417 7.72733290566028 3.83378773010154
4.92717429743159 7.71943796772142 4.32598089043832
3.86876635193633 5.56453275388566 3.69340018795353
4.94708683826104 1.30845207670798 5.66175867275587
5.08439794853173 4.15590006689215 4.99726596732505
5.24448330109582 4.5849481362932 4.13517224340269
5.24883051831463 0.82146919843564 5.24316018745109
4.43273649793155 4.52201612024456 8.96339753979221
4.57740920951789 4.09372884856632 9.54670155136684
4.38047269272379 4.19510457321334 9.40657030876397
4.69566287382299 5.90146091752236 0.37047138194206
4.24247876560856 1.63641955339011 2.42519774535304
5.50156343979671 5.27953480392814 6.79972735361404
4.47881882665439 6.07366652665624 8.83892168248362
5.13214523542476 9.23753533561046 2.27142808234999
4.97328622328949 9.76159489841095 2.28225815392048
5.23047756055975 7.96639615339534 0.80218180445065
4.28304355160686 1.44657364495374 9.03444649726823
4.29975428363278 7.64973955810649 2.60265264076357
4.96975189107979 3.78403542659971 0.92632546700711
4.73268044266079 7.34946487824356 8.95695049663771
4.63334250776408 7.55699688633083 9.61384081330949
4.46855331559932 7.61697681852716 9.712948462995
4.59532574848978 8.61385592793896 4.09405074721144
3.93608184122066 6.02395197114942 3.75177398676156
5.55594453601334 5.30010594668792 8.45300497182145
4.9332856221464 0.52149579771678 6.53349992606379
4.8676867609639 2.13223998491409 3.12527187134775
4.482188931228 0.5983672601701 6.55639356749987
4.53689017175117 1.16917535818593 6.25298356950863
4.78573615806193 8.23756108686702 4.61609960919265
4.57106222659942 6.29589180230187 0.1910985573563
4.71031527475543 8.55220437312984 6.39501103471057
4.48641205205435 4.84024042318186 4.7627270818032
4.51388566547401 7.70711600322636 0.7103668185545
4.95322653129685 2.13179426005144 4.1662330442267
4.13047998041164 6.66888695672899 5.21996639642039
4.81631091141856 7.17620839953823 2.77325743805356
4.52678003113711 4.19282360343986 8.37578415988705
5.07788235982564 7.2017994978759 3.19140386104435
5.20373979470102 0.20340729954715 6.07089368327501
5.06601275502533 0.08883989921855 5.70222067795188
4.23599476557658 2.76925618292988 2.3295839517881
4.1685163090012 2.46783677739199 2.6120721831888
5.25088304727582 5.62674228434422 2.04698613901065
4.79185527441175 9.86110057712606 1.43521353709533
5.3543173511301 5.20515538009811 9.24204990181451
5.01443152790305 6.71679045834546 0.34641974347152
5.17163718047761 0.53600798510701 4.17243583404879
4.95114211337234 8.0210953365003 9.10818912061302
4.49703738967183 6.17899868571314 1.53553909363806
4.66414314376608 0.28897526945561 0.90998747670094
5.07568192497648 2.16380910160178 9.73088459663406
4.58014799971076 4.04719356942404 3.78149072567109
4.80648616165978 1.74312623680988 1.270083318477
4.58071993898645 1.33385274433543 1.36270728414115
4.59442367177605 4.22243228676111 3.1532995350223
5.4479522211595 1.60434805980172 2.47147451493536
4.75259661065578 1.59148314411315 0.20459238451549
4.18379150370871 4.56697063753703 2.40517515250098
5.01684854896379 2.91721380938783 0.50714239611676
5.64393116934493 2.61861645077998 0.83798181292158
4.66361994063373 6.59906548915463 6.80587723952926
4.82477319483225 6.92079788954801 6.50148936631923
4.35775789662569 2.52826274776304 1.44874361210609
4.84853545796771 2.47066963897296 1.71810369292573
4.77119123663671 2.00344275482178 6.83563218934814
4.21471101417055 3.11216486653936 4.31250577056899
4.72387363232121 5.5750039203292 9.27996520788985
4.48703601437824 4.04433036742323 5.59888409212113
4.31810627059928 3.70013199020251 5.74655680842017
5.2465448985797 3.83952394171678 4.76019318896451
5.21151044352804 6.94570201776262 7.84547557098757
5.21971239161236 7.61582112300227 7.62014268708101
5.4066310319205 4.37691136039423 2.77058274412543
5.32110238286798 4.79453578439032 5.5805172731212
4.29877317782137 8.80555004924473 2.19002982706134
4.36368570678486 0.95830765315281 0.7010616288137
4.5547948100376 5.05874970204578 1.29167053109626
4.52118084118039 9.02479524801387 1.26503176891113
4.85790924421877 3.28953459942744 0.39874865762687
4.96537191788032 3.71959901985 0.55379692210122
4.11132551981432 8.58421413160197 0.41720586756655
4.04581507469474 8.84143480422601 3.98087289483214
4.92550463031731 4.54761118915652 1.40474211341592
4.64958548222982 4.04437646545983 1.19965768166729
5.1146471248582 5.2466646484373 3.35763778066644
5.33768254537422 5.10468110288057 3.23882600541159
4.14672038997683 5.22763145475755 4.49331589039662
4.97930453781773 6.50742088367004 0.21100042196824
5.31202981973302 7.77290775066417 4.40671468301241
4.0885577496466 2.84474721654809 4.74720363682383
4.35098693135002 8.79382993010709 7.58284176666262
4.39395031252725 4.5301148824063 5.929170952436
4.64842768223987 4.66213417517394 6.01619252027445
4.504155692065 8.18390621610232 4.08681293904607
4.63771277294922 7.93920583352982 3.77628583179297
4.77835976133184 7.24993117763353 1.72564383297975
4.96741090575545 7.51614630267797 2.28944598824176
4.82016988751807 7.48825005541077 2.63888419698532
4.27475363755918 2.95958275368274 7.34372042283393
5.18767712583368 1.99338418051349 6.79543609378963
5.38881037790103 2.30045647059174 6.09859489790861
4.33885509909701 2.32843838261428 0.66694462536752
5.25187629182862 7.05113422233082 4.67823355233659
5.28785374846479 4.62914119757907 1.21936501530473
4.69765506337547 0.79180194619505 7.5075153331656
5.09230300645183 1.27942798067727 7.57779086297505
4.79059468232826 3.04491777442662 0.64144566446577
4.34919845950974 2.84077031104258 0.75941566361635
4.4894311712105 9.59934475316411 8.54501743130942
4.82345335371599 9.68362698793643 8.90872530930566
4.17173031197481 6.59171232961018 0.44430964565194
4.91295163857129 7.24233249178301 1.45945445231779
4.74864882507275 6.92841664210239 1.22790320730719
4.66509146288574 4.92808658344633 2.07582072089382
4.7163509179553 5.02426750843799 1.37106846174914
4.06907520335399 4.44228383211677 4.23742926886724
4.91338295547723 5.28339505427285 3.97545109837081
4.71799305656839 0.60637719452523 2.48155769507246
4.54380667555016 1.53977532151321 8.93205819529987
4.58789525490111 1.40784386206547 8.70206765327272
4.93391931057879 1.4968095222498 9.22204433878116
5.20968560392882 1.26198411946866 9.01487483901344
4.55128993292607 3.94608294016535 7.60334877203242
4.61573215057557 0.9573385886129 5.18747103578329
5.11326113165157 3.26429453808753 2.71384439779058
5.32877121795534 7.82916982308567 7.87860991429119
5.09440410787049 6.60977272904776 6.02412509083854
5.12213123605552 6.7821013584205 8.21012785518816
5.34234494935056 6.8880505743487 8.20249033797251
4.89285519292536 8.00371082245898 9.40214422809812
5.3827960877005 3.89694715603138 2.18950579571055
4.25771542012493 4.20251975894492 0.54743659628857
4.05369883243162 3.12673634128715 1.29023977139563
4.36103560288965 3.82993325040763 7.43705281420465
4.2074888829994 9.56772588314788 7.23263312937053
4.79393299971245 2.77144078275603 5.24133085602134
4.36889257619192 3.0544425868383 5.07944031460255
4.36544202270993 2.92359791619149 1.15987385280886
4.74167664046135 3.0989423045112 1.15976041031623
3.89541084279668 5.41252793634212 3.37133896397502
4.8751569628144 8.64712123069296 0.40037570800566
5.29353136067048 8.38889339090618 0.72586476321183
5.37137491831586 7.40494246733774 0.15571118825427
4.26777354952471 6.02639067511543 4.6270735695505
5.18857460963943 7.47155824982466 3.19694873875637
4.35547455572836 5.37190094353063 2.45384751903251
5.48948312190634 5.58527938295431 9.40496221954928
5.02865810117641 1.6695892629502 1.90429079429586
4.65825200557437 3.24522391605518 2.97285749149001
5.03464465746544 2.52197131537718 0.35800058115323
5.30201412234763 8.17903139144919 2.2806683214543
5.02520158004032 4.69695884623689 3.99457079168444
4.55249121051209 4.3164002453592 3.78774395547545
4.19172227859063 3.8251693234954 4.15982093463991
4.7026426284485 0.58247423494665 7.75896215335994
4.92894430778947 8.0445105927733 3.45544090461975
5.08505945298908 7.79609332900112 3.53476208569741
4.00719311438418 3.31672026107393 0.19905897579194
4.95524776106019 6.84519308709882 2.39904132295265
4.63005493773581 6.53225608034223 2.38358203861884
4.75052249211645 5.51727134111786 5.25333873749202
5.09063982166724 8.89754927406726 4.34304788674316
4.38872437775151 4.32407929639123 2.41853094061827
4.19359236491583 6.70139683705619 2.80308772134569
4.40853807274447 4.87447315248085 4.53036722933799
4.96592935462078 4.90266189459459 4.20370777780839
4.31413976110836 4.95165131715703 2.20927284345318
4.64084887405026 2.20703980697898 8.23181036711657
4.49777543887642 2.19352261229975 8.84170869316188
4.71991908826378 1.13171110048775 1.07347848937772
4.6933304077804 7.16535799300731 5.33317080434984
4.60744933669944 5.54329823560569 2.79020798146417
4.70339784093856 5.98965640699014 2.90210662194944
5.02321013204016 8.51409194383417 7.84709178876799
5.26901765534621 5.87115848293787 1.85064382289485
5.31697184511733 5.66035402246797 1.84114231666344
5.05715123593207 9.41913225064274 8.32284664058735
5.04701225717698 9.6193733545389 8.81534333817484
4.8810650925626 7.76903351830914 8.87901460687807
4.67351719885167 8.90494294812729 8.07621912553729
4.87513488454653 8.71873727008347 8.16731558219018
5.30887107685647 4.53591932704961 2.58919829009064
5.30556300555158 4.45692428982042 2.79410519717078
5.33462000888955 4.87190060810956 3.30352180612663
4.21764079665915 4.22562259570123 8.65407059041886
5.57419194034472 6.02818916444748 9.26559771168838
4.31371519829137 3.69042776985024 3.14330673689916
4.60042474848981 3.94517249770091 3.29098624374245
5.03160942293396 8.97553075684096 6.40543882440333
5.28284697698539 9.03652701517519 6.11415193006246
4.48933144929979 8.36566692786618 0.28087464324904
4.62782681244512 7.7854321535583 0.55995862565575
5.39859594092431 3.02003561542347 5.49109263451635
5.51119972078914 3.09878947412869 5.13898825780037
3.93803536209891 3.02118615793073 0.55209250884793
4.50630313828061 2.77789557952953 3.96862554129123
5.25158983693811 9.28497373449894 4.95759323681261
4.0455994664857 9.24252033077828 8.61750247776588
3.9854753509302 9.17041166736829 8.82411858835185
5.00811906780538 2.45283962642519 8.2142878455789
5.07745064007226 2.64259359475773 8.73262639290726
5.28786193552645 0.88290965503618 9.73433293730729
5.23858370595191 4.33434519167873 9.31636127434586
4.82505396117797 5.84187951102016 7.55267788112508
5.04825520856694 0.49101294968417 5.11210055275111
5.16335988666606 8.74478078298866 6.69481673220045
5.18487628787317 8.9584259738089 7.11854864647057
4.82796174058326 7.16767111712563 4.58230876789771
4.54066152895056 7.22231554675774 4.89262431092229
5.23808280803889 0.40908849720527 5.28388047765347
4.91922568703505 5.28551970564925 2.29163211847513
4.62933234328532 5.50007961472939 2.46578076461088
4.29284572182423 1.15102798590038 8.68293117852667
4.87492343614407 2.33073962628924 9.87176433462382
5.31430205090729 7.23948203661252 6.60642832189035
4.27483901196867 0.76198593889824 2.275767058807
5.38984656447735 6.2119409877419 6.15399992115732
5.23718766464541 3.8217028297185 7.50834210473572
5.40961769693805 3.67093173475294 7.02367933240294
5.43335818457126 4.72762119482781 8.24372957846027
4.76156591549446 1.87249876826365 3.59998632587336
4.19088518104706 3.68630826688802 1.48492681943271
4.28450495122378 9.10159613651136 4.64853922820466
4.70796073463822 8.67945478380499 4.35686101702489
5.16686493277543 5.94278757648872 6.5661418074866
4.31855247184215 4.21553261225406 2.91746773095925
5.45580604255435 2.28561626716039 9.24509618122858
4.52779395488448 4.06603373634459 0.25629093185481
4.4131526845999 3.96682260342362 0.12360031972289
4.99974063575567 4.09778702275071 5.58396604101249
5.16643872919137 4.15877609392184 5.08995021423319
4.83329692340873 2.48858470957571 1.94344320057417
5.00596426713522 2.68904692818914 1.99809203902464
4.50621007215334 2.3249271025194 4.07620009655791
4.38309123155378 2.15852737852217 3.74304700534634
4.90668298385582 1.27975719332278 9.69529267195062
5.05708067034684 1.44488172785343 4.21290952828096
5.23807505677465 9.1903602024473 9.10421866075846
5.34578362487982 4.26632771308269 2.18358430332609
4.49656877561867 6.33392959639326 9.43194761069741
4.69302608356973 6.04109590424834 9.14342761848691
4.32292275480202 6.44580494850398 9.33493480673146
4.39771528271797 7.13420935672199 9.23573480532083
4.27062493244998 7.29046236950809 6.70355466643608
5.54402758804738 1.04915964066073 6.92922350383145
5.33033826148303 2.86907886283359 7.3951852839498
4.33640179808561 7.11655973981401 8.79840320081917
4.28618062355892 6.31036542776059 8.82108795826659
5.32092612193121 7.74096752967127 5.66435956463184
4.75315338072562 9.10549374858516 1.14253324703008
4.74097705776166 6.11489917828668 6.71481462223047
4.38701422818707 5.93052968321071 6.64730915294241
5.13612755743921 5.47253683629499 1.40259288252506
5.44722474674338 5.25608666597343 1.19981006961067
5.41686525917908 2.31555888794362 3.05149636684637
4.92081436939942 0.72888069062077 1.15418621126083
4.76248498046296 5.95437347533897 7.74259692534669
5.44903862371503 5.87938225582655 5.81268799032675
4.37377019876727 9.76819020722963 4.54225319718735
5.00190556983079 9.81792121011081 4.40940382587987
5.04445622631802 9.36537007815689 7.13530125084058
4.23847809419292 7.31186628355949 5.91883000372699
4.32328897428994 2.5398472537034 2.1274660687533
4.24805005428374 2.2454658268496 2.41038599695474
4.63367859327461 8.46625785843236 9.36205351884547
5.46148405124917 2.57637515182681 8.90563125588697
5.00295827513363 1.71735395749221 0.99105240624941
4.6222979865163 8.88146781176239 7.64297871782968
4.8192736569689 8.67814160195194 7.52161378504478
5.06502641471552 0.72660106171592 5.08475592650952
5.14385392949042 0.85979353875408 4.40806239995468
4.51313570111263 6.11549191945148 8.74968020125126
4.38859088420798 9.31212724163315 4.72211948320528
4.97512918429813 9.31790889013773 4.61024535200786
4.80100497101893 2.13815213360239 5.04801015633906
4.59147916013066 2.0152322003977 4.8454280270213
4.64320920933232 5.78032068228173 8.27150692179598
5.0316814396957 1.87165524197114 3.83717415382585
5.04917785633922 1.57309163769808 3.88714064599957
4.36018616623587 6.82589988677525 1.62141276641351
4.42584176274309 6.72919058695626 1.39917926277348
4.32121220692225 0.54480833370032 8.13447697616374
4.54420687949431 0.68477295820538 8.59963771559085
4.31078194097977 0.11440115824266 5.91055025754766
5.28992620977957 9.56984988966473 7.2442991221271
5.34912906385758 6.24702594412885 9.14461457673019
5.47457843897063 2.62676751763817 3.05208929111041
4.43834401067031 8.24362216447211 9.69223939287704
4.68306376781778 8.33421831323616 9.52494749928251
4.80839511746186 8.30139496564859 9.02058292444832
5.41678849980865 6.43847675167057 2.42147538030804
5.16417124642431 5.53513967086381 6.41337128449171
5.33788438116215 5.49987470002815 5.96854050730616
4.91675448133044 9.48218589298899 6.69785588418488
4.97027507624971 6.64112304201126 4.28951729559768
4.80871960911684 6.49207577669809 7.53568375336883
4.95386204245578 6.44094957166863 7.24126123846454
4.82562929957441 4.50048672291852 2.22698417155359
4.94217733547783 4.33468592421923 2.02062378017393
5.44932918813661 1.37215754434768 7.26332840156168
5.23460555336665 7.90527754013487 1.13541255981963
4.95337237083942 9.5019224636303 1.17232087487631
5.30766225710285 5.06851749807077 7.37552559149175
5.40261248518066 5.01440779960405 6.95317412695336
4.10108205400045 2.54871823033035 1.66649468424339
4.2579307993154 7.01324453046538 4.83194639678697
5.44402378018691 1.12093644288557 2.19333599001773
5.25038886945871 3.00726717086568 4.94709739426099
4.97000338487573 3.47851892924125 4.65025700214017
4.32899036120274 5.67497026808894 7.76144085998741
4.46035856221257 5.85725326779023 7.87435388231315
5.34671315065608 9.40802276523008 1.55122386366827
5.14850234174286 9.82476636179427 1.71298059811731
5.45789381696914 2.59858048609868 4.58324693505876
5.37704764409074 2.64517709039815 4.24145431483784
4.92618571156261 8.23136718961923 5.45669612350861
5.23016398891425 8.95792509313647 8.39262859009611
4.67724265046508 3.57611835585773 8.33413251073378
4.99063044794175 3.42452040204912 8.39499865406894
5.50417091291341 0.32883685667437 8.17012905811883
5.21482273949064 3.56143392970828 5.90510727001811
5.2887937406192 3.72047965137886 5.82979638374974
5.29441758412134 8.8392588881419 8.80218031693314
4.38405552404967 0.47405648372261 6.50444989164122
4.54703409550473 0.16248012465147 6.36155005834198
4.68253795490295 3.46576257290714 8.02459633805594
4.96291241220611 3.31743585764382 8.05278037808161
5.35891283023248 2.26772494928596 5.90307226483482
5.17999037159859 5.91594705906031 4.96736548758247
5.58082603964878 7.69648248694642 0.54891727075858
4.42390831330231 6.1430111729222 4.7158284332578
4.4845501684647 5.06092237242334 7.4563270984145
5.00976742326075 1.4603176515236 0.86909164707642
5.46308729506863 1.29900214503255 0.86293562498589
4.69847147109468 9.37907990950541 9.37642390672584
4.94888947052444 9.12362019265684 9.41818659235316
4.57887905109328 5.47929371688583 8.38542279574044
5.45851900637621 0.83183349803374 1.03098702354903
5.28811733601689 9.33536479103014 1.3958028751845
4.98675226527451 3.02455619328946 3.21750152067317
4.06940625758533 7.95185150044619 0.83425924545183
4.85568299872858 7.74104797527681 1.2386816679413
4.66345711621911 8.02299696030251 1.51477798881086
5.40280882231946 4.64949350899936 7.81570873713843
5.195875932621 0.89591655305735 6.26175423377259
4.99704601197821 1.19966351411583 6.15259245031516
4.89964685511298 0.65502654492501 1.33974657375848
5.3116241604684 0.59783254537042 1.56616462621608
5.32674094563092 6.73512639041537 4.45473940467087
4.61809918929667 2.06298609203199 0.20444470930637
4.82951907878611 4.84662841089936 7.37870395610691
4.81788511854147 4.7391501660228 6.88104794869971
4.74598912300995 8.7945184672159 1.47807849349501
5.48884553836108 6.21092063168173 3.25884032526048
5.32326457152369 0.77677766896424 1.98980040649398
5.18454651778169 0.87350895377928 2.05914910208184
4.15569420300862 9.63050761168264 7.03206246927298
5.1653500994624 2.05962313293032 4.7242427424032
4.97302343067522 1.93852310586569 4.5056485092703
4.5086103108391 3.28210754085344 9.0959098800237
4.71561273189124 3.49019231021717 9.46079159125192
4.96721242654765 2.39987788162681 6.39384035524868
4.92946244418401 2.9578757166724 6.73368225510406
4.96162580521187 8.0579245044919 7.89342931297185
4.63022493785951 3.27387858838624 9.76939192747563
5.57167821822947 7.76507269763533 3.64055097003814
4.71659690121281 9.97424514121087 4.03339795227456
4.92430572189389 3.27630605595707 3.01746899819959
5.04279642212175 3.67006181821454 3.21835053085223
4.9467551942843 8.95184023698108 1.29049268601334
5.32457090848118 8.55212205015047 1.12075023562587
4.95980489750045 6.63386731503024 3.76053966628804
4.68496194938909 6.97599801642166 3.58322735400157
4.45948238167602 9.62948427335576 6.62627625657294
5.5119304879276 5.32571649231644 4.63302239805943
5.30210031079731 3.86395290773223 0.82204017289945
5.51218245772132 5.66293186242962 8.21445507765744
4.72361890665488 5.33658328957484 6.3536981640872
4.33445285377683 5.63920942869823 6.47893261889779
5.54406928418288 6.27199478792868 2.65777729091458
5.67513560529724 7.74965453351153 4.00260559340819
5.39531972413313 4.1812611326573 6.11067486000578
5.35014727712215 4.20450107035737 6.50003138318364
4.94607783467044 2.71590463745056 7.09643092502273
4.9735845861032 2.15941114823542 6.77383604512354
4.83541726321139 8.24951714803691 1.59026181699796
5.28374993147624 8.22532692954265 1.34411659950121
4.62800989225117 7.96301300915712 8.59305605688441
4.58154885971266 8.24253190185675 8.68456820218377
4.28464739637364 5.34572300427772 7.9917121077822
5.64145090262343 2.40120381382224 0.73534543178506
4.30482004707385 2.39841750552462 7.41638904515539
4.45369290462594 2.73233710185793 7.45943309599299
4.61680736340642 4.83165040837255 6.71688432167439
4.63151334573047 9.06378015493455 0.66153154200617
4.97605300278936 5.89861247800609 8.1573771271715
5.11312680567135 6.2819179286618 8.407284738391
5.46467383643273 3.3724536538186 5.75843059047132
4.53202086616868 2.36976643451981 5.95310558887361
5.18233280949964 1.72945894829134 5.54696842287983
4.21654692915914 8.34576778857384 8.70629450135278
5.50104917073606 4.22158049594253 0.84736125754375
4.82456394390185 2.31534706541431 5.66515095832298
4.80601483040205 1.98655852991682 5.4288133612607
4.22730999525954 8.99031263727178 0.65307925552419
4.2161240436578 4.62527555403415 1.05371916604562
4.56674845249259 4.9524478890605 1.18479624787713
5.08137704683936 9.40904658948242 3.47682085332279
4.69059909890142 9.71940458482048 3.50459855778093
5.38291440088286 4.71460568349887 5.18980995760151
5.35367532529186 5.55282065217857 7.49936599468997
5.66689569119895 5.55270883665376 7.90925119695957
5.39748732661831 7.24499186380557 5.5242402990756
5.11090005728721 7.01459580255861 5.3742865801889
5.50327088218115 7.71005816762973 6.21675651832959
4.49353208584414 7.76901882705008 7.62108010107006
4.33337099678788 0.69396398036865 5.2817686410129
4.46511526701575 0.37996219481055 5.27610148397674
5.0395090865078 9.85315933302069 4.28597399980079
5.2903872610214 9.39526466107466 3.81372093677147
4.56094383387391 1.79075222313744 5.44493186802332
4.05871005906793 8.56211047318704 6.82870527291614
4.29437404834853 7.6693916952544 5.84957215585565
5.3060791477328 1.47545911276902 6.39536105183503
4.18560822497671 8.56974396598395 6.49765393795094
5.35546399747879 6.95934803722982 5.05672972245966
4.37141201496981 9.21067602414648 3.39337945116004
4.37361267856127 9.56004086147291 3.43461478037827
4.750721930015 0.37796759494367 3.92006797773481
4.30016640542818 0.70364610084329 4.06973449116914
4.79078321767453 8.00714898430424 6.15623892755459
4.41191637484864 7.81271975123681 6.19299100772465
4.07005276100903 0.16008415406502 1.53939657780754
3.87186936503594 0.39549838034258 1.81989323843277
5.46020223824327 6.77599223931104 7.36817430641023
5.59008578102543 7.09611655100899 7.12126180457161
5.52422844307685 3.35397756013119 9.53859393328019
4.0893712770802 7.89212209039308 3.66795563702534
5.49110374276255 4.08239908527464 9.21293119077706
5.34144713724762 3.51967236095695 9.29381035166213
4.21570331294752 6.33273258921842 3.23593939283902
4.06543226547449 6.26613260817965 3.26861952460178
5.2730264469553 8.9923543415219 3.9138488983031
4.90451084606842 7.93385784083906 5.67354163873497
4.58061740518596 7.72132464487081 5.53630072990166
5.38459039965962 3.33965392171067 8.92623356755195
4.25307900274635 2.95079289665157 9.49216002354205
4.28516979019208 3.02614461843556 9.18432609615137
4.32105648824536 5.2467169836289 5.05337813724064
3.92926730094947 6.66688259598427 7.74566804738526
3.88797900381097 6.38567428455127 7.8995932821132
3.95963026354993 8.10023888267164 3.1264761907581
5.30133405620442 5.99665814784969 0.80383918800469
4.31207249461953 2.59544706336035 9.47664010544767
4.35680574241158 2.56490599157528 9.163682800789
4.11986407153178 5.41020237973377 4.82478339542666
5.10505480730439 6.01511891982786 0.40784165830833
4.21693883016115 1.93427543819585 6.41866963547655
4.12043626609783 7.5462921026395 8.4777554476358
4.55271836615457 8.23362238376925 5.112101794853
4.38858734511479 8.02534783826906 5.13904486426526
4.35334540821256 0.98375173909324 4.20742103237043
5.49419823543109 7.62253481046892 8.32300714983913
5.26995621972856 7.64812197486335 8.77704056242413
4.54770519381242 5.32450546243278 8.93344823018561
4.34174111954793 8.54045344421687 9.36249811658786
4.4161528518136 5.50383617295774 8.72495694748307
4.13099826514363 6.47900773755978 3.18603930841599
4.47207826261485 1.20240519749191 4.76729722456034
4.75997769750666 1.12659477991608 4.37920371205598
4.1778681513797 1.89471576851492 5.7862020507425
4.23536967007699 2.1583326284968 5.99115531173522
4.68983746494136 0.36114076717518 3.34167058500901
4.0901918683279 8.49752257721561 9.02639110657029
4.10091198793357 7.47590893846785 8.12956126810134
5.18578178540493 3.78442461000128 6.79986220027343
4.69800503778039 6.94438178068073 4.38874417271617
4.94205150877421 9.04404079481713 3.43181078837025
5.08819577420338 8.7328205556522 3.06488104552512
4.81568514796811 0.41721322832545 3.23034431688149
4.71470116035936 0.79734623554738 2.97273356706159
5.04430280957996 8.83796610417748 3.66107708056797
5.18779133803327 8.55228895582886 3.41078007593873
5.09010767972192 3.46880635734979 6.58104261990655
4.7046597674357 3.40683978339487 6.62092857683099
5.46988417265188 7.12492848834496 8.41857736122371
5.28024481482119 7.28091604017171 8.79598721077038
4.83322334658933 1.86399736082379 2.780044728765
5.16032010022353 1.89580334880237 2.52771645952908
4.98644395813093 4.54539728969702 8.60373578270564
4.1831004063259 9.32853063527108 6.27681479663023
4.27727779476643 9.07040328975408 6.1631960388438
4.22493766006425 5.03841321362542 9.05817222728905
4.55664162761406 7.15721196281959 3.8202439794774
4.979847395766 5.03638826445973 8.78530944808734
4.92883138596653 4.64151270330686 8.81478549444872
4.14830890720941 1.59684109702583 6.36930855777345
4.91318771220203 1.9563295459324 2.24085387584154
4.57748488292495 1.92314290538131 2.46864712123038
4.80610835287902 6.03533356428956 4.11378374100379
4.38213826908577 5.70167725572189 0.84535994056453
5.05804962132401 4.77146470778856 8.40081959209358
5.04011627337621 5.07472347916991 8.55938008873365
4.24431782419816 5.84961751529221 1.2539789678789
4.47707007613852 5.65440262234119 1.1140250794704
4.87568442551091 6.22035480509178 4.40331845119734
5.18326066898136 6.10929767394947 4.56789281344195
4.29173228173006 6.84256005393 4.60140553935576
5.60856838166406 6.35435711032234 8.68101222143316
5.51852205473078 6.33856625121566 8.48888896880461
4.76111465457157 4.03227102938613 7.03508071337443
4.5619774477572 3.90847517395866 6.99042560844053
4.47483729604668 0.35474792139314 8.87052382889473
4.82185632500526 0.16561729405846 9.05493761519655
4.22124276567088 6.39199051104305 4.77040177002134
4.13707415314546 1.11636115942972 3.90648419722885
4.43790100269064 8.78128432119052 2.82466420224086
4.2220012887528 9.04689463669225 3.03728218337014
4.77739873980999 0.16631352707081 9.50181708636969
4.28305279735772 1.02507583383397 3.06839160959515
5.30213155382833 5.64007888025914 3.61269907250966
4.25664717466033 4.24779257963968 4.98416137965739
4.45499693187446 4.03429528520565 5.07708775907327
4.6157873444011 1.21077746529425 1.69690620753476
4.26556445406012 1.19041173238077 1.90424604637879
4.68839649386988 0.9790442082233 1.73325967178515
4.28835522999355 0.90358995828728 1.96716771140928
4.38880532213426 1.11669442853918 7.39547449558544
4.20501276630002 1.03889249406862 7.00626996642779
5.14709855702918 5.62043333797569 4.00874408946553
4.15052475147039 6.0824735818292 5.93938498356598
4.14059096806392 5.718757719539 5.94724339912059
4.32705709154848 4.01817938876005 5.30285467755193
4.18464351629878 9.34188065309348 2.60297400474645
4.44941167018146 8.95056945419213 2.47625727812051
4.92257714366357 3.62656062054742 1.98813673739567
5.54182536806966 6.74878572584887 3.42343828512618
5.54458081876442 6.8718581517712 3.27671974786893
4.69193203551576 3.83850171129171 1.91735724070063
5.48213898067574 4.10411036847034 8.70608939427143
5.41638817203568 3.62317806596271 8.56509451804491
4.62514616626384 7.98123374879689 1.68467853587444
4.29057882941765 7.93326761441842 1.82215233757532
4.63281802649625 7.64001845737173 1.87681187908728
4.32832124143911 7.69365359623336 1.94321489046734
5.3711518381958 1.24823790283097 4.20209037330941
5.37796281602934 0.99277524802505 4.29295231317267
4.54416918828369 3.21710192953042 2.48399131210441
4.81215656510899 3.23094285365887 2.35682683329413
5.30466193941734 1.09415119075342 8.17594729306612
4.22639351931926 5.05316852199652 6.95008333897857
5.39736992800069 6.61097857259951 1.18523760361058
5.32811235460649 6.57017776625454 1.15229903687073
5.38440326787351 6.54743795654833 1.0270084004308
5.13495807742978 0.72227288067025 8.23585747398791
4.94586564814081 0.7536041958226 8.59614191874273
4.25254305393135 2.18454844548675 7.7817629317805
4.44865581344176 1.81990047530632 7.82831216053566
4.6489156151245 0.65329167643275 9.90337111906629
5.22513114964803 1.31719153878585 8.41779562783938
5.02327931209197 1.18034992905185 8.68818852290983
4.26052681054762 1.40053240457925 3.60539345319019
4.29492261638647 1.17462650549061 3.10094291591223
5.24235580445225 2.27800273601089 8.12307085173516
5.32977219320655 3.96090704523714 4.2201722310847
4.72346291521916 1.38471646098334 3.13370635238045
4.71667127434892 1.58973033100263 3.58461163048603
4.43218040804352 0.37916970617761 9.65587505801928
4.19159329831071 0.50570858355502 9.40076126679897
4.18454178831779 0.743268130444 3.34027270316322
5.108416682126 3.74449910630851 4.05457187683665
4.23177278631924 1.19297137027372 9.52739468177893
4.55392012639251 1.13040023002 9.8041508760078
5.07444638088403 3.04319785132644 4.06790017134587
4.91899313041073 3.4506874744457 4.34981750122525
4.4147704317699 7.33019293976695 6.52873586411913
4.43618796378393 7.4075505617887 6.55597144991575
4.44112974063972 1.32374740365617 0.12995278518916
5.27215823930777 3.17210128502988 3.78170603273795
5.30103016168928 3.55389380307884 3.76952033051664
5.34077713803075 6.26949840048902 2.44118945594785
5.19847291848606 5.85876476759641 2.05114679437272
5.2958416760048 6.62581266250434 9.41832090478428
4.95809290522792 6.69866284156876 9.5506250005859
4.79523359658392 5.96291335113952 2.22279218626927
4.85022329865044 6.18420833701866 2.45006922415285
4.98982570705611 5.27176554060431 5.71207398827885
4.71869421295655 5.19957662052663 5.88240086215781
5.1888027896129 4.95647341484901 4.9160101392403
5.46517354388607 5.12814270062376 4.64837428025911
5.02071545069154 4.77691331151288 4.74638322713162
5.14931850102689 4.84230272735076 4.38206642536858
4.75174338813967 5.53848433608621 5.36766659937017
4.45724707469374 5.39647970309193 5.63706219713599
4.25552865759035 3.52571119328797 2.40066293918446
4.32966494015482 3.81931113391115 2.13070000364195
5.62141467826775 1.94357503180599 1.14422716883151
3.85528778681783 1.84192182704356 1.31127886136919
3.93048555032716 1.44811385881623 1.40063770151602
4.81829045360765 5.8350201800731 5.1876643816503
4.82052219382071 5.85856056933419 5.26306054586925
4.6222884682136 2.90147156812249 3.21271374127312
4.48159898821154 2.54698008738733 3.14697531789235
4.27993967399837 2.52926916820288 3.42820035665557
4.33512545473634 2.78642466445331 3.54369643479017
4.5858417654114865 6.694212734872263 0.4160731172794083
4.772976805398941 7.13365112048579 0.34610224378633997
4.555456197475252 6.767526059538258 9.367229355073883
4.554489411968464 9.447911184051693 1.3772767260236016
4.8649731169739185 6.17605333120594 7.448271867719076
4.9709568912734055 6.378230539272569 7.98818750027104
4.9422511122661 8.804236086302117 4.073777125970112
4.500026085116727 8.933598586354124 3.7115470900073
4.6800818859327915 9.850225109319485 4.32247627653134
5.178251192780204 6.162751035331476 2.8500036275105214
4.973963982568408 5.693985163834579 3.210538060685528
4.987308493261367 5.292183010495804 2.78840084678953
4.717127283231536 5.83603118909668 2.5661913556893223
4.756318129158258 6.61245497244739 6.515503327984308
4.543301722469755 6.356949508662049 6.085097176058457
4.4908609163497735 6.996659142399101 6.702773719004478
4.607449940899982 6.960198486855081 6.05650374919423
4.723957092293753 4.501109446324298 8.218162057750183
5.076386266987532 4.686376404685066 7.977298150088498
4.651297129572392 4.326246376754112 7.668023653789435
4.909951348295736 3.6686417103925333 7.74931571674842
5.013270706731048 3.911024680912796 8.49663916995196
4.682845118107294 2.7915160632036087 9.755839836045471
4.9199130659513575 3.1108939676263176 0.4653175338529175
4.703229091799041 2.6412308466953287 0.5668071995367266
4.406173102793672 3.1579301304523733 0.4402857724780034
4.675244619400985 7.77436372491544 7.556698637011068
4.758384056763403 7.597673400720868 6.973066964243814
5.000563159804794 8.1745262313277 6.48473692380455
4.802497661028458 7.731382194229174 6.410240104857562
4.971160906272952 8.077474818657274 7.124052494340884
4.509676281618632 8.534707906195994 6.866011892217408
4.583358510620839 9.51144453760948 7.025690106706293
4.604010388701225 9.21751591890338 6.400967454666371
4.931110727476936 8.723835662675768 6.4886429642082515
4.971980911628744 8.679181553136956 7.085342154659942
4.877435809213786 9.055359790400969 7.369690810036292
4.580310299578462 8.669985246697317 7.502082014980003
4.661826963652446 0.39637364522509 6.467544051940942
4.72852405248598 0.5819483982363439 6.864118705911042
5.024328546017656 0.403635859393782 7.358592595128218
4.994649914482092 9.553373245599495 7.4449287873825245
4.681929218322494 6.851818831263135 2.028263473285002
4.802060572013081 6.4847708715691255 1.3528554454333879
5.099242780748361 7.182967716755148 1.725764151046666
4.598763805276354 6.264353253478914 2.176234069830932
4.860962649779947 6.009379703025469 1.82835211227017
5.140142375506714 6.899428003138335 1.2999429410469059
4.796227532392698 6.321391329940942 6.909423434272784
4.617938027669624 6.633449348584302 7.21093545469532
4.588305614258638 5.890169834304079 7.092031247965074
4.567853340650219 5.78540742162633 7.689923838473492
4.371963653438595 6.35810638029086 7.715923245670402
5.001246007747554 9.051581072500909 1.7501217944328613
4.960066875584833 8.547703571253724 2.181507775267506
4.77276404896815 8.499248878506506 1.6812719078477325
4.466927454583704 8.730219016473487 0.48261340327032204
4.588576200692012 8.941044745011897 9.374088459571961
4.611745778047733 2.7797936759982735 6.3330384359064285
4.916760634264988 3.251886335685384 6.656487922505567
5.014304088950338 2.330634560287726 6.002752813037739
4.9709027618303585 3.1945794901022597 5.663435465514066
4.5805186800320365 2.630727229965 5.700437992235578
4.779122264741628 3.4540486207117183 6.2325342543915605
4.731371469878742 9.251290339962342 7.816085136460606
4.44767613988183 9.191230080041803 8.34741259170179
5.070654865141512 1.2191272303701817 1.9544418482283765
4.816008373045959 1.5712423859254983 1.558061812765804
5.081495719751328 0.77643798425245 1.737624076067106
4.737547348338935 1.0065487923144183 1.393380739643015
4.902197999167024 2.1225054237969863 8.14987929519656
4.979373946426078 1.9705391237358598 6.820430861473928
4.98946937598144 1.7198922048822058 7.183022830782221
4.752537843848429 1.7370886256284461 7.802036457009066
4.557509508917254 1.977616813463115 7.3647495391571995
4.9142664498535105 2.810996285999215 7.534259260351281
4.690199862277048 2.537285951068602 8.01908345882301
4.892495718114821 7.8210539651183355 0.8893202952843661
4.991185812378612 6.763805673285491 0.8823043402373539
4.655656034717668 7.335388220056686 0.9733506570936701
5.065368862201237 7.611047290874102 0.40889552625895503
4.776660791244304 0.47335706520824 1.099817632268448
5.110869244451292 0.9444249881394332 7.275449057087198
4.829057333944956 0.8769236966491981 6.351444749432008
4.867827044413619 1.4909485592642833 6.502187944297042
4.512839028463373 1.4039828915306658 7.048617197030369
4.774626109646942 1.275764411735508 7.496484680936717
4.575524239050563 1.3477145470555418 9.3692312101811
4.72721047402112 2.3558902096226317 9.43199751251827
4.743856134196085 1.94210938619438 9.068964892971596
4.744735951268485 7.646260135194081 1.5833413928352364
4.431014195814688 7.901080309582008 1.0797044110011282
5.093714151324326 2.5150127412506196 4.90878561681667
5.152800698262216 2.935434530579704 5.242264985464254
4.80708054109235 2.39822762428284 5.35522422333326
4.75350185454412 5.067523094858101 4.946367464581556
4.704679203089393 5.670489299032482 4.083451207346256
4.544147731701081 6.05989673373824 4.4092327446097155
4.450235894721377 5.696435455431877 4.943677775769653
4.548822581118477 5.1654105286915835 4.2671919151531625
4.844227196447081 0.43361482284203595 9.720576305562194
4.705500007532332 0.6497757550384379 5.188439528006712
4.631703834947045 9.380471775389992 2.423917961668171
4.668787211219659 8.9083039516309 3.1111137039850063
4.765428959344898 8.794497543743137 2.6371418535180537
5.041639804329028 0.44053997000970196 7.885904284007435
4.663093733885775 5.045795370306592 8.145421960915316
4.636400109888978 4.826302076669892 7.595170094759408
4.877139938169724 5.328221505080925 7.463525027570557
5.044608326677707 4.75081345961612 1.251622615084455
4.568774315994643 4.545780243116364 1.1936640519503983
4.610844811577762 3.9997579358697983 0.7527634023515817
4.96720141577722 8.227492929510595 5.017479458149618
4.73000226939573 9.299337357701079 5.043633456956255
4.597123380582784 8.618685403320516 5.446683210303989
4.779236575319482 9.064547117560839 5.615989066132166
5.048805960026622 8.52684550954563 4.5103351267149465
4.736679374103668 8.123070258388609 1.6286369542918975
4.929594926203937 7.883465885602163 2.050311733623602
4.8558399985909 7.397178112116156 1.9919274572022476
4.6509830832988595 2.137193117334566 4.439628390344782
4.479140613156465 2.5165839729968513 4.927674210909296
4.645678561499278 3.172213644694112 4.227535577874404
4.75042021161413 3.4777522454044254 4.542555104354287
4.796392603531681 3.163269919200496 4.92988851522722
4.883446753341114 2.584598376764992 4.1040826336519105
4.47435793226239 1.7581395079463882 6.600999656500184
5.19794032338405 2.15563552116422 0.739303970903988
4.631796520720433 2.0240987039342864 0.913601190898872
4.676523959908193 2.1556852598430383 1.433056684157754
5.159302573607887 2.82728458920243 0.998973296302525
4.686911111093444 2.757018937845088 1.4111784470202182
4.644973940500767 0.7569273839142361 0.885830898357872
4.3400516550622665 0.5664780787666458 1.653232161265206
4.298885880414592 1.700903224487336 1.303347700680612
4.492792261258503 2.5152165160690916 1.7808502517205362
4.69225197600618 3.3865766101603283 8.686125030233807
4.656103892703017 2.8433774391930213 8.992812105628788
4.6850949785064895 3.1161700955161122 7.915425716819923
4.7805503073633115 2.37260468162254 8.606297784133377
4.990681542035328 8.411076424876375 3.183222056155314
4.584753646787573 8.41502161746247 2.942269978479932
4.81637211148445 8.361955605058457 3.747407929862822
4.427601754650227 8.036795361790064 3.342651620438567
4.5110904393542794 6.596389779162315 3.4571214482421335
4.369866027129793 6.139786594110131 3.706965849562772
4.77393771770674 6.870516423392695 3.9684544936161723
4.630826062036435 0.824901250742666 2.103380247831146
4.657127301055361 9.839786369503564 1.945987453825645
4.626671685325664 6.626293545189248 8.623476075274347
4.578330910401695 7.057675022259453 8.215703735577637
4.689241238666358 6.817341846840297 7.662563105860047
4.52947740164536 2.944791488898848 5.3149440083664405
4.635074975468072 1.945205227808896 5.147383955216444
4.97496169680221 2.59126237321586 3.1343413515238616
4.799512324449477 2.950941190291852 3.6320239070185854
4.554776514044411 2.247903077458024 3.4086961754230742
4.727155038038825 2.07188055026556 3.8845281251660326
5.16280825509999 2.072045352699046 3.4267611699016243
4.98087813654923 4.4379948079048255 6.3011405798483215
4.724688696629354 4.347544435137396 5.786630687262009
4.507747394070102 4.286241688609033 6.7404201490759705
5.024566916412818 4.137985454780153 6.776435050794047
4.801808274440024 3.7598742771591263 5.753955715436585
4.98342926725722 3.107649737537474 1.4453065332612
4.459733640443891 3.347013776200327 1.3089063433155765
4.818815430427685 3.6193237275622545 1.6471933895836237
4.906072068193246 7.322982279963185 7.680492196215471
4.828878325318749 7.303549307189639 6.568880709714354
4.529426723662444 2.1966104904580184 2.757232869896503
4.797899615239093 3.11188943335605 3.105135437908973
4.810428922502501 3.2467738586578134 2.708997806575744
5.000775086284741 5.332917823440125 1.8382071065528736
4.77703398365398 5.400092005631547 1.2859383082882498
4.645982874935806 5.898118571840724 1.320646870833046
4.576652762008567 5.207447632902526 2.299270793293104
4.664093600059816 5.296316995451644 3.134930917440868
4.960257921546342 4.576958440226612 3.231292186630808
4.790293983892028 4.375895755865826 2.6832643109024716
4.598340880942396 4.85072145533221 3.3637810193063538
5.00686628973353 4.864573418947266 2.35399114622443
4.475475281005746 4.654254911490028 2.267156765803968
4.678818563290486 1.035519786209136 8.653793397808561
4.891194393233668 1.516006055894608 8.397655843114821
4.729777088087131 0.65758652066904 8.265015247569035
4.780522042523154 1.7686365811975002 3.2447241817705184
5.039193120096491 1.330896407416235 3.4794557520833096
5.0961312312592755 1.5166861816939583 2.7677227258003683
5.039189559608646 6.207445940669245 8.779118572511535
4.96741775123359 5.311606884310817 9.129904253168773
5.176841504189633 5.81559595172374 9.274552635368527
4.712540153172302 5.2837494191811984 8.677703502046022
4.588929806813811 8.930861669887364 5.953241192094118
4.7547353290509635 0.14566889151627166 6.018901603153993
4.996511096051804 8.907398257898276 6.052068958364206
5.065158722962863 4.09726418031801 3.022221476503488
5.057053245447496 3.992604625034486 2.059841571461374
4.8616502643304855 7.87678566524113 3.6500691380529178
4.898000753841912 7.388332326933869 3.526728958179774
4.529646934629935 7.8577811184562165 2.8246808780527686
4.440377625937724 7.332229242468896 2.738512753794082
5.001483306645547 7.814249615977593 3.2096582675323275
4.613391739487942 7.03545323330917 3.15306983366676
4.983102414480292 7.994069534661807 4.500850501282992
4.707912881392426 7.920174111328725 4.100434357772026
5.227660319545762 7.75508319736564 3.957400325449335
4.372660519939075 5.342983701911572 3.6462070745937716
4.786093928016736 4.586723527009515 3.671962285498555
5.147746766278024 7.840360217605681 6.0410234484033
4.823795191659465 8.391061006890965 5.949209979563851
4.930913777865026 9.082045443043524 8.232117779949311
4.851147756281682 0.28966396969837 5.412134263596556
4.859717231410171 1.377352550869798 8.911846709855405
5.147703995970168 2.397004897730814 9.046473413527576
4.494267071489314 7.500946291896895 8.713944299881742
5.027242113889506 7.8422525141437 7.6975732317793755
4.512004289424857 7.791522607447447 8.053364466831587
5.056056593834982 7.09613103942609 8.556400959920396
4.648578063203476 2.9059210958669297 7.065646344911876
4.60820805223142 3.9571314841035403 7.297316882553707
5.079864884914515 3.8756450460917558 7.157528171100606
4.709612106705306 1.245706548822808 5.9266298640100645
4.837153622848902 1.628323047875178 5.535924219779919
4.616052935949063 2.170851047649412 6.39437318763429
5.052955630013324 5.11587849248706 1.271170949100408
4.805764455035616 4.709687513524338 1.73087258921539
4.954467764673249 4.8662735697256 5.799224894859656
4.753277891879992 4.084878037492271 5.275001458552843
4.660633911562482 4.411028333286444 4.913525082998105
5.064151860112662 5.132189350091097 5.336569449184008
4.831173950789575 6.305000729983776 5.515548420008125
4.923185502849563 6.621358260253505 5.885533011240906
4.988162007341997 6.301559497108664 6.368954691300279
5.082673674004933 5.684643754235407 5.584404758580099
4.466592672393778 5.825774329460322 5.61788593000303
4.752849870930031 5.749858137853832 6.52904460835603
4.571308322752087 6.845551404110649 2.6569929984856424
4.727475395843053 6.169698006160175 3.30340094643943
4.4539950033886315 6.369876331364236 2.826804051220305
4.760933445400694 7.34320714680153 4.190213108126228
4.707944444875595 4.6868793289257225 6.7432342888835475
4.811071110751825 4.473013671432214 7.181982877895976
4.814530920355367 1.805242866496886 0.5474150827296841
4.657419713920978 1.2931133905866958 0.5956353869944981
5.037776426667409 5.122744356394365 6.686317199920068
5.075846249871998 6.04623006832765 6.876816933620413
5.026533945679188 0.49908555668652493 3.6969583908596633
4.8594724403304035 3.4034551707862466 0.8302417090985584
4.651667111161128 3.6952883275717183 0.28467799916499
4.75650913483075 3.7687274300959097 1.2211550886536073
4.782177769715809 7.654220832724352 9.207173969595038
4.79382695697039 8.225335459255279 9.283583458257487
5.068686439789988 8.167537381814428 2.6900205339942533
4.393755193742579 9.37846599483342 8.93717797946769
4.806005927025508 6.872893993088084 5.525559674945074
5.001295360811917 7.470182612458771 5.5176499361471345
4.62281162670815 4.912567152813869 8.911022587960586
4.711606698418334 4.357341487401962 9.20956323374352
4.574296715710933 8.847476353718893 2.2325284163751924
4.785269631921119 5.687334106652839 5.267932566095435
4.837771111386132 6.179973130830533 0.2951030048937325
4.813905914752478 8.299259725884683 8.237092188599641
4.957932086951328 8.611969623773437 8.613455123170304
4.913213144814926 1.0280508773589498 5.354858919295928
4.408618905162339 8.50938602350342 1.26377035138883
4.666797650157532 7.595418826770147 4.62239597444102
4.440304782870208 6.273845339688074 5.1533327667094015
5.078848886543414 0.9582367810816649 2.5666951089043235
5.0492101518788965 0.793120730231206 3.2180309702743335
4.9633656706514735 7.096737119834988 4.986225623025832
5.142005390313811 1.1344566394759221 4.2990436653547395
4.711595217198174 1.5871613439191563 4.61337056077112
5.04009495247291 3.3477734028215864 9.602052930062063
5.072831305474242 3.9040675593387624 9.366119191880761
4.996057987265684 3.36182225112466 9.10920344649777
4.471744803657139 1.53262162166918 2.8093344871383086
5.069054974967486 7.035386133905781 9.171991618578344
4.870937670256242 3.80258366987141 4.84322418532281
4.662643846917717 3.708934385060636 4.156905988662716
4.973418827781924 4.225151158143164 3.9956203040258367
4.464343027108272 8.34574150817702 1.927858873666388
4.756873676708036 4.105594243709776 1.5999289777647299
4.602226831059833 1.096076020909884 3.0650947846782737
4.619121981492469 1.3192776827960613 3.96902345708743
4.926563202827519 3.7921641589453676 3.622983941523812
4.618486533965053 4.425474462477905 8.682354713450497
4.85391656244249 8.334798796976308 7.649489161666142
4.827014439875894 5.8433035370501285 0.7986453058150667
4.91035927472181 0.905511422482496 9.796959084496503
5.0652823232541015 0.309358333866402 9.325272092726848
4.782027806253518 0.45789585353858203 8.817901675947848
4.84712991982323 9.546193399901966 8.558702336142579
4.98469116443138 8.784178421465398 9.14144440266771
4.511595830810134 8.602366524710607 8.38622847476495
4.951180321857349 9.399212129416975 9.124579561463593
4.970780192117741 8.784875135375067 0.8902580303154917
5.134474208016292 6.845400629550636 6.940748712864203
4.607193543395528 1.5977784108881732 2.106690298439062
4.903264829157908 8.230701971283791 0.5538511089145861
4.609694868968331 7.597561593960064 2.270201919109054
5.10597420560418 4.1817829470783145 1.0699152846397084
5.0409866424432845 7.51188410289694 8.852248219177572
4.62323175895537 7.951105001005049 9.589224079312434
4.625811780633859 2.8224633095979037 2.2065672342564584
4.635625597694866 4.163412957746368 2.142839227337674
4.958629518533234 5.646803944691758 2.21566760054773
5.051064088387638 5.532664694243517 8.340191163820077
4.806182686227606 4.847318301824188 4.525050348289956
4.9868388908508 5.3685879643195475 6.066016961264346
5.161811078709851 6.886461741389574 3.447065782865814
5.01497181841458 6.907887310512763 4.478708638643804
5.1057120947334 9.58623539176217 1.453508349788344
4.746617091855071 0.764626956442895 4.192820907888971
4.770032215072126 8.05941374629438 8.857082182201518
4.823970177460878 1.477272338129774 1.11328262906434
4.689873321822028 2.401902629578062 7.1163442601285585
4.741769634800065 8.969161925199002 1.29403404886239
4.579061709421879 2.230674048288484 2.238159252670826
4.6451976307909675 6.995154157050088 1.486718704358344
5.152451689791543 5.4464285313400795 4.934295904047271
4.986444143024584 0.894025646648528 7.8512146233109235
4.691810469609214 9.388641770947883 3.448244886202456
4.604247084254331 4.64655559415766 4.150763804634702
4.811333690980605 0.9745466332981781 4.765358059772762
5.093937743856771 7.814966273396017 8.390692933881462
5.114421436473758 1.090349017139682 0.9981357992499781
4.445350414580683 8.398988089324005 9.027064728331416
4.707898819274239 3.5654384115555877 3.1285940002366877
5.038618327057168 6.4539265313238605 2.419071484396046
4.68936511520707 9.061727265230896 4.53616259343717
4.580141316707376 6.530570227613169 4.528202610357682
4.802686771784712 8.739476315151851 7.851043799873983
5.182724236440403 5.743887802604529 7.845954033825041
4.523258277671934 7.038034605791895 4.65940583753578
4.889774121469575 1.7267439947338752 3.7272281890462025
4.710526438699302 5.872639975854255 8.01145871415683
4.9585317008557395 6.38930538976871 9.337787142256937
4.985349570466558 9.223655310056671 1.2502874207760575
4.684848959276042 9.55403688727783 4.57100546457009
4.811381179726415 6.019085752100274 8.396462247152435
4.882714415321803 2.037882643199025 4.780832358758465
4.595031049703592 4.906303975942914 7.076609332774815
4.974582572600394 8.02883331065875 1.364650126614192
4.828330866378972 3.445959297114453 8.201626970235068
4.67052393481727 8.029103979473481 5.3835370302526995
4.896226846600164 6.044726178219372 4.768413913425972
5.027296484092612 8.554664966385403 1.364739966326678
4.963693878896558 9.670224061921825 3.8229024599901082
4.522796882633863 2.0859121083333503 5.7115598564930545
4.596440378425216 7.8288885833010635 5.881728891954304
4.5375636717888685 0.6688088390651961 3.1906825563420917
4.860728266978265 3.720163390818146 6.805467943765185
4.8710540104849605 1.9098182902349674 2.5043155463415
4.539573213443232 0.31431140645100797 9.296782971055842
4.59267142171953 3.5430215737045896 2.212945844386875
5.046176737937793 6.068846214060903 2.2912994151856725
4.729377595711518 5.35157655007727 5.6498009117357055
POLYGONS 983 3932
3 217 793 275
3 275 793 233
3 233 793 1
3 1 794 233
3 233 794 7
3 7 794 6
3 6 794 5
3 3 795 771
3 771 795 427
3 437 796 489
3 489 796 231
3 391 797 444
3 444 797 483
3 583 798 444
3 444 798 483
3 349 799 411
3 411 799 209
3 209 799 669
3 614 800 665
3 665 800 669
3 669 800 209
3 446 801 447
3 447 801 606
3 606 801 554
3 17 802 360
3 360 802 773
3 359 803 360
3 360 803 17
3 272 803 359
3 398 804 399
3 399 804 359
3 359 804 272
3 360 805 773
3 773 805 772
3 21 806 19
3 248 806 249
3 249 806 21
3 21 807 19
3 23 807 21
3 248 808 249
3 249 808 763
3 23 809 21
3 21 809 249
3 249 809 763
3 27 810 689
3 689 810 677
3 677 810 224
3 27 811 28
3 689 811 27
3 27 812 28
3 28 812 29
3 29 812 310
3 29 813 310
3 310 813 513
3 513 813 514
3 505 814 506
3 677 814 224
3 224 814 505
3 36 815 37
3 37 815 552
3 641 815 401
3 401 815 36
3 246 816 294
3 294 816 266
3 294 817 246
3 246 817 337
3 337 817 34
3 38 818 266
3 266 818 294
3 57 819 59
3 59 819 50
3 59 820 50
3 764 820 62
3 62 820 61
3 61 820 59
3 60 821 218
3 218 821 618
3 618 821 55
3 55 822 618
3 618 822 619
3 619 822 764
3 764 822 62
3 56 823 60
3 59 823 57
3 57 823 56
3 56 824 60
3 60 824 218
3 561 825 481
3 481 825 448
3 448 825 66
3 65 826 376
3 376 826 481
3 481 826 561
3 60 827 218
3 218 827 65
3 65 827 376
3 56 828 60
3 456 828 56
3 448 829 66
3 66 829 455
3 455 829 456
3 56 830 456
3 456 830 455
3 67 831 212
3 212 831 214
3 512 831 67
3 72 832 68
3 214 832 212
3 212 832 72
3 72 833 68
3 68 833 75
3 75 833 74
3 69 834 66
3 66 834 448
3 77 835 283
3 347 835 346
3 346 835 77
3 78 836 236
3 236 836 468
3 468 836 300
3 300 836 740
3 77 837 283
3 283 837 299
3 772 838 773
3 773 838 347
3 78 839 236
3 236 839 80
3 80 839 772
3 772 839 769
3 299 840 300
3 300 840 740
3 248 841 484
3 484 841 13
3 13 841 438
3 52 842 483
3 483 842 484
3 484 842 248
3 46 843 391
3 391 843 13
3 13 843 438
3 46 844 391
3 391 844 444
3 444 845 483
3 483 845 52
3 83 846 86
3 86 846 540
3 540 846 557
3 85 847 86
3 86 847 83
3 85 848 86
3 540 848 573
3 573 848 85
3 378 849 328
3 328 849 582
3 522 850 523
3 523 850 452
3 88 851 550
3 550 851 549
3 549 851 586
3 550 852 88
3 88 852 672
3 672 852 671
3 590 853 586
3 586 853 549
3 89 854 92
3 508 854 94
3 94 854 89
3 586 855 590
3 590 855 92
3 92 855 89
3 672 856 671
3 671 856 508
3 508 856 94
3 97 857 69
3 69 857 66
3 367 857 97
3 97 858 296
3 367 858 97
3 335 859 711
3 711 859 713
3 713 859 543
3 240 860 241
3 241 860 711
3 711 860 335
3 543 861 713
3 713 861 534
3 357 862 443
3 443 862 534
3 534 862 713
3 100 863 103
3 103 863 355
3 355 863 387
3 572 864 252
3 252 864 107
3 102 865 101
3 101 865 107
3 100 866 103
3 101 866 102
3 102 866 100
3 107 867 101
3 252 867 107
3 106 868 104
3 104 868 580
3 580 868 571
3 104 869 106
3 106 869 387
3 387 869 355
3 220 870 379
3 379 870 202
3 529 870 220
3 1 871 233
3 740 871 300
3 300 871 1
3 300 872 299
3 299 872 529
3 529 872 220
3 5 873 6
3 202 873 379
3 379 873 5
3 9 874 534
3 534 874 443
3 443 874 109
3 72 875 68
3 68 875 292
3 292 875 293
3 214 876 215
3 215 876 533
3 212 876 214
3 107 877 114
3 114 877 215
3 215 877 533
3 107 878 101
3 114 878 107
3 101 879 102
3 102 879 293
3 293 879 292
3 306 880 308
3 308 880 423
3 423 880 760
3 116 881 117
3 117 881 238
3 238 881 401
3 401 881 641
3 116 882 117
3 117 882 308
3 308 882 306
3 283 883 299
3 299 883 529
3 529 883 530
3 220 884 529
3 529 884 530
3 323 885 462
3 495 885 323
3 92 886 323
3 323 886 495
3 92 887 323
3 323 887 462
3 348 888 776
3 776 888 778
3 778 888 219
3 122 889 687
3 687 889 717
3 717 889 304
3 304 889 123
3 518 890 693
3 693 890 687
3 687 890 122
3 518 891 787
3 787 891 348
3 352 892 353
3 353 892 304
3 304 892 123
3 40 893 746
3 746 893 755
3 755 893 706
3 706 893 39
3 311 894 457
3 457 894 392
3 392 894 605
3 128 895 201
3 201 895 200
3 200 895 83
3 83 895 722
3 665 896 666
3 666 896 129
3 129 896 704
3 614 896 665
3 84 897 129
3 129 897 704
3 722 897 83
3 83 897 84
3 74 898 75
3 75 898 342
3 342 898 742
3 524 899 690
3 690 899 689
3 689 899 27
3 27 900 28
3 28 900 538
3 538 900 519
3 46 901 391
3 538 901 519
3 519 901 46
3 131 902 132
3 132 902 270
3 270 903 271
3 132 903 270
3 205 904 267
3 267 904 415
3 271 904 205
3 140 905 216
3 216 905 647
3 647 905 503
3 137 906 139
3 460 906 461
3 461 906 384
3 384 906 137
3 134 907 138
3 138 907 503
3 503 907 647
3 134 908 138
3 138 908 136
3 136 908 137
3 137 908 139
3 140 909 216
3 216 909 411
3 411 909 349
3 530 910 573
3 573 910 85
3 85 910 729
3 284 911 731
3 731 911 729
3 729 911 85
3 77 912 283
3 283 912 731
3 731 912 284
3 421 913 221
3 221 913 546
3 546 913 463
3 323 914 462
3 462 914 463
3 383 915 761
3 761 915 762
3 762 915 146
3 148 916 496
3 496 916 762
3 762 916 146
3 148 917 496
3 496 917 495
3 495 917 323
3 383 918 421
3 421 918 221
3 761 918 383
3 107 919 114
3 252 919 107
3 34 920 337
3 454 920 34
3 150 921 240
3 240 921 454
3 454 921 34
3 98 922 240
3 240 922 150
3 250 922 251
3 251 922 98
3 149 923 326
3 326 923 294
3 294 923 246
3 250 924 251
3 251 924 149
3 149 924 326
3 357 925 443
3 443 925 109
3 9 926 534
3 534 926 713
3 240 927 241
3 150 927 240
3 250 928 251
3 251 928 419
3 419 928 450
3 505 929 506
3 506 929 151
3 151 929 547
3 151 930 388
3 388 930 116
3 547 930 151
3 106 931 104
3 513 931 514
3 514 931 106
3 116 932 388
3 388 932 387
3 387 932 355
3 129 933 153
3 153 933 343
3 153 934 129
3 129 934 704
3 281 935 282
3 282 935 343
3 669 935 209
3 209 935 281
3 153 936 343
3 343 936 282
3 559 937 560
3 628 937 64
3 64 937 559
3 628 938 64
3 64 938 687
3 687 938 122
3 559 939 560
3 664 939 482
3 482 939 559
3 713 940 543
3 543 940 305
3 128 941 201
3 201 941 500
3 500 941 231
3 157 942 315
3 315 942 584
3 584 942 459
3 51 943 12
3 12 943 315
3 315 943 157
3 51 944 12
3 12 944 483
3 483 944 52
3 89 945 92
3 92 945 323
3 462 946 463
3 608 946 591
3 591 946 462
3 527 947 789
3 789 947 790
3 790 947 213
3 383 948 761
3 761 948 766
3 766 948 527
3 527 948 789
3 213 949 408
3 790 949 213
3 408 950 465
3 465 950 221
3 221 950 421
3 213 951 408
3 408 951 465
3 163 952 162
3 162 952 280
3 280 952 143
3 280 953 143
3 143 953 417
3 417 953 255
3 163 954 162
3 698 954 163
3 663 955 698
3 698 955 163
3 255 956 256
3 256 956 94
3 94 956 508
3 417 956 255
3 166 957 326
3 326 957 149
3 166 958 164
3 326 958 166
3 166 959 164
3 164 959 726
3 726 959 723
3 51 960 12
3 59 960 50
3 50 960 51
3 249 961 763
3 763 961 764
3 764 961 62
3 686 962 675
3 675 962 213
3 213 962 790
3 336 963 555
3 555 963 527
3 527 963 789
3 336 964 555
3 736 964 735
3 735 964 336
3 301 965 302
3 302 965 440
3 398 965 301
3 302 966 440
3 440 966 121
3 121 966 692
3 78 967 121
3 121 967 692
3 236 967 78
3 301 968 398
3 398 968 399
3 173 969 127
3 359 969 272
3 272 969 173
3 172 970 174
3 370 970 242
3 242 970 172
3 242 971 370
3 370 971 369
3 369 971 485
3 485 971 350
3 173 972 127
3 172 972 174
3 174 972 173
3 485 973 301
3 301 973 398
3 350 974 485
3 485 974 301
3 470 975 743
3 743 975 748
3 748 975 307
3 100 976 103
3 103 976 307
3 307 976 748
3 470 977 743
3 743 977 742
3 742 977 342
3 213 978 408
3 753 978 675
3 675 978 213
3 178 979 753
3 753 979 754
3 754 979 466
3 178 980 753
3 753 980 675
3 199 981 428
3 428 981 473
3 584 981 459
3 459 981 199
3 682 982 652
3 652 982 254
3 254 982 180
3 180 983 254
3 254 983 428
3 428 983 473
3 524 984 690
3 690 984 682
3 682 984 652
3 65 985 138
3 138 985 134
3 226 986 227
3 227 986 184
3 512 986 67
3 67 986 226
3 376 987 65
3 65 987 138
3 370 988 242
3 242 988 375
3 375 988 556
3 486 989 726
3 726 989 723
3 186 990 282
3 282 990 343
3 344 990 186
3 344 991 186
3 186 991 681
3 681 991 560
3 560 991 225
3 118 992 153
3 204 992 285
3 285 992 118
3 185 993 223
3 223 993 285
3 285 993 204
3 118 994 153
3 153 994 343
3 185 995 223
3 223 995 225
3 225 995 560
3 187 996 171
3 171 996 216
3 216 996 140
3 187 997 171
3 186 997 187
3 187 998 186
3 186 998 344
3 127 999 173
3 173 999 304
3 304 999 123
3 172 1000 174
3 174 1000 339
3 339 1000 340
3 631 1001 618
3 618 1001 55
3 65 1002 138
3 631 1002 618
3 618 1002 218
3 218 1002 65
3 368 1003 367
3 367 1003 97
3 184 1004 227
3 392 1004 605
3 605 1004 184
3 306 1005 307
3 307 1005 748
3 308 1005 306
3 116 1006 117
3 388 1006 116
3 575 1007 366
3 366 1007 206
3 57 1008 59
3 551 1008 57
3 57 1009 551
3 551 1009 575
3 157 1010 206
3 206 1010 674
3 315 1010 157
3 580 1011 571
3 571 1011 550
3 550 1011 88
3 29 1012 310
3 698 1012 29
3 663 1013 698
3 698 1013 29
3 189 1014 112
3 215 1014 533
3 533 1014 189
3 189 1015 112
3 112 1015 608
3 608 1015 591
3 252 1016 572
3 572 1016 549
3 549 1016 586
3 131 1017 132
3 132 1017 302
3 302 1017 440
3 132 1018 270
3 485 1018 301
3 301 1018 302
3 302 1018 132
3 774 1019 775
3 775 1019 280
3 280 1019 143
3 417 1020 418
3 418 1020 190
3 190 1020 710
3 255 1020 417
3 710 1021 190
3 190 1021 778
3 778 1021 219
3 776 1022 348
3 348 1022 780
3 780 1022 774
3 161 1023 23
3 23 1023 24
3 24 1023 788
3 21 1024 23
3 23 1024 161
3 21 1025 19
3 19 1025 438
3 438 1025 412
3 774 1026 780
3 780 1026 788
3 780 1027 788
3 788 1027 24
3 565 1028 479
3 479 1028 412
3 412 1028 438
3 185 1029 223
3 223 1029 346
3 346 1029 347
3 17 1030 64
3 64 1030 628
3 360 1030 17
3 360 1031 773
3 773 1031 347
3 187 1032 186
3 664 1032 395
3 395 1032 187
3 163 1033 162
3 581 1033 539
3 539 1033 163
3 163 1034 698
3 698 1034 29
3 34 1035 454
3 520 1035 244
3 244 1035 537
3 537 1035 34
3 357 1036 520
3 520 1036 244
3 479 1037 565
3 565 1037 581
3 581 1037 539
3 412 1038 438
3 438 1038 13
3 234 1039 616
3 616 1039 660
3 660 1039 667
3 266 1040 294
3 294 1040 326
3 326 1040 166
3 266 1041 267
3 267 1041 415
3 38 1041 266
3 166 1042 164
3 271 1042 205
3 205 1042 166
3 206 1043 366
3 366 1043 235
3 235 1043 317
3 317 1043 207
3 235 1044 317
3 317 1044 476
3 452 1044 477
3 477 1044 235
3 118 1045 153
3 153 1045 129
3 296 1046 297
3 297 1046 522
3 25 1047 23
3 23 1047 161
3 601 1047 358
3 358 1047 25
3 601 1048 358
3 358 1048 632
3 632 1048 631
3 652 1049 682
3 682 1049 683
3 683 1049 193
3 194 1050 390
3 390 1050 683
3 683 1050 193
3 83 1051 86
3 722 1051 83
3 780 1052 788
3 788 1052 787
3 787 1052 348
3 196 1053 217
3 217 1053 275
3 644 1053 196
3 368 1054 576
3 576 1054 575
3 575 1054 551
3 477 1055 576
3 576 1055 368
3 457 1056 311
3 311 1056 112
3 112 1056 189
3 540 1057 573
3 573 1057 530
3 171 1058 187
3 187 1058 395
3 395 1058 396
3 518 1059 787
3 787 1059 788
3 788 1059 24
3 178 1060 668
3 668 1060 305
3 305 1060 543
3 178 1061 668
3 668 1061 667
3 395 1062 396
3 396 1062 358
3 358 1062 601
3 458 1063 657
3 657 1063 424
3 463 1064 546
3 546 1064 424
3 424 1064 657
3 548 1065 552
3 552 1065 37
3 627 1065 548
3 194 1066 390
3 627 1066 548
3 548 1066 194
3 547 1067 548
3 548 1067 627
3 151 1067 547
3 686 1068 675
3 675 1068 753
3 3 1069 206
3 206 1069 674
3 771 1069 3
3 496 1070 148
3 148 1070 710
3 710 1070 190
3 146 1071 762
3 762 1071 758
3 758 1071 239
3 339 1072 340
3 340 1072 239
3 239 1072 758
3 85 1073 86
3 729 1073 85
3 270 1074 271
3 726 1074 486
3 486 1074 270
3 178 1075 668
3 753 1075 178
3 424 1076 466
3 466 1076 754
3 657 1076 424
3 239 1077 375
3 375 1077 556
3 758 1077 239
3 224 1078 677
3 677 1078 683
3 683 1078 193
3 56 1079 57
3 57 1079 551
3 456 1079 56
3 644 1080 196
3 196 1080 688
3 688 1080 692
3 692 1080 121
3 423 1081 760
3 760 1081 746
3 746 1081 40
3 39 1082 706
3 706 1082 701
3 700 1083 701
3 701 1083 168
3 168 1083 743
3 743 1083 470
3 296 1084 297
3 97 1084 296
3 452 1085 477
3 523 1085 452
3 367 1086 368
3 368 1086 576
3 523 1087 522
3 522 1087 297
3 557 1088 437
3 437 1088 582
3 582 1088 328
3 248 1089 249
3 484 1089 248
3 685 1090 686
3 711 1090 335
3 335 1090 685
3 202 1091 379
3 379 1091 378
3 378 1091 328
3 284 1092 285
3 285 1092 204
3 731 1092 284
3 270 1093 271
3 271 1093 205
3 206 1094 366
3 674 1094 206
3 476 1095 317
3 317 1095 207
3 419 1096 420
3 420 1096 736
3 736 1096 735
3 450 1096 419
3 485 1097 486
3 486 1097 726
3 350 1097 485
3 398 1098 399
3 399 1098 772
3 772 1098 769
3 464 1099 524
3 524 1099 690
3 583 1099 464
3 352 1100 353
3 778 1100 219
3 219 1100 352
3 774 1101 775
3 775 1101 565
3 565 1101 479
3 559 1102 560
3 560 1102 225
3 395 1103 664
3 664 1103 482
3 231 1104 489
3 500 1104 231
3 234 1105 458
3 458 1105 657
3 616 1105 234
3 235 1106 366
3 366 1106 575
3 576 1106 477
3 477 1106 235
3 240 1107 241
3 241 1107 357
3 357 1107 520
3 571 1108 572
3 572 1108 252
3 580 1108 571
3 437 1109 557
3 557 1109 540
3 686 1110 685
3 685 1110 419
3 419 1110 450
3 299 1111 300
3 283 1111 299
3 776 1112 348
3 348 1112 787
3 292 1113 293
3 742 1113 342
3 342 1113 292
3 595 1114 596
3 614 1114 665
3 665 1114 595
3 339 1115 340
3 352 1115 353
3 353 1115 339
3 458 1116 657
3 657 1116 656
3 656 1116 311
3 311 1116 457
3 551 1117 575
3 575 1117 366
3 357 1118 443
3 520 1118 357
3 452 1119 477
3 477 1119 576
3 375 1120 556
3 556 1120 555
3 555 1120 336
3 346 1121 347
3 347 1121 773
3 411 1122 349
3 349 1122 461
3 461 1122 460
3 482 1123 664
3 518 1123 693
3 693 1123 482
3 367 1124 368
3 456 1124 455
3 455 1124 367
3 391 1125 444
3 444 1125 583
3 395 1126 396
3 664 1126 395
3 466 1127 754
3 754 1127 408
3 408 1127 465
3 464 1128 583
3 583 1128 444
3 427 1129 428
3 428 1129 473
3 771 1129 427
3 437 1130 489
3 557 1130 437
3 446 1131 447
3 447 1131 461
3 461 1131 460
3 459 1132 464
3 464 1132 583
3 584 1132 459
3 462 1133 463
3 463 1133 546
3 538 1134 539
3 539 1134 581
3 519 1134 538
3 529 1135 530
3 530 1135 573
3 505 1136 506
3 514 1136 513
3 513 1136 505
3 631 1137 632
3 647 1137 503
3 503 1137 631
3 787 1138 518
3 518 1138 693
3 573 1139 540
3 540 1139 557
3 595 1140 596
3 596 1140 554
3 554 1140 606
3 590 1141 591
3 591 1141 608
3 586 1141 590
3 632 1142 631
3 631 1142 618
3 667 1143 668
3 660 1143 667
3 671 1144 672
3 672 1144 699
3 699 1144 698
3 698 1144 663
3 685 1145 686
3 686 1145 675
3 700 1146 701
3 701 1146 706
3 723 1147 726
3 735 1147 736
3 736 1147 723
3 769 1148 772
3 772 1148 773
3 774 1149 775
3 780 1149 774
CELL_DATA 983
SCALARS cell_scalars int 1
LOOKUP_TABLE default
0 0 0 0 0 0 0 0 0 0 0 0 0 0 0 0 0 0 0 0 0 0 0 0 0 0 0 0 0 0 0 0 0 0 0 0 0 0 0 0 0 0 0 0 0 0 0 0 0 0 0 0 0 0 0 0 0 0 0 0 0 0 0 0 0 0 0 0 0 0 0 0 0 0 0 0 0 0 0 0 0 0 0 0 0 0 0 0 0 0 0 0 0 0 0 0 0 0 0 0 0 0 0 0 0 0 0 0 0 0 0 0 0 0 0 0 0 0 0 0 0 0 0 0 0 0 0 0 0 0 0 0 0 0 0 0 0 0 0 0 0 0 0 0 0 0 0 0 0 0 0 0 0 0 0 0 0 0 0 0 0 0 0 0 0 0 0 0 0 0 0 0 0 0 0 0 0 0 0 0 0 0 0 0 0 0 0 0 0 0 0 0 0 0 0 0 0 0 0 0 0 0 0 0 0 0 0 0 0 0 0 0 0 0 0 0 0 0 0 0 0 0 0 0 0 0 0 0 0 0 0 0 0 0 0 0 0 0 0 0 0 0 0 0 0 0 0 0 0 0 0 0 0 0 0 0 0 0 0 0 0 0 0 0 0 0 0 0 0 0 0 0 0 0 0 0 0 0 0 0 0 0 0 0 0 0 0 0 0 0 0 0 0 0 0 0 0 0 0 0 0 0 0 0 0 0 0 0 0 0 0 0 0 0 0 0 0 0 0 0 0 0 0 0 0 0 0 0 0 0 0 0 0 0 0 0 0 0 0 0 0 0 0 0 0 0 0 0 0 0 0 0 0 0 0 0 0 0 0 0 0 0 0 0 0 0 0 0 0 0 0 0 0 0 0 0 0 0 0 0 0 0 0 0 0 0 0 0 0 0 0 0 0 0 0 0 0 0 0 0 0 0 0 0 0 0 0 0 0 0 0 0 0 0 0 0 0 0 0 0 0 0 0 0 0 0 0 0 0 0 0 0 0 0 0 0 0 0 0 0 0 0 0 0 0 0 0 0 0 0 0 0 0 0 0 0 0 0 0 0 0 0 0 0 0 0 0 0 0 0 0 0 0 0 0 0 0 0 0 0 0 0 0 0 0 0 0 0 0 0 0 0 0 0 0 0 0 0 0 0 0 0 0 0 0 0 0 0 0 0 0 0 0 0 0 0 0 0 0 0 0 0 0 0 0 0 0 0 0 0 0 0 0 0 0 0 0 0 0 0 0 0 0 0 0 0 0 0 0 0 0 0 0 0 0 0 0 0 0 0 0 0 0 0 0 0 0 0 0 0 0 0 0 0 0 0 0 0 0 0 0 0 0 0 0 0 0 0 0 0 0 0 0 0 0 0 0 0 0 0 0 0 0 0 0 0 0 0 0 0 0 0 0 0 0 0 0 0 0 0 0 0 0 0 0 0 0 0 0 0 0 0 0 0 0 0 0 0 0 0 0 0 0 0 0 0 0 0 0 0 0 0 0 0 0 0 0 0 0 0 0 0 0 0 0 0 0 0 0 0 0 0 0 0 0 0 0 0 0 0 0 0 0 0 0 0 0 0 0 0 0 0 0 0 0 0 0 0 0 0 0 0 0 0 0 0 0 0 0 0 0 0 0 0 0 0 0 0 0 0 0 0 0 0 0 0 0 0 0 0 0 0 0 0 0 0 0 0 0 0 0 0 0 0 0 0 0 0 0 0 0 0 0 0 0 0 0 0 0 0 0 0 0 0 0 0 0 0 0 0 0 0 0 0 0 0 0 0 0 0 0 0 0 0 0 0 0 0 0 0 0 0 0 0 0 0 0 0 0 0 0 0 0 0 0 0 0 0 0 0 0 0 0 0 0 0 0 0 0 0 0 0 0 0 0 0 0 0 0 0 0 0 0 0 0 0 0 0 0 0 0 0 0 0 0 0 0 0 0 0 0 0 0 0 0 0 0 0 0 0 0 0 0 0 0 0 0 0 0 0 0 0 0 0 0 0 0 0 0 0 0 0 0 0 0 0 0 0 0 0 0 0 0 0 0 0 0 0 0 0 0 0 0 0 0 0 0 0 0 0 0 0 0 0 0 0 0 0 0 0 0 0 0 0 0 0 0 0 0 0 0 0 0 0 0 0 0 0 0 0 0 0 0 0 0 0 0 0 0 0 0 0 0 0 0 0 0 0 0 0 0 0 0 0 0 0 0 0 0 0 0 0 0 0 0 0 0 0 0 0 0 0 0