# vtk DataFile Version 2.0
polydata
ASCII
DATASET POLYDATA
POINTS 24 double
 4.47055e+00  5.55373e+00  4.28332e+00
 4.47937e+00  5.74545e+00  4.31728e+00
 4.36250e+00  5.34810e+00  4.49422e+00
 4.41377e+00  5.82996e+00  4.62695e+00
 4.32220e+00  5.44726e+00  4.71412e+00
 4.59022e+00  5.07563e+00  4.68658e+00
 4.43301e+00  5.35189e+00  4.84421e+00
 5.06725e+00  5.16431e+00  4.81009e+00
 4.98933e+00  5.05206e+00  4.71581e+00
 4.73443e+00  5.55483e+00  5.01039e+00
 5.04068e+00  5.78958e+00  4.82229e+00
 5.04785e+00  5.90544e+00  4.59675e+00
 5.14413e+00  5.62961e+00  4.37185e+00
 5.22520e+00  5.35995e+00  4.69658e+00
 5.22051e+00  5.36034e+00  4.49226e+00
 4.77749e+00  5.44630e+00  4.19920e+00
 4.86516e+00  5.12378e+00  4.34642e+00
 4.92615e+00  5.64952e+00  4.20388e+00
 5.01618e+00  5.08983e+00  4.43106e+00
 4.55823e+00  5.08948e+00  4.52952e+00
 4.78214e+00  5.84781e+00  4.26447e+00
 4.53787e+00  5.92287e+00  4.70785e+00
 4.84629e+00  5.98831e+00  4.49476e+00
 4.76876e+00  5.73673e+00  4.97845e+00
POLYGONS 14 86
5      2      4      3      1      0      
5      8      7      9      6      5      
5      13     14     12     11     10     
6      17     12     14     18     16     15     
5      6      4      2      19     5      
5      0      1      20     17     15     
5      1      3      21     22     20     
6      4      6      9      23     21     3      
5      15     16     19     2      0      
5      19     16     18     8      5      
5      10     23     9      7      13     
5      21     23     10     11     22     
5      22     11     12     17     20     
5      8      18     14     13     7      
