# vtk DataFile Version 2.0
polydata
ASCII
DATASET POLYDATA
POINTS 24 double
 4.47283e+00  5.55397e+00  4.28092e+00
 4.48079e+00  5.74388e+00  4.31406e+00
 4.36287e+00  5.34966e+00  4.48879e+00
 4.41301e+00  5.83014e+00  4.62143e+00
 4.32036e+00  5.44801e+00  4.70876e+00
 4.58818e+00  5.07509e+00  4.68148e+00
 4.42969e+00  5.35190e+00  4.84011e+00
 5.06805e+00  5.16254e+00  4.80665e+00
 4.98907e+00  5.05047e+00  4.71140e+00
 4.73242e+00  5.55629e+00  5.01003e+00
 5.04113e+00  5.79247e+00  4.81857e+00
 5.04668e+00  5.90663e+00  4.59134e+00
 5.14126e+00  5.63001e+00  4.36670e+00
 5.22651e+00  5.35987e+00  4.69196e+00
 5.21975e+00  5.36092e+00  4.48661e+00
 4.77575e+00  5.44819e+00  4.19890e+00
 4.86327e+00  5.12616e+00  4.34156e+00
 4.92279e+00  5.64867e+00  4.20215e+00
 5.01470e+00  5.09072e+00  4.42573e+00
 4.55695e+00  5.09066e+00  4.52397e+00
 4.78058e+00  5.84538e+00  4.26166e+00
 4.53637e+00  5.92379e+00  4.70257e+00
 4.84468e+00  5.98778e+00  4.48958e+00
 4.76724e+00  5.73970e+00  4.97674e+00
POLYGONS 14 86
5      2      4      3      1      0      
5      8      7      9      6      5      
5      13     14     12     11     10     
6      17     12     14     18     16     15     
5      6      4      2      19     5      
5      0      1      20     17     15     
5      1      3      21     22     20     
6      4      6      9      23     21     3      
5      15     16     19     2      0      
5      19     16     18     8      5      
5      10     23     9      7      13     
5      21     23     10     11     22     
5      22     11     12     17     20     
5      8      18     14     13     7      
