# vtk DataFile Version 2.0
polydata
ASCII
DATASET POLYDATA
POINTS 24 double
 4.47204e+00  5.55388e+00  4.28175e+00
 4.48030e+00  5.74442e+00  4.31517e+00
 4.36274e+00  5.34911e+00  4.49067e+00
 4.41327e+00  5.83008e+00  4.62334e+00
 4.32100e+00  5.44775e+00  4.71061e+00
 4.58889e+00  5.07527e+00  4.68324e+00
 4.43084e+00  5.35189e+00  4.84152e+00
 5.06778e+00  5.16315e+00  4.80784e+00
 4.98916e+00  5.05102e+00  4.71292e+00
 4.73312e+00  5.55578e+00  5.01016e+00
 5.04098e+00  5.79147e+00  4.81985e+00
 5.04709e+00  5.90622e+00  4.59321e+00
 5.14226e+00  5.62987e+00  4.36848e+00
 5.22606e+00  5.35989e+00  4.69355e+00
 5.22001e+00  5.36071e+00  4.48856e+00
 4.77636e+00  5.44753e+00  4.19901e+00
 4.86392e+00  5.12534e+00  4.34324e+00
 4.92396e+00  5.64896e+00  4.20275e+00
 5.01521e+00  5.09041e+00  4.42757e+00
 4.55739e+00  5.09025e+00  4.52589e+00
 4.78112e+00  5.84622e+00  4.26263e+00
 4.53689e+00  5.92347e+00  4.70440e+00
 4.84524e+00  5.98796e+00  4.49137e+00
 4.76776e+00  5.73868e+00  4.97733e+00
POLYGONS 14 86
5      2      4      3      1      0      
5      8      7      9      6      5      
5      13     14     12     11     10     
6      17     12     14     18     16     15     
5      6      4      2      19     5      
5      0      1      20     17     15     
5      1      3      21     22     20     
6      4      6      9      23     21     3      
5      15     16     19     2      0      
5      19     16     18     8      5      
5      10     23     9      7      13     
5      21     23     10     11     22     
5      22     11     12     17     20     
5      8      18     14     13     7      
