# vtk DataFile Version 2.0
Really cool data
ASCII
DATASET POLYDATA
POINTS 880 double
4.774064711245647 3.7953896743089475 4.885632749864415
4.774064711245647 9.078334377973587 5.613867911059057
4.774064711245647 8.791366443905881 2.63251132188339
4.774064711245647 0.9703174551850324 1.8201623729706387
4.774064711245647 3.4403639217444346 9.388173540543145
4.774064711245647 9.119899505815138 5.585320938963233
4.774064711245647 1.9173649132038568 3.585088406520307
4.774064711245647 3.284872203074216 8.745596415477866
4.774064711245647 6.365989768593997 9.364064251923493
4.774064711245647 4.728039761191351 1.7233299102974133
4.774064711245647 5.972053489014694 2.9966095961043235
4.774064711245647 5.284487499587751 7.477365354063636
4.774064711245647 5.016246485522878 8.35508725452443
4.774064711245647 3.7457195482891397 8.459198778417234
4.774064711245647 5.282215963100477 9.089740062857652
4.774064711245647 2.1830983292610133 0.5539914246900594
4.774064711245647 7.142583702528537 1.4857366440123505
4.774064711245647 7.889270133987179 7.346514371603257
4.774064711245647 3.3206386072277896 0.374784216028192
4.774064711245647 3.224565014019801 6.665133856703897
4.774064711245647 7.72810765298937 4.497362782054124
4.774064711245647 5.895143900489119 7.733087260430494
4.774064711245647 6.941801895953024 8.4499861358543
4.774064711245647 1.0690556952887185 4.545841608037859
4.774064711245647 5.826082769926542 7.581483066993828
4.774064711245647 2.7444493208159173 5.38677445743988
4.774064711245647 3.9900564722449654 7.449343509636148
4.774064711245647 3.6142630180997615 3.1625794568779333
4.774064711245647 3.517219419536882 4.650231816249823
4.774064711245647 7.929523503470917 1.6388484211130638
4.774064711245647 5.824089083298151 8.208744963939449
4.774064711245647 5.255776739140548 5.90669814788397
4.774064711245647 0.8642439962070105 6.360393741995144
4.774064711245647 6.097010720939986 8.795358671444525
4.774064711245647 3.4315906086539862 0.3952768356214799
4.774064711245647 7.92993383579091 1.6340372326415267
4.774064711245647 8.395254378751027 3.7113640226625666
4.774064711245647 3.052146581821562 1.2525024090959678
4.774064711245647 3.7328767663153304 6.843593478073389
4.774064711245647 4.950594745440437 0.7396673657042343
4.774064711245647 8.836672294709084 2.5467716600880257
4.774064711245647 9.32669957484658 4.9008737857524896
4.774064711245647 7.9582934196902855 7.4299096938565246
4.774064711245647 6.7054379019773185 6.1563968394405135
4.774064711245647 1.9693358910079488 9.11510070400339
4.774064711245647 1.6746462965084064 4.571102899547389
4.774064711245647 8.801924420439766 2.609227534981922
4.774064711245647 9.149020372008877 1.1188205940116458
4.774064711245647 2.365759508081747 9.022605090146868
4.774064711245647 9.620986665800242 8.548208021028742
4.774064711245647 5.861602189825639 0.8170067621926269
4.774064711245647 7.799521101863537 7.674341867663435
4.774064711245647 7.173156540027333 5.004218824031496
4.774064711245647 3.0459152253012047 0.6745867009625441
4.774064711245647 9.589044915841733 2.3234499169780123
4.774064711245647 1.6608836433669214 3.6368854262113035
4.774064711245647 0.537397766655496 1.1618649702731962
4.774064711245647 5.521427505080039 9.33554390834737
4.774064711245647 0.9792992810004673 1.1239742448258867
4.774064711245647 7.1792390593858615 8.972293538930487
4.774064711245647 7.947949006994054 1.6396431008536307
4.774064711245647 7.098802437061464 8.041796443578132
4.774064711245647 3.4026109318449915 8.190873851266845
4.774064711245647 9.438955422215358 8.19476353840731
4.774064711245647 3.109399136985486 5.64410018069179
4.774064711245647 2.388133976137716 6.218944070165741
4.774064711245647 0.9428311684585629 8.62395375263727
4.774064711245647 8.716535122576762 9.320390958619122
4.774064711245647 4.106347532104191 0.2685433563616681
4.774064711245647 3.2011976129897537 2.3589038987815285
4.774064711245647 9.886682207099934 3.9526315852787293
4.774064711245647 6.6512364491282465 5.979369215996289
4.774064711245647 2.5775953490343015 1.6476991663759208
4.774064711245647 5.464604135335461 1.2675381316552488
4.774064711245647 6.608431533925823 0.26021958540860274
4.774064711245647 4.555299914957782 8.79969395660906
4.774064711245647 1.6661548150614498 5.503627286494225
4.774064711245647 6.884364498338829 0.7984896324012359
4.774064711245647 6.674422438526058 9.490181028157167
4.774064711245647 4.418172517773233 3.184137011576405
4.774064711245647 8.139660442220867 2.991347861459655
4.774064711245647 1.3970118965352636 3.212569195105619
4.774064711245647 5.714402872339432 2.98681002600808
4.774064711245647 1.5438199646769883 3.553469608961212
4.774064711245647 2.007939292526399 8.12265428559453
4.774064711245647 3.3500255827616106 8.033733937565714
4.774064711245647 6.038667559235571 4.090398134947063
4.774064711245647 2.0325303450568817 0.6721826599242147
4.774064711245647 8.798852023055069 2.9740674722092084
4.774064711245647 5.895387365479213 5.339665668551821
4.774064711245647 3.9995195360314475 7.234696637725663
4.774064711245647 3.040725691529792 0.6855921690535659
4.774064711245647 0.7846228308805273 4.20567847949161
4.774064711245647 8.00285445564689 5.5769300641176
4.774064711245647 1.9941253888977317 5.447759360897841
4.774064711245647 1.8103309941930978 3.166259616149952
4.774064711245647 0.4608391835038984 9.721659471599127
4.774064711245647 5.049577543283821 1.339427820064868
4.774064711245647 8.003040320579284 8.3254898561513
4.774064711245647 8.265900573356314 4.661730615845967
4.774064711245647 5.2092189054853595 3.4110533133754064
4.774064711245647 6.322963500761601 3.7303693387967476
4.774064711245647 2.876436133641953 6.561527611203175
4.774064711245647 1.8228878939706004 6.813016492908881
4.774064711245647 1.8455751972478394 2.2107536386894626
4.774064711245647 1.202355138575517 6.184659321427882
4.774064711245647 4.167719539997167 5.200527453552889
4.774064711245647 4.811156144304438 1.337291451885665
4.774064711245647 0.9025187285631712 2.9939319584007724
4.774064711245647 3.067323316484554 0.6928151709598516
4.774064711245647 4.471474393739401 7.693146585985931
4.774064711245647 8.501972827882007 9.159960818046791
4.774064711245647 5.965691840970657 2.1545746584704424
4.774064711245647 1.0688495390935995 1.8108808752160184
4.774064711245647 3.8490080845925103 4.9309129441895445
4.774064711245647 3.2013788391887816 8.918027920405793
4.774064711245647 4.551413324698786 0.09006937307058901
4.774064711245647 8.86431204202339 7.755783484239078
4.774064711245647 2.1912321883849306 3.2092182260348587
4.774064711245647 1.9012101963183734 2.7297132983065717
4.774064711245647 2.4989817846268485 8.070784944215607
4.774064711245647 3.718355676020608 0.4366754666709646
4.774064711245647 3.1749738465351434 4.195638793615201
4.774064711245647 8.870897234536205 6.1924879281311975
4.774064711245647 4.5839999127056235 5.952877548485214
4.774064711245647 6.324283061577453 3.613542463695717
4.774064711245647 7.972886006115173 8.546739252361137
4.774064711245647 8.08085756449113 2.9205531790348864
4.774064711245647 2.29902180049201 9.424172921238121
4.774064711245647 6.601371464245026 6.247738295382813
4.774064711245647 2.726483665638244 5.20958929552318
4.774064711245647 8.545033557280407 7.157332440871447
4.774064711245647 2.507517982642649 1.9496312688766588
4.774064711245647 8.275511145419426 5.350652843718912
4.774064711245647 4.516846191406773 4.9765755591723515
4.774064711245647 6.707621168980599 7.559775611443118
4.774064711245647 7.034293161180192 8.656227824125738
4.774064711245647 2.1823349687876754 6.557923914760075
4.774064711245647 6.644355533067196 5.748416908856412
4.774064711245647 0.2234903095950337 6.355301154531484
4.774064711245647 5.461574249158506 8.371010969694783
4.774064711245647 0.2001644149589252 9.402930518167251
4.774064711245647 6.353079304679778 3.6931714020324624
4.774064711245647 2.961625527152207 3.6774892633304748
4.774064711245647 7.645381581425155 6.926381164119078
4.774064711245647 8.88314098546922 3.637627854464762
4.774064711245647 6.938770807981448 2.069242643054033
4.774064711245647 4.670237504012123 4.097322811792997
4.774064711245647 3.9571218814167883 8.483476876257365
4.774064711245647 5.208164451271652 8.491737768391609
4.774064711245647 5.913279285503142 7.84451305522512
4.774064711245647 4.000752504929415 9.492291348751166
4.774064711245647 2.0369177206488027 6.806041999507198
4.774064711245647 4.827006843525235 7.444289761755596
4.774064711245647 9.74851362375123 8.876885872841937
4.774064711245647 2.9724997943239853 3.5700199491014826
4.774064711245647 8.389046496337775 9.474378329633007
4.774064711245647 6.231744404504995 0.2860455747263095
4.774064711245647 7.11869762658139 8.828519109571998
4.774064711245647 5.786377591855536 6.568319849780373
4.774064711245647 3.193208842894496 9.86673133551969
4.774064711245647 8.264712940852037 4.614143031465131
4.774064711245647 1.74888721479126 1.2917640568531774
4.774064711245647 4.868434201393046 4.552379910589826
4.774064711245647 8.33635212447651 8.384240011995026
4.774064711245647 7.3231712341927855 6.617923678526681
4.774064711245647 6.893337133142975 0.8428997089214858
4.774064711245647 8.142916627484057 2.9659963327892953
4.774064711245647 4.536550153889959 6.804682683234636
4.774064711245647 6.9044254404962295 7.683646909840926
4.774064711245647 4.88570914672339 8.280574496765912
4.774064711245647 6.3256797728855325 5.568181185071057
4.774064711245647 1.5974610856610993 3.6431541465760198
4.774064711245647 6.582369850055535 7.245675526859536
4.774064711245647 0.2187297330737316 9.081417950071591
4.774064711245647 5.085106692387641 8.848235809357593
4.774064711245647 7.321107818472819 5.435752033451371
4.774064711245647 4.711173865485268 6.906942331525011
4.774064711245647 2.97029908968571 3.632244617987511
4.774064711245647 4.13911594064731 5.5262010515729685
4.774064711245647 1.2340953898368157 1.8148004910213555
4.774064711245647 3.064739499775753 1.172660096872415
4.774064711245647 7.478596951439873 7.81764792030244
4.774064711245647 2.788280255692428 7.48956638433333
4.774064711245647 9.527459591849263 6.807267019491489
4.774064711245647 6.6866785442633505 3.7194020793024647
4.774064711245647 6.961546821205958 4.511863982776064
4.774064711245647 7.884842829413986 0.793691407866757
4.774064711245647 6.145016164718025 8.535693985509834
4.774064711245647 1.8765654874861113 3.619316876489344
4.774064711245647 8.585980277267213 6.749253443066441
4.774064711245647 5.219701372897158 3.395476269509842
4.774064711245647 4.94791252846605 0.8248382536799188
4.774064711245647 0.634478972011506 7.823123650093272
4.774064711245647 5.023731830718178 5.9203456920590645
4.774064711245647 4.8540702355953576 7.407222836367028
4.774064711245647 6.321705685354251 6.974316381955822
4.774064711245647 3.235354972090141 1.0473282625212343
4.774064711245647 4.402698683046602 8.554744763241455
4.774064711245647 0.8210202992530766 9.849224024460307
4.774064711245647 4.244041421578768 0.14945297851027045
4.774064711245647 8.677468738550111 6.4121322202741196
4.774064711245647 5.398034990783673 2.324616109661316
4.774064711245647 7.165379559580056 2.7995152748128898
4.774064711245647 8.240009308466584 4.599847372489385
4.774064711245647 1.2374834886636288 9.740897169046644
4.774064711245647 2.1764574611909464 3.050072143444281
4.774064711245647 9.140277123882276 6.394898285293335
4.774064711245647 3.476044170428726 8.409908275015102
4.774064711245647 9.464101057852094 7.414442351755
4.774064711245647 1.477440498795294 1.1527506530949776
4.774064711245647 5.865133516719655 8.05100203075784
4.774064711245647 0.41522752857927525 3.441107325932878
4.774064711245647 5.220946355388362 6.51932228247936
4.774064711245647 4.392656547554281 5.765577786912126
4.774064711245647 2.981691568195519 3.2345543849055054
4.774064711245647 0.8186130081143329 1.5241129746513526
4.774064711245647 0.9355633720143512 1.7438990046896066
4.774064711245647 7.83171180538613 9.343597329946594
4.774064711245647 9.81027390033735 2.0849380140632214
4.774064711245647 1.139905104387453 1.0748547661975558
4.774064711245647 0.6929138899649168 7.345551238280287
4.774064711245647 2.672128761464028 7.949037648763382
4.774064711245647 5.3473263612713335 7.48294415132308
4.774064711245647 2.3459896073094346 5.971818180025717
4.774064711245647 6.554064651551947 7.430871091487079
4.774064711245647 2.781585453343045 3.1943247993095816
4.774064711245647 0.4877468009678121 8.815139589430922
4.774064711245647 3.4860185688525984 5.888342395292866
4.774064711245647 4.598329281570853 3.7120783975535856
4.774064711245647 0.9900550822299624 9.808418695675902
4.774064711245647 4.593259986862041 7.744672092043946
4.774064711245647 7.235788270998637 1.7331600183458444
4.774064711245647 2.7646558394504943 8.909313797731302
4.774064711245647 3.1031059564327204 1.257429447164083
4.774064711245647 5.297312676603541 6.080140194464036
4.774064711245647 0.8572102350004016 2.094555120352931
4.774064711245647 2.6073205300010436 3.156253103257982
4.774064711245647 4.925079016385077 2.1633321650348165
4.774064711245647 8.400262144586625 3.712637352420599
4.774064711245647 1.6158884488222804 7.460308955614828
4.774064711245647 7.918923617092372 0.6880908846694935
4.774064711245647 7.624036228774832 2.017500193742322
4.774064711245647 6.4611651367518546 1.3693421088372757
4.774064711245647 1.9694929921973 2.342257371329918
4.774064711245647 7.557851466346883 1.9594677590615943
4.774064711245647 4.935747921478463 0.21234063832736766
4.774064711245647 8.076096859174706 0.6416075420815882
4.774064711245647 8.027560200678723 6.131767445998084
4.774064711245647 3.7604744811243327 1.9790633163672853
4.774064711245647 2.3343264029071036 9.627656680362055
4.774064711245647 6.937746255067825 7.7086341704430135
4.774064711245647 2.3335185613302256 6.969294098151096
4.774064711245647 8.831492385859105 6.2945756064499125
4.774064711245647 2.927117650460635 4.00762030732335
4.774064711245647 4.789296606371899 4.194708977401553
4.774064711245647 7.73772037550777 6.41956513308283
4.774064711245647 3.8652400382249494 5.682507263336494
4.774064711245647 1.6465026471007833 7.378904440807271
4.774064711245647 8.456859175852312 7.229249259553683
4.774064711245647 1.7237001271440968 7.73589243332856
4.774064711245647 6.573002151538967 2.4342194577101814
4.774064711245647 9.002731684386795 0.7977613367414521
4.774064711245647 5.575707917759761 5.214830391521279
4.774064711245647 9.036725845386004 4.46230651371355
4.774064711245647 5.882075237822055 1.2687204503987906
4.774064711245647 2.155570875762543 8.164674696082095
4.774064711245647 0.9223166952941687 1.3186825986104374
4.774064711245647 4.515107330460323 3.9410785463129505
4.774064711245647 0.7067983561654849 2.5028841351745243
4.774064711245647 7.172338360196933 5.227414595042037
4.774064711245647 7.081700834035703 3.5909540946920973
4.774064711245647 4.649609827402706 7.656440031058795
4.774064711245647 8.44716204063283 7.3883157358909575
4.774064711245647 4.392826292423865 2.6951697121482496
4.774064711245647 7.1402387318980765 3.0238065723778527
4.774064711245647 2.1199170689044142 5.0082325367172675
4.774064711245647 5.905065009062566 5.3230211144737485
4.774064711245647 8.088347770717284 7.397821058646713
4.774064711245647 1.138761005842528 4.365234443357562
4.774064711245647 5.463693655854062 2.737699360317843
4.774064711245647 2.9309844783224084 6.872660473152187
4.774064711245647 1.7487629925447994 1.2920465118602635
4.774064711245647 8.700806936077234 1.740857207966369
4.774064711245647 8.45944237726917 6.011966842568851
4.774064711245647 8.724816621416439 1.8021897031713794
4.774064711245647 6.7877368984058135 1.2728839602832769
4.774064711245647 6.522680013248937 8.475117548482913
4.774064711245647 4.103687669038843 1.1822578965896786
4.774064711245647 3.4222986504125155 8.24903634084651
4.774064711245647 7.808533635291757 1.308926823299713
4.774064711245647 4.5275531433056075 6.799209272395217
4.774064711245647 1.7041942402176067 2.921016641717364
4.774064711245647 8.4424281832254 9.018080991866546
4.774064711245647 6.672897806436504 2.42325729874421
4.774064711245647 4.939536229411019 0.4608437813841213
4.774064711245647 2.4925720377898006 1.7573624010008704
4.774064711245647 7.765980519499986 3.882380568935715
4.774064711245647 3.279054820010584 2.7829709609239943
4.774064711245647 1.6507785491612514 2.0288029219073853
4.774064711245647 2.0140518548434287 6.811728369517916
4.774064711245647 6.183302806162628 9.24055235318885
4.774064711245647 0.5065168093893743 8.799614119569696
4.774064711245647 6.895209661269408 4.033848535063697
4.774064711245647 7.318703988884511 1.2799862368449333
4.774064711245647 3.2933148266843615 3.0108166917959123
4.774064711245647 9.319573791410196 5.0186706630396385
4.774064711245647 0.8876005627385641 5.134972908382523
4.774064711245647 0.4468469028595907 7.558456715145485
4.774064711245647 4.496706301858606 6.973420669897428
4.774064711245647 1.9050953181151649 3.6165414577789083
4.774064711245647 7.827086376134062 7.935112471933681
4.774064711245647 7.744258406065898 6.412433181480656
4.774064711245647 4.541540259290446 3.282854210352764
4.774064711245647 1.7483656450014018 1.292137835071705
4.774064711245647 8.761861703153832 4.338942181033972
4.774064711245647 4.793012373898689 5.936504406376076
4.774064711245647 9.881646693612531 1.4382874948466753
4.774064711245647 2.801487284917485 7.5784373829444505
4.774064711245647 2.7220259895705987 7.175020115483951
4.774064711245647 4.170888748568299 3.9458309731765646
4.774064711245647 1.4237337625075515 3.938689168828251
4.774064711245647 1.808757121060968 6.867581153888445
4.774064711245647 0.41441871975373706 7.609754999432973
4.774064711245647 8.98231064100269 3.2311306664150146
4.774064711245647 0.2062449008160152 9.516240651968312
4.774064711245647 4.709585802385786 6.9007031688053955
4.774064711245647 9.084441559439028 3.3883258477004294
4.774064711245647 6.339683051236198 4.506425907228634
4.774064711245647 0.4208597575813661 3.2381794168804823
4.774064711245647 7.7835289984455205 9.114167223410487
4.774064711245647 3.194652922780258 7.977452714800508
4.774064711245647 3.901012574055635 1.9858443238229198
4.774064711245647 1.9588279686085204 5.419891222682371
4.774064711245647 3.532569808751231 1.357694110457073
4.774064711245647 7.614841357707596 2.4062067133666827
4.774064711245647 6.369058138285686 5.593651590024715
4.774064711245647 6.124739346840309 2.267027420187114
4.774064711245647 6.223383685985822 3.3179159282859576
4.774064711245647 7.053399456505187 1.303102145235953
4.774064711245647 7.166526274184911 7.877306489782505
4.774064711245647 6.097502789782174 6.725502976214605
4.774064711245647 2.06285438871293 3.8715644870816672
4.774064711245647 8.860080337149125 5.798294388028196
4.774064711245647 8.54442266131715 6.019093083924076
4.774064711245647 1.9761304167938722 5.3663286129796
4.774064711245647 3.864773877358259 0.6756399911214259
4.774064711245647 7.6931633065983 1.949624501282684
4.774064711245647 6.7773400957090315 6.889939533060344
4.774064711245647 8.799711323962883 1.6152511036322625
4.774064711245647 8.922688028609395 8.111564173823265
4.774064711245647 1.2508240438522884 5.967596939589509
4.774064711245647 5.49530196885134 2.9797242145983382
4.774064711245647 6.20947969015933 4.529919076239477
4.774064711245647 7.054275155756157 2.71860440052913
4.774064711245647 1.4238700107146445 1.1246110334628356
4.774064711245647 7.274220116918364 1.7738314174328256
4.774064711245647 0.8510474026106485 2.877344377005758
4.774064711245647 6.939658307333108 1.2265935972664992
4.774064711245647 6.955385651926874 6.62526204374622
4.774064711245647 7.834086290415635 8.925017118291356
4.774064711245647 4.6987219549335295 3.4357043473848
4.774064711245647 4.603545734403377 2.1894249637942482
4.774064711245647 0.10746576911744325 5.681321057178615
4.774064711245647 3.7584397455025575 5.740237951307163
4.774064711245647 0.4044744341729732 3.8775681922074243
4.774064711245647 1.569404148300984 4.525108272037783
4.774064711245647 5.866294299273595 5.195744503220189
4.774064711245647 7.786908425127796 2.7053386124950047
4.774064711245647 9.348082177513618 9.417866663732266
4.774064711245647 0.6614796919237723 9.891940902570669
4.774064711245647 4.85551056542975 3.413555285554557
4.774064711245647 8.027273067045481 6.120545363825522
4.774064711245647 4.259635669582237 7.14645043761044
4.774064711245647 2.3817211818721096 8.609902446403858
4.774064711245647 3.2958874419720052 2.364153839467337
4.774064711245647 1.7491440694962337 1.2922789584312582
4.774064711245647 7.598152359263899 0.327067591782033
4.774064711245647 0.435028094635701 8.857068060246824
4.774064711245647 8.498151306849778 8.650682175469482
4.774064711245647 7.759828921337732 8.980918596212554
4.774064711245647 7.262085574027261 2.7518725044388384
4.774064711245647 4.935925092600141 1.2711753828674286
4.774064711245647 6.059899547432536 1.724475735641956
4.774064711245647 8.646809596942726 0.4580323480841849
4.774064711245647 2.6063397165933893 0.546142331921879
4.774064711245647 3.118108726782367 3.136541609140546
4.774064711245647 6.35517064952797 2.510308848914896
4.774064711245647 0.5451902457284238 1.1219640767471206
4.774064711245647 5.118775907014973 1.3714460934341863
4.774064711245647 6.0119427835629935 4.095888143801051
4.774064711245647 4.5288790914235735 6.505435085962585
4.774064711245647 0.6069681724765537 6.868953181286768
4.774064711245647 0.5928862174015362 6.7592158075582
4.774064711245647 4.158075687302506 9.493687566735467
4.774064711245647 7.935444961446487 7.434349784886122
4.774064711245647 1.3943112288539339 8.856741556203989
4.774064711245647 4.671264450432559 8.127187989440966
4.774064711245647 5.409407496672878 3.9491559290122256
4.774064711245647 6.995122667522454 6.571287800920943
4.774064711245647 4.386763153358487 0.035340885879742726
4.774064711245647 3.4811367714100396 9.469301783784925
4.774064711245647 3.4556909571480556 6.263887929765273
4.774064711245647 0.6283659675788564 5.158094562779348
4.774064711245647 5.104748835336304 1.9614815418357074
4.774064711245647 4.839881632804897 0.1803307976842
4.774064711245647 8.90903272348956 2.231835454124021
4.774064711245647 3.0449709702508985 6.71069302727745
4.774064711245647 2.303801916109986 8.205235680693502
4.774064711245647 3.9085146605212904 3.4750510837347566
4.774064711245647 3.16278183801274 3.104649369735742
4.774064711245647 5.88311898631039 0.7238370994200052
4.774064711245647 1.561195812043968 1.5863625864204096
4.774064711245647 8.736337788385242 3.822563494265572
4.774064711245647 3.5211471250420647 3.1187895954986833
4.774064711245647 1.1633722235225183 4.356998414650349
4.774064711245647 5.510036368045632 5.215638315096378
4.774064711245647 9.410351163429707 6.570265241289158
4.774064711245647 2.1390902269661662 4.312936347727322
4.774064711245647 6.55281365703018 8.47333770159862
4.774064711245647 4.3939445787086635 2.689971033101008
4.774064711245647 1.2803327877432131 5.834244755761892
4.774064711245647 3.6848989519262125 4.263145567307383
4.774064711245647 4.466489798809396 8.650979057009064
4.774064711245647 4.307467889186343 3.9541198090998213
4.774064711245647 2.6728253736436542 4.050143441071615
4.774064711245647 0.20600199353347481 9.503982833670719
4.774064711245647 8.547067610328181 2.850116748727986
4.774064711245647 1.957506498542878 6.825870088829484
4.774064711245647 5.121788455731375 8.743294601462761
4.774064711245647 4.334024834863796 5.710536638443866
4.774064711245647 6.105593610590563 1.461969820275503
4.774064711245647 5.64002623765759 7.528845045473339
4.774064711245647 3.989709127361839 7.487136534881658
4.774064711245647 9.403416073894517 3.43065118363006
4.774064711245647 9.800245896308736 2.3059936413379676
4.774064711245647 9.808482907313023 4.43652770031155
4.774064711245647 7.05120895806593 9.113503672677865
4.774064711245647 6.020491766129614 2.163949981483777
4.774064711245647 3.27553838993893 2.706301382187847
4.774064711245647 4.492529420912601 2.2434173114043072
4.774064711245647 7.75500461300312 1.1760874931378424
4.774064711245647 2.2900085694794736 6.3917060687985074
4.774064711245647 9.478196812503525 4.566350197836651
4.774064711245647 6.5834662312354855 7.103575196276116
4.774064711245647 1.8809892530539984 6.9159876000536045
4.774064711245647 0.347948801600931 6.412116124638842
4.774064711245647 3.5145480486301155 4.429796449505174
4.774064711245647 1.3087313009740682 8.68760212382299
4.774064711245647 0.7519743988112988 4.181035952978316
4.774064711245647 0.32419799235232055 5.376422737646242
4.774064711245647 4.23601397425798 1.5700287905219414
4.774064711245647 3.3746528522981976 8.603951742860923
4.774064711245647 5.959854817618181 8.345824824536498
4.774064711245647 1.4372623309600203 1.8031770116022883
4.774064711245647 4.693190129140633 8.860785717290067
4.774064711245647 3.8617317266812443 0.4641334775781367
4.774064711245647 9.711164988995854 3.6111967663431246
4.774064711245647 8.266980114693828 5.04880038525181
4.774064711245647 9.113895358002932 9.427093279396313
4.774064711245647 1.380620785421226 4.046687818484677
4.774064711245647 4.154580004087243 5.350644881349317
4.774064711245647 8.756129500608095 4.212267261073285
4.774064711245647 4.702906599336167 6.90876725262234
4.774064711245647 9.48902235318862 8.221654092805748
4.774064711245647 8.896045575143681 7.938082282658313
4.774064711245647 0.47828790413824723 6.478395826510752
4.774064711245647 5.089490990426086 4.930896579198144
4.774064711245647 3.4626500426917786 6.202462102426387
4.774064711245647 2.571701451963191 2.0206435286468696
4.774064711245647 4.528937712311641 6.77253644638167
4.774064711245647 3.4746924754467616 1.3346854063479714
4.774064711245647 0.7125766740984598 8.344272539020537
4.774064711245647 1.4268973254159039 6.423820136996134
4.774064711245647 9.234214083759607 3.410013281450893
4.774064711245647 0.6605889503663884 1.3996619741178753
4.774064711245647 8.182863889397003 5.42769248358353
4.774064711245647 9.659786624119073 4.495283341550201
4.774064711245647 2.217895834960575 4.110884792483223
4.774064711245647 5.1237323968732 1.5000385307902637
4.774064711245647 4.71002166153094 6.9013172223058135
4.774064711245647 7.276522061482606 0.15970836450875403
4.774064711245647 1.5236959274676156 9.119462030594777
4.774064711245647 7.1872283812574445 1.8316618292135338
4.774064711245647 7.0059163503873 0.2924550501766539
4.774064711245647 4.559717470308151 6.18153851267666
4.774064711245647 0.4532060562335734 7.652893930620972
4.774064711245647 6.553052013956328 7.459478147965356
4.774064711245647 9.472437707325957 7.7624558583654695
4.774064711245647 9.164016568415702 1.1489178790521046
4.774064711245647 8.834867012467445 7.506887168001752
4.774064711245647 5.433602385765285 9.239982298050288
4.774064711245647 5.818554116471973 7.557138005321712
4.774064711245647 4.069222660252157 1.9851627070229185
4.774064711245647 1.1210094576641039 4.372342989841255
4.774064711245647 7.61204484681885 2.582148968971331
4.774064711245647 6.049383431258088 1.7877594258108842
4.774064711245647 7.032756939539606 3.638720587414936
4.774064711245647 9.013221449072066 3.4767302663598034
4.774064711245647 4.8446073169015635 4.764547755192103
4.774064711245647 5.4204351761113605 1.281986652373774
4.774064711245647 1.2907307979692133 7.4817297995758825
4.774064711245647 4.522713762445531 2.2306504130947222
4.774064711245647 7.765552399756629 3.8824735566445643
4.774064711245647 6.894081939527398 4.064045129110596
4.774064711245647 8.728077524540092 0.4997545467891969
4.774064711245647 2.8317740480259106 7.834570726513237
4.774064711245647 0.21954235804725045 9.030001633478463
4.774064711245647 1.748627933332611 1.292086575706413
4.774064711245647 6.8550987977884725 2.1796229962322853
4.774064711245647 6.106893402459976 7.5247822354531255
4.774064711245647 7.826039256005133 0.5770219845628434
4.774064711245647 5.995756159630255 7.5027564447904735
4.774064711245647 3.879645372499153 3.285760337978149
4.774064711245647 3.291060156541719 9.732429053843704
4.774064711245647 5.193688965176168 3.412656092997531
4.774064711245647 1.3757773408166345 0.7305840636569703
4.774064711245647 8.400871292804563 8.918182849767843
4.774064711245647 9.09935760495321 2.3376859994850276
4.774064711245647 4.338471587277706 9.248315224095538
4.774064711245647 6.657859812725313 6.28086179137689
4.774064711245647 9.004823061318739 5.6585786953646044
4.774064711245647 2.765820681744653 1.4834935396948163
4.774064711245647 5.8513145114478595 5.189315057274308
4.774064711245647 8.244999178957064 8.367008854720043
4.774064711245647 1.8583416765494971 8.07977629042289
4.774064711245647 6.646339546797851 5.81586781710986
4.774064711245647 9.553329008349047 6.665440259611143
4.774064711245647 6.799571555116983 6.352313742267479
4.774064711245647 5.102528806690886 4.940880965721363
4.774064711245647 5.378300333198553 6.399742015195295
4.774064711245647 0.6951601503486169 8.247553799286049
4.774064711245647 2.1032826942174903 5.053677814737125
4.774064711245647 8.409223722418087 5.450278266340271
4.774064711245647 1.7676649546992398 7.837786506016772
4.774064711245647 5.774663748238006 1.177680083785175
4.774064711245647 2.5223227784269877 4.083319359383813
4.774064711245647 8.880509205263838 6.258258420764005
4.774064711245647 8.844893695980634 6.005243661952884
4.774064711245647 8.493761956146704 6.399204100190481
4.774064711245647 1.8308282131198688 3.234883832402449
4.774064711245647 0.8111999113456251 3.031716181700481
4.774064711245647 7.841766720550817 0.9330647548491955
4.774064711245647 6.781327531625337 9.457698828657122
4.774064711245647 3.0601982012795306 0.6644775289890026
4.774064711245647 0.9436285552703798 6.319468808393814
4.774064711245647 4.9196542842442454 6.750894781459306
4.774064711245647 2.028432580410735 4.788876367153406
4.774064711245647 9.314793813034392 5.4587288941367325
4.774064711245647 7.7657983387051495 3.8831415506077085
4.774064711245647 5.697924757938192 6.53368796211697
4.774064711245647 7.624125420000912 5.556723462448074
4.774064711245647 5.507080170149997 5.273926269607703
4.774064711245647 8.182025350959266 6.0538918754767135
4.774064711245647 6.591755340183479 4.481817401870187
4.774064711245647 5.965800842135573 1.3450672486757809
4.774064711245647 7.074852620312512 0.24644689074780018
4.774064711245647 6.697067571815965 0.31780129732761947
4.774064711245647 1.3113462670191072 7.481552512122764
4.774064711245647 4.941228959161386 1.0151293715205325
4.774064711245647 9.858696690505841 4.293127602791636
4.774064711245647 3.5996577892290436 6.743550178347813
4.774064711245647 9.572622533864461 7.565740510239882
4.774064711245647 1.8879474827710516 0.9720336211421945
4.774064711245647 6.035423787945899 4.112436812911909
4.774064711245647 1.2216558908841801 5.483088019350824
4.774064711245647 9.337905166365323 4.621770565634535
4.774064711245647 5.441682073483323 2.5761384871893576
4.774064711245647 4.512429383300571 6.8054193802470735
4.774064711245647 0.2766911576793501 5.442238106226271
4.774064711245647 4.617387858223673 3.659565788113408
4.774064711245647 4.7099370181617815 6.900913881964967
4.774064711245647 8.751056471335506 4.0394593943185475
4.774064711245647 4.475010201148334 8.432356820958798
4.774064711245647 7.7424468424272055 7.777880477477225
4.774064711245647 9.847766603468115 1.8742002027193219
4.774064711245647 9.055590132281248 7.450451279706524
4.774064711245647 1.0120317618647257 5.264926833046385
4.774064711245647 2.8177763177373 7.048021188503763
4.774064711245647 4.5513299214871 1.3535505684861608
4.774064711245647 4.972974192312306 1.2906422288479917
4.774064711245647 6.96628350274634 6.533657507730777
4.774064711245647 9.481810138722196 7.069134033665299
4.774064711245647 6.8885299645539195 5.574017372487373
4.774064711245647 3.980176241748783 7.059806225573073
4.774064711245647 6.989165632123859 9.223878854164774
4.774064711245647 1.96557101641097 3.4871000863422363
4.774064711245647 3.2570012695834523 5.736401973124526
4.774064711245647 6.97727170001085 1.2520111852566298
4.774064711245647 5.3871422825466615 3.128173995207304
4.774064711245647 5.158507822976879 8.645884577946047
4.774064711245647 7.927626220327976 4.426416821374764
4.774064711245647 8.800525048521022 5.700676413969462
4.774064711245647 8.34935879135372 9.586489584314107
4.774064711245647 7.929482991015145 5.751977021370595
4.774064711245647 7.35630015537385 8.976640881557092
4.774064711245647 2.316044681473679 5.68915235307187
4.774064711245647 6.059451824234718 7.137184229548357
4.774064711245647 8.60522271278863 6.46955250702864
4.774064711245647 0.5737974772515738 7.763465982810204
4.774064711245647 0.6338018659121804 7.309787485353357
4.774064711245647 3.2589505752552754 2.392878826265489
4.774064711245647 8.29122722935414 4.601285208344805
4.774064711245647 8.37525336653617 0.5445589413110771
4.774064711245647 0.44251227883672656 3.222046397398552
4.774064711245647 7.200874065995519 4.650377583175103
4.774064711245647 0.4015655393990734 3.932552830308849
4.774064711245647 8.865371051308461 5.745339400474897
4.774064711245647 6.0556610574242855 9.035896419661462
4.774064711245647 7.7657839528462835 3.8825733700471914
4.774064711245647 8.42099823635566 9.35182484324061
4.774064711245647 6.344901024401631 6.493161150580276
4.774064711245647 5.835922691723822 7.540380827349818
4.774064711245647 6.03089102629494 4.100181415240333
4.774064711245647 3.6394232746571613 1.289725825326677
4.774064711245647 6.109480282858716 6.778404659112031
4.774064711245647 0.5986659430714891 7.3584736012618635
4.774064711245647 4.008341296113732 7.021078065330556
4.774064711245647 0.6737508995469567 2.405723231982718
4.774064711245647 4.595967405624601 8.860637248462572
4.774064711245647 4.837109250198275 7.35453462400697
4.774064711245647 4.513602281102944 4.978701488367239
4.774064711245647 4.0458949086879095 7.511054225626476
4.774064711245647 2.247449037443764 3.1433346243969056
4.774064711245647 8.100487392199915 3.3753024670296856
4.774064711245647 7.9205270143063995 7.461051495886587
4.774064711245647 1.3364795863152785 5.603056571624019
4.774064711245647 9.370561597140952 2.346951482008591
4.774064711245647 3.89224866622488 4.967316519151822
4.774064711245647 6.267097718428725 2.5993055260239095
4.774064711245647 8.857821200157728 0.5670429700914397
4.774064711245647 9.184315566245598 4.544870179376423
4.774064711245647 2.979978393877853 7.8954255037348755
4.774064711245647 6.34052986105122 2.4122637463462704
4.774064711245647 1.9785732169093613 4.666175933585054
4.774064711245647 1.8277249121460475 0.5437806658602372
4.774064711245647 4.498618837697229 9.002744471947087
4.774064711245647 1.5717597542543849 1.5658933982023933
4.774064711245647 1.9394577841433334 2.7808795905716885
4.774064711245647 5.524834077333642 5.399284969180065
4.774064711245647 6.132725431901076 6.878752578190665
4.774064711245647 6.526607699634993 7.471291877039596
4.774064711245647 0.8377664779203335 7.595272080349139
4.774064711245647 3.64640772126731 1.661313907590178
4.774064711245647 6.913476875484051 3.72670760767869
4.774064711245647 6.144797924960459 5.465355285515321
4.774064711245647 5.731362750971099 4.0370642955012155
4.774064711245647 6.580217780675906 1.340447064272581
4.774064711245647 0.5560009918552763 0.9772084771036429
4.774064711245647 4.5080961543857745 4.982248547719134
4.774064711245647 1.7599371281647673 0.49133409690928487
4.774064711245647 1.310401302313918 9.591933207274147
4.774064711245647 9.645019206489284 3.4762794877557166
4.774064711245647 9.880197029814212 1.4343584811191115
4.774064711245647 5.533234048640692 5.515534399009077
4.774064711245647 7.812264406185901 9.239917502395349
4.774064711245647 2.081374854002563 1.5019193516452378
4.774064711245647 8.8544961145898 9.420738516885285
4.774064711245647 7.130242170428701 3.2025125152253535
4.774064711245647 7.030534253777869 8.213284635183431
4.774064711245647 1.448935218647255 9.282936145179264
4.774064711245647 3.6744926460285616 1.7305313645480251
4.774064711245647 5.676182809492635 8.28846974000381
4.774064711245647 0.45812508868338786 5.174009460743083
4.774064711245647 8.328223790604117 1.6904659930208814
4.774064711245647 9.316458053897781 7.384497980903396
4.774064711245647 2.4920014854041437 1.7185574351602464
4.774064711245647 5.418102404615584 3.9550526329281133
4.774064711245647 3.6512664500840972 7.772850456820175
4.774064711245647 3.7822738438318826 1.1966914483297242
4.774064711245647 4.309626241866008 3.0782199373677095
4.774064711245647 2.1684020148024064 5.024847004985083
4.774064711245647 2.277109311805244 5.656069475595837
4.774064711245647 4.900287119271001 4.305650158449925
4.774064711245647 0.24972306000254973 9.551492397395682
4.774064711245647 3.424238034001712 6.6091283984536835
4.774064711245647 0.5247716444930796 1.3057599298929432
4.774064711245647 1.7655343380646122 7.086859116769714
4.774064711245647 7.444143074684053 8.9854207905634
4.774064711245647 8.568917979076215 8.427942740399214
4.774064711245647 2.1000566879134333 3.929723190829349
4.774064711245647 5.606261046026803 9.305399768311087
4.774064711245647 3.5831554790914413 7.834242054485438
4.774064711245647 1.8511824601728932 2.786708899135923
4.774064711245647 0.5192730690533082 9.772517717772928
4.774064711245647 4.547609353522458 8.32581542558213
4.774064711245647 8.02442882283034 6.076382757361661
4.774064711245647 6.137250188365735 2.8922182137696257
4.774064711245647 7.8700071730063375 8.010561438708644
4.774064711245647 2.5870387872212595 6.365063544351256
4.774064711245647 7.9206725176720685 1.6461560153618333
4.774064711245647 3.8999460150059893 0.8545213792634553
4.774064711245647 6.377334945519367 7.525424457707232
4.774064711245647 8.742880218011635 8.26707259491683
4.774064711245647 1.0981196214065494 8.657592974220318
4.774064711245647 5.890152766953379 7.490299513231769
4.774064711245647 7.623417580708951 2.3316292366069438
4.774064711245647 5.999638986143975 8.388005649919087
4.774064711245647 6.412409335613146 2.4553330731329464
4.774064711245647 0.5738067470524383 6.521960630048014
4.774064711245647 7.931181917638259 1.6373788467872015
4.774064711245647 2.357889494615571 5.65630047074444
4.774064711245647 6.123688908749179 8.705880240619935
4.774064711245647 0.9147972431773818 7.5063798650721205
4.774064711245647 7.954552392434181 3.6942811473351065
4.774064711245647 2.696457821768597 9.8414015292742
4.774064711245647 8.578730636684993 7.234362387154019
4.774064711245647 2.72628297105311 5.218598179258762
4.774064711245647 9.424012333818665 7.356669061423624
4.774064711245647 2.5085350466864704 1.9833434452404741
4.774064711245647 4.2705730126358095 2.0956303870877084
4.774064711245647 6.8190383724915575 0.38232327974159613
4.774064711245647 7.509033593138849 4.2883031531504425
4.774064711245647 3.142020476230587 4.899047339080005
4.774064711245647 3.941272807767038 1.099075999822817
4.774064711245647 2.2790288525663716 9.115154497351433
4.774064711245647 6.037474687139402 7.765941908790434
4.774064711245647 7.595169277800604 1.7340197205629553
4.774064711245647 4.173790299446159 1.7237619177423935
4.774064711245647 6.075006577960101 4.792955427225447
4.774064711245647 3.998666036331568 3.944667493898266
4.774064711245647 6.618663168437262 6.160127947320872
4.774064711245647 1.3377216031952932 3.1168209416010146
4.774064711245647 0.1744974860848476 6.013373197262471
4.774064711245647 1.9394756404525142 2.5078612376617304
4.774064711245647 2.370612257550133 8.56603759083407
4.774064711245647 5.908340287321849 5.331337081185949
4.774064711245647 9.52172294162422 1.2508273149519407
4.774064711245647 7.88746881097217 4.236956157280691
4.774064711245647 7.515466445212866 7.812535199977072
4.774064711245647 6.184521234455533 6.644174311003854
4.774064711245647 5.959097013902869 9.187021705221571
4.774064711245647 7.6749260393816305 6.974674482700185
4.774064711245647 0.6967988068058357 7.7599948647183545
4.774064711245647 0.18323341193241005 6.06785954383867
4.774064711245647 9.382041647954914 7.96472414545743
4.774064711245647 6.615299217903232 9.507891980193987
4.774064711245647 1.5764496879524454 0.35925296187315525
4.774064711245647 3.773372461191829 4.1832087581647635
4.774064711245647 1.4216026981956305 8.913946322940182
4.774064711245647 2.535402586608112 9.838988629862428
4.774064711245647 2.284742706832533 0.46921262864141255
4.774064711245647 8.045405837656956 9.575452899785095
4.774064711245647 7.189301975369738 4.664090548971508
4.774064711245647 2.0765103286620814 2.2622364741277643
4.774064711245647 7.4919961345662 2.6400895498168935
4.774064711245647 9.449365023932723 9.31168468794403
4.774064711245647 2.7090441155856047 5.202091436262965
4.774064711245647 1.242652195305378 1.0325484609936446
4.774064711245647 7.1933570383655425 4.669300193161025
4.774064711245647 6.5369733590516015 8.47275304849322
4.774064711245647 8.155544819549805 8.876093623068554
4.774064711245647 5.135617032710261 2.158968783826329
4.774064711245647 9.881823888427034 1.4350822623584054
4.774064711245647 6.009761015192531 2.0675825302483855
4.774064711245647 9.845355943510842 4.338228106637803
4.774064711245647 0.984951544935914 4.81638400182047
4.774064711245647 2.7873106191727417 2.142125506021914
4.774064711245647 6.0461064875588075 9.153550378525827
4.774064711245647 9.215687363267616 1.1385309048688605
4.774064711245647 1.4881880141641 6.4840580560101895
4.774064711245647 2.4644512040590167 2.0149047104978375
4.774064711245647 7.192055432184623 4.667691501419264
4.774064711245647 3.273188741353253 0.43904104442890474
4.774064711245647 3.217813099504069 4.85059940391647
4.774064711245647 9.73092258451308 8.92067518115299
4.774064711245647 3.5650595146027118 9.468792491747648
4.774064711245647 9.318810644857383 5.145161460132097
4.774064711245647 4.903585278693808 1.2892400616057638
4.774064711245647 9.183089562341609 1.1447357443964823
4.774064711245647 9.952606127740191 4.07952710947608
4.774064711245647 7.162728216668009 5.37895771090309
4.774064711245647 5.8636525140770415 5.189463835927677
4.774064711245647 8.540625402988233 1.7188769569929108
4.774064711245647 4.710595785475331 6.900427345996773
4.774064711245647 6.423222555792529 3.6966234132665527
4.774064711245647 8.062727840085435 4.502943671743762
4.774064711245647 6.093522257862173 2.999287005894992
4.774064711245647 1.8234959917522344 9.112775760640249
4.774064711245647 9.666885085927355 9.058778121970006
4.774064711245647 1.6968277437682495 8.255414921084327
4.774064711245647 6.201654854246231 2.4945376384864253
4.774064711245647 4.022107170749096 3.2192362317006205
4.774064711245647 5.406466521858145 3.956222874144505
4.774064711245647 7.514112553108364 6.644526030304199
4.774064711245647 2.886763859578819 9.841383648212128
4.774064711245647 4.634332631527791 7.951098878087023
4.774064711245647 5.957851148361953 0.3943788103394072
4.774064711245647 4.3942968991679745 2.687794131159623
4.774064711245647 3.9784853686650004 7.033114804019586
4.774064711245647 4.729283427940326 1.7136323076452935
4.774064711245647 2.3102675770591965 9.49822379284179
4.774064711245647 5.604106473616125 2.2860310037131777
4.774064711245647 0.48808439042883023 3.1844606981621495
4.774064711245647 8.745786539992086 7.448332918902986
4.774064711245647 3.3121684661668156 9.12178346582451
4.774064711245647 2.4425881664245095 8.928762625883703
4.774064711245647 8.622215469792744 7.356323750194701
4.774064711245647 5.3551996735997545 5.767106109368025
4.774064711245647 4.723731383880137 1.7413636457222499
4.774064711245647 2.9606563369298504 8.91252351655743
4.774064711245647 9.046822789752902 8.120157443550182
4.774064711245647 8.952089517925963 2.33498795049081
4.774064711245647 3.3237008678447384 1.2742013708126811
4.774064711245647 7.2504592201540365 1.7659212915641684
4.774064711245647 1.8581960416523506 0.5620625813294914
4.774064711245647 4.949511018625577 8.850830385408473
4.774064711245647 4.209804448288676 3.119754162735045
4.774064711245647 4.3337183814458 1.3370955894595402
4.774064711245647 7.174954549438666 3.6300559214462664
4.774064711245647 1.0065353563860668 4.754301427259055
4.774064711245647 8.938623333108232 1.4244325833618185
4.774064711245647 8.661174876561715 4.388592653506869
4.774064711245647 6.482142619051679 0.19233891642847067
4.774064711245647 0.16315953457304017 5.9725076641812365
4.774064711245647 7.199106355654877 4.667141602878993
4.774064711245647 0.7574754726938415 8.592219653806167
4.774064711245647 5.86572851610941 0.802141845708013
4.774064711245647 8.041660948524743 6.140017145639657
4.774064711245647 3.740563622542157 5.748243015459969
4.774064711245647 2.3619746026344335 9.830196966956668
4.774064711245647 8.074815736106098 3.5804617033633144
4.774064711245647 6.846200032641828 2.5565794327585847
4.774064711245647 5.21407465919442 3.4218328716885344
4.774064711245647 6.915826617914295 1.0366395498085474
4.774064711245647 7.3130680806930135 6.616864569884136
4.774064711245647 8.151048347810523 8.875070620415938
4.774064711245647 5.342489301160507 6.2523110665854835
4.774064711245647 3.901081151510237 6.973405444281637
4.774064711245647 3.3306855459844593 6.63586827883838
4.774064711245647 2.388964838967828 1.6606710021172895
4.774064711245647 5.282032501724541 2.2589611667384535
4.774064711245647 1.4921299240344572 8.48602568524027
4.774064711245647 5.877036722750681 5.16385644544522
4.774064711245647 7.747277415799522 2.680247252237061
4.774064711245647 0.8793254324326778 1.3811823412760742
4.774064711245647 8.694275374097272 2.8228619452612445
4.774064711245647 7.90181978142602 5.65799216032431
4.774064711245647 3.9643762974938057 3.766710459419498
4.774064711245647 8.858157714519157 3.0436496335059453
4.774064711245647 3.515794324170862 4.536227620236224
4.774064711245647 7.363497963798153 1.8060586374255334
4.774064711245647 1.8534425197332502 6.816125069724594
4.774064711245647 2.744404875461514 5.408901012725843
4.774064711245647 7.923846535161224 8.841900936560322
4.774064711245647 9.302479456755494 8.138153442953236
4.774064711245647 6.178994620391556 4.448852712082037
4.774064711245647 2.066329627560276 4.44301200869965
4.774064711245647 4.870541609616516 4.521946273035223
4.774064711245647 7.765777891491851 3.882693773150779
4.774064711245647 8.165861145889751 2.9602950931146883
4.774064711245647 6.910901846403433 5.558937904800775
4.774064711245647 8.390642122060552 3.7093169235422407
4.774064711245647 1.5202001968617174 5.545088390212325
4.774064711245647 2.5292624131046195 7.074896058488717
4.774064711245647 5.9982744100189525 2.14508795512269
4.774064711245647 3.3210260734269554 4.2974796835791365
4.774064711245647 6.408159160841178 7.012704398652352
4.774064711245647 0.6813793539760454 5.152720365830958
4.774064711245647 0.8388540192117986 7.441909240979358
4.774064711245647 5.0157065958907525 4.230490886248207
4.774064711245647 3.515928513768847 4.545319317192795
4.774064711245647 3.0408199527595587 0.6781809863563605
4.774064711245647 3.445429972299446 9.521371012609997
4.774064711245647 7.4184913220843445 0.10427992374974543
4.774064711245647 6.858937184182488 4.441634480812714
4.774064711245647 4.44826714191913 2.215773176448495
4.774064711245647 7.328627745430348 3.694746307481891
4.774064711245647 4.151804120583453 5.381747943256587
4.774064711245647 3.61270857260416 2.1066055717241614
4.774064711245647 6.1639877738054984 0.3138248116599284
4.774064711245647 2.7153194412652986 0.585294172031156
4.774064711245647 7.866259489762662 9.566455003403538
4.774064711245647 1.1195401187806961 3.059748695316858
4.774064711245647 7.5758737660583595 1.2170047864144091
4.774064711245647 1.4339618656659756 3.071030169815087
4.774064711245647 0.760092313307367 1.058389446899996
4.774064711245647 2.714559623773365 5.430513083676658
4.774064711245647 5.639610425471895 5.464402474976275
4.774064711245647 5.4107581771392494 3.953210702405483
POLYGONS 100 1808
10 512 695 612 492 24 21 150 716 692 510
21 315 462 572 413 145 498 327 474 434 652 457 70 770 560 755 436 477 443 566 631 264
15 687 777 10 82 352 280 567 202 792 112 855 438 337 781 629
6 129 520 528 43 71 721
17 397 685 573 198 148 13 208 289 62 85 682 668 433 622 110 231 786
16 144 732 17 395 42 278 259 131 190 598 539 818 248 312 256 784
18 131 190 598 201 253 537 207 417 527 184 582 708 665 576 490 794 797 706
23 146 483 804 232 16 339 588 358 286 647 243 431 383 496 754 855 438 337 633 698 261 294 509
13 512 695 597 640 196 857 444 173 225 487 641 692 510
17 102 407 19 829 675 402 468 228 587 64 843 877 701 596 224 65 689
16 180 454 412 637 314 210 355 748 220 58 267 835 216 217 3 113
21 84 525 534 260 240 258 677 445 428 300 152 252 854 319 183 318 506 222 120 408 266
19 481 864 377 511 241 187 542 441 874 304 339 588 358 824 166 77 711 484 556
19 392 600 221 859 703 501 558 240 258 677 322 103 760 473 105 545 32 699 393
15 304 339 16 232 804 356 841 717 690 29 700 35 290 441 874
22 416 529 467 499 163 848 673 860 783 879 667 646 390 613 564 846 353 719 833 772 523 263
12 600 616 308 323 486 599 193 733 642 703 859 221
20 231 786 397 170 12 149 140 662 30 211 150 21 24 492 432 223 11 195 153 272
20 68 456 346 691 714 288 808 579 107 768 382 559 192 39 295 246 405 116 400 200
20 99 161 602 812 315 264 631 566 41 306 767 548 5 1 521 607 592 533 133 458
6 690 717 841 245 242 347
20 418 478 536 425 254 122 856 447 840 861 28 764 713 130 747 671 276 547 634 847
6 445 677 322 103 842 428
18 862 871 385 741 15 87 563 162 282 376 656 830 666 72 522 37 181 91
10 58 267 835 216 475 676 56 388 648 876
18 314 637 412 454 299 104 244 744 761 709 132 296 666 830 656 376 282 508
18 222 506 632 331 85 62 289 208 452 7 115 800 233 796 374 725 408 120
17 327 498 145 413 239 36 852 821 624 80 167 850 427 836 88 839 324
15 353 846 564 613 86 101 142 775 185 644 303 504 865 554 328
20 692 716 150 211 30 453 697 188 287 750 419 22 659 61 340 251 169 135 487 641
15 596 701 877 843 25 707 130 747 671 276 532 345 333 94 672
17 425 536 478 680 342 310 6 586 118 623 237 226 215 155 178 143 254
21 402 675 561 38 828 789 617 568 291 470 391 485 124 214 430 179 257 364 819 228 468
20 72 666 296 132 709 469 757 69 601 375 869 249 661 643 334 471 803 234 37 522
23 144 732 17 395 625 51 574 729 182 340 251 169 135 487 225 173 444 348 359 399 825 165 784
21 215 226 237 623 206 638 119 724 244 744 761 709 469 757 69 601 439 298 305 410 386
18 383 431 555 265 535 73 500 389 479 404 752 831 202 792 112 855 754 496
22 202 567 280 352 589 191 100 515 371 361 313 79 670 274 420 788 440 502 362 238 752 831
18 525 534 260 240 558 501 703 642 733 193 531 472 816 66 694 448 832 780
13 6 586 540 95 292 875 722 81 83 172 55 189 310
19 33 608 758 731 681 57 491 14 175 429 590 149 140 662 30 453 697 188 702
21 298 305 414 27 513 782 807 670 274 420 788 440 866 710 493 332 249 869 375 601 439
20 624 821 704 297 609 503 867 809 271 658 275 203 381 745 495 834 368 127 167 80
20 315 462 572 413 239 36 852 821 704 297 609 849 549 728 591 776 204 161 602 812
15 673 860 783 879 398 823 100 515 371 361 570 229 268 147 255
14 539 598 201 253 537 123 538 344 284 553 686 372 248 818
13 665 708 209 562 488 735 845 801 350 465 117 490 576
17 84 525 780 832 448 396 739 482 778 44 715 48 796 374 725 408 266
19 22 659 61 340 182 729 574 311 688 98 126 844 360 380 678 595 59 158 136
23 433 668 682 85 331 632 506 318 183 319 578 281 407 19 829 675 561 38 828 789 584 90 26
21 224 596 672 94 333 76 853 626 421 351 105 473 760 103 842 428 300 152 137 442 65
14 382 768 107 790 9 799 362 238 752 404 479 389 97 580
21 416 529 467 499 134 621 649 106 461 868 179 430 214 124 316 194 31 798 654 639 552
22 129 721 71 526 138 336 171 645 726 89 878 654 798 31 235 827 530 550 159 341 730 611
20 687 777 338 125 142 775 185 644 497 271 658 275 203 354 822 294 261 698 387 629
16 303 644 497 271 809 867 503 609 849 549 712 605 743 186 865 504
19 10 82 352 589 191 100 823 398 879 667 646 390 613 86 101 142 125 338 777
14 110 231 272 153 195 620 177 463 309 373 90 26 433 622
14 162 282 508 314 210 355 748 516 737 650 635 805 87 563
21 492 612 695 597 640 615 341 159 550 530 213 546 774 571 480 177 620 195 11 223 432
16 18 763 544 109 197 803 471 334 614 669 714 691 346 456 121 34
16 360 844 826 751 517 293 111 610 156 593 742 872 218 655 330 380
15 129 520 528 581 399 359 348 444 857 196 640 615 341 730 611
22 43 71 526 138 583 851 771 176 551 837 594 686 372 248 312 256 784 165 825 399 581 528
19 727 759 769 489 811 349 283 285 406 802 518 627 54 435 219 575 317 753 653
12 416 552 639 654 878 89 726 277 367 772 523 263
10 53 862 91 181 37 234 803 197 109 544
10 164 679 379 517 751 826 844 126 98 524
17 146 483 804 356 841 245 242 696 335 495 745 381 203 354 822 294 509
22 446 466 699 32 545 105 351 421 626 565 577 307 858 403 663 450 569 363 814 723 734 139
21 384 505 630 262 47 489 811 349 283 773 664 60 700 35 290 441 542 187 241 247 603
10 591 728 549 712 605 743 762 749 815 20
18 99 161 204 776 591 20 815 749 52 270 771 176 551 837 93 476 133 458
20 276 532 345 333 76 853 626 565 577 307 756 810 23 494 279 415 366 45 634 547
14 291 568 617 789 584 90 373 309 463 177 480 571 326 168
19 705 785 160 514 863 401 4 795 115 800 233 796 48 715 128 791 250 820 740
23 138 336 171 645 726 277 367 772 833 719 353 328 554 865 186 743 762 749 52 270 771 851 583
10 118 586 540 95 292 683 119 638 206 623
19 78 543 585 437 59 158 136 22 419 750 287 188 702 33 608 758 301 8 736
14 592 607 343 538 344 284 553 686 594 837 93 476 133 533
23 840 861 28 0 114 628 106 649 621 134 499 163 848 673 255 147 268 424 320 720 738 422 447
14 579 808 451 718 493 710 866 440 502 362 799 9 790 107
20 81 722 873 108 541 793 604 329 212 365 606 449 92 494 279 415 460 321 172 83
15 313 361 570 229 268 424 320 720 838 409 513 782 807 670 79
18 13 208 452 7 115 795 4 401 766 151 394 519 636 619 75 423 198 148
6 131 259 278 273 797 706
6 629 781 337 633 698 387
21 74 557 711 77 166 824 358 286 647 243 431 555 265 535 50 817 411 787 870 157 813
15 397 685 573 198 423 75 619 455 806 175 429 590 149 12 170
19 180 454 299 104 244 724 119 683 292 875 722 873 108 357 269 618 236 3 113
20 64 843 25 707 130 713 764 28 0 114 628 106 461 868 179 257 364 819 228 587
13 334 643 661 249 332 493 718 451 808 288 714 669 614
19 122 254 143 178 155 215 386 410 305 414 27 513 409 838 720 738 422 447 856
24 482 660 651 205 230 199 370 684 96 674 325 426 141 174 507 378 227 302 816 66 694 448 396 739
12 102 407 281 578 319 854 252 152 137 442 65 689
20 369 459 657 67 111 293 517 379 679 693 350 801 845 63 464 49 154 765 779 746
15 418 478 680 342 310 189 55 172 321 460 415 366 45 634 847
20 42 278 273 797 794 490 117 465 350 693 679 164 524 98 688 311 574 51 625 395
25 2 46 40 802 406 285 283 773 664 60 700 29 690 347 242 696 335 495 834 368 127 167 850 427 836
17 391 470 291 168 326 571 774 546 213 530 827 235 31 194 316 124 485
CELL_DATA 100
SCALARS cell_scalars double 1
LOOKUP_TABLE default
-0.0003953881855052188 0.0006609905454091347 -0.002099828848245444 -0.0059014809277551095 0.00041291736339310603 0.00044563250342388727 0.00030058914827257865 -0.0010071846850072674 -0.00010361993716223594 0.0038768556293469203 0.000465736110445647 0.0005165123381694059 7.230290661031091e-05 0.0003597949558722391 0.0012655734802198282 -0.01566387697700211 0.00018957039790734598 0.0012846033479689822 -6.813872018618383e-06 0.0007128278172503499 0.0008655918695934517 -0.009335199156498497 0.00014332398777305855 0.000384450325778829 -1.5441898984391855e-05 2.626143498307698e-05 -0.0005187846056937673 0.0010765071826783768 -0.05247457426835744 0.0005320724822741596 -0.0015726646404434774 0.0015797659597573954 -0.0024194786703253257 8.64050855264864e-05 -0.00016340800637149044 -0.0021044620724932628 0.0011012742425018374 -0.001012187118167418 -0.00017587673888641575 0.001422136713681077 0.00021081378846776744 0.0011194027662755346 -0.002266626826340712 0.001920497650292674 -0.0496813021099447 -0.00020429430159030204 0.0005533764979217537 0.00016383816629605974 7.579046565187042e-05 -0.0013089455576658082 0.0007806862291745986 -0.00013634076956048347 -0.02734106232689104 4.8217865152189177e-05 0.0026241332940735163 -0.00243293412499046 -0.06647945605394856 -0.0006394544988985729 0.0001902783767144811 0.00218962655186683 -9.516922482788459e-05 0.0001247669154631481 0.0005975553172703485 -0.004848610173715073 0.0002652915363574593 -0.022262520767015737 0.0003088438719913711 3.02569834769173e-05 0.0012415362620501469 0.0005710708898627459 -0.0001254710929092795 -0.00268666196092493 -6.40144205661386e-05 0.00047070575266872083 0.0008698319349340622 0.0002551752491717352 -0.023908056680784995 0.00016372091551186685 0.00029290759700817404 -0.0009877859119367116 -0.05696282333096292 -0.00016652452525534045 0.0012041646261726768 0.0005957981660955625 0.00045764413681848026 0.00040614127751581464 0.002709773496538226 0.00027926170736503053 0.0002709822881810098 0.0003295543019046221 0.00015661959030577322 -0.00018645477175560643 -0.000700311645341678 -0.00013507240439381007 0.0011055966827058228 -9.942062512990901e-05 0.00025092029024254003 -0.0005807332896177186 -0.0011608362305590703 6.637691946309587e-05