# vtk DataFile Version 2.0
polydata
ASCII
DATASET POLYDATA
POINTS 24 double
 4.29093e+00  5.58435e+00  4.11212e+00
 4.31868e+00  5.87682e+00  4.17788e+00
 4.13182e+00  5.26301e+00  4.44869e+00
 4.22911e+00  5.99659e+00  4.65271e+00
 4.08441e+00  5.41902e+00  4.78614e+00
 4.49208e+00  4.85303e+00  4.74436e+00
 4.24626e+00  5.27093e+00  4.98943e+00
 5.21133e+00  4.99649e+00  4.92665e+00
 5.09181e+00  4.83429e+00  4.78356e+00
 4.70976e+00  5.58519e+00  5.25732e+00
 5.18313e+00  5.94579e+00  4.95579e+00
 5.18663e+00  6.11317e+00  4.60736e+00
 5.35294e+00  5.70274e+00  4.25534e+00
 5.45610e+00  5.28694e+00  4.75882e+00
 5.45497e+00  5.28562e+00  4.44786e+00
 4.77717e+00  5.41021e+00  3.95181e+00
 4.91357e+00  4.91422e+00  4.21889e+00
 5.01285e+00  5.73621e+00  3.98599e+00
 5.13602e+00  4.88285e+00  4.35810e+00
 4.44114e+00  4.86995e+00  4.50467e+00
 4.78439e+00  6.03365e+00  4.09722e+00
 4.41845e+00  6.13255e+00  4.77338e+00
 4.88059e+00  6.23260e+00  4.45391e+00
 4.76388e+00  5.86290e+00  5.19425e+00
POLYGONS 14 86
5      2      4      3      1      0      
5      8      7      9      6      5      
5      13     14     12     11     10     
6      17     12     14     18     16     15     
5      6      4      2      19     5      
5      0      1      20     17     15     
5      1      3      21     22     20     
6      4      6      9      23     21     3      
5      15     16     19     2      0      
5      19     16     18     8      5      
5      10     23     9      7      13     
5      21     23     10     11     22     
5      22     11     12     17     20     
5      8      18     14     13     7      
