# vtk DataFile Version 2.0
polydata
ASCII
DATASET POLYDATA
POINTS 24 double
 4.29003e+00  5.58423e+00  4.11307e+00
 4.31812e+00  5.87741e+00  4.17911e+00
 4.13168e+00  5.26237e+00  4.45080e+00
 4.22939e+00  5.99651e+00  4.65479e+00
 4.08511e+00  5.41870e+00  4.78818e+00
 4.49287e+00  4.85322e+00  4.74629e+00
 4.24754e+00  5.27090e+00  4.99100e+00
 5.21103e+00  4.99714e+00  4.92792e+00
 5.09191e+00  4.83487e+00  4.78518e+00
 4.71055e+00  5.58459e+00  5.25746e+00
 5.18297e+00  5.94466e+00  4.95723e+00
 5.18709e+00  6.11271e+00  4.60940e+00
 5.35408e+00  5.70255e+00  4.25736e+00
 5.45560e+00  5.28695e+00  4.76055e+00
 5.45525e+00  5.28538e+00  4.45001e+00
 4.77792e+00  5.40938e+00  3.95194e+00
 4.91431e+00  4.91328e+00  4.22079e+00
 5.01420e+00  5.73652e+00  3.98667e+00
 5.13657e+00  4.88251e+00  4.36010e+00
 4.44165e+00  4.86948e+00  4.50680e+00
 4.78500e+00  6.03457e+00  4.09829e+00
 4.41900e+00  6.13220e+00  4.77536e+00
 4.88121e+00  6.23280e+00  4.45585e+00
 4.76447e+00  5.86175e+00  5.19491e+00
POLYGONS 14 86
5      2      4      3      1      0      
5      8      7      9      6      5      
5      13     14     12     11     10     
6      17     12     14     18     16     15     
5      6      4      2      19     5      
5      0      1      20     17     15     
5      1      3      21     22     20     
6      4      6      9      23     21     3      
5      15     16     19     2      0      
5      19     16     18     8      5      
5      10     23     9      7      13     
5      21     23     10     11     22     
5      22     11     12     17     20     
5      8      18     14     13     7      
