# vtk DataFile Version 2.0
polydata
ASCII
DATASET POLYDATA
POINTS 939 double
2.37206341216155 0.347199306397921 4.40570209269491 
3.2078001248699 0.445530972988533 3.81002876376351 
3.2776081619329 0.6422813759889 3.70407336036745 
2.94607510648736 0.912261561212347 3.26895457432082 
2.43767224710495 0.0817095334717227 3.94590544755122 
2.02030629638523 0.453657479921773 3.81000221638595 
2.26073346014354 0.145870467290429 3.75199292579491 
2.02819179335136 0.609815984533199 4.23712634013575 
2.69915463596256 0.605490077421944 4.64275865220108 
2.56275637438145 0.226839044480116 3.43990547376355 
2.79006833403551 0.147156268067318 3.65557318126377 
5.83260938380125 2.30492818754781 3.58700773093134 
5.80250965993489 2.65942947592563 3.39300050353216 
6.30446480214253 3.32901759372809 3.41233194272193 
3.90921160233007 9.51187630443916 3.95435775018943 
4.26862767334529 9.83760965502542 4.34135240751413 
3.83977588536279 9.31968286111561 3.9580467991635 
4.00124935419186 9.05361786281868 3.70809157790196 
8.46908920544728 1.39630815500028 4.89538882841709 
8.57107042186456 1.16033101013298 4.39234057078736 
7.44862831784149 1.13553533336232 4.45054395815505 
8.09694247619703 1.6904694265434 4.80354525752303 
8.56796380353529 0.951074093634116 4.33256351655344 
5.14219405651751 6.05022764788063 3.39003884683793 
1.76131861901946 9.52543073653047 3.31156923380435 
7.76225916307805 3.57820018077635 4.52647646471294 
8.01684039274683 3.15166657078147 4.65329084000913 
7.91951104739003 3.56978951457544 4.63943859860247 
7.05227258581473 4.61536308584163 4.88546950810463 
0.801690774212544 5.18482233380331 4.19235134010399 
9.21304371587109 7.4870995560761 3.45654897496467 
6.9091634013027 8.28241721009612 4.47510652995369 
6.92549341494466 8.62325618386674 3.7372785464358 
6.95504386754399 9.24875909274011 4.27575882146022 
7.10026429329051 8.89251511710319 4.17749437339508 
5.74549459531181 8.61359483758526 4.33191131779444 
6.7615623831395 8.13534796022743 4.13865233551824 
3.71662485064959 4.74191128141194 3.45510967293805 
3.26995197628455 5.25528039764756 3.10671717032141 
3.70610410473788 4.61254631420564 4.10618357434417 
2.92448389693724 5.43749984877615 3.18143374309795 
3.65813185690667 5.27046939992225 3.43758444260751 
3.25437813070102 4.59483447282407 3.12327383846156 
3.20525408945115 4.25201428557632 3.7585832929205 
3.50048964221291 4.43389308757484 4.19226627914118 
3.38277444345347 4.4955415448273 3.2356840469661 
3.63416638513382 5.41112717905652 3.72541178540609 
3.39500406053931 5.05431495908552 4.43293041391467 
2.497319455727 4.01439639761223 4.97551774173206 
1.06133992614588 4.33150233743523 5.12515788825899 
2.45180621950353 4.40726330943279 4.68449321350131 
1.22557979115858 4.78583704109299 5.01690697711623 
1.56722366903853 4.90650124967869 4.67750100402312 
1.09093820194165 4.15126644508324 5.03488606602745 
1.64393473733761 3.77286245595535 4.87425613503317 
1.49029033506044 3.98628698264483 4.64781168329233 
7.6448204618875 5.40504357306164 3.37289771810665 
7.01442882000217 5.16672651979305 4.03433598437257 
7.10967844969091 5.55621737756692 3.60752601462702 
7.7745510464281 5.11537971271337 3.58677656122444 
7.28191486415474 4.41080069832934 3.75156776061468 
7.39530520865733 4.87302314525348 3.99245704076344 
6.82269050163919 4.28127702765768 3.6497563304628 
8.81522830168025 4.1407563690857 4.93945158802864 
0.854997546940636 2.25563761072428 3.64339898190624 
2.0215563365162 2.43362019826969 3.61574622849502 
1.65787115956139 2.02027525675162 3.72272041848387 
1.11977809640708 2.31280385072305 3.86641386081323 
9.06370868289577 0.711599682330711 4.20899911167978 
6.07533983009152 1.48868065705437 4.14086397621992 
5.73624190016681 2.16827388040273 3.51987713161479 
5.9163834012246 1.58492054028843 3.70780411227774 
5.38293066590612 1.35576919771741 3.85182477904138 
7.7125520178111 6.95490210596669 3.42700254693533 
7.94395173778804 7.68927661377358 3.4452159894615 
3.9697895540498 6.98883822497642 3.51802067191074 
3.02547102957401 7.2169169538308 3.41681416317864 
3.76845804240814 7.28573797125828 3.49242221152117 
8.884531750731 9.02660572056636 4.2766756510644 
8.95961075090517 8.77095738928863 4.25791472238073 
0.340399147550498 9.20140834167424 4.60210518908555 
6.12240980920304 6.43906739599057 4.23810887290128 
4.84860637296862 6.30617538055151 3.68551892413133 
5.76374306192005 6.91450543068268 4.04403012492179 
1.30004295089785 9.02403197744949 3.09250243248132 
1.84618324675531 9.07817843925018 3.23385558155511 
2.78466764789391 6.35216367832056 3.4322500617883 
1.83729269557942 7.26222091323661 3.74946508331175 
2.20315716436871 6.36170329741814 3.63692529322012 
1.86566421648794 6.99797549438704 3.85098604646693 
1.94756842138368 6.41169981682877 3.45312261616526 
8.9213085825764 5.44047176913854 3.60602028037317 
8.80336376879395 5.29237095101643 3.80766333113749 
3.31998486920269 9.0054722597918 3.08475285968703 
1.60706368261701 1.57268380391278 3.33415215707768 
0.988557506211661 8.04400573315693 4.0472134068907 
1.81712344431979 7.7164966214214 4.2121822146543 
1.68316453763029 7.3777070624521 4.01999561459229 
7.7959588073834 8.39489043991609 4.78947830529091 
7.62987151302834 7.79275451358368 4.59842613171096 
7.1335554763919 8.11639268729836 3.5355818307636 
7.76439629821142 7.91757017669158 3.68410752575066 
7.45742569501806 9.06196513065605 4.23607928364787 
7.10807666226555 8.51221994820995 3.51933387010481 
7.51194616080612 7.65724313171623 4.2032894395931 
6.90484523141232 7.90277688249678 3.97922075369455 
8.23550513718339 8.37669755065413 4.18531476755694 
7.83156452874981 9.04512014091438 4.00393708206731 
1.83779576226103 5.72158460007065 3.30038809236376 
1.52854232930192 4.72143749931946 3.89446407785203 
1.43867877126178 0.452269334880048 4.61794542573942 
0.385932611774967 1.3460209163379 4.05132290433964 
0.293159996234644 1.72709356581549 3.77490790590345 
2.98096874535205 3.26831630879765 4.30278660189672 
3.62956597871317 3.12494361399697 4.39144391838244 
1.30962362095853 6.67279244324308 4.7336393373763 
1.23149405889268 6.8397090244838 4.32688795268672 
1.96450843495518 6.94582385001192 4.57049692581249 
1.71799391547727 7.08012492543751 4.12615382653486 
0.601535998148096 6.65739176702985 3.92576216638639 
0.576799617885933 6.7579108059073 3.41564293916277 
1.13790397671959 6.62161808196719 3.25336255672435 
3.44230316611514 5.31483416985348 5.0035274241938 
0.286735350714809 0.458987157857473 4.51486348476266 
3.99219599708413 0.135460054192479 4.42720950714685 
1.17147864652435 9.43424592173479 3.16982686733247 
0.918208983825442 9.55362402926425 3.82861484321486 
4.41593208191481 1.79533105199013 4.96973636343784 
3.97737543052174 1.87011991618566 4.83526882483877 
0.585701963071075 4.13816249005075 4.72599013605264 
0.523464765503459 4.1044387834434 4.44029310257942 
8.61332868995805 3.98631236773783 3.79703784155447 
9.10815242213996 3.82781620429147 4.67831675140724 
1.0001050292278 2.1480471580672 4.32767869448166 
1.79997673047787 1.57480553430009 3.96652671740523 
1.04166057511317 1.42573657643893 4.48371027233101 
1.79621419676794 1.79114410448582 4.02502879478356 
0.45873076396343 1.43432721673136 4.24911582702059 
4.34726401728845 5.87439345127223 4.18615952803915 
4.30954213277308 5.53889108735208 4.133117579852 
2.57956195797347 3.34596317247242 4.08326132076362 
1.80924569913298 3.58721911628199 3.64911040681712 
8.18265255218278 5.7035460234387 4.26432376279019 
8.23914274046964 5.49428817986512 3.85304810982716 
7.75771123612105 4.87393478588118 4.33444593638467 
8.04205365524108 5.13160516432982 3.82143192759805 
4.17616064654632 4.66151688060236 3.20943608428617 
4.29780461244006 5.15297397366989 3.19013520542478 
1.42233392688033 3.91355525031375 3.9585564604925 
7.31708654719902 3.22934199236756 3.37758291368277 
5.44475840951295 8.61020916856224 4.55951419432368 
5.21493467625277 8.20945323442664 4.67615292629035 
7.91998605086855 9.32024094420072 3.83672592658452 
4.51393914375047 3.47712245162953 4.43882890494068 
4.23097622223823 2.2754889178386 4.6046322746477 
4.59874518741959 3.50468012630122 4.73131700911105 
0.69576485268337 4.49549812284728 5.01452860981803 
1.55011898439553 0.625887732461363 4.37614354748717 
5.51702296848739 7.43939773697843 4.57757970944454 
2.25479087304387 2.10248112757172 4.11468104137057 
7.51646087317982 1.30429918621935 3.1783801260574 
7.24998919847911 1.85028550206647 3.60837333835644 
7.14332126980537 1.49392959434005 3.46886001337307 
2.58277599379314 5.62804158954033 4.66717602497224 
3.00527113712641 5.61742826914162 4.50659796172712 
8.30861626544308 9.22427484853985 4.28246463552293 
3.81191632129559 8.86880630901564 3.31608677403986 
4.22646783817637 6.85055763619228 3.29146404377685 
3.96060595340051 2.124567721772 4.62635983385054 
3.57404475945772 2.33718195136883 4.88883462090534 
3.65634709026788 2.39069644780584 4.75539390353564 
6.29771408792321 0.843556868322786 3.14991695147415 
2.74591845446975 3.61701485223743 4.93673740930513 
5.88988959333915 3.84192410406443 4.20464670186443 
7.74451936037951 5.586051992928 3.35203574809366 
3.22160102809412 2.34241624151541 4.7347522769999 
2.23477694478306 2.26539437954687 4.53948477908043 
4.3625535629001 7.83668186861615 4.83176150546555 
4.67563712092215 8.03098763362979 4.47930439748123 
8.7972058285304 6.38079432524848 4.6351383914527 
4.54665283512364 4.46044637615334 3.38376734039885 
4.95105622421107 5.10558140594683 3.51379941198649 
5.02003008639089 4.87308864028863 3.52176705443548 
5.35274844230148 0.668973370187252 3.46762586283616 
5.36792134278907 0.983455748401825 3.36975162615048 
5.72112315046821 1.072403937147 3.10749534207905 
5.37857350837157 0.633210394380593 4.04960576864772 
6.07195017224483 1.43949390739157 3.35726687745039 
4.99499466597646 1.09861506869412 3.04969947844195 
4.79488452359417 7.72733290566028 3.83378773010154 
4.92717429743159 7.71943796772142 4.32598089043832 
3.86876635193633 5.56453275388566 3.69340018795353 
2.23121942331597 6.27560945609536 4.74162105310962 
3.31124364062134 5.498511663106 5.00632020475248 
9.15667998475669 1.39843096521652 4.37162035857808 
9.25585858624444 1.99118959428009 4.63550246573376 
9.23451368729778 1.59425963983466 4.70844854319197 
2.36527181829834 6.61044466890574 4.5262652830449 
2.79126165560957 7.137517342601 4.81052824477786 
2.79832517869645 6.85074265474967 4.70037261516059 
8.88336196858709 1.64221890513626 5.01679484948969 
6.87614161262699 3.97717557373701 3.81142123795846 
7.34276019864484 4.11965836279591 3.92233443850615 
5.08439794853173 4.15590006689215 4.99726596732505 
8.05838113993499 6.03960593420684 3.85570219501168 
5.77327680599737 4.45457672503668 3.91562509402915 
5.24448330109582 4.5849481362932 4.13517224340269 
5.81841427064702 4.60591190072972 3.51515990022146 
3.24247597279085 8.36464015387884 3.16800416291954 
1.22680096162859 6.18669394217391 4.73597866665417 
7.5189552564349 4.79774088372578 4.28921350201009 
7.27522250555848 4.96987170905941 4.61528935209618 
3.47467507636975 8.79357143629973 4.47417139634107 
5.56612726818766 1.79445883408488 4.82231403649285 
2.49298404768123 7.85777985747102 4.59841953057678 
1.79963155469892 9.67895232879703 3.65417763463595 
0.78380046804241 5.46852071015726 3.9660370861986 
8.79123847710308 7.7136521848688 3.85079792871294 
8.65193151376684 8.14188625098582 3.82976316894927 
8.87271554634063 4.61073115294327 3.62277397874967 
8.72806699019591 4.53243362700499 3.62406452037989 
0.668479173473656 5.12214644567743 4.42258618905938 
6.22926702106329 2.85468210919551 3.17423648710257 
4.59532574848978 8.61385592793896 4.09405074721144 
7.24900101250879 1.82515693257967 4.17032044106266 
7.02883517070974 2.06340005810059 4.33514255413243 
3.93608184122066 6.02395197114942 3.75177398676156 
8.1299753761691 7.76126172643806 3.39244560299381 
1.57185552017282 6.94011253224792 3.15003469283153 
2.17706072222383 2.95789638097317 4.08543459138783 
2.16491715680745 2.84828256370154 4.51351584835227 
2.84819942814611 2.49521383380184 4.90836745587293 
6.49530947508408 8.14252597190382 4.57106653904808 
6.98242329501065 5.52220114162952 4.48240003155205 
6.96005747954681 5.23080546941299 4.3782355754444 
4.78573615806193 8.23756108686702 4.61609960919265 
7.80407241823954 8.67157168573656 3.58004918883506 
8.056932933797 8.23346386468875 3.70867410401254 
5.92053145964877 0.798106311160618 3.0408620247604 
6.47071546631707 8.05218025554791 4.22143657131722 
4.48641205205435 4.84024042318186 4.7627270818032 
4.95322653129685 2.13179426005144 4.1662330442267 
3.48341991249137 5.63241732133445 5.08807644591669 
8.22453293619711 1.29566036979664 3.39766771490087 
7.65027039847849 6.10073818868503 4.40278366150304 
8.06914597667709 6.01796836266919 4.18036407732685 
5.07788235982564 7.2017994978759 3.19140386104435 
3.94030408136061 3.64009464999099 4.03970581335961 
3.62928806321129 0.0584338703899255 4.29611892969266 
2.35916540984116 5.33673368874682 4.50481220562871 
1.27966158317433 8.45992927496104 3.52792027381832 
8.57889747274348 4.40251039981299 3.28459143830634 
6.89829774878599 2.24646995703581 3.51750801291469 
6.82427056346995 2.31140484111375 4.11366964363798 
7.25544448330622 2.84768917794051 4.46493561314631 
8.01747076959211 8.9632270197005 4.2432694645055 
7.79567157961169 8.9371316591699 4.5002533279039 
6.76403084931887 8.28071640198945 4.63038429424426 
6.57374512150308 8.99183542779172 4.74570667327884 
5.17163718047761 0.536007985107009 4.17243583404879 
5.96176360756175 1.9809392618427 3.53855838519999 
3.03450859914015 6.6213553763303 3.26474109959637 
3.34794296027934 2.89160188601787 4.27534770693646 
3.38199524760489 2.43091450091188 4.53713538812279 
4.58014799971076 4.04719356942404 3.78149072567109 
1.18377220982518 1.946028727948 4.46778993992994 
1.64021104476434 1.75112690941692 4.3071848541535 
8.41358920592173 2.78091945190779 4.21049958127206 
1.52405565999211 6.02988151481706 4.83457337623484 
6.6850277360501 1.47785530767592 3.15171913284478 
6.38644488594486 1.22941878041411 3.35272879407118 
6.32268718646339 2.20326783137439 4.20467011020754 
6.30264484543274 1.96642018529611 4.40166100356136 
1.02940455239391 1.88784507114094 3.16808249813979 
1.58026055236259 1.76585641222784 3.30648803938406 
0.610223434504037 0.392235065352466 4.79272398095384 
1.15620195928918 0.209259937809384 4.49105879717872 
5.99248264977168 2.64754075719917 4.41805891688295 
1.69676147534096 6.6670936506205 3.51364861808328 
3.95196371426971 3.22673220167422 4.14476661600119 
4.21471101417055 3.11216486653936 4.31250577056899 
7.87869977728246 0.676799175932291 3.54340377364727 
7.69471159949108 0.587071872728115 3.91494192426047 
2.59758101698858 4.28142275187337 4.92846772385421 
3.22145725471759 4.42552406989341 4.79304432374148 
1.67068757411771 6.72378974438133 4.85879701164654 
1.8362421718872 6.32126400423691 4.93702052473997 
5.2465448985797 3.83952394171678 4.76019318896451 
6.51066569562448 1.77958763286769 3.08599069907762 
6.10889984543188 1.72097461924101 3.21633105466288 
1.01170461446345 2.28998673709901 4.4930042323557 
2.59278880464999 0.931003289836268 4.65790359568898 
8.65051108791987 8.01853345002186 4.69619947459822 
8.56026451925489 8.31180815934764 4.19735553597734 
1.42439041179088 9.63256412394918 3.26675823752027 
1.024955290054 4.03486553428375 3.76810247574422 
0.598726579165751 1.5112167002831 3.30561688939408 
8.2398755717034 0.992518860039056 3.53951327903598 
1.09302035478938 6.54238966721644 4.07378072103306 
1.39125456429486 6.47294810583762 3.58960754601174 
3.92506210166801 9.03450853189393 4.19768601526327 
4.04581507469474 8.84143480422601 3.98087289483214 
5.1146471248582 5.2466646484373 3.35763778066644 
5.33768254537422 5.10468110288057 3.23882600541159 
3.66227850389532 5.03314186819256 4.24671922166418 
4.14672038997683 5.22763145475755 4.49331589039662 
5.31202981973302 7.77290775066417 4.40671468301241 
9.02754219639977 4.67596880540986 4.90853158935598 
3.03954662478615 8.27194792691231 3.87212553850154 
2.99686822014756 8.31096257308421 3.3478111603445 
4.0885577496466 2.84474721654809 4.74720363682383 
3.89667279097017 2.85148039549459 4.7945908833033 
2.01938970722714 6.03084661514013 3.69893970713015 
2.29633177866581 3.91349526673716 4.77180504005926 
3.21769661793667 5.61368639900569 3.82580916748158 
9.31777461460052 8.09740807683799 3.54900117281813 
6.7023377883933 2.4113715246269 3.21106279089866 
4.504155692065 8.18390621610232 4.08681293904607 
4.63771277294922 7.93920583352982 3.77628583179297 
8.23096759851605 8.15886317438859 3.56481943820644 
9.50566155152405 4.83725991960521 4.41493562164216 
0.935221112796906 4.3182143445932 3.70216424321819 
5.25187629182862 7.05113422233082 4.67823355233659 
2.66058197949783 2.39682679709877 3.53532268704989 
2.24378336305815 2.44751920948801 3.7939977433686 
9.01230653856986 8.41138975781533 4.85472028655128 
6.06022201665632 2.13498140236858 3.60981537904743 
6.63946892315944 2.20749003690574 3.33196006119395 
8.78737301754291 4.80534403516312 3.80053034027184 
8.62685265199822 4.71974641991907 3.8006990382099 
6.24846162802103 0.819443105281734 4.39861689458718 
4.06907520335399 4.44228383211677 4.23742926886724 
4.91338295547723 5.28339505427285 3.97545109837081 
1.19322715097143 2.10120982204074 4.64995317658659 
0.406852315237814 7.07187588416012 3.3963326701899 
0.351848977563334 7.21473351855247 3.87261901504555 
9.17912017137338 7.6818662215355 3.70453207344094 
7.67937850981381 7.51421475987508 4.72853185642409 
1.07486710241164 8.7543059003277 3.29279680317883 
8.88664095996801 3.630388561715 4.35837257548638 
2.02409200935451 7.88290801283399 4.0396848978767 
8.83921603688504 2.05797454596896 4.9832463390947 
8.41420665633436 2.99905904012143 4.54368093154823 
8.90733548272592 3.31372680210579 4.39628768877032 
0.240532318016623 1.2085063642285 4.55213520991717 
9.53296288913969 0.817416784358627 3.67033919750033 
8.44272282852868 7.98720020111179 4.85295846340073 
8.01413494794127 8.14778383967676 4.63537602407882 
0.788037674713381 4.87026563167534 4.91748196215311 
6.80630456295855 3.56130863912493 3.49899327444896 
2.86664078182533 5.58072491876731 3.44035023798692 
3.38401553432276 3.48107537082068 4.43747016970787 
0.913941955444848 3.840252922838 4.07442095823009 
1.29616110802674 3.77802691131996 4.17954265722797 
7.94889930864313 7.25438678155716 3.68541692373668 
3.89541084279668 5.41252793634212 3.37133896397502 
6.26127838619446 5.08250873317385 4.35749358009822 
1.57743942639747 7.14269198904481 3.16475474435425 
4.26777354952471 6.02639067511543 4.6270735695505 
5.18857460963943 7.47155824982466 3.19694873875637 
5.55507960190298 7.42376946062462 3.27741997049835 
8.57579358791494 5.76634303015575 3.4408192310124 
8.17578717013174 5.68743574820498 3.67040691872111 
2.89752418016335 1.1688024532827 4.53625820714605 
2.9877696381535 1.56661261153295 4.93854242363248 
0.827297174544894 5.2196275705041 4.27791621895566 
7.69053735759105 0.708399401310838 3.46658461548217 
6.6384355836784 3.37196642765093 3.60676010222952 
8.99839761286355 8.3798818021067 3.62454479577217 
9.53682338089564 4.28886463858881 3.82334947894789 
9.52753294223325 3.99498143582368 3.96259030426827 
9.01087152112136 3.68771174730648 4.02623151643739 
3.86016339439185 7.35760946604972 3.69430306609184 
3.49276259783703 7.40156479629857 4.17222198219967 
4.65825200557437 3.24522391605518 2.97285749149001 
2.11480691893104 0.958560121401188 4.30735046917145 
9.56331810067493 7.08459584499762 3.64693609764297 
5.02520158004032 4.69695884623689 3.99457079168444 
4.55249121051209 4.3164002453592 3.78774395547545 
3.98963924919895 4.18563016782752 4.38133215101219 
4.19172227859063 3.8251693234954 4.15982093463991 
7.85597431561381 6.71122994950425 3.35380825364616 
1.14887966503111 7.63524624786761 4.10403760702025 
4.92894430778947 8.0445105927733 3.45544090461975 
5.08505945298908 7.79609332900112 3.53476208569741 
7.70878461875786 1.47559770379209 3.15846117058686 
7.60354116108075 1.91312765758162 3.44934808565354 
0.714500221676314 1.06908579007965 3.66584686125036 
0.99742573967155 1.01551705490073 3.68742495383596 
3.59097456598362 3.81920604636151 4.17280175158989 
3.6648981622535 4.14343746596754 4.3713396921236 
1.30195724357008 1.35700913194371 3.23353943262396 
0.895539317594723 1.63432254959699 3.11791102716017 
0.853109111799265 9.22665069340631 4.05051139058505 
9.07625722240215 3.48122023393824 3.94537988579651 
8.93321082424425 3.33482543052885 3.7109813087844 
6.58700890790503 6.79790487787283 3.34989502034798 
5.09063982166724 8.89754927406726 4.34304788674316 
0.495707187509016 4.55405868438393 4.09361014994672 
2.25365514152104 4.13412624117027 4.54953064659863 
8.89569235011889 4.77685520452303 4.83691430944131 
9.12473120088111 4.97630282080844 4.34718654069581 
4.40853807274447 4.87447315248085 4.53036722933799 
4.96592935462078 4.90266189459459 4.20370777780839 
3.74290912088963 6.20205408169605 3.82468011382274 
3.77896084061737 6.51810492594613 3.44149352496854 
6.96440868968746 2.77021442192624 4.19590073216219 
8.99763150815592 9.25318441554156 3.93293338570083 
1.08862550944745 7.4811903262494 3.17768182586018 
0.590799434696875 7.42006759056669 3.24568692028566 
6.45327640105126 1.14656670993737 4.19759357927237 
6.66980061555383 1.8383834110896 4.54459948701851 
6.12743971415658 6.60919734537165 3.69224594718779 
6.1072382686702 6.7196658164087 4.02985460186782 
9.35741148750764 6.61350924461116 3.5304426761641 
9.25900742106135 6.37794022028205 3.81798240528042 
9.194006235571 0.589934446750207 3.74224232010276 
8.70248289151882 0.732251436388268 3.23297212144672 
2.86165747731958 8.56067822978215 3.19149378858007 
3.10443122219571 8.58158571001875 3.04225231852006 
0.364903829357002 9.20821458625075 4.26340960057498 
8.40159688013779 4.47392365725789 4.75335308653501 
2.96385180781765 1.99604369044573 3.79669774643883 
2.72455988099657 1.86945842421852 4.10230735404217 
5.33462000888955 4.87190060810956 3.30352180612663 
9.09443391626477 8.75394642053038 4.52141977266672 
6.40226047341106 0.451504456337401 3.47107466078069 
0.811303738501365 8.94833486012509 3.87088166738771 
4.31371519829137 3.69042776985024 3.14330673689916 
4.60042474848981 3.94517249770091 3.29098624374245 
5.51119972078914 3.09878947412869 5.13898825780037 
7.21774944849437 7.0252956456317 4.12985438784901 
7.56834807809906 7.33280685457112 4.22195076861296 
7.81566943620202 3.86895526916297 4.21358000929138 
7.45413774165255 4.15522100718211 4.22350991478535 
9.66545874749679 4.21968917619894 4.50696775624636 
9.49421026992746 4.70057737419787 4.65528339355606 
4.50630313828061 2.77789557952953 3.96862554129123 
8.46062312049161 2.50892762854407 4.21166473756578 
7.38785259899093 8.06812923508863 4.76827877015064 
2.19005419591011 7.59777764125217 3.64816558024473 
2.63334427104509 7.58295226762815 3.65473824110706 
7.68607945695072 6.48178176159157 4.70888729556229 
8.26034273323757 4.45206533978934 4.3778645324897 
8.23566921222939 4.02954636501239 4.29510168603976 
0.607818579022196 5.04723059557417 4.25705681079701 
8.46329846054287 7.76502389115637 4.88988540287497 
8.07793447176089 7.43073920177889 4.85284147157592 
3.7055805137405 1.91880356113176 3.57458263276476 
3.56536546923439 1.89528473725385 3.72307540758273 
1.35948438533188 8.57234854981858 4.9829579448702 
2.74962646059902 4.40028959576721 3.87393514343055 
7.7591944998135 0.695282347479049 4.14885214416359 
8.29745032598621 1.05512595674133 4.12545988196387 
4.82796174058326 7.16767111712563 4.58230876789771 
4.54066152895056 7.22231554675774 4.89262431092229 
8.28981193286991 8.49598521590311 3.11934467299758 
1.69529380924458 2.25905214771578 4.85768413224467 
1.91317358114535 2.06635406065681 4.74238858060371 
2.45478336057457 7.98666489992562 4.27726337224775 
2.80085789860538 7.82983942508644 3.99747078239446 
2.56543555453894 0.651882456156744 3.19599869180847 
2.24302031705606 0.875832408704574 3.31276188171339 
2.28534218394701 6.10740541469504 4.54076546096781 
7.18370765717994 6.83938701227958 4.37030361461767 
4.76156591549446 1.87249876826365 3.59998632587336 
7.54831500259466 4.53099524746346 3.30383623168677 
7.78424243819965 4.94281302961173 3.33645135464507 
8.12076327900732 2.73704904174709 4.07281338275301 
5.81509792354489 5.42581998304492 3.42105550164601 
4.28450495122378 9.10159613651136 4.64853922820466 
4.70796073463822 8.67945478380499 4.35686101702489 
6.68707742898743 3.87545863875088 4.06377301960365 
6.76525776588656 6.97810290425138 3.44937850099661 
7.35830475637697 6.79500628439227 3.6287271248826 
9.27878486359535 8.34299729346799 4.89394441957928 
5.67830295235191 2.679173097176 4.0567374432914 
9.72980107827168 4.44229180408539 4.10563396608397 
9.75502847977353 4.2083768878305 4.26189050192155 
1.18730900526804 2.7822943227469 3.79472764762787 
1.5166509644669 5.03063632349915 4.49815581887765 
9.15355196156098 9.03653428962299 3.71681337773774 
9.17852430821354 8.7126500473395 3.87927850183821 
4.50621007215334 2.3249271025194 4.07620009655791 
4.38309123155378 2.15852737852217 3.74304700534634 
3.7843663656428 1.80151204831712 3.87129634141015 
3.89967395571783 1.82722168143545 3.72805372423631 
5.05708067034684 1.44488172785343 4.21290952828096 
0.0990759183274635 1.02977063023525 4.14638002374245 
9.62727567132855 1.09828948412084 3.99130082590726 
9.39747490234736 7.9239049810763 4.8489250076078 
8.42826745030714 4.1925858501734 4.83011909368456 
8.31261887193714 3.91289619553798 4.47008249781917 
8.54345209404646 2.18679194501444 4.89399218699694 
5.98130776059254 5.64827824886193 3.20495628760228 
9.39456490206391 5.47784026083413 4.24927574799658 
3.29871374134457 2.61566960648358 3.73575908196387 
3.29668269054424 2.19390665335485 3.88249827023169 
7.71846383339915 3.07447785034397 3.70760013468429 
7.97329245140076 2.92067639112898 3.65056349275666 
3.9839133404926 3.53853641918924 3.42164369032398 
0.477019912701403 7.00498070720081 4.09535067844943 
6.76326184237611 1.32371451687879 4.4286497672936 
7.10946789399238 1.3358332728822 4.23031171581583 
3.0818823531422 1.69366993586998 3.64491546933151 
6.56537716214125 0.555187139088098 3.81952568012123 
6.14982633623387 5.28494304927615 4.43692605640998 
3.22040909860224 8.90120377433729 4.48185845529078 
7.50044652446774 0.639513003812109 3.76977802449959 
6.17400021243351 9.05708953845128 4.69677966541148 
5.95956725539978 8.69765124628502 4.64492673789405 
8.64913585928312 2.13404174216117 3.61783328891871 
4.37377019876727 9.76819020722963 4.54225319718735 
5.00190556983079 9.81792121011081 4.40940382587987 
0.0817039225592472 0.991893290183662 4.40411087752036 
8.89007574700369 3.05075097670343 4.00464233812994 
9.02632002508009 3.22710769782468 4.16758191545402 
6.98496653800312 3.0590114428059 4.5992281067331 
5.14385392949042 0.859793538754076 4.40806239995468 
4.38859088420798 9.31212724163315 4.72211948320528 
4.97512918429813 9.31790889013773 4.61024535200786 
9.17916320903319 6.85192335549676 4.53538254809657 
8.94805813358975 6.56651112136586 4.43425839245777 
3.87967949811062 1.39244148332243 4.6291265667121 
5.80413538729573 7.40899081234025 4.24679192997518 
1.66757419474133 2.92545672992619 3.6504811658169 
4.59147916013066 2.0152322003977 4.8454280270213 
8.21199382205343 4.52674335508934 3.11237889279706 
7.91988211490163 4.25098405812572 3.1329190602979 
5.88945359754137 0.274904218653111 3.99584457383002 
8.58133073397802 1.29778100860546 3.01366397272919 
0.381891754216474 2.0140861024464 3.92915119150745 
0.450126397454962 1.9655980528378 4.18832944634268 
5.0316814396957 1.87165524197114 3.83717415382585 
5.04917785633922 1.57309163769808 3.88714064599957 
7.30639816447668 2.95552092577074 3.48440837844039 
7.25443293636944 2.54545296735871 3.22280156077043 
7.34809116779854 6.90045687738289 4.59148767855584 
7.65788164590988 7.25776925752474 4.5075690007131 
9.32482549370092 1.12546299122915 3.09763716954074 
8.80016145524934 0.920106032619624 3.0091902945695 
0.921942009894398 9.25191346072688 4.83744374477143 
7.57502529481356 1.92616788776558 4.34955441735975 
0.228029156325287 8.94708489361491 4.69676558418169 
9.45111863551023 8.62809326510411 4.6162163461397 
0.85575389040739 5.61556640860447 4.20393237295144 
1.19267469993037 5.94126281515268 4.27239341518028 
6.3472551199266 5.6325530508463 3.10340633152033 
2.6854233806721 4.75550281165026 3.23647416358625 
1.46924490768865 6.1226971359566 3.63467858034149 
1.83582534171205 6.0935312935802 3.54522009243396 
1.2098445375422 8.44474157544079 3.86446648252851 
1.23988173025604 9.23761983937151 4.43104586532074 
1.38281644510276 9.43044125990978 4.40747729045479 
7.97465831481097 8.84291742554756 3.17903424449181 
6.07068513131561 2.94663133088615 4.86477625865309 
4.97027507624971 6.64112304201126 4.28951729559768 
1.63312939242651 1.45278490252042 4.25911083158825 
7.82579091336585 1.63849022183251 4.56899261014749 
6.50157423540113 5.37849232829474 3.1826459120747 
0.296210814175515 8.91716337943877 4.0999557386123 
1.73946215323741 4.23546470714895 4.46516066804433 
1.68085204050136 4.19735117205296 4.05509373978798 
5.83376977224873 5.86375545290775 3.43953184293204 
6.19241860867002 6.20953452499719 3.71092308332086 
8.97263299054315 5.88539292070095 4.73450711693973 
9.42942743579303 5.79860897542202 4.48795900621862 
2.09436565709184 5.43137996419101 4.34714445550583 
1.70412308031685 5.23830640601893 4.58887588702379 
4.2579307993154 7.01324453046538 4.83194639678697 
5.25038886945871 3.00726717086568 4.94709739426099 
4.97000338487573 3.47851892924125 4.65025700214017 
1.46981294605401 8.42869044641978 4.05870344235098 
1.5272445520596 8.87873805734762 4.46463984964266 
7.7101458150198 2.9718420418788 4.38480291166316 
7.66739592320721 3.02038725200988 4.35286575853838 
9.22496729615522 2.11525299790531 4.14104578049371 
8.92162613229048 2.3500052896773 3.95350343804513 
7.9951396151221 2.50695487513246 3.41066467418479 
6.14389730690283 2.89125011570912 4.47130293715595 
6.06340923613672 3.42791170712367 4.01213055431979 
1.34839902086192 1.24704143582154 4.30257009160145 
1.52199955363848 1.01997637379435 4.49537377321253 
7.05847106972794 1.16621707537306 3.88767076849623 
6.61875918127676 1.0278680574877 3.8669760343751 
2.8380786362687 6.39740068934416 3.4871706452818 
6.95453296758422 2.46521443641093 3.38369345378435 
7.0272283701133 2.87293385574804 3.62852221482046 
1.30718379202541 4.76304768723423 3.78221310195837 
1.43960426281892 4.90707614261068 3.49992527593753 
5.96424312663729 8.28048510929965 4.02015591924501 
6.53864039489069 3.44493683404657 3.93461029738926 
6.76169889473858 2.97272390946498 4.32742979979632 
5.45789381696914 2.59858048609868 4.58324693505876 
5.37704764409074 2.64517709039815 4.24145431483784 
9.40988337484714 1.06167671367542 4.3089175191858 
1.09465252183397 6.0616795157463 4.34888139423239 
0.933252409352551 7.13522444643805 4.36697698859654 
6.18389789840152 6.16041160166973 4.07634330638662 
3.23882648634954 1.14591158502952 3.99612308459336 
3.77995136946556 1.37826672043616 4.07249781646468 
4.42390831330231 6.1430111729222 4.7158284332578 
5.89430206173296 5.19477818523408 4.69448349366419 
2.68915083620567 5.29708104467803 3.21042381109728 
6.56232107628699 6.07132792661284 4.32911949243459 
6.60261992482093 5.67150701521713 4.59801524254117 
3.4978215119942 4.11527871710286 4.75623156458107 
3.32268617824772 3.66140538411527 4.79467852039197 
1.77348988941003 8.97094576906038 4.453607034923 
9.09560182313599 5.32672786269884 4.27278213055657 
8.79407026818037 5.63175605631689 4.64077125300216 
6.17738737458667 5.03565767334769 3.57347126679357 
6.31672841929651 4.93589864237383 3.8594925278892 
7.62325485332215 2.28815769525942 3.22325085476262 
4.98675226527451 3.02455619328946 3.21750152067317 
5.32674094563092 6.73512639041537 4.45473940467087 
5.4510335329566 6.49045574351687 4.59731016466918 
2.22802668346788 1.28199559416443 3.92693979803348 
6.13533775609559 4.75793322421488 3.56103665330108 
6.25506853300654 4.71181694748429 3.79646646063771 
8.31855188082818 1.23875900948562 4.19049365169684 
8.32553969949792 1.58621683640445 3.72867644091794 
1.77522314489725 9.28914279702231 4.41143457143119 
2.0139619621892 9.38130775674379 4.03424009296387 
8.76285977023294 8.63379057843893 3.11115701620473 
8.81154919674138 8.93833314584296 3.12775005467838 
0.824458437324634 8.9913359970057 3.45568090618918 
0.91842692058564 9.39421184221136 3.36386752098374 
5.48884553836108 6.21092063168173 3.25884032526048 
8.49474542507092 3.88544577843884 3.53167591648792 
2.80651501544567 8.64328160469998 4.13114067892912 
5.1653500994624 2.05962313293032 4.7242427424032 
4.97302343067522 1.93852310586569 4.5056485092703 
1.98661917410443 5.83711018101599 4.3424932139559 
1.59778128987367 5.80687537445226 4.54552366058383 
6.54432013648807 7.09859370154289 4.22147630893882 
6.76067013416109 7.19831762782822 4.00255132853417 
1.70917282875871 4.82983868247286 3.67916421829444 
1.00404152050123 1.21823465332941 4.90153041973586 
8.70478611779974 1.79563933641036 3.61757735541564 
3.50189246691701 0.114288837466025 4.72498079431396 
2.97966857374377 0.643269167995286 4.54568090974347 
9.72446851900421 8.54239012688718 3.91444452121917 
6.45270851989634 6.42229816287587 4.49410918551592 
3.34406415532057 0.369529372771566 3.79315425762675 
5.57167821822947 7.76507269763533 3.64055097003814 
5.78010900132721 7.94791856318064 3.60479545589801 
6.66746934078644 6.02660164652867 3.386547267099 
4.71659690121281 9.97424514121087 4.03339795227456 
4.92430572189389 3.27630605595707 3.01746899819959 
5.04279642212175 3.67006181821454 3.21835053085223 
9.74851478630219 8.2518480876736 3.75129334236928 
9.95449564328348 7.99157754488186 4.08226652561718 
4.95980489750045 6.63386731503024 3.76053966628804 
4.68496194938909 6.97599801642166 3.58322735400157 
7.94500470724774 1.65179046238642 4.52329149782183 
3.13827993209016 9.33339016574423 4.29837012673701 
3.49067088135207 9.50455430072467 3.97347809813934 
5.5119304879276 5.32571649231644 4.63302239805943 
3.05721622560983 5.37021385871904 4.26396929145906 
2.69068553615867 5.14648954845037 4.19558104580359 
3.05430819983251 1.06776654540596 4.50232866115724 
3.50998726339158 1.23887122793162 4.87089526278213 
8.20910944774429 3.30184792928773 3.34461794579925 
8.63510762038151 3.49830506167883 3.42913531708245 
1.72601698747561 8.4243009517195 3.92685393636778 
6.28395269721786 0.44751330808965 4.18171242135443 
4.04310611392199 0.725670295903003 4.97604687950259 
6.80801315456012 6.23501499208898 3.23314676460669 
3.24644470948458 4.62314750249614 4.42595780999559 
2.81660856555542 4.63358241348015 4.27817407387636 
5.67513560529724 7.74965453351153 4.00260559340819 
5.89356060342756 7.94883309633785 3.91095673440399 
3.1359959457225 6.12207764022612 4.24891204255306 
3.24845316576122 6.0340511234941 3.88880316800989 
2.60434972581115 5.41397362401757 3.45892677978752 
2.14705768440452 5.61632926584024 3.55717389578088 
2.2992454975069 1.14097429790133 3.39346095266512 
2.81883785877359 1.2635620146631 3.39258850641894 
3.63209193514135 0.843375032404225 5.10138189932416 
3.2523846947491 0.40738359421899 4.87028637866749 
9.54648128426277 6.12650905808493 4.21944678843117 
6.22600882095813 4.15831571200473 4.23803491081319 
6.07377374064164 4.5583471857168 4.04369076622138 
1.15320119541935 5.58410816328559 3.34625268771406 
1.34024721730071 5.4158372745028 3.25346812883648 
5.60835218623501 3.46772318547186 5.14577972679641 
5.43461196985093 3.80741598392679 4.91998297061645 
1.74092253557483 5.07410027388105 4.78385533341338 
1.69433861898349 8.46145209728171 3.5823701703598 
1.97477391976176 8.89505914281462 3.41536416668828 
2.52796927499769 4.68194372131851 3.55139125371112 
2.17381444611386 4.47621006681516 3.48601184615564 
3.94595605526636 0.176434159040128 4.72953165127059 
9.31450357448254 6.46052756414095 4.18661119944527 
5.88253736772102 5.12176461902455 4.69740232153642 
8.85571505656916 1.55981951640096 3.07573192924373 
9.31295966394932 1.37077637862087 3.12065703218375 
7.71540471799977 3.34196967822131 3.5840224626782 
7.75973587858491 3.76795899499563 3.81770499413639 
5.95754118758309 2.81425770188572 4.92305793985008 
5.08137704683936 9.40904658948242 3.47682085332279 
4.69059909890142 9.71940458482048 3.50459855778093 
1.99767337732403 8.76254330403795 4.1273718634714 
2.12747169996239 9.01070194014354 3.8922211761708 
6.1547608775688 4.92293303806605 4.45573886656258 
8.00278095716685 3.47195056452084 3.35025085787396 
8.067547869906 3.79679075304048 3.48160856140899 
2.72826363609311 1.47121773696023 4.0354431313519 
2.96371084013653 1.41395927198563 3.77349218655658 
9.52321175681921 1.53333629879107 3.74819549628647 
9.19873248041838 1.7189121627593 3.99417069347747 
5.99136671428618 2.12993379431655 4.78002309926493 
5.86727287695469 2.58438585401818 4.64650995956885 
5.0395090865078 9.85315933302069 4.28597399980079 
5.2903872610214 9.39526466107466 3.81372093677147 
2.47991956001793 5.17084017752355 3.74925081556757 
2.16507841659226 5.29365126660619 3.80993647038642 
0.432723239492293 0.34269574782288 4.0516298476771 
1.75854012316418 3.14735611647067 3.87543538950595 
2.12790243455817 4.99606908043501 4.84417208947835 
4.37141201496981 9.21067602414648 3.39337945116004 
4.37361267856127 9.56004086147291 3.43461478037827 
4.750721930015 0.377967594943669 3.92006797773481 
4.30016640542818 0.703646100843285 4.06973449116914 
5.8113296464443 3.50617735398477 5.0552643289311 
5.73918461118317 3.79018879840898 4.84634875907972 
2.86236478515721 9.36706096628669 4.00718826650276 
7.25232959027718 3.80641545437104 4.7763390966812 
7.14942046068027 3.99699732219569 4.64890651810279 
1.15782118376456 3.08812727186564 4.19472502949754 
3.46507008428078 7.52790503029708 4.25570587550389 
7.09683703313577 3.7113759003224 4.766731235244 
7.00469203398523 3.92487752528922 4.62837690126803 
0.748356788665035 0.665858971727504 5.0099266044328 
0.647873670854518 1.04163332581277 4.96133355598153 
4.0893712770802 7.89212209039308 3.66795563702534 
2.83734420020441 7.2903942286994 3.72030607055153 
3.16979211039262 7.38398383354488 4.19008937546673 
1.38824853911712 3.2278241649901 4.23118346214519 
8.51022153225772 9.51447593316987 3.73641925135442 
4.21570331294752 6.33273258921842 3.23593939283902 
4.06543226547449 6.26613260817965 3.26861952460178 
1.13669896346343 2.95247357138976 4.42703278316492 
8.23763424226618 9.4788281180315 3.96806759385809 
8.38842677348538 9.28080351803107 3.18938702825119 
8.0595280422284 9.1704975418269 3.21459664492713 
5.2730264469553 8.9923543415219 3.9138488983031 
5.70262444141459 8.84706228644805 3.9471688828107 
3.70331300565657 8.4286368174725 3.3654157459856 
2.71317607779272 8.90386759317534 3.35742074116275 
2.64275648111338 8.97305645306658 3.86213497596274 
3.39745965914017 1.52971102123618 5.08504929611722 
3.7320831332546 1.93949198799173 5.04882399480847 
4.11986407153178 5.41020237973377 4.82478339542666 
3.61890966723301 5.41655905335069 5.08014135371901 
2.97838041960056 7.4756970604887 4.62389967741252 
3.16083857631732 7.46745412711457 4.23986893378511 
4.22507454079219 1.10276010643371 4.66241941115341 
4.35334540821256 0.983751739093245 4.20742103237043 
5.87321233094713 8.57799127037985 3.71403983935311 
5.71822062121375 8.4193836006872 3.4766967414048 
4.13099826514363 6.47900773755978 3.18603930841599 
3.98827194784239 6.39294217072842 3.22502625312619 
4.47207826261485 1.20240519749191 4.76729722456034 
4.75997769750666 1.12659477991608 4.37920371205598 
4.68983746494136 0.36114076717518 3.34167058500901 
2.55098921430446 3.45642549823758 4.72075778300788 
2.64370225269905 3.29573705101985 4.47204357176031 
4.69800503778039 6.94438178068073 4.38874417271617 
3.04965104129546 9.25967671895732 3.27716142548244 
3.12819250244385 9.5095700805515 3.70114504137232 
2.92652891970442 6.79022003467308 4.4586705553005 
4.94205150877421 9.04404079481713 3.43181078837025 
8.45956691558338 6.48812218379108 4.42749546122665 
4.81568514796811 0.417213228325452 3.23034431688149 
4.71470116035936 0.797346235547375 2.97273356706159 
5.04430280957996 8.83796610417748 3.66107708056797 
5.18779133803327 8.55228895582886 3.41078007593873 
1.38202776456038 8.01040122784195 4.30699425755207 
1.28381224883599 8.08447040450303 4.82380851418328 
1.16254972339753 7.90738906292419 4.25116934321058 
1.02624059996147 7.96573448605611 4.79337673447599 
1.29603166022051 0.721602949601016 4.94040697616043 
1.34451709684851 0.960609128121729 4.90004726532518 
2.47220051347606 3.04826858409234 4.68474462702617 
2.42036118868801 3.14307322587857 4.80770588235454 
2.48735337980351 3.69825756179778 3.85229414051754 
2.15481460130501 3.78594435840359 3.636729216077 
4.03960851205662 7.11521211388111 3.74612254442075 
4.55664162761406 7.15721196281959 3.8202439794774 
3.80996111692205 7.8768010657151 4.68639606814505 
8.11457247064431 6.69141493838634 4.721538961196 
8.0544758613975 7.13606882281624 4.58754581163138 
3.65993318917134 7.58966480094284 4.67900307589202 
2.11115637889133 7.6153381249434 4.73815497549016 
2.15572873558773 7.36883817628318 4.82926193438939 
2.16389170118513 4.05884860935521 3.77402379242793 
2.39958917869611 4.0241631431044 3.94273457574407 
4.80610835287902 6.03533356428956 4.11378374100379 
7.38560332469369 6.17610040963211 4.16214550165453 
7.0453497295516 5.90715547052033 4.15165437051126 
6.82292920944702 9.41191438796803 4.10410676413044 
2.69049512332877 2.16741534964692 4.83309748810314 
2.89437868218572 2.03042842007998 4.70563637561124 
2.35605461783712 6.62798454899593 3.93895062282511 
2.44300136188812 6.51054298591997 4.30543084332539 
4.87568442551091 6.22035480509178 4.40331845119734 
5.18326066898136 6.10929767394947 4.56789281344195 
2.57186543899595 6.66606241735415 3.90913666083107 
2.67658857804184 6.55886796881346 4.22689725051947 
3.61057646083442 8.29210585440242 4.07138259849819 
3.73131430823578 8.04149591183981 4.17023839879105 
3.90926803378802 6.93060958041657 4.22000600822268 
4.29173228173006 6.84256005393 4.60140553935576 
3.80271267502062 8.34439764802956 3.90699954715662 
3.95306405597916 8.12989542658039 3.96301894262955 
7.10214489181567 5.81679342555777 3.65950579003191 
6.75204458851717 6.86543324445594 4.50156689798208 
4.22124276567088 6.39199051104305 4.77040177002134 
4.13707415314546 1.11636115942972 3.90648419722885 
6.22381162517311 9.47169026910893 4.21794160101204 
5.99845236487386 9.35388415116195 3.84854652158192 
0.960373837958432 8.84713645441303 5.14297370265689 
0.340717757478812 0.609966040250839 3.84194757477065 
0.640729641575316 0.792988327314276 3.62603150006859 
4.28305279735772 1.02507583383397 3.06839160959515 
3.41047792857264 6.34414159912507 4.46435791557893 
3.63826766834155 6.17615508284758 4.85898086522269 
8.55585321848835 6.61562986504726 4.28535999643542 
8.39432834636436 7.09499093250125 4.25744016616053 
5.97691246557373 0.243978198010804 3.53402540048492 
5.71520334935511 0.438598997598665 3.28229172943336 
7.35801334705659 2.71147312844445 4.56088789694624 
7.29007571340518 2.22500056617804 4.53969941715012 
1.46501282095996 3.11726282435465 4.52530289380622 
1.84915574845162 2.90816240266155 4.70110703268234 
5.30213155382833 5.64007888025914 3.61269907250966 
3.76486691855486 6.41881238114601 4.30695743168049 
4.04625390775543 6.25131509136271 4.66791618580736 
1.5867848489068 3.29721011943931 4.83942172775157 
1.8843564142654 3.03795107548479 4.85649926642701 
0.603961619746557 8.6440955105704 5.10153109046768 
4.25664717466033 4.24779257963968 4.98416137965739 
4.45499693187446 4.03429528520565 5.07708775907327 
6.72437609085776 8.82444490006945 3.50627286993377 
6.24154027097421 8.8497764991668 3.43672789787947 
5.14709855702918 5.62043333797569 4.00874408946553 
5.40326249762867 5.65717360270227 4.26533800536518 
5.71218543082273 5.64274312492993 3.59549591859422 
5.81318933322963 5.68176635210859 4.06450613197558 
2.73425116697912 3.32454909420057 4.00327225151903 
6.66598805395842 9.27052413186376 3.60221083241872 
6.24653420454904 9.27906128207218 3.54086921871488 
8.4942060952312 7.4599331718966 3.56830714213443 
8.26413793515564 7.15984692932027 3.74258952463438 
5.54182536806966 6.74878572584887 3.42343828512618 
5.54458081876442 6.8718581517712 3.27671974786893 
5.66367928966527 6.81328918692869 3.49081426050801 
5.63246130780666 6.9356439662927 3.30904350518031 
7.40093696740692 6.15849592546027 3.39236881866296 
7.5244459569796 6.3581505736366 3.53820595207955 
7.44299415610814 6.01260546514157 3.52691394730582 
7.55888886673812 6.15903096524319 3.68787432027069 
2.93280279147035 2.74088314147778 3.56042569417125 
0.612027968605681 7.72883628806665 3.49177218803834 
0.562828978102967 7.69369975291807 3.74994978254622 
0.907576771253755 7.80115668021057 3.49757346426136 
0.918625438407419 7.79891221115067 3.84678537072403 
8.81575838713317 7.28277352194421 3.27276119968325 
8.83106981643724 6.7337145860268 3.21272515089252 
5.3711518381958 1.24823790283097 4.20209037330941 
5.60935237786838 1.29596693784384 4.38311256541108 
5.620631607779 1.10683475138467 4.45688103022291 
5.37796281602934 0.992775248025052 4.29295231317267 
3.23690561203361 3.98779389740405 3.73314674574689 
2.73811999025831 3.60965846662519 3.76608370330205 
9.46553375635027 6.75644820063636 4.31782444192825 
7.72092608271643 5.05269056540475 4.6491894495514 
6.39964198833167 4.54839424464718 4.83030868949371 
6.37692960681456 4.26738144643239 4.74568764716216 
7.8677782235597 5.45268990904824 4.67868440985433 
5.69107363187994 3.92472973719368 4.0469017643911 
4.26052681054762 1.40053240457925 3.60539345319019 
4.29492261638647 1.17462650549061 3.10094291591223 
5.32977219320655 3.96090704523714 4.2201722310847 
4.72346291521916 1.38471646098334 3.13370635238045 
4.71667127434892 1.58973033100263 3.58461163048603 
7.38120443236579 5.05829116264571 4.73875235112245 
9.83993884601251 7.86004163763339 4.43541951985481 
4.09542326816001 0.855436829803158 3.80470361841008 
4.18454178831779 0.743268130443996 3.34027270316322 
0.639221486587711 8.16811695318916 4.8875258062709 
5.93672533988136 3.38982491766857 3.82383243175583 
5.6644777279308 2.97372206780057 3.80231793086613 
5.66526489143889 3.69162797364476 3.78020409795124 
3.44078549452166 0.570897999535564 3.67405026204614 
7.57214884401939 5.664809880252 4.76032550602593 
5.108416682126 3.74449910630851 4.05457187683665 
5.07444638088403 3.04319785132644 4.06790017134587 
4.91899313041073 3.4506874744457 4.34981750122525 
7.29219600536317 5.46796812905432 4.78064460326187 
5.27215823930777 3.17210128502988 3.78170603273795 
5.30103016168928 3.55389380307884 3.76952033051664 
3.97894940938279 3.03974790592485 3.61732277495239 
3.60039938074137 2.70703197234415 3.43686682983524 
3.80992481181885 2.42823812619393 3.32302784451792 
9.43564847465365 5.65123095966708 3.85465889509276 
9.52211026044171 6.00666101609307 3.88922687139556 
5.46517354388607 5.12814270062376 4.64837428025911 
5.02071545069154 4.77691331151288 4.74638322713162 
5.14931850102689 4.84230272735076 4.38206642536858 
9.04747420078076 7.63763731839498 4.77267042388697 
9.04864895004039 7.42989234897036 4.44392873695515 
8.7150627776434 7.77187930923153 4.70170529744196 
8.7955645888606 7.51055603404882 4.35769821323353 
9.81953910871376 7.72953325375845 4.21777887558674 
9.43885956580787 7.49760487634739 4.08299517053249 
8.67764718744615 6.35672086717723 3.56849021187044 
8.43237153393943 6.45559390186506 3.73619952962395 
8.67447982599581 6.61991309072258 3.26225182211377 
8.32767242245277 6.7099032479603 3.53487311591119 
9.61937973353816 7.16713480683554 4.00574240348798 
1.09301683945475 0.21138166916356 4.13150936764418 
1.49002374008491 9.7994929352 3.65479860965774 
1.21475701529385 9.72728558676174 3.95677677431214 
0.997405787160463 0.765414545777888 3.65517661275579 
1.27528309725889 0.439498130214839 3.97233000653772 
4.6222884682136 2.90147156812249 3.21271374127312 
4.27993967399837 2.52926916820288 3.42820035665557 
4.33512545473634 2.78642466445331 3.54369643479017 
7.89869647377774 1.98946671347217 4.194245282509 
8.00915367027187 1.96361565838253 3.8069859971505 
8.18018441727556 2.41858772125868 4.05906117009756 
8.18366957613159 2.24894074295386 3.75501330278297 
0.190961855652828 8.67074772608784 4.31679798918623 
0.38147340600332 8.27722740349449 4.3643447660398 
9.84235571930414 8.4758838492431 4.21799972985797 
9.97461050849543 8.0993163313551 4.23507443030648 
POLYGONS 724 4439
6 1 10 4 0 8 641 
6 1 2 3 461 9 10 
5 1 2 599 661 641 
5 8 291 363 661 641 
5 291 363 708 617 375 
5 2 3 678 709 599 
5 461 462 677 678 3 
4 10 4 6 9 
5 6 4 0 7 5 
6 5 7 375 617 677 462 
5 6 5 462 461 9 
5 0 8 291 375 7 
5 599 661 363 708 709 
6 12 11 326 327 316 222 
5 271 277 476 11 326 
4 12 11 476 894 
6 277 476 894 893 580 579 
5 13 367 591 580 893 
5 252 253 406 587 586 
4 252 327 316 586 
6 253 271 277 579 592 406 
5 252 253 271 326 327 
5 12 222 13 893 894 
6 13 222 316 586 587 367 
5 397 471 223 777 747 
7 16 14 15 512 519 470 300 
6 223 301 17 721 773 777 
5 16 14 722 721 17 
5 14 15 648 702 722 
5 512 513 714 648 15 
6 397 520 513 714 715 747 
4 16 17 301 300 
5 21 18 19 620 655 
4 19 22 453 620 
6 452 453 620 655 558 20 
5 563 628 23 837 849 
4 469 494 563 849 
5 302 303 469 849 837 
4 24 215 924 294 
4 574 575 254 833 
6 254 517 732 728 25 575 
5 26 27 25 575 574 
5 28 729 733 880 879 
5 321 398 445 29 588 
6 29 216 684 685 589 588 
5 217 218 368 315 336 
5 218 319 456 624 368 
5 217 336 30 869 854 
5 217 218 319 227 854 
7 36 32 845 846 760 590 239 
5 748 760 846 853 822 
6 32 34 33 802 852 845 
4 35 590 760 748 
5 31 36 239 232 257 
4 31 34 32 36 
5 34 33 258 257 31 
6 509 510 35 748 822 821 
5 33 258 509 821 802 
5 232 239 590 35 510 
6 43 45 42 548 691 451 
5 42 38 40 603 548 
6 38 41 46 314 350 40 
5 42 38 41 37 45 
5 451 670 660 716 691 
5 44 43 451 670 669 
5 39 44 669 47 304 
5 39 37 45 43 44 
5 41 46 304 39 37 
4 40 350 675 603 
6 314 350 675 716 660 659 
5 46 304 47 659 314 
5 659 660 670 669 47 
6 50 399 561 52 688 720 
5 50 283 48 313 399 
6 51 52 561 55 53 49 
5 55 54 313 399 561 
6 57 61 60 62 619 612 
5 57 58 56 59 61 
5 57 58 559 611 612 
5 61 60 466 467 59 
5 63 307 400 421 491 
5 64 67 66 274 273 
5 66 65 525 479 67 
5 430 686 725 555 700 
6 22 68 416 417 297 453 
5 281 282 452 453 297 
5 69 272 712 213 872 
5 277 476 594 593 713 
5 593 631 213 712 713 
5 69 71 72 871 872 
6 69 71 260 326 271 272 
4 11 70 260 326 
6 11 70 533 241 594 476 
5 533 534 487 632 241 
4 72 534 487 871 
6 71 72 534 533 70 260 
5 74 227 854 855 354 
5 73 354 855 921 381 
6 800 801 233 901 897 244 
4 604 605 233 801 
6 604 643 818 464 800 801 
5 244 442 537 464 800 
5 75 77 76 261 405 
6 404 405 75 789 813 838 
5 673 674 404 838 827 
6 373 738 772 827 838 813 
4 75 77 372 789 
6 77 76 737 738 373 372 
5 76 261 585 809 737 
6 79 425 544 937 642 482 
5 80 420 560 935 543 
5 79 78 407 481 482 
6 563 564 412 858 856 628 
5 23 82 799 847 837 
5 23 82 653 856 628 
5 412 413 81 598 564 
5 83 413 81 616 615 
6 81 598 850 848 808 616 
5 82 653 556 807 799 
4 412 413 83 858 
6 556 615 83 858 856 653 
5 396 412 564 647 668 
5 494 547 647 564 563 
6 85 84 338 250 689 690 
5 88 90 278 89 805 
5 87 89 278 228 357 
5 88 86 585 809 805 
7 87 89 805 809 737 441 440 
5 92 91 907 495 609 
6 219 328 401 320 477 369 
5 418 419 93 770 750 
5 407 481 625 745 740 
6 292 325 475 490 912 914 
4 292 346 446 914 
5 273 274 94 391 392 
5 95 551 572 779 781 
7 97 87 357 408 867 868 382 
5 250 551 572 665 689 
5 97 87 440 340 96 
6 438 493 21 655 931 933 
7 468 574 833 834 542 931 933 
5 267 342 26 574 468 
4 99 347 98 439 
6 99 337 447 446 346 347 
5 36 32 103 100 105 
6 103 32 34 102 107 236 
6 101 104 99 347 106 237 
5 100 103 236 237 101 
6 31 34 102 256 98 439 
6 104 99 439 31 36 105 
4 100 101 104 105 
5 236 237 106 255 107 
4 107 102 256 255 
5 255 256 98 347 106 
4 312 550 108 676 
5 29 365 480 109 588 
6 589 637 717 676 108 685 
5 312 633 567 717 676 
4 588 589 637 109 
5 549 550 108 685 684 
6 109 480 568 567 717 637 
4 29 216 545 365 
5 275 276 110 783 734 
5 621 639 511 934 932 
5 385 386 932 621 243 
5 578 613 386 932 934 
5 111 387 825 824 488 
4 111 112 296 387 
5 345 489 710 697 539 
4 247 279 904 500 
6 113 351 389 875 876 851 
5 113 262 496 864 851 
6 114 262 496 905 904 279 
4 1 2 896 644 
6 96 97 118 117 796 795 
5 116 118 97 382 597 
5 118 117 285 115 116 
6 335 501 597 382 868 866 
5 334 335 866 865 409 
7 120 121 228 357 408 409 334 
5 119 298 116 597 501 
5 119 120 334 335 501 
4 87 89 118 97 
4 121 228 278 299 
5 120 121 299 298 119 
6 116 118 89 278 299 298 
6 122 47 304 305 754 755 
5 304 305 402 331 39 
5 44 390 606 284 669 
5 331 379 843 240 402 
6 123 275 734 735 344 514 
4 124 248 640 693 
6 212 300 16 657 656 507 
5 315 368 482 642 651 
5 79 293 218 368 482 
5 292 293 79 425 325 
5 217 336 917 913 915 
4 889 916 652 938 
6 125 294 924 925 126 627 
5 125 84 85 24 294 
5 125 84 338 626 627 
5 126 393 552 553 925 
6 393 427 551 572 573 552 
5 126 393 427 626 627 
6 85 24 215 623 704 690 
5 250 338 626 427 551 
5 128 523 662 752 753 
5 523 662 679 667 758 
5 128 127 764 758 523 
6 53 55 353 352 130 129 
6 55 54 840 835 739 353 
5 63 132 339 492 491 
5 63 132 435 436 307 
6 219 220 131 371 370 369 
5 339 371 131 444 492 
5 131 220 329 443 444 
6 132 339 371 370 478 435 
6 328 329 443 421 400 401 
5 400 401 320 436 307 
5 414 415 918 920 870 
6 91 361 918 415 908 907 
5 359 360 859 857 246 
5 430 570 593 713 700 
6 134 94 391 388 581 557 
5 135 137 532 133 265 
5 64 67 133 532 531 
6 64 273 392 296 112 531 
4 136 134 557 266 
5 265 266 557 581 135 
6 111 137 135 581 388 387 
5 134 94 274 66 136 
6 67 133 265 266 136 66 
5 111 137 532 531 112 
5 139 138 358 754 305 
7 332 403 911 909 658 848 847 
5 138 358 601 807 799 
5 139 305 402 403 332 
6 140 229 719 141 788 787 
6 140 229 324 323 864 851 
4 140 787 876 851 
5 65 324 229 719 525 
4 81 598 604 643 
6 412 413 635 636 473 396 
4 473 474 431 636 
6 431 464 800 863 861 474 
6 564 598 604 801 817 647 
5 81 413 635 818 643 
5 431 464 818 635 636 
5 142 143 92 609 610 
6 144 145 143 142 881 878 
4 144 145 329 443 
5 147 146 37 41 355 
5 109 562 797 692 637 
6 148 295 321 588 109 562 
5 141 148 562 797 788 
5 527 528 707 629 251 
5 541 552 573 450 823 
6 667 693 124 724 759 758 
5 80 541 823 842 543 
5 543 842 892 936 935 
5 345 416 68 595 489 
5 123 514 488 824 718 
5 69 272 411 502 410 
5 69 410 330 873 872 
6 25 433 699 698 498 575 
7 267 468 499 663 664 395 515 
5 498 499 663 706 698 
6 131 371 394 395 664 629 
6 26 27 492 339 343 342 
5 25 27 492 444 433 
6 131 444 433 699 707 629 
4 498 535 149 698 
6 498 499 578 613 536 535 
5 150 151 235 471 397 
6 248 640 680 641 1 644 
5 107 152 746 554 236 
5 154 483 241 632 526 
5 153 280 437 899 900 
4 153 155 571 900 
5 280 310 154 483 437 
5 363 364 752 662 661 
5 52 480 109 562 561 
4 29 365 221 445 
7 156 129 130 398 445 221 348 
4 49 156 348 51 
4 49 53 129 156 
5 55 353 148 562 561 
6 51 52 480 365 221 348 
5 295 321 398 130 352 
4 148 295 352 353 
6 581 582 157 927 926 388 
5 158 322 615 83 524 
5 393 420 80 541 552 
6 450 780 782 892 842 823 
6 95 551 427 560 935 936 
5 781 782 892 936 95 
5 581 582 784 638 135 
5 323 324 159 423 422 
5 159 136 66 65 324 
6 161 252 586 536 613 386 
5 160 162 161 386 385 
6 162 161 252 327 288 269 
4 131 220 251 629 
5 314 350 86 585 674 
6 88 86 350 675 676 312 
6 164 163 463 806 810 673 
5 163 249 567 633 463 
5 249 567 717 716 660 
5 164 163 249 660 659 
5 314 659 164 673 674 
6 88 312 633 463 806 805 
6 456 554 746 745 625 624 
5 106 237 319 218 293 
5 236 237 319 456 554 
5 107 152 744 165 255 
5 78 165 744 740 407 
6 78 165 255 106 293 79 
5 152 744 740 745 746 
6 243 297 281 366 160 385 
5 160 162 583 508 366 
6 282 452 20 503 583 508 
4 281 282 508 366 
6 161 224 542 931 932 386 
5 20 503 224 542 558 
5 162 161 224 503 583 
5 243 297 453 620 621 
5 17 166 749 815 301 
6 317 318 383 778 777 223 
5 167 75 405 763 762 
5 167 75 789 790 654 
6 653 654 167 762 741 82 
6 138 226 742 741 82 799 
6 138 226 404 838 839 358 
5 653 654 790 769 556 
5 168 154 310 311 170 
5 168 128 127 526 154 
5 170 168 128 753 169 
6 437 899 902 614 928 930 
5 483 484 465 533 241 
5 171 270 584 505 426 
5 269 270 584 583 162 
6 290 333 457 836 835 743 
6 374 428 500 904 930 928 
6 172 48 283 284 606 607 
4 172 48 313 767 
5 50 399 798 451 670 
4 113 768 140 851 
6 43 451 798 787 876 875 
5 283 284 669 670 50 
5 44 43 875 389 390 
6 113 351 607 172 767 768 
7 313 399 798 787 140 768 767 
6 287 687 726 173 882 885 
5 277 579 555 700 713 
6 579 580 173 726 725 555 
6 570 571 287 687 686 430 
5 287 571 900 898 885 
5 173 580 893 895 882 
5 279 280 153 380 247 
6 153 155 844 843 379 380 
5 279 280 310 311 114 
5 58 559 547 647 817 
5 174 56 58 817 862 
5 323 422 497 496 864 
5 176 230 785 231 803 
5 229 230 785 768 140 
5 176 159 324 229 230 
5 176 159 423 804 803 
6 175 263 497 422 423 804 
7 175 231 785 768 113 262 263 
4 175 231 803 804 
5 159 136 266 458 176 
5 243 297 417 540 530 
6 177 178 317 816 812 791 
5 178 235 471 223 317 
5 104 99 337 538 432 
5 176 230 836 457 458 
5 785 786 841 836 230 
6 142 245 774 179 565 610 
5 244 245 142 881 897 
4 374 649 614 928 
5 182 181 302 303 424 
5 181 147 146 180 182 
6 69 71 187 270 584 410 
6 186 529 666 330 873 874 
5 426 505 666 529 831 
5 183 186 529 831 832 
6 183 186 874 871 72 184 
5 187 185 238 171 270 
5 185 184 183 832 238 
5 171 238 832 831 426 
5 185 184 72 71 187 
6 145 143 362 174 56 59 
7 145 59 467 527 251 220 329 
5 92 91 361 362 143 
6 184 188 886 887 534 72 
4 71 187 289 260 
6 175 169 753 752 364 804 
4 189 318 383 384 
6 246 359 384 189 790 654 
6 189 318 736 372 789 790 
5 190 178 235 151 306 
7 150 151 306 671 672 590 35 
5 150 35 748 747 397 
5 190 178 317 318 189 
6 190 189 384 645 671 306 
6 383 384 645 646 761 778 
6 39 37 146 180 378 331 
5 182 181 332 403 377 
6 139 191 355 147 181 332 
4 180 182 377 378 
4 191 46 41 355 
5 191 46 304 305 139 
6 268 286 192 463 633 634 
4 122 193 242 755 
4 139 191 226 138 
6 754 755 242 828 839 358 
6 193 164 673 827 828 242 
6 191 46 314 674 404 226 
5 193 164 659 47 122 
5 111 137 344 514 488 
5 195 196 194 711 576 
5 194 595 489 710 711 
5 197 192 286 285 117 
5 199 197 117 796 198 
6 414 415 694 877 922 376 
4 415 694 681 908 
6 54 313 767 786 841 840 
4 724 759 820 890 
5 523 600 820 759 758 
6 599 600 820 890 896 2 
6 124 248 644 896 890 724 
5 149 349 367 587 535 
4 422 497 449 504 
4 200 196 195 341 
5 249 660 670 50 720 
6 67 133 290 743 730 479 
6 308 309 418 750 751 630 
6 254 406 587 535 498 575 
6 202 201 349 149 698 699 
5 201 349 367 591 472 
6 202 201 472 733 729 434 
5 433 434 729 728 25 
4 433 434 202 699 
5 224 225 253 252 161 
6 225 253 406 254 833 834 
5 468 499 578 934 933 
4 224 225 834 542 
5 843 844 203 910 240 
4 179 522 829 774 
6 521 522 829 830 915 913 
5 204 362 174 862 863 
6 381 861 863 204 919 921 
5 361 362 204 919 918 
6 195 341 493 438 577 576 
5 190 306 158 322 454 
5 190 189 790 769 454 
7 83 524 671 645 360 859 858 
4 359 360 645 384 
4 158 306 671 524 
6 203 287 885 206 911 910 
7 205 206 911 909 695 705 683 
5 181 302 837 847 332 
4 88 90 550 312 
4 186 259 518 874 
6 179 522 694 681 566 565 
5 207 205 683 619 618 
6 201 62 619 683 682 472 
5 212 507 630 308 811 
5 166 93 419 208 749 
7 166 93 770 771 657 16 17 
4 208 309 418 419 
6 308 309 208 749 815 811 
6 183 186 259 723 766 775 
5 292 293 106 347 346 
5 269 270 187 289 288 
5 96 340 459 214 795 
4 197 192 463 806 
5 199 197 806 810 772 
5 141 148 353 739 719 
6 194 19 620 621 639 711 
5 22 68 595 194 19 
5 209 268 634 546 596 
4 52 480 568 688 
5 30 376 414 870 869 
4 73 381 861 474 
4 133 265 333 290 
5 135 137 344 735 638 
5 74 101 237 319 227 
4 731 794 791 812 
5 200 196 194 19 18 
5 198 756 214 795 796 
5 521 877 922 917 913 
5 225 253 271 272 411 
4 337 447 793 538 
6 373 731 794 569 814 813 
6 372 373 731 812 816 736 
5 177 455 569 794 791 
5 177 178 190 454 455 
5 157 110 276 923 927 
6 449 485 600 599 709 504 
5 485 486 883 820 600 
5 183 184 188 776 775 
5 57 61 210 211 234 
5 210 61 59 145 144 
5 142 143 362 204 245 
5 233 234 211 888 901 
5 210 144 878 888 211 
6 57 58 817 801 233 234 
5 244 245 204 863 800 
5 518 765 487 871 874 
6 127 526 632 487 765 764 
6 415 694 522 829 919 918 
5 204 245 774 829 919 
5 495 566 681 908 907 
5 73 354 432 431 474 
5 101 104 432 354 74 
4 175 169 170 263 
6 170 168 485 449 497 263 
5 168 128 523 600 485 
5 217 854 855 830 915 
5 30 336 917 922 376 
5 262 263 170 311 114 
5 484 486 448 906 929 
6 168 154 483 484 486 485 
5 279 280 437 930 904 
6 199 198 756 757 738 772 
5 61 60 202 434 210 
6 202 60 466 528 707 699 
6 210 144 443 444 433 434 
5 356 612 619 683 705 
5 356 506 602 695 705 
6 207 424 303 469 611 618 
6 205 206 377 182 424 207 
4 206 377 403 911 
5 200 18 21 493 341 
5 465 484 486 883 887 
5 203 287 571 155 844 
5 264 380 153 900 898 
6 377 378 264 898 885 206 
5 157 110 783 784 582 
5 115 209 268 286 285 
5 469 494 547 559 611 
6 211 28 879 705 356 234 
5 233 234 356 506 605 
5 188 776 826 884 886 
7 487 534 887 883 820 759 765 
5 264 429 650 903 898 
5 115 116 298 596 209 
6 197 117 118 89 805 806 
5 90 278 299 549 550 
5 211 28 729 434 210 
4 201 62 60 202 
4 57 234 356 612 
4 472 682 880 733 
6 247 380 264 429 428 500 
5 275 276 923 718 123 
5 441 460 757 738 737 
5 243 530 696 639 621 
6 448 449 497 496 905 906 
5 300 301 815 811 212 
6 631 632 487 871 872 213 
5 459 460 757 756 214 
5 506 602 658 848 850 
6 622 623 215 924 925 553 
5 545 546 549 684 216 
6 217 218 293 292 914 915 
4 219 220 329 328 
4 317 318 736 816 
4 372 373 813 789 
5 483 484 929 930 437 
4 673 810 772 827 
5 576 577 511 639 711 
5 300 301 223 471 470 
5 224 225 411 502 503 
5 404 405 763 742 226 
5 363 364 804 423 708 
5 701 715 747 777 773 
6 229 230 836 835 739 719 
5 257 258 509 510 232 
6 354 432 538 793 830 855 
6 490 889 916 917 913 912 
5 402 403 911 910 240 
5 593 594 241 632 631 
5 244 245 774 792 442 
5 653 654 246 857 856 
5 339 343 516 394 371 
4 358 601 819 839 
4 408 409 865 867 
5 567 568 688 720 249 
5 330 410 584 505 666 
5 322 454 769 556 615 
4 254 406 592 517 
6 259 518 765 759 724 723 
5 288 289 260 326 327 
5 404 405 261 585 674 
4 262 263 497 496 
5 264 378 331 379 380 
5 265 266 458 457 333 
5 342 343 516 515 267 
5 271 272 712 713 277 
5 387 388 391 392 296 
5 367 587 406 592 591 
5 298 299 549 546 596 
6 549 550 312 633 634 546 
6 315 336 917 916 652 651 
5 435 436 320 477 478 
4 325 425 544 475 
5 701 702 722 721 773 
4 387 388 926 825 
5 377 378 331 402 403 
6 446 447 793 830 915 914 
5 440 441 460 459 340 
5 416 417 540 539 345 
5 389 390 606 607 351 
7 356 506 850 849 469 611 612 
6 365 480 568 634 546 545 
5 481 482 368 624 625 
4 369 370 478 477 
5 428 429 650 649 374 
6 475 490 889 938 937 544 
4 393 420 560 427 
4 394 395 515 516 
6 473 474 861 860 668 396 
5 470 471 397 520 519 
5 561 562 797 798 399 
5 552 553 622 608 573 
5 476 594 899 902 894 
6 556 769 814 819 601 807 
5 502 503 583 584 410 
5 438 577 511 934 933 
5 443 444 492 491 421 
5 422 423 708 709 504 
5 604 605 506 850 598 
5 431 432 538 537 464 
5 537 538 793 792 442 
4 448 449 485 486 
5 691 692 797 798 451 
5 572 573 450 780 779 
5 454 455 569 814 769 
5 479 525 719 739 730 
4 533 534 887 465 
4 466 467 527 528 
5 498 499 468 574 575 
6 591 592 517 732 733 472 
4 521 522 694 877 
5 565 566 495 609 610 
6 570 571 900 899 594 593 
5 507 630 751 727 656 
4 512 513 520 519 
5 599 600 523 662 661 
5 539 540 530 696 697 
4 535 536 586 587 
5 572 573 608 703 665 
4 542 558 655 931 
5 548 603 675 716 691 
5 590 672 646 761 760 
5 615 616 808 807 556 
5 563 564 598 850 849 
4 567 568 634 633 
4 579 580 591 592 
5 673 674 585 809 810 
5 651 652 938 937 642 
4 602 658 909 695 
5 622 623 704 703 608 
4 611 612 619 618 
5 649 650 903 902 614 
5 677 678 709 708 617 
5 679 680 640 693 667 
5 620 621 932 931 655 
5 663 664 629 707 706 
5 691 692 637 717 716 
5 734 735 638 784 783 
5 696 697 710 711 639 
5 661 662 679 680 641 
4 645 646 672 671 
5 647 668 860 862 817 
5 701 702 648 714 715 
4 656 657 771 727 
5 689 690 704 703 665 
6 824 825 926 927 923 718 
4 675 676 717 716 
5 682 683 705 879 880 
4 686 687 726 725 
4 698 699 707 706 
5 723 724 890 891 766 
6 747 748 760 761 778 777 
5 750 751 727 771 770 
4 728 729 733 732 
4 730 739 835 743 
5 737 738 772 810 809 
4 741 742 763 762 
4 758 759 765 764 
5 775 776 826 891 766 
4 767 768 785 786 
5 789 790 769 814 813 
5 792 793 830 829 774 
4 779 780 782 781 
4 787 788 797 798 
5 807 808 848 847 799 
5 800 801 817 862 863 
5 821 822 853 852 802 
4 805 806 810 809 
5 813 814 819 839 838 
6 883 884 826 891 890 820 
5 829 830 855 921 919 
4 827 828 839 838 
4 835 836 841 840 
5 847 848 850 849 837 
4 845 846 853 852 
6 854 855 921 920 870 869 
4 860 861 863 862 
4 856 857 859 858 
4 865 866 868 867 
4 871 872 873 874 
5 878 881 897 901 888 
5 882 885 898 903 895 
4 883 884 886 887 
5 893 894 902 903 895 
5 899 900 898 903 902 
5 905 906 929 930 904 
4 912 913 915 914 
4 918 919 921 920 
4 931 932 934 933 
