# vtk DataFile Version 2.0
polydata
ASCII
DATASET POLYDATA
POINTS 22 double
2.59303265298663 3.12933504640262 3.27252895634736 
2.63198036165751 2.78699275638452 3.4322698039643 
2.38257879809848 2.63192626895037 3.14880327937884 
2.63100280292626 3.00160979861692 2.30504671878396 
3.3938365672269 3.11645256508409 3.06423305207155 
2.62017105865339 2.54763613731353 2.27891701241819 
3.45623346870592 2.58193091052774 3.1434194657041 
3.54318783967173 2.71923594593476 2.80813386339558 
2.93554718443246 3.08854957775082 2.2714891779791 
2.92436957037303 3.32891694360992 2.60087979576375 
3.14795340488128 3.3209247157032 3.00550055399186 
2.99343731779074 2.60524656619339 3.45549808046815 
3.37762632010326 2.78378623157072 3.29196245985547 
2.48993136028525 2.29609464143803 2.83492751093729 
2.84664941185935 2.12661987569761 2.90076267170222 
3.0896026311886 2.30918900643824 3.24800802489067 
2.39471679595199 3.05433591473203 3.03506133105235 
2.55366448084413 3.19681761854213 2.62005296388837 
3.10894359112694 2.26577724867875 2.44303871633713 
2.91761091164726 2.4620544754237 2.20765767973217 
3.40268001354628 2.56649412334356 2.45153853209669 
3.15358165484579 2.74212578610946 2.19886591966517 
POLYGONS 13 79
4 2 1 0 16 
5 3 5 19 21 8 
6 3 5 13 2 16 17 
4 3 8 9 17 
4 4 7 6 12 
6 0 1 11 12 4 10 
4 11 12 6 15 
5 9 10 0 16 17 
7 4 7 20 21 8 9 10 
5 5 13 14 18 19 
6 7 6 15 14 18 20 
6 2 1 11 15 14 13 
4 18 19 21 20 
