# vtk DataFile Version 2.0
polydata
ASCII
DATASET POLYDATA
POINTS 230 double
0.981337121213181 0.317709760033172 1.11517094297026 
1.3684685603014 0.491919759551444 1.64839014601308 
0.273792963236589 0.599560560272903 2.36813406884639 
1.12001543033458 0.948292305049645 1.97617396009805 
0.46599948826907 1.07052686723073 2.07469405079076 
0.217279645529063 0.738945440241977 2.31790542443922 
1.63579491621594 0.657353259270126 0.253210996702821 
1.83023694930114 0.175354912920103 0.927928394546419 
1.50617424440078 0.168234543022247 0.750760971807775 
1.01442426813114 3.34751135213424 2.73868600640386 
3.06841840762174 0.638283335071745 3.39433311703013 
2.59303265298663 3.12933504640262 3.27252895634736 
2.63198036165751 2.78699275638452 3.4322698039643 
1.62732105523756 2.59639196736521 3.13177105675272 
2.38257879809848 2.63192626895037 3.14880327937884 
1.98536903769738 2.38624162996821 3.25979848520219 
2.63100280292626 3.00160979861692 2.30504671878396 
3.3938365672269 3.11645256508409 3.06423305207155 
2.62017105865339 2.54763613731353 2.27891701241819 
3.45623346870592 2.58193091052774 3.1434194657041 
3.54318783967173 2.71923594593476 2.80813386339558 
1.89117620082466 1.58577679539609 2.250213717136 
1.29833421606086 1.36522740210328 2.23560230237222 
2.28047712768758 1.12606453621607 1.55731388119758 
2.24108267662725 0.691179343844163 1.49559053798985 
2.04134066337567 0.663693068510465 1.37171470866673 
1.83050634426497 0.403058615677901 1.48266555972424 
1.40217904242389 1.51006544403671 2.13761321395194 
1.21263808885026 2.68398029029522 2.05820512620049 
2.4289076163748 3.31845744251707 1.32254520853835 
2.44638172202186 3.45356696136431 1.66136803888503 
2.2523514750746 2.38920354692695 1.27627000138867 
2.12263915619015 1.68322600596928 0.885812185521971 
2.52459850376888 2.63393190109897 0.993358006716573 
1.98237199633343 2.08133066462734 1.1740557310373 
2.55427410604719 2.43620088968433 1.08688638175552 
2.97926639047889 1.16915476536475 1.24322249264159 
2.79491128952131 3.53685245041226 1.68380623329335 
3.02723149442357 3.38937715627661 1.93952620482877 
1.54863254241463 1.3189397291967 0.426754570610917 
0.435978351994804 2.75940258512157 1.88715585863516 
0.212030655777428 0.701330542242039 2.94774418716054 
0.951668877561143 0.484663853747295 2.97194863567466 
0.103328198903015 0.697943086419103 2.78233265836717 
2.81126778041367 0.415049117673053 0.686368916078593 
1.05367866767446 1.85147663791675 2.23673551852804 
1.01869699017017 2.48797004108498 2.12473607512836 
1.12076591857739 2.15752400626509 2.42125287255225 
0.834585052718443 2.73159333081538 2.15221623583309 
1.96624234208597 2.12859100135095 3.04865350350985 
1.17119334406606 2.21989231862204 3.15291119980139 
1.57518739357489 2.34511890326747 3.02793770003178 
0.919030269146522 2.12130647211627 2.78017042050489 
3.03959395663976 2.35235131154776 1.4152244481342 
0.214768662523725 1.41475434473148 2.94164901485201 
0.0518420390385264 0.831021847436667 2.7151764273176 
0.356495426735974 1.26934724146285 3.20248800987538 
2.94274623386352 0.355545560747088 3.02524091090089 
2.16973998441843 1.46886054405959 3.18601355317478 
2.08272785140967 1.56539524955029 1.92908275975573 
2.72404221351134 1.93425800757605 0.635233358753847 
3.34232393593242 1.69773575608455 0.856633931258031 
1.52682086172677 1.03894654549992 2.6069919818312 
3.50102010358777 0.600107442790062 1.74222730206982 
2.3165116536964 2.38510437105318 1.98604378223523 
2.15946323946903 2.51605267814177 1.25586920770162 
2.26743467095213 2.703801454511 1.10217754628832 
2.27875982942729 3.17843603208643 1.95322511471028 
1.48852337709906 1.46193785516771 1.62882309259615 
1.49133587788423 3.13734967457472 3.09636828292172 
2.93554718443246 3.08854957775082 2.2714891779791 
0.820405816892135 1.80817686982956 2.73055272797158 
0.369778452324518 1.67138582094112 2.70883931859177 
2.92436957037303 3.32891694360992 2.60087979576375 
3.14795340488128 3.3209247157032 3.00550055399186 
1.46424160618324 0.871951540559524 0.207540810221492 
0.542821232133388 2.82067374968891 2.59313294711692 
0.59384482674344 2.45027329706141 2.90216682388125 
3.53476233246616 0.850720673374963 1.891989490673 
0.986715778206527 3.32890182822953 1.04661280003798 
3.30541180944895 0.971108886319345 2.78270180766251 
3.20174565812977 0.619233464318671 3.08724124588243 
1.92949831048019 1.77879086753228 3.41460196849224 
1.36486019831843 0.363069637434968 1.87110440709982 
2.83496647856306 0.373825611373995 3.26720032154848 
2.99343731779074 2.60524656619339 3.45549808046815 
0.784148125592079 2.58048758774981 3.27204554407632 
2.39602191745922 2.2476889740669 1.81449175585912 
2.82762577933271 2.21623279717251 1.82870740446277 
0.942580891516029 1.71356094560523 2.3341793320326 
0.495063988845989 1.5751892205949 2.26632994186137 
1.64587992283462 3.03240541326066 2.96626209365466 
1.98642060492434 1.17384839626382 3.14557589958225 
1.81508028989476 1.50083243593318 1.58180276170519 
1.99819126307224 1.28769116804498 1.41514630229093 
2.08457964085408 2.69566036768192 1.78571750336779 
1.51282691636282 2.7011202337345 2.19247821722096 
1.9429569368228 1.068495135527 2.68396905463807 
2.10608333360841 1.2803919165393 2.55148305637698 
2.24120431584821 0.434483229840088 1.8037326465267 
3.37762632010326 2.78378623157072 3.29196245985547 
1.86242984746096 1.18186499111361 1.34404405101589 
1.7729174824504 0.196235018094612 1.91762598529769 
1.93820437338445 0.23240967868147 1.7294067372643 
1.96407655728405 3.44395220111203 2.26862149867047 
1.54973491335103 3.08809923284042 2.44182434524494 
1.92857902820375 2.01458277470824 2.43088006403559 
1.53176955495143 2.27396823523086 2.50823757992362 
1.358228063246 3.13637807284888 1.16074048797704 
3.1658017769119 1.04444060941912 0.750869325622728 
2.96397700010711 0.844000718189467 0.393275784236383 
2.54539294452755 1.68621688685811 0.658088085551272 
3.05599383862465 1.3292770081171 0.890567187015626 
1.64267422781941 1.77608482594059 0.218666945792133 
0.729268112658518 3.19893114925837 2.85331540669026 
2.3846863850438 1.5947494149793 0.39664787136006 
2.81723098077173 0.11836074618271 1.76243763374839 
2.97156455172454 0.163858775127881 1.98059777811477 
1.98128215262621 1.57936778753949 0.562769314843864 
1.81420672497572 1.27516004652241 0.603921511699261 
3.24052090819189 1.47712564029127 1.65062237089038 
3.28636684691445 1.25476932327595 2.86346843937474 
3.06809926600053 1.41567872137992 3.43368604016414 
2.96207492445747 1.02784262499636 3.61877591522838 
2.48993136028525 2.29609464143803 2.83492751093729 
0.916291135592978 2.04933359681659 0.337449385110451 
1.79649568704307 3.73742614184633 1.92752361915796 
2.02806447800234 3.76976032020711 1.65981566551716 
2.64820183409519 1.4084673383606 3.57970726601868 
2.26499307429314 1.56644567868606 2.9276301824754 
2.13159710471243 2.00807443772777 2.83447951518233 
3.36452592100764 1.41751595652099 1.78042108645083 
1.19324890461921 0.924203272017564 1.70546095814561 
2.6856495653353 1.08677033244893 3.68228743376765 
2.58249951311616 1.02595339967722 0.178676887779264 
1.44768919761405 1.31104944691659 1.53426914176716 
2.31498917171587 0.675745721133869 2.34888959955853 
1.8567038214453 2.79557916344679 0.719345104035113 
2.33455817959227 1.32053290381251 1.92965733974048 
3.03508636062685 1.59785544514424 1.88692573572671 
3.28670092744175 3.22398909619961 1.764594498708 
3.4195111407418 1.82197624452414 1.1736666536354 
0.907769039672215 0.380513635874126 2.35411656044525 
1.08793518542423 0.384832632126484 2.75222240675256 
2.3639120109883 1.1292330851311 2.33224467212499 
2.68496183993104 0.509648191257108 2.44466345244006 
2.64902151071946 0.339517451569553 2.66217448111898 
2.11561644007879 0.613954871302048 2.54451712160029 
1.23972867980134 0.581603196885697 2.15507009712569 
1.45397642412939 0.617976653230486 2.47399705350799 
1.88709587200002 0.427277791425129 2.4559341240876 
0.489472644410568 3.21697242844827 1.44683535096024 
0.324371750299039 2.60820733913504 0.967087805717717 
0.407353490908051 3.03943735755774 0.995337690035136 
2.84664941185935 2.12661987569761 2.90076267170222 
3.25025546464052 2.57010228506575 1.42426786935306 
3.12129359983485 0.965243901855505 2.48030468775829 
3.0896026311886 2.30918900643824 3.24800802489067 
2.94959609167146 1.5200271776445 3.43186747789093 
2.7781004710811 1.63776954289865 2.96826720980646 
2.24043081977698 0.411723903114358 2.74496005848734 
0.696915814071922 3.10612525588696 0.808714458260324 
3.07376767529508 1.41336374734194 2.63667718964222 
3.26414977531875 1.75941321570024 2.32125986606401 
3.33975888856193 2.79299365054396 1.88160466429596 
2.98892871241956 1.25827157010116 2.44470569321311 
3.15652413906375 1.5426876523326 2.03804084172787 
2.74699859511045 3.35486935321361 1.18623712446497 
0.859156679965527 3.396061554764 1.4135434390252 
3.21273095869515 3.27650002344549 1.41854795689448 
2.9341066432368 3.46626839630129 1.38103903765182 
3.17589585867381 2.95084359200025 1.18158782748631 
2.89153732514894 2.99419893693107 1.02929036360551 
1.21991756557116 2.00584148629071 3.37172004327788 
0.695553853685832 0.970489308136578 1.19521436536041 
0.727902759805991 0.624233686475347 0.96913658281597 
0.957885060728221 0.951194211674222 0.43861495060593 
1.32529116270106 2.86041000148892 3.3396841947924 
0.852172649552764 2.81876269908771 3.3141606824244 
1.70003263459027 1.75392975403524 3.50778291665194 
1.63555443872738 1.22738970909013 3.32983920029353 
0.734192881762088 1.31384340620882 3.32170763852419 
1.09458321274494 0.957182438699985 3.25205073045366 
1.30246052976949 1.17029937461727 3.11390928066287 
1.00586298066034 1.53944688789901 3.1411572680136 
1.47636417437613 2.28238437447422 0.43873606328673 
1.72927108429425 1.76247964571064 0.333728164028667 
2.39471679595199 3.05433591473203 3.03506133105235 
2.55366448084413 3.19681761854213 2.62005296388837 
0.657796581033598 1.53794327481081 0.944034975978634 
0.744515146029913 1.60782420309347 0.502173089191618 
1.94954128770535 3.2531200726162 2.98754479168188 
2.11657066326743 3.49848738604449 2.57187114250293 
0.979291993408644 1.30488694589671 0.611242771980623 
0.849105062807913 1.32970388546158 0.98614956915639 
3.10894359112694 2.26577724867875 2.44303871633713 
2.91761091164726 2.4620544754237 2.20765767973217 
3.40268001354628 2.56649412334356 2.45153853209669 
3.15358165484579 2.74212578610946 2.19886591966517 
2.05947340305142 0.448738185652421 0.801316986087653 
2.37750959247929 0.359050279748891 0.577421799304691 
2.21863604893837 0.657663009722134 0.267564964133137 
1.94774970650394 0.733493020015635 0.438523670565107 
2.92657061410941 0.553711948398643 1.12102814743226 
3.09216068901005 0.781845926130775 1.11895996758364 
3.08231388333128 0.391864225839649 1.24033807105857 
3.29156380219177 0.557340554320572 1.2748716993332 
0.915060125239179 2.11842814779238 1.87057446297713 
0.784672765568978 1.98738698743914 1.17764128121849 
1.11171305041949 2.0080730413667 1.46755157501719 
1.55761584418074 2.44712277899758 0.76622709207329 
1.80839776143828 2.30948299738883 1.12887259296024 
1.4454570496113 2.40263442070078 1.30062205714049 
1.4140281484717 2.6409333356768 0.993418365939958 
1.3031656959876 3.53081455023746 1.94594136939552 
1.152448914245 3.24678838378392 1.6303112905007 
1.19443046312397 3.25485667337461 2.40244653359284 
1.04774808705657 2.87922202495101 2.0962374945419 
2.0162316865876 3.53816050167685 1.20765925274013 
1.6895859296677 3.26505567528368 1.00007120708887 
2.26923936726311 0.727062642397866 3.44750435476339 
2.34272273119462 0.483388511504176 3.29815817088752 
0.295219970212613 2.12624642619896 1.51909692583702 
0.321381431658866 2.14118284900747 1.63958126183246 
0.227266312245966 2.25268269252916 1.49172851932088 
0.254151879791929 2.29379146576658 1.65352243345464 
0.848424463336405 2.16036966963102 0.964483819362828 
1.06880734972924 2.50154858122478 0.723867854863845 
0.697475945463686 2.4921562452917 0.703021041011178 
0.83832108462075 2.65711286059896 0.647395802091733 
POLYGONS 187 1143
5 1 83 148 3 132 
5 1 0 175 174 132 
6 2 5 4 3 148 142 
5 7 8 6 202 199 
5 104 105 216 214 126 
5 9 69 91 105 216 
6 80 81 57 146 145 156 
5 80 121 162 165 156 
4 10 81 57 84 
5 122 123 133 128 158 
6 10 84 221 220 133 123 
5 58 92 220 133 128 
5 57 84 221 160 146 
5 97 98 144 136 147 
5 58 128 158 159 129 
5 58 92 97 98 129 
6 98 129 159 162 165 144 
6 80 81 10 123 122 121 
6 8 6 75 176 175 0 
4 13 91 69 177 
4 14 12 11 187 
6 15 13 91 191 187 14 
5 16 18 196 198 70 
6 16 18 124 14 187 188 
4 16 70 73 188 
4 17 20 19 100 
6 11 12 85 100 17 74 
4 85 100 19 157 
5 73 74 11 187 188 
7 17 20 197 198 70 73 74 
5 18 124 154 195 196 
6 20 19 157 154 195 197 
6 14 12 85 157 154 124 
5 62 97 147 150 149 
6 22 27 21 98 97 62 
5 27 21 59 93 68 
5 21 59 138 144 98 
5 26 1 83 102 103 
5 24 25 26 103 99 
6 22 3 132 135 68 27 
5 22 3 148 149 62 
6 23 24 99 136 144 138 
5 93 94 101 135 68 
5 24 25 101 94 23 
5 93 94 23 138 59 
6 26 1 132 135 101 25 
6 102 103 99 136 147 150 
6 30 29 66 65 95 67 
6 95 96 28 212 211 65 
5 29 66 137 219 218 
5 30 67 104 126 127 
5 28 96 105 216 217 
7 126 127 218 219 108 215 214 
6 212 213 108 215 217 28 
4 30 29 218 127 
5 189 190 125 226 208 
6 208 222 224 152 228 226 
5 9 69 177 178 114 
4 31 34 211 65 
6 31 35 60 111 32 34 
5 35 33 66 65 31 
7 32 34 211 210 185 186 118 
4 32 111 115 118 
7 63 78 131 120 36 204 206 
5 24 99 116 205 203 
5 36 23 24 203 204 
5 36 23 138 139 120 
4 120 131 166 139 
5 63 78 156 145 117 
5 78 131 166 165 156 
5 37 38 140 169 170 
5 58 82 179 180 92 
5 39 113 186 118 119 
5 6 75 39 119 202 
6 40 151 153 152 224 225 
5 140 164 155 171 169 
6 42 41 43 2 142 143 
6 24 25 199 200 44 203 
5 30 29 167 170 37 
4 25 26 7 199 
5 45 27 68 209 207 
6 68 93 34 211 212 209 
5 28 46 207 209 212 
5 31 65 95 64 87 
5 31 34 93 59 87 
4 46 47 45 207 
6 47 45 27 21 106 107 
5 28 46 47 107 96 
5 21 59 87 64 106 
5 38 70 198 164 140 
4 79 108 215 168 
5 151 153 161 79 168 
6 48 40 151 168 215 217 
4 28 46 48 217 
6 48 40 225 223 207 46 
5 49 82 58 129 130 
4 45 27 22 89 
5 21 98 129 130 106 
5 52 50 173 184 71 
6 22 62 183 184 71 89 
5 92 97 62 183 180 
5 51 50 52 47 107 
5 49 51 107 106 130 
6 51 50 173 179 82 49 
5 52 47 45 89 71 
5 15 14 124 130 49 
5 109 110 44 203 204 
5 39 113 125 190 193 
6 39 119 101 135 194 193 
4 185 210 213 227 
5 32 94 101 119 118 
6 68 135 194 189 208 209 
6 113 125 226 227 185 186 
4 32 34 93 94 
5 18 64 106 130 124 
6 13 51 107 96 105 91 
5 16 67 104 192 188 
5 16 18 64 95 67 
4 13 51 49 15 
5 33 66 29 167 172 
6 53 35 33 172 171 155 
5 53 35 60 61 141 
6 88 139 166 163 195 196 
6 53 88 196 198 164 155 
5 53 88 139 120 141 
6 37 38 70 16 67 30 
6 5 4 90 72 54 55 
6 46 48 76 77 52 47 
5 154 159 162 163 195 
5 56 41 42 182 181 
5 44 110 134 201 200 
6 51 50 86 178 177 13 
5 76 77 86 178 114 
6 42 143 149 62 183 182 
6 48 76 114 9 216 217 
5 25 101 119 202 199 
4 39 75 176 193 
5 26 1 0 8 7 
6 109 110 134 115 111 112 
4 2 5 55 43 
5 61 112 36 120 141 
6 36 23 94 32 111 112 
5 31 35 53 88 87 
5 18 64 87 88 196 
4 109 112 36 204 
5 54 56 41 43 55 
6 54 56 181 184 71 72 
5 4 3 22 89 90 
4 52 50 86 77 
5 87 88 139 138 59 
4 60 61 112 111 
5 116 117 63 206 205 
5 95 96 107 106 64 
5 65 66 137 210 211 
5 95 96 105 104 67 
5 83 102 150 149 148 
4 71 72 90 89 
6 92 97 147 160 221 220 
6 79 108 213 227 229 161 
5 104 105 91 191 192 
5 137 210 213 108 219 
6 118 119 202 201 134 115 
5 116 117 145 136 99 
5 129 130 124 154 159 
5 121 122 158 159 162 
5 136 144 165 156 145 
4 132 135 194 174 
5 145 146 160 147 136 
5 138 139 166 165 144 
4 142 143 149 148 
5 152 153 161 229 228 
4 162 163 166 165 
5 169 170 167 172 171 
5 175 176 193 194 174 
5 179 180 183 184 173 
4 181 182 183 184 
4 187 188 192 191 
4 189 190 193 194 
4 195 196 198 197 
4 199 200 201 202 
4 203 204 206 205 
6 208 209 212 213 227 226 
5 208 209 207 223 222 
4 210 211 212 213 
4 214 215 217 216 
4 222 223 225 224 
4 226 227 229 228 
