# vtk DataFile Version 2.0
polydata
ASCII
DATASET POLYDATA
POINTS 60 double
1.55637078399975 2.1985053856889 3.30022784200894 
2.22021253479484 2.21935345651402 3.28808040555839 
1.81025425523669 2.03229518759199 3.41060523174918 
2.46912225471679 2.73600902790095 2.34224543614908 
2.46711156341216 2.13081750211474 2.3282113243924 
1.70390410324042 1.22225537575902 2.29188805860159 
1.16432714871134 0.946804115467798 2.34260370770111 
1.30692415153943 1.15163690102424 2.19659603584348 
1.35998519389772 2.36087908732049 2.08428372491376 
0.740504715407415 1.70599308877495 1.69286548853217 
0.954943722712952 1.54990683024394 1.42922523694506 
0.748638998967615 1.81698594700103 1.68484674831656 
2.12869973968003 1.98444749000567 1.48136233307763 
1.85869519342522 1.64684346856418 1.29693099467577 
1.00951569567484 1.42943190130518 2.29172666029532 
0.952532952525093 2.04609454876736 2.1502282104543 
1.06933595827724 1.69360454606535 2.44331372107147 
1.73824920176023 1.79696563375253 3.28817201500001 
1.03583597222261 1.70770607360185 3.26069757501063 
1.50243639060089 1.90281226495406 3.17324414008024 
0.818037093784339 1.62770161538466 2.86263188985879 
2.06531966828782 1.08177477222483 3.35050281987042 
1.905093219388 1.21746532094975 1.98707378896692 
1.38580829957922 0.638958849458379 2.7140167653778 
2.15901805588027 1.99754013739821 2.06388887206707 
2.06893951428234 2.10637945356525 1.47873058430463 
2.2667832342651 2.78699812429715 2.13012440397321 
1.38988593438579 1.11689938147135 1.73354210890872 
0.740978692878652 1.34642220013496 2.81492296499909 
1.14899016983331 1.9528395297767 1.14086834476236 
1.74783132385235 1.39944118211755 3.59405394902049 
1.1161900433962 2.01917337431942 1.17689427050397 
2.22490277629617 1.85963922269008 1.90645164195876 
0.860626248510247 1.24503424632498 2.44396974673543 
1.54769176904446 2.80438195810748 3.02620639409935 
1.85339541717147 0.741725624729862 3.28358899022176 
1.72738207944099 1.17084693005636 1.68101548009002 
2.04046841572414 2.21279720011461 1.94807813210919 
1.49044918830605 2.33859635488104 2.18248679547326 
1.81034614678024 0.647376403133665 2.78888246656194 
1.96115263385927 0.846094789995304 2.65855410368641 
1.85997993614557 3.02502922718742 2.31861039715089 
1.47555083775509 2.71881765747841 2.34299026806208 
1.75544438651043 1.65608297138003 2.48852642199521 
1.46752173674706 1.83372553995187 2.54617259056392 
1.38852390394776 2.25898288573262 1.28549802336165 
1.49537843167668 1.98610269420112 1.09424975785861 
2.32936025326718 1.87026956366974 2.97820803792359 
2.15904401104491 1.19141410998537 3.10047880005367 
2.00915653673218 1.63588077110431 2.99663502145508 
1.57906885449307 2.16867415599805 1.18083595085943 
1.05767433668789 1.42987511562716 3.46347128289715 
1.5233600034913 1.27439551044194 3.64598826093462 
1.51678233565747 0.803756170510502 3.45909976342154 
1.17126833395506 0.767385943729793 3.22090744300652 
0.905089414456758 1.09200333505567 3.23939102556829 
2.22958386040068 2.7805675000717 3.11788219287235 
2.36053276181981 2.95591455962902 2.72565726254398 
1.78546010911915 2.98231906612257 3.04611500321961 
1.98009704922177 3.14612829539781 2.70024156564509 
POLYGONS 40 246
5 21 35 39 40 48 
6 2 0 34 58 56 1 
6 3 4 47 1 56 57 
6 6 7 5 40 39 23 
5 7 5 22 36 27 
6 37 38 8 45 50 25 
5 11 9 10 29 31 
5 12 13 46 50 25 
5 21 30 52 53 35 
5 29 31 45 50 46 
5 9 10 27 7 14 
6 10 27 36 13 46 29 
5 8 15 11 31 45 
5 12 25 37 24 32 
5 12 13 36 22 32 
5 9 14 16 15 11 
6 16 14 7 5 43 44 
5 8 15 16 44 38 
5 5 22 32 24 43 
5 17 30 21 48 49 
4 14 7 6 33 
5 5 40 48 49 43 
5 20 18 51 55 28 
6 6 23 54 55 28 33 
5 35 39 23 54 53 
5 19 18 20 16 44 
5 17 19 44 43 49 
6 19 18 51 52 30 17 
5 20 16 14 33 28 
5 2 1 47 49 17 
5 4 24 43 49 47 
6 0 19 44 38 42 34 
5 3 26 41 59 57 
5 3 4 24 37 26 
4 0 19 17 2 
5 37 38 44 43 24 
5 37 38 42 41 26 
5 41 42 34 58 59 
5 52 53 54 55 51 
4 56 57 59 58 
