# vtk DataFile Version 2.0
polydata
ASCII
DATASET POLYDATA
POINTS 973 double
4.24084551069987 2.43431353277426 4.57720353808288 
4.50957497328242 1.8298110082944 3.93195485371783 
4.25814694129102 2.5585557265621 4.53806909575839 
4.68010613871565 2.03467395380879 4.68751424906907 
5.47320480601818 2.72097342658262 3.73926260583211 
5.22227873894455 2.30526541427317 4.76634208998893 
4.55369603981937 1.77009970570653 4.34284765470048 
4.71075540940527 1.71216191677264 4.07130562943433 
4.66325319137731 2.1837524176265 3.63216680486392 
5.21145063759943 2.1629496485747 3.61968629818947 
2.66889643912547 3.63219186557717 5.12125804372315 
2.95938128783569 3.7562884673316 5.04210246936499 
2.50235131112463 3.38980653020565 5.77474747913212 
2.50325454729223 3.6453020596462 0.240180936479933 
3.30957890020586 3.85903203206 5.34896115123072 
0.154360799391346 0.667801092205915 2.82116453639236 
1.08813307600568 0.388529676433975 2.65540889474626 
0.247892477984562 1.02703166444794 2.51395918588818 
1.4096681612658 0.549933633316347 2.93634098496035 
1.03994643628964 0.995387824981943 3.67608032740994 
3.4183647975491 5.44402946726475 3.80517417562055 
2.86361625841776 4.78418442698758 3.58211602876734 
2.99958812126223 5.51840810548903 3.16393487774484 
2.06655382239288 5.15610359181179 4.16072445702368 
3.25437418196783 5.31728188103603 2.72630940868375 
2.8263568753422 5.79663303870107 2.44876566777956 
3.10468199916062 5.59579241553519 2.93935604538194 
3.45643330205403 5.37059022299507 1.91487045533902 
0.406835343513417 1.26522375152324 4.24491788440487 
0.250867579507874 1.05649848232034 4.56546703136522 
0.578850149285155 1.09599151020296 4.9314661708059 
1.31245273692796 0.439571636147509 4.714415152014 
0.81746894161053 0.406664439000779 4.8365223140731 
0.23549067323479 0.719132578976701 4.57396497946045 
0.548020360359274 0.676551730713986 4.92436127114512 
0.675513067050866 0.219506832737342 4.35849525118279 
0.0451421020325834 1.46550516333792 3.53838717474266 
0.686629807205423 2.00621865320267 4.44337154185011 
2.31003524349427 1.50930407336099 3.50043786336999 
2.44855314504909 1.39112512293882 3.30274013394718 
2.10880822204715 2.03350779394106 3.40580178271146 
0.480774405756325 0.535118023783443 5.35313312204175 
5.20651207634274 1.11871552391256 5.36538427957674 
5.63363640329715 1.52474156579662 4.97514425899318 
5.2100698254859 1.25658370663537 5.10104123421192 
5.77926429700519 1.25885704095134 4.57227301539297 
5.0133688133807 4.71906883816098 4.71865503085045 
5.60685377413755 3.83331763133485 4.34824844682438 
5.1013260554174 4.13126464267913 3.60254905477152 
4.21945597246004 5.09960436450307 0.947866601633885 
3.73224216047522 4.98015426359236 0.850120689060122 
0.789772802843093 2.65778404129303 2.74414859961203 
0.745005754400299 3.00103428095114 1.86897510052064 
0.856438070819901 3.02762227206954 2.0835584642976 
0.632624092685058 3.12712694494957 2.56590038640402 
0.90227466746929 2.06592072358734 2.11199439103245 
3.0011588668812 3.43597757778934 1.68831944223184 
3.72941046000937 2.8310558882015 1.47103939397936 
2.50710509239072 2.4167357850672 2.25655770766954 
3.76206669512485 2.6034208453179 1.58311169346242 
3.65188057339854 2.77419033831338 1.32279536231678 
2.68271210243089 3.29317469176149 2.04642762320065 
2.26504118415021 2.83340322738459 1.96898186158627 
2.55655734224724 2.12882772470373 1.92216636376887 
5.63464973927022 2.88266022985056 3.43803230090737 
5.11697333653803 3.55538389820079 3.18084524617131 
4.70362577494869 3.45131353673384 3.51835044540824 
4.79949349741427 3.57114237940868 3.32073774934691 
5.04398590036825 4.07918153785857 3.46955562498217 
4.65201427271916 3.61611886163544 3.57341676331521 
5.28492938944802 3.82411696633181 3.2115433325686 
4.71857449890942 3.71969025572628 3.42270613234301 
5.52246027124626 2.66214261294211 0.719275291737147 
1.0201623112553 4.29988008887363 1.26615691508384 
1.7040035080279 4.71633568935092 1.20252853962457 
1.78682012777156 4.09403253052669 1.15117506329142 
1.50816706152313 4.38274732432979 1.38358896838452 
1.12561873380449 3.91726791784175 1.09977201542143 
1.66179081231496 4.07247905153337 1.25987033028101 
1.70817975338359 4.94432877145847 1.93786418978345 
1.46926194508262 5.16125640995257 2.04642481696494 
1.84524345071181 5.06855661630533 1.5450196874204 
1.51554365732867 4.51080953105196 1.89700986416756 
0.80232176305691 4.33876584710255 1.52832399033962 
0.49419782396366 4.64522445113631 1.31250916834517 
1.37848333614971 5.61451332153754 1.6934970250125 
2.32522184551747 2.37666145085143 3.83051509663476 
1.9447866516134 1.79161413808975 4.71633526913499 
1.77150482066542 2.1815142613829 4.63263305509483 
2.02473569571006 2.41449093320563 4.47756790028106 
4.80705133407316 0.903829490418498 1.68183966521845 
4.71058378927126 0.419323520734815 2.32272879758099 
4.97238471014564 0.687215428112652 1.78460294416591 
4.13651621997188 0.955581481326676 1.64616886214497 
5.07259017244088 0.24656716871857 1.37179772743769 
4.51926674159671 1.45776257874272 4.62306350478301 
3.36221854015542 1.42843917443561 4.8318165766043 
3.23716121395921 0.577675219321874 4.17726191063667 
2.89791055884002 0.346018157984172 3.7600406118529 
3.38566305099219 0.338671764395084 4.29721292639493 
3.86348126690862 3.67236208467255 0.556686737415557 
3.63600810125967 4.05321904670788 0.919710476432967 
2.97841933232761 3.6989420078171 1.23704888700946 
2.77305249209114 3.84182163540383 1.13718740864702 
3.51525185899328 3.19157165208051 0.660891674150202 
3.85518570020134 3.78637437340635 0.318464433454238 
3.38964614740535 4.62935992392836 4.81591694582553 
1.71569566905867 1.18466727102464 1.94312829760249 
2.28972791463176 5.73269162642458 1.36557952814133 
2.20403871085652 5.13475055246067 1.54504457582087 
1.71617720473168 5.9282203587085 0.756693686040395 
2.78432453625917 0.627487440939872 1.22618719335398 
2.91287985386298 0.682347252762053 1.23206653232965 
5.33694641244495 3.94536217185461 2.90454481846468 
5.05265834456694 3.49458745958534 2.9219502177498 
5.16942205526348 3.71009656037926 2.71391521654597 
4.0251731488237 2.58442311410514 5.50090525406159 
4.51595839895411 2.7873323085888 5.92867076245338 
4.02243109008812 2.79427599122237 5.41539082007826 
4.17933565529998 2.88215080483221 4.76477764334409 
4.44363083583502 3.11846166998053 5.67374054197323 
4.65635810504833 2.73883305123552 5.9301716916733 
4.80521988481144 3.33277124956164 1.25004135633867 
4.02694182201649 4.63970962638297 1.29122438057305 
4.23672207788891 4.77491592227116 1.7199515279908 
5.13796725378534 3.71333318374252 1.72716804108232 
4.3160497645458 4.84193190194222 1.21396969287269 
4.41007129279672 4.93912862867624 1.55952757487474 
4.42685996051136 3.3689072018066 1.20960426883745 
5.2486648476428 3.92275249434802 1.60174740140518 
4.85948433775889 3.32604797295158 1.5083048650012 
4.32537827493399 3.76225751730748 0.927510251343244 
3.96810741883327 4.15752283551606 1.21111335607243 
4.49286457539549 3.65118826833948 1.92639145084028 
4.14947551481585 3.71053827008594 1.68371092008528 
4.73722445332265 3.88971663708264 2.02127772720211 
4.67253585205131 4.51301635721877 1.98419804821976 
3.94340754904535 4.11191742692014 1.4903436986262 
1.2005521321208 2.03656651353891 2.19393169101492 
0.860939566340246 2.63694557449738 2.82912516017893 
1.2687328379601 2.40420008083873 2.63490005721525 
4.74693759605701 0.822224806048606 4.29216702734189 
4.22060204466793 1.61483656904589 3.5492680081334 
3.66470046328597 0.724629462213712 4.15679296889682 
4.61748401676858 0.935188311292422 4.5591880547884 
3.6566347230696 1.62412880434136 3.79775979256784 
4.77515351555712 5.14621641047397 4.50046134669794 
1.57993719776586 2.6462814308869 1.07789799085781 
1.85207702673598 2.96564544219201 1.42440615848084 
1.95479503283058 2.78209796690429 1.74924825095459 
0.729908759065524 3.7583441992634 3.43987321087938 
0.682481593401043 3.98345419821282 2.14217246811172 
1.74763261009063 0.94080728522197 5.78192902319121 
1.7735904465554 0.416440082122383 5.13948879909612 
3.96949019524393 4.57534029070211 3.17935657207594 
3.88076867695394 0.700391242050632 2.95915081185009 
4.44688182225089 1.06541780204334 3.03855133278553 
3.53100709536983 1.99798597818133 3.32294378502473 
4.28844113300149 1.86025556759707 3.20268369908384 
3.99890745119446 2.04516308386734 3.07674806876635 
3.46400844522257 1.7718460384516 3.68118939577034 
3.28226461439866 1.53731630913206 3.68789845336573 
4.28102010904752 2.87142968064266 3.51578740970658 
1.8637773535777 3.84184841392641 1.44810570746569 
3.0025199597612 3.69831124756191 1.61276821029739 
1.63897060387541 3.28619406637257 1.59934938101568 
3.84294629646889 0.774621081052741 5.46484731111099 
4.12112267546367 1.31512213862249 5.89770115045916 
4.8483075517233 1.25621899681392 5.8485642851386 
4.0113451982024 0.614485182866438 5.11227632529748 
4.49738071643992 0.49891340264115 5.11836140909124 
0.672078833648247 1.88853961044407 5.31393073877111 
0.609846170285204 2.21950292572727 4.81273146994426 
0.965527757241727 2.1276416586122 5.50923956412209 
0.815609590479267 2.43204077696515 4.78384649042622 
3.9621988260859 2.41127989116969 2.3532163495166 
3.00998401930647 3.81021804766551 3.67177785391851 
2.94800666865287 2.72127350746107 3.22455922647344 
3.29676635635194 3.90912336972032 3.88747517509635 
2.57041757368852 1.70385850722247 4.81443017036399 
2.24915818699657 1.64218402422756 5.21264116155052 
5.30950098391242 0.898449890111887 1.86847005244717 
5.76713266135686 0.728339161785663 1.61991423937519 
5.71215231296487 0.431111134281029 1.37503730903724 
2.59781404297764 2.89985759174183 5.00132961101491 
2.45774922979781 2.84679446385109 5.5843971488069 
2.66973187924741 3.31127200415817 4.84205431385614 
3.50320559312388 3.74549840923527 5.30859417040501 
1.68006707438164 3.42509746687588 3.17981892406018 
5.3068897655973 2.09568110193438 3.27276729860284 
5.52115753299311 1.71311127935353 3.21589724731831 
4.52139951875909 1.85953392466155 0.530898028326656 
0.917803199887023 3.8093659497742 4.48281508556342 
1.90661982928425 3.07261842622624 4.48090319329135 
2.03561257646941 4.16818494034474 4.35291775009795 
5.96413908574283 1.26389453406243 1.28395887474525 
5.59934464049672 2.10677224526811 4.87737824171871 
0.788066335166454 1.4582308732299 5.24540272887168 
1.33524029464531 1.92751786477056 5.61851764667056 
1.9407870567572 1.7063813177366 5.11600995997122 
1.67657243976976 1.34778421690789 5.20171986597063 
4.5447953410912 2.14955627412587 3.27875757303118 
5.3808264935033 1.95614645120337 0.196678292218651 
4.20711367076422 3.64193212637291 5.85057746735147 
4.43730972671154 4.0222864099744 5.6055532979514 
4.75933420863381 3.90897197128107 5.25377493130637 
4.11331074348783 3.5845639535294 0.595558757036394 
4.49356326511601 2.41738714518664 0.751833223119086 
4.49908386211544 2.35705958673305 0.56414065425613 
4.81489174173008 2.44592960832858 0.345415275194438 
5.03595898380979 2.76306178178464 0.995325078298797 
5.23237912382839 2.76824333278451 0.702635614720729 
4.24144076203959 2.53025761925859 0.446900135387871 
3.60664121521293 2.42960912622093 0.378918651615375 
3.58286061659777 3.27753691449999 2.66806615410213 
3.38096020730141 4.21739183701088 2.03693779844588 
3.47904041051867 3.89925316279651 1.80839150030664 
4.49212106492845 3.72176371781315 2.61002593640924 
5.10682942427633 2.96149306343404 1.58763692292849 
4.73859707898773 3.92123516196522 2.40573428336561 
4.77802785437178 3.47286557185111 2.93675943713169 
4.66249000962576 4.53571065475037 2.31850795525866 
1.75605145214247 3.65720454068501 2.97493226251492 
1.23027987994554 2.75710707718062 1.05294475482457 
2.58501221839393 4.61039723232989 2.35249138352303 
0.986622327977313 3.22530601228578 1.99829084381959 
0.774405655422794 3.13401480901233 4.08744849327065 
3.65754188053077 4.84937107598439 0.975667080623685 
0.637015512274437 0.37821410230552 5.4061653590458 
0.846905386451877 0.253399581519422 5.09111142194006 
4.52887473514979 2.05582427625857 1.08488871903757 
5.15794401627593 2.66967095828967 1.17825342100001 
2.85495299430929 4.68771542233841 1.81638707486674 
4.69213884709659 4.57265558559086 0.196372139693281 
0.742960088591441 5.03796264390454 4.54660503035659 
0.953659832633838 4.68684548746164 5.24807737403878 
1.1900002804615 4.51206992231495 5.2558258134179 
1.45404715659371 0.283541789682928 4.96463538413032 
5.18550355779887 1.1880283952069 1.77177783104723 
5.21136849020142 1.57453886425816 2.07125231145214 
5.33562763932171 1.82925119260018 1.91660750629877 
4.93986950872791 2.09315942527964 3.01266015397136 
5.16123929173739 1.45294016496465 2.83993438752326 
4.92043437682987 1.77079524944026 2.20463048150794 
5.04580377044049 2.07590860240492 2.02593013477946 
2.72267964506669 4.18167894885294 3.66687457952015 
4.90741483433772 0.92578077968569 3.01325924037273 
2.53992833631991 4.28207571692288 3.18927137329234 
1.97800698635104 3.47281167539339 2.81958248358318 
2.02709770868742 2.72733159777378 4.71243326567405 
4.50699231057632 0.778003140808735 5.88009546460421 
3.38511240418714 3.64424433224405 3.09042937129478 
2.17943809832493 2.04859451687172 0.412736181145315 
1.86361097373571 1.49392979066645 0.476312376205327 
3.87878615210784 2.96087143740822 3.60455943588452 
3.7583100696133 2.8624183227882 3.41460933511804 
4.59163622022766 3.32255560741351 1.65532986521123 
4.34256110737159 3.35975507483462 1.46094757069864 
4.35621599496197 1.88445976568595 4.19959122371831 
3.8239175545044 1.75702248506666 4.20994596022425 
5.61772377464848 2.30039035677099 4.48296177436176 
5.71741637020891 2.22703819276473 4.56849410006234 
2.95599545031511 4.24305092919636 4.92328215034247 
4.31468908883524 5.73481442574166 3.25178991064239 
0.529794777988082 3.62928973548396 5.66221432863724 
3.21843618446251 4.47760405790005 5.13071775573958 
3.99748373523827 4.89102398233115 1.93171719908593 
4.12110211166188 4.74287117255311 2.51028306972335 
3.05200296418811 5.36482798950088 2.27583936402595 
2.92813644147224 2.50359024312532 2.45590414751056 
2.8557664856727 2.37057489530805 2.88823969238986 
2.00867211500788 3.88147778418123 1.29583192024447 
2.5561544964399 4.03945956178375 1.39745695350127 
1.73152022385057 2.10501486630704 5.36740600783756 
5.49461483676919 3.5751207205367 5.16200367640665 
2.45217663580219 5.86179098603343 0.795817971250247 
2.54730414030442 5.79406993228258 1.02490206918537 
4.23764064521536 2.02400506009857 1.33717016576872 
3.98704357858041 1.50546014677312 1.31940822674111 
5.98167037291772 1.26725200006719 0.979498956296836 
4.05330347510896 2.31943388236969 5.28926788298835 
3.75868092947409 2.20460317045767 5.43790644663559 
1.71597708755165 4.32058032531988 4.34450402345711 
2.28320419881185 3.44823479857888 4.07726969726077 
3.66133754111199 2.5093145908327 1.37267279514169 
1.01743280727218 2.49678348706585 2.34522645998491 
1.21650328109374 2.42699031507711 2.37583170604509 
4.96227447855683 0.835618990918488 3.20165342481514 
0.962120065566122 0.928307244120343 5.95581826908854 
4.11462412390635 0.337424095682626 2.37743804048538 
3.35593157339972 3.33368249970885 1.86629520818708 
3.60329494612133 3.67948560346321 1.92836551102616 
3.79062401737775 0.248303124002494 5.00591391726878 
3.52923892421733 0.35515098504978 4.29613729345053 
3.70516831438484 0.152085395505974 1.07543766956465 
2.90182845704748 1.24153926215797 4.72887042575374 
2.88937531989186 1.14623774219643 4.49765207433399 
2.44546968940995 0.370108706368444 3.8707092734939 
1.93626022482085 3.24715481921246 2.98289519956633 
5.65387177732319 2.18428530257838 4.22283936649503 
3.78159282112223 4.65571040158845 3.44489089320514 
3.58629946853445 4.09157909660112 3.85835929888174 
2.45103349442672 0.683928442071595 2.196203758886 
2.45426978935639 0.40763212053336 2.45468500815387 
1.5661975328688 5.59018324751562 1.41528595302957 
1.80265738651435 5.86425621243307 1.33918078517649 
4.46507202915496 2.15059269281627 1.81627124887756 
4.8466880198383 2.25333054327155 1.80442378367094 
4.93274174749428 3.0414125442342 3.88555752932343 
4.5008119211778 2.65217922254098 3.80876331545367 
0.71679732109156 4.62911042456348 0.98943813710133 
3.39802593563167 3.32202637093753 2.98344063686722 
3.10235856592921 3.21901561894428 2.94406919822429 
0.914267525724176 3.32729366061733 4.3784850693809 
4.16733573023666 0.849428446508043 5.89007445320845 
2.39475823318541 1.78356542788499 4.57422282895062 
5.19418439607057 1.14419425869225 5.03308146832221 
5.56662211766709 1.0143505871063 4.57892226534177 
3.89356330367784 0.189514066459993 1.26141958518072 
4.4276689538197 5.08873069122294 0.692912952916784 
4.71359050081323 4.84004980327373 0.721674216918853 
4.44128893032296 1.5741848279812 2.88547432352554 
4.8818831560131 1.71157141010511 2.76952618105844 
4.01458184498292 4.14364881701487 3.15956899674943 
1.42428083039294 1.54183134449812 0.253996309239459 
5.42640805728056 1.36707048405582 2.4166299274486 
1.0965745002018 0.858339150357603 1.03237179514179 
1.94147350761435 2.54322658915283 4.08967911070187 
3.38064661793381 2.50512344650635 3.5271838095294 
1.30946044711043 1.48697399740244 5.5161579755083 
1.36300600215407 1.22629738450134 5.87385463943289 
3.9901751749973 1.2484248849451 1.65926784315707 
1.92607570523536 2.9684194057674 2.12099412659405 
3.74411489022112 3.63035529068076 2.52735471318238 
4.36381614544942 3.55431121118422 2.4761034354386 
3.87136451388354 5.32115789746832 2.06320980165659 
4.80370407306579 4.8387096691714 1.63538064045698 
4.87625885772053 4.62045232437792 1.86484599316329 
3.73304346134946 5.41380633987247 3.84289669049581 
4.04634847960244 4.94543044426655 3.66237471104548 
2.41580302562675 5.09059805239491 2.07271281515858 
2.67223362569933 4.90699101466381 2.12228685518298 
3.73924763324484 5.68151468505894 3.76011132298807 
4.07783722766354 5.90031477069611 3.36014823338716 
4.18051590966749 2.50360949596142 4.39758696844049 
4.96573212414697 3.95328725189936 3.97703357298094 
5.60967297720504 1.45852644590718 3.57111587623298 
3.78175235707819 2.48767688855338 5.61318053134529 
3.7990681836125 2.33018904666525 0.2134763298487 
2.71262385539533 4.51095794470885 0.217239275696169 
2.37070072635894 3.89950729039597 5.07901677793274 
0.804896413584886 1.50966768619995 4.47815907592179 
0.833444985388365 1.2976447572515 4.88091177904941 
4.67838002316932 1.49020646123989 5.84321152594982 
1.9423806454342 0.373441325981085 2.94950126004091 
3.66473471972909 0.492555567312681 0.599302236836608 
1.67803750137401 5.5966385055953 4.32821523398141 
1.25727184592786 2.91898924539747 3.74680730216124 
0.853671039818685 2.80392071822943 3.92999145544818 
1.0490867819281 1.49624942244223 0.669574926395361 
3.52697347210426 2.7119140003529 5.58692703836888 
3.29896552808843 4.0679311003849 3.93443784496482 
2.86621286860979 4.37831305847889 3.78691571241534 
1.37236278609117 5.61974464842296 1.13346943504575 
1.61136874045664 5.94229366196501 0.966103998339049 
4.88440185265356 0.691238191905042 0.653383365577109 
5.59422147312358 2.59984706098945 0.982653794296037 
5.84391924292396 2.14712948762414 1.06661134328276 
1.85682901358848 4.01246730697514 3.71562020016523 
2.15952274449856 3.97144971560684 3.96186609511716 
4.957168091158 4.38338358992327 4.71818203341459 
4.59487054102743 4.10186282192428 5.0071310414246 
5.49675179622677 3.56367796781452 1.86442505842372 
5.5715386261593 3.18437923101784 1.8008526026721 
2.93264151452871 3.38993417432284 3.03206694711099 
3.08112522023886 3.67151365051839 3.14390300716985 
2.54858522910958 4.30103047131925 4.98393965364754 
2.32740902385784 4.49179608700513 4.49304991031946 
4.9687165889651 2.19916494707603 1.39655792638925 
2.61182458960211 2.79189362152618 3.59135716299493 
3.57055761780557 1.50188961113992 2.47634678350742 
0.776970494618906 5.11947361981702 0.571394488456879 
0.644813542777727 4.79376575229725 0.372420823278618 
4.10867523840603 2.79848431103773 2.73458740417064 
4.53526803665607 3.11228563605384 4.73510247486542 
2.40744313836673 1.57034330826789 1.16109381124358 
2.90269372618656 1.11069536092418 1.10690264822238 
2.04098242397845 3.78214687146261 4.68665332410355 
2.20177977405803 3.39377692188619 4.48376353882915 
1.3819753088917 1.99495699925734 0.012828450380606 
1.87050210482183 2.31231260547434 0.125355238523418 
3.41481596392526 5.6498936499359 3.74319773802548 
3.17435585856875 5.7603015962705 3.37103126459779 
2.57745575150688 2.17308937464313 4.0672898510733 
2.469899557418 2.17428281879279 4.4305169872772 
3.96617285263968 5.18997385053114 4.86197464685222 
4.15136162659207 5.2852752762124 4.49511256983125 
4.63762597803321 3.92674054075022 0.807961571628851 
3.37142459477229 4.37189197989413 5.2754792740659 
2.69780370303542 3.97173611881101 1.76254535932683 
3.74103616353239 2.36092447302164 1.23016916849474 
2.88479604113392 5.65674899302276 2.24196127112327 
2.67668173650619 5.65287792775503 2.1940798167378 
5.19660014195249 3.00826009581489 5.38969834087491 
5.18756752534772 0.983686623425613 5.29264894832918 
4.74126145147445 0.57288863191644 5.45008212449619 
4.56611392198443 2.99225064564278 5.88570161875879 
4.72567711619489 2.94520746168495 5.88390857180727 
1.59773809135368 2.57038030325138 2.83128336864489 
2.94882977851947 0.851065872870923 2.11491719106441 
3.13874230500326 0.870901904716272 1.67171140979607 
0.464678332571861 3.21298464624668 5.60711323138277 
2.61750417359852 2.80628106308131 3.41776781149348 
2.5762466991182 2.95201923086823 3.41373641575257 
0.924728737438726 2.17767230617821 4.3319232166517 
3.57664399443796 1.83507359655532 2.61373626205533 
3.91538318551413 1.93188659534285 2.66304686945608 
0.84999929007721 5.09414608528378 0.807236120383721 
1.30117608310429 5.17882951300468 0.828922364273495 
1.84605230364251 2.7221677038598 2.72394839717574 
5.88371284294219 1.92713576999263 0.802179365242028 
5.6611782171607 2.13648205964042 0.413266431503754 
1.63671209724148 3.24647085976874 1.91624655702114 
1.81409175440449 2.94063791084137 2.02176124819499 
2.62215324221255 2.16810640619688 0.432507132202658 
1.97457380678342 0.192798074115095 3.50625909427873 
2.28099283835873 0.487237354880067 3.73630247165866 
1.68942129166751 2.79139717092219 0.380002068915025 
1.00721046573914 5.1625135390414 0.361474154940957 
4.96472484508582 3.15001862748939 4.13900808901844 
2.63552300089608 5.66380870567126 5.06343581881715 
3.0898926390289 4.38682248007484 4.55002502928537 
2.72711602238423 4.58316845852655 4.20999208031768 
0.889646895069498 4.85342978253487 0.162759969157617 
3.6417930938383 1.34144832822906 4.48970376520745 
4.7290057181837 1.07248049941139 4.55552977712583 
4.08780987766796 2.99301339000972 0.813443780207294 
3.84765366226347 2.87185143474694 0.860080387089259 
3.72196875362122 5.01572557896251 4.71296227462353 
4.89088918097513 2.60172124539691 1.93819459956301 
4.3123805933071 5.65029870858189 2.79647686532275 
3.28520517327131 2.4009105523452 3.91804228812849 
5.09069848399545 0.438130062346424 0.704093955475764 
4.7142466442738 2.93851290730719 4.56448264809712 
4.16494015053894 2.64223515409051 0.68624731806828 
3.88531198090115 2.63637569148606 0.781649661270417 
2.73091139278015 0.810695481222977 1.02111731068382 
2.85464894949232 0.857250470214119 1.03483240138478 
4.95413820808402 0.255265681679651 1.20588768603126 
3.31707474495552 3.07935756233059 2.33010062406577 
3.08279753134837 3.05213387657551 2.42515521252569 
3.90400923592071 5.96737142542988 3.05136959168242 
3.29651184951867 5.85439860792443 3.10599929252337 
0.92602681939728 2.24931509907301 4.14978840279959 
3.07736104870929 2.47627011105125 3.99732340471401 
3.06391788603061 0.775659664037254 5.5651051619491 
4.17106433310843 2.39974771062932 4.44053062671118 
3.69801058005454 2.16704510583167 4.39927431697357 
2.61574789112238 1.65902622699004 3.93445535563731 
2.49867029710761 1.4723536794737 4.23709066335818 
4.1649177611999 4.81918080906304 4.02877207069329 
3.98219528054517 5.15912325730369 4.33288558103392 
1.57435610199584 5.43203753820929 2.52131758398142 
4.27846086208644 2.43715644860332 1.93010062487284 
4.60863088798625 2.73950686365827 2.00917134340327 
3.32838731885168 2.24429856768897 2.23109729215523 
3.57818288134362 2.5128957984737 2.15190488779536 
5.59462086951562 3.49359392317316 2.28075211099953 
5.67306458194558 3.04473702946085 2.18435504133773 
3.90204046355412 5.2937279791287 2.53478599400893 
4.09249298304729 4.89277875608457 2.66895824351588 
4.19630860353522 5.69753156748215 2.72722255529475 
1.7101936829432 4.29290412110536 2.13137026777005 
3.82406653895301 0.436261238480351 2.83858986619233 
4.55627682663731 1.7319475400985 0.893319214566895 
1.28032988179467 4.45376966582339 0.0327213315167669 
1.36357551260302 4.37629860600483 5.58812970896493 
4.77426826413537 3.27352358132365 5.20952623466704 
5.12326956437356 3.14890384397225 5.18762612144771 
4.13655682401503 2.63474021734508 3.10436890666423 
4.27382509654493 2.65641931259542 3.15545848412771 
1.55475429209489 0.712666021552426 1.02471001340563 
4.46036053753472 2.96545719102001 2.62861480752784 
4.56214129704164 2.94193233582491 2.74680959513925 
3.30106727163369 1.86991757217367 2.99741810575138 
4.88433424982033 1.77107091994094 0.217628276611659 
5.00822240034185 2.06618777908712 0.135635898274518 
0.34173888371791 2.94930954420959 4.89776336425165 
4.95670413596131 1.44055778520623 0.979815918599954 
5.09485107799886 2.87431173812162 4.71787945921283 
4.01497565312069 4.61815156086481 1.55681936055568 
3.78542289492015 4.74128986607016 1.7658810463917 
2.72094314716533 5.54034604740473 0.848085872595771 
2.6371785881603 5.60040914865632 0.638631772602233 
5.29903763528408 1.90973026418275 3.91018004371363 
5.51526933292945 1.54350961326098 3.85386766119513 
5.73505552593907 1.55149427076835 0.976206540819983 
5.27170306370983 2.2324946798823 4.92136261959147 
2.18632307973169 1.37141340427091 3.52399935503824 
4.77047175665439 3.71142503036002 3.95465586862197 
3.1375541018776 0.895265880352376 0.594170384323598 
1.17659977610308 5.32734052782872 2.83209758040734 
2.96016654225522 1.15291832475205 2.20124320078238 
3.60389823571675 4.60569045174074 4.79218538924086 
3.88127263120529 4.26915123531948 4.20720923302945 
4.34436229232322 5.01300569835687 2.81802674456052 
1.87106910347161 0.587028581552011 5.04085817860257 
4.92907047744273 4.66045049313411 1.16722748724278 
4.67837323356717 4.65606419926101 0.994548792227596 
2.45907685222945 4.57637909747522 5.30041117439339 
2.56589487588753 2.9528083622065 3.59342449030958 
2.75504853417008 3.36993684962101 3.93247669644302 
4.32148155287326 0.575224385686584 2.35869916969588 
4.17712898480815 0.908941284741138 2.75766605903665 
1.97266461097865 4.16900000156317 3.24215280450992 
5.30694299064653 2.47470357439829 5.31104479554617 
4.8956089492816 2.2869217577437 5.66815179598282 
2.71599145905264 4.29221966532382 2.22194794096786 
2.8721896784592 4.29879852336229 1.98625364307303 
0.94647336981618 1.24716972344831 0.873441219829649 
1.10003200797888 1.48293133206303 0.754251419921261 
2.33498457024709 0.650151587074789 4.25530643595817 
0.588616426591702 4.50797194554926 0.537163610814785 
2.1223429073313 1.17529400740442 4.03363563214769 
2.13742257712961 0.788618749190465 4.09518460240336 
2.08931061593534 4.96520046771385 2.27356547917366 
2.14373444698752 4.70114596692062 2.40224143136732 
5.35756746656579 3.0633390368803 4.37878616514089 
5.69198745682888 3.55572241778826 4.49100641552513 
1.84709936369127 4.44503272971288 3.11372338737453 
4.35628782643648 1.01960627237564 3.35350163435047 
4.23498743801575 3.76432779253331 0.143070773305767 
1.86455949134082 2.69506256948901 0.677954236544363 
2.19136516908955 2.0749671233521 0.482415225361915 
1.07372729863356 5.06118362514194 5.00634654722777 
4.19297751781748 1.61464809219563 2.54716420009448 
4.46321862515712 1.69512405956308 2.13319041612352 
4.73375796238872 4.2140147457843 4.23527040509398 
3.6773737036893 2.94853935417519 5.45616588171425 
3.66762582999675 3.49874233792026 5.70990514216068 
3.04938575052733 5.01103517244272 3.26770085130305 
3.14710586751699 4.96723201613283 3.42703914315781 
4.33414202838799 3.66492160272945 0.260325756834516 
4.67042943984756 3.8770551316624 0.37979085860036 
1.28124270594454 3.92947223808096 4.78203317199579 
1.10266015162024 4.10820232310396 5.1398653440633 
3.34198036760972 5.03415035843675 1.16749490664776 
3.41897221747375 4.9846104709475 1.65918021030871 
1.26035567098902 5.24835124147148 3.08113916791831 
1.0495046407892 5.56865967077315 3.36248527647597 
3.18525001428672 4.92526866676938 2.96027846245007 
3.85666769976825 4.6388958007856 2.89560675958765 
0.958809090241476 2.25740873235431 0.157974228100618 
4.47786878419223 4.1810474055396 0.00172034223488571 
4.68589277788397 4.22146107093859 0.117725887689492 
3.69521871390442 2.7723928839654 4.13502146785799 
4.38171763278362 4.65913633490837 0.0459607820252765 
2.81496137471743 0.854229143617418 4.50526819714911 
3.95928957136846 1.48294345289769 0.219463161784816 
3.70527994049133 1.66630809053249 0.109156228542219 
5.3822148069901 1.05155743618995 3.57753005226781 
2.66786465065974 2.62508429473478 5.7146370400075 
2.09523185787771 2.72883048039295 5.62667258154341 
2.07293197133213 2.37624815707654 5.77426917791225 
2.62497831960179 3.20634686192109 0.836070490066623 
0.741112881602793 2.82550289810278 4.82300045294764 
0.747796272309239 3.1905317122393 4.3992619121258 
0.321235751571851 3.78153613302656 5.42007121099764 
5.25346278436707 1.19290521595938 0.499624967034946 
0.503840013601857 0.25314922248788 3.03282451982854 
5.28245689053023 4.30730580391514 4.81144246033407 
1.55352293303239 4.29760040555353 4.02481381576849 
5.27408895192203 4.01486736357898 5.21966144604832 
4.99179832515001 3.71267560253066 0.995197558671099 
5.21805732923299 3.98394448925663 1.22147369207905 
1.67234816661928 4.58838237083101 0.125741040320497 
1.76309034368235 4.5293990417287 5.69576276274657 
4.57808676882072 0.878051309629425 3.50243728939311 
4.42036910386085 0.62421735016808 3.66922155888805 
2.2562536303876 1.16445257874675 5.40893977916543 
1.91027684648934 1.03505495337212 5.38230294388483 
2.25071172539818 3.08436110081057 0.933803085238765 
2.48984352030897 3.01699108449526 0.926901567967491 
0.21045585926167 3.1861711085944 5.34794939586886 
0.107500551440657 3.4831046761713 5.24091783823876 
3.26982293516743 1.53586369854742 0.346990110263969 
3.11327307153253 1.91020786980131 0.574578991393389 
0.795778349237207 0.193560822518424 2.98545152200347 
0.842508315189166 1.26487096796136 1.35443014759689 
5.66945140323752 2.70017205475914 3.93036181302159 
5.63121309671618 2.86372233959499 4.27358004489878 
2.77342544094876 3.99044057013307 2.90716042651214 
2.578112320659 3.64794572947797 2.75113611002412 
5.17144211441695 1.59259302344968 0.299358208673297 
5.23788836671814 1.40092704980327 0.625220581833252 
4.31352193781915 0.977254170104854 1.86738600775146 
5.6158533916992 2.60560670920071 3.0655133759601 
2.14907659553563 0.479571409559225 4.93112115576336 
1.07190745237646 2.49501938848544 5.08926802936038 
5.44207032842336 0.897773127088067 2.27619258933196 
0.769344455238984 1.94889137033471 0.5757948126812 
0.751316350032757 2.33824093494076 0.917315723816945 
4.04603215635678 1.37687653281578 2.46087136714321 
4.21212495351796 1.29038891754346 1.98313828033041 
0.346485562820034 1.39185932508174 3.20121682523247 
0.181633262824229 1.62547903899306 3.29186190350697 
0.422324345245105 1.75865585053976 1.83252646336516 
0.415442971974588 1.28629541501099 1.57705585238911 
5.68838801244344 1.58156123626408 1.25195586053459 
5.38747724242247 1.57723507878777 1.37881179627541 
3.22616631904818 2.08683347470027 1.97287308310834 
3.48098624404048 2.34632802017204 1.37992609014721 
3.33406452206871 1.26949892199486 2.65709414858586 
3.09789903987137 1.50642326854837 3.0334770684095 
1.07533653806043 3.55539278216468 3.02505643026825 
3.08474191529673 1.35375980810501 3.307027928376 
4.93952198086712 4.56124164316421 3.36450254358918 
0.676115621561241 3.32335389109597 2.62749044945011 
0.9075281885508 3.58304226939286 2.30275326192377 
1.36937039326947 3.31620520536553 3.24284044815664 
1.28217340221377 2.9500706796709 3.17679207204034 
4.06453242344151 0.806417792238687 3.41124403157708 
4.16677055667292 0.597619649789675 3.62135108329142 
3.74792407777086 4.76093382932725 0.328514896118096 
1.73022002067646 3.10978301244112 0.224913141144387 
1.51749792113689 3.16075616160247 0.227262307563933 
0.587755627902561 4.00855599382497 1.68089641661519 
4.181023487138 4.84003565601092 0.158590520425307 
4.99470054175647 4.80519605258201 2.5227892549039 
5.18664539518411 4.7087476271768 2.72238033892229 
1.02034144817201 4.01353574102836 4.05557280480285 
0.900788316523971 3.22620049004215 1.79452372915824 
0.660713508932974 3.64633306015348 1.50037232255058 
2.69522181824546 0.719725107432334 5.05243814106523 
2.71730197305939 0.847241360579642 5.12705831716751 
1.61917089795232 2.39671203633568 5.04588520473979 
1.74087087334726 2.65322484524723 5.07175058009732 
4.33301001299303 4.99945689879655 3.45674964124429 
4.33983080001353 4.83114617555526 3.23711797951501 
1.86838997741303 2.97336940484392 4.10520221563576 
1.89531678533309 3.13533447934367 5.84601535165879 
3.39859824906032 2.48930630145364 4.14027909195702 
3.2113561307463 2.55973521502885 4.21107301621494 
1.81678347705783 2.06522233180551 3.40926682977823 
1.62759069846776 2.41979652875127 3.90097265140575 
4.96401614142494 4.8868400865111 2.6034714776548 
5.15517232283025 4.78184487892019 2.78825763955515 
2.90232208207301 4.27775709826968 2.66108630472825 
2.79608942167715 4.53234397948837 2.75067472239099 
5.70443886375916 1.80660230807606 1.35419090527511 
5.40396564322042 1.77648471725992 1.46712457627065 
2.48065145930184 5.31818627016428 0.406948092354771 
3.4808718024967 1.38280123476322 3.811874599 
3.56151355940297 1.0106670986373 3.67143992801518 
1.75787537273742 2.2126487786761 2.94447633400912 
3.22658897668645 0.158646671781483 4.9963938832397 
3.56402331964527 0.16707156074915 5.19761203471586 
1.9927015970928 5.54899697265042 4.17035402658964 
1.97513346050104 3.4078863221596 2.24067929061847 
2.87287169367361 0.436451878295674 5.240585423471 
1.25670533464104 2.04076877133461 4.23414146730201 
1.11740501450512 1.67753216587747 3.17947978850995 
1.0926503312025 4.52098662860401 1.99940540815451 
0.595603903235249 5.38848607523228 1.09439578825624 
0.916902349680753 2.33309271717889 1.14561043733962 
3.55665956810194 1.58390840046336 5.62881189579852 
2.07870617045854 3.53004411706752 0.471321336809762 
1.18603895388548 0.240057035774529 4.18738013137315 
1.67969220188024 3.4695963066594 3.5269856078356 
2.09740431188462 3.20578936839897 3.88589687752426 
1.69107563620786 4.66589877470561 3.30803799249545 
1.96041171152828 3.87642465574659 1.90297496917974 
1.80735477355581 3.53017123144768 2.11929937724254 
1.00849935398809 4.87690514809561 2.09348438339068 
0.820891229572881 4.92497126262393 2.52169896118933 
3.99200642148949 1.15528038745242 4.71754864646671 
4.03688981159474 0.987557680083096 4.67347228158073 
0.84332081264131 5.65488314880227 1.54440286802824 
0.83404153716958 5.68118772033562 1.28130022363075 
1.45085757807066 1.68519211340503 3.5310894383382 
1.25445684436839 2.09222598212703 4.10844567301817 
3.92935729107681 1.44303726275554 5.59956193882419 
3.69873692821018 1.63349790024339 5.69028570859865 
2.47743298116643 3.43038758210128 0.79675966925392 
2.29210721702627 3.40316705190017 0.831945283271926 
3.50342668111429 0.831746737306171 4.08594568729898 
3.42767515611531 1.16144431136233 4.21416984574601 
1.50364443441428 4.55996835455273 3.93040890491207 
0.779711184761863 4.6463801584291 2.65283302246438 
0.989001823228021 4.3036654212524 2.28706353438645 
0.918084102964779 3.56687791814042 0.923788777848093 
2.96925042336218 3.17668478528214 1.27539146312616 
2.9653751840367 3.3046457031569 1.10609027273163 
3.32666684016459 1.30470034543505 0.596190896473112 
3.4760232237107 4.20194235673525 2.59976551220648 
3.86263236460107 4.46862610368793 2.76695823443074 
3.75069701202678 3.22752130175337 4.61146274676899 
3.4802611190182 3.24767719685175 4.93153936155764 
1.99777406042527 1.05372556143395 0.770171013327956 
1.44096932675299 5.88660716144106 3.70936494375374 
1.3285185148067 5.83099819605967 4.00805008080911 
1.05409592788119 0.639900022665644 5.90662707311383 
4.99024845651664 4.60301307364835 3.48104790449746 
1.65635180940811 0.646174342963077 5.76457744643057 
1.5041079533979 1.48926439406723 3.55995585682773 
3.63597193818316 3.91848176092391 2.76231717819895 
3.95571151299592 4.12054922605677 2.89392667056328 
1.50051902697572 5.13586766004693 4.45193394289829 
1.73791665317932 4.90810912960321 4.33620890967501 
1.41486532550149 5.09382105106309 4.92321597355506 
3.75310401412428 1.17482758068742 5.36984356791471 
3.58366498849464 1.22878329921446 5.37571021528731 
0.775934644670184 2.00246948647371 1.74734424729771 
0.664383283360161 2.35521544723464 1.53268521301387 
0.406522450777206 5.02661430014556 1.4379062669466 
0.563854827810237 5.1851931007269 1.74023585833079 
2.48503845523368 3.91076604812478 2.00066062114262 
2.45924086898388 3.57868521917534 2.19564946286222 
2.25479760394042 4.24684236195153 0.0718524196045193 
2.24742471610423 5.57995922132478 3.21628337168223 
5.07912723954511 0.594578663390793 2.65976048791247 
2.24778637653778 1.52100246473854 1.14122666350157 
2.22041965419662 1.11022102860333 1.07371487111882 
2.70860258665155 2.03069108703493 0.800027921574116 
2.55102313524245 2.18223776331921 0.536435479330779 
3.56682581555622 3.15942727407238 4.33842545699157 
0.985830237143131 3.60683715355464 3.7697246231167 
0.926861825720878 3.25492037539953 4.06332919713797 
1.72134375794009 3.96986700251217 0.621207860036993 
1.87567600611992 4.44333591232286 0.326219318951878 
3.58739948114015 2.23286764546231 1.23639906319467 
3.72716071414142 1.55103028646077 1.30783464491447 
1.95080196147259 5.71646429250088 3.65763340355969 
1.18679278305281 3.25132280054402 1.4511844117382 
0.97580182171556 3.633892279582 1.193909622072 
1.35394972791622 1.78578394566262 2.46794347036902 
1.39303875348216 2.01781314940762 2.73963373301303 
1.98215234225296 1.71940436789486 0.807869954047317 
1.84013951111879 1.46795483542655 0.618739857902452 
1.89661072300664 4.59941142720407 1.06996008504903 
3.08931038126647 0.620556821904169 5.5852512973873 
3.5245882366041 0.470211737791082 5.55330180088632 
4.86970379203672 5.0102570760819 4.3680082428887 
4.62771425538507 4.76479466831786 4.04833043076066 
1.37894417612741 3.36164737310283 3.54841510038898 
1.30767899933986 3.07129233379943 3.81403041107847 
2.29409743803597 3.49300801857968 5.84845271473135 
2.34780731581858 3.66414182629415 0.18400369132609 
0.240580993990255 1.19513409565697 3.43352182773191 
0.0799798558976138 0.774485900574436 3.32194749051329 
1.90858305147066 5.34252017681474 2.66568045604068 
1.93757084259038 4.71026529385109 0.52345158696238 
2.46737018891267 4.8885156606388 0.556125351960642 
2.11541166475224 3.89207452787296 5.47062393658592 
2.13501173752808 4.28910951745153 5.65921235312649 
4.76417576442869 4.87273093820325 3.7023852605901 
3.26553199328979 1.40167934722399 0.777939821986131 
3.10632853599485 1.89374992158734 0.662598177462212 
0.571490787803745 0.9709741096896 3.76485488922952 
3.43249524453506 5.05506039110808 4.74822483886715 
1.18544768146859 0.405195297352193 3.3262201234681 
1.03017566168758 0.664729285191954 3.67026872098686 
1.4911952959843 0.95023034714683 2.87762463168731 
2.33373627079966 1.85607889067553 1.70802707771462 
4.09622588213202 3.93771734707711 4.27423864378353 
4.40626429469874 3.91434851985944 4.28620916157592 
3.00608229270256 4.37053412442083 0.770043138846664 
0.453133463662511 1.25559994660792 2.44947625451341 
0.440399477421687 1.74305369882893 2.14652135598035 
4.11192591751002 3.84121211377754 4.49816752083531 
4.33955146318716 3.8146567696105 4.51414070525255 
0.283699006830019 1.24319816949589 2.58432175917672 
2.22915652134073 2.75256541414018 1.78841069198572 
2.47466202328828 2.18733425242781 1.76088981476327 
0.763859130752661 5.33191197255983 3.67410373947907 
3.02038102717593 5.68634656192806 4.95263526855975 
3.23144551301495 5.45899393375494 5.13043584079123 
1.33887286850774 1.09295568852113 2.58595746692119 
1.1199147074959 1.39752393598505 2.67827065588299 
4.52949767976868 1.8685736075366 5.24682617631025 
4.67699666680349 1.81304163080199 4.99447213623093 
4.78385140263028 1.80996774570164 5.06996088778167 
4.6482246578746 1.86391893314178 5.3073498389743 
1.39964008406902 3.28416207615239 4.76362685483404 
1.3090231143233 0.441897381185111 3.92307381358124 
1.45705816263406 0.203570283087662 3.64157461944074 
3.08241001568906 3.36333003554202 4.30289132356643 
2.98858878080341 3.35911357326369 4.71050833930546 
3.26301777671118 3.12982827841255 4.40058602919727 
3.16961915656392 3.16620965043251 4.72256956334656 
1.0674839746819 1.4845145681983 3.12628191442488 
1.26011208276072 1.2772609377709 3.30784383915435 
5.32362619659092 2.81061792620409 2.678066778374 
5.54433064044225 2.7976528518585 2.33523232278095 
0.986912139152168 5.06131532559338 4.22098657462151 
0.849198053761445 5.41650254932443 3.99243536269998 
2.97847344378245 0.576133033274556 3.36128389110139 
2.44197313535619 1.82332609610086 1.9077542803489 
1.01526736926192 0.742581153176415 2.39684709112524 
1.48747916287889 3.68523272925721 4.89979837362934 
0.436448468275437 1.07129537640186 2.38425250925832 
0.401635375627794 0.938045704525357 1.83616693874222 
3.55362521391651 4.38351679915019 0.417706465373182 
3.47801716011856 4.39643556219517 0.727470671825064 
3.03453162719078 2.52414648281053 5.31984999411561 
2.64346803569807 2.90221539529399 1.25344123364334 
2.80950038199396 2.40777099049523 1.27866155300949 
3.30038405841411 0.928546194427843 3.33986575694672 
3.54217236046269 0.789869710396834 2.9336440127688 
2.8795739592165 4.33173778930195 0.314259347944338 
5.10788933652314 2.52642318029962 2.21388346273351 
5.03519597866903 2.62765200935439 2.60314527743788 
2.89870859034225 2.72822508412158 4.94227888664773 
2.91839370357445 2.39926778638474 4.69974172173288 
2.41606613049001 4.80948254014782 1.2149570889116 
2.60780353805054 4.91932787836645 0.960186996275223 
2.81072660462187 4.75462741057493 1.0540179248419 
2.63118862158965 4.64921361076643 1.30134188937781 
1.54062367268333 4.92179547015881 4.97197492840881 
1.41990726126623 0.891029631432305 1.78121948363696 
0.975731196914534 0.974697772457263 1.44070857422252 
2.28209202723179 0.553288744567495 1.79541032755404 
1.9193081858768 0.824978278212081 1.62918943096406 
1.05582923754768 0.635835260231583 2.09784827877173 
0.686252531988597 0.73098376613981 1.74762836167263 
1.73480721816206 0.701813946699201 1.58681485151011 
2.9364665459779 4.78754765952995 5.47234607748902 
2.94746966721953 5.21973052823448 5.47251123338631 
4.15641532686544 1.35379096949404 1.0458681321314 
0.56465347578201 1.29091667022179 5.32115248276941 
0.557098444008023 1.01413177989908 5.62953870641185 
1.80060740114468 4.79289667828562 4.4785202702841 
2.13244893269734 4.83011294690994 4.54212138845434 
0.39898710710889 4.56790099352727 4.63662706123248 
0.561248503894213 3.94667077928372 4.66079800291354 
0.405895906476824 4.30016158823141 4.41503050320769 
2.15429094849366 1.11116850566172 2.44465046957906 
1.76592568514223 1.26838567828492 2.2149579959075 
1.78304471621571 1.48307534035218 2.18460905786378 
5.81418610919139 1.62986852026316 4.12697688886302 
5.79287164880734 2.05984230539644 4.26584718765767 
1.0239545470769 4.65613858589119 3.88843733244085 
3.94550533154115 0.75182490917581 0.55336617183754 
3.82320352367855 1.21021196004233 0.570874082283475 
0.58952210882209 4.27008469766841 3.54682777810431 
0.786241065729867 4.30569853159803 3.95914875237668 
0.0690281165320407 1.62181110865784 4.0229893250198 
0.201170703476118 1.96858965809786 4.09347013919373 
0.629013366346445 4.09712478626527 5.04488317122149 
0.541310198332081 4.39865743752305 5.06483015060988 
2.17353600064996 5.6848358966485 2.72687066085324 
2.60892768916434 5.7894662286378 2.39489978922298 
0.186536302891355 3.49957186934384 4.69371219677145 
0.268959859703838 3.27064059957318 4.5923214307452 
0.479535322685103 2.00945866975335 3.38176095655546 
0.458576347641029 2.44149211019345 3.16031074121745 
1.01645898275518 2.82226006714702 5.12150063012826 
0.878555691112214 3.00688524860773 5.55638576664483 
1.34912231237449 3.02152800222825 5.10165326080422 
0.449210320622915 2.18962974495103 3.77948725459669 
0.410046412216119 2.5677491808122 3.6225392350829 
1.39985348760211 2.86030078995576 0.392634932332186 
1.12588575176306 2.87866857168368 0.75108828715702 
0.868095462876677 2.70472088029343 0.643314225462881 
0.982284435824472 2.58161912321716 0.256979086095748 
1.5511065388956 2.08641176003245 1.22586812048352 
1.06512409714068 1.81607383076562 1.53138781990748 
1.15538503057315 1.97316320594279 1.21261754442635 
3.31717864269107 1.98695307066775 4.94052591171899 
3.38533210598093 2.04727232135651 5.25512015167858 
3.03116881210518 2.12058786141588 4.95658769177865 
3.06451335309625 2.19995922825362 5.24004940392736 
1.74423825897562 1.50691979592482 1.94853316028697 
2.02448062857117 1.7524495768967 1.63819203868994 
1.44034989189794 1.86080672934127 1.80268997506824 
1.69378018026752 2.03478761748357 1.59742059511722 
4.26128833674912 4.25350621438225 5.27450072182601 
3.51046891237512 0.161061535384742 1.27496946294666 
3.72934575277972 4.42256554506411 5.11769185109671 
3.88028412070067 4.16259110851098 5.09280121249313 
2.4813345847497 5.51843679132394 4.47689607952565 
2.27435310552377 5.09224761188965 4.30462910029769 
2.70967318677649 4.8893667801295 4.10137235442286 
2.94301512854675 5.55228442144829 4.39000826737636 
3.09060901174486 5.29716567754498 4.28558508663653 
2.55694215715939 5.42600383228345 5.32999781227974 
2.21868636738199 4.94094814003879 5.15813895060865 
1.89786180196193 4.9762103009269 5.32827149464852 
3.61140986247928 1.32717098356055 1.64985125705851 
3.35869243955098 1.51464035883705 2.03023939925166 
1.48769931001553 3.7144585091019 5.28721544299836 
3.03755418318389 1.30203864754989 1.98411059315958 
3.16420261170858 1.06146691721956 1.64253798900741 
1.03654162757921 3.72213250376552 5.66932577407988 
1.2378232575279 3.96240663687653 5.39367645597876 
1.23867556989268 3.31515067483681 5.64162683700179 
1.41109991272626 3.31304456241277 5.48562633052097 
3.2250863492916 0.457602847730689 2.39924207915238 
2.98029325332388 0.258364854136873 2.55480200109712 
3.20245266398878 0.30596381295159 2.93930979165549 
3.47068567913151 0.513011137228161 2.8056286723128 
2.5220714319336 1.55577986458221 2.9997177171714 
2.33410038245374 1.34807154997576 2.46658217145881 
2.16668401536413 1.61898395830385 2.32181207085883 
2.54987689210682 1.98838611882237 5.66665381065865 
2.43125565048469 2.2542122143335 5.83749123475034 
5.77447666932171 0.81071619690279 0.533301707401294 
5.74720609480938 0.647937849814736 0.581160604968483 
5.87585759362988 0.651363791241676 0.704974112000639 
5.91271688701913 0.831284119131574 0.65613844690704 
2.0770654578921 4.66207403136622 3.01324106873658 
2.74916176358687 4.842570874588 3.37167283661536 
2.55768889387638 4.5246312016639 3.0967294674263 
2.15516576101511 5.10308458821016 3.40928178036884 
1.95496458892889 4.9202585845854 3.19939417762328 
2.07369043666376 5.37352463695032 3.31287268286097 
1.86345630802176 5.20461740485303 3.08831472372896 
4.58262609005951 0.732777328871091 1.10896016001997 
4.58202744942489 0.880200520642284 1.20760888699576 
4.86389881380749 4.94183277278329 4.86506650804721 
4.35000444671213 0.750385068777136 1.11175889208969 
4.37409073160601 0.897687727586199 1.21194421582607 
4.15063660561771 4.63263372561591 5.35163290167558 
4.29392964108958 4.9013080109554 5.24213744722875 
0.973202183072304 4.55151505308632 3.03480132220036 
1.15917738971774 4.78658936585792 3.22617306370305 
0.665170267478756 4.50983562433983 3.3903175745572 
0.90514854476981 4.77157679687516 3.5441118033234 
1.05282072644868 3.82976481563399 0.797379630511238 
1.32768840085718 3.82308870784605 0.515666484943991 
1.10611407794161 4.03402736090758 0.235925252096989 
0.810561979670042 4.07146798331586 0.450800951309159 
1.72869226333044 4.92662398943819 0.349458121118708 
1.85881087795882 5.25497463822258 0.23933896297884 
1.38881105196465 5.19656702510588 0.505911599537351 
1.56599500641801 5.47028406980781 0.384772804284713 
2.93263714862172 3.05013382455002 0.232900561683957 
2.93262261432682 2.77870162793495 0.125685303504014 
3.24984336367191 3.06025092177366 0.21369523948003 
3.26558822857033 2.8109876035146 0.111594032717155 
3.68892344087985 0.291772397365574 1.91672834600821 
3.68634152394363 0.453635716145326 1.70018073613693 
3.6984058953373 0.203045336044808 1.48433428150372 
1.69762863426541 0.844805229882122 4.24358644812148 
1.57088595308203 0.759881841715439 4.69305413560471 
1.44849807809207 1.16784525544705 4.77164865549474 
2.30685899606366 1.21499246636625 3.31382353159062 
2.43463141646272 0.724628406854806 3.33796019072796 
2.03453178770786 0.943037615686795 2.84976898331413 
2.16300022897557 0.610314422967816 2.90345013930346 
1.40983592747348 1.30822584123736 3.98888061241335 
1.31698182895515 1.49992425023809 4.26583978025546 
1.55600568765385 1.3705007210616 4.43260369365272 
1.66270826784805 1.18117903892037 4.18982558568659 
0.389376466661247 0.437382569773459 4.19906459613772 
0.563165183599098 0.705184307561758 3.76060346781166 
0.278945808540816 0.529119046938347 3.48492945842964 
4.86668868354981 0.970262550624126 4.27971549275269 
5.30526359548294 0.92208264176662 4.24242251824991 
4.8952436378677 1.16086185543822 3.98461523464859 
5.26788622923905 1.15227197873646 3.91788385987476 
2.32281887504867 2.27507225631297 2.95127489044835 
2.21655364085674 2.28396795663877 2.83654034636736 
2.25229481117319 2.15508921133942 2.97723028863272 
2.16492760393953 2.18343681366918 2.86753197934971 
3.85790858834594 3.67032349127163 3.69874172409856 
3.7153118243031 3.82357436746542 3.56114689610702 
3.77429742499825 3.73909840164003 3.89790934268835 
3.60042436765527 3.91415813124341 3.80007196708586 
1.38607806922056 3.85901644702805 2.73303206343937 
1.36434071242965 3.8574949455457 2.51117383811448 
1.38492399385746 4.09509766312264 2.72526130064503 
1.36211477063299 4.07040716059888 2.49362520639841 
POLYGONS 902 5521
5 0 3 6 258 456 
6 0 2 443 489 5 3 
4 0 2 344 456 
5 1 7 494 9 8 
4 6 7 1 258 
6 8 1 258 456 344 309 
6 308 309 344 2 443 429 
6 4 308 429 527 590 589 
5 5 260 590 527 489 
5 4 9 494 299 589 
4 260 299 589 590 
7 5 3 6 7 494 299 260 
5 9 8 309 308 4 
5 12 10 350 753 746 
5 10 11 262 376 350 
5 350 376 509 754 753 
5 349 718 747 13 809 
5 262 265 826 509 376 
5 14 11 262 265 398 
6 760 761 19 791 762 18 
5 16 18 762 777 798 
5 604 771 767 778 790 
6 15 17 771 604 748 749 
7 15 17 800 798 16 587 569 
4 15 569 956 749 
5 777 778 767 800 798 
6 604 748 758 19 791 790 
4 16 18 760 587 
4 19 758 955 761 
4 767 771 17 800 
6 391 392 22 540 541 20 
6 881 882 21 911 913 23 
4 540 541 21 911 
6 22 540 911 913 915 719 
5 23 657 732 915 913 
5 20 541 21 882 884 
5 27 268 24 469 335 
6 24 26 452 451 471 469 
5 25 26 24 268 401 
6 35 667 784 761 955 954 
6 28 29 33 954 955 758 
6 28 351 951 950 19 758 
4 29 30 34 33 
5 28 29 30 352 351 
4 35 32 31 667 
7 32 31 944 945 352 30 34 
5 31 667 784 943 944 
6 19 761 784 943 953 950 
5 35 32 34 33 954 
5 37 351 951 660 414 
5 37 351 28 846 847 
6 679 680 453 859 854 661 
4 704 791 19 950 
5 604 605 854 661 790 
5 37 414 453 859 847 
4 604 605 36 748 
5 36 748 758 28 846 
6 36 605 854 859 847 846 
5 643 654 736 661 679 
5 40 643 654 964 963 
5 39 38 40 963 901 
6 38 40 643 679 704 498 
4 39 38 498 946 
5 762 777 837 836 948 
6 39 901 902 836 948 946 
6 498 704 791 762 948 946 
5 777 778 735 838 837 
5 30 34 41 830 829 
4 44 42 404 316 
5 44 43 45 317 316 
6 48 345 537 743 755 702 
5 46 370 537 743 742 
5 47 345 537 370 570 
5 50 49 319 627 623 
4 51 54 53 285 
6 53 52 713 712 55 285 
4 55 712 606 768 
6 56 61 62 772 805 691 
6 60 284 611 806 805 691 
5 63 58 269 465 610 
5 610 611 806 773 63 
5 57 59 466 449 290 
5 56 61 450 449 290 
5 62 58 63 773 772 
5 60 57 290 56 691 
4 60 57 59 284 
5 62 58 269 450 61 
6 59 284 611 610 465 466 
5 449 450 269 465 466 
6 69 71 68 48 345 499 
5 65 70 68 71 67 
6 67 65 64 4 308 66 
6 47 345 499 429 527 528 
5 66 69 499 429 308 
4 67 66 69 71 
5 366 367 420 421 72 
6 77 78 75 728 929 928 
4 575 729 751 932 
5 728 729 751 739 75 
6 73 77 928 931 522 310 
4 73 76 78 77 
6 74 76 73 310 417 418 
6 475 575 729 728 929 930 
6 428 433 475 575 932 934 
6 74 418 934 932 751 739 
5 78 75 739 74 76 
6 382 433 475 930 931 522 
5 381 382 522 310 417 
5 417 418 934 428 381 
5 79 82 662 673 80 
5 79 81 74 76 82 
5 80 79 81 304 85 
5 73 76 82 662 83 
5 81 74 418 363 304 
5 84 310 417 663 714 
5 417 418 363 678 663 
6 83 84 714 715 673 662 
5 80 85 677 715 673 
4 83 84 310 73 
5 85 304 363 678 677 
5 86 40 38 458 393 
5 86 40 643 644 327 
5 89 327 86 393 394 
6 89 88 660 680 644 327 
5 87 88 89 394 315 
6 87 315 459 523 953 952 
5 458 459 523 498 38 
5 498 523 953 950 704 
5 87 88 660 951 952 
6 94 92 90 918 917 448 
5 90 595 93 921 918 
5 92 90 595 512 91 
6 920 921 93 941 942 318 
6 289 512 595 93 941 940 
4 3 6 95 780 
6 95 675 710 681 779 780 
6 6 95 675 434 259 258 
5 96 711 665 869 868 
5 96 434 675 710 711 
4 281 682 665 869 
5 0 3 780 779 280 
5 280 281 682 681 779 
5 96 434 259 457 868 
7 280 281 869 868 457 456 0 
4 430 775 883 880 
5 98 97 557 521 297 
6 99 97 557 633 659 655 
5 100 101 803 802 105 
5 104 100 101 102 692 
5 102 101 803 766 103 
5 103 683 13 809 766 
5 102 103 683 564 692 
5 104 692 564 936 938 
6 106 265 826 827 776 759 
6 395 438 503 878 922 923 
5 106 265 398 878 503 
4 106 503 438 759 
4 107 819 825 822 
6 777 798 823 819 107 837 
5 18 354 949 948 762 
6 821 822 107 837 836 302 
5 302 303 949 948 836 
5 81 74 739 814 109 
5 492 493 651 752 815 
5 108 109 81 304 305 
6 108 109 814 815 492 276 
6 275 276 108 305 364 110 
6 363 364 110 935 934 418 
6 110 275 493 651 933 935 
6 294 355 500 447 112 877 
4 111 112 447 446 
6 115 114 792 793 468 467 
5 114 65 64 596 792 
5 114 65 70 113 115 
4 121 117 406 407 
5 117 116 118 120 406 
7 121 117 116 280 779 782 516 
5 121 407 403 515 516 
6 2 119 118 116 280 0 
4 2 119 384 443 
6 403 478 489 5 497 515 
5 5 3 780 781 497 
5 118 120 477 384 119 
6 406 407 403 478 477 120 
4 137 132 123 490 
5 123 126 127 124 490 
6 132 123 126 508 397 131 
5 127 124 136 337 336 
7 136 124 490 137 134 133 135 
5 125 135 136 337 129 
5 125 130 256 133 135 
6 129 125 130 122 573 574 
5 126 127 336 507 508 
5 131 128 122 573 397 
5 336 337 129 574 507 
6 131 128 257 134 137 132 
5 122 130 256 257 128 
4 133 134 257 256 
5 138 735 838 872 874 
7 819 820 588 866 874 872 107 
4 107 837 838 872 
6 55 138 735 778 767 768 
5 55 138 874 866 712 
5 588 607 801 824 820 
6 139 140 736 661 854 855 
4 55 138 286 285 
5 138 286 140 736 735 
5 51 139 140 286 285 
5 577 578 141 957 959 
6 144 141 578 622 143 676 
4 144 141 957 435 
6 6 95 435 957 959 7 
5 142 1 258 259 145 
6 1 7 959 577 530 142 
6 145 142 530 621 653 652 
6 675 676 143 685 686 434 
5 95 435 144 676 675 
5 621 622 143 685 653 
5 577 578 622 621 530 
5 145 259 434 686 652 
4 46 742 146 919 
5 81 109 340 525 79 
6 340 402 851 850 750 525 
5 80 79 525 750 462 
4 148 147 532 581 
6 149 148 581 582 805 772 
6 385 721 737 533 724 723 
5 532 533 737 865 147 
5 148 147 865 875 149 
5 721 737 865 875 873 
4 385 721 873 763 
5 385 723 806 773 763 
6 772 773 763 873 875 149 
5 688 689 972 971 924 
7 150 614 969 971 924 926 844 
5 151 618 970 972 689 
5 633 634 455 740 659 
5 153 506 580 152 703 
4 22 26 452 392 
5 24 26 22 540 550 
5 263 343 451 471 440 
4 20 338 342 391 
6 338 339 637 263 343 342 
6 154 300 541 540 550 551 
5 470 505 638 154 551 
5 154 300 339 637 638 
6 342 343 451 452 392 391 
5 469 470 551 550 24 
5 338 339 300 541 20 
5 158 159 416 535 321 
5 415 416 535 602 380 
5 142 158 321 156 530 
5 155 621 653 807 808 
6 155 513 602 380 612 808 
5 155 513 156 530 621 
5 156 321 535 602 513 
6 145 142 158 159 157 160 
5 161 615 807 653 652 
6 160 157 484 613 615 161 
4 160 161 652 145 
5 157 159 416 415 484 
5 162 254 555 344 309 
4 66 162 309 308 
5 66 69 965 254 162 
6 2 119 696 725 555 344 
5 696 725 967 764 769 
5 119 384 770 769 696 
6 69 499 765 764 967 965 
5 254 555 725 967 965 
5 56 164 102 692 691 
5 164 102 103 272 399 
5 165 163 671 672 422 
5 61 62 332 658 717 
6 271 272 399 716 671 163 
6 56 164 399 716 717 61 
5 62 332 423 149 772 
6 165 163 271 684 581 148 
5 271 272 103 683 684 
5 149 148 165 422 423 
5 167 353 782 779 681 
6 170 169 166 314 250 405 
6 144 170 405 404 316 435 
5 166 314 167 681 710 
5 169 166 710 675 676 
5 168 250 314 167 353 
6 42 168 353 782 781 44 
5 42 168 250 405 404 
6 44 316 435 95 780 781 
4 170 169 676 144 
5 171 173 598 174 172 
4 174 565 856 598 
6 277 278 331 603 536 306 
6 175 416 535 536 306 463 
5 380 415 465 610 889 
5 415 416 175 466 465 
4 175 463 59 466 
6 602 603 331 888 889 380 
4 278 331 888 731 
4 284 400 730 611 
6 59 284 400 277 306 463 
5 311 312 177 328 255 
6 254 255 328 441 641 555 
4 176 178 786 511 
6 177 328 441 454 379 412 
6 176 178 968 966 251 375 
6 374 375 176 511 510 413 
5 177 312 374 413 412 
6 178 786 788 725 967 968 
6 254 255 311 251 966 965 
5 311 312 374 375 251 
6 71 68 616 638 154 323 
4 68 48 702 616 
6 460 504 764 765 537 743 
5 339 460 743 755 637 
5 69 71 323 966 965 
5 301 504 764 967 968 
5 637 638 616 702 755 
5 300 301 504 460 339 
6 300 301 968 966 323 154 
6 146 396 461 460 743 742 
5 180 179 870 871 904 
5 179 295 96 868 870 
5 180 179 295 634 579 
5 96 295 634 455 711 
5 548 549 774 927 925 
5 670 914 916 548 925 
5 699 700 795 774 549 
6 670 687 708 23 913 914 
5 356 700 795 794 707 
5 707 708 687 841 794 
5 23 657 356 707 708 
6 548 549 699 732 915 916 
5 92 91 720 599 181 
5 92 181 182 183 94 
6 187 14 11 787 789 697 
4 538 539 187 697 
6 360 538 697 789 812 804 
5 184 185 561 804 812 
5 185 12 10 186 184 
5 184 186 787 789 812 
4 10 11 787 186 
5 169 166 741 656 292 
5 365 442 907 906 568 
5 612 613 901 902 502 
5 302 303 898 897 409 
6 409 502 612 808 900 897 
6 303 898 899 796 947 949 
4 613 615 39 901 
5 302 409 502 902 836 
6 39 615 807 796 947 946 
6 86 40 963 961 412 379 
6 188 298 413 510 669 668 
6 408 620 357 644 643 654 
6 86 327 639 669 510 379 
5 327 639 745 357 644 
6 188 298 419 408 620 619 
4 188 619 744 668 
5 619 620 357 745 744 
5 4 64 596 189 9 
6 189 190 346 495 494 9 
5 494 495 839 840 299 
5 191 474 828 843 558 
6 191 474 488 594 593 485 
5 282 544 192 630 571 
5 387 388 193 783 799 
5 192 313 727 726 630 
5 192 313 783 799 544 
5 194 282 544 799 387 
6 368 571 630 726 744 668 
5 194 369 283 388 387 
5 283 388 193 639 669 
6 193 639 745 727 313 783 
5 194 282 571 368 369 
6 195 182 183 908 909 279 
4 326 519 588 820 
4 197 352 30 829 
6 196 43 45 839 840 261 
6 197 171 172 37 351 352 
5 87 88 635 273 199 
6 174 414 660 88 635 598 
5 200 199 87 952 945 
5 197 329 200 945 352 
4 174 172 37 414 
5 198 173 598 635 273 
5 198 173 171 197 329 
5 200 199 273 198 329 
5 157 159 479 255 328 
5 158 159 479 480 201 
5 158 201 8 1 142 
5 8 201 480 162 309 
5 254 255 479 480 162 
6 145 160 441 641 457 259 
4 160 157 328 441 
5 18 354 425 785 760 
5 462 501 548 916 750 
5 264 411 583 584 567 
6 192 313 566 853 852 834 
5 567 584 852 834 848 
5 544 545 848 834 192 
6 264 567 848 545 894 893 
5 44 43 196 497 781 
4 485 486 202 593 
5 120 203 204 205 477 
5 118 120 203 539 538 
5 119 118 538 697 696 
6 203 204 876 879 187 539 
4 204 205 371 876 
5 769 770 371 876 879 
5 205 371 770 384 477 
5 696 697 187 879 769 
6 210 122 128 436 444 207 
4 206 131 128 436 
4 207 208 212 444 
5 210 207 208 209 211 
5 206 131 397 543 542 
6 329 330 288 830 829 197 
5 324 359 600 552 389 
4 395 396 461 438 
5 292 293 99 655 656 
6 20 338 461 438 759 884 
5 481 698 722 822 825 
5 111 446 722 822 821 
6 501 548 925 924 688 674 
5 116 118 538 360 347 
5 206 100 105 531 542 
5 104 100 206 436 437 
6 104 437 445 213 939 938 
5 212 348 213 445 444 
5 311 312 450 449 214 
6 312 374 592 717 61 450 
5 290 291 333 214 449 
5 517 518 215 694 647 
6 215 216 291 333 705 694 
5 251 311 214 333 705 
6 251 375 591 647 694 705 
6 591 592 717 716 517 647 
5 164 216 215 518 399 
5 56 164 216 291 290 
5 220 114 792 811 483 
5 217 220 483 482 334 
6 439 464 482 483 811 810 
5 133 256 464 482 334 
5 218 130 256 464 439 
5 220 114 115 219 217 
5 135 133 334 217 219 
6 218 373 468 793 810 439 
6 219 115 467 372 125 135 
5 125 130 218 373 372 
5 326 481 825 819 820 
6 221 267 470 505 645 628 
5 136 221 267 266 124 
5 63 610 889 891 797 
6 63 58 962 964 903 797 
5 502 612 380 889 891 
5 269 270 961 962 58 
6 270 484 613 901 963 961 
5 269 270 484 415 465 
5 333 334 482 383 214 
6 217 220 67 71 323 706 
6 66 162 480 483 220 67 
5 214 311 255 479 383 
5 333 334 217 706 705 
6 641 642 813 870 868 457 
6 281 347 360 804 871 869 
4 280 281 347 116 
5 150 614 619 744 726 
5 188 222 969 614 619 
5 150 726 630 845 844 
5 222 514 529 971 969 
5 188 222 514 368 668 
5 529 670 925 924 971 
6 861 862 690 928 929 625 
6 427 532 581 684 666 624 
4 624 625 861 427 
5 733 734 690 862 223 
4 77 734 690 928 
5 75 271 684 666 728 
6 223 147 532 427 861 862 
4 78 75 271 163 
6 163 78 77 734 733 165 
5 165 148 147 223 733 
5 624 625 929 728 666 
5 260 261 196 497 5 
6 24 268 341 224 648 550 
5 224 526 910 912 648 
5 540 550 648 912 911 
6 525 526 910 914 916 750 
5 340 341 224 526 525 
4 401 402 851 25 
6 25 26 22 719 850 851 
5 223 147 865 867 664 
6 52 631 733 223 664 713 
4 225 53 52 631 
6 138 286 423 149 875 874 
5 165 422 225 631 733 
6 225 53 285 286 423 422 
5 395 396 146 919 923 
6 94 183 908 907 442 448 
5 775 776 827 885 430 
5 640 746 753 890 896 
6 476 576 754 753 890 894 
4 136 135 219 221 
6 113 115 219 221 628 629 
7 370 371 876 922 923 919 46 
6 503 504 764 769 879 878 
4 346 495 960 560 
6 45 317 958 960 495 839 
5 112 410 941 942 877 
6 111 112 410 409 302 821 
5 409 410 941 940 897 
7 51 139 620 619 614 617 54 
6 357 358 860 855 139 620 
5 357 358 226 727 745 
5 266 335 27 547 491 
4 124 266 491 490 
4 294 318 942 877 
6 123 227 546 547 491 490 
5 123 126 49 50 227 
5 192 630 845 835 834 
4 313 566 226 727 
5 227 546 816 766 803 
5 227 50 623 802 803 
6 349 752 815 816 766 809 
7 11 262 431 361 178 786 787 
4 178 361 301 968 
6 301 361 431 106 503 504 
4 262 265 106 431 
5 187 14 398 878 879 
5 32 229 228 41 34 
7 105 531 553 556 627 623 802 
6 60 57 257 128 436 437 
6 57 59 463 464 256 257 
5 230 277 306 307 378 
6 230 207 444 445 400 277 
5 231 210 207 230 378 
5 231 210 122 130 218 
5 231 218 439 307 378 
5 60 284 400 445 437 
5 215 491 547 232 518 
6 266 267 695 694 215 491 
4 267 470 551 695 
5 224 341 232 518 517 
4 224 517 647 648 
5 27 268 341 232 547 
5 601 664 223 862 863 
6 98 97 685 653 807 796 
5 98 297 426 947 796 
6 296 459 523 524 521 557 
4 297 426 524 521 
6 523 524 426 947 946 498 
5 97 557 296 686 685 
6 458 459 296 686 652 161 
5 39 38 458 161 615 
5 47 528 274 572 570 
5 370 371 205 572 570 
4 553 554 233 556 
5 234 534 235 849 833 
5 79 82 472 526 525 
6 271 272 817 814 739 75 
5 272 399 518 232 817 
6 224 517 716 671 472 526 
6 163 78 76 82 472 671 
6 340 341 232 817 814 109 
7 226 358 453 414 174 565 566 
4 358 453 859 860 
4 365 442 448 917 
5 294 318 920 842 355 
5 235 236 545 848 849 
5 234 534 709 707 794 
5 235 236 818 709 534 
6 544 545 236 818 831 282 
6 234 794 841 845 835 833 
5 282 571 687 708 831 
6 521 524 943 944 506 597 
6 425 426 524 943 784 785 
5 31 237 153 506 944 
5 181 238 239 325 599 
6 181 182 195 608 609 238 
5 240 239 238 609 650 
5 211 210 231 366 72 
6 389 390 427 861 864 552 
5 562 636 858 896 640 
6 710 711 455 740 741 166 
5 99 97 685 143 293 
5 292 293 143 676 169 
5 295 296 686 434 96 
6 160 161 458 393 454 441 
4 177 270 961 412 
5 177 270 484 157 328 
4 86 379 454 393 
5 329 330 152 580 200 
5 228 41 830 288 701 
5 288 330 152 703 701 
6 237 153 703 701 228 229 
4 32 229 237 31 
5 200 580 506 944 945 
5 367 420 496 608 649 
4 195 279 496 608 
6 243 244 810 811 241 322 
5 241 189 190 242 322 
5 241 189 596 792 811 
5 239 243 322 242 325 
4 240 239 243 244 
6 151 618 225 631 632 626 
5 225 53 54 617 618 
6 472 526 910 529 971 972 
5 80 462 501 674 673 
5 82 472 972 689 662 
4 529 670 914 910 
5 236 476 576 887 818 
5 576 754 509 886 887 
5 194 282 831 832 377 
5 350 387 799 890 753 
5 376 377 194 387 350 
4 236 476 894 545 
5 477 478 274 572 205 
6 279 496 594 568 906 909 
6 420 421 202 593 594 496 
6 217 219 221 267 695 706 
5 215 216 137 490 491 
4 216 137 134 291 
5 133 134 291 333 334 
4 155 473 900 808 
6 431 432 882 884 759 106 
5 377 432 882 881 832 
6 430 880 881 832 886 885 
5 214 383 175 466 449 
5 175 383 479 159 416 
5 269 270 177 312 450 
5 176 245 369 283 511 
6 283 388 186 787 786 511 
6 245 362 432 377 194 369 
5 186 10 350 387 388 
5 176 178 361 362 245 
5 494 495 960 959 7 
5 316 317 958 957 435 
5 83 626 151 689 662 
6 73 77 734 632 626 83 
5 225 422 672 970 618 
5 321 322 243 536 535 
7 90 238 239 243 536 603 595 
6 156 246 720 91 512 513 
5 246 242 325 599 720 
5 156 246 242 322 321 
4 90 238 181 92 
6 385 386 892 891 797 763 
5 611 730 757 723 806 
5 386 756 731 888 892 
5 385 386 756 757 723 
4 763 773 63 797 
6 70 68 616 646 629 113 
5 179 315 394 813 870 
5 295 296 459 315 179 
5 737 738 520 867 865 
5 252 253 738 737 533 
5 253 324 359 520 738 
5 252 390 427 532 533 
5 154 323 706 695 551 
5 247 245 176 375 591 
5 247 591 647 648 912 
6 300 301 361 362 21 541 
6 247 245 362 21 911 912 
5 49 126 508 320 319 
6 246 242 190 346 560 287 
5 546 547 232 817 816 
6 233 320 508 397 543 554 
5 488 594 496 608 609 
5 90 238 609 488 918 
5 112 410 892 386 447 
6 721 722 822 107 872 873 
6 208 212 348 559 558 191 
5 208 191 485 486 209 
6 248 222 514 247 591 592 
5 247 514 529 910 912 
4 248 592 717 658 
6 248 222 969 970 672 658 
5 185 12 746 640 562 
5 184 249 636 562 185 
5 184 186 388 193 249 
5 193 249 636 858 783 
5 23 708 831 832 881 
4 220 114 65 67 
5 134 257 57 290 291 
5 175 383 482 464 463 
4 21 362 432 882 
5 424 586 757 723 724 
5 386 447 500 693 756 
5 156 246 287 577 530 
5 241 189 9 8 201 
5 201 241 322 321 158 
6 230 378 650 609 488 474 
5 277 278 828 474 230 
4 93 331 603 595 
5 93 331 278 828 921 
5 243 244 307 306 536 
5 240 244 307 378 650 
4 510 511 283 669 
5 193 249 89 327 639 
6 249 89 394 813 812 184 
5 89 88 635 636 249 
5 87 199 180 179 315 
6 199 180 904 905 563 273 
5 185 561 905 563 562 
5 200 199 180 579 580 
4 523 524 943 953 
5 208 191 474 230 207 
6 72 211 209 486 202 421 
6 366 367 649 650 378 231 
5 247 245 369 368 514 
5 558 559 585 693 843 
5 62 58 962 419 332 
6 140 286 423 332 419 408 
4 140 408 654 736 
4 244 307 439 810 
6 93 331 888 892 410 941 
5 155 473 289 512 513 
5 248 298 419 332 658 
5 248 298 413 374 592 
5 349 718 729 751 752 
6 278 731 756 693 843 828 
5 357 358 453 680 644 
6 164 216 137 132 101 102 
5 103 272 817 816 766 
5 132 101 803 227 123 
5 201 241 811 483 480 
5 206 100 101 132 131 
5 319 320 233 556 627 
5 213 586 424 937 939 
5 104 437 60 691 692 
6 400 445 213 586 757 730 
6 564 582 724 424 937 936 
5 213 348 559 585 586 
4 248 222 188 298 
5 683 684 666 747 13 
4 139 140 408 620 
5 368 369 283 669 668 
5 705 706 323 966 251 
5 661 679 704 791 790 
5 252 253 324 389 390 
4 258 259 457 456 
4 260 261 840 299 
5 376 377 432 431 262 
6 384 443 429 499 765 770 
5 263 440 505 638 637 
5 264 411 857 895 893 
6 487 565 856 857 411 583 
5 266 267 470 469 335 
5 583 584 852 853 487 
4 412 413 510 379 
5 340 341 268 401 402 
5 355 500 693 843 842 
7 379 454 642 788 786 511 510 
5 562 563 273 635 636 
5 274 478 489 527 528 
4 275 276 492 493 
5 277 278 731 730 400 
5 376 377 832 886 509 
5 287 560 960 959 577 
5 289 473 900 897 940 
5 295 296 557 633 634 
6 412 413 298 419 962 961 
4 304 305 364 363 
5 306 307 439 464 463 
5 393 394 315 459 458 
6 385 386 447 446 722 721 
6 565 566 313 783 858 856 
5 479 480 483 482 383 
5 356 657 732 699 700 
6 326 481 698 738 520 519 
5 422 423 332 658 672 
6 359 520 867 664 601 600 
4 338 339 460 461 
5 456 457 641 555 344 
6 368 514 529 670 687 571 
4 345 499 765 537 
5 351 352 945 952 951 
5 469 470 505 440 471 
5 425 426 947 949 354 
5 564 582 805 691 692 
5 797 891 502 902 903 
4 361 362 432 431 
6 365 568 594 488 918 917 
5 370 371 770 765 537 
4 372 373 468 467 
5 380 415 484 613 612 
4 374 375 591 592 
4 381 382 433 428 
5 393 394 813 642 454 
5 384 443 489 478 477 
5 507 508 397 573 574 
4 517 518 399 716 
5 408 419 962 964 654 
5 409 410 892 891 502 
4 414 453 680 660 
5 671 672 970 972 472 
4 429 443 489 527 
5 561 804 871 904 905 
4 436 437 445 444 
5 460 461 438 503 504 
4 441 454 642 641 
5 606 607 588 866 712 
5 474 488 918 921 828 
4 565 566 853 487 
6 550 551 695 694 647 648 
5 515 516 782 781 497 
6 610 611 730 731 888 889 
5 505 638 616 646 645 
6 579 580 506 597 633 634 
5 826 827 885 886 509 
5 512 513 602 603 595 
5 519 520 867 866 588 
4 521 557 633 597 
5 542 543 554 553 531 
5 635 636 858 856 598 
5 532 533 724 582 581 
5 735 736 661 790 778 
4 535 536 603 602 
5 564 582 581 684 683 
5 544 545 894 890 799 
5 600 601 863 864 552 
5 641 642 788 725 555 
5 723 724 582 805 806 
6 569 587 760 761 955 956 
5 571 630 845 841 687 
5 585 586 757 756 693 
6 606 607 801 800 767 768 
6 735 736 654 964 903 838 
4 608 609 650 649 
5 788 789 812 813 642 
5 612 613 615 807 808 
5 617 618 970 969 614 
4 628 629 646 645 
4 631 632 734 733 
5 655 656 741 740 659 
5 668 669 639 745 744 
4 643 644 680 679 
5 751 752 651 933 932 
4 652 653 685 686 
5 712 713 664 867 866 
5 707 708 831 818 709 
4 764 765 770 769 
5 671 672 658 717 716 
6 679 680 660 951 950 704 
5 673 674 688 689 662 
5 677 678 663 714 715 
5 681 682 665 711 710 
5 728 729 718 747 666 
5 670 687 841 927 925 
4 694 695 706 705 
5 696 697 789 788 725 
5 721 722 698 738 737 
5 750 850 719 915 916 
4 726 727 745 744 
4 730 731 756 757 
5 751 752 815 814 739 
5 748 749 956 955 758 
6 763 797 903 838 872 873 
5 775 776 759 884 883 
4 760 761 784 785 
5 777 778 790 791 762 
4 772 773 806 805 
5 794 795 774 927 841 
4 779 780 781 782 
5 783 799 890 896 858 
4 786 787 789 788 
4 792 793 810 811 
5 807 808 900 899 796 
5 800 801 824 823 798 
5 812 813 870 871 804 
4 814 815 816 817 
5 831 832 886 887 818 
4 819 820 824 823 
5 842 843 828 921 920 
5 834 835 833 849 848 
5 836 837 838 903 902 
5 844 845 841 927 926 
4 854 855 860 859 
5 856 857 895 896 858 
4 861 862 863 864 
5 866 867 865 875 874 
4 868 869 871 870 
4 872 873 875 874 
4 878 879 876 922 
5 881 882 884 883 880 
4 888 889 891 892 
5 893 894 890 896 895 
4 897 898 899 900 
5 902 903 964 963 901 
4 906 907 908 909 
5 911 912 910 914 913 
4 913 914 916 915 
4 924 925 927 926 
4 928 929 930 931 
4 932 933 935 934 
4 936 937 939 938 
5 943 944 945 952 953 
4 946 947 949 948 
4 950 951 952 953 
4 957 958 960 959 
4 961 962 964 963 
4 965 966 968 967 
4 969 970 972 971 
