# vtk DataFile Version 2.0
polydata
ASCII
DATASET POLYDATA
POINTS 85 double
2.10880822204715 2.03350779394106 3.40580178271146 
3.0011588668812 3.43597757778934 1.68831944223184 
2.50710509239072 2.4167357850672 2.25655770766954 
2.68271210243089 3.29317469176149 2.04642762320065 
2.26504118415021 2.83340322738459 1.96898186158627 
2.32522184551747 2.37666145085143 3.83051509663476 
3.0025199597612 3.69831124756191 1.61276821029739 
3.00998401930647 3.81021804766551 3.67177785391851 
2.94800666865287 2.72127350746107 3.22455922647344 
3.29676635635194 3.90912336972032 3.88747517509635 
1.68006707438164 3.42509746687588 3.17981892406018 
3.58286061659777 3.27753691449999 2.66806615410213 
3.38096020730141 4.21739183701088 2.03693779844588 
3.47904041051867 3.89925316279651 1.80839150030664 
1.75605145214247 3.65720454068501 2.97493226251492 
2.72267964506669 4.18167894885294 3.66687457952015 
2.53992833631991 4.28207571692288 3.18927137329234 
1.97800698635104 3.47281167539339 2.81958248358318 
3.38511240418714 3.64424433224405 3.09042937129478 
3.87878615210784 2.96087143740822 3.60455943588452 
3.7583100696133 2.8624183227882 3.41460933511804 
2.92813644147224 2.50359024312532 2.45590414751056 
2.8557664856727 2.37057489530805 2.88823969238986 
2.28320419881185 3.44823479857888 4.07726969726077 
3.35593157339972 3.33368249970885 1.86629520818708 
3.60329494612133 3.67948560346321 1.92836551102616 
1.93626022482085 3.24715481921246 2.98289519956633 
3.39802593563167 3.32202637093753 2.98344063686722 
3.10235856592921 3.21901561894428 2.94406919822429 
1.94147350761435 2.54322658915283 4.08967911070187 
3.38064661793381 2.50512344650635 3.5271838095294 
1.92607570523536 2.9684194057674 2.12099412659405 
3.74411489022112 3.63035529068076 2.52735471318238 
1.25727184592786 2.91898924539747 3.74680730216124 
1.85682901358848 4.01246730697514 3.71562020016523 
2.15952274449856 3.97144971560684 3.96186609511716 
2.93264151452871 3.38993417432284 3.03206694711099 
3.08112522023886 3.67151365051839 3.14390300716985 
2.61182458960211 2.79189362152618 3.59135716299493 
2.69780370303542 3.97173611881101 1.76254535932683 
1.59773809135368 2.57038030325138 2.83128336864489 
2.61750417359852 2.80628106308131 3.41776781149348 
2.5762466991182 2.95201923086823 3.41373641575257 
1.84605230364251 2.7221677038598 2.72394839717574 
3.28520517327131 2.4009105523452 3.91804228812849 
3.31707474495552 3.07935756233059 2.33010062406577 
3.08279753134837 3.05213387657551 2.42515521252569 
3.07736104870929 2.47627011105125 3.99732340471401 
2.56589487588753 2.9528083622065 3.59342449030958 
2.75504853417008 3.36993684962101 3.93247669644302 
1.97266461097865 4.16900000156317 3.24215280450992 
2.71599145905264 4.29221966532382 2.22194794096786 
2.8721896784592 4.29879852336229 1.98625364307303 
3.69521871390442 2.7723928839654 4.13502146785799 
2.77342544094876 3.99044057013307 2.90716042651214 
2.578112320659 3.64794572947797 2.75113611002412 
1.36937039326947 3.31620520536553 3.24284044815664 
1.28217340221377 2.9500706796709 3.17679207204034 
1.86838997741303 2.97336940484392 4.10520221563576 
3.39859824906032 2.48930630145364 4.14027909195702 
3.2113561307463 2.55973521502885 4.21107301621494 
1.81678347705783 2.06522233180551 3.40926682977823 
1.62759069846776 2.41979652875127 3.90097265140575 
2.90232208207301 4.27775709826968 2.66108630472825 
1.75787537273742 2.2126487786761 2.94447633400912 
1.97513346050104 3.4078863221596 2.24067929061847 
1.67969220188024 3.4695963066594 3.5269856078356 
2.09740431188462 3.20578936839897 3.88589687752426 
3.4760232237107 4.20194235673525 2.59976551220648 
3.63597193818316 3.91848176092391 2.76231717819895 
2.48503845523368 3.91076604812478 2.00066062114262 
2.45924086898388 3.57868521917534 2.19564946286222 
3.56682581555622 3.15942727407238 4.33842545699157 
1.37894417612741 3.36164737310283 3.54841510038898 
1.30767899933986 3.07129233379943 3.81403041107847 
3.08241001568906 3.36333003554202 4.30289132356643 
3.26301777671118 3.12982827841255 4.40058602919727 
2.32281887504867 2.27507225631297 2.95127489044835 
2.21655364085674 2.28396795663877 2.83654034636736 
2.25229481117319 2.15508921133942 2.97723028863272 
2.16492760393953 2.18343681366918 2.86753197934971 
3.85790858834594 3.67032349127163 3.69874172409856 
3.7153118243031 3.82357436746542 3.56114689610702 
3.77429742499825 3.73909840164003 3.89790934268835 
3.60042436765527 3.91415813124341 3.80007196708586 
POLYGONS 61 374
5 0 61 64 80 79 
5 1 3 46 45 24 
5 4 2 21 46 3 
5 5 0 61 62 29 
5 19 53 72 83 81 
5 3 4 31 65 71 
6 1 6 39 70 71 3 
5 27 28 8 30 20 
6 19 20 30 44 59 53 
4 7 9 75 49 
6 8 30 44 47 38 41 
6 7 9 84 82 18 37 
6 36 37 7 49 48 42 
5 8 28 36 42 41 
6 9 75 76 72 83 84 
6 19 20 27 18 82 81 
5 27 28 36 37 18 
6 5 0 79 77 41 38 
6 10 26 42 48 67 66 
6 40 57 33 62 61 64 
6 5 29 58 67 48 38 
5 29 58 74 33 62 
6 10 26 43 40 57 56 
4 10 56 73 66 
5 56 57 33 74 73 
5 27 28 46 45 11 
6 28 36 55 71 3 46 
5 24 25 32 11 45 
5 51 52 12 68 63 
6 12 13 25 32 69 68 
5 18 27 11 32 69 
6 18 37 54 63 68 69 
6 54 55 71 70 51 63 
5 6 13 12 52 39 
5 1 6 13 25 24 
5 21 22 77 78 2 
5 10 14 50 34 66 
4 8 22 77 41 
5 21 22 8 28 46 
5 7 15 35 23 49 
5 16 15 7 37 54 
6 17 14 50 16 54 55 
4 17 55 71 65 
4 48 49 23 67 
5 16 15 35 34 50 
5 4 2 78 43 31 
5 17 26 43 31 65 
5 17 26 42 36 55 
4 17 14 10 26 
5 34 35 23 67 66 
4 41 42 48 38 
7 38 47 60 76 75 49 48 
6 41 42 26 43 78 77 
4 36 37 54 55 
4 51 52 39 70 
5 40 43 78 80 64 
4 44 47 60 59 
5 59 60 76 72 53 
5 66 67 58 74 73 
4 77 78 80 79 
4 81 82 84 83 
