# vtk DataFile Version 2.0
polydata
ASCII
DATASET POLYDATA
POINTS 20 double
2.50710509239072 2.4167357850672 2.25655770766954 
2.68271210243089 3.29317469176149 2.04642762320065 
2.26504118415021 2.83340322738459 1.96898186158627 
2.94800666865287 2.72127350746107 3.22455922647344 
1.97800698635104 3.47281167539339 2.81958248358318 
2.92813644147224 2.50359024312532 2.45590414751056 
2.8557664856727 2.37057489530805 2.88823969238986 
1.93626022482085 3.24715481921246 2.98289519956633 
3.10235856592921 3.21901561894428 2.94406919822429 
1.92607570523536 2.9684194057674 2.12099412659405 
2.93264151452871 3.38993417432284 3.03206694711099 
2.61750417359852 2.80628106308131 3.41776781149348 
2.5762466991182 2.95201923086823 3.41373641575257 
1.84605230364251 2.7221677038598 2.72394839717574 
3.08279753134837 3.05213387657551 2.42515521252569 
2.578112320659 3.64794572947797 2.75113611002412 
1.97513346050104 3.4078863221596 2.24067929061847 
2.45924086898388 3.57868521917534 2.19564946286222 
2.32281887504867 2.27507225631297 2.95127489044835 
2.21655364085674 2.28396795663877 2.83654034636736 
POLYGONS 12 72
5 2 0 5 14 1 
5 1 2 9 16 17 
5 3 8 10 12 11 
6 8 10 15 17 1 14 
5 5 6 18 19 0 
4 3 6 18 11 
5 5 6 3 8 14 
4 4 15 17 16 
5 2 0 19 13 9 
5 4 7 13 9 16 
5 4 7 12 10 15 
6 11 12 7 13 19 18 
